<?xml version="1.0" standalone="no"?>
<!DOCTYPE svg PUBLIC "-//W3C//DTD SVG 1.1//EN" "http://www.w3.org/Graphics/SVG/1.1/DTD/svg11.dtd">
<svg xmlns="http://www.w3.org/2000/svg"><metadata>This SVG WebFont was generated by YouWorkForThem.
Copyright (c) 2013 by Miguel &amp; Daniel Hernndez. All rights reserved.</metadata><defs><font horiz-adv-x="1126" id="ywftsvg"><font-face ascent="1536" bbox="-346 -512 2126 1890" cap-height="1229" descent="-512" font-family="" font-stretch="normal" font-weight="700" panose-1="0 0 0 0 0 0 0 0 0 0" underline-position="0" underline-thickness="0" unicode-range="U+000D-FB04" units-per-em="2048" x-height="709"/><missing-glyph horiz-adv-x="1024"/><glyph glyph-name=".notdef" horiz-adv-x="1024"/><glyph glyph-name="glyph1" horiz-adv-x="0"/><glyph glyph-name="glyph2" horiz-adv-x="681"/><glyph glyph-name="glyph3" horiz-adv-x="0"/><glyph glyph-name="glyph3" horiz-adv-x="0"/><glyph glyph-name="space" horiz-adv-x="378" unicode=" "/><glyph d="M369 1229v-80l-50 -770h-137l-51 770v80h238zM123 112.5q0 53.5 38 91.5t91 38t91 -38t38 -91.5t-38 -91t-91 -37.5t-91 37.5t-38 91z" glyph-name="exclam" horiz-adv-x="503" unicode="!"/><glyph d="M90 948v33l39 395h174v-33l-86 -395h-127zM387 948v33l41 395h172v-33l-84 -395h-129z" glyph-name="quotedbl" horiz-adv-x="667" unicode="&quot;"/><glyph d="M1094 1194l-72 -317h250l-27 -121h-250l-71 -320h243l-26 -121h-246l-70 -315h-131l70 315h-320l-69 -315h-131l69 315h-247l26 121h250l72 320h-242l25 121h243l72 317h131l-72 -317h320l72 317h131zM545 756l-72 -320h320l71 320h-319z" glyph-name="numbersign" horiz-adv-x="1337" unicode="#"/><glyph d="M576 160q114 0 177.5 46t63.5 121t-61.5 117t-261.5 100t-301 140t-101 226t103.5 236.5t296.5 106.5v158h147v-158q117 -8 210 -38.5t130 -55.5l35 -26l-111 -166q-14 10 -40.5 27.5t-116.5 45t-196 27.5t-171.5 -39.5t-65.5 -107.5t62.5 -107t264.5 -94t302 -143 t100 -236t-101 -248t-302 -117v-157h-147v155q-123 8 -225.5 46t-143.5 71l-41 35l111 154q16 -12 46.5 -33t126.5 -53.5t210 -32.5z" glyph-name="dollar" horiz-adv-x="1116" unicode="$"/><glyph d="M350 1255q129 0 205 -89t76 -216t-76 -217t-205 -90t-204.5 90t-75.5 217t75.5 216t204.5 89zM350 1124q-125 0 -125 -174t125 -174q61 0 93 46t32 128t-32 128t-93 46zM1110 1245l115 -92l-961 -1155l-112 92zM1028 596q129 0 205 -89t76 -217t-76 -217t-205 -89 t-206 90t-77 217t77 216t206 89zM1028.5 465q-61.5 0 -94.5 -47t-33 -127t34 -127t93 -47t92 47t33 127t-31.5 127t-93 47z" glyph-name="percent" horiz-adv-x="1378" unicode="%"/><glyph d="M106 336q0 121 71 197.5t194 134.5l-23 22q-121 121 -121 259t95.5 222t258.5 84t260 -86t97 -210t-71.5 -199.5t-198.5 -138.5l276 -263q59 113 60 244v45h194v-41q0 -207 -117 -379l219 -209v-18h-237l-102 98q-158 -125 -381 -125t-348.5 99.5t-125.5 263.5zM599 150 q130 0 230 73l-327 318q-84 -45 -129 -90t-45 -118t70.5 -128t200.5 -55zM587 1085q-167 0 -167 -159q0 -80 117 -187q102 43 156.5 88t54.5 111t-41 106.5t-120 40.5z" glyph-name="ampersand" horiz-adv-x="1300" unicode="&amp;"/><glyph d="M90 948v33l39 395h174v-33l-86 -395h-127z" glyph-name="quotesingle" horiz-adv-x="368" unicode="'"/><glyph d="M266 527q0 -468 408 -722l-103 -141q-121 64 -219 164t-155.5 191.5t-98.5 226.5t-41 282.5t41 282.5t98.5 226t153.5 189.5t221 164.5l103 -142q-408 -254 -408 -722z" glyph-name="parenleft" horiz-adv-x="692" unicode="("/><glyph d="M637 528.5q0 -147.5 -41 -282.5t-99.5 -226.5t-155 -191t-220.5 -164.5l-101 141q408 254 408 722t-408 722l101 142q128 -68 222.5 -165.5t153 -188.5t99.5 -226t41 -282.5z" glyph-name="parenright" horiz-adv-x="692" unicode=")"/><glyph d="M344 1493h143v-59l-30 -158h-86l-27 158v59zM684 1188l-160 -23l-26 80l145 78l53 18l43 -137zM305 1165l-160 23l-57 16l45 137l53 -18l146 -78zM201 1008l118 114l68 -49l-70 -149l-34 -45l-115 79zM510 1120l117 -112l35 -50l-117 -79l-33 45l-72 149z" glyph-name="asterisk" horiz-adv-x="827" unicode="*"/><glyph d="M584 1018v-324h321v-164h-321v-311h-170v311h-328v164h328v324h170z" glyph-name="plus" horiz-adv-x="991" unicode="+"/><glyph d="M51 110q0 49 36 84t88 35t88 -35.5t36 -102.5t-47 -150l-78 -138h-133l72 127l37 45v11q-43 10 -71 42.5t-28 81.5z" glyph-name="comma" horiz-adv-x="352" unicode=","/><glyph d="M98 514v166h590v-166h-590z" glyph-name="hyphen" horiz-adv-x="786" unicode="-"/><glyph d="M51 107q0 52 36 88t88 36t88 -35.5t36 -89t-35 -88t-88 -34.5t-89 35.5t-36 87.5z" glyph-name="period" horiz-adv-x="352" unicode="."/><glyph d="M707 1440l-453 -1800h-199l453 1800h199z" glyph-name="slash" horiz-adv-x="761" unicode="/"/><glyph d="M639 -29q-258 0 -405.5 184.5t-147.5 457.5t147.5 457.5t405.5 184.5t404.5 -183.5t146.5 -457.5t-146.5 -458.5t-404.5 -184.5zM639 168q164 0 253 124t89 322t-89 322.5t-253 124.5t-254 -125t-90 -323t90 -321.5t254 -123.5z" glyph-name="zero" horiz-adv-x="1275" unicode="0"/><glyph d="M43 1049v180h461v-1229h-203v1049h-258z" glyph-name="one" horiz-adv-x="681" unicode="1"/><glyph d="M84 0v41l514 586q68 76 92.5 121t24.5 100q0 92 -65.5 152.5t-176.5 60.5q-66 0 -103.5 -14.5t-63 -26.5t-58.5 -33.5t-36 -24.5l-40 -36l-109 161q68 68 175 118t251 50q217 0 333 -106.5t116 -266.5t-133 -313l-342 -389h508v-180h-887z" glyph-name="two" horiz-adv-x="1056" unicode="2"/><glyph d="M532 584h-178v51l279 414h-508v180h825v-41l-307 -453q164 -16 252 -114.5t88 -263.5t-126 -275.5t-351 -110.5q-156 0 -275.5 58.5t-164.5 103.5l-9 6l103 158q16 -14 46 -36.5t119 -60.5t195 -38t177 58.5t71 151.5t-62.5 152.5t-173.5 59.5z" glyph-name="three" horiz-adv-x="1067" unicode="3"/><glyph d="M47 276v146l723 807h148v-772h147v-181h-147v-276h-203v276h-668zM317 457h398v456l-359 -407l-39 -29v-20z" glyph-name="four" horiz-adv-x="1142" unicode="4"/><glyph d="M911 1049h-540l-9 -299q86 12 142 12q244 0 360.5 -104.5t116.5 -284.5t-123 -291t-352 -111q-154 0 -272.5 58.5t-155.5 93.5l-21 18l103 158q50 -50 153 -93.5t209 -43.5t176 59.5t70 157.5t-77 154.5t-226 56.5t-209.5 -20.5t-65.5 -24.5l-28 20l20 664h729v-180z" glyph-name="five" horiz-adv-x="1054" unicode="5"/><glyph d="M86 386q0 183 117 372l289 471h247l-245 -393q-28 -44 -56 -66l-10 -12v-15q66 33 139 33q203 0 325 -107.5t122 -288.5t-130 -295t-334 -114t-334 116t-130 299zM555 600q-113 0 -183.5 -63.5t-70.5 -159.5t70.5 -160.5t182.5 -64.5t179.5 64.5t67.5 161.5t-66.5 159.5 t-179.5 62.5z" glyph-name="six" horiz-adv-x="1064" unicode="6"/><glyph d="M70 1049v180h878v-47l-555 -1182h-241l505 1049h-587z" glyph-name="seven" horiz-adv-x="958" unicode="7"/><glyph d="M556 -29q-214 0 -340 105.5t-126 263.5q0 209 195 309q-145 95 -145 253t113.5 255.5t304 97.5t303 -97t112.5 -256t-146 -253q195 -102 195 -309q0 -156 -126 -262.5t-340 -106.5zM557 152q113 0 182.5 59t69.5 147t-70.5 147.5t-181.5 59.5t-182.5 -59.5t-71.5 -147.5 t70.5 -147t183.5 -59zM557 715q96 0 153.5 52t57.5 130t-57.5 128t-153.5 50t-153.5 -50t-57.5 -128t57.5 -130t153.5 -52z" glyph-name="eight" horiz-adv-x="1112" unicode="8"/><glyph d="M983 841q0 -183 -117 -372l-284 -469h-254l254 408q26 41 49 55l8 8v8q-63 -29 -137 -28q-203 0 -325 107.5t-122 288.5t129 294.5t333 113.5t335 -115.5t131 -298.5zM764 841q0 99 -68.5 163.5t-179 64.5t-177.5 -62.5t-67 -158.5t65 -156.5t175 -60.5t181 55.5 t71 154.5z" glyph-name="nine" horiz-adv-x="1069" unicode="9"/><glyph d="M88 590q0 53 36 89t87 36t88 -36t37 -88t-36 -88t-88 -36t-88 35t-36 88zM88 106.5q0 53.5 36 89t87 35.5t88 -35.5t37 -87.5t-36 -88t-88 -36t-88 34.5t-36 88z" glyph-name="colon" horiz-adv-x="425" unicode=":"/><glyph d="M104 110q0 49 36 85t88 36t89 -36.5t37 -103.5t-49 -150l-78 -138h-131l72 127q20 35 35 45v11q-43 10 -71 42.5t-28 81.5zM104 591q0 52 36 88t89.5 36t89 -36t35.5 -88t-35.5 -88t-89 -36t-89.5 36t-36 88z" glyph-name="semicolon" horiz-adv-x="452" unicode=";"/><glyph d="M561 90l-491 475v47l491 475l119 -120l-395 -379l395 -375z" glyph-name="less" horiz-adv-x="782" unicode="&lt;"/><glyph d="M170 715v164h776v-164h-776zM170 324v163h776v-163h-776z" glyph-name="equal" horiz-adv-x="1116" unicode="="/><glyph d="M713 565l-494 -475l-117 123l396 375l-396 379l117 120l494 -475v-47z" glyph-name="greater" horiz-adv-x="782" unicode=">"/><glyph d="M281 371v75q0 80 35.5 149t77.5 109.5t78 100t36 126.5t-49 111.5t-115 44.5q-126 0 -184 -40l-23 -15l-69 156q111 68 287 68t267 -83t91 -217t-70 -207t-143 -141t-80 -178l-4 -59h-135zM229 106.5q0 53.5 36 89t88 35.5t88 -35.5t36 -87.5t-35.5 -88t-89 -36 t-88.5 34.5t-35 88z" glyph-name="question" horiz-adv-x="794" unicode="?"/><glyph d="M934 -500q-207 0 -374 71t-326.5 255t-159.5 546t160.5 546t328 254.5t355.5 70.5t385 -62.5t335 -262t138 -432.5q0 -234 -99.5 -373.5t-261.5 -139.5t-210 58.5t-58 87.5h-14q-10 -25 -32 -50.5t-85.5 -55t-147.5 -29.5q-152 0 -253 101t-101 271t100 269.5t266 99.5 t240 -115l27 99h129v-426q0 -145 135 -146q94 0 147.5 88t53.5 244q0 266 -178.5 441t-495.5 175t-508.5 -199.5t-191.5 -513.5t190 -514t506 -200q104 0 193.5 17.5t125.5 35.5l37 19l68 -140q-14 -10 -44 -25.5t-139.5 -40t-240.5 -24.5zM1102 356.5q0 96.5 -54.5 151.5 t-142.5 55t-143 -57t-55 -149.5t56 -152t142 -59.5t141.5 57.5t55.5 154z" glyph-name="at" horiz-adv-x="1865" unicode="@"/><glyph d="M-10 0l618 1229h39l623 -1229h-232l-92 186h-637l-90 -186h-229zM854 373l-219 481h-12l-222 -481l-12 -21h477z" glyph-name="A" horiz-adv-x="1257" unicode="A"/><glyph d="M1210 350q0 -170 -123.5 -260t-336.5 -90h-590v1229h569q213 0 327.5 -86t114.5 -248q0 -186 -170 -256v-18q96 -31 152.5 -101t56.5 -170zM772 541h-410v-361h394q106 0 173.5 48t67.5 131t-63.5 132.5t-161.5 49.5zM961 874q0 174 -236 175h-363v-347h363 q109 0 172.5 47t63.5 125z" glyph-name="B" horiz-adv-x="1302" unicode="B"/><glyph d="M78 613q0 273 179 457.5t454 184.5t430 -137l16 -16l-117 -158q-14 12 -40.5 32.5t-107.5 53.5t-163 33q-195 0 -318.5 -128.5t-123.5 -320.5t124 -320t318 -128q88 0 166 29.5t113 58.5l32 29l117 -156l-13 -13q-14 -14 -106.5 -78.5t-312.5 -64.5q-287 0 -467 184.5 t-180 457.5z" glyph-name="C" horiz-adv-x="1200" unicode="C"/><glyph d="M1272 614.5q0 -276.5 -178.5 -445.5t-475.5 -169h-458v1229h458q297 0 475.5 -169t178.5 -445.5zM604 1049h-242v-869h242q203 0 332 116t129 318.5t-129 318.5t-332 116z" glyph-name="D" horiz-adv-x="1353" unicode="D"/><glyph d="M981 694v-172h-619v-342h730v-180h-932v1229h932v-180h-730v-355h619z" glyph-name="E" horiz-adv-x="1167" unicode="E"/><glyph d="M160 0v1229h932v-180h-730v-355h633v-172h-633v-522h-202z" glyph-name="F" horiz-adv-x="1144" unicode="F"/><glyph d="M1090 516v6h-400v172h610v-104q0 -283 -152 -451t-436 -168t-459 183.5t-175 458t178 458.5t469 184q141 0 256 -39.5t158 -78.5l45 -39l-121 -156q-14 14 -41 33.5t-115 53.5t-184 34q-195 0 -315.5 -128t-120.5 -322t117.5 -320.5t299.5 -126.5t284 98t102 252z" glyph-name="G" horiz-adv-x="1372" unicode="G"/><glyph d="M1229 1229v-1229h-203v516h-664v-516h-202v1229h202v-541h664v541h203z" glyph-name="H" horiz-adv-x="1388" unicode="H"/><glyph d="M362 1229v-1229h-202v1229h202z" glyph-name="I" horiz-adv-x="524" unicode="I"/><glyph d="M354 168q123 0 184.5 66.5t63.5 211.5v783h205v-821q-2 -201 -112.5 -318.5t-319.5 -117.5t-336 102l94 166q98 -72 221 -72z" glyph-name="J" horiz-adv-x="954" unicode="J"/><glyph d="M362 1229v-625l617 625h246v-25l-486 -493l486 -684v-27h-240l-391 563l-232 -237v-326h-202v1229h202z" glyph-name="K" horiz-adv-x="1251" unicode="K"/><glyph d="M1044 0h-884v1229h202v-1049h682v-180z" glyph-name="L" horiz-adv-x="1069" unicode="L"/><glyph d="M1190 0v801l-389 -406h-47l-392 406v-801h-202v1229h57l559 -574l563 574h54v-1229h-203z" glyph-name="M" horiz-adv-x="1552" unicode="M"/><glyph d="M1266 1229v-1229h-54l-850 823v-823h-202v1229h53l850 -811v811h203z" glyph-name="N" horiz-adv-x="1425" unicode="N"/><glyph d="M722 -29q-290 0 -467 184.5t-177 457.5t176 457.5t467 184.5t468 -183.5t177 -457.5t-177 -458.5t-467 -184.5zM722 168q194 0 314.5 126t120.5 318.5t-120.5 320.5t-314.5 128t-314.5 -127.5t-120.5 -319.5t120.5 -319t314.5 -127z" glyph-name="O" horiz-adv-x="1443" unicode="O"/><glyph d="M160 0v1229h534q231 0 363.5 -108.5t132.5 -311.5t-138.5 -316.5t-369.5 -113.5h-320v-379h-202zM983 805q0 119 -79 181.5t-218 62.5h-324v-492h324q297 0 297 248z" glyph-name="P" horiz-adv-x="1243" unicode="P"/><glyph d="M721 -29q-289 0 -466 184.5t-177 457.5t176 457.5t467 184.5t468 -183t177 -460q0 -160 -65.5 -296t-184.5 -224l121 -176v-27h-219l-76 115q-108 -33 -221 -33zM653 467h209l139 -205q156 127 156 335t-120.5 336t-314.5 128t-314.5 -127.5t-120.5 -319.5t120.5 -319 t313.5 -127q49 0 104 10l-172 262v27z" glyph-name="Q" horiz-adv-x="1443" unicode="Q"/><glyph d="M160 0v1229h532q233 0 365.5 -108.5t132.5 -307.5q0 -281 -256 -381v-12l305 -391v-29h-225l-301 389h-351v-389h-202zM981 805q0 119 -79 181.5t-216 62.5h-324v-484h336q131 0 207 60.5t76 179.5z" glyph-name="R" horiz-adv-x="1302" unicode="R"/><glyph d="M570 160q114 0 177.5 46t63.5 121t-61.5 117t-261.5 100t-301 140t-101 234t123 244.5t346 92.5q141 0 254 -30.5t156 -61.5l43 -30l-111 -166q-14 10 -41 27.5t-116.5 45t-195.5 27.5t-171.5 -39.5t-65.5 -107.5t62.5 -107t264.5 -94t302 -144t100 -243t-120.5 -257.5 t-358.5 -103.5q-145 0 -265 39t-169 76l-47 39l110 154q16 -12 47 -33t127 -53.5t210 -32.5z" glyph-name="S" horiz-adv-x="1107" unicode="S"/><glyph d="M29 1049v180h1030v-180h-414v-1049h-203v1049h-413z" glyph-name="T" horiz-adv-x="1087" unicode="T"/><glyph d="M679 -29q-247 0 -392.5 152.5t-145.5 396.5v709h203v-709q0 -156 86 -255t247 -99t246 98t85 256v709h202v-709q0 -246 -142 -397.5t-389 -151.5z" glyph-name="U" horiz-adv-x="1353" unicode="U"/><glyph d="M621 367h12l119 266l286 596h228l-619 -1229h-41l-616 1229h227l291 -596z" glyph-name="V" horiz-adv-x="1257" unicode="V"/><glyph d="M526 395l273 834h86l266 -834h18l39 135l246 699h217l-469 -1229h-98l-227 707l-31 122h-10l-33 -122l-232 -707h-94l-469 1229h215l250 -699l37 -135h16z" glyph-name="W" horiz-adv-x="1681" unicode="W"/><glyph d="M1135 1229l-398 -598l412 -631h-246l-268 422l-49 96l-49 -96l-267 -422h-243l407 631l-395 598h244l260 -402l45 -96l45 96l258 402h244z" glyph-name="X" horiz-adv-x="1171" unicode="X"/><glyph d="M670 0h-203v469l-467 760h236l290 -481l33 -72h23l34 72l289 481h234l-469 -760v-469z" glyph-name="Y" horiz-adv-x="1136" unicode="Y"/><glyph d="M57 0v53l680 996h-655v180h981v-53l-664 -996h654v-180h-996z" glyph-name="Z" horiz-adv-x="1122" unicode="Z"/><glyph d="M143 -324v1704h490v-163h-299v-1377h299v-164h-490z" glyph-name="bracketleft" horiz-adv-x="677" unicode="["/><glyph d="M506 -360l-453 1800h201l453 -1800h-201z" glyph-name="backslash" horiz-adv-x="761" unicode="\"/><glyph d="M45 -324v164h299v1377h-299v163h490v-1704h-490z" glyph-name="bracketright" horiz-adv-x="677" unicode="]"/><glyph d="M106 1004v32l244 332h115l246 -332v-32h-148l-155 219l-154 -219h-148z" glyph-name="asciicircum" horiz-adv-x="817" unicode="^"/><glyph d="M84 -205v164h846v-164h-846z" glyph-name="underscore" horiz-adv-x="1019" unicode="_"/><glyph d="M94 1182h236l78 -291v-33h-129l-185 291v33z" glyph-name="grave" horiz-adv-x="520" unicode="`"/><glyph d="M53 208q0 99 81 158.5t221 59.5t214 -53h11v33q0 158 -207 157q-51 0 -101.5 -13t-74.5 -26l-23 -14l-63 147q105 68 295 68t278 -89t88 -247v-389h-143l-21 78h-10q-63 -94 -252 -94q-137 0 -215 62.5t-78 161.5zM248 218q0 -46 39 -73.5t113 -27.5t124.5 33.5 t50.5 73.5t-48 66.5t-125 26.5t-115.5 -26.5t-38.5 -72.5z" glyph-name="a" horiz-adv-x="868" unicode="a"/><glyph d="M109 0v1368h200v-739h8q6 10 19.5 26.5t72 43t136.5 26.5q150 0 249 -103.5t99 -269.5t-100.5 -267t-253.5 -101q-88 0 -151.5 29.5t-84.5 60.5l-20 28h-9l-30 -102h-135zM299 355q0 -93 55.5 -149t141.5 -56t140 57t54 147t-54 147.5t-140 57.5t-141.5 -55.5 t-55.5 -148.5z" glyph-name="b" horiz-adv-x="956" unicode="b"/><glyph d="M452 -16q-165 0 -278 105t-113 265t113 265.5t289 105.5q68 0 126 -14.5t83 -30.5l24 -14l-59 -150q-61 43 -157 43t-156 -56.5t-60 -148.5t60.5 -148t148.5 -56t145 32l19 11l53 -148q-73 -61 -238 -61z" glyph-name="c" horiz-adv-x="739" unicode="c"/><glyph d="M647 635v733h201v-1368h-135l-31 98h-8q-5 -11 -59.5 -62.5t-202.5 -51.5t-248.5 101t-100.5 267t99.5 269.5t249.5 103.5q78 0 134 -22.5t75 -45.5l18 -22h8zM657 355q0 93 -55 148.5t-140 55.5t-140.5 -57.5t-55.5 -146.5t55.5 -147t140.5 -58t140 56t55 149z" glyph-name="d" horiz-adv-x="956" unicode="d"/><glyph d="M471 -20q-186 0 -298 105t-112 267t106.5 267.5t272.5 105.5t261.5 -100.5t95.5 -259.5v-50h-539q12 -88 72 -133t132 -45q122 0 193 39l21 14l65 -129q-10 -8 -29.5 -22t-89 -36.5t-151.5 -22.5zM439 575q-69 0 -116 -37.5t-61 -109.5h344q-10 66 -54 106.5t-113 40.5z " glyph-name="e" horiz-adv-x="849" unicode="e"/><glyph d="M633 551h-238v-551h-200v551h-158v158h158v290q0 180 85 272.5t234 92.5q80 0 117 -15.5t45 -17.5l6 -4l-51 -174q-47 25 -88 25q-147 0 -148 -179v-290h238v-158z" glyph-name="f" horiz-adv-x="667" unicode="f"/><glyph d="M434.5 -485q-190.5 0 -293 71.5t-102.5 196.5t129 182v12q-115 51 -115 158t117 162q-51 68 -51 154q0 121 85 196.5t216 75.5l381 -18v-140h-117v-10q37 -27 37 -123t-83 -170t-218 -74q-80 0 -144 29q-49 -25 -49 -63t44 -58t163 -20q399 0 400 -273 q0 -127 -104.5 -207.5t-295 -80.5zM435 -78q-101 0 -152.5 -38t-51.5 -93t51.5 -92t152.5 -37t151.5 36t50.5 93t-50.5 94t-151.5 37zM419.5 578q-63.5 0 -100 -36t-36.5 -89.5t36.5 -88t100 -34.5t100.5 34.5t37 88t-37 89.5t-100.5 36z" glyph-name="g" horiz-adv-x="839" unicode="g"/><glyph d="M109 0v1368h200v-725h6q79 82 221 82t225 -85t83 -228v-412h-201v385q0 78 -43 126t-120 48t-124 -45t-47 -102v-412h-200z" glyph-name="h" horiz-adv-x="942" unicode="h"/><glyph d="M211 963q-51 0 -85 33.5t-34 85t34 86t85 34.5t86 -34.5t35 -86t-35 -85t-86 -33.5zM111 0v709h200v-709h-200z" glyph-name="i" horiz-adv-x="419" unicode="i"/><glyph d="M106 709h203v-873q0 -248 -225 -248q-80 0 -141 35l30 150q29 -16 62 -17q72 0 71 88v865zM208 963q-50 0 -85 33.5t-35 85t35 86t85 34.5t85 -34.5t35 -86t-35 -85t-85 -33.5z" glyph-name="j" horiz-adv-x="415" unicode="j"/><glyph d="M307 301v-301h-201v1368h201v-969h4l256 310h228l-289 -344l330 -365h-256l-267 301h-6z" glyph-name="k" horiz-adv-x="843" unicode="k"/><glyph d="M111 0v1368h200v-1368h-200z" glyph-name="l" horiz-adv-x="419" unicode="l"/><glyph d="M109 0v709h129l26 -99h10q86 115 259 115t258 -123h10q74 123 262 123q145 0 229 -85t84 -228v-412h-200v383q0 80 -42 128t-120 48t-124 -46t-46 -105v-408h-201v399q0 72 -43 116t-121 44t-124 -46t-46 -105v-408h-200z" glyph-name="m" horiz-adv-x="1474" unicode="m"/><glyph d="M109 0v709h129l26 -99h10q82 115 240 115t244 -85t86 -228v-412h-201v383q0 80 -43 128t-121 48t-124 -45t-46 -102v-412h-200z" glyph-name="n" horiz-adv-x="940" unicode="n"/><glyph d="M852 351q0 -165 -113.5 -266t-281.5 -101t-282 101t-114 267t114 269.5t281 103.5t281.5 -104.5t114.5 -269.5zM457 143q86 0 142 57.5t56 152.5t-56 153.5t-142 58.5t-142.5 -57.5t-56.5 -153.5t56.5 -153.5t142.5 -57.5z" glyph-name="o" horiz-adv-x="911" unicode="o"/><glyph d="M309 74v-467h-200v1102h131l30 -99h11q8 12 23 32t82 51.5t153 31.5q154 0 254 -101.5t100 -267.5t-99.5 -269t-248.5 -103q-78 0 -135.5 22.5t-73.5 44.5l-19 23h-8zM299 353q0 -93 55.5 -148t141.5 -55t140 57t54 147t-54 147.5t-140 57.5t-141.5 -56.5t-55.5 -149.5z " glyph-name="p" horiz-adv-x="956" unicode="p"/><glyph d="M848 709v-1102h-201v473h-8q-6 -10 -19.5 -26.5t-72 -43t-135.5 -26.5q-150 0 -249.5 103t-99.5 269t100.5 267.5t256.5 101.5q88 0 151.5 -30.5t83.5 -61.5l21 -31h10l29 107h133zM657 353q0 93 -55 149.5t-140 56.5t-140.5 -58.5t-55.5 -147.5t55.5 -146t140.5 -57 t140 55t55 148z" glyph-name="q" horiz-adv-x="956" unicode="q"/><glyph d="M462 537q-60 0 -106.5 -43t-46.5 -107v-387h-200v709h129l26 -99h8q72 104 207 105q86 0 150 -43l-72 -160q-35 25 -95 25z" glyph-name="r" horiz-adv-x="630" unicode="r"/><glyph d="M370 131q134 0 134 74q0 54 -108.5 78t-172 44.5t-108.5 65.5t-45 129t77.5 143.5t235.5 59.5q92 0 171 -14.5t112 -30.5l32 -14l-63 -148q-82 57 -219 57t-137 -67q0 -50 172.5 -86t219 -97t46.5 -120q0 -98 -83 -159.5t-249 -61.5q-98 0 -179 20.5t-112 40.5l-33 18 l62 138q113 -70 247 -70z" glyph-name="s" horiz-adv-x="778" unicode="s"/><glyph d="M487 154q45 0 93 26l65 -137q-63 -59 -194 -59t-208 78.5t-77 224.5v262h-133v160h133v213h201v-213h247v-160h-247v-254q0 -141 120 -141z" glyph-name="t" horiz-adv-x="673" unicode="t"/><glyph d="M829 709v-709h-135l-35 96h-8q-61 -113 -241 -112q-145 0 -229.5 85t-84.5 228v412h201v-383q0 -80 41 -128t119 -48t125 45t47 100v414h200z" glyph-name="u" horiz-adv-x="935" unicode="u"/><glyph d="M420 240h10q0 25 14 57l174 412h222l-344 -709h-142l-344 709h221l175 -412q14 -33 14 -57z" glyph-name="v" horiz-adv-x="849" unicode="v"/><glyph d="M604 461q0 -29 -14 -68l-135 -393h-140l-297 709h215l140 -412q14 -43 14 -57h14q0 20 13 57l125 412h145l125 -412q12 -41 12 -57h15q0 16 12 57l143 412h209l-297 -709h-139l-137 393q-12 33 -13 68h-10z" glyph-name="w" horiz-adv-x="1218" unicode="w"/><glyph d="M20 0l281 360l-268 349h225l160 -224h4l160 224h225l-268 -349l280 -360h-227l-170 240h-4l-172 -240h-226z" glyph-name="x" horiz-adv-x="839" unicode="x"/><glyph d="M827 709l-508 -1102h-213l224 450l-314 652h220l170 -398q16 -35 18 -71h10q2 31 21 71l168 398h204z" glyph-name="y" horiz-adv-x="841" unicode="y"/><glyph d="M725 0h-659v88l378 459h-376v162h657v-78l-379 -469h379v-162z" glyph-name="z" horiz-adv-x="792" unicode="z"/><glyph d="M29 606h37q117 0 116 152v411q0 254 295 273l29 -168q-61 -10 -86 -32.5t-25 -86.5v-424q0 -158 -121 -196v-19q121 -35 121 -192v-426q0 -61 24.5 -85t86.5 -34l-29 -166q-295 14 -295 270v414q0 152 -116 152h-37v157z" glyph-name="braceleft" horiz-adv-x="571" unicode="{"/><glyph d="M326 1378v-1689h-185v1689h185z" glyph-name="bar" horiz-adv-x="466" unicode="|"/><glyph d="M543 449h-37q-119 0 -119 -152v-414q0 -256 -295 -270l-26 166q61 10 84.5 33.5t23.5 85.5v426q0 158 123 192v19q-123 37 -123 196v424q0 63 -23.5 86t-84.5 33l26 168q295 -18 295 -273v-411q0 -152 119 -152h37v-157z" glyph-name="braceright" horiz-adv-x="571" unicode="}"/><glyph d="M308 553q-69 0 -144 -47l-62 125q29 29 88.5 52.5t118.5 23.5t151 -26t170 -26t138 45l61 -125q-28 -28 -87.5 -51.5t-119.5 -23.5t-152.5 26.5t-161.5 26.5z" glyph-name="asciitilde" horiz-adv-x="933" unicode="~"/><glyph glyph-name="uni00A0" horiz-adv-x="378" unicode=" "/><glyph d="M369 0h-238v80l51 770h135l52 -770v-80zM123 1116q0 53 38 91t91 38t91 -38t38 -91t-38 -91t-91 -38t-91 38t-38 91z" glyph-name="exclamdown" horiz-adv-x="503" unicode="¡"/><glyph d="M401 -201v193q-143 25 -229 123t-86 237.5t86 238.5t227 126v194h140v-188q113 -12 184 -49l22 -12l-69 -156q-76 53 -170 53t-155.5 -56.5t-61.5 -148.5t61.5 -148t148.5 -56t156 38l21 13l69 -154q-78 -49 -204 -59v-189h-140z" glyph-name="cent" horiz-adv-x="835" unicode="¢"/><glyph d="M952 182v-178h-821v178q4 2 12.5 5t58.5 41.5t50 160.5q0 35 -19 94h-145v148h88q-35 109 -35 192q0 170 127 297t357 127q181 0 256 -54t100 -83l-113 -149q-27 34 -94 63t-139 29q-129 0 -198.5 -73t-69.5 -163t34 -186h422v-148h-368q12 -43 12 -88q0 -125 -80 -213 h565z" glyph-name="sterling" horiz-adv-x="1062" unicode="£"/><glyph d="M170 609q0 126 68 229l-117 118l131 129l110 -127q102 68 225.5 68t229.5 -70l115 129l131 -129l-123 -125q66 -102 66 -222t-66 -222l123 -123l-131 -129l-113 127q-104 -70 -229 -70t-230 66l-108 -123l-131 129l117 117q-68 102 -68 228zM358 608.5q0 -96.5 68 -164 t163 -67.5t162.5 67.5t67.5 164t-67.5 165t-162.5 68.5t-163 -68.5t-68 -165z" glyph-name="currency" horiz-adv-x="1183" unicode="¤"/><glyph d="M1075 612v-147h-344v-139h344v-146h-344v-180h-203v180h-346v146h346v139h-346v147h258l-379 617h236l291 -481l33 -72h22l35 72l289 481h233l-381 -617h256z" glyph-name="yen" horiz-adv-x="1259" unicode="¥"/><glyph d="M328 -311h-187v1689h187v-1689z" glyph-name="brokenbar" horiz-adv-x="468" unicode="¦"/><glyph d="M560 -225q108 0 167 48t59 121t-60 119t-176 88t-169 66.5t-133 79.5t-80 179t74 188q-131 90 -131 244t115.5 250.5t337.5 96.5t313.5 -51t105.5 -65l16 -13l-110 -165q-14 12 -40 30.5t-109.5 49t-185.5 30.5t-157 -44t-55 -114q0 -129 221 -198q175 -59 256.5 -109.5 t113.5 -105t32 -123.5q0 -121 -74 -201q131 -98 131 -242t-119 -245t-350 -101t-337.5 63.5t-125.5 80.5l-18 16l112 156q56 -49 162 -89t214 -40zM367 500q0 -98 223 -178q72 -25 133 -52q37 37 37 95t-64.5 100.5t-201.5 89.5q-57 16 -84 27q-43 -20 -43 -82z" glyph-name="section" horiz-adv-x="1103" unicode="§"/><glyph d="M119 989q0 43 31.5 76t74.5 33t76 -33t33 -76t-33 -74.5t-76 -31.5t-74.5 31.5t-31.5 74.5zM496 989q0 43 31.5 76t74.5 33t76 -33t33 -76t-33 -74.5t-76 -31.5t-74.5 31.5t-31.5 74.5z" glyph-name="dieresis" horiz-adv-x="825" unicode="¨"/><glyph d="M732 1245q294 0 471 -180.5t177 -450.5t-177 -451t-471 -181t-471 181t-177 449.5t177 450.5t471 182zM732 1133q-241 0 -385 -149.5t-144 -369.5t144.5 -369t384.5 -149t386 148.5t146 368.5t-145.5 370t-386.5 150zM745 418q86 0 146 43l70 -94q-29 -29 -90.5 -52.5 t-129.5 -23.5q-152 0 -241.5 92t-89.5 231.5t90 231.5t241 92q68 0 123.5 -18.5t75.5 -36.5l21 -19l-70 -94q-51 43 -141.5 43t-145.5 -56.5t-55 -142.5t55 -141t141 -55z" glyph-name="copyright" horiz-adv-x="1466" unicode="©"/><glyph d="M63 754q0 94 78 150.5t212 56.5t200 -56v37q0 90 -47 133t-138 43t-147 -22.5t-59 -22.5l-49 131q137 53 272 53q334 0 334 -321v-375h-123l-25 68h-10q-57 -84 -233 -84q-115 0 -190 57.5t-75 151.5zM385 866q-160 0 -160 -104t152 -105q76 0 126 31t50 76t-47 73.5 t-121 28.5z" glyph-name="ordfeminine" horiz-adv-x="819" unicode="ª"/><glyph d="M453 688v-16l-211 -312v-14l211 -315v-17h-170l-217 318v39l217 317h170zM831 688v-16l-210 -312v-14l210 -315v-17h-167l-218 318v39l218 317h167z" glyph-name="guillemotleft" horiz-adv-x="897" unicode="«"/><glyph d="M63 545v166h920v-711h-168v545h-752z" glyph-name="logicalnot" horiz-adv-x="1140" unicode="¬"/><glyph d="M1069 778q0 -203 -134 -342t-356 -139t-354.5 139t-132.5 342t132 341t354 138t356.5 -138t134.5 -341zM946 778q0 160 -103.5 262.5t-265 102.5t-263 -99.5t-101.5 -261.5t102.5 -265t263.5 -103t264 102t103 262zM397 993h195q82 0 134 -40.5t52 -120.5t-78 -121 l82 -111v-20h-98l-78 106h-114v-106h-95v413zM592 907h-100v-137h96q90 0 90 68t-86 69z" glyph-name="registered" horiz-adv-x="1159" unicode="®"/><glyph d="M170 905v123h557v-123h-557z" glyph-name="macron" horiz-adv-x="872" unicode="¯"/><glyph d="M303.5 1376q106.5 0 174 -63.5t67.5 -157.5t-67.5 -156.5t-174 -62.5t-173.5 62.5t-67 156.5t67 157.5t173.5 63.5zM304 1272q-56 0 -90 -33t-34 -83t34 -82t90 -32t90 32t34 82t-34 83t-90 33z" glyph-name="degree" horiz-adv-x="608" unicode="°"/><glyph d="M639 365h-168v327h-348v164h348v340h168v-340h342v-164h-342v-327zM981 229v-166h-858v166h858z" glyph-name="plusminus" horiz-adv-x="1101" unicode="±"/><glyph d="M51 700v39l287 291q63 63 63 121q0 102 -120 102q-39 0 -88 -19t-78 -48l-72 106q34 34 108 64t142 30q131 0 194.5 -60t63.5 -156t-90 -189l-160 -162h285v-119h-535z" glyph-name="uni00B2" horiz-adv-x="634" unicode="²"/><glyph d="M70 1247v121h489v-35l-141 -227q170 -27 170 -197q0 -96 -73 -160.5t-208 -64.5q-70 0 -147.5 26.5t-118.5 67.5l74 103q80 -68 170 -68q161 0 161 100q0 43 -29.5 70t-86.5 27h-97v37l125 200h-288z" glyph-name="uni00B3" horiz-adv-x="638" unicode="³"/><glyph d="M92 858v33l78 291h233v-33l-184 -291h-127z" glyph-name="acute" horiz-adv-x="505" unicode="´"/><glyph d="M344 -393h-199v1102h201v-383q0 -80 41 -128t119 -48t125 45t47 100v414h201v-709h-136l-34 96h-9q-61 -113 -241 -112q-61 0 -115 16v-393z" glyph-name="uni00B5" horiz-adv-x="1034" unicode="µ"/><glyph d="M641 -317v538h-94q-223 0 -355.5 106.5t-132.5 302.5t126 299t352 103h307v-1349h-203z" glyph-name="paragraph" horiz-adv-x="1028" unicode="¶"/><glyph d="M51 734q0 54 38 92t91 38t91 -38t38 -92t-38 -91t-91 -37t-91 37t-38 91z" glyph-name="periodcentered" horiz-adv-x="364" unicode="·"/><glyph d="M216 -129q-28 0 -52 -12l-37 43l51 102h101l-29 -65q59 0 97 -35t38 -100t-46.5 -105.5t-112.5 -40.5q-113 0 -165 49l-16 17l43 73q45 -45 121 -45t76 60q0 27 -20.5 43t-48.5 16z" glyph-name="cedilla" horiz-adv-x="442" unicode="¸"/><glyph d="M35 1247v121h280v-668h-137v547h-143z" glyph-name="uni00B9" horiz-adv-x="415" unicode="¹"/><glyph d="M421 1255q157 0 257 -97t100 -257t-100 -256t-257 -96t-257.5 96t-100.5 256t100.5 257t257.5 97zM422 1114q-88 0 -141.5 -59.5t-53.5 -153.5t53.5 -152.5t141.5 -58.5t140 57.5t52 153.5t-52 154.5t-140 58.5z" glyph-name="ordmasculine" horiz-adv-x="841" unicode="º"/><glyph d="M66 14v17l210 315v14l-210 312v16h170l217 -317v-39l-217 -318h-170zM444 14v17l211 315v14l-211 312v16h170l217 -317v-39l-217 -318h-170z" glyph-name="guillemotright" horiz-adv-x="897" unicode="»"/><glyph d="M651 164v86l383 418h103v-392h106v-112h-106v-164h-131v164h-355zM197 2l-101 82l961 1155l100 -82zM70 1108v121h282v-668h-137v547h-145zM1006 276v205h-2l-132 -153q-14 -18 -53 -58l82 6h105z" glyph-name="onequarter" horiz-adv-x="1310" unicode="¼"/><glyph d="M201 2l-99 82l961 1155l100 -82zM1223 447q0 106 -123 106q-39 0 -91 -21t-75 -47l-72 107l29 22q29 25 91 48.5t130 23.5q131 0 194.5 -60.5t63.5 -155.5t-90 -189l-160 -162h285v-119h-535v39l287 291q66 66 66 117zM76 1108v121h280v-668h-137v547h-143z" glyph-name="onehalf" horiz-adv-x="1472" unicode="½"/><glyph d="M840 158v86l385 418h102v-392h107v-112h-107v-158h-131v158h-356zM399 2l-100 82l961 1155l102 -82zM102 1108v121h488v-35l-139 -227q170 -29 170 -197q0 -96 -73 -160.5t-210 -64.5q-70 0 -147 27t-117 67l71 102q82 -68 189 -67q143 0 143 98t-127 98h-84v37l125 201 h-289zM1196 270v150l2 55h-4l-131 -151q-25 -29 -55 -60l82 6h106z" glyph-name="threequarters" horiz-adv-x="1503" unicode="¾"/><glyph d="M514 868v-77q0 -80 -36 -148t-79 -108.5t-78.5 -100t-35.5 -127.5t49.5 -111.5t115.5 -43.5q119 0 185 41l22 14l70 -158q-113 -65 -288 -65t-266 81.5t-91 217.5t69.5 207t142 140t79.5 179l4 59h137zM565 1131q0 -52 -35.5 -87.5t-89 -35.5t-89.5 35.5t-36 87.5t37 88 t88.5 36t88 -36t36.5 -88z" glyph-name="questiondown" horiz-adv-x="792" unicode="¿"/><glyph d="M-10 0l618 1229h39l623 -1229h-232l-92 186h-637l-90 -186h-229zM854 373l-219 481h-12l-222 -481l-12 -21h477zM375 1630h235l78 -291v-32h-129l-184 290v33z" glyph-name="Agrave" horiz-adv-x="1257" unicode="À"/><glyph d="M-10 0l618 1229h39l623 -1229h-232l-92 186h-637l-90 -186h-229zM854 373l-219 481h-12l-222 -481l-12 -21h477zM565 1307v32l78 291h234v-33l-185 -290h-127z" glyph-name="Aacute" horiz-adv-x="1257" unicode="Á"/><glyph d="M324 1307v32l194 291h213l195 -291v-32h-129l-170 188l-174 -188h-129zM-10 0l618 1229h39l623 -1229h-232l-92 186h-637l-90 -186h-229zM854 373l-219 481h-12l-222 -481l-12 -21h477z" glyph-name="Acircumflex" horiz-adv-x="1257" unicode="Â"/><glyph d="M-10 0l618 1229h39l623 -1229h-232l-92 186h-637l-90 -186h-229zM854 373l-219 481h-12l-222 -481l-12 -21h477zM770 1311q-63 0 -146 44t-114 44q-61 0 -72 -64l-4 -28l-139 12l6 59q8 78 55.5 126t119.5 48t154.5 -44t112.5 -44q59 0 74 64l6 28l142 -12l-9 -59 q-32 -174 -186 -174z" glyph-name="Atilde" horiz-adv-x="1257" unicode="Ã"/><glyph d="M328 1485q0 43 31.5 75.5t74.5 32.5t76 -32.5t33 -75.5t-33 -75t-76 -32t-74.5 32t-31.5 75zM705 1485q0 43 31.5 75.5t74.5 32.5t76 -32.5t33 -75.5t-33 -75t-76 -32t-74.5 32t-31.5 75zM-10 0l618 1229h39l623 -1229h-232l-92 186h-637l-90 -186h-229zM854 373 l-219 481h-12l-222 -481l-12 -21h477z" glyph-name="Adieresis" horiz-adv-x="1257" unicode="Ä"/><glyph d="M418 1353q0 77 60.5 135t148.5 58t147.5 -58t59.5 -135t-41 -130.5t-109 -69.5l586 -1153h-232l-92 186h-637l-90 -186h-229l579 1151q-68 18 -109.5 71.5t-41.5 130.5zM854 373l-219 481h-12l-222 -481l-12 -21h477zM707 1347q0 36 -21.5 58t-57.5 22t-58.5 -22.5 t-22.5 -58.5t22.5 -58t58.5 -22t57.5 22.5t21.5 58.5z" glyph-name="Aring" horiz-adv-x="1259" unicode="Å"/><glyph d="M1802 1229v-180h-729v-357h619v-172h-619v-340h729v-180h-932v186h-526l-125 -186h-252l875 1229h960zM870 352v568h-18l-397 -568h415z" glyph-name="AE" horiz-adv-x="1878" unicode="Æ"/><glyph d="M78 621q0 265 179 449.5t454 184.5t430 -137l16 -16l-117 -158q-14 12 -40.5 32.5t-107.5 53.5t-163 33q-195 0 -318.5 -128.5t-123.5 -320.5t124 -320t318 -128q88 0 166 29.5t113 58.5l32 29l117 -156q-6 -6 -15 -15.5t-95 -69t-285 -69.5l-14 -34q59 0 97 -35t38 -100 t-46.5 -105.5t-112.5 -40.5t-107.5 16.5t-57.5 32.5l-16 17l43 73q45 -45 121 -45t75 60q0 27 -20 43t-52 16t-42 -10l-6 -2l-37 43l34 73q-262 20 -421.5 200.5t-159.5 445.5z" glyph-name="Ccedilla" horiz-adv-x="1200" unicode="Ç"/><glyph d="M981 694v-172h-619v-342h730v-180h-932v1229h932v-180h-730v-355h619zM406 1628h235l78 -291v-32h-129l-184 290v33z" glyph-name="Egrave" horiz-adv-x="1167" unicode="È"/><glyph d="M551 1307v32l78 291h233v-33l-184 -290h-127zM981 694v-172h-619v-342h730v-180h-932v1229h932v-180h-730v-355h619z" glyph-name="Eacute" horiz-adv-x="1167" unicode="É"/><glyph d="M332 1307v32l194 291h213l195 -291v-32h-129l-170 188l-174 -188h-129zM981 694v-172h-619v-342h730v-180h-932v1229h932v-180h-730v-355h619z" glyph-name="Ecircumflex" horiz-adv-x="1167" unicode="Ê"/><glyph d="M336 1444q0 43 31.5 75.5t74.5 32.5t76 -32.5t33 -75.5t-33 -75t-76 -32t-74.5 32t-31.5 75zM713 1444q0 43 31.5 75.5t74.5 32.5t76 -32.5t33 -75.5t-33 -75t-76 -32t-74.5 32t-31.5 75zM981 694v-172h-619v-342h730v-180h-932v1229h932v-180h-730v-355h619z" glyph-name="Edieresis" horiz-adv-x="1167" unicode="Ë"/><glyph d="M362 1229v-1229h-202v1229h202zM8 1628h236l78 -291v-32h-129l-185 290v33z" glyph-name="Igrave" horiz-adv-x="524" unicode="Ì"/><glyph d="M362 1229v-1229h-202v1229h202zM199 1307v32l77 291h234v-33l-184 -290h-127z" glyph-name="Iacute" horiz-adv-x="524" unicode="Í"/><glyph d="M-39 1307v32l195 291h213l194 -291v-32h-129l-170 188l-174 -188h-129zM362 1229v-1229h-202v1229h202z" glyph-name="Icircumflex" horiz-adv-x="524" unicode="Î"/><glyph d="M-37 1444q0 43 32 75.5t75 32.5t75.5 -32.5t32.5 -75.5t-32.5 -75t-75.5 -32t-75 32t-32 75zM340 1444q0 43 31.5 75.5t74.5 32.5t76 -32.5t33 -75.5t-33 -75t-76 -32t-74.5 32t-31.5 75zM362 1229v-1229h-202v1229h202z" glyph-name="Idieresis" horiz-adv-x="524" unicode="Ï"/><glyph d="M27 551v127h149v551h459q297 0 475 -169t178 -445.5t-178 -445.5t-475 -169h-459v551h-149zM621 1049h-242v-371h231v-127h-231v-371h242q203 0 331.5 116t128.5 318.5t-128.5 318.5t-331.5 116z" glyph-name="Eth" horiz-adv-x="1370" unicode="Ð"/><glyph d="M1266 1229v-1229h-54l-850 823v-823h-202v1229h53l850 -811v811h203zM852 1341q-63 0 -146 44.5t-114 44.5q-61 0 -72 -64l-4 -29l-139 13l6 59q8 78 55.5 126t119.5 48t154.5 -44t112.5 -44q59 0 74 64l6 28l142 -12l-9 -59q-32 -175 -186 -175z" glyph-name="Ntilde" horiz-adv-x="1425" unicode="Ñ"/><glyph d="M465 1630h235l78 -291v-32h-129l-184 290v33zM722 -29q-290 0 -467 184.5t-177 457.5t176 457.5t467 184.5t468 -183.5t177 -457.5t-177 -458.5t-467 -184.5zM722 168q194 0 314.5 126t120.5 318.5t-120.5 320.5t-314.5 128t-314.5 -127.5t-120.5 -319.5t120.5 -319 t314.5 -127z" glyph-name="Ograve" horiz-adv-x="1443" unicode="Ò"/><glyph d="M653 1307v32l78 291h234v-33l-185 -290h-127zM722 -29q-290 0 -467 184.5t-177 457.5t176 457.5t467 184.5t468 -183.5t177 -457.5t-177 -458.5t-467 -184.5zM722 168q194 0 314.5 126t120.5 318.5t-120.5 320.5t-314.5 128t-314.5 -127.5t-120.5 -319.5t120.5 -319 t314.5 -127z" glyph-name="Oacute" horiz-adv-x="1443" unicode="Ó"/><glyph d="M416 1307v32l194 291h213l195 -291v-32h-129l-170 188l-174 -188h-129zM722 -29q-290 0 -467 184.5t-177 457.5t176 457.5t467 184.5t468 -183.5t177 -457.5t-177 -458.5t-467 -184.5zM722 168q194 0 314.5 126t120.5 318.5t-120.5 320.5t-314.5 128t-314.5 -127.5 t-120.5 -319.5t120.5 -319t314.5 -127z" glyph-name="Ocircumflex" horiz-adv-x="1443" unicode="Ô"/><glyph d="M722 -29q-290 0 -467 184.5t-177 457.5t176 457.5t467 184.5t468 -183.5t177 -457.5t-177 -458.5t-467 -184.5zM722 168q194 0 314.5 126t120.5 318.5t-120.5 320.5t-314.5 128t-314.5 -127.5t-120.5 -319.5t120.5 -319t314.5 -127zM860 1339q-63 0 -146 44t-114 44 q-61 0 -72 -63l-4 -29l-139 13l6 59q8 78 55.5 126t119.5 48t154.5 -44t113.5 -44q59 0 73 63l6 29l142 -12l-8 -60q-33 -174 -187 -174z" glyph-name="Otilde" horiz-adv-x="1443" unicode="Õ"/><glyph d="M422 1442q0 43 31.5 75.5t74.5 32.5t76 -32.5t33 -75.5t-33 -75t-76 -32t-74.5 32t-31.5 75zM799 1442q0 43 31.5 75.5t74.5 32.5t76 -32.5t33 -75.5t-33 -75t-76 -32t-74.5 32t-31.5 75zM722 -29q-290 0 -467 184.5t-177 457.5t176 457.5t467 184.5t468 -183.5 t177 -457.5t-177 -458.5t-467 -184.5zM722 168q194 0 314.5 126t120.5 318.5t-120.5 320.5t-314.5 128t-314.5 -127.5t-120.5 -319.5t120.5 -319t314.5 -127z" glyph-name="Odieresis" horiz-adv-x="1443" unicode="Ö"/><glyph d="M221 201l-117 114l306 306l-306 307l117 114l305 -305l305 305l117 -114l-307 -307l307 -306l-117 -114l-305 305z" glyph-name="multiply" horiz-adv-x="1052" unicode="×"/><glyph d="M721 -29q-252 0 -422 142l-125 -121l-90 90l127 123q-133 172 -133 407q0 274 176 458.5t467 184.5q244 0 420 -139l108 107l90 -90l-110 -109q137 -172 137 -428t-177 -440.5t-468 -184.5zM738 168q178 0 298.5 126t120.5 318q0 154 -78 267l-633 -621q114 -90 292 -90z M287 612q0 -152 73 -260l633 619q-113 90 -289 90t-296.5 -128t-120.5 -321z" glyph-name="Oslash" horiz-adv-x="1439" unicode="Ø"/><glyph d="M679 -29q-247 0 -392.5 152.5t-145.5 396.5v709h203v-709q0 -156 86 -255t247 -99t246 98t85 256v709h202v-709q0 -246 -142 -397.5t-389 -151.5zM434 1630h236l78 -291v-32h-130l-184 290v33z" glyph-name="Ugrave" horiz-adv-x="1353" unicode="Ù"/><glyph d="M612 1307v32l78 291h234v-33l-185 -290h-127zM679 -29q-247 0 -392.5 152.5t-145.5 396.5v709h203v-709q0 -156 86 -255t247 -99t246 98t85 256v709h202v-709q0 -246 -142 -397.5t-389 -151.5z" glyph-name="Uacute" horiz-adv-x="1353" unicode="Ú"/><glyph d="M379 1307v32l194 291h213l195 -291v-32h-129l-170 188l-174 -188h-129zM679 -29q-247 0 -392.5 152.5t-145.5 396.5v709h203v-709q0 -156 86 -255t247 -99t246 98t85 256v709h202v-709q0 -246 -142 -397.5t-389 -151.5z" glyph-name="Ucircumflex" horiz-adv-x="1353" unicode="Û"/><glyph d="M379 1446q0 43 31.5 75.5t74.5 32.5t76 -32.5t33 -75.5t-33 -75t-76 -32t-74.5 32t-31.5 75zM756 1446q0 43 31.5 75.5t74.5 32.5t76 -32.5t33 -75.5t-33 -75t-76 -32t-74.5 32t-31.5 75zM679 -29q-247 0 -392.5 152.5t-145.5 396.5v709h203v-709q0 -156 86 -255t247 -99 t246 98t85 256v709h202v-709q0 -246 -142 -397.5t-389 -151.5z" glyph-name="Udieresis" horiz-adv-x="1353" unicode="Ü"/><glyph d="M670 0h-203v469l-467 760h236l290 -481l33 -72h23l34 72l289 481h234l-469 -760v-469zM508 1307v32l78 291h233v-33l-184 -290h-127z" glyph-name="Yacute" horiz-adv-x="1136" unicode="Ý"/><glyph d="M362 1229v-193h332q231 0 363.5 -109.5t132.5 -312.5t-137.5 -315.5t-370.5 -112.5h-320v-186h-202v1229h202zM981 612q0 119 -78 180.5t-217 61.5h-324v-489h324q295 -1 295 247z" glyph-name="Thorn" horiz-adv-x="1241" unicode="Þ"/><glyph d="M700 362q244 -39 244 -285q0 -132 -100.5 -212t-251.5 -80t-217 27l-23 10l45 143q68 -27 153 -27t132 42t47 112t-48 109t-132 39h-103v57l170 254h-307v-551h-200v913q0 379 354 379q86 0 135 -22l18 -6l-53 -172q-39 18 -82 18q-172 0 -172 -180v-219h604v-37z" glyph-name="germandbls" horiz-adv-x="1005" unicode="ß"/><glyph d="M53 208q0 99 81 158.5t221 59.5t214 -53h11v33q0 158 -207 157q-51 0 -101.5 -13t-74.5 -26l-23 -14l-63 147q105 68 295 68t278 -89t88 -247v-389h-143l-21 78h-10q-63 -94 -252 -94q-137 0 -215 62.5t-78 161.5zM248 218q0 -46 39 -73.5t113 -27.5t124.5 33.5 t50.5 73.5t-48 66.5t-125 26.5t-115.5 -26.5t-38.5 -72.5zM174 1182h236l77 -291v-33h-129l-184 291v33z" glyph-name="agrave" horiz-adv-x="868" unicode="à"/><glyph d="M53 208q0 99 81 158.5t221 59.5t214 -53h11v33q0 158 -207 157q-51 0 -101.5 -13t-74.5 -26l-23 -14l-63 147q105 68 295 68t278 -89t88 -247v-389h-143l-21 78h-10q-63 -94 -252 -94q-137 0 -215 62.5t-78 161.5zM248 218q0 -46 39 -73.5t113 -27.5t124.5 33.5 t50.5 73.5t-48 66.5t-125 26.5t-115.5 -26.5t-38.5 -72.5zM350 858v33l78 291h234v-33l-185 -291h-127z" glyph-name="aacute" horiz-adv-x="868" unicode="á"/><glyph d="M53 208q0 99 81 158.5t221 59.5t214 -53h11v33q0 158 -207 157q-51 0 -101.5 -13t-74.5 -26l-23 -14l-63 147q105 68 295 68t278 -89t88 -247v-389h-143l-21 78h-10q-63 -94 -252 -94q-137 0 -215 62.5t-78 161.5zM248 218q0 -46 39 -73.5t113 -27.5t124.5 33.5 t50.5 73.5t-48 66.5t-125 26.5t-115.5 -26.5t-38.5 -72.5zM123 858v33l194 291h213l195 -291v-33h-129l-170 189l-174 -189h-129z" glyph-name="acircumflex" horiz-adv-x="868" unicode="â"/><glyph d="M53 208q0 99 81 158.5t221 59.5t214 -53h11v33q0 158 -207 157q-51 0 -101.5 -13t-74.5 -26l-23 -14l-63 147q105 68 295 68t278 -89t88 -247v-389h-143l-21 78h-10q-63 -94 -252 -94q-137 0 -215 62.5t-78 161.5zM248 218q0 -46 39 -73.5t113 -27.5t124.5 33.5 t50.5 73.5t-48 66.5t-125 26.5t-115.5 -26.5t-38.5 -72.5zM565 889q-63 0 -146 44t-114 44q-61 0 -72 -64l-4 -28l-139 12l6 59q8 78 56 126t120 48t154 -44t113 -44q59 0 73 64l6 29l142 -13l-8 -59q-33 -174 -187 -174z" glyph-name="atilde" horiz-adv-x="868" unicode="ã"/><glyph d="M53 208q0 99 81 158.5t221 59.5t214 -53h11v33q0 158 -207 157q-51 0 -101.5 -13t-74.5 -26l-23 -14l-63 147q105 68 295 68t278 -89t88 -247v-389h-143l-21 78h-10q-63 -94 -252 -94q-137 0 -215 62.5t-78 161.5zM248 218q0 -46 39 -73.5t113 -27.5t124.5 33.5 t50.5 73.5t-48 66.5t-125 26.5t-115.5 -26.5t-38.5 -72.5zM129 989q0 43 32 76t75 33t75.5 -33t32.5 -76t-32.5 -74.5t-75.5 -31.5t-75 31.5t-32 74.5zM506 989q0 43 31.5 76t74.5 33t76 -33t33 -76t-33 -74.5t-76 -31.5t-74.5 31.5t-31.5 74.5z" glyph-name="adieresis" horiz-adv-x="868" unicode="ä"/><glyph d="M53 208q0 99 81 158.5t221 59.5t214 -53h11v33q0 158 -207 157q-51 0 -101.5 -13t-74.5 -26l-23 -14l-63 147q105 68 295 68t278 -89t88 -247v-389h-143l-21 78h-10q-63 -94 -252 -94q-137 0 -215 62.5t-78 161.5zM248 218q0 -46 39 -73.5t113 -27.5t124.5 33.5 t50.5 73.5t-48 66.5t-125 26.5t-115.5 -26.5t-38.5 -72.5zM420 866q-88 0 -148.5 58.5t-60.5 142.5t60.5 142.5t148.5 58.5t147.5 -58.5t59.5 -142.5t-59.5 -142.5t-147.5 -58.5zM500 1068q0 36 -21.5 58.5t-57.5 22.5t-58.5 -22.5t-22.5 -58.5t22.5 -58.5t58.5 -22.5 t57.5 22.5t21.5 58.5z" glyph-name="aring" horiz-adv-x="868" unicode="å"/><glyph d="M979 -20q-184 0 -291 110q-111 -106 -291 -106t-262 63.5t-82 161.5t78.5 156.5t222.5 58.5t217 -55h4v30q0 166 -202 166q-106 0 -180 -37l-25 -14l-59 148q123 63 309 63t276 -102q109 102 272.5 102t260 -98.5t96.5 -261.5l-2 -52h-541q14 -86 73 -131t131 -45 q121 0 196 39l22 14l66 -133q-47 -31 -126 -54t-163 -23zM399 315q-155 0 -155 -100t155 -100q76 0 128.5 30.5t52.5 72.5t-52.5 69.5t-128.5 27.5zM965 578q-154 0 -181 -154h351q-6 68 -51 111t-119 43z" glyph-name="ae" horiz-adv-x="1378" unicode="æ"/><glyph d="M61 362q0 152 113 257.5t289 105.5q68 0 126 -14.5t83 -30.5l24 -14l-59 -150q-61 43 -157 43t-156 -56.5t-60 -148.5t60.5 -148t148.5 -56t145 32l19 11l53 -148q-63 -51 -192 -59l-21 -47q59 0 97 -35t38 -100t-46 -105.5t-112 -40.5q-116 0 -165 49l-17 17l43 73 q45 -45 121 -45t76 60q0 27 -20.5 43t-52.5 16t-42 -10l-6 -2l-37 43l43 88q-152 18 -244 119t-92 253z" glyph-name="ccedilla" horiz-adv-x="739" unicode="ç"/><glyph d="M471 -20q-186 0 -298 105t-112 267t106.5 267.5t272.5 105.5t261.5 -100.5t95.5 -259.5v-50h-539q12 -88 72 -133t132 -45q122 0 193 39l21 14l65 -129q-10 -8 -29.5 -22t-89 -36.5t-151.5 -22.5zM439 575q-69 0 -116 -37.5t-61 -109.5h344q-10 66 -54 106.5t-113 40.5z M190 1182h236l78 -291v-33h-129l-185 291v33z" glyph-name="egrave" horiz-adv-x="849" unicode="è"/><glyph d="M358 858v33l78 291h234v-33l-185 -291h-127zM471 -20q-186 0 -298 105t-112 267t106.5 267.5t272.5 105.5t261.5 -100.5t95.5 -259.5v-50h-539q12 -88 72 -133t132 -45q122 0 193 39l21 14l65 -129q-10 -8 -29.5 -22t-89 -36.5t-151.5 -22.5zM439 575q-69 0 -116 -37.5 t-61 -109.5h344q-10 66 -54 106.5t-113 40.5z" glyph-name="eacute" horiz-adv-x="849" unicode="é"/><glyph d="M139 858v33l195 291h213l194 -291v-33h-129l-170 189l-174 -189h-129zM471 -20q-186 0 -298 105t-112 267t106.5 267.5t272.5 105.5t261.5 -100.5t95.5 -259.5v-50h-539q12 -88 72 -133t132 -45q122 0 193 39l21 14l65 -129q-10 -8 -29.5 -22t-89 -36.5t-151.5 -22.5z M439 575q-69 0 -116 -37.5t-61 -109.5h344q-10 66 -54 106.5t-113 40.5z" glyph-name="ecircumflex" horiz-adv-x="849" unicode="ê"/><glyph d="M147 989q0 43 32 76t75 33t75.5 -33t32.5 -76t-32.5 -74.5t-75.5 -31.5t-75 31.5t-32 74.5zM524 989q0 43 32 76t75 33t75.5 -33t32.5 -76t-32.5 -74.5t-75.5 -31.5t-75 31.5t-32 74.5zM471 -20q-186 0 -298 105t-112 267t106.5 267.5t272.5 105.5t261.5 -100.5 t95.5 -259.5v-50h-539q12 -88 72 -133t132 -45q122 0 193 39l21 14l65 -129q-10 -8 -29.5 -22t-89 -36.5t-151.5 -22.5zM439 575q-69 0 -116 -37.5t-61 -109.5h344q-10 66 -54 106.5t-113 40.5z" glyph-name="edieresis" horiz-adv-x="849" unicode="ë"/><glyph d="M111 0v709h200v-709h-200zM-43 1182h236l77 -291v-33h-129l-184 291v33z" glyph-name="igrave" horiz-adv-x="419" unicode="ì"/><glyph d="M150 858v33l77 291h234v-33l-185 -291h-126zM111 0v709h200v-709h-200z" glyph-name="iacute" horiz-adv-x="419" unicode="í"/><glyph d="M-94 858v33l194 291h213l195 -291v-33h-129l-170 189l-174 -189h-129zM111 0v709h200v-709h-200z" glyph-name="icircumflex" horiz-adv-x="419" unicode="î"/><glyph d="M-82 989q0 43 32 76t75 33t75.5 -33t32.5 -76t-32.5 -74.5t-75.5 -31.5t-75 31.5t-32 74.5zM295 989q0 43 31.5 76t74.5 33t76 -33t33 -76t-33 -74.5t-76 -31.5t-74.5 31.5t-31.5 74.5zM111 0v709h200v-709h-200z" glyph-name="idieresis" horiz-adv-x="419" unicode="ï"/><glyph d="M244 1229h188l84 -133l193 108l63 -110l-188 -109l192 -305q59 -92 85 -164t26 -166q0 -168 -114 -268t-297 -100t-299 100t-116 265t116 270.5t300 105.5q35 0 68 -6v12q-31 33 -76 105l-39 63l-205 -117l-65 113l202 115l-118 196v25zM684 352q0 90 -57.5 147.5 t-150.5 57.5t-152.5 -57.5t-59.5 -146.5t59.5 -147.5t152.5 -58.5t150.5 57.5t57.5 147.5z" glyph-name="eth" horiz-adv-x="952" unicode="ð"/><glyph d="M109 0v709h129l26 -99h10q82 115 240 115t244 -85t86 -228v-412h-201v383q0 80 -43 128t-121 48t-124 -45t-46 -102v-412h-200zM610 889q-63 0 -146 44t-114 44q-61 0 -71 -64l-5 -28l-139 12l6 59q8 78 55.5 126t119.5 48t154.5 -44t113.5 -44q59 0 73 64l7 29l141 -13 l-8 -59q-33 -174 -187 -174z" glyph-name="ntilde" horiz-adv-x="940" unicode="ñ"/><glyph d="M852 351q0 -165 -113.5 -266t-281.5 -101t-282 101t-114 267t114 269.5t281 103.5t281.5 -104.5t114.5 -269.5zM457 143q86 0 142 57.5t56 152.5t-56 153.5t-142 58.5t-142.5 -57.5t-56.5 -153.5t56.5 -153.5t142.5 -57.5zM209 1182h235l78 -291v-33h-129l-184 291v33z " glyph-name="ograve" horiz-adv-x="911" unicode="ò"/><glyph d="M403 858v33l78 291h234v-33l-185 -291h-127zM852 351q0 -165 -113.5 -266t-281.5 -101t-282 101t-114 267t114 269.5t281 103.5t281.5 -104.5t114.5 -269.5zM457 143q86 0 142 57.5t56 152.5t-56 153.5t-142 58.5t-142.5 -57.5t-56.5 -153.5t56.5 -153.5t142.5 -57.5z " glyph-name="oacute" horiz-adv-x="911" unicode="ó"/><glyph d="M154 858v33l194 291h213l195 -291v-33h-129l-170 189l-174 -189h-129zM852 351q0 -165 -113.5 -266t-281.5 -101t-282 101t-114 267t114 269.5t281 103.5t281.5 -104.5t114.5 -269.5zM457 143q86 0 142 57.5t56 152.5t-56 153.5t-142 58.5t-142.5 -57.5t-56.5 -153.5 t56.5 -153.5t142.5 -57.5z" glyph-name="ocircumflex" horiz-adv-x="911" unicode="ô"/><glyph d="M852 351q0 -165 -113.5 -266t-281.5 -101t-282 101t-114 267t114 269.5t281 103.5t281.5 -104.5t114.5 -269.5zM457 143q86 0 142 57.5t56 152.5t-56 153.5t-142 58.5t-142.5 -57.5t-56.5 -153.5t56.5 -153.5t142.5 -57.5zM590 889q-63 0 -146.5 44t-113.5 44 q-61 0 -72 -64l-4 -28l-139 12l6 59q8 78 55.5 126t119.5 48t154 -44t113 -44q59 0 74 64l6 29l141 -13l-8 -59q-32 -174 -186 -174z" glyph-name="otilde" horiz-adv-x="911" unicode="õ"/><glyph d="M160 989q0 43 31.5 76t74.5 33t76 -33t33 -76t-33 -74.5t-76 -31.5t-74.5 31.5t-31.5 74.5zM537 989q0 43 31.5 76t74.5 33t76 -33t33 -76t-33 -74.5t-76 -31.5t-74.5 31.5t-31.5 74.5zM852 351q0 -165 -113.5 -266t-281.5 -101t-282 101t-114 267t114 269.5t281 103.5 t281.5 -104.5t114.5 -269.5zM457 143q86 0 142 57.5t56 152.5t-56 153.5t-142 58.5t-142.5 -57.5t-56.5 -153.5t56.5 -153.5t142.5 -57.5z" glyph-name="odieresis" horiz-adv-x="911" unicode="ö"/><glyph d="M379 270.5q0 53.5 38 92t91 38.5t92 -38.5t39 -92t-39 -90.5t-92 -37t-91 37t-38 90.5zM379 949q0 54 38 92t91 38t92 -37.5t39 -91.5t-39 -91.5t-92 -37.5t-91 37t-38 91zM98 524v166h820v-166h-820z" glyph-name="divide" horiz-adv-x="1015" unicode="÷"/><glyph d="M854 340q0 -154 -114 -255t-264 -101t-257 67l-78 -78l-69 70l73 74q-82 93 -82 247t114 257.5t282 103.5q129 0 227 -63l86 86l70 -70l-80 -80q92 -104 92 -258zM468 143q77 0 133 57.5t56 137.5t-28 131l-289 -291q51 -35 128 -35zM260 352q0 -57 23 -102l284 285 q-51 31 -123 31t-128 -59t-56 -155z" glyph-name="oslash" horiz-adv-x="911" unicode="ø"/><glyph d="M829 709v-709h-135l-35 96h-8q-61 -113 -241 -112q-145 0 -229.5 85t-84.5 228v412h201v-383q0 -80 41 -128t119 -48t125 45t47 100v414h200zM213 1182h236l77 -291v-33h-129l-184 291v33z" glyph-name="ugrave" horiz-adv-x="935" unicode="ù"/><glyph d="M401 858v33l78 291h234v-33l-185 -291h-127zM829 709v-709h-135l-35 96h-8q-61 -113 -241 -112q-145 0 -229.5 85t-84.5 228v412h201v-383q0 -80 41 -128t119 -48t125 45t47 100v414h200z" glyph-name="uacute" horiz-adv-x="935" unicode="ú"/><glyph d="M162 858v33l194 291h213l195 -291v-33h-129l-170 189l-174 -189h-129zM829 709v-709h-135l-35 96h-8q-61 -113 -241 -112q-145 0 -229.5 85t-84.5 228v412h201v-383q0 -80 41 -128t119 -48t125 45t47 100v414h200z" glyph-name="ucircumflex" horiz-adv-x="935" unicode="û"/><glyph d="M176 989q0 43 32 76t75 33t75.5 -33t32.5 -76t-32.5 -74.5t-75.5 -31.5t-75 31.5t-32 74.5zM553 989q0 43 31.5 76t74.5 33t76 -33t33 -76t-33 -74.5t-76 -31.5t-74.5 31.5t-31.5 74.5zM829 709v-709h-135l-35 96h-8q-61 -113 -241 -112q-145 0 -229.5 85t-84.5 228v412 h201v-383q0 -80 41 -128t119 -48t125 45t47 100v414h200z" glyph-name="udieresis" horiz-adv-x="935" unicode="ü"/><glyph d="M827 709l-508 -1102h-213l224 450l-314 652h220l170 -398q16 -35 18 -71h10q2 31 21 71l168 398h204zM373 858v33l78 291h233v-33l-184 -291h-127z" glyph-name="yacute" horiz-adv-x="843" unicode="ý"/><glyph d="M537 -16q-155 0 -222 116h-8v-493h-201v1622h201v-615h8q6 12 20.5 31t73 49.5t134.5 30.5q154 0 251 -101.5t97 -267.5t-99.5 -269t-254.5 -103zM299 353q0 -93 54.5 -148t140.5 -55t140 57t54 147t-54 147.5t-139 57.5t-140.5 -56.5t-55.5 -149.5z" glyph-name="thorn" horiz-adv-x="956" unicode="þ"/><glyph d="M827 709l-508 -1102h-213l224 450l-314 652h220l170 -398q16 -35 18 -71h10q2 31 21 71l168 398h204zM137 989q0 43 32 76t75 33t75.5 -33t32.5 -76t-32.5 -74.5t-75.5 -31.5t-75 31.5t-32 74.5zM514 989q0 43 32 76t75 33t75.5 -33t32.5 -76t-32.5 -74.5t-75.5 -31.5 t-75 31.5t-32 74.5z" glyph-name="ydieresis" horiz-adv-x="843" unicode="ÿ"/><glyph d="M-10 0l618 1229h39l623 -1229h-232l-92 186h-637l-90 -186h-229zM854 373l-219 481h-12l-222 -481l-12 -21h477zM348 1317v123h557v-123h-557z" glyph-name="Amacron" horiz-adv-x="1257" unicode="Ā"/><glyph d="M53 208q0 99 81 158.5t221 59.5t214 -53h11v33q0 158 -207 157q-51 0 -101.5 -13t-74.5 -26l-23 -14l-63 147q105 68 295 68t278 -89t88 -247v-389h-143l-21 78h-10q-63 -94 -252 -94q-137 0 -215 62.5t-78 161.5zM248 218q0 -46 39 -73.5t113 -27.5t124.5 33.5 t50.5 73.5t-48 66.5t-125 26.5t-115.5 -26.5t-38.5 -72.5zM143 905v123h557v-123h-557z" glyph-name="amacron" horiz-adv-x="868" unicode="ā"/><glyph d="M-10 0l618 1229h39l623 -1229h-232l-92 186h-637l-90 -186h-229zM854 373l-219 481h-12l-222 -481l-12 -21h477zM754 1649h157q0 -117 -77.5 -200t-208.5 -83t-209 83t-78 200h158q0 -63 36 -101.5t92 -38.5t93 39.5t37 100.5z" glyph-name="Abreve" horiz-adv-x="1257" unicode="Ă"/><glyph d="M53 208q0 99 81 158.5t221 59.5t214 -53h11v33q0 158 -207 157q-51 0 -101.5 -13t-74.5 -26l-23 -14l-63 147q105 68 295 68t278 -89t88 -247v-389h-143l-21 78h-10q-63 -94 -252 -94q-137 0 -215 62.5t-78 161.5zM248 218q0 -46 39 -73.5t113 -27.5t124.5 33.5 t50.5 73.5t-48 66.5t-125 26.5t-115.5 -26.5t-38.5 -72.5zM563 1188h158q0 -117 -78 -200t-209 -83t-209 83t-78 200h158q0 -63 36 -101t92 -38t93 39t37 100z" glyph-name="abreve" horiz-adv-x="868" unicode="ă"/><glyph d="M993 -130q0 73 72 130h-27l-92 186h-637l-90 -186h-229l618 1229h39l623 -1229h-68q-92 -46 -92 -112t70 -66q37 0 65 31l60 -76q-49 -61 -137 -61t-131.5 40.5t-43.5 113.5zM854 373l-219 481h-12l-222 -481l-12 -21h477z" glyph-name="Aogonek" horiz-adv-x="1255" unicode="Ą"/><glyph d="M557 -130q0 73 72 130l-21 78h-10q-63 -94 -252 -94q-137 0 -215 62.5t-78 161.5t81 158.5t221 59.5t214 -53h11v33q0 158 -207 157q-51 0 -101.5 -13t-74.5 -26l-23 -14l-63 147q105 68 295 68t278 -89t88 -247v-389q-10 -4 -26.5 -11t-44 -36t-27.5 -64q0 -68 69 -67 q45 0 66 31l59 -76q-49 -61 -136 -61t-131 40.5t-44 113.5zM248 218q0 -46 39 -73.5t113 -27.5t124.5 33.5t50.5 73.5t-48 66.5t-125 26.5t-115.5 -26.5t-38.5 -72.5z" glyph-name="aogonek" horiz-adv-x="870" unicode="ą"/><glyph d="M635 1333v33l78 291h233v-33l-184 -291h-127zM78 613q0 273 179 457.5t454 184.5t430 -137l16 -16l-117 -158q-14 12 -40.5 32.5t-107.5 53.5t-163 33q-195 0 -318.5 -128.5t-123.5 -320.5t124 -320t318 -128q88 0 166 29.5t113 58.5l32 29l117 -156l-13 -13 q-14 -14 -106.5 -78.5t-312.5 -64.5q-287 0 -467 184.5t-180 457.5z" glyph-name="Cacute" horiz-adv-x="1200" unicode="Ć"/><glyph d="M330 858v33l78 291h233v-33l-184 -291h-127zM452 -16q-165 0 -278 105t-113 265t113 265.5t289 105.5q68 0 126 -14.5t83 -30.5l24 -14l-59 -150q-61 43 -157 43t-156 -56.5t-60 -148.5t60.5 -148t148.5 -56t145 32l19 11l53 -148q-73 -61 -238 -61z" glyph-name="cacute" horiz-adv-x="739" unicode="ć"/><glyph d="M399 1307v32l195 291h213l194 -291v-32h-129l-170 188l-174 -188h-129zM78 613q0 273 179 457.5t454 184.5t430 -137l16 -16l-117 -158q-14 12 -40.5 32.5t-107.5 53.5t-163 33q-195 0 -318.5 -128.5t-123.5 -320.5t124 -320t318 -128q88 0 166 29.5t113 58.5l32 29 l117 -156l-13 -13q-14 -14 -106.5 -78.5t-312.5 -64.5q-287 0 -467 184.5t-180 457.5z" glyph-name="Ccircumflex" horiz-adv-x="1200" unicode="Ĉ"/><glyph d="M141 858v33l195 291h213l194 -291v-33h-129l-170 189l-174 -189h-129zM452 -16q-165 0 -278 105t-113 265t113 265.5t289 105.5q68 0 126 -14.5t83 -30.5l24 -14l-59 -150q-61 43 -157 43t-156 -56.5t-60 -148.5t60.5 -148t148.5 -56t145 32l19 11l53 -148 q-73 -61 -238 -61z" glyph-name="ccircumflex" horiz-adv-x="739" unicode="ĉ"/><glyph d="M78 613q0 273 179 457.5t454 184.5t430 -137l16 -16l-117 -158q-14 12 -40.5 32.5t-107.5 53.5t-163 33q-195 0 -318.5 -128.5t-123.5 -320.5t124 -320t318 -128q88 0 166 29.5t113 58.5l32 29l117 -156l-13 -13q-14 -14 -106.5 -78.5t-312.5 -64.5q-287 0 -467 184.5 t-180 457.5zM584 1528q0 55 36.5 93t92 38t93.5 -38t38 -93t-38 -93t-93.5 -38t-92 38t-36.5 93z" glyph-name="Cdotaccent" horiz-adv-x="1200" unicode="Ċ"/><glyph d="M452 -16q-165 0 -278 105t-113 265t113 265.5t289 105.5q68 0 126 -14.5t83 -30.5l24 -14l-59 -150q-61 43 -157 43t-156 -56.5t-60 -148.5t60.5 -148t148.5 -56t145 32l19 11l53 -148q-73 -61 -238 -61zM297 1036.5q0 55.5 37 93t92 37.5t93 -37.5t38 -93t-38 -93.5 t-93 -38t-92 38t-37 93.5z" glyph-name="cdotaccent" horiz-adv-x="739" unicode="ċ"/><glyph d="M995 1661v-33l-194 -291h-213l-195 291v33h129l174 -188l170 188h129zM78 613q0 273 179 457.5t454 184.5t430 -137l16 -16l-117 -158q-14 12 -40.5 32.5t-107.5 53.5t-163 33q-195 0 -318.5 -128.5t-123.5 -320.5t124 -320t318 -128q88 0 166 29.5t113 58.5l32 29 l117 -156l-13 -13q-14 -14 -106.5 -78.5t-312.5 -64.5q-287 0 -467 184.5t-180 457.5z" glyph-name="Ccaron" horiz-adv-x="1200" unicode="Č"/><glyph d="M733 1182v-33l-194 -291h-213l-195 291v33h129l174 -189l170 189h129zM452 -16q-165 0 -278 105t-113 265t113 265.5t289 105.5q68 0 126 -14.5t83 -30.5l24 -14l-59 -150q-61 43 -157 43t-156 -56.5t-60 -148.5t60.5 -148t148.5 -56t145 32l19 11l53 -148 q-73 -61 -238 -61z" glyph-name="ccaron" horiz-adv-x="739" unicode="č"/><glyph d="M938 1661v-33l-195 -291h-213l-194 291v33h129l174 -188l170 188h129zM1272 614.5q0 -276.5 -178.5 -445.5t-475.5 -169h-458v1229h458q297 0 475.5 -169t178.5 -445.5zM604 1049h-242v-869h242q203 0 332 116t129 318.5t-129 318.5t-332 116z" glyph-name="Dcaron" horiz-adv-x="1353" unicode="Ď"/><glyph d="M932 1248q0 52 36 88t98 36t101 -40t38 -106t-46 -141l-57 -98h-137l53 86l35 45v6q-57 4 -89 38t-32 86zM647 635v733h201v-1368h-135l-31 98h-8q-5 -11 -59.5 -62.5t-202.5 -51.5t-248.5 101t-100.5 267t99.5 269.5t249.5 103.5q78 0 134 -22.5t75 -45.5l18 -22h8z M657 355q0 93 -55 148.5t-140 55.5t-140.5 -57.5t-55.5 -146.5t55.5 -147t140.5 -58t140 56t55 149z" glyph-name="dcaron" horiz-adv-x="956" unicode="ď"/><glyph d="M27 551v127h149v551h459q297 0 475 -169t178 -445.5t-178 -445.5t-475 -169h-459v551h-149zM621 1049h-242v-371h231v-127h-231v-371h242q203 0 331.5 116t128.5 318.5t-128.5 318.5t-331.5 116z" glyph-name="Dcroat" horiz-adv-x="1370" unicode="Đ"/><glyph d="M397 934v108h250v326h201v-326h115v-108h-115v-934h-135l-31 98h-8q-5 -11 -59.5 -62.5t-202.5 -51.5t-248.5 101t-100.5 267t99.5 269.5t249.5 103.5q78 0 134 -22.5t75 -45.5l18 -22h8v299h-250zM657 355q0 93 -55 148.5t-140 55.5t-140.5 -57.5t-55.5 -146.5 t55.5 -147t140.5 -58t140 56t55 149z" glyph-name="dcroat" horiz-adv-x="956" unicode="đ"/><glyph d="M981 694v-172h-619v-342h730v-180h-932v1229h932v-180h-730v-355h619zM344 1405v123h557v-123h-557z" glyph-name="Emacron" horiz-adv-x="1167" unicode="Ē"/><glyph d="M471 -20q-186 0 -298 105t-112 267t106.5 267.5t272.5 105.5t261.5 -100.5t95.5 -259.5v-50h-539q12 -88 72 -133t132 -45q122 0 193 39l21 14l65 -129q-10 -8 -29.5 -22t-89 -36.5t-151.5 -22.5zM439 575q-69 0 -116 -37.5t-61 -109.5h344q-10 66 -54 106.5t-113 40.5z M162 905v123h557v-123h-557z" glyph-name="emacron" horiz-adv-x="849" unicode="ē"/><glyph d="M981 694v-172h-619v-342h730v-180h-932v1229h932v-180h-730v-355h619zM766 1649h158q0 -117 -78 -200t-209 -83t-209 83t-78 200h158q0 -63 36 -101.5t92 -38.5t93 39.5t37 100.5z" glyph-name="Ebreve" horiz-adv-x="1167" unicode="Ĕ"/><glyph d="M471 -20q-186 0 -298 105t-112 267t106.5 267.5t272.5 105.5t261.5 -100.5t95.5 -259.5v-50h-539q12 -88 72 -133t132 -45q122 0 193 39l21 14l65 -129q-10 -8 -29.5 -22t-89 -36.5t-151.5 -22.5zM439 575q-69 0 -116 -37.5t-61 -109.5h344q-10 66 -54 106.5t-113 40.5z M567 1188h158q0 -117 -78 -200t-209 -83t-208.5 83t-77.5 200h157q0 -63 36 -101t92 -38t93 39t37 100z" glyph-name="ebreve" horiz-adv-x="849" unicode="ĕ"/><glyph d="M981 694v-172h-619v-342h730v-180h-932v1229h932v-180h-730v-355h619zM516 1497q0 55 37 93t92 38t93 -38t38 -93t-38 -93t-93 -38t-92 38t-37 93z" glyph-name="Edotaccent" horiz-adv-x="1167" unicode="Ė"/><glyph d="M471 -20q-186 0 -298 105t-112 267t106.5 267.5t272.5 105.5t261.5 -100.5t95.5 -259.5v-50h-539q12 -88 72 -133t132 -45q122 0 193 39l21 14l65 -129q-10 -8 -29.5 -22t-89 -36.5t-151.5 -22.5zM439 575q-69 0 -116 -37.5t-61 -109.5h344q-10 66 -54 106.5t-113 40.5z M309 1036.5q0 55.5 37 93t92.5 37.5t93 -37.5t37.5 -93t-37.5 -93.5t-93 -38t-92.5 38t-37 93.5z" glyph-name="edotaccent" horiz-adv-x="849" unicode="ė"/><glyph d="M788 -130q0 73 72 130h-700v1229h932v-180h-730v-355h619v-172h-619v-342h730v-180h-88q-10 -4 -26.5 -11t-44.5 -36t-28 -64q0 -68 70 -67q37 0 65 31l60 -76q-48 -61 -136 -61t-132 40.5t-44 113.5z" glyph-name="Eogonek" horiz-adv-x="1167" unicode="Ę"/><glyph d="M612 -170q43 0 66 31l59 -76q-49 -61 -136 -61t-131 41t-44 105t41 110q-184 2 -295 106t-111 266t106.5 267.5t272.5 105.5t261.5 -100.5t95.5 -259.5v-50h-539q12 -88 72 -133t132 -45q122 0 193 39l21 14l65 -129q-41 -37 -93 -54q-105 -34 -105 -106q0 -71 69 -71z M439 575q-69 0 -116 -37.5t-61 -109.5h344q-10 66 -54 106.5t-113 40.5z" glyph-name="eogonek" horiz-adv-x="851" unicode="ę"/><glyph d="M932 1642v-32l-195 -291h-213l-194 291v32h129l174 -188l170 188h129zM981 694v-172h-619v-342h730v-180h-932v1229h932v-180h-730v-355h619z" glyph-name="Ecaron" horiz-adv-x="1167" unicode="Ě"/><glyph d="M741 1182v-33l-194 -291h-213l-195 291v33h129l174 -189l170 189h129zM471 -20q-186 0 -298 105t-112 267t106.5 267.5t272.5 105.5t261.5 -100.5t95.5 -259.5v-50h-539q12 -88 72 -133t132 -45q122 0 193 39l21 14l65 -129q-10 -8 -29.5 -22t-89 -36.5t-151.5 -22.5z M439 575q-69 0 -116 -37.5t-61 -109.5h344q-10 66 -54 106.5t-113 40.5z" glyph-name="ecaron" horiz-adv-x="849" unicode="ě"/><glyph d="M414 1305v32l194 291h213l195 -291v-32h-129l-170 188l-174 -188h-129zM1090 516v6h-400v172h610v-104q0 -283 -152 -451t-436 -168t-459 183.5t-175 458t178 458.5t469 184q141 0 256 -39.5t158 -78.5l45 -39l-121 -156q-14 14 -41 33.5t-115 53.5t-184 34 q-195 0 -315.5 -128t-120.5 -322t117.5 -320.5t299.5 -126.5t284 98t102 252z" glyph-name="Gcircumflex" horiz-adv-x="1361" unicode="Ĝ"/><glyph d="M139 858v33l195 291h213l194 -291v-33h-129l-170 189l-174 -189h-129zM446.5 -485q-190.5 0 -293 71.5t-102.5 196.5t129 182v12q-114 51 -114 158t116 162q-51 68 -51 154q0 121 85 196.5t216 75.5l381 -18v-140h-117v-10q37 -27 37 -123t-83 -170t-218 -74 q-80 0 -143 29q-49 -25 -49 -63t44 -58t162 -20q399 0 400 -273q0 -127 -104.5 -207.5t-295 -80.5zM447 -78q-101 0 -152 -38t-51 -93t51 -92t152 -37t151.5 36t50.5 93t-50.5 94t-151.5 37zM432.5 578q-63.5 0 -100.5 -36t-37 -89.5t37 -88t100.5 -34.5t100 34.5t36.5 88 t-36.5 89.5t-100 36z" glyph-name="gcircumflex" horiz-adv-x="851" unicode="ĝ"/><glyph d="M1090 516v6h-400v172h610v-104q0 -283 -152 -451t-436 -168t-459 183.5t-175 458t178 458.5t469 184q141 0 256 -39.5t158 -78.5l45 -39l-121 -156q-14 14 -41 33.5t-115 53.5t-184 34q-195 0 -315.5 -128t-120.5 -322t117.5 -320.5t299.5 -126.5t284 98t102 252z M844 1649h157q0 -117 -77.5 -200t-208.5 -83t-209 83t-78 200h158q0 -63 36 -101.5t92 -38.5t93 39.5t37 100.5z" glyph-name="Gbreve" horiz-adv-x="1361" unicode="Ğ"/><glyph d="M446.5 -485q-190.5 0 -293 71.5t-102.5 196.5t129 182v12q-114 51 -114 158t116 162q-51 68 -51 154q0 121 85 196.5t216 75.5l381 -18v-140h-117v-10q37 -27 37 -123t-83 -170t-218 -74q-80 0 -143 29q-49 -25 -49 -63t44 -58t162 -20q399 0 400 -273 q0 -127 -104.5 -207.5t-295 -80.5zM447 -78q-101 0 -152 -38t-51 -93t51 -92t152 -37t151.5 36t50.5 93t-50.5 94t-151.5 37zM432.5 578q-63.5 0 -100.5 -36t-37 -89.5t37 -88t100.5 -34.5t100 34.5t36.5 88t-36.5 89.5t-100 36zM567 1188h158q0 -117 -78 -200t-209 -83 t-208.5 83t-77.5 200h157q0 -63 36 -101t92 -38t93 39t37 100z" glyph-name="gbreve" horiz-adv-x="851" unicode="ğ"/><glyph d="M1090 516v6h-400v172h610v-104q0 -283 -152 -451t-436 -168t-459 183.5t-175 458t178 458.5t469 184q141 0 256 -39.5t158 -78.5l45 -39l-121 -156q-14 14 -41 33.5t-115 53.5t-184 34q-195 0 -315.5 -128t-120.5 -322t117.5 -320.5t299.5 -126.5t284 98t102 252z M578 1497q0 55 36.5 93t92 38t93.5 -38t38 -93t-38 -93t-93.5 -38t-92 38t-36.5 93z" glyph-name="Gdotaccent" horiz-adv-x="1361" unicode="Ġ"/><glyph d="M446.5 -485q-190.5 0 -293 71.5t-102.5 196.5t129 182v12q-114 51 -114 158t116 162q-51 68 -51 154q0 121 85 196.5t216 75.5l381 -18v-140h-117v-10q37 -27 37 -123t-83 -170t-218 -74q-80 0 -143 29q-49 -25 -49 -63t44 -58t162 -20q399 0 400 -273 q0 -127 -104.5 -207.5t-295 -80.5zM447 -78q-101 0 -152 -38t-51 -93t51 -92t152 -37t151.5 36t50.5 93t-50.5 94t-151.5 37zM432.5 578q-63.5 0 -100.5 -36t-37 -89.5t37 -88t100.5 -34.5t100 34.5t36.5 88t-36.5 89.5t-100 36zM315 1036.5q0 55.5 37 93t92.5 37.5 t93 -37.5t37.5 -93t-37.5 -93.5t-93 -38t-92.5 38t-37 93.5z" glyph-name="gdotaccent" horiz-adv-x="851" unicode="ġ"/><glyph d="M582 -198q0 52 36 88t98 36t101 -40t38 -106t-46 -140l-57 -99h-138l54 86l34 45v6q-57 4 -88.5 38t-31.5 86zM1090 516v6h-400v172h610v-104q0 -283 -152 -451t-436 -168t-459 183.5t-175 458t178 458.5t469 184q141 0 256 -39.5t158 -78.5l45 -39l-121 -156 q-14 14 -41 33.5t-115 53.5t-184 34q-195 0 -315.5 -128t-120.5 -322t117.5 -320.5t299.5 -126.5t284 98t102 252z" glyph-name="Gcommaaccent" horiz-adv-x="1361" unicode="Ģ"/><glyph d="M559 986q0 -52 -36 -88t-98 -36t-101 40t-38 106t46 141l57 98h137l-53 -86l-35 -45v-6q57 -4 89 -38t32 -86zM446.5 -485q-190.5 0 -293 71.5t-102.5 196.5t129 182v12q-114 51 -114 158t116 162q-51 68 -51 154q0 121 85 196.5t216 75.5l381 -18v-140h-117v-10 q37 -27 37 -123t-83 -170t-218 -74q-80 0 -143 29q-49 -25 -49 -63t44 -58t162 -20q399 0 400 -273q0 -127 -104.5 -207.5t-295 -80.5zM447 -78q-101 0 -152 -38t-51 -93t51 -92t152 -37t151.5 36t50.5 93t-50.5 94t-151.5 37zM432.5 578q-63.5 0 -100.5 -36t-37 -89.5 t37 -88t100.5 -34.5t100 34.5t36.5 88t-36.5 89.5t-100 36z" glyph-name="gcommaaccent" horiz-adv-x="851" unicode="ģ"/><glyph d="M383 1307v32l195 291h213l194 -291v-32h-129l-170 188l-174 -188h-129zM1229 1229v-1229h-203v516h-664v-516h-202v1229h202v-541h664v541h203z" glyph-name="Hcircumflex" horiz-adv-x="1388" unicode="Ĥ"/><glyph d="M160 1468v33l194 291h213l195 -291v-33h-129l-170 189l-174 -189h-129zM109 0v1368h200v-725h6q79 82 221 82t225 -85t83 -228v-412h-201v385q0 78 -43 126t-120 48t-124 -45t-47 -102v-412h-200z" glyph-name="hcircumflex" horiz-adv-x="942" unicode="ĥ"/><glyph d="M1235 1229v-195h61v-121h-61v-913h-203v516h-663v-516h-203v913h-64v121h64v195h203v-195h663v195h203zM369 688h663v225h-663v-225z" glyph-name="Hbar" horiz-adv-x="1400" unicode="Ħ"/><glyph d="M0 934v108h109v326h200v-326h256v-108h-256v-291h6q79 82 221 82t225 -85t83 -228v-412h-201v385q0 78 -43 126t-120 48t-124 -45t-47 -102v-412h-200v934h-109z" glyph-name="hbar" horiz-adv-x="942" unicode="ħ"/><glyph d="M362 1229v-1229h-202v1229h202zM403 1341q-63 0 -146 44.5t-114 44.5q-61 0 -71 -64l-4 -29l-140 13l6 59q8 78 56 126t120 48t154 -44t113 -44q59 0 74 64l6 28l141 -12l-8 -59q-33 -175 -187 -175z" glyph-name="Itilde" horiz-adv-x="524" unicode="Ĩ"/><glyph d="M111 0v709h200v-709h-200zM348 889q-63 0 -146 44t-114 44q-61 0 -72 -64l-4 -28l-139 12l6 59q8 78 55.5 126t119.5 48t154.5 -44t113.5 -44q59 0 73 64l6 29l142 -13l-8 -59q-33 -174 -187 -174z" glyph-name="itilde" horiz-adv-x="419" unicode="ĩ"/><glyph d="M362 1229v-1229h-202v1229h202zM-18 1346v122h557v-122h-557z" glyph-name="Imacron" horiz-adv-x="524" unicode="Ī"/><glyph d="M111 0v709h200v-709h-200zM-72 905v123h557v-123h-557z" glyph-name="imacron" horiz-adv-x="419" unicode="ī"/><glyph d="M362 1229v-1229h-202v1229h202zM391 1649h158q0 -117 -78 -200t-209 -83t-209 83t-78 200h158q0 -63 36 -101.5t92 -38.5t93 39.5t37 100.5z" glyph-name="Ibreve" horiz-adv-x="524" unicode="Ĭ"/><glyph d="M111 0v709h200v-709h-200zM336 1188h158q0 -117 -78 -200t-209 -83t-209 83t-78 200h158q0 -63 36 -101t92 -38t93 39t37 100z" glyph-name="ibreve" horiz-adv-x="419" unicode="ĭ"/><glyph d="M147 -130q0 73 72 130h-59v1229h202v-1229h-6q-92 -46 -92 -112t70 -66q44 0 65 31l60 -76q-49 -61 -137 -61t-131.5 40.5t-43.5 113.5z" glyph-name="Iogonek" horiz-adv-x="522" unicode="Į"/><glyph d="M98 -130q0 73 72 130h-57v709h200v-709q-10 -4 -26.5 -11t-44 -36t-27.5 -64q0 -68 70 -67q44 0 65 31l60 -76q-48 -61 -136 -61t-132 40.5t-44 113.5zM213 963q-51 0 -85 33.5t-34 85t34 86t85 34.5t86 -34.5t35 -86t-35 -85t-86 -33.5z" glyph-name="iogonek" horiz-adv-x="421" unicode="į"/><glyph d="M362 1229v-1229h-202v1229h202zM133 1495q0 55 37 93t92 38t93 -38t38 -93t-38 -93t-93 -38t-92 38t-37 93z" glyph-name="Idotaccent" horiz-adv-x="524" unicode="İ"/><glyph d="M111 0v709h200v-709h-200z" glyph-name="dotlessi" horiz-adv-x="421" unicode="ı"/><glyph d="M362 1229v-1229h-202v1229h202zM987 168q123 0 184.5 66.5t63.5 211.5v783h205v-821q-2 -201 -112.5 -318.5t-319.5 -117.5t-336 102l94 166q98 -72 221 -72z" glyph-name="IJ" horiz-adv-x="1587" unicode="Ĳ"/><glyph d="M211 963q-51 0 -85 33.5t-34 85t34 86t85 34.5t86 -34.5t35 -86t-35 -85t-86 -33.5zM111 0v709h200v-709h-200zM651 709h203v-873q0 -248 -225 -248q-76 0 -142 35l31 150q29 -16 62 -17q72 0 71 88v865zM753 963q-50 0 -85 33.5t-35 85t34.5 86t84.5 34.5t85 -34.5 t35 -86t-34.5 -85t-84.5 -33.5z" glyph-name="ij" horiz-adv-x="960" unicode="ĳ"/><glyph d="M401 1305v32l195 291h213l195 -291v-32h-130l-169 188l-175 -188h-129zM354 168q123 0 184.5 66.5t63.5 211.5v783h205v-821q-2 -201 -112.5 -318.5t-319.5 -117.5t-336 102l94 166q98 -72 221 -72z" glyph-name="Jcircumflex" horiz-adv-x="954" unicode="Ĵ"/><glyph d="M106 709h203v-865q0 -256 -237 -256q-93 0 -148 35l-18 10l53 150q35 -18 74 -19q74 0 73 101v844zM-90 858v33l194 291h213l195 -291v-33h-129l-170 189l-174 -189h-129z" glyph-name="jcircumflex" horiz-adv-x="415" unicode="ĵ"/><glyph d="M520 -198q0 52 36 88t98 36t101.5 -40t38.5 -106t-46 -140l-58 -99h-137l53 86l35 45v6q-57 4 -89 38t-32 86zM362 1229v-625l617 625h246v-25l-486 -493l486 -684v-27h-240l-391 563l-232 -237v-326h-202v1229h202z" glyph-name="Kcommaaccent" horiz-adv-x="1251" unicode="Ķ"/><glyph d="M299 -198q0 52 36 88t98 36t101 -40t38 -106t-46 -140l-57 -99h-137l53 86l35 45v6q-57 4 -89 38t-32 86zM307 301v-301h-201v1368h201v-969h4l256 310h228l-289 -344l330 -365h-256l-267 301h-6z" glyph-name="kcommaaccent" horiz-adv-x="843" unicode="ķ"/><glyph d="M307 301v-301h-201v709h201v-310h6l254 310h228l-289 -347l330 -362h-256l-267 301h-6z" glyph-name="kgreenlandic" horiz-adv-x="845" unicode="ĸ"/><glyph d="M199 1307v32l77 291h234v-33l-184 -290h-127zM1044 0h-884v1229h202v-1049h682v-180z" glyph-name="Lacute" horiz-adv-x="1069" unicode="Ĺ"/><glyph d="M145 1468v33l78 291h234v-33l-185 -291h-127zM111 0v1368h200v-1368h-200z" glyph-name="lacute" horiz-adv-x="419" unicode="ĺ"/><glyph d="M455 -198q0 52 35.5 88t97.5 36t101.5 -40t38.5 -106t-46 -140l-57 -99h-138l54 86l34 45v6q-57 4 -88.5 38t-31.5 86zM1044 0h-884v1229h202v-1049h682v-180z" glyph-name="Lcommaaccent" horiz-adv-x="1069" unicode="Ļ"/><glyph d="M80 -198q0 52 36 88t98 36t101 -40t38 -106t-46 -140l-57 -99h-137l53 86l35 45v6q-57 4 -89 38t-32 86zM111 0v1368h200v-1368h-200z" glyph-name="lcommaaccent" horiz-adv-x="419" unicode="ļ"/><glyph d="M649 1105q0 52 36 88t98 36t101.5 -40t38.5 -106t-46 -141l-58 -98h-137l53 86l35 45v6q-57 4 -89 38t-32 86zM1044 0h-884v1229h202v-1049h682v-180z" glyph-name="Lcaron" horiz-adv-x="1071" unicode="Ľ"/><glyph d="M393 1248q0 52 36 88t98 36t101.5 -40t38.5 -106t-46 -141l-58 -98h-137l53 86l35 45v6q-57 4 -89 38t-32 86zM111 0v1368h200v-1368h-200z" glyph-name="lcaron" horiz-adv-x="419" unicode="ľ"/><glyph d="M1044 0h-884v1229h202v-1049h682v-180zM674 696.5q0 55.5 37 93t92 37.5t93 -37.5t38 -93t-38 -93.5t-93 -38t-92 38t-37 93.5z" glyph-name="Ldot" horiz-adv-x="1071" unicode="Ŀ"/><glyph d="M111 0v1368h200v-1368h-200zM414 585.5q0 55.5 36.5 93.5t92 38t93.5 -38t38 -93.5t-38 -93t-93.5 -37.5t-92 37.5t-36.5 93z" glyph-name="ldot" horiz-adv-x="667" unicode="ŀ"/><glyph d="M180 1229h203v-471l207 119l53 -93l-260 -149v-455h682v-180h-885v518l-117 -67l-53 92l170 98v588z" glyph-name="Lslash" horiz-adv-x="1089" unicode="Ł"/><glyph d="M199 1368h200v-620l142 81l49 -84l-191 -110v-635h-200v520l-125 -71l-49 83l174 101v735z" glyph-name="lslash" horiz-adv-x="546" unicode="ł"/><glyph d="M629 1307v32l78 291h233v-33l-184 -290h-127zM1266 1229v-1229h-54l-850 823v-823h-202v1229h53l850 -811v811h203z" glyph-name="Nacute" horiz-adv-x="1425" unicode="Ń"/><glyph d="M424 858v33l78 291h233v-33l-184 -291h-127zM109 0v709h129l26 -99h10q82 115 240 115t244 -85t86 -228v-412h-201v383q0 80 -43 128t-121 48t-124 -45t-46 -102v-412h-200z" glyph-name="nacute" horiz-adv-x="940" unicode="ń"/><glyph d="M612 -198q0 52 36 88t98 36t101.5 -40t38.5 -106t-46 -140l-58 -99h-137l53 86l35 45v6q-57 4 -89 38t-32 86zM1266 1229v-1229h-54l-850 823v-823h-202v1229h53l850 -811v811h203z" glyph-name="Ncommaaccent" horiz-adv-x="1425" unicode="Ņ"/><glyph d="M338 -198q0 52 36 88t98 36t101 -40t38 -106t-46 -140l-57 -99h-137l53 86l35 45v6q-57 4 -89 38t-32 86zM109 0v709h129l26 -99h10q82 115 240 115t244 -85t86 -228v-412h-201v383q0 80 -43 128t-121 48t-124 -45t-46 -102v-412h-200z" glyph-name="ncommaaccent" horiz-adv-x="940" unicode="ņ"/><glyph d="M993 1630v-33l-194 -290h-213l-195 290v33h129l174 -188l170 188h129zM1266 1229v-1229h-54l-850 823v-823h-202v1229h53l850 -811v811h203z" glyph-name="Ncaron" horiz-adv-x="1425" unicode="Ň"/><glyph d="M772 1182v-33l-194 -291h-213l-195 291v33h129l174 -189l170 189h129zM109 0v709h129l26 -99h10q82 115 240 115t244 -85t86 -228v-412h-201v383q0 80 -43 128t-121 48t-124 -45t-46 -102v-412h-200z" glyph-name="ncaron" horiz-adv-x="940" unicode="ň"/><glyph d="M57 1189q0 52 36.5 88t98.5 36t101 -40t38 -106t-46 -141l-58 -98h-137l53 86l35 45v6q-57 4 -89 38t-32 86zM109 0v709h129l26 -99h10q82 115 240 115t244 -85t86 -228v-412h-201v383q0 80 -43 128t-121 48t-124 -45t-46 -102v-412h-200z" glyph-name="napostrophe" horiz-adv-x="940" unicode="ŉ"/><glyph d="M1266 1229v-1385q0 -256 -238 -256q-45 0 -87 11.5t-60 23.5l-19 10l53 150q33 -18 70 -19q78 0 78 95v284l-701 680v-823h-202v1229h53l850 -811v811h203z" glyph-name="Eng" horiz-adv-x="1425" unicode="Ŋ"/><glyph d="M109 0v709h129l26 -99h10q82 115 240 115t244 -85t86 -228v-557q0 -254 -236 -254q-89 0 -147 32l-19 11l54 151q35 -20 71 -20q76 0 76 102v506q0 80 -43 128t-121 48t-124 -45t-46 -102v-412h-200z" glyph-name="eng" horiz-adv-x="940" unicode="ŋ"/><glyph d="M438 1384v123h557v-123h-557zM722 -29q-290 0 -467 184.5t-177 457.5t176 457.5t467 184.5t468 -183.5t177 -457.5t-177 -458.5t-467 -184.5zM722 168q194 0 314.5 126t120.5 318.5t-120.5 320.5t-314.5 128t-314.5 -127.5t-120.5 -319.5t120.5 -319t314.5 -127z" glyph-name="Omacron" horiz-adv-x="1443" unicode="Ō"/><glyph d="M176 905v123h557v-123h-557zM852 351q0 -165 -113.5 -266t-281.5 -101t-282 101t-114 267t114 269.5t281 103.5t281.5 -104.5t114.5 -269.5zM457 143q86 0 142 57.5t56 152.5t-56 153.5t-142 58.5t-142.5 -57.5t-56.5 -153.5t56.5 -153.5t142.5 -57.5z" glyph-name="omacron" horiz-adv-x="911" unicode="ō"/><glyph d="M722 -29q-290 0 -467 184.5t-177 457.5t176 457.5t467 184.5t468 -183.5t177 -457.5t-177 -458.5t-467 -184.5zM722 168q194 0 314.5 126t120.5 318.5t-120.5 320.5t-314.5 128t-314.5 -127.5t-120.5 -319.5t120.5 -319t314.5 -127zM846 1651h158q0 -117 -78 -200 t-209 -83t-209 83t-78 200h158q0 -63 36 -101.5t92 -38.5t93 39.5t37 100.5z" glyph-name="Obreve" horiz-adv-x="1443" unicode="Ŏ"/><glyph d="M852 351q0 -165 -113.5 -266t-281.5 -101t-282 101t-114 267t114 269.5t281 103.5t281.5 -104.5t114.5 -269.5zM457 143q86 0 142 57.5t56 152.5t-56 153.5t-142 58.5t-142.5 -57.5t-56.5 -153.5t56.5 -153.5t142.5 -57.5zM590 1188h158q0 -117 -78 -200t-209 -83 t-209 83t-78 200h158q0 -63 36 -101t92 -38t93 39t37 100z" glyph-name="obreve" horiz-adv-x="911" unicode="ŏ"/><glyph d="M481 1305v32l78 291h209v-33l-160 -290h-127zM823 1305v32l78 291h209v-33l-160 -290h-127zM722 -29q-290 0 -467 184.5t-177 457.5t176 457.5t467 184.5t468 -183.5t177 -457.5t-177 -458.5t-467 -184.5zM722 168q194 0 314.5 126t120.5 318.5t-120.5 320.5t-314.5 128 t-314.5 -127.5t-120.5 -319.5t120.5 -319t314.5 -127z" glyph-name="Ohungarumlaut" horiz-adv-x="1443" unicode="Ő"/><glyph d="M223 858v33l78 291h209v-33l-160 -291h-127zM565 858v33l78 291h209v-33l-160 -291h-127zM852 351q0 -165 -113.5 -266t-281.5 -101t-282 101t-114 267t114 269.5t281 103.5t281.5 -104.5t114.5 -269.5zM457 143q86 0 142 57.5t56 152.5t-56 153.5t-142 58.5 t-142.5 -57.5t-56.5 -153.5t56.5 -153.5t142.5 -57.5z" glyph-name="ohungarumlaut" horiz-adv-x="911" unicode="ő"/><glyph d="M706 -29q-278 0 -455 184.5t-177 457.5t176 457.5t454 184.5t455 -159v133h932v-180h-729v-355h618v-172h-618v-342h729v-180h-932v131q-175 -160 -453 -160zM718 168q194 0 314.5 126t120.5 318.5t-120.5 320.5t-314.5 128t-314.5 -127.5t-120.5 -319.5t120.5 -319 t314.5 -127z" glyph-name="OE" horiz-adv-x="2166" unicode="Œ"/><glyph d="M1067 -20q-203 0 -313 120q-113 -116 -289 -116t-290 101t-114 267t114 269.5t288 103.5t289 -119q110 119 280 119t265.5 -100.5t95.5 -259.5v-50h-539q12 -88 72 -133t132 -45q126 0 191 39l23 14l65 -129q-10 -8 -29.5 -22t-89 -36.5t-151.5 -22.5zM457 143 q86 0 142 57.5t56 152.5t-56 153.5t-142 58.5t-142.5 -57.5t-56.5 -153.5t56.5 -153.5t142.5 -57.5zM1035 575q-69 0 -116 -37.5t-61 -109.5h344q-10 66 -54 106.5t-113 40.5z" glyph-name="oe" horiz-adv-x="1447" unicode="œ"/><glyph d="M537 1307v32l77 291h234v-33l-184 -290h-127zM160 0v1229h532q233 0 365.5 -108.5t132.5 -307.5q0 -281 -256 -381v-12l305 -391v-29h-225l-301 389h-351v-389h-202zM981 805q0 119 -79 181.5t-216 62.5h-324v-484h336q131 0 207 60.5t76 179.5z" glyph-name="Racute" horiz-adv-x="1302" unicode="Ŕ"/><glyph d="M236 858v33l77 291h234v-33l-185 -291h-126zM464 537q-60 0 -106.5 -43t-46.5 -107v-387h-200v709h129l26 -99h8q72 104 207 105q86 0 150 -43l-72 -160q-35 25 -95 25z" glyph-name="racute" horiz-adv-x="632" unicode="ŕ"/><glyph d="M526 -198q0 52 36 88t98 36t101.5 -40t38.5 -106t-46 -140l-58 -99h-137l53 86l35 45v6q-57 4 -89 38t-32 86zM160 0v1229h532q233 0 365.5 -108.5t132.5 -307.5q0 -281 -256 -381v-12l305 -391v-29h-225l-301 389h-351v-389h-202zM981 805q0 119 -79 181.5t-216 62.5 h-324v-484h336q131 0 207 60.5t76 179.5z" glyph-name="Rcommaaccent" horiz-adv-x="1302" unicode="Ŗ"/><glyph d="M80 -198q0 52 36 88t98 36t101 -40t38 -106t-46 -140l-57 -99h-137l53 86l35 45v6q-57 4 -89 38t-32 86zM464 537q-60 0 -106.5 -43t-46.5 -107v-387h-200v709h129l26 -99h8q72 104 207 105q86 0 150 -43l-72 -160q-35 25 -95 25z" glyph-name="rcommaaccent" horiz-adv-x="632" unicode="ŗ"/><glyph d="M922 1638v-32l-195 -291h-213l-195 291v32h130l174 -188l170 188h129zM160 0v1229h532q233 0 365.5 -108.5t132.5 -307.5q0 -281 -256 -381v-12l305 -391v-29h-225l-301 389h-351v-389h-202zM981 805q0 119 -79 181.5t-216 62.5h-324v-484h336q131 0 207 60.5t76 179.5z " glyph-name="Rcaron" horiz-adv-x="1302" unicode="Ř"/><glyph d="M659 1182v-33l-194 -291h-213l-195 291v33h129l174 -189l170 189h129zM464 537q-60 0 -106.5 -43t-46.5 -107v-387h-200v709h129l26 -99h8q72 104 207 105q86 0 150 -43l-72 -160q-35 25 -95 25z" glyph-name="rcaron" horiz-adv-x="632" unicode="ř"/><glyph d="M487 1307v32l78 291h234v-33l-185 -290h-127zM570 160q114 0 177.5 46t63.5 121t-61.5 117t-261.5 100t-301 140t-101 234t123 244.5t346 92.5q141 0 254 -30.5t156 -61.5l43 -30l-111 -166q-14 10 -41 27.5t-116.5 45t-195.5 27.5t-171.5 -39.5t-65.5 -107.5t62.5 -107 t264.5 -94t302 -144t100 -243t-120.5 -257.5t-358.5 -103.5q-145 0 -265 39t-169 76l-47 39l110 154q16 -12 47 -33t127 -53.5t210 -32.5z" glyph-name="Sacute" horiz-adv-x="1107" unicode="Ś"/><glyph d="M317 858v33l78 291h234v-33l-185 -291h-127zM370 131q134 0 134 74q0 54 -108.5 78t-172 44.5t-108.5 65.5t-45 129t77.5 143.5t235.5 59.5q92 0 171 -14.5t112 -30.5l32 -14l-63 -148q-82 57 -219 57t-137 -67q0 -50 172.5 -86t219 -97t46.5 -120q0 -98 -83 -159.5 t-249 -61.5q-98 0 -179 20.5t-112 40.5l-33 18l62 138q113 -70 247 -70z" glyph-name="sacute" horiz-adv-x="778" unicode="ś"/><glyph d="M254 1315v33l195 290h213l194 -290v-33h-129l-170 188l-174 -188h-129zM570 160q114 0 177.5 46t63.5 121t-61.5 117t-261.5 100t-301 140t-101 234t123 244.5t346 92.5q141 0 254 -30.5t156 -61.5l43 -30l-111 -166q-14 10 -41 27.5t-116.5 45t-195.5 27.5t-171.5 -39.5 t-65.5 -107.5t62.5 -107t264.5 -94t302 -144t100 -243t-120.5 -257.5t-358.5 -103.5q-145 0 -265 39t-169 76l-47 39l110 154q16 -12 47 -33t127 -53.5t210 -32.5z" glyph-name="Scircumflex" horiz-adv-x="1107" unicode="Ŝ"/><glyph d="M86 858v33l195 291h213l194 -291v-33h-129l-170 189l-174 -189h-129zM370 131q134 0 134 74q0 54 -108.5 78t-172 44.5t-108.5 65.5t-45 129t77.5 143.5t235.5 59.5q92 0 171 -14.5t112 -30.5l32 -14l-63 -148q-82 57 -219 57t-137 -67q0 -50 172.5 -86t219 -97 t46.5 -120q0 -98 -83 -159.5t-249 -61.5q-98 0 -179 20.5t-112 40.5l-33 18l62 138q113 -70 247 -70z" glyph-name="scircumflex" horiz-adv-x="778" unicode="ŝ"/><glyph d="M570 160q114 0 177.5 46t63.5 121t-61.5 117t-261.5 100t-301 140t-101 234t123 244.5t346 92.5q141 0 254 -30.5t156 -61.5l43 -30l-111 -166q-14 10 -41 27.5t-116.5 45t-195.5 27.5t-171.5 -39.5t-65.5 -107.5t62.5 -107t264.5 -94t302 -143t100 -240t-110.5 -253 t-327.5 -110l-14 -34q59 0 97 -35t38 -100t-46.5 -105.5t-112.5 -40.5q-113 0 -165 49l-16 17l43 73q45 -45 121 -45t75 60q0 27 -20 43t-52 16t-42 -10l-6 -2l-37 43l35 71q-127 8 -231.5 46t-145.5 71l-43 35l110 154q16 -12 47 -33t127 -53.5t210 -32.5z" glyph-name="Scedilla" horiz-adv-x="1107" unicode="Ş"/><glyph d="M370 131q134 0 134 74q0 54 -108.5 78t-172 44.5t-108.5 65.5t-45 129t77.5 143.5t235.5 59.5q92 0 171 -14.5t112 -30.5l32 -14l-63 -148q-82 57 -219 57t-137 -67q0 -50 172.5 -86t219 -97t46.5 -120q0 -90 -71 -150.5t-214 -68.5l-20 -47q59 0 97 -35t38 -100 t-46.5 -105.5t-112.5 -40.5q-113 0 -165 49l-16 17l43 73q45 -45 121 -45t75 60q0 27 -20 43t-52 16t-42 -10l-6 -2l-37 43l41 84q-82 4 -148.5 23.5t-93.5 35.5l-27 18l62 138q113 -70 247 -70z" glyph-name="scedilla" horiz-adv-x="778" unicode="ş"/><glyph d="M850 1630v-33l-195 -290h-213l-194 290v33h129l174 -188l170 188h129zM570 160q114 0 177.5 46t63.5 121t-61.5 117t-261.5 100t-301 140t-101 234t123 244.5t346 92.5q141 0 254 -30.5t156 -61.5l43 -30l-111 -166q-14 10 -41 27.5t-116.5 45t-195.5 27.5t-171.5 -39.5 t-65.5 -107.5t62.5 -107t264.5 -94t302 -144t100 -243t-120.5 -257.5t-358.5 -103.5q-145 0 -265 39t-169 76l-47 39l110 154q16 -12 47 -33t127 -53.5t210 -32.5z" glyph-name="Scaron" horiz-adv-x="1107" unicode="Š"/><glyph d="M688 1182v-33l-194 -291h-213l-195 291v33h129l174 -189l170 189h129zM370 131q134 0 134 74q0 54 -108.5 78t-172 44.5t-108.5 65.5t-45 129t77.5 143.5t235.5 59.5q92 0 171 -14.5t112 -30.5l32 -14l-63 -148q-82 57 -219 57t-137 -67q0 -50 172.5 -86t219 -97 t46.5 -120q0 -98 -83 -159.5t-249 -61.5q-98 0 -179 20.5t-112 40.5l-33 18l62 138q113 -70 247 -70z" glyph-name="scaron" horiz-adv-x="778" unicode="š"/><glyph d="M403 -198q0 52 36.5 88t98.5 36t101 -40t38 -106t-46 -140l-58 -99h-137l53 86l35 45v6q-57 4 -89 38t-32 86zM29 1049v180h1030v-180h-414v-1049h-203v1049h-413z" glyph-name="Tcommaaccent" horiz-adv-x="1089" unicode="Ţ"/><glyph d="M219 -198q0 52 36 88t98 36t101.5 -40t38.5 -106t-47 -140l-57 -99h-137l53 86l35 45v6q-57 4 -89 38t-32 86zM487 154q45 0 93 26l65 -137q-63 -59 -194 -59t-208 78.5t-77 224.5v262h-133v160h133v213h201v-213h247v-160h-247v-254q0 -141 120 -141z" glyph-name="tcommaaccent" horiz-adv-x="671" unicode="ţ"/><glyph d="M846 1638v-32l-195 -291h-213l-194 291v32h129l174 -188l170 188h129zM29 1049v180h1030v-180h-414v-1049h-203v1049h-413z" glyph-name="Tcaron" horiz-adv-x="1089" unicode="Ť"/><glyph d="M512 1189q0 52 36 88t98 36t101 -40t38 -106t-46 -141l-57 -98h-137l53 86l35 45v6q-57 4 -89 38t-32 86zM487 154q45 0 93 26l65 -137q-63 -59 -194 -59t-208 78.5t-77 224.5v262h-133v160h133v213h201v-213h247v-160h-247v-254q0 -141 120 -141z" glyph-name="tcaron" horiz-adv-x="671" unicode="ť"/><glyph d="M33 1049v180h1030v-180h-414v-361h195v-121h-195v-567h-203v567h-192v121h192v361h-413z" glyph-name="Tbar" horiz-adv-x="1097" unicode="Ŧ"/><glyph d="M492 154q44 0 92 26l65 -137q-63 -59 -194 -59t-208 78.5t-77 224.5v37h-127v116h127v109h-133v160h133v213h201v-213h247v-160h-247v-109h202v-116h-202v-29q0 -141 121 -141z" glyph-name="tbar" horiz-adv-x="679" unicode="ŧ"/><glyph d="M679 -29q-247 0 -392.5 152.5t-145.5 396.5v709h203v-709q0 -156 86 -255t247 -99t246 98t85 256v709h202v-709q0 -246 -142 -397.5t-389 -151.5zM819 1403q-63 0 -146 44t-114 44q-61 0 -72 -64l-4 -28l-139 12l6 59q8 78 56 126.5t120 48.5t154 -44.5t113 -44.5 q59 0 73 64l6 29l142 -13l-8 -59q-33 -174 -187 -174z" glyph-name="Utilde" horiz-adv-x="1353" unicode="Ũ"/><glyph d="M829 709v-709h-135l-35 96h-8q-61 -113 -241 -112q-145 0 -229.5 85t-84.5 228v412h201v-383q0 -80 41 -128t119 -48t125 45t47 100v414h200zM623 889q-63 0 -146.5 44t-114.5 44q-61 0 -71 -64l-4 -28l-140 12l7 59q8 78 55 126t119 48t154.5 -44t113.5 -44q59 0 74 64 l6 29l141 -13l-8 -59q-32 -174 -186 -174z" glyph-name="utilde" horiz-adv-x="935" unicode="ũ"/><glyph d="M679 -29q-247 0 -392.5 152.5t-145.5 396.5v709h203v-709q0 -156 86 -255t247 -99t246 98t85 256v709h202v-709q0 -246 -142 -397.5t-389 -151.5zM397 1378v123h557v-123h-557z" glyph-name="Umacron" horiz-adv-x="1353" unicode="Ū"/><glyph d="M829 709v-709h-135l-35 96h-8q-61 -113 -241 -112q-145 0 -229.5 85t-84.5 228v412h201v-383q0 -80 41 -128t119 -48t125 45t47 100v414h200zM190 905v123h558v-123h-558z" glyph-name="umacron" horiz-adv-x="935" unicode="ū"/><glyph d="M679 -29q-247 0 -392.5 152.5t-145.5 396.5v709h203v-709q0 -156 86 -255t247 -99t246 98t85 256v709h202v-709q0 -246 -142 -397.5t-389 -151.5zM807 1651h158q0 -117 -78 -200t-209 -83t-209 83t-78 200h158q0 -63 36 -101.5t92 -38.5t93 39.5t37 100.5z" glyph-name="Ubreve" horiz-adv-x="1353" unicode="Ŭ"/><glyph d="M829 709v-709h-135l-35 96h-8q-61 -113 -241 -112q-145 0 -229.5 85t-84.5 228v412h201v-383q0 -80 41 -128t119 -48t125 45t47 100v414h200zM600 1188h158q0 -117 -78 -200t-209 -83t-209 83t-78 200h158q0 -63 36 -101t92 -38t93 39t37 100z" glyph-name="ubreve" horiz-adv-x="935" unicode="ŭ"/><glyph d="M678 1292q-88 0 -148.5 58.5t-60.5 142.5t60.5 142.5t148.5 58.5t147.5 -58.5t59.5 -142.5t-59.5 -142.5t-147.5 -58.5zM758 1494q0 36 -21.5 58.5t-57.5 22.5t-58.5 -22.5t-22.5 -58.5t22.5 -58.5t58.5 -22.5t57.5 22.5t21.5 58.5zM679 -29q-247 0 -392.5 152.5 t-145.5 396.5v709h203v-709q0 -156 86 -255t247 -99t246 98t85 256v709h202v-709q0 -246 -142 -397.5t-389 -151.5z" glyph-name="Uring" horiz-adv-x="1353" unicode="Ů"/><glyph d="M465 866q-88 0 -148.5 58.5t-60.5 142.5t60.5 142.5t148.5 58.5t147.5 -58.5t59.5 -142.5t-59.5 -142.5t-147.5 -58.5zM545 1068q0 36 -21.5 58.5t-57.5 22.5t-58.5 -22.5t-22.5 -58.5t22.5 -58.5t58.5 -22.5t57.5 22.5t21.5 58.5zM829 709v-709h-135l-35 96h-8 q-61 -113 -241 -112q-145 0 -229.5 85t-84.5 228v412h201v-383q0 -80 41 -128t119 -48t125 45t47 100v414h200z" glyph-name="uring" horiz-adv-x="935" unicode="ů"/><glyph d="M679 -29q-247 0 -392.5 152.5t-145.5 396.5v709h203v-709q0 -156 86 -255t247 -99t246 98t85 256v709h202v-709q0 -246 -142 -397.5t-389 -151.5zM442 1307v32l78 291h209v-33l-160 -290h-127zM784 1307v32l78 291h209v-33l-160 -290h-127z" glyph-name="Uhungarumlaut" horiz-adv-x="1353" unicode="Ű"/><glyph d="M829 709v-709h-135l-35 96h-8q-61 -113 -241 -112q-145 0 -229.5 85t-84.5 228v412h201v-383q0 -80 41 -128t119 -48t125 45t47 100v414h200zM233 858v33l78 291h209v-33l-160 -291h-127zM575 858v33l78 291h209v-33l-160 -291h-127z" glyph-name="uhungarumlaut" horiz-adv-x="935" unicode="ű"/><glyph d="M713 -195q34 0 65 31l60 -76q-48 -61 -136 -61t-132 41.5t-44 111.5t64 125q-209 27 -329 174.5t-120 368.5v709h203v-709q0 -156 86 -255t247 -99t246 98t85 256v709h202v-709q0 -236 -132 -385t-363 -162q-72 -41 -72 -100q0 -68 70 -68z" glyph-name="Uogonek" horiz-adv-x="1353" unicode="Ų"/><glyph d="M614 -127q0 76 78 131l-33 92h-8q-61 -113 -241 -112q-145 0 -229.5 85t-84.5 228v412h201v-383q0 -80 41 -128t119 -48t125 45t47 100v414h200v-709q-10 -4 -26.5 -11t-44 -36t-27.5 -64q0 -68 70 -67q44 0 65 31l60 -76q-48 -61 -136 -61t-132 40.5t-44 116.5z" glyph-name="uogonek" horiz-adv-x="935" unicode="ų"/><glyph d="M537 1315v33l194 290h213l195 -290v-33h-129l-170 188l-174 -188h-129zM526 395l273 834h86l266 -834h18l39 135l246 699h217l-469 -1229h-98l-227 707l-31 122h-10l-33 -122l-232 -707h-94l-469 1229h215l250 -699l37 -135h16z" glyph-name="Wcircumflex" horiz-adv-x="1681" unicode="Ŵ"/><glyph d="M309 858v33l195 291h213l194 -291v-33h-129l-170 189l-174 -189h-129zM604 461q0 -29 -14 -68l-135 -393h-140l-297 709h215l140 -412q14 -43 14 -57h14q0 20 13 57l125 412h145l125 -412q12 -41 12 -57h15q0 16 12 57l143 412h209l-297 -709h-139l-137 393 q-12 33 -13 68h-10z" glyph-name="wcircumflex" horiz-adv-x="1214" unicode="ŵ"/><glyph d="M268 1307v32l195 291h213l194 -291v-32h-129l-170 188l-174 -188h-129zM670 0h-203v469l-467 760h236l290 -481l33 -72h23l34 72l289 481h234l-469 -760v-469z" glyph-name="Ycircumflex" horiz-adv-x="1136" unicode="Ŷ"/><glyph d="M827 709l-508 -1102h-213l224 450l-314 652h220l170 -398q16 -35 18 -71h10q2 31 21 71l168 398h204zM135 858v33l195 291h213l194 -291v-33h-129l-170 189l-174 -189h-129z" glyph-name="ycircumflex" horiz-adv-x="843" unicode="ŷ"/><glyph d="M274 1444q0 43 32 75.5t75 32.5t75.5 -32.5t32.5 -75.5t-32.5 -75t-75.5 -32t-75 32t-32 75zM651 1444q0 43 32 75.5t75 32.5t75.5 -32.5t32.5 -75.5t-32.5 -75t-75.5 -32t-75 32t-32 75zM670 0h-203v469l-467 760h236l290 -481l33 -72h23l34 72l289 481h234l-469 -760 v-469z" glyph-name="Ydieresis" horiz-adv-x="1136" unicode="Ÿ"/><glyph d="M483 1307v32l78 291h234v-33l-185 -290h-127zM57 0v53l680 996h-655v180h981v-53l-664 -996h654v-180h-996z" glyph-name="Zacute" horiz-adv-x="1122" unicode="Ź"/><glyph d="M338 858v33l78 291h233v-33l-184 -291h-127zM727 0h-659v88l378 459h-376v162h657v-78l-379 -469h379v-162z" glyph-name="zacute" horiz-adv-x="794" unicode="ź"/><glyph d="M57 0v53l680 996h-655v180h981v-53l-664 -996h654v-180h-996zM436 1495q0 55 37 93t92.5 38t93 -38t37.5 -93t-37.5 -93t-93 -38t-92.5 38t-37 93z" glyph-name="Zdotaccent" horiz-adv-x="1122" unicode="Ż"/><glyph d="M727 0h-659v88l378 459h-376v162h657v-78l-379 -469h379v-162zM270 1036.5q0 55.5 37 93t92.5 37.5t93 -37.5t37.5 -93t-37.5 -93.5t-93 -38t-92.5 38t-37 93.5z" glyph-name="zdotaccent" horiz-adv-x="794" unicode="ż"/><glyph d="M858 1628v-33l-194 -290h-213l-195 290v33h129l174 -188l170 188h129zM57 0v53l680 996h-655v180h981v-53l-664 -996h654v-180h-996z" glyph-name="Zcaron" horiz-adv-x="1122" unicode="Ž"/><glyph d="M709 1182v-33l-195 -291h-213l-195 291v33h130l174 -189l170 189h129zM727 0h-659v88l378 459h-376v162h657v-78l-379 -469h379v-162z" glyph-name="zcaron" horiz-adv-x="794" unicode="ž"/><glyph d="M215 -135v686h-158v158h158v290q0 180 85 272.5t235 92.5q75 0 121 -18.5t49 -18.5l-54 -174q-49 25 -88 25q-147 0 -147 -179v-290h250v-158h-250v-707q0 -256 -238 -256q-92 0 -145 35l-19 10l54 150q35 -18 71 -19q76 1 76 101z" glyph-name="florin" horiz-adv-x="716" unicode="ƒ"/><glyph d="M418 1340q0 76 60.5 135t148.5 59t147.5 -58.5t59.5 -134.5t-40 -128t-104 -72l580 -1141h-232l-92 186h-637l-90 -186h-229l573 1141q-66 18 -105.5 70.5t-39.5 128.5zM854 373l-219 481h-12l-222 -481l-12 -21h477zM559 1567v32l78 291h233v-32l-184 -291h-127z M707 1334q0 36 -21.5 58.5t-57.5 22.5t-58.5 -22.5t-22.5 -58.5t22.5 -58.5t58.5 -22.5t57.5 22.5t21.5 58.5z" glyph-name="Aringacute" horiz-adv-x="1259" unicode="Ǻ"/><glyph d="M53 208q0 99 81 158.5t221 59.5t214 -53h11v33q0 158 -207 157q-51 0 -101.5 -13t-74.5 -26l-23 -14l-63 147q105 68 295 68t278 -89t88 -247v-389h-143l-21 78h-10q-63 -94 -252 -94q-137 0 -215 62.5t-78 161.5zM248 218q0 -46 39 -73.5t113 -27.5t124.5 33.5 t50.5 73.5t-48 66.5t-125 26.5t-115.5 -26.5t-38.5 -72.5zM362 1298v33l78 291h234v-33l-185 -291h-127zM428 840q-88 0 -148.5 58t-60.5 142t60.5 142.5t148.5 58.5t147.5 -58.5t59.5 -142.5t-59.5 -142t-147.5 -58zM508 1041q0 36 -21.5 58.5t-57.5 22.5t-58.5 -22.5 t-22.5 -58.5t22.5 -58t58.5 -22t57.5 22t21.5 58z" glyph-name="aringacute" horiz-adv-x="868" unicode="ǻ"/><glyph d="M1198 1307v32l78 291h233v-33l-184 -290h-127zM1802 1229v-180h-729v-357h619v-172h-619v-340h729v-180h-932v186h-526l-125 -186h-252l875 1229h960zM870 352v568h-18l-397 -568h415z" glyph-name="AEacute" horiz-adv-x="1878" unicode="Ǽ"/><glyph d="M641 858v33l78 291h233v-33l-184 -291h-127zM979 -20q-184 0 -291 110q-111 -106 -291 -106t-262 63.5t-82 161.5t78.5 156.5t222.5 58.5t217 -55h4v30q0 166 -202 166q-106 0 -180 -37l-25 -14l-59 148q123 63 309 63t276 -102q109 102 272.5 102t260 -98.5t96.5 -261.5 l-2 -52h-541q14 -86 73 -131t131 -45q121 0 196 39l22 14l66 -133q-47 -31 -126 -54t-163 -23zM399 315q-155 0 -155 -100t155 -100q76 0 128.5 30.5t52.5 72.5t-52.5 69.5t-128.5 27.5zM965 578q-154 0 -181 -154h351q-6 68 -51 111t-119 43z" glyph-name="aeacute" horiz-adv-x="1378" unicode="ǽ"/><glyph d="M721 -29q-252 0 -422 142l-125 -121l-90 90l127 123q-133 172 -133 407q0 274 176 458.5t467 184.5q244 0 420 -139l108 107l90 -90l-110 -109q137 -172 137 -428t-177 -440.5t-468 -184.5zM738 168q178 0 298.5 126t120.5 318q0 154 -78 267l-633 -621q114 -90 292 -90z M287 612q0 -152 73 -260l633 619q-113 90 -289 90t-296.5 -128t-120.5 -321zM653 1307v32l78 291h234v-33l-185 -290h-127z" glyph-name="Oslashacute" horiz-adv-x="1439" unicode="Ǿ"/><glyph d="M854 340q0 -154 -114 -255t-264 -101t-257 67l-78 -78l-69 70l73 74q-82 93 -82 247t114 257.5t282 103.5q129 0 227 -63l86 86l70 -70l-80 -80q92 -104 92 -258zM379 858v33l78 291h233v-33l-184 -291h-127zM468 143q77 0 133 57.5t56 137.5t-28 131l-289 -291 q51 -35 128 -35zM260 352q0 -57 23 -102l284 285q-51 31 -123 31t-128 -59t-56 -155z" glyph-name="oslashacute" horiz-adv-x="911" unicode="ǿ"/><glyph d="M442 -198q0 52 36 88t98 36t101.5 -40t38.5 -106t-46 -140l-58 -99h-137l53 86l35 45v6q-57 4 -89 38t-32 86zM570 160q114 0 177.5 46t63.5 121t-61.5 117t-261.5 100t-301 140t-101 234t123 244.5t346 92.5q141 0 254 -30.5t156 -61.5l43 -30l-111 -166 q-14 10 -41 27.5t-116.5 45t-195.5 27.5t-171.5 -39.5t-65.5 -107.5t62.5 -107t264.5 -94t302 -144t100 -243t-120.5 -257.5t-358.5 -103.5q-145 0 -265 39t-169 76l-47 39l110 154q16 -12 47 -33t127 -53.5t210 -32.5z" glyph-name="Scommaaccent" horiz-adv-x="1107" unicode="Ș"/><glyph d="M260 -198q0 52 36 88t98 36t101.5 -40t38.5 -106t-47 -140l-57 -99h-137l53 86l35 45v6q-57 4 -89 38t-32 86zM370 131q134 0 134 74q0 54 -108.5 78t-172 44.5t-108.5 65.5t-45 129t77.5 143.5t235.5 59.5q92 0 171 -14.5t112 -30.5l32 -14l-63 -148q-82 57 -219 57 t-137 -67q0 -50 172.5 -86t219 -97t46.5 -120q0 -98 -83 -159.5t-249 -61.5q-98 0 -179 20.5t-112 40.5l-33 18l62 138q113 -70 247 -70z" glyph-name="scommaaccent" horiz-adv-x="778" unicode="ș"/><glyph d="M403 -198q0 52 36.5 88t98.5 36t101 -40t38 -106t-46 -140l-58 -99h-137l53 86l35 45v6q-57 4 -89 38t-32 86zM29 1049v180h1030v-180h-414v-1049h-203v1049h-413z" glyph-name="uni021A" horiz-adv-x="1089" unicode="Ț"/><glyph d="M219 -198q0 52 36 88t98 36t101.5 -40t38.5 -106t-47 -140l-57 -99h-137l53 86l35 45v6q-57 4 -89 38t-32 86zM487 154q45 0 93 26l65 -137q-63 -59 -194 -59t-208 78.5t-77 224.5v262h-133v160h133v213h201v-213h247v-160h-247v-254q0 -141 120 -141z" glyph-name="uni021B" horiz-adv-x="671" unicode="ț"/><glyph d="M106 709h203v-865q0 -256 -237 -256q-93 0 -148 35l-18 10l53 150q35 -18 74 -19q74 0 73 101v844z" glyph-name="uni0237" horiz-adv-x="417" unicode="ȷ"/><glyph d="M400 725q182 0 288.5 -105.5t106.5 -270.5t-107.5 -267t-273.5 -102t-262.5 97t-96.5 263l2 57h539q-14 84 -75 128t-131 44q-124 0 -193 -41l-23 -14l-63 135q107 76 289 76zM409 117q75 0 125 43t62 127h-356q2 -74 48 -122t121 -48z" glyph-name="uni0259" horiz-adv-x="858" unicode="ə"/><glyph d="M47 858v33l195 291h213l194 -291v-33h-129l-170 189l-174 -189h-129z" glyph-name="circumflex" horiz-adv-x="673" unicode="ˆ"/><glyph d="M649 1182v-33l-194 -291h-213l-195 291v33h129l174 -189l170 189h129z" glyph-name="caron" horiz-adv-x="698" unicode="ˇ"/><glyph d="M481 1188h158q0 -117 -78 -200t-209 -83t-208.5 83t-77.5 200h157q0 -63 36 -101t92 -38t93 39t37 100z" glyph-name="breve" horiz-adv-x="722" unicode="˘"/><glyph d="M133 1036.5q0 55.5 37 93t92 37.5t93 -37.5t38 -93t-38 -93.5t-93 -38t-92 38t-37 93.5z" glyph-name="dotaccent" horiz-adv-x="528" unicode="˙"/><glyph d="M278.5 866q-88.5 0 -148.5 58.5t-60 142.5t60 142.5t148.5 58.5t147.5 -58.5t59 -142.5t-59 -142.5t-147.5 -58.5zM358 1068q0 36 -21 58.5t-57 22.5t-58.5 -22.5t-22.5 -58.5t22.5 -58.5t58.5 -22.5t57 22.5t21 58.5z" glyph-name="ring" horiz-adv-x="559" unicode="˚"/><glyph d="M63 -136q0 67 48.5 116t97.5 65l49 16l21 -61q-10 -4 -26.5 -11t-44.5 -36t-28 -64q0 -68 70 -67q37 0 65 31l60 -76q-49 -61 -137 -61t-131.5 40.5t-43.5 107.5z" glyph-name="ogonek" horiz-adv-x="411" unicode="˛"/><glyph d="M578 889q-63 0 -146.5 44t-114.5 44q-61 0 -71 -64l-4 -28l-140 12l7 59q8 78 55.5 126t119.5 48t154 -44t113 -44q59 0 74 64l6 29l141 -13l-8 -59q-32 -174 -186 -174z" glyph-name="tilde" horiz-adv-x="880" unicode="˜"/><glyph d="M92 858v33l78 291h209v-33l-160 -291h-127zM434 858v33l78 291h209v-33l-160 -291h-127z" glyph-name="hungarumlaut" horiz-adv-x="849" unicode="˝"/><glyph d="M47 709h950v-162h-133v-547h-200v547h-285v-547h-201v547h-131v162z" glyph-name="pi" horiz-adv-x="1042" unicode="π"/><glyph d="M588 1630h235l78 -291v-32h-129l-184 290v33zM526 395l273 834h86l266 -834h18l39 135l246 699h217l-469 -1229h-98l-227 707l-31 122h-10l-33 -122l-232 -707h-94l-469 1229h215l250 -699l37 -135h16z" glyph-name="Wgrave" horiz-adv-x="1681" unicode="Ẁ"/><glyph d="M604 461q0 -29 -14 -68l-135 -393h-140l-297 709h215l140 -412q14 -43 14 -57h14q0 20 13 57l125 412h145l125 -412q12 -41 12 -57h15q0 16 12 57l143 412h209l-297 -709h-139l-137 393q-12 33 -13 68h-10zM358 1182h236l78 -291v-33h-129l-185 291v33z" glyph-name="wgrave" horiz-adv-x="1214" unicode="ẁ"/><glyph d="M782 1307v32l78 291h234v-33l-185 -290h-127zM526 395l273 834h86l266 -834h18l39 135l246 699h217l-469 -1229h-98l-227 707l-31 122h-10l-33 -122l-232 -707h-94l-469 1229h215l250 -699l37 -135h16z" glyph-name="Wacute" horiz-adv-x="1681" unicode="Ẃ"/><glyph d="M553 858v33l78 291h233v-33l-184 -291h-127zM604 461q0 -29 -14 -68l-135 -393h-140l-297 709h215l140 -412q14 -43 14 -57h14q0 20 13 57l125 412h145l125 -412q12 -41 12 -57h15q0 16 12 57l143 412h209l-297 -709h-139l-137 393q-12 33 -13 68h-10z" glyph-name="wacute" horiz-adv-x="1214" unicode="ẃ"/><glyph d="M543 1452q0 43 31.5 76t74.5 33t76 -33t33 -76t-33 -74.5t-76 -31.5t-74.5 31.5t-31.5 74.5zM920 1452q0 43 31.5 76t74.5 33t76 -33t33 -76t-33 -74.5t-76 -31.5t-74.5 31.5t-31.5 74.5zM526 395l273 834h86l266 -834h18l39 135l246 699h217l-469 -1229h-98l-227 707 l-31 122h-10l-33 -122l-232 -707h-94l-469 1229h215l250 -699l37 -135h16z" glyph-name="Wdieresis" horiz-adv-x="1681" unicode="Ẅ"/><glyph d="M315 989q0 43 32 76t75 33t75.5 -33t32.5 -76t-32.5 -74.5t-75.5 -31.5t-75 31.5t-32 74.5zM692 989q0 43 32 76t75 33t75.5 -33t32.5 -76t-32.5 -74.5t-75.5 -31.5t-75 31.5t-32 74.5zM604 461q0 -29 -14 -68l-135 -393h-140l-297 709h215l140 -412q14 -43 14 -57h14 q0 20 13 57l125 412h145l125 -412q12 -41 12 -57h15q0 16 12 57l143 412h209l-297 -709h-139l-137 393q-12 33 -13 68h-10z" glyph-name="wdieresis" horiz-adv-x="1214" unicode="ẅ"/><glyph d="M670 0h-203v469l-467 760h236l290 -481l33 -72h23l34 72l289 481h234l-469 -760v-469zM315 1632h236l78 -291v-32h-129l-185 290v33z" glyph-name="Ygrave" horiz-adv-x="1136" unicode="Ỳ"/><glyph d="M827 709l-508 -1102h-213l224 450l-314 652h220l170 -398q16 -35 18 -71h10q2 31 21 71l168 398h204zM180 1182h236l78 -291v-33h-129l-185 291v33z" glyph-name="ygrave" horiz-adv-x="843" unicode="ỳ"/><glyph glyph-name="uni2002" horiz-adv-x="1024" unicode=" "/><glyph glyph-name="uni2003" horiz-adv-x="2048" unicode=" "/><glyph glyph-name="uni2004" horiz-adv-x="681" unicode=" "/><glyph glyph-name="uni2005" horiz-adv-x="512" unicode=" "/><glyph glyph-name="uni2007" horiz-adv-x="1228" unicode=" "/><glyph glyph-name="uni2009" horiz-adv-x="272" unicode=" "/><glyph glyph-name="uni200A" horiz-adv-x="153" unicode=" "/><glyph d="M98 506v166h744v-166h-744z" glyph-name="endash" horiz-adv-x="940" unicode="–"/><glyph d="M98 506v166h1270v-166h-1270z" glyph-name="emdash" horiz-adv-x="1466" unicode="—"/><glyph d="M315 1031q0 -48 -34.5 -84t-88 -36t-89 36.5t-35.5 102.5t47 150l78 137h133l-72 -127l-37 -45v-10q43 -10 70.5 -43t27.5 -81z" glyph-name="quoteleft" horiz-adv-x="399" unicode="‘"/><glyph d="M90 1234q0 48 35 84t88 36t89 -36t36 -102t-47 -151l-78 -137h-133l72 127l36 45v10q-43 10 -70.5 43t-27.5 81z" glyph-name="quoteright" horiz-adv-x="397" unicode="’"/><glyph d="M51 110q0 49 36 84t88 35t88 -35.5t36 -102.5t-47 -150l-78 -138h-133l72 127l37 45v11q-43 10 -71 42.5t-28 81.5z" glyph-name="quotesinglbase" horiz-adv-x="352" unicode="‚"/><glyph d="M315 1032q0 -49 -34.5 -84t-88 -35t-89 36.5t-35.5 102.5t47 150l78 137h133l-72 -127l-37 -45v-10q43 -10 70.5 -43t27.5 -82zM702 1032q0 -49 -35.5 -84t-87.5 -35t-88 36.5t-36 102.5t47 150l78 137h133l-72 -127l-37 -45v-10q43 -10 70.5 -43t27.5 -82z" glyph-name="quotedblleft" horiz-adv-x="786" unicode="“"/><glyph d="M84 1234q0 48 36 84t88 36t88 -36t36 -102t-47 -151l-78 -137h-133l71 127l37 45v10q-43 10 -70.5 43t-27.5 81zM459 1234q0 48 34.5 84t88 36t89.5 -36t36 -102t-48 -151l-77 -137h-133l71 127l37 45v10q-43 10 -70.5 43t-27.5 81z" glyph-name="quotedblright" horiz-adv-x="772" unicode="”"/><glyph d="M51 110q0 49 36 84t88 35t88 -35.5t36 -102.5t-47 -150l-78 -138h-133l72 127l37 45v11q-43 10 -71 42.5t-28 81.5zM516 110q0 49 35 84t88 35t89 -35.5t36 -102.5t-47 -150l-78 -138h-133l72 127l36 45v11q-43 10 -70.5 42.5t-27.5 81.5z" glyph-name="quotedblbase" horiz-adv-x="817" unicode="„"/><glyph d="M63 573v166h312v490h168v-490h309v-166h-309l-17 -966h-135l-16 966h-312z" glyph-name="dagger" horiz-adv-x="915" unicode="†"/><glyph d="M100 721v164h312v344h168v-344h309v-164h-309v-432h309v-166h-309l-17 -516h-133l-18 516h-312v166h312v432h-312z" glyph-name="daggerdbl" horiz-adv-x="989" unicode="‡"/><glyph d="M143 354.5q0 71.5 50.5 122.5t120.5 51t122.5 -51t52.5 -122.5t-51 -122t-122.5 -50.5t-122 50.5t-50.5 122z" glyph-name="bullet" horiz-adv-x="630" unicode="•"/><glyph d="M53 112.5q0 55.5 37 93.5t91 38t93 -38t39 -93.5t-38.5 -93t-92.5 -37.5t-91.5 37.5t-37.5 93zM473 112.5q0 55.5 37 93.5t92 38t93 -38t38 -93.5t-38 -93t-93 -37.5t-92 37.5t-37 93zM893 112.5q0 55.5 38 93.5t92 38t92 -38t38 -93.5t-38 -93t-92 -37.5t-92 37.5 t-38 93z" glyph-name="ellipsis" horiz-adv-x="1204" unicode="…"/><glyph d="M350 1255q129 0 205 -89t76 -216t-76 -217t-205 -90t-204.5 90t-75.5 217t75.5 216t204.5 89zM475 996q0 128 -125 128t-125 -174t125 -174q61 0 93 46t32 174zM1110 1245l115 -92l-961 -1155l-112 92zM1028 596q129 0 205 -89t76 -217t-76 -217t-205 -89t-206 90 t-77 217t77 216t206 89zM1028.5 465q-61.5 0 -94.5 -47t-33 -127t34 -127t93 -47t92 47t33 127t-31.5 127t-93 47zM1683.5 465q-61.5 0 -94.5 -47t-33 -127t34 -127t93.5 -47t92 47t32.5 127t-31.5 127t-93 47zM1683 596q129 0 205 -89t76 -217t-76 -217t-205 -89t-204.5 89 t-75.5 217t75.5 217t204.5 89z" glyph-name="perthousand" horiz-adv-x="2027" unicode="‰"/><glyph d="M453 688v-16l-211 -312v-14l211 -315v-17h-170l-217 318v39l217 317h170z" glyph-name="guilsinglleft" horiz-adv-x="518" unicode="‹"/><glyph d="M66 14v17l210 315v14l-210 312v16h170l217 -317v-39l-217 -318h-170z" glyph-name="guilsinglright" horiz-adv-x="518" unicode="›"/><glyph d="M-246 4l-100 80l960 1155l103 -80z" glyph-name="fraction" horiz-adv-x="368" unicode="⁄"/><glyph d="M381 1386q152 0 239 -103t87 -249t-88.5 -248t-238.5 -102t-238.5 102.5t-88.5 247.5t88 248.5t240 103.5zM380 1257q-81 0 -126 -63.5t-45 -158.5t45 -157.5t125 -62.5t125 62.5t45 157.5t-44 158.5t-125 63.5z" glyph-name="uni2070" horiz-adv-x="759" unicode="⁰"/><glyph d="M35 864v86l383 418h102v-391h109v-113h-109v-164h-131v164h-354zM389 977v149l2 56h-4l-127 -150l-55 -57v-2l78 4h106z" glyph-name="uni2074" horiz-adv-x="667" unicode="⁴"/><glyph d="M549 1368v-121h-332l-4 -147q61 8 117 8q129 0 197.5 -52t68.5 -148.5t-72.5 -160t-210.5 -63.5q-70 0 -147 27t-117 67l70 99q68 -68 184 -68q150 0 150 99t-166 100q-84 0 -144 -21l-20 -6l-35 20l14 367h447z" glyph-name="uni2075" horiz-adv-x="641" unicode="⁵"/><glyph d="M623 934q0 -113 -79 -181.5t-207 -68.5t-206 67.5t-78 183.5t92 243l138 192h155l-98 -139l-47 -53v-7l45 3q127 0 206 -63.5t79 -176.5zM337.5 1057q-65.5 0 -104 -32t-38.5 -91.5t38.5 -95t104 -35.5t104.5 35.5t39 93.5t-39 91.5t-104.5 33.5z" glyph-name="uni2076" horiz-adv-x="659" unicode="⁶"/><glyph d="M553 1368v-35l-258 -633h-154l230 547h-332v121h514z" glyph-name="uni2077" horiz-adv-x="573" unicode="⁷"/><glyph d="M53 895q0 113 111 158q-86 49 -86 138t71.5 142t188.5 53t188.5 -53t71.5 -141t-86 -139q111 -45 111 -158q0 -86 -76 -148.5t-208 -62.5t-209 62.5t-77 148.5zM337.5 1001q-65.5 0 -103 -27.5t-37.5 -70.5t37.5 -73.5t103 -30.5t103.5 30.5t38 73.5t-38 70.5 t-103.5 27.5zM339 1087q58 0 91 26t33 66t-34 65.5t-90 25.5t-90 -25.5t-34 -65.5t33 -66t91 -26z" glyph-name="uni2078" horiz-adv-x="675" unicode="⁸"/><glyph d="M332 897q-129 0 -208 63.5t-79 176.5t80 181t208 68t205.5 -68t77.5 -182t-94 -243l-137 -193h-156l101 140l45 53v6q-14 -2 -43 -2zM331.5 1014q65.5 0 103.5 31.5t38 91t-38 95.5t-103.5 36t-104.5 -36t-39 -94t39 -91t104.5 -33z" glyph-name="uni2079" horiz-adv-x="667" unicode="⁹"/><glyph d="M381 430q152 0 239 -103.5t87 -248.5t-88.5 -247.5t-238.5 -102.5t-238.5 102t-88.5 248t88 249t240 103zM380 301q-81 0 -126 -63.5t-45 -158.5t45 -157.5t125 -62.5t125 62.5t45 157.5t-44 158.5t-125 63.5z" glyph-name="uni2080" horiz-adv-x="757" unicode="₀"/><glyph d="M33 291v121h280v-668h-137v547h-143z" glyph-name="uni2081" horiz-adv-x="413" unicode="₁"/><glyph d="M49 -256v39l287 291q66 70 66 119q-1 104 -123 104q-39 0 -91 -22t-73 -46l-72 107q34 34 108 64t142 30q131 0 193.5 -60.5t62.5 -155.5t-90 -189l-160 -162h285v-119h-535z" glyph-name="uni2082" horiz-adv-x="632" unicode="₂"/><glyph d="M70 291v121h487v-35l-139 -227q170 -29 170 -197q0 -96 -73 -160.5t-210 -64.5q-70 0 -147 27t-117 67l72 102q82 -68 188 -67q143 0 143 98t-127 98h-84v37l125 201h-288z" glyph-name="uni2083" horiz-adv-x="636" unicode="₃"/><glyph d="M35 -92v86l385 418h102v-392h107v-112h-107v-164h-131v164h-356zM391 20v150l2 55h-4l-131 -153q-10 -12 -22.5 -24.5t-20.5 -22t-10 -11.5l80 6h106z" glyph-name="uni2084" horiz-adv-x="667" unicode="₄"/><glyph d="M549 412v-121h-332l-4 -148q61 8 117 9q129 0 197.5 -52.5t68.5 -148.5t-72.5 -159.5t-210.5 -63.5q-70 0 -147 27t-117 67l70 98q68 -68 184 -67q150 0 150 99t-166 99q-67 0 -144 -20l-20 -6l-35 20l14 367h447z" glyph-name="uni2085" horiz-adv-x="641" unicode="₅"/><glyph d="M623 -22q0 -112 -79 -181t-207 -69t-206 67.5t-78 183.5t92 242l138 193h155l-98 -140l-47 -53v-6l45 2q127 0 206 -63.5t79 -175.5zM337.5 100q-65.5 0 -104 -31.5t-38.5 -91t38.5 -95.5t104 -36t104.5 36t39 94t-39 91t-104.5 33z" glyph-name="uni2086" horiz-adv-x="659" unicode="₆"/><glyph d="M553 412v-35l-258 -633h-154l230 547h-332v121h514z" glyph-name="uni2087" horiz-adv-x="573" unicode="₇"/><glyph d="M53 -61q0 113 111 157q-86 48 -86 138t71.5 143t188.5 53t188.5 -53t71.5 -141t-86 -140q111 -45 111 -157q0 -86 -76 -148.5t-208 -62.5t-209 62.5t-77 148.5zM337.5 45q-65.5 0 -103 -27.5t-37.5 -70.5t37.5 -74t103 -31t103.5 31t38 74t-38 70.5t-103.5 27.5zM339 131 q58 0 91 25.5t33 65.5t-34 65.5t-90 25.5t-90 -25.5t-34 -65.5t33 -65.5t91 -25.5z" glyph-name="uni2088" horiz-adv-x="675" unicode="₈"/><glyph d="M41 180q0 112 79 181t207 69t205.5 -67.5t77.5 -181.5t-92 -244l-139 -193h-156l101 139l47 54v6l-45 -2q-127 0 -206 63.5t-79 175.5zM325.5 57q65.5 0 104.5 32t39 91.5t-39 95t-104.5 35.5t-104.5 -35.5t-39 -93.5t39 -91.5t104.5 -33.5z" glyph-name="uni2089" horiz-adv-x="661" unicode="₉"/><glyph d="M76 612q0 240 139 414t373 217l33 182h120l-30 -170h12q55 0 104 -6l31 176h121l-35 -202q63 -20 116.5 -50t74.5 -51l20 -20l-117 -158q-51 45 -129 80l-149 -858q78 6 147.5 34.5t100.5 55.5l30 27l117 -156l-13 -13q-14 -14 -110 -78.5t-307 -64.5l-31 -180h-123 l33 191q-63 10 -110 26l-37 -217h-121l45 266q-143 82 -224 229.5t-81 325.5zM285 612q0 -203 135 -331l131 747q-123 -49 -194.5 -161t-71.5 -255zM728 1063q-34 0 -50 -2l-150 -854q61 -25 109 -33l156 883q-31 6 -65 6z" glyph-name="colonmonetary" horiz-adv-x="1230" unicode="₡"/><glyph d="M1323 1229v-242h111v-117h-111v-501h111v-117h-111v-252h-53l-260 252h-590v-252h-203v252h-125v117h125v501h-125v117h125v242h53l252 -242h598v242h203zM1120 870h-475l475 -452v452zM420 369h469l-469 454v-454z" glyph-name="uni20A6" horiz-adv-x="1542" unicode="₦"/><glyph d="M1648 131q134 0 134 74q0 54 -108.5 78t-172 44.5t-108.5 65.5t-45 129t77.5 143.5t235.5 59.5q92 0 171 -14.5t112 -30.5l32 -14l-63 -148q-81 57 -219 57t-138 -67q0 -50 173 -86t219.5 -97t46.5 -120q0 -98 -83 -159.5t-249 -61.5q-98 0 -179 20.5t-112 40.5l-33 18 l62 138q113 -70 247 -70zM182 0v1229h533q233 0 365 -108.5t132 -307.5q0 -281 -256 -381v-12l306 -391v-29h-226l-301 389h-350v-389h-203zM1004 805q0 119 -79 181.5t-216 62.5h-324v-484h336q131 0 207 60.5t76 179.5z" glyph-name="uni20A8" horiz-adv-x="2070" unicode="₨"/><glyph d="M1825 391v-117h-393l-105 -274h-98l-88 274h-355l-90 -274h-94l-104 274h-396v117h351l-179 467h-172v117h127l-96 254h215l90 -254h402l84 254h86l80 -254h399l90 254h217l-98 -254h127v-117h-170l-178 -467h348zM1294 395l39 135l115 328h-320l148 -463h18zM651 395 l152 463h-322l117 -328l37 -135h16zM928 707l-105 -316h279l-101 316l-30 122h-10z" glyph-name="uni20A9" horiz-adv-x="1929" unicode="₩"/><glyph d="M915 709v-709h-270q-115 0 -172 55.5t-78 161.5l-28 199h108l27 -137q14 -55 38.5 -82t77.5 -27h166v539h131zM158 0v709h319q223 0 223 -228v-188h-102l-12 137q-4 109 -111 109h-186v-539h-131z" glyph-name="afii57636" horiz-adv-x="1073" unicode="₪"/><glyph d="M852 541v-146h-401q84 -219 323 -219q70 0 130.5 26.5t86.5 51.5l25 27l119 -154q-29 -44 -128.5 -95.5t-236.5 -51.5q-215 0 -350 113.5t-187 301.5h-153v146h127q-4 31 -4 73l4 68h-127v145h151q49 190 185.5 306t353.5 116q111 0 202 -36.5t126 -73.5l37 -37 l-119 -154q-10 12 -28.5 29.5t-81 46.5t-132.5 29q-244 0 -325 -226h403v-145h-436q-4 -29 -4 -68l4 -73h436z" glyph-name="Euro" horiz-adv-x="1214" unicode="€"/><glyph d="M244 1053q0 135 88 225t231.5 90t231.5 -91t88 -220t-46 -213t-153 -168l-254 -197v-162q0 -80 41 -122.5t99 -42.5q96 0 147 36l16 15l60 -135q-30 -30 -99 -57t-133 -27q-154 0 -235.5 78.5t-81.5 222.5v77l-115 -36l-53 86l168 129v512zM430 1053v-367l121 94 q143 109 143 260q0 72 -36 114t-96 42t-96 -41t-36 -102z" glyph-name="afii61289" horiz-adv-x="907" unicode="ℓ"/><glyph d="M1069 778q0 -203 -134 -342t-356 -139t-354.5 139t-132.5 342t132 341t354 138t356.5 -138t134.5 -341zM946 778q0 160 -103.5 262.5t-265 102.5t-263 -99.5t-101.5 -261.5t102.5 -265t263.5 -103t264 102t103 262zM414 979h196q82 0 133.5 -42t51.5 -116t-53.5 -114.5 t-137.5 -40.5h-94v-101h-96v414zM608 893h-98v-143h94q92 0 92 71.5t-88 71.5z" glyph-name="uni2117" horiz-adv-x="1159" unicode="℗"/><glyph d="M874 575h-133v654h35l295 -277q274 258 295 277h35v-654h-133v398l-185 -176h-26l-183 176v-398zM375 676q113 0 112 76q0 33 -33.5 54t-131.5 51t-150.5 74t-52.5 127t66.5 134t164.5 51t157.5 -17.5t82.5 -33.5l20 -16l-67 -103q-67 55 -179 55t-112 -67q0 -53 132 -89 t188.5 -82t56.5 -131t-64.5 -140.5t-191.5 -55.5q-76 0 -141.5 20.5t-92.5 41.5l-26 20l69 92q80 -61 193 -61z" glyph-name="uni2120" horiz-adv-x="1536" unicode="℠"/><glyph d="M848 575h-133v654h35l292 -277q57 51 297 277h35v-654h-133v398l-184 -176h-27l-182 176v-398zM596 1229v-117h-197v-537h-133v537h-196v117h526z" glyph-name="trademark" horiz-adv-x="1511" unicode="™"/><glyph d="M106 0v176h259q-121 76 -187.5 201t-66.5 264q0 258 174 436t473 178t474 -178t175 -436q0 -139 -66.5 -264t-187.5 -201h256v-176h-578v182q160 14 266.5 142.5t106.5 306.5t-123 304t-323 126t-322.5 -126t-122.5 -304t106.5 -306t264.5 -143v-182h-578z" glyph-name="uni2126" horiz-adv-x="1515" unicode="Ω"/><glyph d="M88 611q0 275 180 459.5t472 184.5t472.5 -184t180.5 -459l-2 -69h-1035v-168q119 -207 402 -207q82 0 155.5 20.5t106.5 40.5l33 23l102 -170q-164 -109 -403 -109q-309 0 -486.5 181.5t-177.5 456.5zM739 1061q-127 0 -226 -58.5t-157 -156.5v-141h766v141 q-57 100 -156.5 157.5t-226.5 57.5z" glyph-name="estimated" horiz-adv-x="1458" unicode="℮"/><glyph d="M201 2l-101 82l961 1155l100 -82zM899 547v119h487v-33l-139 -227q170 -27 170 -197q0 -96 -73.5 -161.5t-208.5 -65.5q-70 0 -149.5 29t-115.5 65l72 104q80 -70 188 -69q72 0 108 28.5t36 73.5q0 94 -127 94h-86v37l125 203h-287zM74 1108v121h282v-668h-137v547h-145z " glyph-name="onethird" horiz-adv-x="1488" unicode="⅓"/><glyph d="M440 2l-100 80l960 1155l101 -80zM1133 547v121h489v-35l-141 -227q170 -27 170 -197q0 -96 -73 -160.5t-210 -64.5q-70 0 -147 27t-117 67l74 102q80 -68 188 -67q72 0 107.5 27.5t35.5 72.5q0 90 -116 96h-97v37l125 201h-288zM90 569v37l285 291q65 70 65 120 q-1 105 -123 105q-53 0 -82.5 -16t-41 -23.5t-22 -14t-17.5 -13.5l-72 106q34 34 108 64t142 30q131 0 193.5 -59.5t62.5 -155.5t-90 -190l-158 -162h285v-119h-535z" glyph-name="twothirds" horiz-adv-x="1724" unicode="⅔"/><glyph d="M852 195q0 113 111 157q-86 48 -86 138t71.5 143t188 53t189.5 -53t73 -141t-86 -140q109 -45 108 -157q0 -86 -75.5 -148.5t-207.5 -62.5t-209 62.5t-77 148.5zM203 2l-101 82l961 1155l102 -82zM78 1108v121h280v-668h-137v547h-143zM1136.5 301q-65.5 0 -102.5 -27.5 t-37 -70.5t38 -74t101.5 -31t103.5 31t40 74t-39 70.5t-104.5 27.5zM1138 387q58 0 90 25.5t32 65.5t-33 65.5t-89 25.5t-89 -25.5t-33 -65.5t32 -65.5t90 -25.5z" glyph-name="oneeighth" horiz-adv-x="1486" unicode="⅛"/><glyph d="M1030 195q0 113 109 157q-86 52 -86 140t72.5 141t189.5 53t188.5 -53t71.5 -141t-86 -140q111 -47 110 -157q0 -86 -76.5 -148.5t-207.5 -62.5t-208 62.5t-77 148.5zM406 2l-101 82l961 1155l102 -82zM102 1108v121h488v-35l-139 -227q170 -29 170 -197 q0 -96 -73 -160.5t-210 -64.5q-70 0 -147 27t-117 67l71 102q82 -68 189 -67q143 0 143 100q0 43 -29.5 69.5t-85.5 26.5h-96v37l125 201h-289zM1314.5 301q-65.5 0 -103 -27.5t-37.5 -70.5t38 -74t102 -31t103 31t39 74t-38 70.5t-103.5 27.5zM1316 387q58 0 90 25.5 t32 65.5t-33 65.5t-90.5 25.5t-90 -25.5t-32.5 -65.5t33 -65.5t91 -25.5z" glyph-name="threeeighths" horiz-adv-x="1667" unicode="⅜"/><glyph d="M1016 195q0 113 110 157q-88 52 -88 140t73 141t189.5 53t188.5 -53t72 -141t-86 -140q111 -45 110 -157q0 -86 -75.5 -148.5t-207.5 -62.5t-209 62.5t-77 148.5zM305 864q-105 0 -160 -22l-36 20l14 367h446v-121h-331l-5 -147q66 8 119 8q129 0 196.5 -52.5 t67.5 -148.5t-72.5 -159.5t-209.5 -63.5q-70 0 -147 27t-117 67l71 98q66 -63 185 -63q150 0 149 94q0 96 -170 96zM401 2l-98 82l961 1155l100 -82zM1300.5 301q-65.5 0 -103.5 -27.5t-38 -70.5t38 -74t102 -31t103.5 31t39.5 74t-38 70.5t-103.5 27.5zM1301 387 q58 0 90 25.5t32 65.5t-32.5 65.5t-88.5 25.5t-90 -25.5t-34 -65.5t32.5 -65.5t90.5 -25.5z" glyph-name="fiveeighths" horiz-adv-x="1654" unicode="⅝"/><glyph d="M928 195q0 113 110 157q-88 52 -88 140t73 141t189.5 53t188.5 -53t72 -141t-87 -140q111 -45 111 -157q0 -86 -75.5 -148.5t-207.5 -62.5t-209 62.5t-77 148.5zM283 2l-101 82l961 1155l102 -82zM580 1229v-35l-258 -633h-154l229 547h-331v121h514zM1212.5 301 q-65.5 0 -103.5 -27.5t-38 -70.5t38 -74t103.5 -31t103.5 31t38 74t-38 70.5t-103.5 27.5zM1213 387q58 0 91 25.5t33 65.5t-33.5 65.5t-89.5 25.5t-90 -25.5t-34 -65.5t32.5 -65.5t90.5 -25.5z" glyph-name="seveneighths" horiz-adv-x="1566" unicode="⅞"/><glyph d="M258 1229h188l340 -551q61 -100 86 -168t25 -160q0 -170 -115.5 -270t-301.5 -100t-302.5 100t-116.5 266t117 270.5t301 104.5q39 0 76 -6v8q-28 31 -55 74l-242 405v27zM480 145q93 0 153.5 58.5t60.5 150.5t-60.5 146.5t-154.5 54.5t-154.5 -57.5t-60.5 -146.5 t61.5 -147.5t154.5 -58.5z" glyph-name="partialdiff" horiz-adv-x="962" unicode="∂"/><glyph d="M51 0v37l600 1192h37l602 -1192v-37h-1239zM995 176q-283 612 -319 692h-17l-319 -692h655z" glyph-name="uni2206" horiz-adv-x="1341" unicode="∆"/><glyph d="M1247 1229v-1229h-203v1053h-661v-1053h-203v1229h1067z" glyph-name="product" horiz-adv-x="1427" unicode="∏"/><glyph d="M92 1229h758v-176h-502l318 -391v-101l-312 -385h496v-176h-758v176l357 422v27l-357 428v176z" glyph-name="summation" horiz-adv-x="944" unicode="∑"/><glyph d="M106 526v166h820v-166h-820z" glyph-name="minus" horiz-adv-x="1038" unicode="−"/><glyph d="M51 734q0 54 38 92t91 38t91 -38t38 -92t-38 -91t-91 -37t-91 37t-38 91z" glyph-name="uni2219" horiz-adv-x="364" unicode="∙"/><glyph d="M446 -43h29l12 35q41 97 41 104l557 1133h230l-834 -1622h-43l-430 817h228l155 -328q2 -4 28.5 -70.5t26.5 -68.5z" glyph-name="radical" horiz-adv-x="1300" unicode="√"/><glyph d="M461 236q-154 0 -252 102t-98 246t98 248t252 104q113 0 196.5 -62.5t161.5 -173.5q80 111 162 173.5t210 62.5t231.5 -98.5t103.5 -246.5t-96.5 -251.5t-253.5 -103.5q-113 0 -198 61t-163 170q-78 -109 -159.5 -170t-194.5 -61zM1166 776q-81 0 -139 -49t-116 -139 q63 -94 121 -144.5t138 -50.5t134 56.5t54 137.5t-55.5 135t-136.5 54zM467 393q82 0 139.5 49.5t118.5 139.5q-63 94 -120.5 144t-138.5 50t-133 -57t-52 -135t52 -134.5t134 -56.5z" glyph-name="infinity" horiz-adv-x="1636" unicode="∞"/><glyph d="M233 43v1030q0 256 236 256q45 0 87 -11t60 -24l19 -10l-53 -149q-35 18 -72 18q-76 0 -76 -100v-1030q0 -256 -237 -256q-81 0 -148 32l-18 13l53 149q37 -18 74 -18q75 0 75 100z" glyph-name="integral" horiz-adv-x="667" unicode="∫"/><glyph d="M698 334q-84 0 -178 44t-129 44q-59 0 -80 -64l-8 -28l-174 12l14 78q14 78 69.5 125t138.5 47t177.5 -44t130.5 -44q59 0 80 63l11 29l172 -12l-15 -80q-12 -76 -68.5 -123t-140.5 -47zM698 731q-84 0 -178 44t-129 44q-59 0 -80 -63l-8 -29l-174 12l14 80 q37 170 219 170q72 0 166.5 -44t130.5 -44q59 0 80 64l11 28l172 -12l-15 -78q-16 -78 -70.5 -125t-138.5 -47z" glyph-name="approxequal" horiz-adv-x="1050" unicode="≈"/><glyph d="M111 715v164h411l90 233l140 -49l-72 -184h207v-164h-269l-100 -264h369v-164h-432l-86 -228l-140 50l68 178h-186v164h247l103 264h-350z" glyph-name="notequal" horiz-adv-x="995" unicode="≠"/><glyph d="M651 528l-116 -120l-406 374v39l406 385l116 -123l-303 -282zM723 297v-166h-614v166h614z" glyph-name="lessequal" horiz-adv-x="821" unicode="≤"/><glyph d="M289 408l-119 120l303 273l-303 282l117 123l405 -385v-39zM100 131v166h613v-166h-613z" glyph-name="greaterequal" horiz-adv-x="821" unicode="≥"/><glyph d="M563 1229l359 -615l-359 -614h-137l-356 614l356 615h137zM295 612l186 -340h29l184 340l-184 344h-29z" glyph-name="lozenge" horiz-adv-x="989" unicode="◊"/><glyph d="M88 -198q0 52 36 88t98 36t101 -40t38 -106t-46 -140l-57 -99h-137l53 86l35 45v6q-57 4 -89 38t-32 86z" glyph-name="uniF6C3" horiz-adv-x="438" unicode=""/><glyph d="M631 551h-238v-551h-200v551h-158v158h158v290q0 180 84.5 272.5t234.5 92.5q94 0 168 -37l-51 -174q-47 25 -88 25q-147 0 -148 -179v-290h238v-158zM1346 551h-238v-551h-201v551h-157v158h157v290q0 180 85 272.5t235 92.5q83 0 118 -15.5t44 -17.5l6 -4l-52 -174 q-47 25 -88 25q-147 0 -147 -179v-290h238v-158z" glyph-name="uniFB00" horiz-adv-x="1380" unicode="ﬀ"/><glyph d="M942 963q-51 0 -85 33.5t-34 85t34 86t85 34.5t86 -34.5t35 -86t-35 -85t-86 -33.5zM842 0v709h200v-709h-200zM633 551h-238v-551h-200v551h-158v158h158v290q0 180 85 272.5t234 92.5q80 0 117 -15.5t45 -17.5l6 -4l-51 -174q-47 25 -88 25q-147 0 -148 -179v-290h238 v-158z" glyph-name="uniFB01" horiz-adv-x="1150" unicode="ﬁ"/><glyph d="M825 0v1368h201v-1368h-201zM633 551h-238v-551h-200v551h-158v158h158v290q0 180 85 272.5t234 92.5q80 0 117 -15.5t45 -17.5l6 -4l-51 -174q-47 25 -88 25q-147 0 -148 -179v-290h238v-158z" glyph-name="uniFB02" horiz-adv-x="1138" unicode="ﬂ"/><glyph d="M1630 963q-51 0 -85 33.5t-34 85t34 86t85 34.5t86 -34.5t35 -86t-35 -85t-86 -33.5zM1530 0v709h201v-709h-201zM633 551h-238v-551h-200v551h-158v158h158v290q0 180 85 272.5t234 92.5q80 0 117 -15.5t45 -17.5l6 -4l-51 -174q-47 25 -88 25q-147 0 -148 -179v-290 h238v-158zM1346 551h-238v-551h-201v551h-157v158h157v290q0 180 85 272.5t235 92.5q83 0 118 -15.5t44 -17.5l6 -4l-52 -174q-47 25 -88 25q-147 0 -147 -179v-290h238v-158z" glyph-name="uniFB03" horiz-adv-x="1841" unicode="ﬃ"/><glyph d="M1518 0v1368h200v-1368h-200zM633 551h-238v-551h-200v551h-158v158h158v290q0 180 85 272.5t234 92.5q80 0 117 -15.5t45 -17.5l6 -4l-51 -174q-47 25 -88 25q-147 0 -148 -179v-290h238v-158zM1346 551h-238v-551h-201v551h-157v158h157v290q0 180 85 272.5t235 92.5 q83 0 118 -15.5t44 -17.5l6 -4l-52 -174q-47 25 -88 25q-147 0 -147 -179v-290h238v-158z" glyph-name="uniFB04" horiz-adv-x="1830" unicode="ﬄ"/><glyph d="M360 700h158q86 0 136.5 44t50.5 127t-62.5 138.5t-177.5 55.5q-70 0 -141.5 -33t-110.5 -65l-37 -33l-98 147q6 6 17 18.5t50 42t116 71.5t255 42t296 -99t118 -268t-152 -261q197 -63 197 -277q0 -170 -126 -273.5t-351 -103.5q-119 0 -223.5 39t-149.5 78l-45 39 l100 152q14 -12 40 -33t108 -53.5t184 -32.5t171 52t69 139t-60.5 133t-171.5 46h-160v168z" glyph-name="three.ss03" horiz-adv-x="1062"/><glyph d="M732 1245q294 0 471 -180.5t177 -450.5t-177 -451t-471 -181t-471 181t-177 449.5t177 450.5t471 182zM732 1133q-241 0 -385 -149.5t-144 -369.5t144.5 -369t384.5 -149t386 148.5t146 368.5t-145.5 370t-386.5 150zM791 920q117 0 184 -63t67 -167t-67.5 -164.5 t-190.5 -60.5h-149v-156h-139v611h295zM897 688q0 113 -131 113h-131v-226h133q129 0 129 113z" glyph-name="glyph431" horiz-adv-x="1466"/><glyph d="M732 1245q294 0 471 -180.5t177 -450.5t-177 -451t-471 -181t-471 181t-177 449.5t177 450.5t471 182zM732 1133q-241 0 -385 -149.5t-144 -369.5t144.5 -369t384.5 -149t386 148.5t146 368.5t-145.5 370t-386.5 150zM479 309v611h295q117 0 184.5 -62.5t67.5 -165.5 q0 -137 -121 -190v-10l117 -162v-21h-145l-115 168h-144v-168h-139zM881 692q0 109 -131 109h-132v-213h132q131 0 131 104z" glyph-name="glyph432" horiz-adv-x="1466"/><glyph d="M1229 350q0 -170 -124 -260t-339 -90h-160l-37 -209h-118l36 209h-309v1229h522l35 196h121l-35 -200q180 -14 274.5 -98.5t94.5 -231.5q0 -180 -164 -250v-24q94 -31 148.5 -102t54.5 -169zM1012 360q0 86 -61.5 135.5t-162.5 53.5h-86l-65 -373h137q106 0 172 49 t66 135zM381 1053v-363h225l64 363h-289zM381 549v-373h137l64 373h-201zM975 865q0 160 -184 184l-64 -359h14q111 0 172.5 46t61.5 129z" glyph-name="glyph433" horiz-adv-x="1310"/><glyph d="M213 0v750h-125v116h125v363h535q215 0 345 -94.5t148 -268.5h121v-116h-123q-20 -178 -155.5 -274.5t-348.5 -96.5h-319v-379h-203zM739 557q260 0 293 193h-616v-193h323zM416 1049v-183h614q-41 182 -291 183h-323z" glyph-name="glyph434" horiz-adv-x="1423"/><glyph d="M1542 74v-467h-201v1102h132l30 -99h10q8 12 23.5 32t82.5 51.5t153 31.5q154 0 254 -101.5t100 -267.5t-99.5 -269t-248.5 -103q-78 0 -135.5 22.5t-73.5 44.5l-19 23h-8zM1532 353q0 -93 55 -148t141.5 -55t140.5 57t54 147t-54 147.5t-140.5 57.5t-141.5 -56.5 t-55 -149.5zM160 0v1229h532q233 0 365.5 -108.5t132.5 -307.5q0 -281 -256 -381v-12l305 -391v-29h-225l-301 389h-351v-389h-202zM981 805q0 119 -79 181.5t-216 62.5h-324v-484h336q131 0 207 60.5t76 179.5z" glyph-name="glyph435" horiz-adv-x="2187"/><glyph d="M313 2l-100 82l961 1155l100 -82zM1339 449q0 49 -30.5 76.5t-80.5 27.5t-102 -22t-73 -46l-72 107l29 22q29 25 91 48.5t130 23.5q131 0 194.5 -60.5t63.5 -154.5t-92 -190l-158 -162h285v-119h-535v39l287 291q63 70 63 119zM94 1108v121h281v-547h129v-121h-410v121 h144v426h-144z" glyph-name="onehalf.aalt" horiz-adv-x="1589"/><glyph d="M313 2l-100 82l961 1155l100 -82zM1020 547v119h487v-33l-137 -227q168 -27 168 -197q0 -96 -72.5 -161.5t-217.5 -65.5t-257 94l74 104q80 -70 186 -69q72 0 108 28.5t36 73.5q0 88 -115 94h-96v37l125 203h-289zM94 1108v121h281v-547h129v-121h-410v121h144v426h-144z " glyph-name="onethird.aalt" horiz-adv-x="1611"/><glyph d="M770 164v86l385 418h102v-392h107v-112h-107v-164h-131v164h-356zM317 2l-100 82l961 1155l100 -82zM92 1108v121h283v-547h129v-121h-412v121h146v426h-146zM1126 276v150l4 55h-6l-131 -153q-14 -18 -53 -58l80 6h106z" glyph-name="onequarter.aalt" horiz-adv-x="1429"/><glyph d="M1143 303q-101 0 -160 -22l-37 20l15 367h446v-121h-332l-4 -148q66 8 119 9q129 0 196.5 -52.5t67.5 -148.5t-72.5 -159.5t-210.5 -63.5q-70 0 -144.5 26t-119.5 68l70 98q68 -63 186 -63q147 0 148 94q0 96 -168 96zM201 2l-99 82l961 1155l100 -82zM76 1229h280v-668 h-137v547h-143v121z" glyph-name="one_fraction_five.frac" horiz-adv-x="1525"/><glyph d="M1286 303q-102 0 -164 -22l-35 20l15 367h446v-121h-331l-5 -148q66 8 119 9q129 0 196.5 -52.5t67.5 -148.5t-71.5 -159.5t-208.5 -63.5q-70 0 -151.5 28.5t-112.5 65.5l67 98q68 -63 185 -63q150 0 149 94q0 96 -166 96zM373 2l-101 82l961 1155l100 -82zM92 1108v121 h281v-547h129v-121h-410v121h144v426h-144z" glyph-name="one_fraction_five.frac.ss04" horiz-adv-x="1669"/><glyph d="M1415 303q-100 0 -162 -22l-36 20l14 367h446v-121h-331l-5 -148q66 8 119 9q129 0 196.5 -52.5t67.5 -148.5t-72.5 -159.5t-209.5 -63.5q-70 0 -147 27t-117 67l71 98q66 -63 185 -63q150 0 149 94q0 96 -168 96zM485 2l-100 80l961 1155l102 -80zM90 569v37l287 291 q63 63 63 123q0 102 -121 102q-71 0 -114.5 -31t-48.5 -36l-72 106q34 34 107 64t141 30q131 0 194.5 -59.5t63.5 -157.5t-90 -188l-158 -162h283v-119h-535z" glyph-name="two_fraction_five.frac" horiz-adv-x="1796"/><glyph d="M1276 303q-105 0 -164 -22l-35 20l15 367h446v-121h-332l-4 -148q61 8 117 9q129 0 197.5 -52.5t68.5 -148.5t-72.5 -159.5t-209.5 -63.5q-70 0 -145 26t-120 68l70 98q68 -63 184 -63q150 0 150 95t-166 95zM399 2l-98 82l961 1155l100 -82zM102 1108v121h488v-35 l-139 -227q170 -29 170 -197q0 -96 -73 -160.5t-210 -64.5q-70 0 -147 27t-117 67l71 102q82 -68 189 -67q143 0 143 98t-127 98h-84v37l125 201h-289z" glyph-name="three_fraction_five.frac" horiz-adv-x="1660"/><glyph d="M1362 303q-100 0 -162 -22l-35 20l13 367h446v-121h-332l-4 -148q66 8 119 9q129 0 197.5 -52.5t68.5 -148.5t-72.5 -159.5t-209.5 -63.5q-70 0 -145 26t-120 68l70 98q68 -63 184 -63q150 0 150 95t-168 95zM61 725v86l385 418h103v-391h106v-113h-106v-164h-131v164 h-357zM461 2l-101 80l961 1155l100 -80zM418 838v149l2 55h-4l-131 -153q-14 -18 -54 -58l80 7h107z" glyph-name="four_fraction_five.frac" horiz-adv-x="1748"/><glyph d="M1442 234q0 -114 -79 -182t-208 -68t-207 67.5t-78 182.5t95 243l137 193h155l-100 -138l-45 -55v-6l43 2q129 0 208 -62.5t79 -176.5zM254 2l-100 82l960 1155l103 -82zM76 1108v121h280v-668h-137v547h-143zM1156 358q-67 0 -104.5 -32.5t-37.5 -92t38 -94.5t103.5 -35 t104 35t38.5 94.5t-37.5 92t-104.5 32.5z" glyph-name="one_fraction_six.frac" horiz-adv-x="1503"/><glyph d="M1581 234q0 -114 -79 -182t-207 -68t-206.5 68.5t-78.5 182.5t94 242l137 193h156l-99 -138l-47 -55v-6l45 2q129 0 207 -62.5t78 -176.5zM397 2l-100 82l960 1155l103 -82zM94 1108v121h281v-547h129v-121h-410v121h144v426h-144zM1296.5 358q-65.5 0 -104.5 -32.5 t-39 -92t39 -94.5t104.5 -35t104.5 35t39 94.5t-39 92t-104.5 32.5z" glyph-name="one_fraction_six.frac.ss04" horiz-adv-x="1642"/><glyph d="M1599 234q0 -114 -78.5 -182t-206.5 -68t-206 67.5t-78 183.5t92 242l138 193h155l-98 -138q-23 -37 -47 -55v-6l45 2q129 0 206.5 -62.5t77.5 -176.5zM309 864q-108 0 -159 -22l-37 20l14 367h446v-121h-331l-4 -147q66 8 118 8q129 0 197 -52.5t68 -148.5t-73 -159.5 t-210 -63.5q-70 0 -147 27t-117 67l71 98q66 -63 185 -63q150 0 149 94q0 96 -170 96zM434 2l-102 82l960 1155l103 -82zM1314.5 358q-65.5 0 -104.5 -32.5t-39 -92t39 -94.5t104.5 -35t104.5 35t39 94.5t-39 92t-104.5 32.5z" glyph-name="five_fraction_six.frac" horiz-adv-x="1662"/><glyph d="M1028 195q0 113 109 157q-86 48 -86 138t72.5 143t189.5 53t188.5 -53t71.5 -141t-86 -140q111 -47 110 -157q0 -86 -76.5 -148.5t-207.5 -62.5t-208 62.5t-77 148.5zM383 2l-98 82l960 1155l101 -82zM371 1229v-547h129v-121h-410v121h143v426h-143v121h281zM1312.5 301 q-65.5 0 -103.5 -27.5t-38 -70.5t38.5 -74t102.5 -31t103 31t39 74t-38 70.5t-103.5 27.5zM1314 387q58 0 90 25.5t32 65.5t-33 65.5t-90.5 25.5t-90 -25.5t-32.5 -65.5t33 -65.5t91 -25.5z" glyph-name="oneeighth.aalt" horiz-adv-x="1660"/><glyph d="M391 700h158q86 0 136 44t50 127t-62.5 138.5t-153.5 55.5t-163.5 -33t-109.5 -65l-39 -33l-96 147q6 6 16 18.5t104.5 84t295.5 71.5q200 0 317 -99t117 -266t-150 -259q195 -68 195 -281q0 -170 -126 -273.5t-350 -103.5q-121 0 -225 39t-149 78l-45 39l100 152 q14 -12 39.5 -33t107.5 -53.5t184 -32.5t171 52t69 139t-59 133t-172 46h-160v168z" glyph-name="three.tnum.ss03"/><glyph d="M156 107q0 52 36.5 88t88 36t87 -35.5t35.5 -89t-35.5 -88t-87.5 -34.5t-88 35.5t-36 87.5z" glyph-name="period.aalt" horiz-adv-x="563"/><glyph d="M164 110q0 49 34.5 84t88 35t89.5 -35.5t36 -102.5t-47 -150l-78 -138h-133l71 127l37 45v11q-43 10 -70.5 42.5t-27.5 81.5z" glyph-name="comma.aalt" horiz-adv-x="563"/><glyph d="M158 110.5q0 53.5 35.5 89.5t87 36t88.5 -36t37 -88t-36 -88t-88 -36t-88 34.5t-36 88zM158 1022q0 53 35.5 89t87 36t88.5 -37t37 -88t-37 -88t-88.5 -37t-87 36t-35.5 89z" glyph-name="colon.tnum" horiz-adv-x="563"/><glyph d="M162 115q0 49 36 83.5t88 34.5t89 -35.5t37 -99.5t-50 -153l-75 -138h-133l69 127l37 46v10q-43 8 -70.5 42t-27.5 83zM164 1022q0 51 36 88t88 37t88 -37t36 -88t-36 -88t-88 -37t-88 37t-36 88z" glyph-name="semicolon.tnum" horiz-adv-x="563"/><glyph d="M125 107q0 52 36 88t88 36t88 -35.5t36 -89t-35 -88t-88 -34.5t-89 35.5t-36 87.5zM748 107q0 52 35.5 88t87.5 36t88 -35.5t36 -89t-34.5 -88t-88 -34.5t-89 35.5t-35.5 87.5z" glyph-name="glyph453"/><glyph d="M152 665q0 54 37.5 92t91 38t91.5 -38t38 -92t-38 -91t-91.5 -37t-91 37t-37.5 91z" glyph-name="periodcentered.aalt" horiz-adv-x="563"/><glyph d="M889 1440l-453 -1800h-198l452 1800h199z" glyph-name="slash.tnum"/><glyph d="M653 1378v-1689h-184v1689h184z" glyph-name="bar.tnum"/><glyph d="M137 -205v164h846v-164h-846z" glyph-name="underscore.aalt"/><glyph d="M559 160q236 0 236 170q0 78 -59.5 121t-237.5 95t-285 131t-107 225t102.5 241.5t291.5 109.5v158h139v-158q115 -8 208 -37.5t128 -56.5l37 -26l-109 -166q-14 12 -40.5 29.5t-115.5 46t-189 28.5t-160 -42t-60 -115.5t62.5 -110.5t241.5 -86t283.5 -133t104.5 -236 t-97 -253t-294 -118v-159h-139v157q-239 19 -400 148l113 158q51 -45 153.5 -83t192.5 -38z" glyph-name="dollar.tnum"/><glyph d="M983 182v-178h-821v178q4 2 12 5t58.5 42t50.5 160q0 35 -19 94h-145v148h88q-35 109 -35 192q0 170 127 297t356 127q230 0 357 -137l-113 -149q-27 34 -94.5 63t-138.5 29q-129 0 -199 -73t-70 -163t35 -186h422v-148h-369q12 -43 13 -88q0 -125 -80 -213h565z" glyph-name="sterling.tnum"/><glyph d="M782 541v-140h-372q74 -225 284 -225q68 0 126.5 26.5t84.5 51.5l25 27l119 -154q-9 -13 -88 -79t-276 -66q-198 0 -323.5 113.5t-171.5 305.5h-110v140h90q-2 25 -2 71t2 70h-90v139h110q43 195 169 311.5t337 116.5q109 0 197 -36.5t123 -73.5l33 -37l-119 -156 q-10 12 -27.5 29.5t-79 47.5t-129.5 30q-215 0 -286 -232h374v-139h-401q-2 -23 -2 -71t2 -70h401z" glyph-name="Euro.tnum"/><glyph d="M973 629v-140h-305v-143h305v-139h-305v-207h-203v207h-315v139h315v143h-315v140h247l-301 600h242l197 -438l34 -113l35 113l184 438h240l-295 -600h240z" glyph-name="yen.tnum"/><glyph d="M545 66v190q-143 25 -229.5 124t-86.5 239t86 239.5t230 124.5v195h170v-193q103 -17 153 -51l21 -10l-70 -156q-80 57 -173 57t-153.5 -56.5t-60.5 -148.5t60 -148t148 -56t157 39l22 14l70 -156q-68 -41 -174 -57v-190h-170z" glyph-name="cent.tnum"/><glyph d="M944 1194l-72 -317h175l-27 -121h-174l-72 -320h180l-26 -121h-183l-69 -315h-131l69 315h-233l-70 -315h-131l72 315h-172l24 121h175l71 320h-178l25 121h182l72 317h129l-72 -317h233l72 317h131zM481 756l-71 -320h233l72 320h-234z" glyph-name="numbersign.tnum"/><glyph d="M690 -317v538h-92q-225 0 -357 106.5t-132 302.5t125.5 299t351.5 103h307v-1349h-203z" glyph-name="paragraph.tnum"/><glyph d="M566 -18q108 0 163 41t55 103t-45 100t-182 87q-203 68 -295 138.5t-92 192.5t76 183q-133 92 -133 237.5t114.5 233.5t336.5 88t313.5 -51t105.5 -65l16 -13l-110 -165q-14 12 -40 30.5t-110 48t-174 29.5q-211 0 -211 -137q0 -115 211 -182q179 -63 258.5 -113.5 t111.5 -104t32 -122.5q0 -115 -68 -193q125 -82 125 -224t-111.5 -234.5t-353.5 -92.5q-139 0 -254 37t-162 72l-45 37l105 155q16 -12 43.5 -31.5t119.5 -52t200 -32.5zM369 670q0 -58 56 -101t169 -84l131 -49q39 31 39 92.5t-65.5 103.5t-148.5 68t-140 48 q-41 -20 -41 -78z" glyph-name="section.tnum"/><glyph d="M280.5 1376q106.5 0 174 -63.5t67.5 -157.5t-67.5 -156.5t-174 -62.5t-173 62.5t-66.5 156.5t66.5 157.5t173 63.5zM282 1272q-56 0 -90 -33t-34 -83t34 -82t90 -32t90 32t34 82t-34 83t-90 33z" glyph-name="degree.tnum" horiz-adv-x="563"/><glyph d="M338 1255q127 0 199.5 -77.5t72.5 -190.5t-72.5 -192.5t-199.5 -79.5t-201 79.5t-74 192.5t74 190.5t201 77.5zM337 1124q-58 0 -89 -39t-31 -99t31 -100t89 -40t89 40t31 100t-31 99t-89 39zM147 8l-108 98l928 1117l112 -99zM784 524q127 0 201 -77.5t74 -190.5 t-74 -192.5t-201 -79.5t-199.5 79.5t-72.5 192.5t72.5 190.5t199.5 77.5zM784.5 395q-57.5 0 -87 -40t-29.5 -99t29.5 -100t87 -41t88 41t30.5 100t-30.5 99t-88 40z" glyph-name="percent.tnum"/><glyph d="M319 948v33l39 395h174v-33l-86 -395h-127zM616 948v33l41 395h172v-33l-84 -395h-129z" glyph-name="quotedbl.tnum"/><glyph d="M186 948v33l41 395h172v-33l-86 -395h-127z" glyph-name="quotesingle.tnum" horiz-adv-x="563"/><glyph d="M649 1032v-323h324v-164h-324v-309h-168v309h-327v164h327v323h168z" glyph-name="plus.tnum"/><glyph d="M150 526v166h819v-166h-819z" glyph-name="minus.tnum"/><glyph d="M434 270.5q0 53.5 38 92t91 38.5t92 -38.5t39 -92t-39 -90.5t-92 -37t-91 37t-38 90.5zM434 949q0 54 38 92t91 38t92 -37.5t39 -91.5t-39 -91.5t-92 -37.5t-91 37t-38 91zM154 524v166h819v-166h-819z" glyph-name="divide.tnum"/><glyph d="M176 715v164h776v-164h-776zM176 324v163h776v-163h-776z" glyph-name="equal.tnum"/><glyph d="M258 201l-117 114l305 306l-305 307l117 114l305 -305l305 305l117 -114l-307 -307l307 -306l-117 -114l-305 305z" glyph-name="multiply.tnum"/><glyph d="M733 90l-491 475v47l491 475l119 -120l-395 -379l395 -375z" glyph-name="less.tnum"/><glyph d="M885 565l-494 -475l-117 123l396 375l-396 379l117 120l494 -475v-47z" glyph-name="greater.tnum"/><glyph d="M649 365h-168v327h-348v164h348v340h168v-340h342v-164h-342v-327zM991 229v-166h-858v166h858z" glyph-name="plusminus.tnum"/><glyph glyph-name="space.aalt"/><glyph glyph-name="glyph479" horiz-adv-x="378"/><glyph d="M211 963q-51 0 -85 33.5t-34 85t34 86t85 34.5t86 -34.5t35 -86t-35 -85t-86 -33.5zM111 0v709h200v-709h-200z" glyph-name="i.aalt" horiz-adv-x="419"/><glyph d="M381 1247q152 0 239 -103.5t87 -248.5t-88.5 -247.5t-238.5 -102.5t-238.5 102.5t-88.5 247.5t88 248.5t240 103.5zM380 1118q-81 0 -126 -63.5t-45 -158.5t45 -157.5t125 -62.5t125 62.5t45 157.5t-44 158.5t-125 63.5z" glyph-name="zero.frac" horiz-adv-x="759"/><glyph d="M35 1108v121h280v-668h-137v547h-143z" glyph-name="one.frac" horiz-adv-x="415"/><glyph d="M51 561v39l287 291q63 63 63 121q0 102 -120 102q-39 0 -89 -20t-77 -47l-72 106q34 34 108 64t142 30q131 0 194.5 -60.5t63.5 -155.5t-90 -189l-160 -162h285v-119h-535z" glyph-name="two.frac" horiz-adv-x="634"/><glyph d="M70 1108v121h487v-35l-139 -227q170 -29 170 -197q0 -96 -73 -160.5t-210 -64.5q-70 0 -147 27t-117 67l72 102q82 -68 188 -67q143 0 143 98t-127 98h-84v37l125 201h-288z" glyph-name="three.frac" horiz-adv-x="638"/><glyph d="M35 725v86l383 418h102v-391h109v-113h-109v-164h-131v164h-354zM389 838v211h-2l-133 -156l-55 -57v-5l77 7h113z" glyph-name="four.frac" horiz-adv-x="667"/><glyph d="M549 1229v-121h-332l-4 -147q61 8 117 8q129 0 197.5 -52.5t68.5 -148.5t-72.5 -159.5t-210.5 -63.5q-70 0 -147 27t-117 67l70 98q68 -68 184 -67q150 0 150 99t-166 99q-86 0 -144 -20l-20 -6l-35 20l14 367h447z" glyph-name="five.frac" horiz-adv-x="641"/><glyph d="M623 794q0 -114 -79 -182.5t-207 -68.5t-206 67.5t-78 183.5t92 242l138 193h155l-98 -137q-15 -24 -47 -56v-6l45 2q129 0 207 -62t78 -176zM337.5 918q-65.5 0 -104 -33t-38.5 -92.5t38.5 -94t104 -34.5t104.5 34.5t39 94t-39 92.5t-104.5 33z" glyph-name="six.frac" horiz-adv-x="659"/><glyph d="M553 1229v-35l-258 -633h-154l230 547h-332v121h514z" glyph-name="seven.frac" horiz-adv-x="573"/><glyph d="M53 756q0 113 111 157q-86 49 -86 139t71.5 142.5t188.5 52.5t188.5 -53t71.5 -141t-86 -140q111 -45 111 -157q0 -86 -76 -148.5t-208 -62.5t-209 62.5t-77 148.5zM337.5 862q-65.5 0 -103 -27.5t-37.5 -70.5t37.5 -74t103 -31t103.5 31t38 74t-38 70.5t-103.5 27.5z M339 948q58 0 91 25.5t33 65.5t-34 65.5t-90 25.5t-90 -25.5t-34 -65.5t33 -65.5t91 -25.5z" glyph-name="eight.frac" horiz-adv-x="675"/><glyph d="M330 758q-127 0 -206 64t-79 176t79 180.5t207 68.5t205.5 -67.5t77.5 -181.5t-92 -244l-139 -193h-156l101 139l47 54v6q-14 -2 -45 -2zM329.5 874q65.5 0 104.5 32t39 91.5t-39 95t-104.5 35.5t-104.5 -36t-39 -94t39 -91t104.5 -33z" glyph-name="nine.frac" horiz-adv-x="667"/><glyph d="M84 858v324h182v-33l-71 -291h-111z" glyph-name="glyph491" horiz-adv-x="354"/><glyph d="M92 1286v33l78 291h233v-33l-184 -291h-127z" glyph-name="glyph492" horiz-adv-x="505"/><glyph d="M104 1286v33l78 291h209v-33l-160 -291h-127zM446 1286v33l78 291h209v-33l-160 -291h-127z" glyph-name="glyph493" horiz-adv-x="849"/><glyph d="M94 1597h236l78 -290v-33h-129l-185 291v32z" glyph-name="glyph494" horiz-adv-x="520"/><glyph d="M47 1286v33l195 291h213l194 -291v-33h-129l-170 189l-174 -189h-129z" glyph-name="glyph495" horiz-adv-x="673"/><glyph d="M649 1610v-33l-194 -291h-213l-195 291v33h129l174 -189l170 189h129z" glyph-name="glyph496" horiz-adv-x="698"/><glyph d="M489 1626h158q0 -117 -77.5 -200t-209 -83t-209 83t-77.5 200h157q0 -63 36 -101t92 -38t93 39t37 100z" glyph-name="glyph497" horiz-adv-x="722"/><glyph d="M578 1278q-63 0 -146.5 44t-114.5 44q-61 0 -71 -63l-4 -29l-140 12l7 60q8 78 55.5 126t119.5 48t154 -44t113 -44q59 0 74 63l6 29l141 -13l-8 -59q-32 -174 -186 -174z" glyph-name="glyph498" horiz-adv-x="880"/><glyph d="M145 1294v123h557v-123h-557z" glyph-name="glyph499" horiz-adv-x="829"/><glyph d="M119 1421q0 43 31.5 76t74.5 33t76 -33t33 -76t-33 -74.5t-76 -31.5t-74.5 31.5t-31.5 74.5zM496 1421q0 43 31.5 76t74.5 33t76 -33t33 -76t-33 -74.5t-76 -31.5t-74.5 31.5t-31.5 74.5z" glyph-name="glyph500" horiz-adv-x="825"/><glyph d="M133 1415q0 55 37 93t92 38t93 -38t38 -93t-38 -93t-93 -38t-92 38t-37 93z" glyph-name="glyph501" horiz-adv-x="528"/><glyph d="M278.5 1286q-88.5 0 -148.5 58.5t-60 142.5t60 142.5t148.5 58.5t147.5 -58.5t59 -142.5t-59 -142.5t-147.5 -58.5zM358 1488q0 36 -21 58.5t-57 22.5t-58.5 -22.5t-22.5 -58.5t22.5 -58.5t58.5 -22.5t57 22.5t21 58.5z" glyph-name="glyph502" horiz-adv-x="559"/><glyph d="M564 -29q-243 0 -373 176.5t-130 466.5t130.5 465.5t372.5 175.5t371.5 -175t129.5 -467t-129 -467t-372 -175zM564 168q146 0 219 115.5t73 328.5q0 449 -293 449q-145 0 -219 -117t-74 -331t74 -329.5t220 -115.5z" glyph-name="zero.tnum"/><glyph d="M156 1049v180h577v-1049h305v-180h-909v180h401v869h-374z" glyph-name="one.tnum"/><glyph d="M115 0v37l514 590q68 78 93.5 122t25.5 99q0 92 -68 151.5t-174 59.5q-168 0 -301 -133l-109 161q108 108 231.5 138t198.5 30q215 0 330 -104t115 -266t-133 -316l-342 -393h518v-176h-899z" glyph-name="two.tnum"/><glyph d="M797 374q0 93 -62.5 150.5t-173.5 57.5h-184v53l278 412h-503v182h825v-37l-315 -465q170 -14 260 -109.5t90 -260.5t-125 -275.5t-350 -110.5q-123 0 -238 45t-152.5 74t-58.5 49q16 25 51 80t51 80q16 -14 46 -36.5t119 -60.5t197 -38t176.5 58.5t68.5 151.5z" glyph-name="three.tnum"/><glyph d="M51 276v181l690 772h148v-770h158v-183h-158v-276h-205v276h-633zM283 459h401v452l-358 -407l-43 -37v-8z" glyph-name="four.tnum"/><glyph d="M944 1047h-551l-8 -306q78 16 168 17q233 0 350 -104.5t117 -283.5t-123 -288t-352 -109q-123 0 -234.5 42t-163.5 83l-51 41l103 160q16 -14 45.5 -36.5t119.5 -60.5t196 -38t175.5 58.5t69.5 157.5t-75.5 154.5t-221.5 55.5t-281 -45l-6 -4l-33 24l21 664h735v-182z " glyph-name="five.tnum"/><glyph d="M581 -29q-204 0 -336 118t-132 301t112 366l289 473h246l-254 -412l-45 -61v-17q70 33 143 33q205 0 324 -103.5t119 -285.5t-131 -297t-335 -115zM584 600q-108 0 -180 -61.5t-72 -160.5t68.5 -161.5t180.5 -62.5t180 63.5t68 160.5t-68.5 159.5t-176.5 62.5z" glyph-name="six.tnum"/><glyph d="M133 1047v182h903v-47l-553 -1182h-239l508 1047h-619z" glyph-name="seven.tnum"/><glyph d="M563 -27q-215 0 -344 105.5t-129 261.5q0 217 205 309q-156 86 -156 269q0 145 117 241t307.5 96t307 -96t116.5 -241q0 -182 -156 -269q205 -92 205 -309q0 -156 -129 -261.5t-344 -105.5zM564 154q114 0 186.5 58t72.5 147t-73.5 146.5t-186 57.5t-186.5 -57.5 t-74 -145.5t73.5 -147t187.5 -59zM780 894q0 79 -59 129t-157 50t-157 -50t-59 -129t58.5 -129t157 -50t157.5 50t59 129z" glyph-name="eight.tnum"/><glyph d="M1014 838q0 -184 -113 -365l-289 -473h-247l256 412l45 61v16q-70 -33 -144 -32q-205 0 -324.5 103.5t-119.5 285.5t132 296.5t336 114.5t336 -117.5t132 -301.5zM542 629q108 0 180.5 61.5t72.5 160.5t-68.5 161.5t-180.5 62.5t-180.5 -63.5t-68.5 -160.5t68.5 -159.5 t176.5 -62.5z" glyph-name="nine.tnum"/><glyph d="M57 1247v121h283v-547h129v-121h-412v121h146v426h-146z" glyph-name="uni00B9.ss04" horiz-adv-x="503"/><glyph d="M57 1108v121h283v-547h129v-121h-412v121h146v426h-146z" glyph-name="one.frac.ss04" horiz-adv-x="503"/><glyph d="M57 291v121h281v-547h129v-121h-410v121h144v426h-144z" glyph-name="uni2081.ss04" horiz-adv-x="501"/><glyph d="M381 686q152 0 239 -103.5t87 -248.5t-88.5 -247.5t-238.5 -102.5t-238.5 102t-88.5 248t88 249t240 103zM380 557q-81 0 -126 -63.5t-45 -158.5t45 -157.5t125 -62.5t125 62.5t45 157.5t-44 158.5t-125 63.5z" glyph-name="zero.dnom" horiz-adv-x="759"/><glyph d="M35 547v121h282v-668h-137v547h-145z" glyph-name="one.dnom" horiz-adv-x="415"/><glyph d="M57 547v121h283v-547h129v-121h-412v121h146v426h-146z" glyph-name="one.dnom.ss04" horiz-adv-x="503"/><glyph d="M51 0v39l287 291q63 63 63 121q0 102 -120 102q-39 0 -91 -21t-75 -47l-72 107q34 34 108 64t142 30q131 0 194.5 -60.5t63.5 -155.5t-90 -189l-160 -162h285v-119h-535z" glyph-name="two.dnom" horiz-adv-x="634"/><glyph d="M70 547v121h487v-35l-139 -227q170 -29 170 -197q0 -96 -73 -160.5t-210 -64.5q-76 0 -142.5 23.5t-92.5 45.5l-29 25l72 102q82 -68 188 -67q143 0 143 98t-127 98h-84v37l125 201h-288z" glyph-name="three.dnom" horiz-adv-x="636"/><glyph d="M33 164v86l385 418h102v-392h107v-112h-107v-164h-131v164h-356zM389 276v150l2 55h-4l-131 -153q-10 -12 -22.5 -24.5t-20.5 -22t-10 -11.5l80 6h106z" glyph-name="four.dnom" horiz-adv-x="665"/><glyph d="M549 668v-121h-332l-4 -148q61 8 117 9q129 0 197.5 -52.5t68.5 -148.5t-72.5 -159.5t-210.5 -63.5q-70 0 -147 27t-117 67l70 98q68 -68 184 -67q150 0 150 99t-166 99q-86 0 -144 -20l-20 -6l-35 20l14 367h447z" glyph-name="five.dnom" horiz-adv-x="641"/><glyph d="M623 234q0 -112 -79 -181t-207 -69t-206 67.5t-78 183.5t92 242l138 193h155l-98 -140l-47 -53v-6l45 2q127 0 206 -63.5t79 -175.5zM337.5 356q-65.5 0 -104 -31.5t-38.5 -91t38.5 -95.5t104 -36t104.5 36t39 94t-39 91t-104.5 33z" glyph-name="six.dnom" horiz-adv-x="659"/><glyph d="M553 668v-35l-258 -633h-154l230 547h-332v121h514z" glyph-name="seven.dnom" horiz-adv-x="573"/><glyph d="M53 195q0 113 111 157q-86 48 -86 138t71.5 143t188.5 53t188.5 -53t71.5 -141t-86 -140q111 -45 111 -157q0 -86 -76 -148.5t-208 -62.5t-209 62.5t-77 148.5zM337.5 301q-65.5 0 -103 -27.5t-37.5 -70.5t37.5 -74t103 -31t103.5 31t38 74t-38 70.5t-103.5 27.5z M339 387q58 0 91 25.5t33 65.5t-34 65.5t-90 25.5t-90 -25.5t-34 -65.5t33 -65.5t91 -25.5z" glyph-name="eight.dnom" horiz-adv-x="675"/><glyph d="M326 197q-127 0 -206 63.5t-79 175.5t79 181t207 69t206.5 -68.5t78.5 -182.5t-94 -242l-137 -193h-156l101 139l45 54v6q-14 -2 -45 -2zM325.5 313q65.5 0 104.5 32t39 91.5t-39 95t-104.5 35.5t-103.5 -35.5t-38 -93.5t38 -91.5t103.5 -33.5z" glyph-name="nine.dnom" horiz-adv-x="663"/><glyph d="M438 725q168 0 269.5 -103.5t101.5 -267.5t-101.5 -267t-269.5 -103t-269 103t-101 267t101 267.5t269 103.5zM438 565q-86 0 -138 -59.5t-52 -152.5t52 -151.5t138 -58.5t137.5 58.5t51.5 151.5t-51.5 152.5t-137.5 59.5z" glyph-name="zero.oldstyle" horiz-adv-x="876"/><glyph d="M45 547v162h381v-709h-203v547h-178z" glyph-name="one.oldstyle" horiz-adv-x="557"/><glyph d="M76 0v68l315 264q76 63 76 129q0 98 -135 98q-49 0 -101.5 -17.5t-78.5 -35.5l-29 -19l-60 142q12 10 36 26.5t109 43t181 26.5q150 0 226.5 -65.5t76.5 -150.5t-26.5 -136t-94.5 -99l-172 -120l101 10h235v-164h-659z" glyph-name="two.oldstyle" horiz-adv-x="800"/><glyph d="M68 547v162h641v-62l-248 -389q145 -12 224 -93t79 -233t-106.5 -248t-280.5 -96t-247.5 42.5t-90.5 62.5l72 139q96 -80 214 -80t176 52.5t58 135.5t-56.5 134t-160.5 51h-125v61l219 361h-368z" glyph-name="three.oldstyle" horiz-adv-x="815"/><glyph d="M35 10v135l485 564h182v-537h179v-162h-179v-405h-202v405h-465zM500 172v291h-6l-175 -211q-36 -50 -81 -80v-10l127 10h135z" glyph-name="four.oldstyle" horiz-adv-x="929"/><glyph d="M680 709v-162h-389l-8 -271q37 6 86 7q190 0 290.5 -90.5t100.5 -246.5t-105.5 -257t-304.5 -101q-90 0 -165.5 23.5t-106.5 48.5l-31 25l72 141q84 -70 201 -70t175 52.5t58 137.5t-59.5 134t-174.5 49t-161 -23l-19 -8l-30 25l20 586h551z" glyph-name="five.oldstyle" horiz-adv-x="802"/><glyph d="M479 723q176 0 288 -104.5t112 -269.5t-111 -266t-290 -101t-288.5 100t-109.5 270q0 84 23.5 153.5t80.5 172.5l277 471h205l-193 -338q-25 -48 -51 -74l-8 -10v-8q40 4 65 4zM478 557q-89 0 -142 -57.5t-53 -147.5t53 -147.5t141 -57.5t143.5 58.5t55.5 147.5 t-54.5 146.5t-143.5 57.5z" glyph-name="six.oldstyle" horiz-adv-x="921"/><glyph d="M743 709v-47l-434 -1031h-211l404 916h-463v162h704z" glyph-name="seven.oldstyle" horiz-adv-x="747"/><glyph d="M117 872q0 137 98 227.5t252 90.5t251 -90t97 -228q0 -170 -145 -251q84 -41 132 -115t48 -168q0 -162 -107.5 -258t-276.5 -96t-276.5 96t-107.5 258q0 197 176 283q-141 83 -141 251zM466 528q-87 0 -138.5 -53t-51.5 -137t52.5 -135t138.5 -51t137 51t51 135t-51 137 t-138 53zM466 700q71 0 115 48t44 118t-44 115t-115 45t-115 -45t-44 -116t44 -118t115 -47z" glyph-name="eight.oldstyle" horiz-adv-x="931"/><glyph d="M449 -14q-176 0 -288 105t-112 269t110.5 265.5t290.5 101.5t289 -100.5t109 -270.5q0 -84 -23.5 -153.5t-81.5 -171.5l-258 -439h-204l174 306q23 45 59 84v8q-45 -4 -65 -4zM448.5 152q88.5 0 142.5 56t54 147t-53 148.5t-142 57.5t-143.5 -58.5t-54.5 -147.5t54 -146 t142.5 -57z" glyph-name="nine.oldstyle" horiz-adv-x="899"/><glyph d="M184 240h92q94 0 151.5 41t57.5 113t-46.5 116.5t-112.5 44.5q-114 0 -191 -55l-26 -19l-64 142q36 36 127.5 69t175.5 33q168 0 257 -80t89 -213q0 -162 -149 -252q203 -61 203 -266q0 -141 -110 -233.5t-296 -92.5q-96 0 -175 26t-110 52l-32 27l69 139 q102 -80 215 -80t167 46t54 125t-59 124t-160 45h-127v148z" glyph-name="three.oldstyle.ss03" horiz-adv-x="806"/><glyph d="M1257 549h-186v-27q0 -163 -77 -306.5t-214 -192t-260 -48.5q-205 0 -327.5 109.5t-122.5 273.5t102 263.5t254 99.5t238 -81t86 -202v-26l-486 -138q66 -139 268 -139t283.5 119t81.5 278v177h360v-160zM416 578q-68 0 -119 -51.5t-53 -139.5l325 88q-10 43 -47.5 73 t-105.5 30z" glyph-name="ampersand.aalt" horiz-adv-x="1304"/><glyph d="M41 276v166h313v334h168v-334h307v-166h-307l-18 -788h-133l-17 788h-313z" glyph-name="dagger.aalt" horiz-adv-x="872"/><glyph d="M80 358v164h313v252h168v-252h309v-164h-309v-237h309v-164h-309l-16 -469h-135l-17 469h-313v164h313v237h-313z" glyph-name="daggerdbl.aalt" horiz-adv-x="950"/><glyph d="M1231 0h-234l-77 100q-144 -127 -364 -127t-344 108.5t-124 264.5t89 259.5t245 133.5l-238 310v178h783v-174h-531l473 -617q20 80 21 172v129h192v-129q0 -193 -80 -346l189 -244v-18zM580 145q136 0 229 97l-270 348q-102 -2 -168 -64.5t-66 -157.5t69.5 -159 t205.5 -64z" glyph-name="glyph541" horiz-adv-x="1263"/><glyph d="M307 1169h144v-59l-31 -186l174 86l53 16l43 -137l-55 -17l-186 -30l135 -135l34 -50l-116 -82l-33 48l-92 172l-90 -172l-33 -48l-115 82l33 50l135 135l-188 32l-56 17l43 137l54 -18l174 -86l-27 186v59z" glyph-name="asterisk.aalt" horiz-adv-x="753"/><glyph d="M482 762q189 0 304 -118t115 -291t-114.5 -290.5t-304.5 -117.5t-304.5 117.5t-114.5 290.5t115 291t304 118zM481 713q-168 0 -268 -104.5t-100 -256t100 -255t268 -103.5t269.5 104t101.5 256t-101.5 255.5t-269.5 103.5zM498 211q62 0 104 31l57 -74 q-53 -59 -165.5 -59t-181 70.5t-68.5 173t68.5 172t181.5 69.5q51 0 92 -14.5t57 -26.5l16 -14l-57 -76q-33 33 -99 33t-107.5 -41t-41.5 -103t41 -101.5t103 -39.5z" glyph-name="copyright.aalt" horiz-adv-x="962"/><glyph d="M482 762q189 0 304 -118t115 -291t-114.5 -290.5t-304.5 -117.5t-304.5 117.5t-114.5 290.5t115 291t304 118zM481 713q-168 0 -268 -104.5t-100 -256t100 -255t268 -103.5t269.5 104t101.5 256t-101.5 255.5t-269.5 103.5zM299 115v473h217q92 0 148.5 -51.5t56.5 -131 t-56.5 -127t-152.5 -47.5h-102v-116h-111zM604 405.5q0 86.5 -108 86.5h-86v-173h86q108 0 108 86.5z" glyph-name="glyph544" horiz-adv-x="962"/><glyph d="M482 762q189 0 304 -118t115 -291t-114.5 -290.5t-304.5 -117.5t-304.5 117.5t-114.5 290.5t115 291t304 118zM481 713q-168 0 -268 -104.5t-100 -256t100 -255t268 -103.5t269.5 104t101.5 256t-101.5 255.5t-269.5 103.5zM283 588h223q88 0 139 -50t51 -142t-92 -136 v-6l88 -119v-20h-112l-91 125h-94v-125h-112v473zM485 492h-90v-162h90q94 0 95 78q-1 84 -95 84z" glyph-name="registered.oldstyle" horiz-adv-x="962"/><glyph d="M84 404q0 169 102 263.5t258 94.5t260.5 -100.5t104.5 -263.5t-104.5 -263t-259.5 -100t-258 100t-103 269zM133 402q0 -146 89 -232t223 -86t224.5 87t90.5 227t-90 227.5t-225.5 87.5t-223.5 -82.5t-88 -228.5zM281 580h174q72 0 116.5 -37t44.5 -106t-65 -107l65 -97 v-20h-88l-61 94h-100v-94h-86v367zM453 502h-86v-119h84q78 0 78 59.5t-76 59.5z" glyph-name="registered.ss05" horiz-adv-x="892"/><glyph d="M1303 905v-551h-134v312l-157 -158h-29l-154 156v-310h-133v551h62l239 -239l244 239h62zM600 905v-117h-197v-434h-133v434h-196v117h526z" glyph-name="trademark.aalt" horiz-adv-x="1447"/><glyph d="M1292 905v-551h-133v312l-158 -158h-26l-158 158v-312h-131v551h62l241 -239l244 239h59zM438 496q0 27 -28.5 43t-115.5 44t-133 66.5t-46 107.5t59.5 113.5t145.5 44.5q150 0 221 -43l22 -14l-57 -92q-60 43 -158 43t-98 -53q0 -25 28.5 -41.5t114.5 -42.5t135.5 -62 t49.5 -106t-58 -116t-152 -46q-165 0 -239 53l-25 19l60 86q76 -58 175 -58t99 54z" glyph-name="uni2120.aalt" horiz-adv-x="1419"/><glyph d="M66 513q0 77 61 122t169 45t163 -51v35q0 70 -39 103.5t-124 33.5t-155 -35l-41 106q102 45 213 46q283 0 283 -261v-303h-102l-17 68h-8q-47 -82 -195 -82q-90 0 -149 48t-59 125zM201 520q0 -84 112 -84q66 0 105 23.5t39 56.5t-38 57.5t-97 24.5q-121 0 -121 -78z" glyph-name="ordfeminine.aalt" horiz-adv-x="692"/><glyph d="M68 629q0 129 79.5 209t207.5 80t207 -80t79 -209t-79 -208t-207 -79t-207.5 79t-79.5 208zM508 629q0 76 -40 123t-111.5 47t-111.5 -47t-40 -123t40 -122t111.5 -46t111.5 46t40 122z" glyph-name="ordmasculine.aalt" horiz-adv-x="716"/><glyph d="M180 770v33l246 332h113l247 -332v-33h-147l-156 221l-155 -221h-148z" glyph-name="asciicircum.aalt" horiz-adv-x="966"/><glyph d="M326 856q-67 0 -146 -47l-61 125q29 29 88 52.5t119 23.5t153 -26t165 -26t124 33l16 13l62 -125q-29 -29 -88.5 -52.5t-118.5 -23.5t-152.5 26.5t-160.5 26.5z" glyph-name="asciitilde.aalt" horiz-adv-x="964"/><glyph d="M819 709l-35 -160h187l-27 -121h-186l-35 -152h186l-28 -120h-185l-32 -156h-132l33 156h-196l-35 -156h-131l35 156h-181l27 120h180l35 152h-178l26 121h179l36 160h132l-37 -160h196l35 160h131zM430 428l-35 -152h197l35 152h-197z" glyph-name="numbersign.oldstyle" horiz-adv-x="1028"/><glyph d="M203 0v20l561 680h127v-20l-565 -680h-123zM1061 188q0 -86 -55.5 -145t-155.5 -59t-157.5 60t-57.5 144t57.5 145.5t156.5 61.5t155.5 -60.5t56.5 -146.5zM741 189q0 -48 28 -81.5t80 -33.5t78.5 32.5t26.5 82t-26.5 83t-78.5 33.5t-80 -34t-28 -82zM477 519 q0 -85 -56 -145.5t-156.5 -60.5t-157 60.5t-56.5 145.5t56.5 145.5t157 60.5t156.5 -60.5t56 -145.5zM158 519q0 -48 27.5 -82t78.5 -34t79 34t28 82t-28 82t-79 34t-78.5 -34t-27.5 -82z" glyph-name="percent.oldstyle" horiz-adv-x="1112"/><glyph d="M203 0v20l561 680h127v-20l-565 -680h-123zM1061 188q0 -86 -55.5 -145t-155.5 -59t-157.5 60t-57.5 144t57.5 145.5t156.5 61.5t155.5 -60.5t56.5 -146.5zM741 189q0 -48 28 -81.5t80 -33.5t78.5 32.5t26.5 82t-26.5 83t-78.5 33.5t-80 -34t-28 -82zM477 519 q0 -85 -56 -145.5t-156.5 -60.5t-157 60.5t-56.5 145.5t56.5 145.5t157 60.5t156.5 -60.5t56 -145.5zM158 519q0 -48 27.5 -82t78.5 -34t79 34t28 82t-28 82t-79 34t-78.5 -34t-27.5 -82zM1544 189q0 -85 -56 -145t-156.5 -60t-157 60t-56.5 145t56.5 145.5t157 60.5 t156.5 -60.5t56 -145.5zM1223 189q0 -48 28.5 -81.5t79.5 -33.5t79 33.5t28 81.5t-28 82t-79 34t-79.5 -34t-28.5 -82z" glyph-name="perthousand.aalt" horiz-adv-x="1597"/><glyph d="M475 668v-238h230v-166h-230v-223h-168v223h-239v166h239v238h168z" glyph-name="plus.oldstyle" horiz-adv-x="772"/><glyph d="M80 264v166h639v-166h-639z" glyph-name="minus.oldstyle" horiz-adv-x="798"/><glyph d="M434 709v-156h191v-139h-191v-168h-141v168h-197v139h197v156h141zM96 31v139h529v-139h-529z" glyph-name="plusminus.oldstyle" horiz-adv-x="722"/><glyph d="M193 639l174 -176l182 180l113 -117l-181 -180l172 -170l-114 -115l-172 170l-166 -165l-117 114l168 168l-174 174z" glyph-name="multiply.oldstyle" horiz-adv-x="737"/><glyph d="M297 100q0 43 29.5 73t72.5 30t73 -31t30 -73t-30 -71.5t-74 -29.5t-72.5 29.5t-28.5 72.5zM297 594q0 43 29.5 73.5t72.5 30.5t73 -30.5t30 -73.5t-30 -71.5t-74 -28.5t-72.5 28.5t-28.5 71.5zM76 289v112h649v-112h-649z" glyph-name="divide.oldstyle" horiz-adv-x="800"/><glyph d="M98 457v153h750v-153h-750zM98 96v152h750v-152h-750z" glyph-name="equal.oldstyle" horiz-adv-x="946"/><glyph d="M397 0l-342 332v47l342 332l119 -123l-248 -234l248 -231z" glyph-name="less.oldstyle" horiz-adv-x="585"/><glyph d="M530 332l-342 -332l-118 123l245 231l-245 234l118 123l342 -332v-47z" glyph-name="greater.oldstyle" horiz-adv-x="585"/><glyph d="M102 545v33l41 395h174v-33l-88 -395h-127zM401 545v33l39 395h174v-33l-86 -395h-127z" glyph-name="quotedbl.oldstyle" horiz-adv-x="702"/><glyph d="M102 545v33l41 395h174v-33l-88 -395h-127z" glyph-name="quotesingle.oldstyle" horiz-adv-x="403"/><glyph d="M315.5 985q106.5 0 173 -63.5t66.5 -157.5t-66.5 -156.5t-173 -62.5t-173 62.5t-66.5 156.5t66.5 157.5t173 63.5zM314 883q-56 0 -88.5 -34t-32.5 -83t32.5 -82t88.5 -33t90 33t34 82t-34 83t-90 34z" glyph-name="degree.oldstyle" horiz-adv-x="630"/><glyph d="M641 -512v408h-94q-225 0 -356.5 106.5t-131.5 301.5t126 300t352 105h307v-1221h-203z" glyph-name="paragraph.oldstyle" horiz-adv-x="970"/><glyph d="M377 729q94 0 171 -14.5t107 -26.5l29 -14l-57 -146q-75 47 -211 47t-135 -67q0 -27 26.5 -48.5t53 -31.5t82.5 -28q90 -30 164.5 -72.5t74.5 -136.5q0 -93 -84 -152q102 -57 102 -153t-74.5 -154t-230.5 -58q-94 0 -174 15.5t-115 31.5l-32 15l53 141q93 -49 227 -49 t133 66q0 27 -17 39t-30.5 19t-34 14t-37 11.5t-42 11.5t-41.5 11q-94 27 -150.5 70t-56.5 132t94 148q-104 59 -104 159.5t78.5 160t230.5 59.5zM510 150q0 40 -32 65t-109 53l-76 27q-41 -16 -41 -66q-1 -59 108 -100q20 -8 61.5 -21.5t53.5 -17.5q35 20 35 60z" glyph-name="section.oldstyle" horiz-adv-x="768"/><glyph d="M500 207q0 56 -108.5 78t-172 42.5t-107.5 65.5t-44 123t59 134.5t180 70.5v199h156v-199q147 -13 209 -45l24 -10l-55 -146q-90 53 -226 53t-136 -67q0 -31 45 -50.5t109.5 -33.5t130 -34.5t110.5 -67t45 -126.5t-63.5 -136t-192.5 -70v-189h-156v189q-146 12 -217 49 l-24 12l51 146q125 -59 254 -59t129 71z" glyph-name="dollar.oldstyle" horiz-adv-x="770"/><glyph d="M457 725q90 0 164.5 -24.5t105.5 -49.5l31 -24l-72 -127q-86 74 -194 73q-68 0 -104 -34.5t-36 -73.5t6 -68h228v-108h-207v-8q0 -72 -41 -123l410 12v-166h-674v146q33 0 69.5 31.5t36.5 88.5l-2 19h-92v108h66l-9 74q0 109 78 181.5t236 72.5z" glyph-name="sterling.oldstyle" horiz-adv-x="829"/><glyph d="M506 -16q-144 0 -238 64.5t-131 174.5h-88v92h70q-2 14 -2 37l2 39h-70v92h88q37 111 130 176.5t227 65.5q70 0 132 -14.5t91 -30.5l28 -14l-57 -127q-70 43 -164 43q-123 0 -176 -99h232v-92h-256q-2 -12 -2 -39l2 -37h256v-92h-232q53 -98 176 -98q81 0 144 33l20 10 l53 -123q-91 -61 -235 -61z" glyph-name="Euro.oldstyle" horiz-adv-x="808"/><glyph d="M793 399v-92h-236v-76h236v-92h-236v-139h-201v139h-229v92h229v76h-229v92h164l-236 310h224l137 -189l33 -80h14l33 80l137 189h225l-237 -310h172z" glyph-name="yen.oldstyle" horiz-adv-x="917"/><glyph d="M449 463v-39h174v-115h-174v-119q0 -123 -60.5 -192.5t-183.5 -69.5q-85 0 -156 31l-20 10l53 123q47 -14 82 -14q84 0 84 108v123h-103v115h103v35q0 123 60.5 192.5t165.5 69.5t173 -31l21 -10l-56 -123q-45 14 -80 14q-83 1 -83 -108z" glyph-name="florin.aalt" horiz-adv-x="714"/><glyph d="M358 -186v182q-133 31 -211.5 128t-78.5 230t78.5 230.5t211.5 128.5v192h156v-182q108 -8 170 -45l18 -12l-59 -150q-61 43 -157 43t-156 -56.5t-60 -148.5t60.5 -148t147.5 -56t147 32l18 11l53 -148q-59 -49 -182 -59v-172h-156z" glyph-name="cent.oldstyle" horiz-adv-x="772"/><glyph d="M371 355q0 169 97 269.5t262 100.5t237 -119l28 103h121v-557q0 -63 31 -96t84 -33q98 0 162.5 104t64.5 283q0 262 -178 447t-489.5 185t-493.5 -193t-182 -485t183 -484.5t503 -192.5q88 0 165.5 17t110.5 34l33 18l27 -41q-125 -78 -336 -77q-340 0 -537.5 205 t-197.5 519t197.5 522t529.5 208t522 -199t190 -483q0 -207 -76.5 -322t-200.5 -115t-178.5 54.5t-54.5 103.5h-12q-12 -27 -32.5 -54.5t-85 -60t-150.5 -32.5q-147 0 -245.5 101t-98.5 270zM553 354q0 -92 56.5 -151.5t143.5 -59.5t142 57.5t55 154t-55 153.5t-142 57 t-143.5 -59.5t-56.5 -151.5z" glyph-name="at.oldstyle" horiz-adv-x="1572"/><glyph d="M98 272v166h590v-166h-590z" glyph-name="hyphen.aalt" horiz-adv-x="774"/><glyph d="M98 268v166h744v-166h-744z" glyph-name="endash.aalt" horiz-adv-x="925"/><glyph d="M98 268v164h1270v-164h-1270z" glyph-name="emdash.aalt" horiz-adv-x="1454"/><glyph d="M190 -197l-157 91l520 993l160 -90z" glyph-name="slash.oldstyle" horiz-adv-x="751"/><glyph d="M129 110.5q0 53.5 36 89.5t87 36t88 -36t37 -88t-36 -88t-88 -36t-88 34.5t-36 88zM129 1022q0 53 36 89t87 36t88 -37t37 -88t-37 -88t-88 -37t-87 36t-36 89z" glyph-name="colon.case" horiz-adv-x="507"/><glyph d="M143 115q0 49 35 83.5t88 34.5t90 -35.5t37 -99.5t-49 -153l-76 -138h-133l70 127l37 46v10q-43 8 -71 42t-28 83zM145 1022q0 51 36 88t87 37t88 -37t37 -88t-37 -88t-88 -37t-87 37t-36 88z" glyph-name="semicolon.case" horiz-adv-x="528"/><glyph d="M707 1526l-453 -1800h-199l453 1800h199z" glyph-name="slash.case" horiz-adv-x="761"/><glyph d="M354 1464v-1689h-184v1689h184z" glyph-name="bar.case" horiz-adv-x="524"/><glyph d="M74 614.5q0 147.5 41 282.5t98 226t152 188.5t223 165.5l102 -142q-408 -254 -408 -722t408 -722l-102 -141q-123 65 -220.5 164.5t-154.5 191t-98 226.5t-41 282.5z" glyph-name="parenleft.aalt" horiz-adv-x="733"/><glyph d="M662 614.5q0 -147.5 -41 -282.5t-99.5 -226.5t-157.5 -192t-219 -163.5l-100 141q408 254 408 722t-408 722l100 142q128 -68 223 -165.5t153.5 -188.5t99.5 -226t41 -282.5z" glyph-name="parenright.aalt" horiz-adv-x="733"/><glyph d="M934 -414q-207 0 -374 71t-326.5 255t-159.5 546t160.5 546t328 254.5t355.5 70.5t385 -62.5t335 -262t138 -432.5q0 -234 -99.5 -373.5t-275.5 -139.5q-119 0 -178.5 50t-75.5 96h-14q-10 -25 -32 -50.5t-85.5 -55t-147.5 -29.5q-152 0 -253 101t-101 271t100 269.5 t266 99.5t240 -115l27 99h129v-426q0 -145 135 -146q94 0 147.5 88t53.5 244q0 266 -178.5 441t-495.5 175t-508.5 -199.5t-191.5 -513.5t190 -514t506 -200q104 0 193.5 17.5t125.5 35.5l37 19l68 -140q-14 -10 -44 -25.5t-139.5 -40t-240.5 -24.5zM1102 442.5 q0 96.5 -54.5 151.5t-142.5 55t-143 -57t-55 -149.5t56 -152t142 -59.5t141.5 57.5t55.5 154z" glyph-name="at.case" horiz-adv-x="1865"/><glyph d="M172 -238v1704h490v-163h-300v-1377h300v-164h-490z" glyph-name="bracketleft.aalt" horiz-adv-x="729"/><glyph d="M506 -274l-453 1800h201l453 -1800h-201z" glyph-name="backslash.aalt" horiz-adv-x="761"/><glyph d="M68 -238v164h299v1377h-299v163h489v-1704h-489z" glyph-name="bracketright.aalt" horiz-adv-x="729"/><glyph d="M57 692h37q117 0 117 152v411q0 254 295 273l29 -168q-61 -10 -86 -32.5t-25 -86.5v-424q0 -158 -121 -196v-19q121 -35 121 -192v-426q0 -61 24.5 -85t86.5 -34l-29 -166q-295 14 -295 270v414q0 152 -117 152h-37v157z" glyph-name="braceleft.aalt" horiz-adv-x="626"/><glyph d="M571 535h-36q-119 0 -119 -152v-414q0 -256 -295 -270l-27 166q61 10 85 33.5t24 85.5v426q0 158 123 192v19q-123 37 -123 196v424q0 63 -23.5 86t-85.5 33l27 168q295 -18 295 -273v-411q0 -152 119 -152h36v-157z" glyph-name="braceright.aalt" horiz-adv-x="626"/><glyph d="M496 948v-16l-211 -311v-15l211 -315v-17h-170l-217 318v39l217 317h170z" glyph-name="guilsinglleft.aalt" horiz-adv-x="630"/><glyph d="M135 274v17l211 315v15l-211 311v16h170l217 -317v-39l-217 -318h-170z" glyph-name="guilsinglright.aalt" horiz-adv-x="630"/><glyph d="M496 948v-16l-211 -311v-15l211 -315v-17h-170l-217 318v39l217 317h170zM874 948v-16l-210 -311v-15l210 -315v-17h-167l-218 318v39l218 317h167z" glyph-name="guillemotleft.aalt" horiz-adv-x="1009"/><glyph d="M135 274v17l211 315v15l-211 311v16h170l217 -317v-39l-217 -318h-170zM514 274v17l211 315v15l-211 311v16h170l217 -317v-39l-217 -318h-170z" glyph-name="guillemotright.aalt" horiz-adv-x="1009"/><glyph d="M147 614.5q0 71.5 50.5 122.5t120.5 51t123 -52t53 -123t-51.5 -121t-123 -50t-122 50.5t-50.5 122z" glyph-name="bullet.aalt" horiz-adv-x="638"/><glyph d="M560 -139q108 0 167 48t59 121t-60 119t-176 88t-169 66.5t-133 79.5t-80 179t74 188q-131 90 -131 244t115.5 250.5t337.5 96.5t313.5 -51t105.5 -65l16 -13l-110 -165q-14 12 -40 30.5t-109.5 49t-185.5 30.5t-157 -44t-55 -114q0 -129 221 -198q175 -59 256.5 -109.5 t113.5 -105t32 -123.5q0 -121 -74 -201q131 -98 131 -242t-119 -245t-350 -101t-337.5 63.5t-125.5 80.5l-18 16l112 156q56 -49 162 -89t214 -40zM367 586q0 -98 223 -178q72 -25 133 -52q37 38 37 96t-64.5 100t-201.5 89q-57 16 -84 27q-43 -20 -43 -82z" glyph-name="section.case" horiz-adv-x="1103"/><glyph d="M356 -225h-186v1689h186v-1689z" glyph-name="brokenbar.aalt" horiz-adv-x="524"/></font>
</defs>
</svg>
