<?xml version="1.0" standalone="no"?>
<!DOCTYPE svg PUBLIC "-//W3C//DTD SVG 1.1//EN" "http://www.w3.org/Graphics/SVG/1.1/DTD/svg11.dtd">
<svg xmlns="http://www.w3.org/2000/svg"><metadata>This SVG WebFont was generated by YouWorkForThem.
Copyright (c) 2013 by Miguel &amp; Daniel Hernndez. All rights reserved.</metadata><defs><font horiz-adv-x="1126" id="ywftsvg"><font-face ascent="1536" bbox="-326 -512 2126 1890" cap-height="1229" descent="-512" font-family="" font-stretch="normal" font-weight="400" panose-1="0 0 0 0 0 0 0 0 0 0" underline-position="0" underline-thickness="0" unicode-range="U+000D-FB04" units-per-em="2048" x-height="709"/><missing-glyph horiz-adv-x="1024"/><glyph glyph-name=".notdef" horiz-adv-x="1024"/><glyph glyph-name="glyph1" horiz-adv-x="0"/><glyph glyph-name="glyph2" horiz-adv-x="681"/><glyph glyph-name="glyph3" horiz-adv-x="0"/><glyph glyph-name="glyph3" horiz-adv-x="0"/><glyph glyph-name="space" horiz-adv-x="436" unicode=" "/><glyph d="M311 1229v-68l-30 -835h-84l-33 835v68h147zM152 74q0 37 26.5 62.5t63.5 25.5t62.5 -25.5t25.5 -63.5t-25.5 -63.5t-62.5 -25.5t-63.5 26.5t-26.5 63.5z" glyph-name="exclam" horiz-adv-x="481" unicode="!"/><glyph d="M113 948v23l34 405h117v-22l-80 -406h-71zM346 948v23l35 405h115v-22l-78 -406h-72z" glyph-name="quotedbl" horiz-adv-x="583" unicode="&quot;"/><glyph d="M1059 1194l-78 -338h252l-16 -80h-254l-84 -364h241l-16 -78h-242l-76 -334h-84l76 334h-364l-76 -334h-86l76 334h-254l18 78h252l84 364h-242l17 80h243l78 338h84l-76 -338h365l76 338h86zM514 776l-84 -364h365l84 364h-365z" glyph-name="numbersign" horiz-adv-x="1306" unicode="#"/><glyph d="M911 1044q-141 101 -381 101q-124 0 -217.5 -56.5t-93.5 -150.5t79.5 -144.5t291.5 -109.5t313 -143.5t101 -226.5t-99.5 -234t-298.5 -107v-182h-94v180q-240 6 -401 127l-15 15l66 90q14 -14 42.5 -33.5t126 -53.5t206.5 -34q176 0 262 61.5t86 163.5t-80 158.5 t-291 117.5t-312.5 136.5t-101.5 215.5t111 225t301 93v185h94v-185q113 -6 205 -34.5t127 -53.5l37 -24z" glyph-name="dollar" horiz-adv-x="1089" unicode="$"/><glyph d="M348 1255q125 0 196.5 -88t71.5 -217t-71.5 -219t-196.5 -90t-196.5 90t-71.5 219t71.5 217t196.5 88zM348 1159q-78 0 -120 -59.5t-42 -151.5t42 -151.5t120 -59.5t120 59.5t42 151.5t-42 151.5t-120 59.5zM1124 1233l80 -66l-960 -1155l-78 66zM1024 598 q125 0 197.5 -89t72.5 -217t-72.5 -218t-197.5 -90t-197.5 90t-72.5 218t72.5 217t197.5 89zM1023 504q-77 0 -120 -59.5t-43 -151.5t43 -151.5t120 -59.5t119 59.5t42 151.5t-42 151.5t-119 59.5z" glyph-name="percent" horiz-adv-x="1372" unicode="%"/><glyph d="M119 322q0 125 76.5 203.5t212.5 146.5l-17 16q-137 138 -137 276t86 214.5t228 76.5t226.5 -79.5t84.5 -196.5t-78 -190.5t-219 -145.5l370 -358q72 135 72 313v43h115v-41q0 -225 -109 -393l199 -191v-16h-131l-131 127q-147 -154 -376 -154t-350.5 95.5t-121.5 253.5z M575 76q201 0 318 123l-408 397q-117 -59 -179 -120.5t-62 -159.5t93 -169t238 -71zM367 984q0 -70 23.5 -120.5t47 -78t64.5 -68.5q203 95 232.5 153t29.5 120t-48 114.5t-144 52.5t-150.5 -51.5t-54.5 -121.5z" glyph-name="ampersand" horiz-adv-x="1249" unicode="&amp;"/><glyph d="M113 948v23l34 405h117v-22l-80 -406h-71z" glyph-name="quotesingle" horiz-adv-x="350" unicode="'"/><glyph d="M76 528.5q0 153.5 41 291.5t94 227.5t127 168t119 112.5t92 63l57 -82q-412 -279 -412 -782t412 -781l-57 -82q-45 29 -91 63.5t-120 112.5t-128 168t-94 228.5t-40 292z" glyph-name="parenleft" horiz-adv-x="634" unicode="("/><glyph d="M561 528.5q0 -153.5 -40 -292t-94 -228.5t-128 -168t-120 -112.5t-91 -63.5l-57 82q412 280 412 782t-412 781l57 82q47 -29 92 -63t119 -112.5t127 -168t94 -227.5t41 -291.5z" glyph-name="parenright" horiz-adv-x="634" unicode=")"/><glyph d="M379 1493h108v-59l-28 -158h-53l-27 158v59zM696 1202l-159 -22l-17 51l144 74l55 18l33 -102zM326 1180l-158 22l-57 19l34 102l56 -18l143 -74zM236 997l114 117l43 -31l-69 -147l-35 -47l-86 59zM516 1112l115 -115l33 -49l-86 -59l-35 47l-70 147z" glyph-name="asterisk" horiz-adv-x="862" unicode="*"/><glyph d="M549 1004v-340h338v-97h-338v-329h-103v329h-342v97h342v340h103z" glyph-name="plus" horiz-adv-x="991" unicode="+"/><glyph d="M47 70q0 35 24.5 59.5t61.5 24.5t62.5 -25t25.5 -69t-28 -97l-87 -156h-86l78 138l25 32v7q-35 4 -55.5 27.5t-20.5 58.5z" glyph-name="comma" horiz-adv-x="268" unicode=","/><glyph d="M117 555v98h579v-98h-579z" glyph-name="hyphen" horiz-adv-x="813" unicode="-"/><glyph d="M47 71q0 36 25.5 61.5t62.5 25.5t61.5 -26t24.5 -62t-24.5 -61t-61.5 -25t-62.5 25.5t-25.5 61.5z" glyph-name="period" horiz-adv-x="270" unicode="."/><glyph d="M639 1440l-453 -1800h-118l452 1800h119z" glyph-name="slash" horiz-adv-x="706" unicode="/"/><glyph d="M636 -29q-245 0 -390.5 183.5t-145.5 458.5t145.5 458.5t390.5 183.5t389 -183t144 -459.5t-144 -459t-389 -182.5zM634.5 82q194.5 0 305.5 151.5t111 379.5t-111 380t-305.5 152t-305 -151.5t-110.5 -379.5t110.5 -380t305 -152z" glyph-name="zero" horiz-adv-x="1269" unicode="0"/><glyph d="M47 1120v109h399v-1229h-116v1120h-283z" glyph-name="one" horiz-adv-x="643" unicode="1"/><glyph d="M489 1255q199 0 308.5 -101t109.5 -265q0 -84 -31.5 -148.5t-111.5 -152.5l-438 -479h612v-109h-842v29l559 604q76 84 106 135t30 117q0 115 -82 187.5t-217 72.5q-92 0 -200.5 -50t-141.5 -104l-68 90q174 174 407 174z" glyph-name="two" horiz-adv-x="1034" unicode="2"/><glyph d="M541 612h-183v43l373 465h-606v109h805v-29l-398 -491h39q168 0 272.5 -98.5t104.5 -264.5t-118.5 -270.5t-329.5 -104.5t-312.5 83t-109.5 91l59 91q96 -96 204 -125t167 -29q143 0 232 72.5t89 192.5t-77.5 192.5t-210.5 72.5z" glyph-name="three" horiz-adv-x="1046" unicode="3"/><glyph d="M55 299v88l727 842h90v-821h142v-109h-142v-299h-116v299h-701zM211 408h545v628l-518 -602l-27 -16v-10z" glyph-name="four" horiz-adv-x="1097" unicode="4"/><glyph d="M887 1120h-574l-18 -409q98 23 209 22q213 0 327.5 -99t114.5 -277t-115.5 -281t-320.5 -103q-117 0 -225.5 44t-157.5 87l-51 43l63 91q18 -18 50 -44t128.5 -69t192.5 -43q143 0 230 74t87 202t-88 199.5t-243 71.5t-223 -24.5t-68 -26.5l-29 22l29 629h682v-109z" glyph-name="five" horiz-adv-x="1034" unicode="5"/><glyph d="M106 360q0 171 111 345l340 524h141l-305 -467q-25 -42 -57 -66v-10q86 59 203 59q193 0 311.5 -108.5t118.5 -278.5t-120.5 -277.5t-310.5 -107.5t-311 108t-121 279zM545 637q-135 0 -223.5 -70.5t-96.5 -201.5q0 -123 90.5 -203t225.5 -80t222 79t87 201t-85 198.5 t-220 76.5z" glyph-name="six" horiz-adv-x="1032" unicode="6"/><glyph d="M76 1120v109h831v-29l-573 -1200h-141l538 1120h-655z" glyph-name="seven" horiz-adv-x="925" unicode="7"/><glyph d="M550 -29q-202 0 -320.5 103.5t-118.5 257.5q0 109 58 191.5t163 125.5q-174 88 -174 279q0 141 106.5 234t286.5 93t285.5 -93t105.5 -234q0 -188 -174 -279q104 -43 162.5 -126t58.5 -191q0 -154 -118.5 -257.5t-320.5 -103.5zM550 82q144 0 232 72.5t88 184.5 t-89 185.5t-230 73.5t-231.5 -73t-90.5 -185t88.5 -185t232.5 -73zM550 694q126 0 199.5 66t73.5 164t-73.5 159.5t-198.5 61.5t-200 -61.5t-75 -159.5t74 -164t200 -66z" glyph-name="eight" horiz-adv-x="1099" unicode="8"/><glyph d="M926 869q0 -171 -111 -345l-338 -524h-141l311 477q18 32 49 55v7q-88 -57 -200 -58q-195 0 -314 108.5t-119 280.5t121 278.5t312 106.5t310.5 -107.5t119.5 -278.5zM490 592q135 0 227 70.5t92 197.5t-91 207t-226 80t-222.5 -79t-87.5 -201t86.5 -198.5t221.5 -76.5z " glyph-name="nine" horiz-adv-x="1032" unicode="9"/><glyph d="M113 634q0 36 24.5 61.5t61.5 25.5t61.5 -25.5t24.5 -61.5t-24.5 -61.5t-61.5 -25.5t-61.5 25.5t-24.5 61.5zM113 71q0 36 24.5 61.5t61.5 25.5t61.5 -26t24.5 -62t-24.5 -61t-61.5 -25t-61.5 25.5t-24.5 61.5z" glyph-name="colon" horiz-adv-x="399" unicode=":"/><glyph d="M143 70q0 35 25 59.5t61.5 24.5t63 -26t26.5 -66t-28 -99l-88 -156h-86l78 138l26 32v7q-35 4 -56.5 27.5t-21.5 58.5zM145 633q0 35 25.5 61.5t61.5 26.5t61.5 -26.5t25.5 -61.5t-25.5 -60.5t-61.5 -25.5t-61.5 25.5t-25.5 60.5z" glyph-name="semicolon" horiz-adv-x="448" unicode=";"/><glyph d="M575 90l-493 475v47l493 475l70 -71l-444 -428l444 -426z" glyph-name="less" horiz-adv-x="761" unicode="&lt;"/><glyph d="M156 745v97h716v-97h-716zM156 354v97h716v-97h-716z" glyph-name="equal" horiz-adv-x="1026" unicode="="/><glyph d="M680 565l-494 -475l-69 72l444 426l-444 428l69 71l494 -475v-47z" glyph-name="greater" horiz-adv-x="761" unicode=">"/><glyph d="M293 324v88q0 140 66.5 217.5t133 151t66.5 170.5q0 98 -57.5 151t-138.5 53t-137 -16.5t-79 -32.5l-24 -14l-43 90q102 74 267 74t248 -77t83 -206t-71.5 -208t-146 -155t-81.5 -211l-4 -75h-82zM250 71q0 36 25.5 61.5t61.5 25.5t61.5 -26t25.5 -62t-25.5 -61 t-61.5 -25t-61.5 25.5t-25.5 61.5z" glyph-name="question" horiz-adv-x="770" unicode="?"/><glyph d="M938 -500q-389 0 -620.5 250t-231.5 619q0 242 101.5 439.5t299 316t457.5 118.5q195 0 356.5 -66.5t265 -176t160 -246t56.5 -279.5q0 -223 -91.5 -362.5t-260.5 -139.5q-66 0 -116 21.5t-86 66t-36 84.5h-8q-12 -33 -77.5 -97t-220.5 -64t-258.5 103t-103.5 269 t102.5 267.5t260.5 101.5q211 0 291 -158l20 142h80v-478q0 -76 40 -117.5t116 -41.5q119 0 182 108.5t63 282.5q0 285 -201.5 485.5t-535.5 200.5t-546 -221t-212 -556t210 -556.5t544 -221.5q115 0 212 20.5t136 41.5l41 22l41 -86q-16 -10 -47 -25.5t-141.5 -41 t-241.5 -25.5zM1171 355q0 126 -76.5 199t-190.5 73t-188.5 -75t-74.5 -195.5t74.5 -198.5t188.5 -78t190.5 74.5t76.5 200.5z" glyph-name="at" horiz-adv-x="1884" unicode="@"/><glyph d="M10 0l596 1229h29l600 -1229h-133l-117 233h-727l-117 -233h-131zM930 344l-301 647h-17l-286 -624l-13 -23h617z" glyph-name="A" horiz-adv-x="1243" unicode="A"/><glyph d="M1192 336q0 -170 -123 -253t-328 -83h-559v1229h529q207 0 323.5 -84t116.5 -248q0 -100 -53.5 -171t-145.5 -101v-11q111 -29 175.5 -99t64.5 -179zM299 563v-454h444q147 0 238.5 56.5t91.5 168.5t-86 168.5t-223 60.5h-465zM1030 893q0 227 -319 227h-412v-446h426 q143 4 224 59.5t81 159.5z" glyph-name="B" horiz-adv-x="1298" unicode="B"/><glyph d="M731 -29q-281 0 -460 183.5t-179 458.5t179.5 458.5t459.5 183.5q127 0 232.5 -39.5t148.5 -80.5l43 -39l-68 -90q-14 16 -41.5 38.5t-119.5 61.5t-193 39q-229 0 -375.5 -154.5t-146.5 -376.5t146.5 -377t375.5 -155q100 0 188.5 35t127.5 69l38 35l68 -88l-53 -53 q-52 -52 -171.5 -80.5t-199.5 -28.5z" glyph-name="C" horiz-adv-x="1214" unicode="C"/><glyph d="M1251 614.5q0 -282.5 -182 -448.5t-475 -166h-412v1229h412q293 0 475 -166t182 -448.5zM590 1120h-291v-1011h291q236 0 389.5 136t153.5 368t-153.5 369.5t-389.5 137.5z" glyph-name="D" horiz-adv-x="1347" unicode="D"/><glyph d="M979 659v-108h-680v-442h772v-109h-889v1229h889v-109h-772v-461h680z" glyph-name="E" horiz-adv-x="1153" unicode="E"/><glyph d="M182 0v1229h889v-109h-772v-461h684v-108h-684v-551h-117z" glyph-name="F" horiz-adv-x="1136" unicode="F"/><glyph d="M1178 539v12h-488v108h604v-75q0 -283 -152 -448t-428 -165t-449 182.5t-173 460.5t176 459.5t463 181.5q179 0 287 -53t149 -94l17 -16l-68 -88q-88 88 -201.5 114.5t-183.5 26.5q-238 0 -379 -153.5t-141 -379t139.5 -378t359.5 -152.5t344 125t124 332z" glyph-name="G" horiz-adv-x="1382" unicode="G"/><glyph d="M1190 1229v-1229h-117v551h-774v-551h-117v1229h117v-570h774v570h117z" glyph-name="H" horiz-adv-x="1372" unicode="H"/><glyph d="M299 1229v-1229h-117v1229h117z" glyph-name="I" horiz-adv-x="483" unicode="I"/><glyph d="M336 84q293 0 293 326v819h116v-842q0 -205 -104 -310.5t-295 -105.5q-84 0 -170.5 28.5t-124.5 66.5l58 90q92 -72 227 -72z" glyph-name="J" horiz-adv-x="915" unicode="J"/><glyph d="M299 1229v-709l723 709h137v-23l-495 -487l495 -696v-23h-131l-453 633l-276 -273v-360h-117v1229h117z" glyph-name="K" horiz-adv-x="1200" unicode="K"/><glyph d="M1032 0h-850v1229h117v-1120h733v-109z" glyph-name="L" horiz-adv-x="1056" unicode="L"/><glyph d="M1251 0v969l-458 -508h-37l-457 502v-963h-117v1229h37l557 -615l559 615h31v-1229h-115z" glyph-name="M" horiz-adv-x="1550" unicode="M"/><glyph d="M1241 1229v-1229h-37l-905 979v-979h-117v1229h37l905 -977v977h117z" glyph-name="N" horiz-adv-x="1425" unicode="N"/><glyph d="M724 -29q-284 0 -458 182.5t-174 460.5t174 459.5t459 181.5t458 -181.5t173 -459.5t-174 -460.5t-458 -182.5zM725 82q233 0 373.5 153.5t140.5 377.5t-140.5 378t-373.5 154t-373.5 -153.5t-140.5 -379t140.5 -378t373.5 -152.5z" glyph-name="O" horiz-adv-x="1449" unicode="O"/><glyph d="M182 0v1229h492q231 0 358 -104.5t127 -305.5t-130 -309.5t-361 -108.5h-369v-401h-117zM1042 819q0 150 -99 225.5t-271 75.5h-373v-610h373q370 0 370 309z" glyph-name="P" horiz-adv-x="1226" unicode="P"/><glyph d="M725 -29q-285 0 -459 182.5t-174 460.5t174 459.5t459 181.5t458 -182t173 -461q0 -174 -73 -317t-206 -227l107 -158v-21h-125l-84 127q-117 -45 -250 -45zM721 426h121l172 -262q106 72 165.5 189.5t59.5 258.5q0 225 -140.5 379t-373.5 154t-373.5 -153.5t-140.5 -379 t140.5 -378t373.5 -152.5q100 0 186 31l-190 290v23z" glyph-name="Q" horiz-adv-x="1449" unicode="Q"/><glyph d="M182 0v1229h490q233 0 360 -103.5t127 -302.5q0 -152 -81 -249t-222 -134v-8l332 -403v-29h-125l-346 418h-418v-418h-117zM1040 822q0 148 -98 223t-270 75h-373v-594h393q158 0 253 74t95 222z" glyph-name="R" horiz-adv-x="1275" unicode="R"/><glyph d="M909 1044q-141 101 -381 101q-124 0 -217.5 -56.5t-93.5 -150.5t79.5 -144.5t291.5 -109.5t312.5 -143t100.5 -233t-115.5 -243t-339.5 -94t-321.5 56.5t-113.5 70.5l-17 15l66 90q14 -14 42.5 -33.5t126 -53.5t206.5 -34q176 0 262 61.5t86 163.5t-80 158.5t-291 117.5 t-312.5 137t-101.5 220t121 229.5t328 85.5q131 0 237.5 -28.5t147.5 -57.5l41 -28z" glyph-name="S" horiz-adv-x="1087" unicode="S"/><glyph d="M35 1120v109h993v-109h-440v-1120h-115v1120h-438z" glyph-name="T" horiz-adv-x="1060" unicode="T"/><glyph d="M673 -29q-239 0 -374 147.5t-135 393.5v717h117v-717q0 -195 100.5 -312.5t290.5 -117.5t291.5 117.5t101.5 312.5v717h115v-717q0 -248 -134 -394.5t-373 -146.5z" glyph-name="U" horiz-adv-x="1345" unicode="U"/><glyph d="M629 225l190 424l283 580h129l-596 -1229h-29l-596 1229h129l287 -580l188 -424h15z" glyph-name="V" horiz-adv-x="1243" unicode="V"/><glyph d="M518 283l266 946h90l265 -946l16 -82h8l21 82l319 946h123l-426 -1229h-100l-264 942l-7 35h-6l-6 -35l-266 -942h-96l-426 1229h123l321 -946l19 -82h8z" glyph-name="W" horiz-adv-x="1656" unicode="W"/><glyph d="M1061 1229l-422 -598l442 -631h-141l-336 479l-47 86l-49 -86l-334 -479h-137l436 631l-420 598h142l323 -461l39 -76l43 76l322 461h139z" glyph-name="X" horiz-adv-x="1114" unicode="X"/><glyph d="M610 0h-116v471l-480 758h138l364 -580l31 -63h16l33 63l360 580h136l-482 -758v-471z" glyph-name="Y" horiz-adv-x="1105" unicode="Y"/><glyph d="M63 0v29l787 1091h-766v109h958v-29l-778 -1091h758v-109h-959z" glyph-name="Z" horiz-adv-x="1095" unicode="Z"/><glyph d="M164 -324v1704h428v-98h-316v-1507h316v-99h-428z" glyph-name="bracketleft" horiz-adv-x="643" unicode="["/><glyph d="M520 -360l-452 1800h118l453 -1800h-119z" glyph-name="backslash" horiz-adv-x="706" unicode="\"/><glyph d="M51 -324v99h314v1507h-314v98h426v-1704h-426z" glyph-name="bracketright" horiz-adv-x="643" unicode="]"/><glyph d="M127 999v25l250 344h78l250 -344v-25h-80l-209 271l-209 -271h-80z" glyph-name="asciicircum" horiz-adv-x="831" unicode="^"/><glyph d="M98 -139v98h797v-98h-797z" glyph-name="underscore" horiz-adv-x="1001" unicode="_"/><glyph d="M129 1182h143l99 -301v-23h-72l-170 301v23z" glyph-name="grave" horiz-adv-x="520" unicode="`"/><glyph d="M61 209q0 96 81 157.5t238 61.5t249 -72h10v52q0 219 -252 219q-59 0 -112.5 -14.5t-77.5 -28.5l-23 -15l-43 88q87 68 271 68t266 -90t82 -242v-393h-82l-13 92h-8q-12 -18 -36.5 -39.5t-92 -45t-153.5 -23.5q-150 0 -227 64.5t-77 160.5zM176 212q0 -62 53.5 -102 t155.5 -40t176 48t74 101t-71.5 91t-175.5 38t-158 -37t-54 -99z" glyph-name="a" horiz-adv-x="864" unicode="a"/><glyph d="M524 -16q-208 0 -293 151h-4l-16 -135h-82v1368h115v-780h4q5 14 31 42.5t77 61.5t186 33q136 0 237.5 -103.5t101.5 -268.5t-101.5 -267t-255.5 -102zM238 354q0 -125 76.5 -198.5t189 -73.5t187.5 77t75 197t-75 195.5t-187.5 75.5t-189 -74t-76.5 -199z" glyph-name="b" horiz-adv-x="958" unicode="b"/><glyph d="M452 -16q-159 0 -267.5 102t-108.5 266t108.5 268.5t276.5 104.5q66 0 124 -15.5t83 -29.5l24 -16l-35 -89q-73 51 -189 51t-195.5 -75.5t-79.5 -198.5t79.5 -196.5t194.5 -73.5q51 0 99 12t69 25l22 14l33 -88q-79 -61 -238 -61z" glyph-name="c" horiz-adv-x="747" unicode="c"/><glyph d="M715 596v772h114v-1368h-79l-17 129h-6q-5 -16 -34 -46t-82 -64.5t-191 -34.5t-241 103t-103 267t102.5 267.5t238.5 103.5t202 -43.5t83 -71.5l9 -14h4zM723 354q0 125 -78 199t-190.5 74t-187 -76t-74.5 -196t74.5 -196.5t187 -76.5t190.5 73.5t78 198.5z" glyph-name="d" horiz-adv-x="958" unicode="d"/><glyph d="M471 -18q-176 0 -285.5 102t-109.5 268t103 269.5t263 103.5t252 -97.5t92 -252.5v-39h-596q4 -121 85 -189.5t198 -68.5q63 0 118.5 16.5t80.5 32.5l22 14l41 -80q-37 -29 -112.5 -54t-151.5 -25zM441 631q-97 0 -161.5 -54.5t-82.5 -152.5h477q-10 90 -73 148.5 t-160 58.5z" glyph-name="e" horiz-adv-x="851" unicode="e"/><glyph d="M594 616h-277v-616h-114v616h-172v93h172v317q0 338 291 338q74 0 147 -37l-35 -96q-49 27 -98 26q-190 0 -191 -231v-317h277v-93z" glyph-name="f" horiz-adv-x="628" unicode="f"/><glyph d="M432 -485q-178 0 -277.5 72.5t-99.5 191.5q0 150 154 209v8q-141 44 -141 154t114 163q-45 63 -45 162t80 173.5t207 74.5l364 -14v-86h-145v-9q8 -4 19.5 -13t30 -49t18.5 -97q0 -104 -80.5 -178t-196.5 -74t-190 51q-74 -29 -74 -88q0 -111 262 -111q186 0 283.5 -69.5 t97.5 -192.5t-101.5 -200.5t-279.5 -77.5zM433 -39q-126 0 -196.5 -51t-70.5 -127t69.5 -125t197.5 -49t197.5 48t69.5 127t-70.5 128t-196.5 49zM425 629q-87 0 -138 -47t-51 -121t50 -121t138 -47t139 47t51 121t-51 121t-138 47z" glyph-name="g" horiz-adv-x="827" unicode="g"/><glyph d="M129 0v1368h115v-747h4q33 41 98.5 72.5t153.5 31.5q147 0 231 -89t84 -237v-399h-115v385q0 109 -58 175.5t-166 66.5t-167 -61.5t-65 -133.5v-432h-115z" glyph-name="h" horiz-adv-x="931" unicode="h"/><glyph d="M191 1004q-34 0 -56 22.5t-22 55t22.5 56t56.5 23.5t56 -23.5t22 -56t-22.5 -55t-56.5 -22.5zM133 0v709h115v-709h-115z" glyph-name="i" horiz-adv-x="380" unicode="i"/><glyph d="M127 -186v895h117v-899q0 -221 -193 -222q-65 0 -112 27l-17 8l25 88q39 -25 82 -24q98 0 98 127zM185 1004q-34 0 -56.5 22.5t-22.5 55t23 56t57 23.5t55 -22.5t21 -56.5t-21.5 -56t-55.5 -22z" glyph-name="j" horiz-adv-x="370" unicode="j"/><glyph d="M242 332v-332h-115v1368h115v-985h4l334 326h139l-354 -347l409 -362h-162l-366 332h-4z" glyph-name="k" horiz-adv-x="786" unicode="k"/><glyph d="M133 0v1368h115v-1368h-115z" glyph-name="l" horiz-adv-x="380" unicode="l"/><glyph d="M815 412v-412h-115v414q0 96 -58 154.5t-166 58.5t-170 -61.5t-62 -133.5v-432h-115v709h80l14 -115h6q94 131 284 131t267 -147h6q100 147 287 147q147 0 230 -89t83 -237v-399h-114v385q0 109 -58 175.5t-168 66.5t-170.5 -67.5t-60.5 -147.5z" glyph-name="m" horiz-adv-x="1503" unicode="m"/><glyph d="M244 420v-420h-115v709h80l14 -115h6q88 131 271 131q147 0 231 -89t84 -237v-399h-115v385q0 109 -58 175.5t-169 66.5t-170 -66.5t-59 -140.5z" glyph-name="n" horiz-adv-x="931" unicode="n"/><glyph d="M840 350q0 -166 -111 -266t-272.5 -100t-271 100t-109.5 267t109.5 270.5t271 103.5t272.5 -104.5t111 -270.5zM456.5 78q112.5 0 191.5 74.5t79 199.5t-78.5 202t-190.5 77t-190 -77t-78 -202t77 -199.5t189.5 -74.5z" glyph-name="o" horiz-adv-x="915" unicode="o"/><glyph d="M244 113v-506h-115v1102h80l16 -123h11q5 16 69.5 77.5t218.5 61.5t255.5 -102.5t101.5 -267.5t-101.5 -268t-253.5 -103q-96 0 -165.5 32.5t-90.5 65.5l-22 31h-4zM238 354q0 -125 76.5 -198.5t189 -73.5t187.5 75.5t75 195.5t-75 197t-187.5 77t-189 -74t-76.5 -199z " glyph-name="p" horiz-adv-x="958" unicode="p"/><glyph d="M829 709v-1102h-114v514h-4q-5 -14 -31.5 -43t-76.5 -61.5t-187 -32.5q-136 0 -238 103t-102 267t103.5 267.5t258.5 103.5t214.5 -62t72.5 -90h8l15 136h81zM723 354q0 125 -78 199t-190.5 74t-187 -77t-74.5 -197t74.5 -195.5t187 -75.5t190.5 73.5t78 198.5z" glyph-name="q" horiz-adv-x="958" unicode="q"/><glyph d="M244 0h-115v709h80l14 -115h4q80 119 211 119q76 0 127 -29l-39 -92q-38 22 -104 22t-117 -54t-61 -134v-426z" glyph-name="r" horiz-adv-x="573" unicode="r"/><glyph d="M588 185q0 48 -52.5 77t-127 45.5t-148.5 37t-126 65t-52 124.5t75.5 135.5t223.5 55.5q84 0 156.5 -14.5t103.5 -28.5l31 -14l-43 -95q-84 57 -238 58q-199 0 -198 -105q0 -74 125.5 -100.5t200.5 -46t127 -66.5t52 -129t-77.5 -141t-239.5 -59q-94 0 -171 20.5 t-108 40.5l-30 18l47 82q106 -68 262 -67q100 0 153.5 29.5t53.5 77.5z" glyph-name="s" horiz-adv-x="768" unicode="s"/><glyph d="M467 82q38 0 100 31l39 -82q-59 -47 -155 -47q-276 0 -277 309v321h-145v95h145v213h115v-213h291v-95h-291v-319q0 -213 178 -213z" glyph-name="t" horiz-adv-x="630" unicode="t"/><glyph d="M682 289v420h115v-709h-76l-21 113h-6q-10 -20 -31.5 -44t-87 -54.5t-151.5 -30.5q-145 0 -226 89t-81 236v400h114v-385q0 -111 54.5 -176.5t165.5 -65.5t171 66.5t60 140.5z" glyph-name="u" horiz-adv-x="923" unicode="u"/><glyph d="M805 709l-350 -709h-80l-350 709h129l245 -525q10 -18 13 -49h6q2 25 14 49l246 525h127z" glyph-name="v" horiz-adv-x="829" unicode="v"/><glyph d="M358 135h11l12 49l168 525h96l166 -525q10 -27 10 -49h13q0 16 12 49l190 525h113l-279 -709h-96l-168 524q-10 31 -10 43h-6q0 -12 -10 -43l-168 -524h-97l-278 709h121l188 -525q12 -33 12 -49z" glyph-name="w" horiz-adv-x="1185" unicode="w"/><glyph d="M33 0l291 369l-271 340h133l205 -269h4l207 269h129l-270 -340l293 -369h-131l-228 299h-4l-229 -299h-129z" glyph-name="x" horiz-adv-x="786" unicode="x"/><glyph d="M418 135h6q0 25 12 49l246 525h119l-527 -1102h-120l208 424l-331 678h127l248 -525q12 -25 12 -49z" glyph-name="y" horiz-adv-x="829" unicode="y"/><glyph d="M68 612v97h626v-54l-469 -559h469v-96h-628v57l469 555h-467z" glyph-name="z" horiz-adv-x="761" unicode="z"/><glyph d="M47 575h25q55 0 90 44.5t35 123.5v486q0 195 202 213l17 -99q-55 -8 -77 -34.5t-22 -94.5v-481q0 -166 -108 -201v-16q109 -35 108 -199v-481q0 -66 21.5 -93.5t77.5 -35.5l-17 -98q-203 18 -202 213v487q0 78 -35 122t-90 44h-25v100z" glyph-name="braceleft" horiz-adv-x="505" unicode="{"/><glyph d="M272 1378v-1689h-108v1689h108z" glyph-name="bar" horiz-adv-x="436" unicode="|"/><glyph d="M459 475h-27q-53 0 -89 -44t-36 -122v-487q0 -197 -203 -213l-16 98q55 8 76.5 36t21.5 93v481q0 166 111 199v16q-111 33 -111 201v481q0 68 -21.5 94.5t-76.5 34.5l16 99q203 -16 203 -213v-486q0 -80 36 -124t89 -44h27v-100z" glyph-name="braceright" horiz-adv-x="505" unicode="}"/><glyph d="M297 584q-74 0 -135 -43l-39 71q55 63 188 64q51 0 147.5 -26.5t173.5 -26.5t130 41l41 -72q-55 -63 -191 -64q-51 0 -146 28t-169 28z" glyph-name="asciitilde" horiz-adv-x="925" unicode="~"/><glyph glyph-name="uni00A0" horiz-adv-x="436" unicode=" "/><glyph d="M311 0h-147v68l31 835h84l32 -835v-68zM150 1156q0 38 26.5 63.5t63 25.5t63.5 -25.5t27 -63.5t-27 -63.5t-63.5 -25.5t-63 25.5t-26.5 63.5z" glyph-name="exclamdown" horiz-adv-x="477" unicode="¡"/><glyph d="M428 -180v168q-143 18 -233.5 117.5t-90.5 247t89.5 247.5t232.5 121v172h86v-168q61 -2 116.5 -18.5t80.5 -30.5l24 -14l-41 -91q-80 55 -194.5 55.5t-195.5 -75.5t-81 -199t81 -196.5t196 -73.5q51 0 99 13.5t71 27.5l24 12l41 -88q-82 -57 -219 -63v-164h-86z" glyph-name="cent" horiz-adv-x="845" unicode="¢"/><glyph d="M924 115v-105h-787v105q43 14 87 70.5t44 133.5q0 76 -37 173h-131v94h95q-49 129 -50 233q0 168 120 295t343 127q168 0 240.5 -48t97.5 -77l-65 -84q-29 36 -107 67t-160 31q-168 0 -255 -95t-87 -209t50 -240h514v-94h-478q33 -88 33 -148q0 -145 -96 -229h629z" glyph-name="sterling" horiz-adv-x="1046" unicode="£"/><glyph d="M176 610q0 143 90 252l-116 121l77 76l111 -125q115 84 254 84t250 -88l114 129l78 -76l-121 -125q86 -113 86 -250t-84 -248l119 -122l-78 -76l-112 125q-115 -88 -255 -88t-253 86l-109 -123l-77 76l114 118q-88 111 -88 254zM289 609q0 -126 87 -215t212 -89t213 89 t88 214t-88 214t-213 89t-212 -88t-87 -214z" glyph-name="currency" horiz-adv-x="1181" unicode="¤"/><glyph d="M1030 563v-96h-366v-178h366v-94h-366v-195h-117v195h-371v94h371v178h-371v96h311l-419 666h137l364 -580l31 -63h16l33 63l361 580h135l-424 -666h309z" glyph-name="yen" horiz-adv-x="1212" unicode="¥"/><glyph d="M274 -311h-110v1689h110v-1689z" glyph-name="brokenbar" horiz-adv-x="438" unicode="¦"/><glyph d="M539 -303q164 0 244.5 65.5t80.5 161.5t-69.5 154t-251.5 126t-253 125.5t-71 158.5t82 159q-190 102 -190 275q0 150 113.5 241.5t332.5 91.5q131 0 236.5 -31.5t144.5 -64.5l41 -31l-66 -96q-14 12 -40.5 31.5t-118.5 52.5t-222 33t-210 -61.5t-80 -154.5t70 -156.5 t232 -118.5t251.5 -121t89.5 -166.5t-72 -171.5q182 -109 182 -277q0 -141 -111.5 -237.5t-340.5 -96.5q-177 0 -286.5 49.5t-154.5 88.5l-18 16l66 90q83 -83 201 -109t188 -26zM766 367q0 130 -281 204q-37 10 -86 29q-66 -29 -65 -111q0 -55 55 -97t172 -84t152 -58 q53 45 53 117z" glyph-name="section" horiz-adv-x="1083" unicode="§"/><glyph d="M145 989q0 33 24 56.5t56.5 23.5t56 -23.5t23.5 -56.5t-23.5 -56.5t-56 -23.5t-56.5 23.5t-24 56.5zM510 989q0 33 23.5 56.5t56.5 23.5t56.5 -23.5t23.5 -56.5t-23.5 -56.5t-56.5 -23.5t-56.5 23.5t-23.5 56.5z" glyph-name="dieresis" horiz-adv-x="815" unicode="¨"/><glyph d="M739.5 1237q290.5 0 465.5 -180t175 -444.5t-175 -443.5t-465.5 -179t-466 179t-175.5 443.5t175.5 444.5t466 180zM740 1163q-255 0 -408.5 -158.5t-153.5 -392t153.5 -391.5t408.5 -158t409 158t154 391.5t-154 392t-409 158.5zM753 866q-116 0 -185.5 -71t-69.5 -179 t69.5 -179.5t186.5 -71.5q49 0 92 14t61 27l19 14l47 -60q-28 -28 -91 -51.5t-132 -23.5q-156 0 -248 94t-92 236t92 236.5t248 94.5q70 0 125 -18.5t75 -38.5l23 -19l-47 -59q-57 55 -173 55z" glyph-name="copyright" horiz-adv-x="1480" unicode="©"/><glyph d="M396 1171q-118 0 -228 -47l-31 80q127 53 281 53q302 0 301 -325v-371h-72l-16 76h-8q-82 -92 -263 -92q-125 0 -201.5 57.5t-76.5 154.5t81 154.5t235 57.5t220 -74v41q0 119 -52 177t-170 58zM180 759.5q0 -65.5 55.5 -102t154.5 -36.5t163.5 43t64.5 99t-62 96 t-162 40t-157 -37t-57 -102.5z" glyph-name="ordfeminine" horiz-adv-x="839" unicode="ª"/><glyph d="M406 688v-16l-216 -314v-10l216 -317v-17h-103l-217 318v39l217 317h103zM737 688v-16l-215 -314v-10l215 -317v-17h-100l-217 318v39l217 317h100z" glyph-name="guillemotleft" horiz-adv-x="825" unicode="«"/><glyph d="M70 612v99h874v-711h-98v612h-776z" glyph-name="logicalnot" horiz-adv-x="1120" unicode="¬"/><glyph d="M1069 778.5q0 -200.5 -133 -338t-352 -137.5t-351.5 138.5t-132.5 338.5t131 336.5t351 136.5t353.5 -137t133.5 -337.5zM987 778q0 172 -111.5 287t-292.5 115t-292 -113t-111 -287t111.5 -287.5t292 -113.5t292 113.5t111.5 285.5zM403 993h189q84 0 135 -40t51 -109 q0 -96 -86 -133l90 -115v-16h-67l-90 114q-14 -2 -39 -2h-115v-112h-68v413zM592 932h-121v-180h117q121 0 121 90t-117 90z" glyph-name="registered" horiz-adv-x="1167" unicode="®"/><glyph d="M227 911v78h533v-78h-533z" glyph-name="macron" horiz-adv-x="966" unicode="¯"/><glyph d="M323.5 1376q106.5 0 173 -63.5t66.5 -157.5t-66.5 -156.5t-173 -62.5t-173 62.5t-66.5 156.5t66.5 157.5t173 63.5zM323 1307q-73 0 -118 -43.5t-45 -107.5t45 -106t118 -42t118.5 42t45.5 105.5t-45.5 107.5t-118.5 44z" glyph-name="degree" horiz-adv-x="647" unicode="°"/><glyph d="M627 338h-99v362h-385v99h385v370h99v-370h374v-99h-374v-362zM1001 188v-98h-858v98h858z" glyph-name="plusminus" horiz-adv-x="1144" unicode="±"/><glyph d="M57 700v33l322 289q82 72 82 147q0 135 -164 136q-49 0 -95 -17.5t-68.5 -34t-24.5 -20.5l-46 65q32 32 103.5 60t136.5 28q127 0 187.5 -57t60.5 -156t-102 -192l-230 -203h373v-78h-535z" glyph-name="uni00B2" horiz-adv-x="647" unicode="²"/><glyph d="M80 1290v78h475v-27l-166 -243q96 -8 147.5 -59.5t51.5 -141.5t-71 -151.5t-200 -61.5q-70 0 -145.5 28.5t-116.5 65.5l49 64q84 -76 211 -76q88 0 136.5 38t48.5 97q0 125 -156 129h-78v29l160 231h-346z" glyph-name="uni00B3" horiz-adv-x="645" unicode="³"/><glyph d="M115 858v23l98 301h143v-23l-170 -301h-71z" glyph-name="acute" horiz-adv-x="505" unicode="´"/><glyph d="M276 -393h-114v1102h114v-385q0 -111 54.5 -176.5t165.5 -65.5t171 66.5t60 140.5v420h115v-709h-76l-21 113h-6q-10 -20 -31.5 -44t-86.5 -54.5t-167 -30.5t-178 57v-434z" glyph-name="uni00B5" horiz-adv-x="1015" unicode="µ"/><glyph d="M707 -358v583h-160q-227 0 -354 104.5t-127 302.5t123.5 299t353.5 101h280v-1390h-116z" glyph-name="paragraph" horiz-adv-x="1019" unicode="¶"/><glyph d="M53 737q0 37 26.5 62.5t63.5 25.5t62.5 -25.5t25.5 -62.5t-25.5 -63.5t-62.5 -26.5t-63.5 26.5t-26.5 63.5z" glyph-name="periodcentered" horiz-adv-x="284" unicode="·"/><glyph d="M371 -190.5q0 -63.5 -43 -101.5t-123 -38t-125 39l-14 15l28 53q45 -43 113 -43q94 0 94 78q0 35 -25.5 54t-64.5 19l-41 -8l-29 35l49 92h74l-35 -65q61 0 101.5 -33t40.5 -96.5z" glyph-name="cedilla" horiz-adv-x="442" unicode="¸"/><glyph d="M41 1290v78h240v-668h-88v590h-152z" glyph-name="uni00B9" horiz-adv-x="391" unicode="¹"/><glyph d="M437 1255q155 0 254.5 -97t99.5 -255t-99.5 -254t-254.5 -96t-254 96t-99 254t99 255t254 97zM438 1167q-115 0 -185.5 -72.5t-70.5 -191.5t71 -191.5t185 -72.5t184 71.5t70 192.5t-69.5 192.5t-184.5 71.5z" glyph-name="ordmasculine" horiz-adv-x="874" unicode="º"/><glyph d="M88 14v17l215 317v10l-215 314v16h102l218 -317v-39l-218 -318h-102zM422 14v17l213 317v10l-213 314v16h100l217 -317v-39l-217 -318h-100z" glyph-name="guillemotright" horiz-adv-x="825" unicode="»"/><glyph d="M659 186v54l383 428h64v-406h111v-76h-111v-186h-82v186h-365zM211 16l-64 54l961 1155l66 -54zM80 1151v78h239v-668h-86v590h-153zM1024 262v277h-4l-176 -205l-72 -78l109 6h143z" glyph-name="onequarter" horiz-adv-x="1292" unicode="¼"/><glyph d="M1264 462q0 142 -164 142q-49 0 -95.5 -17.5t-69 -33.5t-24.5 -21l-45 66l27 23q29 23 88 44t125 21q127 0 188.5 -58.5t61.5 -155.5t-105 -191l-229 -203h371v-78h-535v33l324 289q82 72 82 140zM215 16l-63 54l960 1155l66 -54zM84 1151v78h240v-668h-86v590h-154z" glyph-name="onehalf" horiz-adv-x="1466" unicode="½"/><glyph d="M874 186v54l383 428h64v-406h111v-76h-111v-186h-84v186h-363zM111 1151v78h475v-27l-166 -244q96 -8 147 -59t51 -141t-70.5 -151.5t-199.5 -61.5q-70 0 -148.5 29.5t-113.5 64.5l49 63q86 -76 211 -75q88 0 136 37.5t48 97.5q0 129 -161 129h-72v29l160 231h-346z M395 16l-63 54l960 1155l64 -54zM1237 262v277h-2l-176 -205l-72 -78l109 6h141z" glyph-name="threequarters" horiz-adv-x="1509" unicode="¾"/><glyph d="M479 915v-90q0 -139 -67.5 -216t-134 -150.5t-66.5 -170.5q0 -98 56.5 -151t138.5 -53q148 0 221 47l22 16l41 -92q-102 -71 -267 -71t-247 75.5t-82 207.5t71 208t145 153.5t81 211.5l4 75h84zM520 1168q0 -36 -25.5 -61.5t-62.5 -25.5t-61.5 25.5t-24.5 61.5t24.5 61.5 t61.5 25.5t62.5 -25.5t25.5 -61.5z" glyph-name="questiondown" horiz-adv-x="770" unicode="¿"/><glyph d="M10 0l596 1229h29l600 -1229h-133l-117 233h-727l-117 -233h-131zM930 344l-301 647h-17l-286 -624l-13 -23h617zM412 1630h143l98 -301v-22h-71l-170 301v22z" glyph-name="Agrave" horiz-adv-x="1243" unicode="À"/><glyph d="M10 0l596 1229h29l600 -1229h-133l-117 233h-727l-117 -233h-131zM930 344l-301 647h-17l-286 -624l-13 -23h617zM586 1307v22l98 301h143v-22l-170 -301h-71z" glyph-name="Aacute" horiz-adv-x="1243" unicode="Á"/><glyph d="M326 1307v22l225 301h129l225 -301v-22h-74l-215 227l-217 -227h-73zM10 0l596 1229h29l600 -1229h-133l-117 233h-727l-117 -233h-131zM930 344l-301 647h-17l-286 -624l-13 -23h617z" glyph-name="Acircumflex" horiz-adv-x="1243" unicode="Â"/><glyph d="M10 0l596 1229h29l600 -1229h-133l-117 233h-727l-117 -233h-131zM930 344l-301 647h-17l-286 -624l-13 -23h617zM754 1333q-59 0 -144.5 51.5t-123.5 51.5t-54 -19.5t-29 -56.5l-8 -27l-82 8l11 45q29 139 153 140q57 0 142.5 -50.5t121.5 -50.5q68 0 86 76l7 25l81 -8 l-8 -43q-26 -142 -153 -142z" glyph-name="Atilde" horiz-adv-x="1243" unicode="Ã"/><glyph d="M350 1464.5q0 32.5 23.5 56t56.5 23.5t56.5 -23.5t23.5 -56t-23.5 -56.5t-56.5 -24t-56.5 24t-23.5 56.5zM715 1464.5q0 32.5 23.5 56t56 23.5t56 -23.5t23.5 -56t-23.5 -56.5t-56 -24t-56 24t-23.5 56.5zM10 0l596 1229h29l600 -1229h-133l-117 233h-727l-117 -233h-131 zM930 344l-301 647h-17l-286 -624l-13 -23h617z" glyph-name="Adieresis" horiz-adv-x="1243" unicode="Ä"/><glyph d="M434 1386q0 72 54 124.5t132 52.5t130.5 -51.5t52.5 -125.5t-44 -123t-112 -59l588 -1204h-133l-117 233h-727l-117 -233h-131l584 1202q-70 10 -115 61t-45 123zM930 344l-301 647h-17l-286 -624l-13 -23h617zM723 1382.5q0 47.5 -27.5 76t-75.5 28.5t-77 -28.5t-29 -76 t28.5 -76t76.5 -28.5t76 28.5t28 76z" glyph-name="Aring" horiz-adv-x="1245" unicode="Å"/><glyph d="M1774 1229v-109h-773v-461h678v-108h-678v-442h773v-109h-889v233h-600l-164 -233h-141l892 1229h902zM885 344v696h-15l-508 -696h523z" glyph-name="AE" horiz-adv-x="1855" unicode="Æ"/><glyph d="M92 620q0 268 179.5 451.5t459.5 183.5q127 0 232.5 -39.5t148.5 -80.5l43 -39l-68 -90q-14 16 -41.5 38.5t-119.5 61.5t-193 39q-229 0 -375.5 -154.5t-146.5 -376.5t146.5 -377t375.5 -155q100 0 188.5 35t127.5 69l38 35l68 -88l-50 -50q-50 -50 -163 -80t-188 -32 l-17 -32q61 0 101.5 -33t40.5 -96.5t-43 -101.5t-123 -38t-125 39l-15 15l29 53q45 -43 113 -43q94 0 94 78q0 35 -25.5 54t-64.5 19l-41 -8l-29 35l33 61q-260 18 -425 198.5t-165 448.5z" glyph-name="Ccedilla" horiz-adv-x="1214" unicode="Ç"/><glyph d="M979 659v-108h-680v-442h772v-109h-889v1229h889v-109h-772v-461h680zM446 1628h144l98 -301v-22h-72l-170 301v22z" glyph-name="Egrave" horiz-adv-x="1153" unicode="È"/><glyph d="M580 1307v22l98 301h143v-22l-170 -301h-71zM979 659v-108h-680v-442h772v-109h-889v1229h889v-109h-772v-461h680z" glyph-name="Eacute" horiz-adv-x="1153" unicode="É"/><glyph d="M352 1307v22l226 301h129l225 -301v-22h-74l-215 227l-217 -227h-74zM979 659v-108h-680v-442h772v-109h-889v1229h889v-109h-772v-461h680z" glyph-name="Ecircumflex" horiz-adv-x="1153" unicode="Ê"/><glyph d="M377 1444q0 33 23.5 56.5t56 23.5t56.5 -23.5t24 -56.5t-24 -56.5t-56.5 -23.5t-56 23.5t-23.5 56.5zM741 1444q0 33 23.5 56.5t56.5 23.5t56.5 -23.5t23.5 -56.5t-23.5 -56.5t-56.5 -23.5t-56.5 23.5t-23.5 56.5zM979 659v-108h-680v-442h772v-109h-889v1229h889v-109 h-772v-461h680z" glyph-name="Edieresis" horiz-adv-x="1153" unicode="Ë"/><glyph d="M299 1229v-1229h-117v1229h117zM33 1628h143l98 -301v-22h-71l-170 301v22z" glyph-name="Igrave" horiz-adv-x="483" unicode="Ì"/><glyph d="M299 1229v-1229h-117v1229h117zM205 1307v22l98 301h143v-22l-170 -301h-71z" glyph-name="Iacute" horiz-adv-x="483" unicode="Í"/><glyph d="M-45 1307v22l225 301h129l226 -301v-22h-74l-215 227l-217 -227h-74zM299 1231v-1229h-117v1229h117z" glyph-name="Icircumflex" horiz-adv-x="483" unicode="Î"/><glyph d="M-16 1444q0 33 23.5 56.5t56 23.5t56 -23.5t23.5 -56.5t-23.5 -56.5t-56 -23.5t-56 23.5t-23.5 56.5zM348 1444q0 33 23.5 56.5t56.5 23.5t56.5 -23.5t23.5 -56.5t-23.5 -56.5t-56.5 -23.5t-56.5 23.5t-23.5 56.5zM299 1229v-1229h-117v1229h117z" glyph-name="Idieresis" horiz-adv-x="483" unicode="Ï"/><glyph d="M41 567v95h158v567h411q293 0 475.5 -166t182.5 -448.5t-182.5 -448.5t-475.5 -166h-411v567h-158zM606 1120h-291v-458h281v-95h-281v-458h291q236 0 389.5 136t153.5 368t-153.5 369.5t-389.5 137.5z" glyph-name="Eth" horiz-adv-x="1363" unicode="Ð"/><glyph d="M1241 1229v-1229h-37l-905 979v-979h-117v1229h37l905 -977v977h117zM844 1364q-59 0 -144.5 51t-123.5 51t-54 -19.5t-28 -55.5l-9 -27l-82 8l11 45q29 139 153 139q57 0 142.5 -50t121.5 -50q68 0 87 76l6 24l82 -8l-9 -43q-26 -141 -153 -141z" glyph-name="Ntilde" horiz-adv-x="1425" unicode="Ñ"/><glyph d="M514 1630h143l99 -301v-22h-72l-170 301v22zM724 -29q-284 0 -458 182.5t-174 460.5t174 459.5t459 181.5t458 -181.5t173 -459.5t-174 -460.5t-458 -182.5zM725 82q233 0 373.5 153.5t140.5 377.5t-140.5 378t-373.5 154t-373.5 -153.5t-140.5 -379t140.5 -378 t373.5 -152.5z" glyph-name="Ograve" horiz-adv-x="1449" unicode="Ò"/><glyph d="M696 1307v22l99 301h143v-22l-170 -301h-72zM724 -29q-284 0 -458 182.5t-174 460.5t174 459.5t459 181.5t458 -181.5t173 -459.5t-174 -460.5t-458 -182.5zM725 82q233 0 373.5 153.5t140.5 377.5t-140.5 378t-373.5 154t-373.5 -153.5t-140.5 -379t140.5 -378 t373.5 -152.5z" glyph-name="Oacute" horiz-adv-x="1449" unicode="Ó"/><glyph d="M436 1307v22l226 301h129l225 -301v-22h-74l-215 227l-217 -227h-74zM724 -29q-284 0 -458 182.5t-174 460.5t174 459.5t459 181.5t458 -181.5t173 -459.5t-174 -460.5t-458 -182.5zM725 82q233 0 373.5 153.5t140.5 377.5t-140.5 378t-373.5 154t-373.5 -153.5 t-140.5 -379t140.5 -378t373.5 -152.5z" glyph-name="Ocircumflex" horiz-adv-x="1449" unicode="Ô"/><glyph d="M724 -29q-284 0 -458 182.5t-174 460.5t174 459.5t459 181.5t458 -181.5t173 -459.5t-174 -460.5t-458 -182.5zM725 82q233 0 373.5 153.5t140.5 377.5t-140.5 378t-373.5 154t-373.5 -153.5t-140.5 -379t140.5 -378t373.5 -152.5zM864 1362q-59 0 -144 51t-123 51 t-54.5 -19.5t-28.5 -55.5l-8 -27l-82 8l10 45q29 139 154 139q57 0 142 -50t122 -50q68 0 86 76l6 24l82 -8l-8 -43q-27 -141 -154 -141z" glyph-name="Otilde" horiz-adv-x="1449" unicode="Õ"/><glyph d="M463 1442q0 33 23.5 56.5t56 23.5t56.5 -23.5t24 -56.5t-24 -56.5t-56.5 -23.5t-56 23.5t-23.5 56.5zM827 1442q0 33 23.5 56.5t56.5 23.5t56.5 -23.5t23.5 -56.5t-23.5 -56.5t-56.5 -23.5t-56.5 23.5t-23.5 56.5zM724 -29q-284 0 -458 182.5t-174 460.5t174 459.5 t459 181.5t458 -181.5t173 -459.5t-174 -460.5t-458 -182.5zM725 82q233 0 373.5 153.5t140.5 377.5t-140.5 378t-373.5 154t-373.5 -153.5t-140.5 -379t140.5 -378t373.5 -152.5z" glyph-name="Odieresis" horiz-adv-x="1449" unicode="Ö"/><glyph d="M201 223l-70 70l328 328l-328 329l70 70l327 -330l330 330l70 -70l-330 -329l330 -328l-70 -70l-330 328z" glyph-name="multiply" horiz-adv-x="1058" unicode="×"/><glyph d="M736 -29q-272 0 -443 156l-127 -125l-68 70l129 127q-135 174 -135 413q0 279 174 461t444 182t441 -153l113 110l67 -69l-112 -111q137 -176 137 -436t-174 -442.5t-446 -182.5zM736 82q222 0 362.5 153.5t140.5 362.5t-106 350l-756 -739q137 -127 359 -127zM211 628 q0 -209 102 -347l754 739q-137 125 -356 125t-359.5 -154t-140.5 -363z" glyph-name="Oslash" horiz-adv-x="1445" unicode="Ø"/><glyph d="M673 -29q-239 0 -374 147.5t-135 393.5v717h117v-717q0 -195 100.5 -312.5t290.5 -117.5t291.5 117.5t101.5 312.5v717h115v-717q0 -248 -134 -394.5t-373 -146.5zM467 1630h143l99 -301v-22h-72l-170 301v22z" glyph-name="Ugrave" horiz-adv-x="1345" unicode="Ù"/><glyph d="M637 1307v22l98 301h144v-22l-170 -301h-72zM673 -29q-239 0 -374 147.5t-135 393.5v717h117v-717q0 -195 100.5 -312.5t290.5 -117.5t291.5 117.5t101.5 312.5v717h115v-717q0 -248 -134 -394.5t-373 -146.5z" glyph-name="Uacute" horiz-adv-x="1345" unicode="Ú"/><glyph d="M383 1307v22l225 301h129l226 -301v-22h-74l-215 227l-217 -227h-74zM673 -29q-239 0 -374 147.5t-135 393.5v717h117v-717q0 -195 100.5 -312.5t290.5 -117.5t291.5 117.5t101.5 312.5v717h115v-717q0 -248 -134 -394.5t-373 -146.5z" glyph-name="Ucircumflex" horiz-adv-x="1345" unicode="Û"/><glyph d="M412 1446q0 33 23.5 56.5t56 23.5t56 -23.5t23.5 -56.5t-23.5 -56.5t-56 -23.5t-56 23.5t-23.5 56.5zM776 1446q0 33 23.5 56.5t56.5 23.5t56.5 -23.5t23.5 -56.5t-23.5 -56.5t-56.5 -23.5t-56.5 23.5t-23.5 56.5zM673 -29q-239 0 -374 147.5t-135 393.5v717h117v-717 q0 -195 100.5 -312.5t290.5 -117.5t291.5 117.5t101.5 312.5v717h115v-717q0 -248 -134 -394.5t-373 -146.5z" glyph-name="Udieresis" horiz-adv-x="1345" unicode="Ü"/><glyph d="M610 0h-116v471l-480 758h138l364 -580l31 -63h16l33 63l360 580h136l-482 -758v-471zM516 1307v22l98 301h144v-22l-170 -301h-72z" glyph-name="Yacute" horiz-adv-x="1105" unicode="Ý"/><glyph d="M299 1229v-205h375q231 0 358 -104.5t127 -305.5t-130 -309t-361 -108h-369v-197h-117v1229h117zM1040 616q0 150 -98 224.5t-270 74.5h-373v-608h373q368 0 368 309z" glyph-name="Thorn" horiz-adv-x="1222" unicode="Þ"/><glyph d="M244 616v-616h-115v948q0 344 307 344q67 0 139 -32l-34 -97q-47 25 -99 25q-199 0 -198 -232v-245h602v-25l-266 -324q135 -8 217 -77.5t82 -203.5t-95.5 -215t-240.5 -81t-207 31l-23 10l27 84q74 -31 182 -31t171 57.5t63 149.5t-65.5 145.5t-172.5 53.5h-92v47 l231 284h-413z" glyph-name="germandbls" horiz-adv-x="946" unicode="ß"/><glyph d="M61 209q0 96 81 157.5t238 61.5t249 -72h10v52q0 219 -252 219q-59 0 -112.5 -14.5t-77.5 -28.5l-23 -15l-43 88q87 68 271 68t266 -90t82 -242v-393h-82l-13 92h-8q-12 -18 -36.5 -39.5t-92 -45t-153.5 -23.5q-150 0 -227 64.5t-77 160.5zM176 212q0 -62 53.5 -102 t155.5 -40t176 48t74 101t-71.5 91t-175.5 38t-158 -37t-54 -99zM213 1182h143l99 -301v-23h-72l-170 301v23z" glyph-name="agrave" horiz-adv-x="864" unicode="à"/><glyph d="M61 209q0 96 81 157.5t238 61.5t249 -72h10v52q0 219 -252 219q-59 0 -112.5 -14.5t-77.5 -28.5l-23 -15l-43 88q87 68 271 68t266 -90t82 -242v-393h-82l-13 92h-8q-12 -18 -36.5 -39.5t-92 -45t-153.5 -23.5q-150 0 -227 64.5t-77 160.5zM176 212q0 -62 53.5 -102 t155.5 -40t176 48t74 101t-71.5 91t-175.5 38t-158 -37t-54 -99zM389 858v23l98 301h144v-23l-170 -301h-72z" glyph-name="aacute" horiz-adv-x="864" unicode="á"/><glyph d="M61 209q0 96 81 157.5t238 61.5t249 -72h10v52q0 219 -252 219q-59 0 -112.5 -14.5t-77.5 -28.5l-23 -15l-43 88q87 68 271 68t266 -90t82 -242v-393h-82l-13 92h-8q-12 -18 -36.5 -39.5t-92 -45t-153.5 -23.5q-150 0 -227 64.5t-77 160.5zM176 212q0 -62 53.5 -102 t155.5 -40t176 48t74 101t-71.5 91t-175.5 38t-158 -37t-54 -99zM139 858v23l226 301h129l225 -301v-23h-74l-215 227l-217 -227h-74z" glyph-name="acircumflex" horiz-adv-x="864" unicode="â"/><glyph d="M61 209q0 96 81 157.5t238 61.5t249 -72h10v52q0 219 -252 219q-59 0 -112.5 -14.5t-77.5 -28.5l-23 -15l-43 88q87 68 271 68t266 -90t82 -242v-393h-82l-13 92h-8q-12 -18 -36.5 -39.5t-92 -45t-153.5 -23.5q-150 0 -227 64.5t-77 160.5zM176 212q0 -62 53.5 -102 t155.5 -40t176 48t74 101t-71.5 91t-175.5 38t-158 -37t-54 -99zM551 911q-59 0 -144 51.5t-123 51.5t-54.5 -19.5t-28.5 -56.5l-8 -27l-82 9l10 45q29 139 153 139q57 0 142.5 -50t122.5 -50q68 0 86 75l6 25l82 -8l-8 -43q-27 -142 -154 -142z" glyph-name="atilde" horiz-adv-x="864" unicode="ã"/><glyph d="M61 209q0 96 81 157.5t238 61.5t249 -72h10v52q0 219 -252 219q-59 0 -112.5 -14.5t-77.5 -28.5l-23 -15l-43 88q87 68 271 68t266 -90t82 -242v-393h-82l-13 92h-8q-12 -18 -36.5 -39.5t-92 -45t-153.5 -23.5q-150 0 -227 64.5t-77 160.5zM176 212q0 -62 53.5 -102 t155.5 -40t176 48t74 101t-71.5 91t-175.5 38t-158 -37t-54 -99zM147 989q0 33 24 56.5t56.5 23.5t56 -23.5t23.5 -56.5t-23.5 -56.5t-56 -23.5t-56.5 23.5t-24 56.5zM512 989q0 33 23.5 56.5t56.5 23.5t56.5 -23.5t23.5 -56.5t-23.5 -56.5t-56.5 -23.5t-56.5 23.5 t-23.5 56.5z" glyph-name="adieresis" horiz-adv-x="864" unicode="ä"/><glyph d="M61 209q0 96 81 157.5t238 61.5t249 -72h10v52q0 219 -252 219q-59 0 -112.5 -14.5t-77.5 -28.5l-23 -15l-43 88q87 68 271 68t266 -90t82 -242v-393h-82l-13 92h-8q-12 -18 -36.5 -39.5t-92 -45t-153.5 -23.5q-150 0 -227 64.5t-77 160.5zM176 212q0 -62 53.5 -102 t155.5 -40t176 48t74 101t-71.5 91t-175.5 38t-158 -37t-54 -99zM431 887q-79 0 -132 52t-53 128t53 128t132 52t131 -51t52 -129t-52 -129t-131 -51zM535 1067q0 47 -28 75.5t-76 28.5t-76.5 -28.5t-28.5 -75.5t28.5 -75.5t76.5 -28.5t76 28.5t28 75.5z" glyph-name="aring" horiz-adv-x="864" unicode="å"/><glyph d="M1038 -18q-215 0 -327 151q-100 -150 -336 -149q-154 0 -234 64.5t-80 161.5t79.5 156.5t237.5 59.5t249 -74h8v47q0 231 -248 232q-105 0 -194 -41l-25 -15l-39 87q106 63 281 63q219 0 299 -147q102 147 299 147q164 0 255 -96.5t91 -253.5v-37h-596q4 -123 84 -192.5 t196 -69.5q63 0 119.5 15t81.5 32l25 14l41 -78q-37 -29 -114 -53t-153 -24zM172 211q0 -139 213 -139q100 0 175 43t75 99t-76 93t-174 37q-213 0 -213 -133zM1010 631q-100 0 -165 -55.5t-81 -155.5h477q-8 92 -69.5 151.5t-161.5 59.5z" glyph-name="ae" horiz-adv-x="1421" unicode="æ"/><glyph d="M76 360q0 156 108.5 260.5t276.5 104.5q66 0 124 -15.5t83 -29.5l24 -16l-35 -89q-73 51 -189 51t-195.5 -75.5t-79.5 -198.5t79.5 -196.5t194.5 -73.5q51 0 99 12t69 25l22 14l33 -88q-76 -57 -217 -61l-22 -45q61 0 101 -33t40 -96.5t-43 -101.5t-123 -38t-125 39 l-14 15l28 53q45 -43 113 -43q94 0 94 78q0 35 -25.5 54t-64.5 19l-41 -8l-29 35l39 76q-145 16 -235 116t-90 256z" glyph-name="ccedilla" horiz-adv-x="747" unicode="ç"/><glyph d="M471 -18q-176 0 -285.5 102t-109.5 268t103 269.5t263 103.5t252 -97.5t92 -252.5v-39h-596q4 -121 85 -189.5t198 -68.5q63 0 118.5 16.5t80.5 32.5l22 14l41 -80q-37 -29 -112.5 -54t-151.5 -25zM441 631q-97 0 -161.5 -54.5t-82.5 -152.5h477q-10 90 -73 148.5 t-160 58.5zM231 1182h144l98 -301v-23h-72l-170 301v23z" glyph-name="egrave" horiz-adv-x="851" unicode="è"/><glyph d="M408 858v23l98 301h143v-23l-170 -301h-71zM471 -18q-176 0 -285.5 102t-109.5 268t103 269.5t263 103.5t252 -97.5t92 -252.5v-39h-596q4 -121 85 -189.5t198 -68.5q63 0 118.5 16.5t80.5 32.5l22 14l41 -80q-37 -29 -112.5 -54t-151.5 -25zM441 631q-97 0 -161.5 -54.5 t-82.5 -152.5h477q-10 90 -73 148.5t-160 58.5z" glyph-name="eacute" horiz-adv-x="851" unicode="é"/><glyph d="M156 858v23l225 301h129l225 -301v-23h-73l-216 227l-217 -227h-73zM471 -18q-176 0 -285.5 102t-109.5 268t103 269.5t263 103.5t252 -97.5t92 -252.5v-39h-596q4 -121 85 -189.5t198 -68.5q63 0 118.5 16.5t80.5 32.5l22 14l41 -80q-37 -29 -112.5 -54t-151.5 -25z M441 631q-97 0 -161.5 -54.5t-82.5 -152.5h477q-10 90 -73 148.5t-160 58.5z" glyph-name="ecircumflex" horiz-adv-x="851" unicode="ê"/><glyph d="M184 989q0 33 23.5 56.5t56.5 23.5t56.5 -23.5t23.5 -56.5t-23.5 -56.5t-56.5 -23.5t-56.5 23.5t-23.5 56.5zM549 989q0 33 23.5 56.5t56.5 23.5t56.5 -23.5t23.5 -56.5t-23.5 -56.5t-56.5 -23.5t-56.5 23.5t-23.5 56.5zM471 -18q-176 0 -285.5 102t-109.5 268t103 269.5 t263 103.5t252 -97.5t92 -252.5v-39h-596q4 -121 85 -189.5t198 -68.5q63 0 118.5 16.5t80.5 32.5l22 14l41 -80q-37 -29 -112.5 -54t-151.5 -25zM441 631q-97 0 -161.5 -54.5t-82.5 -152.5h477q-10 90 -73 148.5t-160 58.5z" glyph-name="edieresis" horiz-adv-x="851" unicode="ë"/><glyph d="M133 0v709h115v-709h-115zM-20 1182h143l98 -301v-23h-71l-170 301v23z" glyph-name="igrave" horiz-adv-x="380" unicode="ì"/><glyph d="M158 858v23l98 301h143v-23l-170 -301h-71zM133 0v709h115v-709h-115z" glyph-name="iacute" horiz-adv-x="380" unicode="í"/><glyph d="M-98 858v23l225 301h129l225 -301v-23h-73l-215 227l-218 -227h-73zM133 0v709h115v-709h-115z" glyph-name="icircumflex" horiz-adv-x="380" unicode="î"/><glyph d="M-68 989q0 33 24 56.5t56.5 23.5t56 -23.5t23.5 -56.5t-23.5 -56.5t-56 -23.5t-56.5 23.5t-24 56.5zM297 989q0 33 23.5 56.5t56.5 23.5t56.5 -23.5t23.5 -56.5t-23.5 -56.5t-56.5 -23.5t-56.5 23.5t-23.5 56.5zM133 0v709h115v-709h-115z" glyph-name="idieresis" horiz-adv-x="380" unicode="ï"/><glyph d="M303 1229h109l106 -164l211 121l39 -70l-205 -117l219 -331q39 -61 75 -125.5t36 -192.5q0 -168 -113.5 -270.5t-295.5 -102.5t-295 102.5t-113 266.5t113.5 269.5t299.5 105.5q94 0 164 -35q-29 29 -80 113l-98 149l-239 -137l-41 70l235 135l-127 194v19zM484 76 q126 0 209 77.5t83 199.5t-84 196t-208 74t-207.5 -78t-83.5 -196t82.5 -195.5t208.5 -77.5z" glyph-name="eth" horiz-adv-x="968" unicode="ð"/><glyph d="M244 420v-420h-115v709h80l14 -115h6q88 131 271 131q147 0 231 -89t84 -237v-399h-115v385q0 109 -58 175.5t-169 66.5t-170 -66.5t-59 -140.5zM629 911q-59 0 -144.5 51.5t-123.5 51.5t-54 -19.5t-28 -56.5l-9 -27l-82 9l11 45q29 139 153 139q57 0 142.5 -50 t121.5 -50q68 0 86 75l7 25l82 -8l-9 -43q-26 -142 -153 -142z" glyph-name="ntilde" horiz-adv-x="931" unicode="ñ"/><glyph d="M840 350q0 -166 -111 -266t-272.5 -100t-271 100t-109.5 267t109.5 270.5t271 103.5t272.5 -104.5t111 -270.5zM456.5 78q112.5 0 191.5 74.5t79 199.5t-78.5 202t-190.5 77t-190 -77t-78 -202t77 -199.5t189.5 -74.5zM246 1182h143l98 -301v-23h-71l-170 301v23z" glyph-name="ograve" horiz-adv-x="915" unicode="ò"/><glyph d="M424 858v23l98 301h144v-23l-170 -301h-72zM840 350q0 -166 -111 -266t-272.5 -100t-271 100t-109.5 267t109.5 270.5t271 103.5t272.5 -104.5t111 -270.5zM456.5 78q112.5 0 191.5 74.5t79 199.5t-78.5 202t-190.5 77t-190 -77t-78 -202t77 -199.5t189.5 -74.5z" glyph-name="oacute" horiz-adv-x="915" unicode="ó"/><glyph d="M170 858v23l225 301h129l226 -301v-23h-74l-215 227l-217 -227h-74zM840 350q0 -166 -111 -266t-272.5 -100t-271 100t-109.5 267t109.5 270.5t271 103.5t272.5 -104.5t111 -270.5zM456.5 78q112.5 0 191.5 74.5t79 199.5t-78.5 202t-190.5 77t-190 -77t-78 -202 t77 -199.5t189.5 -74.5z" glyph-name="ocircumflex" horiz-adv-x="915" unicode="ô"/><glyph d="M840 350q0 -166 -111 -266t-272.5 -100t-271 100t-109.5 267t109.5 270.5t271 103.5t272.5 -104.5t111 -270.5zM456.5 78q112.5 0 191.5 74.5t79 199.5t-78.5 202t-190.5 77t-190 -77t-78 -202t77 -199.5t189.5 -74.5zM598 911q-59 0 -144 51.5t-123 51.5t-54.5 -19.5 t-28.5 -56.5l-8 -27l-82 9l10 45q29 139 154 139q57 0 142 -50t122 -50q68 0 86 75l6 25l82 -8l-8 -43q-27 -142 -154 -142z" glyph-name="otilde" horiz-adv-x="915" unicode="õ"/><glyph d="M195 989q0 33 23.5 56.5t56 23.5t56 -23.5t23.5 -56.5t-23.5 -56.5t-56 -23.5t-56 23.5t-23.5 56.5zM559 989q0 33 23.5 56.5t56.5 23.5t56.5 -23.5t23.5 -56.5t-23.5 -56.5t-56.5 -23.5t-56.5 23.5t-23.5 56.5zM840 350q0 -166 -111 -266t-272.5 -100t-271 100 t-109.5 267t109.5 270.5t271 103.5t272.5 -104.5t111 -270.5zM456.5 78q112.5 0 191.5 74.5t79 199.5t-78.5 202t-190.5 77t-190 -77t-78 -202t77 -199.5t189.5 -74.5z" glyph-name="odieresis" horiz-adv-x="915" unicode="ö"/><glyph d="M432 318q0 38 26.5 64t63.5 26t63.5 -26t26.5 -64t-26.5 -63.5t-63.5 -25.5t-63.5 25.5t-26.5 63.5zM432 906q0 38 26.5 63.5t63.5 25.5t63.5 -25.5t26.5 -63.5t-26.5 -63.5t-63.5 -25.5t-63.5 25.5t-26.5 63.5zM131 557v98h782v-98h-782z" glyph-name="divide" horiz-adv-x="1044" unicode="÷"/><glyph d="M842 343q0 -159 -110.5 -259t-266.5 -100t-254 79l-82 -81l-47 49l80 80q-84 95 -84 251t109 259.5t259 103.5t250 -76l86 86l47 -49l-84 -82q97 -102 97 -261zM464 78q108 0 186.5 75t78.5 187t-57 190l-389 -391q73 -61 181 -61zM193 368q0 -108 47 -182l385 387 q-69 57 -173 57t-181.5 -77t-77.5 -185z" glyph-name="oslash" horiz-adv-x="915" unicode="ø"/><glyph d="M682 289v420h115v-709h-76l-21 113h-6q-10 -20 -31.5 -44t-87 -54.5t-151.5 -30.5q-145 0 -226 89t-81 236v400h114v-385q0 -111 54.5 -176.5t165.5 -65.5t171 66.5t60 140.5zM258 1182h143l99 -301v-23h-72l-170 301v23z" glyph-name="ugrave" horiz-adv-x="923" unicode="ù"/><glyph d="M424 858v23l98 301h144v-23l-170 -301h-72zM682 289v420h115v-709h-76l-21 113h-6q-10 -20 -31.5 -44t-87 -54.5t-151.5 -30.5q-145 0 -226 89t-81 236v400h114v-385q0 -111 54.5 -176.5t165.5 -65.5t171 66.5t60 140.5z" glyph-name="uacute" horiz-adv-x="923" unicode="ú"/><glyph d="M174 858v23l225 301h129l226 -301v-23h-74l-215 227l-217 -227h-74zM682 289v420h115v-709h-76l-21 113h-6q-10 -20 -31.5 -44t-87 -54.5t-151.5 -30.5q-145 0 -226 89t-81 236v400h114v-385q0 -111 54.5 -176.5t165.5 -65.5t171 66.5t60 140.5z" glyph-name="ucircumflex" horiz-adv-x="923" unicode="û"/><glyph d="M197 989q0 33 23.5 56.5t56 23.5t56 -23.5t23.5 -56.5t-23.5 -56.5t-56 -23.5t-56 23.5t-23.5 56.5zM561 989q0 33 23.5 56.5t56.5 23.5t56.5 -23.5t23.5 -56.5t-23.5 -56.5t-56.5 -23.5t-56.5 23.5t-23.5 56.5zM682 289v420h115v-709h-76l-21 113h-6q-10 -20 -31.5 -44 t-87 -54.5t-151.5 -30.5q-145 0 -226 89t-81 236v400h114v-385q0 -111 54.5 -176.5t165.5 -65.5t171 66.5t60 140.5z" glyph-name="udieresis" horiz-adv-x="923" unicode="ü"/><glyph d="M418 135h6q0 25 12 49l246 525h119l-527 -1102h-120l208 424l-331 678h127l248 -525q12 -25 12 -49zM385 858v23l98 301h144v-23l-170 -301h-72z" glyph-name="yacute" horiz-adv-x="829" unicode="ý"/><glyph d="M242 145v-538h-115v1622h115v-662h6q7 21 65.5 89.5t211.5 68.5t254.5 -103.5t101.5 -267.5t-101.5 -267t-240.5 -103t-206 57t-85 104h-6zM238 354q0 -125 76.5 -198.5t189 -73.5t187.5 75.5t75 195.5t-75 197t-187.5 77t-189 -74t-76.5 -199z" glyph-name="thorn" horiz-adv-x="958" unicode="þ"/><glyph d="M418 135h6q0 25 12 49l246 525h119l-527 -1102h-120l208 424l-331 678h127l248 -525q12 -25 12 -49zM160 989q0 33 23.5 56.5t56 23.5t56 -23.5t23.5 -56.5t-23.5 -56.5t-56 -23.5t-56 23.5t-23.5 56.5zM524 989q0 33 23.5 56.5t56.5 23.5t56.5 -23.5t23.5 -56.5 t-23.5 -56.5t-56.5 -23.5t-56.5 23.5t-23.5 56.5z" glyph-name="ydieresis" horiz-adv-x="829" unicode="ÿ"/><glyph d="M10 0l596 1229h29l600 -1229h-133l-117 233h-727l-117 -233h-131zM930 344l-301 647h-17l-286 -624l-13 -23h617zM352 1323v78h533v-78h-533z" glyph-name="Amacron" horiz-adv-x="1243" unicode="Ā"/><glyph d="M61 209q0 96 81 157.5t238 61.5t249 -72h10v52q0 219 -252 219q-59 0 -112.5 -14.5t-77.5 -28.5l-23 -15l-43 88q87 68 271 68t266 -90t82 -242v-393h-82l-13 92h-8q-12 -18 -36.5 -39.5t-92 -45t-153.5 -23.5q-150 0 -227 64.5t-77 160.5zM176 212q0 -62 53.5 -102 t155.5 -40t176 48t74 101t-71.5 91t-175.5 38t-158 -37t-54 -99zM152 911v78h532v-78h-532z" glyph-name="amacron" horiz-adv-x="864" unicode="ā"/><glyph d="M10 0l596 1229h29l600 -1229h-133l-117 233h-727l-117 -233h-131zM930 344l-301 647h-17l-286 -624l-13 -23h617zM784 1655h95q0 -119 -75 -196t-187.5 -77t-186.5 77t-74 196h93q0 -80 46.5 -130t120.5 -51t121 49t47 132z" glyph-name="Abreve" horiz-adv-x="1243" unicode="Ă"/><glyph d="M61 209q0 96 81 157.5t238 61.5t249 -72h10v52q0 219 -252 219q-59 0 -112.5 -14.5t-77.5 -28.5l-23 -15l-43 88q87 68 271 68t266 -90t82 -242v-393h-82l-13 92h-8q-12 -18 -36.5 -39.5t-92 -45t-153.5 -23.5q-150 0 -227 64.5t-77 160.5zM176 212q0 -62 53.5 -102 t155.5 -40t176 48t74 101t-71.5 91t-175.5 38t-158 -37t-54 -99zM596 1194h94q0 -119 -74.5 -195.5t-187.5 -76.5t-186.5 76.5t-73.5 195.5h92q0 -80 47 -130t121 -51t121 49t47 132z" glyph-name="abreve" horiz-adv-x="864" unicode="ă"/><glyph d="M1151 -209q45 0 74 29l39 -51q-43 -47 -117 -47t-112 35.5t-38 99.5q0 90 101 149l-113 227h-727l-117 -233h-131l596 1229h29l600 -1229h-35q-47 -13 -87 -51.5t-40 -79.5q0 -78 78 -78zM930 344l-301 647h-17l-286 -624l-13 -23h617z" glyph-name="Aogonek" horiz-adv-x="1243" unicode="Ą"/><glyph d="M700 -209q45 0 74 29l39 -51q-43 -47 -117 -47t-111.5 35.5t-37.5 99.5q0 100 119 159l-11 76h-8q-12 -18 -36.5 -39.5t-92 -45t-153.5 -23.5q-150 0 -227 64.5t-77 160.5t81 157.5t238 61.5t249 -72h10v52q0 219 -252 219q-59 0 -112.5 -14.5t-77.5 -28.5l-23 -15 l-43 88q87 68 271 68t266 -90t82 -242v-393q-49 -14 -88 -52t-39 -79q0 -78 77 -78zM176 212q0 -62 53.5 -102t155.5 -40t176 48t74 101t-71.5 91t-175.5 38t-158 -37t-54 -99z" glyph-name="aogonek" horiz-adv-x="866" unicode="ą"/><glyph d="M674 1358v22l98 301h143v-22l-170 -301h-71zM731 -29q-281 0 -460 183.5t-179 458.5t179.5 458.5t459.5 183.5q127 0 232.5 -39.5t148.5 -80.5l43 -39l-68 -90q-14 16 -41.5 38.5t-119.5 61.5t-193 39q-229 0 -375.5 -154.5t-146.5 -376.5t146.5 -377t375.5 -155 q100 0 188.5 35t127.5 69l38 35l68 -88l-53 -53q-52 -52 -171.5 -80.5t-199.5 -28.5z" glyph-name="Cacute" horiz-adv-x="1214" unicode="Ć"/><glyph d="M373 858v23l98 301h143v-23l-170 -301h-71zM452 -16q-159 0 -267.5 102t-108.5 266t108.5 268.5t276.5 104.5q66 0 124 -15.5t83 -29.5l24 -16l-35 -89q-73 51 -189 51t-195.5 -75.5t-79.5 -198.5t79.5 -196.5t194.5 -73.5q51 0 99 12t69 25l22 14l33 -88 q-79 -61 -238 -61z" glyph-name="cacute" horiz-adv-x="747" unicode="ć"/><glyph d="M426 1307v22l225 301h129l226 -301v-22h-74l-215 227l-217 -227h-74zM731 -29q-281 0 -460 183.5t-179 458.5t179.5 458.5t459.5 183.5q127 0 232.5 -39.5t148.5 -80.5l43 -39l-68 -90q-14 16 -41.5 38.5t-119.5 61.5t-193 39q-229 0 -375.5 -154.5t-146.5 -376.5 t146.5 -377t375.5 -155q100 0 188.5 35t127.5 69l38 35l68 -88l-53 -53q-52 -52 -171.5 -80.5t-199.5 -28.5z" glyph-name="Ccircumflex" horiz-adv-x="1214" unicode="Ĉ"/><glyph d="M158 858v23l225 301h129l225 -301v-23h-73l-215 227l-218 -227h-73zM452 -16q-159 0 -267.5 102t-108.5 266t108.5 268.5t276.5 104.5q66 0 124 -15.5t83 -29.5l24 -16l-35 -89q-73 51 -189 51t-195.5 -75.5t-79.5 -198.5t79.5 -196.5t194.5 -73.5q51 0 99 12t69 25 l22 14l33 -88q-79 -61 -238 -61z" glyph-name="ccircumflex" horiz-adv-x="747" unicode="ĉ"/><glyph d="M731 -29q-281 0 -460 183.5t-179 458.5t179.5 458.5t459.5 183.5q127 0 232.5 -39.5t148.5 -80.5l43 -39l-68 -90q-14 16 -41.5 38.5t-119.5 61.5t-193 39q-229 0 -375.5 -154.5t-146.5 -376.5t146.5 -377t375.5 -155q100 0 188.5 35t127.5 69l38 35l68 -88l-53 -53 q-52 -52 -171.5 -80.5t-199.5 -28.5zM623 1552q0 43 28.5 72t70.5 29t69.5 -29t27.5 -72t-27.5 -70.5t-69.5 -27.5t-70.5 27.5t-28.5 70.5z" glyph-name="Cdotaccent" horiz-adv-x="1214" unicode="Ċ"/><glyph d="M452 -16q-159 0 -267.5 102t-108.5 266t108.5 268.5t276.5 104.5q66 0 124 -15.5t83 -29.5l24 -16l-35 -89q-73 51 -189 51t-195.5 -75.5t-79.5 -198.5t79.5 -196.5t194.5 -73.5q51 0 99 12t69 25l22 14l33 -88q-79 -61 -238 -61zM346 1061q0 43 28.5 71.5t70.5 28.5 t70 -28.5t28 -71.5t-28 -70.5t-70 -27.5t-70.5 27.5t-28.5 70.5z" glyph-name="cdotaccent" horiz-adv-x="747" unicode="ċ"/><glyph d="M991 1661v-23l-225 -301h-129l-225 301v23h73l217 -227l216 227h73zM731 -29q-281 0 -460 183.5t-179 458.5t179.5 458.5t459.5 183.5q127 0 232.5 -39.5t148.5 -80.5l43 -39l-68 -90q-14 16 -41.5 38.5t-119.5 61.5t-193 39q-229 0 -375.5 -154.5t-146.5 -376.5 t146.5 -377t375.5 -155q100 0 188.5 35t127.5 69l38 35l68 -88l-53 -53q-52 -52 -171.5 -80.5t-199.5 -28.5z" glyph-name="Ccaron" horiz-adv-x="1214" unicode="Č"/><glyph d="M733 1182v-23l-225 -301h-129l-225 301v23h73l217 -228l215 228h74zM452 -16q-159 0 -267.5 102t-108.5 266t108.5 268.5t276.5 104.5q66 0 124 -15.5t83 -29.5l24 -16l-35 -89q-73 51 -189 51t-195.5 -75.5t-79.5 -198.5t79.5 -196.5t194.5 -73.5q51 0 99 12t69 25 l22 14l33 -88q-79 -61 -238 -61z" glyph-name="ccaron" horiz-adv-x="747" unicode="č"/><glyph d="M920 1661v-23l-226 -301h-129l-225 301v23h74l217 -227l215 227h74zM1251 614.5q0 -282.5 -182 -448.5t-475 -166h-412v1229h412q293 0 475 -166t182 -448.5zM590 1120h-291v-1011h291q236 0 389.5 136t153.5 368t-153.5 369.5t-389.5 137.5z" glyph-name="Dcaron" horiz-adv-x="1347" unicode="Ď"/><glyph d="M936 1286q0 37 24.5 61.5t65.5 24.5t67.5 -26.5t26.5 -68.5t-28 -93l-56 -99h-86l45 78l27 33v6q-39 2 -62.5 24.5t-23.5 59.5zM715 596v772h114v-1368h-79l-17 129h-6q-5 -16 -34 -46t-82 -64.5t-191 -34.5t-241 103t-103 267t102.5 267.5t238.5 103.5t202 -43.5 t83 -71.5l9 -14h4zM723 354q0 125 -78 199t-190.5 74t-187 -76t-74.5 -196t74.5 -196.5t187 -76.5t190.5 73.5t78 198.5z" glyph-name="dcaron" horiz-adv-x="958" unicode="ď"/><glyph d="M41 567v95h158v567h411q293 0 475.5 -166t182.5 -448.5t-182.5 -448.5t-475.5 -166h-411v567h-158zM606 1120h-291v-458h281v-95h-281v-458h291q236 0 389.5 136t153.5 368t-153.5 369.5t-389.5 137.5z" glyph-name="Dcroat" horiz-adv-x="1363" unicode="Đ"/><glyph d="M418 948v82h297v338h114v-338h109v-82h-109v-948h-79l-17 129h-6q-5 -16 -34 -46t-82 -64.5t-191 -34.5t-241 103t-103 267t102.5 267.5t238.5 103.5t202 -43.5t83 -71.5l9 -14h4v352h-297zM723 354q0 125 -78 199t-190.5 74t-187 -76t-74.5 -196t74.5 -196.5t187 -76.5 t190.5 73.5t78 198.5z" glyph-name="dcroat" horiz-adv-x="958" unicode="đ"/><glyph d="M979 659v-108h-680v-442h772v-109h-889v1229h889v-109h-772v-461h680zM356 1411v78h533v-78h-533z" glyph-name="Emacron" horiz-adv-x="1153" unicode="Ē"/><glyph d="M471 -18q-176 0 -285.5 102t-109.5 268t103 269.5t263 103.5t252 -97.5t92 -252.5v-39h-596q4 -121 85 -189.5t198 -68.5q63 0 118.5 16.5t80.5 32.5l22 14l41 -80q-37 -29 -112.5 -54t-151.5 -25zM441 631q-97 0 -161.5 -54.5t-82.5 -152.5h477q-10 90 -73 148.5 t-160 58.5zM180 911v78h533v-78h-533z" glyph-name="emacron" horiz-adv-x="851" unicode="ē"/><glyph d="M979 659v-108h-680v-442h772v-109h-889v1229h889v-109h-772v-461h680zM807 1655h94q0 -119 -74.5 -196t-187.5 -77t-186.5 77t-73.5 196h92q0 -80 47 -130t121 -51t121 49t47 132z" glyph-name="Ebreve" horiz-adv-x="1153" unicode="Ĕ"/><glyph d="M471 -18q-176 0 -285.5 102t-109.5 268t103 269.5t263 103.5t252 -97.5t92 -252.5v-39h-596q4 -121 85 -189.5t198 -68.5q63 0 118.5 16.5t80.5 32.5l22 14l41 -80q-37 -29 -112.5 -54t-151.5 -25zM441 631q-97 0 -161.5 -54.5t-82.5 -152.5h477q-10 90 -73 148.5 t-160 58.5zM612 1194h95q0 -119 -75 -195.5t-187.5 -76.5t-186.5 76.5t-74 195.5h92q0 -80 47 -130t121 -51t121 49t47 132z" glyph-name="ebreve" horiz-adv-x="851" unicode="ĕ"/><glyph d="M979 659v-108h-680v-442h772v-109h-889v1229h889v-109h-772v-461h680zM543 1522q0 43 28.5 71.5t70.5 28.5t69.5 -28.5t27.5 -71.5t-27.5 -71t-69.5 -28t-70.5 28t-28.5 71z" glyph-name="Edotaccent" horiz-adv-x="1153" unicode="Ė"/><glyph d="M471 -18q-176 0 -285.5 102t-109.5 268t103 269.5t263 103.5t252 -97.5t92 -252.5v-39h-596q4 -121 85 -189.5t198 -68.5q63 0 118.5 16.5t80.5 32.5l22 14l41 -80q-37 -29 -112.5 -54t-151.5 -25zM441 631q-97 0 -161.5 -54.5t-82.5 -152.5h477q-10 90 -73 148.5 t-160 58.5zM346 1061q0 43 28.5 71.5t70.5 28.5t70 -28.5t28 -71.5t-28 -70.5t-70 -27.5t-70.5 27.5t-28.5 70.5z" glyph-name="edotaccent" horiz-adv-x="851" unicode="ė"/><glyph d="M954 -209q45 0 74 29l39 -51q-43 -47 -117 -47t-111.5 35.5t-37.5 99.5q0 88 88 143h-707v1229h889v-109h-772v-461h680v-108h-680v-442h772v-109h-70q-16 -6 -37.5 -15.5t-54 -43t-32.5 -72.5q0 -78 77 -78z" glyph-name="Eogonek" horiz-adv-x="1153" unicode="Ę"/><glyph d="M610 -193q45 0 74 29l39 -51q-43 -47 -117 -47t-111.5 36t-37.5 97t47 113q-10 -2 -33 -2q-176 0 -285.5 102t-109.5 268t103 269.5t263 103.5t252 -97.5t92 -252.5v-39h-596q4 -121 85 -189.5t198 -68.5q63 0 118.5 16.5t80.5 32.5l22 14l41 -80q-29 -25 -59 -37 t-52 -21t-57 -43t-35 -75q0 -78 78 -78zM441 631q-97 0 -161.5 -54.5t-82.5 -152.5h477q-10 90 -73 148.5t-160 58.5z" glyph-name="eogonek" horiz-adv-x="851" unicode="ę"/><glyph d="M920 1653v-23l-226 -301h-129l-225 301v23h74l217 -228l215 228h74zM979 659v-108h-680v-442h772v-109h-889v1229h889v-109h-772v-461h680z" glyph-name="Ecaron" horiz-adv-x="1153" unicode="Ě"/><glyph d="M733 1182v-23l-225 -301h-129l-225 301v23h73l217 -228l215 228h74zM471 -18q-176 0 -285.5 102t-109.5 268t103 269.5t263 103.5t252 -97.5t92 -252.5v-39h-596q4 -121 85 -189.5t198 -68.5q63 0 118.5 16.5t80.5 32.5l22 14l41 -80q-37 -29 -112.5 -54t-151.5 -25z M441 631q-97 0 -161.5 -54.5t-82.5 -152.5h477q-10 90 -73 148.5t-160 58.5z" glyph-name="ecaron" horiz-adv-x="851" unicode="ě"/><glyph d="M430 1305v22l225 301h129l226 -301v-22h-74l-215 227l-217 -227h-74zM1178 539v12h-488v108h604v-75q0 -283 -152 -448t-428 -165t-449 182.5t-173 460.5t176 459.5t463 181.5q179 0 287 -53t149 -94l17 -16l-68 -88q-88 88 -201.5 114.5t-183.5 26.5q-238 0 -379 -153.5 t-141 -379t139.5 -378t359.5 -152.5t344 125t124 332z" glyph-name="Gcircumflex" horiz-adv-x="1368" unicode="Ĝ"/><glyph d="M150 858v23l225 301h129l225 -301v-23h-74l-215 227l-217 -227h-73zM446.5 -485q-178.5 0 -277.5 72.5t-99 191.5q0 150 153 209v8q-141 44 -141 154t115 163q-45 63 -45 162t79.5 173.5t206.5 74.5l365 -14v-86h-146v-9q8 -4 19.5 -13t30 -49t18.5 -97 q0 -104 -80.5 -178t-196.5 -74t-190 51q-74 -29 -74 -88q0 -111 262 -111q186 0 283.5 -69.5t97.5 -192.5t-101 -200.5t-279.5 -77.5zM447 -39q-126 0 -196.5 -51t-70.5 -127t69.5 -125t197.5 -49t198 48t70 127t-71 128t-197 49zM439 629q-87 0 -138 -47t-51 -121t50 -121 t138 -47t139.5 47t51.5 121t-51.5 121t-138.5 47z" glyph-name="gcircumflex" horiz-adv-x="843" unicode="ĝ"/><glyph d="M1178 539v12h-488v108h604v-75q0 -283 -152 -448t-428 -165t-449 182.5t-173 460.5t176 459.5t463 181.5q179 0 287 -53t149 -94l17 -16l-68 -88q-88 88 -201.5 114.5t-183.5 26.5q-238 0 -379 -153.5t-141 -379t139.5 -378t359.5 -152.5t344 125t124 332zM891 1655h94 q0 -119 -74.5 -196t-187.5 -77t-186.5 77t-73.5 196h92q0 -80 47 -130t121 -51t121 49t47 132z" glyph-name="Gbreve" horiz-adv-x="1368" unicode="Ğ"/><glyph d="M446.5 -485q-178.5 0 -277.5 72.5t-99 191.5q0 150 153 209v8q-141 44 -141 154t115 163q-45 63 -45 162t79.5 173.5t206.5 74.5l365 -14v-86h-146v-9q8 -4 19.5 -13t30 -49t18.5 -97q0 -104 -80.5 -178t-196.5 -74t-190 51q-74 -29 -74 -88q0 -111 262 -111 q186 0 283.5 -69.5t97.5 -192.5t-101 -200.5t-279.5 -77.5zM447 -39q-126 0 -196.5 -51t-70.5 -127t69.5 -125t197.5 -49t198 48t70 127t-71 128t-197 49zM439 629q-87 0 -138 -47t-51 -121t50 -121t138 -47t139.5 47t51.5 121t-51.5 121t-138.5 47zM623 1194h94 q0 -119 -75 -195.5t-187.5 -76.5t-186 76.5t-73.5 195.5h92q0 -80 47 -130t121 -51t121 49t47 132z" glyph-name="gbreve" horiz-adv-x="843" unicode="ğ"/><glyph d="M1178 539v12h-488v108h604v-75q0 -283 -152 -448t-428 -165t-449 182.5t-173 460.5t176 459.5t463 181.5q179 0 287 -53t149 -94l17 -16l-68 -88q-88 88 -201.5 114.5t-183.5 26.5q-238 0 -379 -153.5t-141 -379t139.5 -378t359.5 -152.5t344 125t124 332zM621 1522 q0 43 28.5 71.5t70.5 28.5t69.5 -28.5t27.5 -71.5t-27.5 -71t-69.5 -28t-70.5 28t-28.5 71z" glyph-name="Gdotaccent" horiz-adv-x="1368" unicode="Ġ"/><glyph d="M446.5 -485q-178.5 0 -277.5 72.5t-99 191.5q0 150 153 209v8q-141 44 -141 154t115 163q-45 63 -45 162t79.5 173.5t206.5 74.5l365 -14v-86h-146v-9q8 -4 19.5 -13t30 -49t18.5 -97q0 -104 -80.5 -178t-196.5 -74t-190 51q-74 -29 -74 -88q0 -111 262 -111 q186 0 283.5 -69.5t97.5 -192.5t-101 -200.5t-279.5 -77.5zM447 -39q-126 0 -196.5 -51t-70.5 -127t69.5 -125t197.5 -49t198 48t70 127t-71 128t-197 49zM439 629q-87 0 -138 -47t-51 -121t50 -121t138 -47t139.5 47t51.5 121t-51.5 121t-138.5 47zM344 1061 q0 43 28.5 71.5t70.5 28.5t70 -28.5t28 -71.5t-28 -70.5t-70 -27.5t-70.5 27.5t-28.5 70.5z" glyph-name="gdotaccent" horiz-adv-x="843" unicode="ġ"/><glyph d="M633 -160q0 37 24.5 61.5t65.5 24.5t67.5 -26.5t26.5 -68.5t-29 -93l-55 -98h-86l45 77l27 33v6q-39 2 -62.5 24.5t-23.5 59.5zM1178 539v12h-488v108h604v-75q0 -283 -152 -448t-428 -165t-449 182.5t-173 460.5t176 459.5t463 181.5q179 0 287 -53t149 -94l17 -16 l-68 -88q-88 88 -201.5 114.5t-183.5 26.5q-238 0 -379 -153.5t-141 -379t139.5 -378t359.5 -152.5t344 125t124 332z" glyph-name="Gcommaaccent" horiz-adv-x="1368" unicode="Ģ"/><glyph d="M535 947q0 -36 -25 -60.5t-66 -24.5t-67.5 26.5t-26.5 68.5t29 94l55 98h86l-45 -78l-26 -33v-6q39 -2 62.5 -25.5t23.5 -59.5zM446.5 -485q-178.5 0 -277.5 72.5t-99 191.5q0 150 153 209v8q-141 44 -141 154t115 163q-45 63 -45 162t79.5 173.5t206.5 74.5l365 -14v-86 h-146v-9q8 -4 19.5 -13t30 -49t18.5 -97q0 -104 -80.5 -178t-196.5 -74t-190 51q-74 -29 -74 -88q0 -111 262 -111q186 0 283.5 -69.5t97.5 -192.5t-101 -200.5t-279.5 -77.5zM447 -39q-126 0 -196.5 -51t-70.5 -127t69.5 -125t197.5 -49t198 48t70 127t-71 128t-197 49z M439 629q-87 0 -138 -47t-51 -121t50 -121t138 -47t139.5 47t51.5 121t-51.5 121t-138.5 47z" glyph-name="gcommaaccent" horiz-adv-x="843" unicode="ģ"/><glyph d="M399 1307v22l226 301h129l225 -301v-22h-74l-215 227l-217 -227h-74zM1190 1229v-1229h-117v551h-774v-551h-117v1229h117v-570h774v570h117z" glyph-name="Hcircumflex" horiz-adv-x="1372" unicode="Ĥ"/><glyph d="M158 1468v23l225 301h129l225 -301v-23h-73l-215 228l-218 -228h-73zM129 0v1368h115v-747h4q33 41 98.5 72.5t153.5 31.5q147 0 231 -89t84 -237v-399h-115v385q0 109 -58 175.5t-166 66.5t-167 -61.5t-65 -133.5v-432h-115z" glyph-name="hcircumflex" horiz-adv-x="931" unicode="ĥ"/><glyph d="M1198 1229v-207h68v-94h-68v-928h-117v551h-774v-551h-117v928h-75v94h75v207h117v-207h774v207h117zM307 659h774v269h-774v-269z" glyph-name="Hbar" horiz-adv-x="1388" unicode="Ħ"/><glyph d="M18 948v82h111v338h115v-338h295v-82h-295v-327h4q33 41 98.5 72.5t153.5 31.5q147 0 231 -89t84 -237v-399h-115v385q0 109 -58 175.5t-166 66.5t-167 -61.5t-65 -133.5v-432h-115v948h-111z" glyph-name="hbar" horiz-adv-x="931" unicode="ħ"/><glyph d="M299 1229v-1229h-117v1229h117zM379 1364q-59 0 -144 51t-123 51t-54.5 -19.5t-28.5 -55.5l-9 -27l-81 8l10 45q29 139 153 139q57 0 142.5 -50t122.5 -50q68 0 86 76l6 24l82 -8l-9 -43q-26 -141 -153 -141z" glyph-name="Itilde" horiz-adv-x="483" unicode="Ĩ"/><glyph d="M133 0v709h115v-709h-115zM322 911q-59 0 -144.5 51.5t-123.5 51.5t-54 -19.5t-29 -56.5l-8 -27l-82 9l10 45q29 139 154 139q57 0 142 -50t122 -50q68 0 86 75l6 25l82 -8l-8 -43q-26 -142 -153 -142z" glyph-name="itilde" horiz-adv-x="380" unicode="ĩ"/><glyph d="M299 1229v-1229h-117v1229h117zM-23 1378v78h533v-78h-533z" glyph-name="Imacron" horiz-adv-x="483" unicode="Ī"/><glyph d="M133 0v709h115v-709h-115zM-80 911v78h533v-78h-533z" glyph-name="imacron" horiz-adv-x="380" unicode="ī"/><glyph d="M299 1229v-1229h-117v1229h117zM412 1655h94q0 -119 -75 -196t-187.5 -77t-186 77t-73.5 196h92q0 -80 47 -130t121 -51t121 49t47 132z" glyph-name="Ibreve" horiz-adv-x="483" unicode="Ĭ"/><glyph d="M133 0v709h115v-709h-115zM356 1194h95q0 -119 -75 -195.5t-187.5 -76.5t-186.5 76.5t-74 195.5h92q0 -80 47 -130t121 -51t121 49t47 132z" glyph-name="ibreve" horiz-adv-x="380" unicode="ĭ"/><glyph d="M250 -209q41 0 74 29l38 -51q-42 -47 -116 -47t-112 35.5t-38 99.5q0 88 88 143h-2v1229h117v-1229q-47 -13 -87 -51.5t-40 -79.5q0 -78 78 -78z" glyph-name="Iogonek" horiz-adv-x="483" unicode="Į"/><glyph d="M201 -209q44 0 73 29l39 -51q-43 -47 -117 -47t-111.5 35.5t-37.5 99.5q0 88 88 143v709h115v-709q-47 -13 -87 -51.5t-40 -79.5q0 -78 78 -78zM194 1004q-34 0 -56.5 22.5t-22.5 55t22.5 56t55 23.5t56 -23.5t23.5 -56t-22 -55t-56 -22.5z" glyph-name="iogonek" horiz-adv-x="382" unicode="į"/><glyph d="M299 1229v-1229h-117v1229h117zM147 1520q0 43 29 71.5t71 28.5t69.5 -28.5t27.5 -71.5t-27.5 -71t-69.5 -28t-71 28t-29 71z" glyph-name="Idotaccent" horiz-adv-x="483" unicode="İ"/><glyph d="M133 0v709h115v-709h-115z" glyph-name="dotlessi" horiz-adv-x="382" unicode="ı"/><glyph d="M299 1229v-1229h-117v1229h117zM973 84q293 0 293 326v819h116v-842q0 -205 -104 -310.5t-295 -105.5q-84 0 -170.5 28.5t-124.5 66.5l57 90q92 -72 228 -72z" glyph-name="IJ" horiz-adv-x="1552" unicode="Ĳ"/><glyph d="M191 1004q-34 0 -56 22.5t-22 55t22.5 56t56.5 23.5t56 -23.5t22 -56t-22.5 -55t-56.5 -22.5zM133 0v709h115v-709h-115zM610 -186v895h117v-899q0 -221 -192 -222q-66 0 -113 27l-16 8l24 88q39 -25 82 -24q98 0 98 127zM669 1004q-34 0 -56.5 22.5t-22.5 55t22.5 56 t56.5 23.5t55 -22.5t21 -56.5t-21 -56t-55 -22z" glyph-name="ij" horiz-adv-x="854" unicode="ĳ"/><glyph d="M399 1305v22l226 301h129l225 -301v-22h-74l-215 227l-217 -227h-74zM336 84q293 0 293 326v819h116v-842q0 -205 -104 -310.5t-295 -105.5q-84 0 -170.5 28.5t-124.5 66.5l58 90q92 -72 227 -72z" glyph-name="Jcircumflex" horiz-adv-x="915" unicode="Ĵ"/><glyph d="M127 -176v885h117v-895q0 -225 -199 -226q-77 0 -139 39l35 88q41 -25 90 -25q96 0 96 134zM-104 858v23l225 301h129l225 -301v-23h-74l-215 227l-217 -227h-73z" glyph-name="jcircumflex" horiz-adv-x="370" unicode="ĵ"/><glyph d="M561 -160q0 37 24.5 61.5t65.5 24.5t67.5 -26.5t26.5 -68.5t-28 -93l-55 -98h-87l46 77l26 33v6q-39 2 -62.5 24.5t-23.5 59.5zM299 1229v-709l723 709h137v-23l-495 -487l495 -696v-23h-131l-453 633l-276 -273v-360h-117v1229h117z" glyph-name="Kcommaaccent" horiz-adv-x="1200" unicode="Ķ"/><glyph d="M324 -160q0 37 24.5 61.5t65.5 24.5t67.5 -26.5t26.5 -68.5t-29 -93l-55 -98h-86l45 77l27 33v6q-39 2 -62.5 24.5t-23.5 59.5zM242 332v-332h-115v1368h115v-985h4l334 326h139l-354 -347l409 -362h-162l-366 332h-4z" glyph-name="kcommaaccent" horiz-adv-x="784" unicode="ķ"/><glyph d="M242 332v-332h-115v709h115v-326h4l334 326h137l-352 -347l409 -362h-162l-366 332h-4z" glyph-name="kgreenlandic" horiz-adv-x="786" unicode="ĸ"/><glyph d="M205 1307v22l98 301h143v-22l-170 -301h-71zM1032 0h-850v1229h117v-1120h733v-109z" glyph-name="Lacute" horiz-adv-x="1056" unicode="Ĺ"/><glyph d="M156 1468v23l98 301h143v-23l-170 -301h-71zM133 0v1368h115v-1368h-115z" glyph-name="lacute" horiz-adv-x="380" unicode="ĺ"/><glyph d="M506 -160q0 37 24.5 61.5t65.5 24.5t67.5 -26.5t26.5 -68.5t-28 -93l-56 -98h-86l45 77l27 33v6q-39 2 -62.5 24.5t-23.5 59.5zM1032 0h-850v1229h117v-1120h733v-109z" glyph-name="Lcommaaccent" horiz-adv-x="1056" unicode="Ļ"/><glyph d="M104 -160q0 37 25 61.5t66 24.5t67.5 -26.5t26.5 -68.5t-29 -93l-55 -98h-86l45 77l26 33v6q-39 2 -62.5 24.5t-23.5 59.5zM133 0v1368h115v-1368h-115z" glyph-name="lcommaaccent" horiz-adv-x="380" unicode="ļ"/><glyph d="M692 1143q0 37 24.5 61.5t65.5 24.5t68 -26.5t27 -68.5t-29 -94l-55 -98h-86l45 78l26 33v6q-39 2 -62.5 24.5t-23.5 59.5zM1032 0h-850v1229h117v-1120h733v-109z" glyph-name="Lcaron" horiz-adv-x="1058" unicode="Ľ"/><glyph d="M352 1286q0 37 24.5 61.5t65.5 24.5t68 -26.5t27 -68.5t-29 -93l-55 -99h-86l45 78l26 33v6q-39 2 -62.5 24.5t-23.5 59.5zM133 0v1368h115v-1368h-115z" glyph-name="lcaron" horiz-adv-x="380" unicode="ľ"/><glyph d="M1032 0h-850v1229h117v-1120h733v-109zM698 721q0 43 29 71.5t71 28.5t69.5 -28.5t27.5 -71.5t-27.5 -70.5t-69.5 -27.5t-71 27.5t-29 70.5z" glyph-name="Ldot" horiz-adv-x="1058" unicode="Ŀ"/><glyph d="M133 0v1368h115v-1368h-115zM385 610q0 43 28.5 72t70.5 29t70 -29t28 -72t-28 -70.5t-70 -27.5t-70.5 27.5t-28.5 70.5z" glyph-name="ldot" horiz-adv-x="587" unicode="ŀ"/><glyph d="M201 1229h116v-531l263 152l36 -62l-299 -174v-505h734v-109h-850v547l-133 -76l-37 61l170 99v598z" glyph-name="Lslash" horiz-adv-x="1075" unicode="Ł"/><glyph d="M225 1368h115v-663l174 102l35 -57l-209 -121v-629h-115v561l-162 -92l-32 57l194 113v729z" glyph-name="lslash" horiz-adv-x="534" unicode="ł"/><glyph d="M662 1307v22l98 301h143v-22l-170 -301h-71zM1241 1229v-1229h-37l-905 979v-979h-117v1229h37l905 -977v977h117z" glyph-name="Nacute" horiz-adv-x="1425" unicode="Ń"/><glyph d="M463 858v23l98 301h144v-23l-170 -301h-72zM244 420v-420h-115v709h80l14 -115h6q88 131 271 131q147 0 231 -89t84 -237v-399h-115v385q0 109 -58 175.5t-169 66.5t-170 -66.5t-59 -140.5z" glyph-name="nacute" horiz-adv-x="931" unicode="ń"/><glyph d="M657 -160q0 37 25 61.5t65.5 24.5t67.5 -26.5t27 -68.5t-29 -93l-55 -98h-86l45 77l26 33v6q-39 2 -62.5 24.5t-23.5 59.5zM1241 1229v-1229h-37l-905 979v-979h-117v1229h37l905 -977v977h117z" glyph-name="Ncommaaccent" horiz-adv-x="1425" unicode="Ņ"/><glyph d="M375 -160q0 37 24.5 61.5t65.5 24.5t67.5 -26.5t26.5 -68.5t-29 -93l-55 -98h-86l45 77l27 33v6q-39 2 -62.5 24.5t-23.5 59.5zM244 420v-420h-115v709h80l14 -115h6q88 131 271 131q147 0 231 -89t84 -237v-399h-115v385q0 109 -58 175.5t-169 66.5t-170 -66.5 t-59 -140.5z" glyph-name="ncommaaccent" horiz-adv-x="931" unicode="ņ"/><glyph d="M1004 1630v-22l-226 -301h-129l-225 301v22h74l217 -227l215 227h74zM1241 1229v-1229h-37l-905 979v-979h-117v1229h37l905 -977v977h117z" glyph-name="Ncaron" horiz-adv-x="1425" unicode="Ň"/><glyph d="M772 1182v-23l-225 -301h-129l-225 301v23h73l217 -228l215 228h74zM244 420v-420h-115v709h80l14 -115h6q88 131 271 131q147 0 231 -89t84 -237v-399h-115v385q0 109 -58 175.5t-169 66.5t-170 -66.5t-59 -140.5z" glyph-name="ncaron" horiz-adv-x="931" unicode="ň"/><glyph d="M84 1170q0 36 24.5 60.5t65.5 24.5t67.5 -26.5t26.5 -68.5t-28 -93l-56 -98h-86l45 78l27 32v6q-39 2 -62.5 25.5t-23.5 59.5zM244 420v-420h-115v709h80l14 -115h6q88 131 271 131q147 0 231 -89t84 -237v-399h-115v385q0 109 -58 175.5t-169 66.5t-170 -66.5 t-59 -140.5z" glyph-name="napostrophe" horiz-adv-x="931" unicode="ŉ"/><glyph d="M1241 1229v-1415q0 -225 -199 -226q-76 0 -122 29l-17 10l33 88q43 -25 88 -24q100 0 100 129v266l-825 893v-979h-117v1229h37l905 -977v977h117z" glyph-name="Eng" horiz-adv-x="1425" unicode="Ŋ"/><glyph d="M244 420v-420h-115v709h80l14 -115h6q88 131 271 131q147 0 231 -89t84 -237v-579q0 -225 -197 -226q-76 0 -122 29l-17 8l35 90q41 -27 86 -26q100 0 100 135v555q0 109 -58 175.5t-169 66.5t-170 -66.5t-59 -140.5z" glyph-name="eng" horiz-adv-x="931" unicode="ŋ"/><glyph d="M457 1370v78h532v-78h-532zM724 -29q-284 0 -458 182.5t-174 460.5t174 459.5t459 181.5t458 -181.5t173 -459.5t-174 -460.5t-458 -182.5zM725 82q233 0 373.5 153.5t140.5 377.5t-140.5 378t-373.5 154t-373.5 -153.5t-140.5 -379t140.5 -378t373.5 -152.5z" glyph-name="Omacron" horiz-adv-x="1449" unicode="Ō"/><glyph d="M193 911v78h532v-78h-532zM840 350q0 -166 -111 -266t-272.5 -100t-271 100t-109.5 267t109.5 270.5t271 103.5t272.5 -104.5t111 -270.5zM456.5 78q112.5 0 191.5 74.5t79 199.5t-78.5 202t-190.5 77t-190 -77t-78 -202t77 -199.5t189.5 -74.5z" glyph-name="omacron" horiz-adv-x="915" unicode="ō"/><glyph d="M724 -29q-284 0 -458 182.5t-174 460.5t174 459.5t459 181.5t458 -181.5t173 -459.5t-174 -460.5t-458 -182.5zM725 82q233 0 373.5 153.5t140.5 377.5t-140.5 378t-373.5 154t-373.5 -153.5t-140.5 -379t140.5 -378t373.5 -152.5zM889 1657h94q0 -119 -74.5 -196 t-187.5 -77t-186.5 77t-73.5 196h92q0 -80 47 -130t121 -51t121 49t47 132z" glyph-name="Obreve" horiz-adv-x="1449" unicode="Ŏ"/><glyph d="M840 350q0 -166 -111 -266t-272.5 -100t-271 100t-109.5 267t109.5 270.5t271 103.5t272.5 -104.5t111 -270.5zM456.5 78q112.5 0 191.5 74.5t79 199.5t-78.5 202t-190.5 77t-190 -77t-78 -202t77 -199.5t189.5 -74.5zM627 1194h94q0 -119 -75 -195.5t-187.5 -76.5 t-186 76.5t-73.5 195.5h92q0 -80 47 -130t121 -51t121 49t47 132z" glyph-name="obreve" horiz-adv-x="915" unicode="ŏ"/><glyph d="M510 1305v22l98 301h131v-22l-157 -301h-72zM834 1305v22l96 301h133v-22l-158 -301h-71zM724 -29q-284 0 -458 182.5t-174 460.5t174 459.5t459 181.5t458 -181.5t173 -459.5t-174 -460.5t-458 -182.5zM725 82q233 0 373.5 153.5t140.5 377.5t-140.5 378t-373.5 154 t-373.5 -153.5t-140.5 -379t140.5 -378t373.5 -152.5z" glyph-name="Ohungarumlaut" horiz-adv-x="1449" unicode="Ő"/><glyph d="M258 858v23l98 301h131v-23l-157 -301h-72zM582 858v23l96 301h133v-23l-158 -301h-71zM840 350q0 -166 -111 -266t-272.5 -100t-271 100t-109.5 267t109.5 270.5t271 103.5t272.5 -104.5t111 -270.5zM456.5 78q112.5 0 191.5 74.5t79 199.5t-78.5 202t-190.5 77 t-190 -77t-78 -202t77 -199.5t189.5 -74.5z" glyph-name="ohungarumlaut" horiz-adv-x="915" unicode="ő"/><glyph d="M723 -29q-285 0 -459 182.5t-174 460.5t174 459.5t459 181.5q336 0 514 -251v225h889v-109h-772v-461h680v-108h-680v-442h772v-109h-889v223q-178 -252 -514 -252zM722.5 82q233.5 0 374 153.5t140.5 377.5t-140.5 378t-374 154t-373.5 -153.5t-140 -379t140 -378 t373.5 -152.5z" glyph-name="OE" horiz-adv-x="2207" unicode="Œ"/><glyph d="M1122 -18q-233 0 -340 165q-106 -164 -325 -163q-162 0 -271.5 100t-109.5 267t109.5 270.5t271.5 103.5q102 0 187 -44t136 -124q102 168 312 168q162 0 254 -97.5t92 -252.5v-39h-596q4 -121 85 -189.5t197 -68.5q63 0 118.5 16.5t80.5 32.5l23 14l40 -80 q-37 -29 -112.5 -54t-151.5 -25zM456.5 78q112.5 0 191.5 74.5t79 199.5t-78.5 202t-190.5 77t-190 -77t-78 -202t77 -199.5t189.5 -74.5zM1093 631q-97 0 -162 -54.5t-83 -152.5h477q-10 90 -72.5 148.5t-159.5 58.5z" glyph-name="oe" horiz-adv-x="1505" unicode="œ"/><glyph d="M561 1307v22l98 301h144v-22l-170 -301h-72zM182 0v1229h490q233 0 360 -103.5t127 -302.5q0 -152 -81 -249t-222 -134v-8l332 -403v-29h-125l-346 418h-418v-418h-117zM1040 822q0 148 -98 223t-270 75h-373v-594h393q158 0 253 74t95 222z" glyph-name="Racute" horiz-adv-x="1275" unicode="Ŕ"/><glyph d="M313 856v23l99 301h143v-23l-170 -301h-72zM246 0h-115v709h80l14 -115h4q80 119 211 119q76 0 127 -29l-39 -92q-38 22 -104 22t-117 -54t-61 -134v-426z" glyph-name="racute" horiz-adv-x="575" unicode="ŕ"/><glyph d="M569 -160q0 37 24.5 61.5t65.5 24.5t68 -26.5t27 -68.5t-29 -93l-55 -98h-86l45 77l26 33v6q-39 2 -62.5 24.5t-23.5 59.5zM182 0v1229h490q233 0 360 -103.5t127 -302.5q0 -152 -81 -249t-222 -134v-8l332 -403v-29h-125l-346 418h-418v-418h-117zM1040 822 q0 148 -98 223t-270 75h-373v-594h393q158 0 253 74t95 222z" glyph-name="Rcommaaccent" horiz-adv-x="1275" unicode="Ŗ"/><glyph d="M102 -160q0 37 25 61.5t65.5 24.5t67.5 -26.5t27 -68.5t-29 -93l-55 -98h-86l45 77l26 33v6q-39 2 -62.5 24.5t-23.5 59.5zM246 0h-115v709h80l14 -115h4q80 119 211 119q76 0 127 -29l-39 -92q-38 22 -104 22t-117 -54t-61 -134v-426z" glyph-name="rcommaaccent" horiz-adv-x="575" unicode="ŗ"/><glyph d="M907 1645v-23l-225 -301h-129l-225 301v23h73l217 -228l216 228h73zM182 0v1229h490q233 0 360 -103.5t127 -302.5q0 -152 -81 -249t-222 -134v-8l332 -403v-29h-125l-346 418h-418v-418h-117zM1040 822q0 148 -98 223t-270 75h-373v-594h393q158 0 253 74t95 222z" glyph-name="Rcaron" horiz-adv-x="1275" unicode="Ř"/><glyph d="M639 1182v-23l-225 -301h-129l-226 301v23h74l217 -228l215 228h74zM246 0h-115v709h80l14 -115h4q80 119 211 119q76 0 127 -29l-39 -92q-38 22 -104 22t-117 -54t-61 -134v-426z" glyph-name="rcaron" horiz-adv-x="575" unicode="ř"/><glyph d="M502 1307v22l98 301h143v-22l-170 -301h-71zM909 1044q-141 101 -381 101q-124 0 -217.5 -56.5t-93.5 -150.5t79.5 -144.5t291.5 -109.5t312.5 -143t100.5 -233t-115.5 -243t-339.5 -94t-321.5 56.5t-113.5 70.5l-17 15l66 90q14 -14 42.5 -33.5t126 -53.5t206.5 -34 q176 0 262 61.5t86 163.5t-80 158.5t-291 117.5t-312.5 137t-101.5 220t121 229.5t328 85.5q131 0 237.5 -28.5t147.5 -57.5l41 -28z" glyph-name="Sacute" horiz-adv-x="1087" unicode="Ś"/><glyph d="M356 858v23l99 301h143v-23l-170 -301h-72zM588 185q0 48 -52.5 77t-127 45.5t-148.5 37t-126 65t-52 124.5t75.5 135.5t223.5 55.5q84 0 156.5 -14.5t103.5 -28.5l31 -14l-43 -95q-84 57 -238 58q-199 0 -198 -105q0 -74 125.5 -100.5t200.5 -46t127 -66.5t52 -129 t-77.5 -141t-239.5 -59q-94 0 -171 20.5t-108 40.5l-30 18l47 82q106 -68 262 -67q100 0 153.5 29.5t53.5 77.5z" glyph-name="sacute" horiz-adv-x="768" unicode="ś"/><glyph d="M248 1321v22l225 302h129l225 -302v-22h-73l-215 227l-217 -227h-74zM909 1044q-141 101 -381 101q-124 0 -217.5 -56.5t-93.5 -150.5t79.5 -144.5t291.5 -109.5t312.5 -143t100.5 -233t-115.5 -243t-339.5 -94t-321.5 56.5t-113.5 70.5l-17 15l66 90q14 -14 42.5 -33.5 t126 -53.5t206.5 -34q176 0 262 61.5t86 163.5t-80 158.5t-291 117.5t-312.5 137t-101.5 220t121 229.5t328 85.5q131 0 237.5 -28.5t147.5 -57.5l41 -28z" glyph-name="Scircumflex" horiz-adv-x="1087" unicode="Ŝ"/><glyph d="M100 858v23l226 301h129l225 -301v-23h-74l-215 227l-217 -227h-74zM588 185q0 48 -52.5 77t-127 45.5t-148.5 37t-126 65t-52 124.5t75.5 135.5t223.5 55.5q84 0 156.5 -14.5t103.5 -28.5l31 -14l-43 -95q-84 57 -238 58q-199 0 -198 -105q0 -74 125.5 -100.5t200.5 -46 t127 -66.5t52 -129t-77.5 -141t-239.5 -59q-94 0 -171 20.5t-108 40.5l-30 18l47 82q106 -68 262 -67q100 0 153.5 29.5t53.5 77.5z" glyph-name="scircumflex" horiz-adv-x="768" unicode="ŝ"/><glyph d="M909 1044q-141 101 -381 101q-124 0 -217.5 -56.5t-93.5 -150.5t79.5 -144.5t291.5 -109.5t312.5 -142.5t100.5 -229.5t-106.5 -238t-321.5 -101l-16 -34q61 0 101 -33t40 -96.5t-43 -101.5t-122 -38t-125 39l-15 15l29 53q45 -43 113 -43q94 0 94 78q0 35 -25.5 54 t-64.5 19l-41 -8l-29 35l31 61q-123 4 -224.5 39t-140.5 68l-41 33l66 90q14 -14 42.5 -33.5t126 -53.5t206.5 -34q176 0 262 61.5t86 163.5t-80 158.5t-291 117.5t-312.5 137t-101.5 220t121 229.5t328 85.5q131 0 237.5 -28.5t147.5 -57.5l41 -28z" glyph-name="Scedilla" horiz-adv-x="1087" unicode="Ş"/><glyph d="M588 185q0 48 -52.5 77t-127 45.5t-148.5 37t-126 65t-52 124.5t75.5 135.5t223.5 55.5q84 0 156.5 -14.5t103.5 -28.5l31 -14l-43 -95q-84 57 -238 58q-199 0 -198 -105q0 -74 125.5 -100.5t200.5 -46t127 -66.5t52 -127t-69.5 -137t-212.5 -63l-25 -47q61 0 101 -33 t40 -96.5t-43 -101.5t-122 -38t-125 39l-15 15l29 53q45 -43 113 -43q94 0 94 78q0 35 -25.5 54t-64.5 19l-41 -8l-29 35l39 74q-82 4 -149.5 23.5t-94.5 35.5l-26 18l47 82q106 -68 262 -67q100 0 153.5 29.5t53.5 77.5z" glyph-name="scedilla" horiz-adv-x="768" unicode="ş"/><glyph d="M829 1630v-22l-225 -301h-129l-225 301v22h74l217 -227l215 227h73zM909 1044q-141 101 -381 101q-124 0 -217.5 -56.5t-93.5 -150.5t79.5 -144.5t291.5 -109.5t312.5 -143t100.5 -233t-115.5 -243t-339.5 -94t-321.5 56.5t-113.5 70.5l-17 15l66 90q14 -14 42.5 -33.5 t126 -53.5t206.5 -34q176 0 262 61.5t86 163.5t-80 158.5t-291 117.5t-312.5 137t-101.5 220t121 229.5t328 85.5q131 0 237.5 -28.5t147.5 -57.5l41 -28z" glyph-name="Scaron" horiz-adv-x="1087" unicode="Š"/><glyph d="M674 1182v-23l-225 -301h-130l-225 301v23h74l217 -228l215 228h74zM588 185q0 48 -52.5 77t-127 45.5t-148.5 37t-126 65t-52 124.5t75.5 135.5t223.5 55.5q84 0 156.5 -14.5t103.5 -28.5l31 -14l-43 -95q-84 57 -238 58q-199 0 -198 -105q0 -74 125.5 -100.5t200.5 -46 t127 -66.5t52 -129t-77.5 -141t-239.5 -59q-94 0 -171 20.5t-108 40.5l-30 18l47 82q106 -68 262 -67q100 0 153.5 29.5t53.5 77.5z" glyph-name="scaron" horiz-adv-x="768" unicode="š"/><glyph d="M436 -160q0 37 24.5 61.5t65.5 24.5t68 -26.5t27 -68.5t-29 -93l-55 -98h-86l45 77l26 33v6q-39 2 -62.5 24.5t-23.5 59.5zM35 1120v109h993v-109h-440v-1120h-115v1120h-438z" glyph-name="Tcommaaccent" horiz-adv-x="1062" unicode="Ţ"/><glyph d="M268 -160q0 37 24.5 61.5t65.5 24.5t68 -26.5t27 -68.5t-29 -93l-55 -98h-86l45 77l26 33v6q-39 2 -62.5 24.5t-23.5 59.5zM467 82q38 0 100 31l39 -82q-59 -47 -155 -47q-276 0 -277 309v321h-145v95h145v213h115v-213h291v-95h-291v-319q0 -213 178 -213z" glyph-name="tcommaaccent" horiz-adv-x="630" unicode="ţ"/><glyph d="M821 1645v-23l-225 -301h-129l-225 301v23h73l217 -228l216 228h73zM35 1120v109h993v-109h-440v-1120h-115v1120h-438z" glyph-name="Tcaron" horiz-adv-x="1062" unicode="Ť"/><glyph d="M510 1170q0 36 24.5 60.5t65.5 24.5t67.5 -26.5t26.5 -68.5t-28 -93l-56 -98h-86l45 78l27 32v6q-39 2 -62.5 25.5t-23.5 59.5zM467 82q38 0 100 31l39 -82q-59 -47 -155 -47q-276 0 -277 309v321h-145v95h145v213h115v-213h291v-95h-291v-319q0 -213 178 -213z" glyph-name="tcaron" horiz-adv-x="630" unicode="ť"/><glyph d="M41 1120v109h993v-109h-440v-444h229v-94h-229v-582h-115v582h-219v94h219v444h-438z" glyph-name="Tbar" horiz-adv-x="1077" unicode="Ŧ"/><glyph d="M475 82q38 0 100 31l39 -82q-59 -47 -155 -47q-276 0 -277 309v45h-135v94h135v182h-145v95h145v213h115v-213h291v-95h-291v-182h221v-94h-221v-43q0 -213 178 -213z" glyph-name="tbar" horiz-adv-x="638" unicode="ŧ"/><glyph d="M673 -29q-239 0 -374 147.5t-135 393.5v717h117v-717q0 -195 100.5 -312.5t290.5 -117.5t291.5 117.5t101.5 312.5v717h115v-717q0 -248 -134 -394.5t-373 -146.5zM807 1425q-59 0 -144 51.5t-123 51.5t-54.5 -19.5t-28.5 -56.5l-8 -27l-82 9l10 45q29 139 153 139 q57 0 142.5 -50t122.5 -50q68 0 86 75l6 25l82 -8l-8 -43q-27 -142 -154 -142z" glyph-name="Utilde" horiz-adv-x="1345" unicode="Ũ"/><glyph d="M682 289v420h115v-709h-76l-21 113h-6q-10 -20 -31.5 -44t-87 -54.5t-151.5 -30.5q-145 0 -226 89t-81 236v400h114v-385q0 -111 54.5 -176.5t165.5 -65.5t171 66.5t60 140.5zM606 911q-59 0 -144 51.5t-123 51.5t-54.5 -19.5t-28.5 -56.5l-8 -27l-82 9l10 45 q29 139 154 139q57 0 142 -50t122 -50q68 0 86 75l6 25l82 -8l-8 -43q-27 -142 -154 -142z" glyph-name="utilde" horiz-adv-x="923" unicode="ũ"/><glyph d="M673 -29q-239 0 -374 147.5t-135 393.5v717h117v-717q0 -195 100.5 -312.5t290.5 -117.5t291.5 117.5t101.5 312.5v717h115v-717q0 -248 -134 -394.5t-373 -146.5zM403 1384v78h533v-78h-533z" glyph-name="Umacron" horiz-adv-x="1345" unicode="Ū"/><glyph d="M682 289v420h115v-709h-76l-21 113h-6q-10 -20 -31.5 -44t-87 -54.5t-151.5 -30.5q-145 0 -226 89t-81 236v400h114v-385q0 -111 54.5 -176.5t165.5 -65.5t171 66.5t60 140.5zM195 911v78h532v-78h-532z" glyph-name="umacron" horiz-adv-x="923" unicode="ū"/><glyph d="M673 -29q-239 0 -374 147.5t-135 393.5v717h117v-717q0 -195 100.5 -312.5t290.5 -117.5t291.5 117.5t101.5 312.5v717h115v-717q0 -248 -134 -394.5t-373 -146.5zM840 1657h94q0 -119 -75 -196t-187.5 -77t-186 77t-73.5 196h92q0 -80 47 -130t121 -51t121 49t47 132z " glyph-name="Ubreve" horiz-adv-x="1345" unicode="Ŭ"/><glyph d="M682 289v420h115v-709h-76l-21 113h-6q-10 -20 -31.5 -44t-87 -54.5t-151.5 -30.5q-145 0 -226 89t-81 236v400h114v-385q0 -111 54.5 -176.5t165.5 -65.5t171 66.5t60 140.5zM631 1194h94q0 -119 -75 -195.5t-187.5 -76.5t-186 76.5t-73.5 195.5h92q0 -80 47 -130 t121 -51t121 49t47 132z" glyph-name="ubreve" horiz-adv-x="923" unicode="ŭ"/><glyph d="M687 1313q-79 0 -132 52t-53 128t53 128t132 52t131 -51t52 -129t-52 -129t-131 -51zM791 1493q0 47 -28 75.5t-76 28.5t-76.5 -28.5t-28.5 -75.5t28.5 -75.5t76.5 -28.5t76 28.5t28 75.5zM673 -29q-239 0 -374 147.5t-135 393.5v717h117v-717q0 -195 100.5 -312.5 t290.5 -117.5t291.5 117.5t101.5 312.5v717h115v-717q0 -248 -134 -394.5t-373 -146.5z" glyph-name="Uring" horiz-adv-x="1345" unicode="Ů"/><glyph d="M466 887q-79 0 -132 52t-53 128t53 128t132 52t131 -51t52 -129t-52 -129t-131 -51zM569 1067q0 47 -27.5 75.5t-75.5 28.5t-77 -28.5t-29 -75.5t29 -75.5t77 -28.5t75.5 28.5t27.5 75.5zM682 289v420h115v-709h-76l-21 113h-6q-10 -20 -31.5 -44t-87 -54.5t-151.5 -30.5 q-145 0 -226 89t-81 236v400h114v-385q0 -111 54.5 -176.5t165.5 -65.5t171 66.5t60 140.5z" glyph-name="uring" horiz-adv-x="923" unicode="ů"/><glyph d="M673 -29q-239 0 -374 147.5t-135 393.5v717h117v-717q0 -195 100.5 -312.5t290.5 -117.5t291.5 117.5t101.5 312.5v717h115v-717q0 -248 -134 -394.5t-373 -146.5zM475 1307v22l98 301h132v-22l-158 -301h-72zM799 1307v22l96 301h133v-22l-158 -301h-71z" glyph-name="Uhungarumlaut" horiz-adv-x="1345" unicode="Ű"/><glyph d="M682 289v420h115v-709h-76l-21 113h-6q-10 -20 -31.5 -44t-87 -54.5t-151.5 -30.5q-145 0 -226 89t-81 236v400h114v-385q0 -111 54.5 -176.5t165.5 -65.5t171 66.5t60 140.5zM258 858v23l98 301h131v-23l-157 -301h-72zM582 858v23l96 301h133v-23l-158 -301h-71z" glyph-name="uhungarumlaut" horiz-adv-x="923" unicode="ű"/><glyph d="M682 -295q-150 1 -150 143q0 70 76 127q-209 18 -326.5 163t-117.5 374v717h117v-717q0 -195 100.5 -312.5t290.5 -117.5t291.5 117.5t101.5 312.5v717h115v-717q0 -238 -125 -383t-348 -156q-99 -49 -99 -123t78 -75q46 0 74 28l39 -51q-43 -47 -117 -47z" glyph-name="Uogonek" horiz-adv-x="1345" unicode="Ų"/><glyph d="M748 -209q44 0 73 29l39 -51q-43 -47 -117 -47t-111.5 35.5t-37.5 99.5q0 100 123 161l-17 95h-6q-10 -20 -31.5 -44t-87 -54.5t-151.5 -30.5q-145 0 -226 89t-81 236v400h114v-385q0 -111 54.5 -176.5t165.5 -65.5t171 66.5t60 140.5v420h115v-709q-49 -14 -88 -52 t-39 -79q0 -78 78 -78z" glyph-name="uogonek" horiz-adv-x="923" unicode="ų"/><glyph d="M537 1321v22l225 302h129l225 -302v-22h-74l-215 227l-217 -227h-73zM518 283l266 946h90l265 -946l16 -82h8l21 82l319 946h123l-426 -1229h-100l-264 942l-7 35h-6l-6 -35l-266 -942h-96l-426 1229h123l321 -946l19 -82h8z" glyph-name="Wcircumflex" horiz-adv-x="1656" unicode="Ŵ"/><glyph d="M305 858v23l225 301h129l226 -301v-23h-74l-215 227l-217 -227h-74zM358 135h11l12 49l168 525h96l166 -525q10 -27 10 -49h13q0 16 12 49l190 525h113l-279 -709h-96l-168 524q-10 31 -10 43h-6q0 -12 -10 -43l-168 -524h-97l-278 709h121l188 -525q12 -33 12 -49z" glyph-name="wcircumflex" horiz-adv-x="1183" unicode="ŵ"/><glyph d="M264 1307v22l225 301h129l226 -301v-22h-74l-215 227l-217 -227h-74zM610 0h-116v471l-480 758h138l364 -580l31 -63h16l33 63l360 580h136l-482 -758v-471z" glyph-name="Ycircumflex" horiz-adv-x="1105" unicode="Ŷ"/><glyph d="M418 135h6q0 25 12 49l246 525h119l-527 -1102h-120l208 424l-331 678h127l248 -525q12 -25 12 -49zM139 858v23l226 301h129l225 -301v-23h-74l-215 227l-217 -227h-74z" glyph-name="ycircumflex" horiz-adv-x="829" unicode="ŷ"/><glyph d="M293 1444q0 33 23.5 56.5t56.5 23.5t56.5 -23.5t23.5 -56.5t-23.5 -56.5t-56.5 -23.5t-56.5 23.5t-23.5 56.5zM657 1444q0 33 24 56.5t56.5 23.5t56 -23.5t23.5 -56.5t-23.5 -56.5t-56 -23.5t-56.5 23.5t-24 56.5zM610 0h-116v471l-480 758h138l364 -580l31 -63h16l33 63 l360 580h136l-482 -758v-471z" glyph-name="Ydieresis" horiz-adv-x="1105" unicode="Ÿ"/><glyph d="M502 1307v22l98 301h143v-22l-170 -301h-71zM63 0v29l787 1091h-766v109h958v-29l-778 -1091h758v-109h-959z" glyph-name="Zacute" horiz-adv-x="1095" unicode="Ź"/><glyph d="M336 858v23l98 301h144v-23l-170 -301h-72zM70 612v97h626v-54l-469 -559h469v-96h-628v57l469 555h-467z" glyph-name="zacute" horiz-adv-x="763" unicode="ź"/><glyph d="M63 0v29l787 1091h-766v109h958v-29l-778 -1091h758v-109h-959zM438 1520q0 43 29 71.5t71 28.5t69.5 -28.5t27.5 -71.5t-27.5 -71t-69.5 -28t-71 28t-29 71z" glyph-name="Zdotaccent" horiz-adv-x="1095" unicode="Ż"/><glyph d="M70 612v97h626v-54l-469 -559h469v-96h-628v57l469 555h-467zM285 1061q0 43 28.5 71.5t70.5 28.5t69.5 -28.5t27.5 -71.5t-27.5 -70.5t-69.5 -27.5t-70.5 27.5t-28.5 70.5z" glyph-name="zdotaccent" horiz-adv-x="763" unicode="ż"/><glyph d="M834 1628v-22l-226 -301h-129l-225 301v22h74l217 -227l215 227h74zM63 0v29l787 1091h-766v109h958v-29l-778 -1091h758v-109h-959z" glyph-name="Zcaron" horiz-adv-x="1095" unicode="Ž"/><glyph d="M676 1182v-23l-225 -301h-129l-226 301v23h74l217 -228l215 228h74zM70 612v97h626v-54l-469 -559h469v-96h-628v57l469 555h-467z" glyph-name="zcaron" horiz-adv-x="763" unicode="ž"/><glyph d="M231 -176v792h-172v93h172v317q0 338 291 338q66 0 103.5 -17t44.5 -20l-35 -96q-51 27 -98 26q-190 0 -191 -231v-317h293v-93h-293v-802q0 -225 -199 -226q-76 0 -122 29l-17 10l37 88q41 -25 90 -25q96 0 96 134z" glyph-name="florin" horiz-adv-x="690" unicode="ƒ"/><glyph d="M434 1358q0 72 54 124t132 52t130.5 -51t52.5 -123t-40 -121t-104 -61l576 -1178h-133l-117 233h-727l-117 -233h-131l570 1176q-63 12 -104.5 61t-41.5 121zM930 344l-301 647h-17l-286 -624l-13 -23h617zM584 1567v22l98 301h143v-22l-170 -301h-71zM723 1354 q0 47 -27.5 75.5t-75.5 28.5t-77 -28.5t-29 -75.5t28.5 -76t76.5 -29t76 29t28 76z" glyph-name="Aringacute" horiz-adv-x="1245" unicode="Ǻ"/><glyph d="M61 209q0 96 81 157.5t238 61.5t249 -72h10v52q0 219 -252 219q-59 0 -112.5 -14.5t-77.5 -28.5l-23 -15l-43 88q87 68 271 68t266 -90t82 -242v-393h-82l-13 92h-8q-12 -18 -36.5 -39.5t-92 -45t-153.5 -23.5q-150 0 -227 64.5t-77 160.5zM176 212q0 -62 53.5 -102 t155.5 -40t176 48t74 101t-71.5 91t-175.5 38t-158 -37t-54 -99zM395 1313v22l99 301h143v-22l-170 -301h-72zM427 874q-79 0 -132 52.5t-53 128t53 128t132 52.5t131 -51t52 -129t-52 -129.5t-131 -51.5zM530 1055q0 47 -27.5 75.5t-75.5 28.5t-76.5 -28.5t-28.5 -75.5 t28.5 -76t76.5 -29t75.5 29t27.5 76z" glyph-name="aringacute" horiz-adv-x="864" unicode="ǻ"/><glyph d="M1206 1307v22l99 301h143v-22l-170 -301h-72zM1774 1229v-109h-773v-461h678v-108h-678v-442h773v-109h-889v233h-600l-164 -233h-141l892 1229h902zM885 344v696h-15l-508 -696h523z" glyph-name="AEacute" horiz-adv-x="1855" unicode="Ǽ"/><glyph d="M696 858v23l99 301h143v-23l-170 -301h-72zM1038 -18q-215 0 -327 151q-100 -150 -336 -149q-154 0 -234 64.5t-80 161.5t79.5 156.5t237.5 59.5t249 -74h8v47q0 231 -248 232q-105 0 -194 -41l-25 -15l-39 87q106 63 281 63q219 0 299 -147q102 147 299 147 q164 0 255 -96.5t91 -253.5v-37h-596q4 -123 84 -192.5t196 -69.5q63 0 119.5 15t81.5 32l25 14l41 -78q-37 -29 -114 -53t-153 -24zM172 211q0 -139 213 -139q100 0 175 43t75 99t-76 93t-174 37q-213 0 -213 -133zM1010 631q-100 0 -165 -55.5t-81 -155.5h477 q-8 92 -69.5 151.5t-161.5 59.5z" glyph-name="aeacute" horiz-adv-x="1421" unicode="ǽ"/><glyph d="M736 -29q-272 0 -443 156l-127 -125l-68 70l129 127q-135 174 -135 413q0 279 174 461t444 182t441 -153l113 110l67 -69l-112 -111q137 -176 137 -436t-174 -442.5t-446 -182.5zM736 82q222 0 362.5 153.5t140.5 362.5t-106 350l-756 -739q137 -127 359 -127zM211 628 q0 -209 102 -347l754 739q-137 125 -356 125t-359.5 -154t-140.5 -363zM682 1307v22l98 301h144v-22l-170 -301h-72z" glyph-name="Oslashacute" horiz-adv-x="1445" unicode="Ǿ"/><glyph d="M842 343q0 -159 -110.5 -259t-266.5 -100t-254 79l-82 -81l-47 49l80 80q-84 95 -84 251t109 259.5t259 103.5t250 -76l86 86l47 -49l-84 -82q97 -102 97 -261zM464 78q108 0 186.5 75t78.5 187t-57 190l-389 -391q73 -61 181 -61zM193 368q0 -108 47 -182l385 387 q-69 57 -173 57t-181.5 -77t-77.5 -185zM406 858v23l98 301h143v-23l-170 -301h-71z" glyph-name="oslashacute" horiz-adv-x="915" unicode="ǿ"/><glyph d="M479 -160q0 37 24.5 61.5t65.5 24.5t68 -26.5t27 -68.5t-29 -93l-55 -98h-86l45 77l26 33v6q-39 2 -62.5 24.5t-23.5 59.5zM909 1044q-141 101 -381 101q-124 0 -217.5 -56.5t-93.5 -150.5t79.5 -144.5t291.5 -109.5t312.5 -143t100.5 -233t-115.5 -243t-339.5 -94 t-321.5 56.5t-113.5 70.5l-17 15l66 90q14 -14 42.5 -33.5t126 -53.5t206.5 -34q176 0 262 61.5t86 163.5t-80 158.5t-291 117.5t-312.5 137t-101.5 220t121 229.5t328 85.5q131 0 237.5 -28.5t147.5 -57.5l41 -28z" glyph-name="Scommaaccent" horiz-adv-x="1087" unicode="Ș"/><glyph d="M305 -160q0 37 24.5 61.5t65.5 24.5t67.5 -26.5t26.5 -68.5t-28 -93l-55 -98h-87l46 77l26 33v6q-39 2 -62.5 24.5t-23.5 59.5zM588 185q0 48 -52.5 77t-127 45.5t-148.5 37t-126 65t-52 124.5t75.5 135.5t223.5 55.5q84 0 156.5 -14.5t103.5 -28.5l31 -14l-43 -95 q-84 57 -238 58q-199 0 -198 -105q0 -74 125.5 -100.5t200.5 -46t127 -66.5t52 -129t-77.5 -141t-239.5 -59q-94 0 -171 20.5t-108 40.5l-30 18l47 82q106 -68 262 -67q100 0 153.5 29.5t53.5 77.5z" glyph-name="scommaaccent" horiz-adv-x="768" unicode="ș"/><glyph d="M436 -160q0 37 24.5 61.5t65.5 24.5t68 -26.5t27 -68.5t-29 -93l-55 -98h-86l45 77l26 33v6q-39 2 -62.5 24.5t-23.5 59.5zM35 1120v109h993v-109h-440v-1120h-115v1120h-438z" glyph-name="uni021A" horiz-adv-x="1062" unicode="Ț"/><glyph d="M268 -160q0 37 24.5 61.5t65.5 24.5t68 -26.5t27 -68.5t-29 -93l-55 -98h-86l45 77l26 33v6q-39 2 -62.5 24.5t-23.5 59.5zM467 82q38 0 100 31l39 -82q-59 -47 -155 -47q-276 0 -277 309v321h-145v95h145v213h115v-213h291v-95h-291v-319q0 -213 178 -213z" glyph-name="uni021B" horiz-adv-x="630" unicode="ț"/><glyph d="M127 -176v885h117v-895q0 -225 -199 -226q-77 0 -139 39l35 88q41 -25 90 -25q96 0 96 134z" glyph-name="uni0237" horiz-adv-x="370" unicode="ȷ"/><glyph d="M389 725q172 0 279.5 -102.5t107.5 -270.5t-103 -269t-263 -101t-252 94t-92 256v43h598q-8 121 -89 189.5t-196 68.5q-63 0 -119.5 -16.5t-81.5 -32.5l-24 -17l-37 82q100 76 272 76zM406 66q104 0 171.5 58t84.5 169h-488q2 -98 65 -162.5t167 -64.5z" glyph-name="uni0259" horiz-adv-x="851" unicode="ə"/><glyph d="M55 858v23l226 301h129l225 -301v-23h-74l-215 227l-217 -227h-74z" glyph-name="circumflex" horiz-adv-x="673" unicode="ˆ"/><glyph d="M635 1182v-23l-225 -301h-129l-226 301v23h74l217 -228l215 228h74z" glyph-name="caron" horiz-adv-x="698" unicode="ˇ"/><glyph d="M520 1194h94q0 -119 -74.5 -195.5t-187 -76.5t-186.5 76.5t-74 195.5h92q0 -80 47 -130t121 -51t121 49t47 132z" glyph-name="breve" horiz-adv-x="716" unicode="˘"/><glyph d="M209 1061q0 43 28.5 71.5t70.5 28.5t70 -28.5t28 -71.5t-28 -70.5t-70 -27.5t-70.5 27.5t-28.5 70.5z" glyph-name="dotaccent" horiz-adv-x="618" unicode="˙"/><glyph d="M294 887q-79 0 -132 52t-53 128t53 128t132 52t131 -51t52 -129t-52 -129t-131 -51zM397 1067q0 47 -27.5 75.5t-75.5 28.5t-77 -28.5t-29 -75.5t29 -75.5t77 -28.5t75.5 28.5t27.5 75.5z" glyph-name="ring" horiz-adv-x="550" unicode="˚"/><glyph d="M229 -209q45 0 74 29l39 -51q-43 -47 -117 -47t-111.5 36t-37.5 98t47 109t94 64l47 16l15 -45q-49 -14 -88 -52t-39 -79q0 -78 77 -78z" glyph-name="ogonek" horiz-adv-x="411" unicode="˛"/><glyph d="M569 911q-59 0 -144 51.5t-123 51.5t-54.5 -19.5t-28.5 -56.5l-8 -27l-82 9l10 45q29 139 154 139q57 0 142 -50t122 -50q68 0 86 75l6 25l82 -8l-8 -43q-27 -142 -154 -142z" glyph-name="tilde" horiz-adv-x="880" unicode="˜"/><glyph d="M115 858v23l98 301h131v-23l-158 -301h-71zM438 858v23l97 301h133v-23l-158 -301h-72z" glyph-name="hungarumlaut" horiz-adv-x="849" unicode="˝"/><glyph d="M41 709h897v-97h-141v-612h-115v612h-387v-612h-113v612h-141v97z" glyph-name="pi" horiz-adv-x="976" unicode="π"/><glyph d="M621 1630h143l98 -301v-22h-71l-170 301v22zM518 283l266 946h90l265 -946l16 -82h8l21 82l319 946h123l-426 -1229h-100l-264 942l-7 35h-6l-6 -35l-266 -942h-96l-426 1229h123l321 -946l19 -82h8z" glyph-name="Wgrave" horiz-adv-x="1656" unicode="Ẁ"/><glyph d="M358 135h11l12 49l168 525h96l166 -525q10 -27 10 -49h13q0 16 12 49l190 525h113l-279 -709h-96l-168 524q-10 31 -10 43h-6q0 -12 -10 -43l-168 -524h-97l-278 709h121l188 -525q12 -33 12 -49zM385 1182h143l99 -301v-23h-72l-170 301v23z" glyph-name="wgrave" horiz-adv-x="1183" unicode="ẁ"/><glyph d="M799 1307v22l98 301h143v-22l-170 -301h-71zM518 283l266 946h90l265 -946l16 -82h8l21 82l319 946h123l-426 -1229h-100l-264 942l-7 35h-6l-6 -35l-266 -942h-96l-426 1229h123l321 -946l19 -82h8z" glyph-name="Wacute" horiz-adv-x="1656" unicode="Ẃ"/><glyph d="M569 858v23l99 301h143v-23l-170 -301h-72zM358 135h11l12 49l168 525h96l166 -525q10 -27 10 -49h13q0 16 12 49l190 525h113l-279 -709h-96l-168 524q-10 31 -10 43h-6q0 -12 -10 -43l-168 -524h-97l-278 709h121l188 -525q12 -33 12 -49z" glyph-name="wacute" horiz-adv-x="1183" unicode="ẃ"/><glyph d="M569 1458q0 33 23.5 56.5t56.5 23.5t56.5 -23.5t23.5 -56.5t-23.5 -56.5t-56.5 -23.5t-56.5 23.5t-23.5 56.5zM934 1458q0 33 23.5 56.5t56.5 23.5t56.5 -23.5t23.5 -56.5t-23.5 -56.5t-56.5 -23.5t-56.5 23.5t-23.5 56.5zM518 283l266 946h90l265 -946l16 -82h8l21 82 l319 946h123l-426 -1229h-100l-264 942l-7 35h-6l-6 -35l-266 -942h-96l-426 1229h123l321 -946l19 -82h8z" glyph-name="Wdieresis" horiz-adv-x="1656" unicode="Ẅ"/><glyph d="M334 989q0 33 23.5 56.5t56 23.5t56.5 -23.5t24 -56.5t-24 -56.5t-56.5 -23.5t-56 23.5t-23.5 56.5zM698 989q0 33 23.5 56.5t56.5 23.5t56.5 -23.5t23.5 -56.5t-23.5 -56.5t-56.5 -23.5t-56.5 23.5t-23.5 56.5zM358 135h11l12 49l168 525h96l166 -525q10 -27 10 -49h13 q0 16 12 49l190 525h113l-279 -709h-96l-168 524q-10 31 -10 43h-6q0 -12 -10 -43l-168 -524h-97l-278 709h121l188 -525q12 -33 12 -49z" glyph-name="wdieresis" horiz-adv-x="1183" unicode="ẅ"/><glyph d="M610 0h-116v471l-480 758h138l364 -580l31 -63h16l33 63l360 580h136l-482 -758v-471zM342 1632h143l99 -301v-22h-72l-170 301v22z" glyph-name="Ygrave" horiz-adv-x="1105" unicode="Ỳ"/><glyph d="M418 135h6q0 25 12 49l246 525h119l-527 -1102h-120l208 424l-331 678h127l248 -525q12 -25 12 -49zM217 1182h143l99 -301v-23h-72l-170 301v23z" glyph-name="ygrave" horiz-adv-x="829" unicode="ỳ"/><glyph glyph-name="uni2002" horiz-adv-x="1024" unicode=" "/><glyph glyph-name="uni2003" horiz-adv-x="2048" unicode=" "/><glyph glyph-name="uni2004" horiz-adv-x="681" unicode=" "/><glyph glyph-name="uni2005" horiz-adv-x="512" unicode=" "/><glyph glyph-name="uni2007" horiz-adv-x="1228" unicode=" "/><glyph glyph-name="uni2009" horiz-adv-x="272" unicode=" "/><glyph glyph-name="uni200A" horiz-adv-x="153" unicode=" "/><glyph d="M117 541v98h704v-98h-704z" glyph-name="endash" horiz-adv-x="935" unicode="–"/><glyph d="M117 541v98h1261v-98h-1261z" glyph-name="emdash" horiz-adv-x="1492" unicode="—"/><glyph d="M262 1114q0 -35 -24.5 -59.5t-61.5 -24.5t-62.5 24.5t-25.5 69.5t29 97l86 155h86l-78 -137l-25 -33v-6q35 -4 55.5 -27.5t20.5 -58.5z" glyph-name="quoteleft" horiz-adv-x="376" unicode="‘"/><glyph d="M125 1259q0 35 24.5 59.5t61.5 24.5t62.5 -24.5t25.5 -69.5t-29 -96l-86 -156h-86l78 138l25 32v7q-35 4 -55.5 27t-20.5 58z" glyph-name="quoteright" horiz-adv-x="376" unicode="’"/><glyph d="M47 70q0 35 24.5 59.5t61.5 24.5t62.5 -25t25.5 -69t-28 -97l-87 -156h-86l78 138l25 32v7q-35 4 -55.5 27.5t-20.5 58.5z" glyph-name="quotesinglbase" horiz-adv-x="268" unicode="‚"/><glyph d="M262 1114q0 -35 -24.5 -59.5t-61.5 -24.5t-62.5 24.5t-25.5 69.5t29 97l86 155h86l-78 -137l-25 -33v-6q35 -4 55.5 -27.5t20.5 -58.5zM573 1114q0 -35 -24.5 -59.5t-61 -24.5t-62.5 24.5t-26 69.5t29 97l86 155h86l-78 -137l-24 -33v-6q35 -4 55 -27.5t20 -58.5z" glyph-name="quotedblleft" horiz-adv-x="690" unicode="“"/><glyph d="M117 1259q0 35 24.5 59.5t61.5 24.5t62.5 -24.5t25.5 -69.5t-29 -96l-86 -156h-86l78 138l25 32v7q-35 4 -55.5 27t-20.5 58zM432 1259q0 35 24.5 59.5t61.5 24.5t62.5 -24.5t25.5 -69.5t-28 -96l-86 -156h-86l77 138l25 32v7q-35 4 -55.5 27t-20.5 58z" glyph-name="quotedblright" horiz-adv-x="692" unicode="”"/><glyph d="M47 70q0 35 24.5 59.5t61.5 24.5t62.5 -25t25.5 -69t-28 -97l-87 -156h-86l78 138l25 32v7q-35 4 -55.5 27.5t-20.5 58.5zM369 70q0 35 24.5 59.5t61.5 24.5t62.5 -25t25.5 -69t-29 -97l-86 -156h-86l78 138l24 32v7q-35 4 -55 27.5t-20 58.5z" glyph-name="quotedblbase" horiz-adv-x="589" unicode="„"/><glyph d="M70 608v99h313v522h100v-522h312v-99h-312l-14 -1001h-72l-14 1001h-313z" glyph-name="dagger" horiz-adv-x="864" unicode="†"/><glyph d="M104 754v98h314v377h98v-377h313v-98h-313v-498h313v-98h-313l-12 -551h-74l-12 551h-314v98h314v498h-314z" glyph-name="daggerdbl" horiz-adv-x="931" unicode="‡"/><glyph d="M164 353q0 56 41 97.5t97 41.5t96 -41t40 -97t-40 -96.5t-96 -40.5t-97 40t-41 96z" glyph-name="bullet" horiz-adv-x="604" unicode="•"/><glyph d="M49 73q0 40 26.5 65.5t64.5 25.5t64.5 -25.5t26.5 -64.5t-26.5 -65.5t-64.5 -26.5t-64.5 25.5t-26.5 65.5zM354 74q0 39 27 64.5t65 25.5t64.5 -25.5t26.5 -65.5t-27 -65.5t-65 -25.5t-64.5 26.5t-26.5 65.5zM662 74q0 39 25.5 64.5t64.5 25.5t65.5 -25.5t26.5 -65.5 t-26.5 -65.5t-65.5 -25.5t-64.5 26.5t-25.5 65.5z" glyph-name="ellipsis" horiz-adv-x="890" unicode="…"/><glyph d="M348 1255q125 0 196.5 -88t71.5 -217t-71.5 -219t-196.5 -90t-196.5 90t-71.5 219t71.5 217t196.5 88zM348 737q78 0 120 59.5t42 151.5t-42 151.5t-120 59.5t-120 -59.5t-42 -151.5t42 -151.5t120 -59.5zM1124 1233l80 -66l-960 -1155l-78 66zM1024 598q125 0 197.5 -89 t72.5 -217t-72.5 -218t-197.5 -90t-197.5 90t-72.5 218t72.5 217t197.5 89zM1023 504q-77 0 -120 -59.5t-43 -151.5t43 -151.5t120 -59.5t119 59.5t42 151.5t-42 151.5t-119 59.5zM1679.5 504q-75.5 0 -118.5 -59.5t-43 -151.5t43 -151.5t118.5 -59.5t118.5 59.5t43 151.5 t-43 151.5t-118.5 59.5zM1679 598q125 0 198 -89t73 -217t-73 -218t-198 -90t-197.5 90t-72.5 218t72.5 217t197.5 89z" glyph-name="perthousand" horiz-adv-x="2019" unicode="‰"/><glyph d="M406 688v-16l-216 -314v-10l216 -317v-17h-103l-217 318v39l217 317h103z" glyph-name="guilsinglleft" horiz-adv-x="493" unicode="‹"/><glyph d="M88 14v17l215 317v10l-215 314v16h102l218 -317v-39l-218 -318h-102z" glyph-name="guilsinglright" horiz-adv-x="493" unicode="›"/><glyph d="M-262 18l-64 52l961 1155l63 -51z" glyph-name="fraction" horiz-adv-x="368" unicode="⁄"/><glyph d="M392 1386q151 0 239 -103t88 -249t-88 -248t-239 -102t-238.5 102.5t-87.5 247.5t87.5 248.5t238.5 103.5zM391.5 1305q-108.5 0 -171 -79t-62.5 -192t62.5 -190.5t171 -77.5t170 78t61.5 190t-61.5 191.5t-170 79.5z" glyph-name="uni2070" horiz-adv-x="780" unicode="⁰"/><glyph d="M41 887v53l383 428h63v-405h111v-76h-111v-187h-84v187h-362zM403 963v276h-2l-172 -201l-71 -77v-5l104 7h141z" glyph-name="uni2074" horiz-adv-x="645" unicode="⁴"/><glyph d="M306 1028q-97 0 -177 -31l-29 19l13 352h428v-78h-357l-6 -209q61 15 169 15t174.5 -52.5t66.5 -146.5t-71 -153.5t-200 -59.5q-70 0 -145.5 28.5t-116.5 65.5l49 60q78 -74 188 -74t159 36t49 96t-48.5 96t-145.5 36z" glyph-name="uni2075" horiz-adv-x="641" unicode="⁵"/><glyph d="M344 1174q129 0 206 -63.5t77 -177.5t-77 -181.5t-206 -67.5t-205 67.5t-76 188.5t103 244l156 186h102l-129 -149q-25 -34 -55 -56v-6q43 15 104 15zM345 1098q-89 0 -142 -43t-53 -122t52 -125t142 -46t142.5 46t52.5 125t-52.5 122t-141.5 43z" glyph-name="uni2076" horiz-adv-x="673" unicode="⁶"/><glyph d="M545 1368v-27l-273 -641h-96l254 590h-385v78h500z" glyph-name="uni2077" horiz-adv-x="573" unicode="⁷"/><glyph d="M66 889q0 121 124 164q-102 49 -102 153q0 78 71.5 129t186.5 51t186.5 -51t71.5 -129q0 -102 -104 -153q129 -45 129 -164q0 -84 -76 -144.5t-206 -60.5t-205.5 60.5t-75.5 144.5zM346 1016q-92 0 -143 -33t-51 -89t52 -95t141 -39t141.5 39t52.5 95t-50.5 89t-142.5 33 zM346 1079q82 0 128 34t46 84t-48 82t-126 32t-125 -32t-47 -82t45 -84t127 -34z" glyph-name="uni2078" horiz-adv-x="690" unicode="⁸"/><glyph d="M336 897q-127 0 -205 63.5t-78 176.5t78 181t206 68t203.5 -68t75.5 -188t-102 -243l-156 -187h-102l129 150q24 31 55 55v4q-49 -12 -104 -12zM335 973q89 0 142 43t53 122t-52 125t-142 46t-142.5 -46t-52.5 -125t52.5 -122t141.5 -43z" glyph-name="uni2079" horiz-adv-x="679" unicode="⁹"/><glyph d="M392 430q151 0 239 -103.5t88 -248.5t-88 -247.5t-239 -102.5t-238.5 102t-87.5 248t87.5 249t238.5 103zM391.5 348q-108.5 0 -171 -79t-62.5 -191t62.5 -190t171 -78t170 77.5t61.5 190.5t-61.5 191.5t-170 78.5z" glyph-name="uni2080" horiz-adv-x="778" unicode="₀"/><glyph d="M39 334v78h240v-668h-89v590h-151z" glyph-name="uni2081" horiz-adv-x="389" unicode="₁"/><glyph d="M55 -256v33l322 289q84 74 84 141q0 141 -164 141q-49 0 -95 -17.5t-68.5 -33.5t-24.5 -21l-46 66q32 32 103.5 60t136.5 28q127 0 187.5 -57.5t60.5 -156.5t-105 -191l-227 -203h371v-78h-535z" glyph-name="uni2082" horiz-adv-x="645" unicode="₂"/><glyph d="M78 334v78h475v-27l-166 -244q96 -8 147.5 -59t51.5 -141t-71 -151.5t-200 -61.5q-70 0 -148.5 29.5t-113.5 64.5l49 63q86 -76 211 -75q88 0 136.5 37.5t48.5 97.5q0 125 -156 129h-78v28l160 232h-346z" glyph-name="uni2083" horiz-adv-x="643" unicode="₃"/><glyph d="M43 -70v54l383 428l2 -2v2h61v-406h111v-76h-111v-186h-83v186h-363zM406 6v277h-3l-176 -205l-73 -78l110 6h142z" glyph-name="uni2084" horiz-adv-x="647" unicode="₄"/><glyph d="M292 -193q208 1 208 133q0 60 -48.5 96t-150.5 36t-172 -31l-29 18l11 353h430v-78h-357l-6 -209q61 14 168 14t173.5 -52t66.5 -146t-70 -153.5t-201 -59.5q-68 0 -143.5 28.5t-116.5 65.5l47 59q80 -74 190 -74z" glyph-name="uni2085" horiz-adv-x="641" unicode="₅"/><glyph d="M344 217q129 0 206 -63.5t77 -177.5t-77 -181t-206 -67t-205 67.5t-76 188.5t103 243l156 187h102l-129 -150q-24 -31 -55 -55v-6q43 14 104 14zM345 141q-89 0 -142 -43t-53 -122t52 -125t142 -46t142.5 46.5t52.5 124.5t-52.5 121.5t-141.5 43.5z" glyph-name="uni2086" horiz-adv-x="673" unicode="₆"/><glyph d="M545 412v-27l-273 -641h-96l254 590h-385v78h500z" glyph-name="uni2087" horiz-adv-x="573" unicode="₇"/><glyph d="M66 -68q0 121 124 164q-102 49 -102 154q0 78 71.5 129t186.5 51t186.5 -51t71.5 -129q0 -102 -104 -154q129 -45 129 -164q0 -84 -76 -144t-206 -60t-205.5 60t-75.5 144zM346 59q-92 0 -143 -32.5t-51 -88.5t52 -95.5t141 -39.5t141.5 39.5t52.5 95.5t-50.5 88.5 t-142.5 32.5zM346 123q82 0 128 33.5t46 83.5t-48 82t-126 32t-125 -31.5t-47 -81.5t45 -84t127 -34z" glyph-name="uni2088" horiz-adv-x="690" unicode="₈"/><glyph d="M332 -59q-127 0 -205 63.5t-78 175.5t78 181t206 69t203.5 -67.5t75.5 -188.5t-102 -244l-156 -186h-102l129 150q24 31 55 55v6q-57 -14 -104 -14zM331 16q89 0 142 43t53 122t-52 125t-142 46t-142.5 -46t-52.5 -125t52.5 -122t141.5 -43z" glyph-name="uni2089" horiz-adv-x="673" unicode="₉"/><glyph d="M723 -29h-6l-31 -180h-100l32 189q-68 8 -129 30l-38 -219h-97l45 260q-147 82 -231 230.5t-84 330.5q0 246 145.5 421t378.5 212l33 180h96l-30 -172q11 2 43 2t90 -10l32 180h99l-37 -202q63 -20 116.5 -52t75.5 -53l21 -22l-68 -90q-61 61 -164 102l-178 -1026 q96 2 182.5 37t122.5 69l37 33l68 -88l-53 -53q-52 -52 -171.5 -80.5t-199.5 -28.5zM203 612q0 -135 58 -250.5t161 -187.5l166 954q-174 -45 -279.5 -187.5t-105.5 -328.5zM740 1145q-40 0 -52 -2l-180 -1018q49 -23 129 -37l184 1049q-41 8 -81 8z" glyph-name="colonmonetary" horiz-adv-x="1239" unicode="₡"/><glyph d="M1292 1229v-244h97v-96h-97v-547h97v-92h-97v-250h-37l-231 250h-674v-250h-117v250h-129v92h129v547h-129v96h129v244h37l226 -244h680v244h116zM1176 342v547h-590l506 -547h84zM350 889v-547h588l-506 547h-82z" glyph-name="uni20A6" horiz-adv-x="1521" unicode="₦"/><glyph d="M1815 185q0 48 -52.5 77t-127 45.5t-148.5 37t-126 65t-52 124.5t75.5 135.5t223.5 55.5q84 0 156.5 -14.5t103.5 -28.5l30 -14l-43 -95q-84 57 -237 58q-199 0 -199 -105q0 -74 126 -100.5t201 -46t127 -66.5t52 -129t-78 -141t-239 -59q-94 0 -171 20.5t-108 40.5 l-31 18l48 82q106 -68 262 -67q100 0 153.5 29.5t53.5 77.5zM199 0v1229h489q233 0 360.5 -103.5t127.5 -302.5q0 -152 -81 -249t-223 -134v-8l332 -403v-29h-125l-346 418h-418v-418h-116zM1057 822q0 148 -98.5 223t-270.5 75h-373v-594h394q158 0 253 74t95 222z" glyph-name="uni20A8" horiz-adv-x="2011" unicode="₨"/><glyph d="M1804 375v-94h-374l-97 -281h-100l-78 281h-393l-78 -281h-96l-99 281h-374v94h342l-172 495h-170v95h137l-90 264h123l90 -264h467l76 264h90l73 -264h465l90 264h123l-92 -264h137v-95h-170l-172 -495h342zM406 870l167 -495h103l139 495h-409zM1108 870l137 -495h103 l168 495h-408zM930 870l-142 -495h340l-139 495h-59zM625 201h8l18 80h-45zM1288 201h8l19 80h-43zM956 977l-2 -12h11l-2 12h-7z" glyph-name="uni20A9" horiz-adv-x="1921" unicode="₩"/><glyph d="M891 709v-709h-225q-121 0 -177.5 57.5t-80.5 180.5l-35 178h71l37 -148q20 -88 55 -129t119 -41h154v611h82zM176 0v709h275q240 0 239 -242v-174h-69l-5 147q-4 170 -167 170h-191v-610h-82z" glyph-name="afii57636" horiz-adv-x="1067" unicode="₪"/><glyph d="M862 514v-94h-483q41 -147 144.5 -234.5t262.5 -87.5q82 0 152 31t98 59l31 31l68 -86q-7 -11 -88.5 -78t-278.5 -67t-331 118.5t-179 313.5h-168v94h150q-4 33 -4 83t4 112h-150v96h166q45 197 179 317.5t349 120.5q174 0 250 -57.5t88 -71.5l15 -16l-70 -86 q-10 12 -31.5 32.5t-94.5 53t-155 32.5q-162 0 -265 -88t-144 -237h485v-96h-504q-4 -31 -4 -89t6 -106h502z" glyph-name="Euro" horiz-adv-x="1232" unicode="€"/><glyph d="M244 1053q0 133 83 224t217 91t217 -91t83 -222t-51.5 -218t-159.5 -173l-281 -222v-143q0 -104 52.5 -159.5t148.5 -55.5q45 0 87 15.5t60 31.5l21 14l39 -77q-31 -31 -95.5 -57.5t-123.5 -26.5q-143 0 -220 78.5t-77 222.5v82l-129 -68l-35 51l164 129v574zM352 1053 v-488l221 176q160 127 160 308q0 96 -52 157.5t-138 61.5t-138.5 -61.5t-52.5 -153.5z" glyph-name="afii61289" horiz-adv-x="872" unicode="ℓ"/><glyph d="M1069 778.5q0 -200.5 -133 -338t-352 -137.5t-351.5 138.5t-132.5 338.5t131 336.5t351 136.5t353.5 -137t133.5 -337.5zM987 778q0 172 -111.5 287t-292.5 115t-292 -113t-111 -287t111.5 -287.5t292 -113.5t292 113.5t111.5 285.5zM422 979h188q82 0 133.5 -42 t51.5 -115t-53.5 -113.5t-137.5 -40.5h-115v-103h-67v414zM608 918h-119v-189h115q53 0 88 24.5t35 69.5t-32 70t-87 25z" glyph-name="uni2117" horiz-adv-x="1167" unicode="℗"/><glyph d="M838 575h-84v654h28l289 -271q31 29 289 271h31v-654h-84v498l-224 -211h-26l-219 209v-496zM371 637q162 0 161 104q0 33 -27.5 57.5t-58 37t-116.5 40.5t-139.5 69.5t-53.5 119.5t64.5 125t156.5 47q157 0 224 -45l20 -16l-47 -66q-57 53 -180 53q-68 0 -111 -25.5 t-43 -69.5t40.5 -69.5t140.5 -56.5t160.5 -73.5t60.5 -122.5t-62.5 -131.5t-187.5 -51.5q-70 0 -129.5 19.5t-83.5 38.5l-25 18l47 61q72 -63 189 -63z" glyph-name="uni2120" horiz-adv-x="1542" unicode="℠"/><glyph d="M809 575h-84v654h31l286 -271q49 45 291 271h29v-654h-84v498l-221 -211h-27l-221 211v-498zM590 1229v-76h-215v-578h-86v578h-213v76h514z" glyph-name="trademark" horiz-adv-x="1517" unicode="™"/><glyph d="M113 0v102h321q-147 72 -232 216.5t-85 308.5q0 262 173 445t473 183t473 -183t173 -445q0 -164 -86 -308.5t-233 -216.5h325v-102h-577v104q193 8 324.5 162t131.5 362t-143 362.5t-388 154.5t-387.5 -153.5t-142.5 -363.5t132.5 -362.5t324.5 -161.5v-104h-577z" glyph-name="uni2126" horiz-adv-x="1525" unicode="Ω"/><glyph d="M260 569v-172q57 -143 186 -228t308 -85q90 0 170 19.5t112 37.5l35 19l57 -99q-44 -32 -154 -60t-222 -28q-295 0 -473.5 181.5t-178.5 458t180.5 459.5t465 183t466 -183t181.5 -460l-2 -43h-1131zM746 1145q-173 0 -301 -87t-185 -231v-161h973v161 q-59 143 -186.5 230.5t-300.5 87.5z" glyph-name="estimated" horiz-adv-x="1464" unicode="℮"/><glyph d="M891 588v78h475v-27l-166 -242q94 -8 145.5 -60t51.5 -141t-71 -151.5t-203 -62.5t-194.5 46t-64.5 48l51 63q87 -76 193 -76t153.5 38t47.5 100q0 123 -156 127h-78v28l160 232h-344zM170 16l-64 54l961 1155l63 -54zM82 1151v78h242v-668h-86v590h-156z" glyph-name="onethird" horiz-adv-x="1480" unicode="⅓"/><glyph d="M1141 590v78h475v-27l-166 -244q197 -16 197 -196q0 -94 -70 -155.5t-201 -61.5q-68 0 -146.5 29.5t-113.5 64.5l49 63q86 -76 211 -75q88 0 136.5 37.5t48.5 97.5q0 125 -158 129h-76v28l160 232h-346zM96 563v35l324 287q82 76 82 149q0 133 -164 133q-86 0 -184 -65 l-7 -4l-45 65q33 33 105 59.5t137 26.5q127 0 188.5 -57.5t61.5 -155.5t-105 -192l-231 -203h373v-78h-535zM430 16l-63 52l960 1155l64 -52z" glyph-name="twothirds" horiz-adv-x="1732" unicode="⅔"/><glyph d="M846 188q0 119 129 164q-104 49 -105 154q0 78 72 129t186.5 51t186 -51t71.5 -129q0 -102 -104 -154q127 -45 127 -164q0 -84 -74.5 -144t-206 -60t-207 60t-75.5 144zM172 16l-63 54l960 1155l64 -54zM1128.5 315q-92.5 0 -142.5 -32.5t-50 -90t51 -95.5t140 -38 t141.5 39.5t52.5 95.5t-50 88.5t-142.5 32.5zM84 1151v78h240v-668h-86v590h-154zM1128.5 379q81.5 0 126.5 33.5t45 83.5t-47 82t-124.5 32t-125 -31.5t-47.5 -81.5t45.5 -84t127 -34z" glyph-name="oneeighth" horiz-adv-x="1484" unicode="⅛"/><glyph d="M989 188q0 119 127 164q-104 51 -104 154q0 78 71.5 129t186 51t186.5 -51t72 -129q0 -104 -105 -154q129 -45 129 -164q0 -84 -75.5 -144t-205.5 -60t-206 60t-76 144zM111 1151v78h475v-27l-166 -244q96 -8 147 -59t51 -141t-70.5 -151.5t-199.5 -61.5 q-70 0 -148.5 29.5t-113.5 64.5l49 63q86 -76 211 -75q88 0 136 37.5t48 97.5q0 125 -155 129h-78v29l160 231h-346zM379 16l-62 54l961 1155l63 -54zM1270 315q-92 0 -142.5 -32.5t-50.5 -88.5t52.5 -95.5t141.5 -39.5t141 39.5t52 95.5t-51 88.5t-143 32.5zM1270 379 q82 0 128 33.5t46 83.5t-48 82t-126 32t-125 -31.5t-47 -81.5t45 -84t127 -34z" glyph-name="threeeighths" horiz-adv-x="1634" unicode="⅜"/><glyph d="M975 188q0 121 125 164q-102 49 -103 154q0 78 72 129t186.5 51t186 -51t71.5 -129q0 -102 -104 -154q127 -45 127 -164q0 -84 -76 -144t-205 -60t-204.5 60t-75.5 144zM332 887q-103 0 -180 -29l-29 19l12 352h428v-78h-356l-6 -209q61 14 169 14t174 -52t66 -146 t-70.5 -153.5t-199.5 -59.5q-68 0 -147 29t-115 65l49 59q80 -72 209 -71q186 0 186 130t-190 130zM377 16l-64 54l961 1155l65 -54zM1255.5 315q-92.5 0 -143.5 -32.5t-51 -88.5t52 -95.5t141 -39.5t141.5 39.5t52.5 95.5t-50 88.5t-142.5 32.5zM1255.5 379 q81.5 0 128 33.5t46.5 83.5t-48.5 82t-126 32t-125 -31.5t-47.5 -81.5t45.5 -84t127 -34z" glyph-name="fiveeighths" horiz-adv-x="1619" unicode="⅝"/><glyph d="M913 188q0 121 125 164q-102 49 -102 154q0 78 71.5 129t186.5 51t186.5 -51t71.5 -129q0 -102 -104 -154q129 -45 129 -164q0 -84 -76 -144t-206 -60t-206 60t-76 144zM279 16l-64 54l961 1155l63 -54zM567 1229v-27l-272 -641h-94l254 590h-385v78h497zM1194 315 q-92 0 -143.5 -32.5t-51.5 -88.5t52.5 -95.5t141.5 -39.5t141 39.5t52 95.5t-50 88.5t-142 32.5zM1194 379q82 0 128 33.5t46 83.5t-48 82t-126 32t-125 -31.5t-47 -81.5t45 -84t127 -34z" glyph-name="seveneighths" horiz-adv-x="1558" unicode="⅞"/><glyph d="M330 1229h108l363 -563q59 -92 83.5 -160t24.5 -158q0 -168 -116.5 -271.5t-299.5 -103.5t-301 103.5t-118 267.5t116.5 268.5t303.5 104.5q88 0 174 -31v2q-29 31 -54 70l-284 450v21zM491.5 72q126.5 0 215 77.5t88.5 200.5t-87 197t-215 74t-215.5 -79t-87.5 -196 t87.5 -195.5t214 -78.5z" glyph-name="partialdiff" horiz-adv-x="989" unicode="∂"/><glyph d="M55 0v27l584 1202h29l583 -1202v-27h-1196zM1085 102l-428 916h-12l-426 -916h866z" glyph-name="uni2206" horiz-adv-x="1306" unicode="∆"/><glyph d="M1202 1229v-1229h-117v1126h-770v-1126h-116v1229h1003z" glyph-name="product" horiz-adv-x="1400" unicode="∏"/><glyph d="M92 1229h758v-103h-612l401 -485v-53l-397 -486h608v-102h-758v102l418 500v23l-418 501v103z" glyph-name="summation" horiz-adv-x="950" unicode="∑"/><glyph d="M115 561v98h784v-98h-784z" glyph-name="minus" horiz-adv-x="1026" unicode="−"/><glyph d="M47 737q0 37 26.5 62.5t63.5 25.5t62.5 -25.5t25.5 -62.5t-25.5 -63.5t-62.5 -26.5t-63.5 26.5t-26.5 63.5z" glyph-name="uni2219" horiz-adv-x="278" unicode="∙"/><glyph d="M451 -207h14q0 4 13.5 42t17.5 44l667 1350h131l-821 -1622h-35l-418 817h132l266 -545q33 -66 33 -86z" glyph-name="radical" horiz-adv-x="1288" unicode="√"/><glyph d="M467 242q-158 0 -253 100t-95 243.5t95 244t253 100.5q121 0 204 -72t156 -196q70 125 155 196.5t219 71.5t234.5 -95.5t100.5 -243.5t-94 -248.5t-254 -100.5q-123 0 -206 70.5t-157 193.5q-74 -125 -155.5 -194.5t-202.5 -69.5zM1188 836q-104 0 -174 -65.5 t-133 -182.5q68 -121 135 -186.5t176 -65.5t176.5 72.5t67.5 180.5t-72 177.5t-176 69.5zM462 336q108 0 178.5 65.5t131.5 182.5q-66 119 -133 185.5t-175 66.5t-176.5 -74t-68.5 -177t67.5 -176t175.5 -73z" glyph-name="infinity" horiz-adv-x="1654" unicode="∞"/><glyph d="M256 2v1102q0 225 199 225q78 0 123 -29l16 -10l-35 -88q-43 25 -92 25q-96 0 -96 -133v-1102q0 -225 -197 -225q-78 0 -139 38l35 89q41 -25 90 -25q96 0 96 133z" glyph-name="integral" horiz-adv-x="626" unicode="∫"/><glyph d="M623 369q-66 0 -156 50t-123 50t-52.5 -12.5t-26.5 -25.5t-15 -38l-6 -24l-97 8l9 51q31 141 170 141q61 0 152 -51t125 -51t53.5 12.5t26.5 25.5t15 38l7 26l96 -8l-10 -53q-27 -139 -168 -139zM623 754q-66 0 -156 51t-123 51t-52.5 -12.5t-26.5 -25.5t-15 -38l-6 -26 l-97 8l9 53q31 139 170 139q61 0 152 -50t125 -50t53.5 12.5t26.5 25.5t15 38l7 24l96 -8l-10 -51q-27 -141 -168 -141z" glyph-name="approxequal" horiz-adv-x="946" unicode="≈"/><glyph d="M127 766v98h408l92 240l88 -33l-80 -207h211v-98h-248l-139 -367h387v-98h-426l-88 -233l-88 32l75 201h-192v98h231l140 367h-371z" glyph-name="notequal" horiz-adv-x="972" unicode="≠"/><glyph d="M631 502l-70 -74l-393 360v27l393 371l70 -72l-334 -313zM717 285v-99h-586v99h586z" glyph-name="lessequal" horiz-adv-x="839" unicode="≤"/><glyph d="M279 428l-70 74l334 299l-334 313l70 72l393 -371v-27zM121 186v99h586v-99h-586z" glyph-name="greaterequal" horiz-adv-x="839" unicode="≥"/><glyph d="M498 1229l346 -615l-346 -614h-72l-346 614l346 615h72zM211 612l240 -440h20l238 440l-238 445h-20z" glyph-name="lozenge" horiz-adv-x="923" unicode="◊"/><glyph d="M133 -160q0 37 24.5 61.5t65.5 24.5t67.5 -26.5t26.5 -68.5t-28 -93l-56 -98h-86l46 77l26 33v6q-39 2 -62.5 24.5t-23.5 59.5z" glyph-name="uniF6C3" horiz-adv-x="438" unicode=""/><glyph d="M592 616h-277v-616h-114v616h-172v93h172v317q0 338 291 338q74 0 147 -37l-35 -96q-49 27 -98 26q-190 0 -191 -231v-317h277v-93zM1294 616h-276v-616h-115v616h-172v93h172v317q0 338 291 338q74 0 147 -37l-34 -96q-49 27 -99 26q-190 0 -190 -231v-317h276v-93z" glyph-name="uniFB00" horiz-adv-x="1329" unicode="ﬀ"/><glyph d="M884 1004q-34 0 -56.5 22.5t-22.5 55t22.5 56t56.5 23.5t56.5 -23.5t22.5 -56t-22.5 -55t-56.5 -22.5zM825 0v709h115v-709h-115zM594 616h-277v-616h-114v616h-172v93h172v317q0 338 291 338q74 0 147 -37l-35 -96q-49 27 -98 26q-190 0 -191 -231v-317h277v-93z" glyph-name="uniFB01" horiz-adv-x="1073" unicode="ﬁ"/><glyph d="M807 0v1368h115v-1368h-115zM594 616h-277v-616h-114v616h-172v93h172v317q0 338 291 338q74 0 147 -37l-35 -96q-49 27 -98 26q-190 0 -191 -231v-317h277v-93z" glyph-name="uniFB02" horiz-adv-x="1054" unicode="ﬂ"/><glyph d="M1578 1004q-34 0 -56.5 22.5t-22.5 55t22.5 56t55.5 23.5t56.5 -23.5t23.5 -56t-22.5 -55t-56.5 -22.5zM1520 0v709h114v-709h-114zM594 616h-277v-616h-114v616h-172v93h172v317q0 338 291 338q74 0 147 -37l-35 -96q-49 27 -98 26q-190 0 -191 -231v-317h277v-93z M1294 616h-276v-616h-115v616h-172v93h172v317q0 338 291 338q74 0 147 -37l-34 -96q-49 27 -99 26q-190 0 -190 -231v-317h276v-93z" glyph-name="uniFB03" horiz-adv-x="1769" unicode="ﬃ"/><glyph d="M1499 0v1368h115v-1368h-115zM594 616h-277v-616h-114v616h-172v93h172v317q0 338 291 338q74 0 147 -37l-35 -96q-49 27 -98 26q-190 0 -191 -231v-317h277v-93zM1294 616h-276v-616h-115v616h-172v93h172v317q0 338 291 338q74 0 147 -37l-34 -96q-49 27 -99 26 q-190 0 -190 -231v-317h276v-93z" glyph-name="uniFB04" horiz-adv-x="1746" unicode="ﬄ"/><glyph d="M494 1255q188 0 302.5 -98t114.5 -256q0 -190 -168 -274q98 -31 154.5 -106t56.5 -183q0 -164 -117.5 -264.5t-306.5 -100.5t-292 66.5t-121 83.5l-19 18l62 88q16 -16 46 -40.5t123 -65.5t185 -41q139 0 227 71.5t88 183.5t-74.5 170t-201.5 58h-193v109h170 q115 0 184.5 56t69.5 164t-85 180.5t-220 72.5q-82 0 -161.5 -39t-120.5 -76l-39 -39l-60 86q176 176 396 176z" glyph-name="three.ss03" horiz-adv-x="1060"/><glyph d="M739.5 1237q290.5 0 465.5 -180t175 -444.5t-175 -443.5t-465.5 -179t-466 179t-175.5 443.5t175.5 444.5t466 180zM740 1163q-255 0 -408.5 -158.5t-153.5 -392t153.5 -391.5t408.5 -158t409 158t154 391.5t-154 392t-409 158.5zM516 309v611h279q119 0 185.5 -59.5 t66.5 -167.5t-67 -168t-189 -60h-187v-156h-88zM954 694q0 147 -172 148h-178v-299h178q172 -1 172 151z" glyph-name="glyph431" horiz-adv-x="1480"/><glyph d="M739.5 1237q290.5 0 465.5 -180t175 -444.5t-175 -443.5t-465.5 -179t-466 179t-175.5 443.5t175.5 444.5t466 180zM740 1163q-255 0 -408.5 -158.5t-153.5 -392t153.5 -391.5t408.5 -158t409 158t154 391.5t-154 392t-409 158.5zM774 920q119 0 185.5 -58.5t66.5 -161.5 q0 -150 -141 -194v-10l125 -172v-15h-90l-129 178h-207v-178h-86v611h276zM762 563q172 0 172 139t-172 140h-178v-279h178z" glyph-name="glyph432" horiz-adv-x="1480"/><glyph d="M1208 336q0 -170 -123.5 -253t-330.5 -83h-156l-37 -209h-96l37 209h-305v1229h518l35 196h98l-35 -200q350 -37 350 -328q0 -98 -50 -168t-138 -100v-17q233 -67 233 -276zM1083 337q0 116 -84 174t-223 62h-78l-82 -471h144q145 0 234 59.5t89 175.5zM313 1126v-467 h303l80 467h-383zM313 573v-471h205l82 471h-287zM1040 884q0 108 -66.5 167t-178.5 71l-82 -463h39q127 0 207.5 58.5t80.5 166.5z" glyph-name="glyph433" horiz-adv-x="1302"/><glyph d="M229 0v772h-141v94h141v363h492q217 0 343 -93.5t140 -269.5h137v-94h-137q-16 -182 -145 -276.5t-344 -94.5h-369v-401h-117zM719 510q340 0 368 262h-741v-262h373zM346 1120v-254h741q-16 127 -113 190.5t-255 63.5h-373z" glyph-name="glyph434" horiz-adv-x="1406"/><glyph d="M1419 113v-506h-114v1102h79l17 -123h10q5 16 70.5 77.5t219.5 61.5q153 0 254 -102.5t101 -267.5t-101.5 -268t-252.5 -103q-96 0 -166 32.5t-90 65.5l-23 31h-4zM1413 354q0 -125 77 -198.5t189.5 -73.5t187.5 75.5t75 195.5t-75 197t-187.5 77t-189.5 -74t-77 -199z M182 0v1229h490q233 0 360 -103.5t127 -302.5q0 -152 -81 -249t-222 -134v-8l332 -403v-29h-125l-346 418h-418v-418h-117zM1040 822q0 148 -98 223t-270 75h-373v-594h393q158 0 253 74t95 222z" glyph-name="glyph435" horiz-adv-x="2134"/><glyph d="M1391 463q0 141 -166 141q-49 0 -95.5 -17.5t-69 -33.5t-24.5 -21l-45 66l27 23q27 23 87 44t126 21q127 0 188.5 -58.5t61.5 -155.5t-105 -191l-229 -203h371v-78h-535v33l324 289q84 74 84 141zM283 16l-64 54l961 1155l63 -54zM106 1151v78h238v-590h145v-78h-383v78 h152v512h-152z" glyph-name="onehalf.aalt" horiz-adv-x="1589"/><glyph d="M1020 588v78h475v-27l-164 -242q94 -8 144.5 -60t50.5 -141t-70 -151.5t-199 -62.5q-70 0 -144 28t-116 66l47 63q86 -76 192 -76t155 38.5t49 98.5t-43 94t-121 34h-72v28l162 232h-346zM283 16l-64 54l961 1155l63 -54zM106 1151v78h238v-590h145v-78h-383v78h152v512 h-152z" glyph-name="onethird.aalt" horiz-adv-x="1611"/><glyph d="M795 186v54l383 428l2 -2l2 2h59v-406h111v-76h-111v-186h-82v186h-364zM289 16l-66 54l961 1155l65 -54zM104 1151v78h240v-590h145v-78h-385v78h154v512h-154zM1159 262v277h-2l-178 -205l-72 -78l109 6h143z" glyph-name="onequarter.aalt" horiz-adv-x="1423"/><glyph d="M1133 326q-99 0 -181 -29l-26 18l10 353h430v-78h-356l-6 -209q62 14 168 14t172.5 -52t66.5 -146t-69.5 -153.5t-200.5 -59.5q-70 0 -152 30t-108 64l45 59q80 -72 211 -71q92 0 139 34.5t47 94.5q0 131 -190 131zM170 16l-61 54l960 1155l64 -54zM84 1229h240v-668h-86 v590h-154v78z" glyph-name="one_fraction_five.frac" horiz-adv-x="1495"/><glyph d="M1305 326q-101 0 -183 -29l-28 18l14 353h428v-78h-356l-9 -209q61 14 169 14t174.5 -52t66.5 -146t-69.5 -153.5t-200.5 -59.5q-70 0 -152 30t-108 64l47 59q80 -71 190 -71q204 1 205 130q0 130 -188 130zM348 16l-63 54l960 1155l64 -54zM102 1151v78h240v-590h145 v-78h-385v78h154v512h-154z" glyph-name="one_fraction_five.frac.ss04" horiz-adv-x="1665"/><glyph d="M1405 326q-103 0 -180 -29l-29 18l12 353h428v-78h-356l-6 -209q60 14 168 14t174.5 -52t66.5 -146t-70.5 -153.5t-201.5 -59.5q-68 0 -146.5 29.5t-113.5 64.5l47 59q80 -71 190 -71q206 1 207 130q0 130 -190 130zM96 563v35l324 287q82 72 82 149q0 133 -164 133 q-95 0 -135.5 -30.5t-52.5 -38.5l-46 65q32 32 103.5 59t136.5 27q127 0 188.5 -56t61.5 -157t-105 -192l-231 -203h373v-78h-535zM459 16l-64 52l961 1155l63 -52z" glyph-name="two_fraction_five.frac" horiz-adv-x="1765"/><glyph d="M1243 326q-105 0 -182 -29l-29 18l12 353h429v-78h-355l-6 -209q61 14 168 14t173.5 -52t66.5 -146t-71 -153.5t-200 -59.5q-68 0 -147.5 29.5t-114.5 64.5l49 59q80 -72 209 -71q186 0 187 129q0 131 -189 131zM111 1151v78h475v-27l-166 -244q96 -8 147 -59t51 -141 t-70.5 -151.5t-199.5 -61.5q-70 0 -148.5 29.5t-113.5 64.5l49 63q86 -76 211 -75q88 0 136 37.5t48 97.5q0 129 -161 129h-72v29l160 231h-346zM373 16l-62 54l961 1155l63 -54z" glyph-name="three_fraction_five.frac" horiz-adv-x="1609"/><glyph d="M68 748v53l383 428l2 -2v2h61v-406h109v-75h-109v-187h-84v187h-362zM1360 326q-103 0 -180 -29l-29 18l12 353h428v-78h-356l-6 -209q61 14 169 14t174 -52t66 -146t-70.5 -153.5t-199.5 -59.5q-70 0 -148.5 29.5t-113.5 64.5l49 59q79 -71 189 -71q206 1 206 130 q0 130 -190 130zM420 16l-66 52l961 1155l65 -52zM430 823v277h-2l-176 -205l-74 -78l111 6h141z" glyph-name="four_fraction_five.frac" horiz-adv-x="1726"/><glyph d="M1137 473q129 0 205.5 -63.5t76.5 -177.5t-76.5 -181t-205.5 -67t-205 67.5t-76 188.5t102 243l156 187h103l-130 -150q-24 -31 -55 -55v-6q44 14 105 14zM215 16l-63 54l960 1155l66 -54zM1138 397q-89 0 -142.5 -43t-53.5 -122t52.5 -125t142.5 -46t142 46.5t52 124.5 t-52 121.5t-141 43.5zM84 1151v78h240v-668h-86v590h-154z" glyph-name="one_fraction_six.frac" horiz-adv-x="1486"/><glyph d="M1282 473q129 0 205 -63.5t76 -177.5t-76 -181t-205 -67t-206 67.5t-77 187.5t105 244l153 187h103l-127 -150q-21 -28 -57 -55v-6q53 14 106 14zM371 16l-66 54l961 1155l65 -54zM1281 397q-89 0 -141.5 -43t-52.5 -122t52.5 -125t141.5 -46t141.5 46.5t52.5 124.5 t-52.5 121.5t-141.5 43.5zM104 1151v78h240v-590h145v-78h-385v78h154v512h-154z" glyph-name="one_fraction_six.frac.ss04" horiz-adv-x="1630"/><glyph d="M1307 473q129 0 204.5 -63.5t75.5 -177.5t-75.5 -181t-204.5 -67t-206 67.5t-77 187.5t104 244l154 187h102l-127 -150q-21 -28 -57 -55v-6q54 14 107 14zM336 887q-103 0 -180 -29l-29 19l12 352h428v-78h-356l-6 -209q61 14 169 14t174 -52t66 -146t-70.5 -153.5 t-199.5 -59.5q-68 0 -147 29t-115 65l49 59q80 -72 209 -71q186 0 186 130t-190 130zM410 16l-64 54l961 1155l63 -54zM1307 397q-88 0 -141.5 -43t-53.5 -122t52.5 -125t141.5 -46t141 46.5t52 124.5t-52 121.5t-140 43.5z" glyph-name="five_fraction_six.frac" horiz-adv-x="1656"/><glyph d="M1028 188q0 119 127 164q-104 49 -104 154q0 78 71.5 129t186 51t186.5 -51t72 -129q0 -102 -103 -154q127 -45 127 -164q0 -84 -75.5 -144t-205.5 -60t-206 60t-76 144zM365 16l-62 54l961 1155l63 -54zM338 1229v-590h145v-78h-385v78h154v512h-154v78h240zM1309 315 q-92 0 -142.5 -32.5t-50.5 -90t51.5 -95.5t141.5 -38t142 39.5t52 95.5t-51 88.5t-143 32.5zM1310 379q81 0 127 33.5t46 83.5t-48.5 82t-126 32t-124.5 -31.5t-47 -81.5t46 -84t127 -34z" glyph-name="oneeighth.aalt" horiz-adv-x="1667"/><glyph d="M393 674h168q115 0 185.5 56t70.5 164t-85 180.5t-220 72.5q-82 0 -163 -39t-120 -76l-41 -39l-57 86q6 6 17.5 18.5t102 85t276.5 72.5q187 0 302 -98t115 -268t-166 -258q96 -33 151.5 -109t55.5 -184q0 -164 -117.5 -264.5t-316.5 -100.5q-115 0 -220.5 42t-152.5 83 l-47 43l59 88q16 -16 46 -40.5t123.5 -65.5t187.5 -41q139 0 226 71.5t87 183.5t-73.5 170t-202.5 58h-191v109z" glyph-name="three.tnum.ss03"/><glyph d="M193 71q0 36 25.5 61.5t62 25.5t61.5 -26t25 -62t-25 -61t-61.5 -25t-62 25.5t-25.5 61.5z" glyph-name="period.aalt" horiz-adv-x="563"/><glyph d="M207 70q0 35 24.5 59.5t61.5 24.5t62.5 -25t25.5 -69t-29 -97l-86 -156h-86l78 138l25 32v7q-35 4 -55.5 27.5t-20.5 58.5z" glyph-name="comma.aalt" horiz-adv-x="563"/><glyph d="M195 78q0 37 24.5 61.5t61 24.5t61.5 -24.5t25 -61.5t-25 -61.5t-61.5 -24.5t-61 24.5t-24.5 61.5zM195 1053q0 37 24.5 62.5t61 25.5t61.5 -25.5t25 -62.5t-25 -62.5t-61.5 -25.5t-61 25.5t-24.5 62.5z" glyph-name="colon.tnum" horiz-adv-x="563"/><glyph d="M203 78q0 35 25.5 59.5t62.5 24.5t62.5 -25.5t25.5 -66.5t-29 -99l-90 -157h-84l78 139l27 33v6q-35 4 -56.5 27.5t-21.5 58.5zM207 1053q0 37 25.5 62.5t61.5 25.5t61.5 -25.5t25.5 -62.5t-25.5 -62.5t-61.5 -25.5t-61.5 25.5t-25.5 62.5z" glyph-name="semicolon.tnum" horiz-adv-x="563"/><glyph d="M168 71q0 36 25.5 61.5t62.5 25.5t61.5 -26t24.5 -62t-24.5 -61t-61.5 -25t-62.5 25.5t-25.5 61.5zM778 71q0 36 25.5 61.5t62.5 25.5t61.5 -26t24.5 -62t-24.5 -61t-61.5 -25t-62.5 25.5t-25.5 61.5z" glyph-name="glyph453"/><glyph d="M188 706.5q0 36.5 27 62.5t63.5 26t62.5 -26t26 -62.5t-26 -63.5t-62.5 -27t-63.5 27t-27 63.5z" glyph-name="periodcentered.aalt" horiz-adv-x="563"/><glyph d="M848 1440l-453 -1800h-119l453 1800h119z" glyph-name="slash.tnum"/><glyph d="M614 1378v-1689h-108v1689h108z" glyph-name="bar.tnum"/><glyph d="M160 -139v98h796v-98h-796z" glyph-name="underscore.aalt"/><glyph d="M555 82q319 0 319 229q0 106 -76.5 160.5t-198.5 91.5t-220 72t-170 105t-72 182q0 147 106.5 235t291.5 96v185h86v-185q113 -6 202.5 -33.5t122.5 -52.5l35 -26l-63 -97q-14 12 -40 30t-116 46.5t-208 28.5t-203 -58.5t-85 -168.5t98 -152.5t214 -77.5t179.5 -61.5 t156 -89.5t92.5 -214q0 -150 -95.5 -244.5t-289.5 -107.5v-184h-86v182q-121 4 -221.5 39t-141.5 68l-41 33l68 90q43 -43 150.5 -82t205.5 -39z" glyph-name="dollar.tnum"/><glyph d="M963 115v-105h-787v105q43 14 87 70.5t44 133.5q0 76 -37 173h-131v94h94q-49 129 -49 233q0 168 120 295t343 127q106 0 190.5 -30.5t116.5 -63.5l31 -31l-65 -84q-28 35 -106.5 66.5t-160.5 31.5q-168 0 -255 -95t-87 -209t49 -240h514v-94h-477q33 -88 33 -148 q0 -145 -96 -229h629z" glyph-name="sterling.tnum"/><glyph d="M778 514v-86h-444q35 -152 128 -241t238 -89q78 0 144.5 31t93.5 59l27 31l69 -86q-11 -16 -85.5 -80.5t-262.5 -64.5q-189 0 -312.5 120.5t-162.5 319.5h-127v86h115q-4 66 -4 100t4 95h-115v86h127q37 201 161 324.5t328 123.5q162 0 239 -59t97 -86l-71 -86 q-10 12 -30 32.5t-88.5 53t-146.5 32.5q-147 0 -239 -91t-127 -244h444v-86h-459q-4 -61 -4 -103t7 -92h456z" glyph-name="Euro.tnum"/><glyph d="M922 563v-86h-293v-164h293v-86h-293v-227h-117v227h-311v86h311v164h-311v86h270l-348 666h137l287 -559l24 -78l27 78l268 559h138l-336 -666h254z" glyph-name="yen.tnum"/><glyph d="M575 86v166q-147 16 -240 116t-93 250t93 252.5t240 118.5v170h101v-172q101 -12 172 -49l24 -14l-41 -93q-87 61 -199 61t-193 -75.5t-81 -198t80 -196.5t197 -74q49 0 98 14.5t74 30.5l24 15l41 -91q-82 -51 -196 -65v-166h-101z" glyph-name="cent.tnum"/><glyph d="M924 1194l-76 -338h188l-16 -80h-191l-81 -364h182l-17 -78h-184l-74 -334h-88l76 334h-272l-76 -334h-86l76 334h-197l16 78h197l84 364h-190l16 80h192l78 338h84l-76 -338h273l78 338h84zM471 776l-84 -364h272l84 364h-272z" glyph-name="numbersign.tnum"/><glyph d="M758 -358v583h-156q-229 0 -356 104.5t-127 302.5t124 299t353 101h278v-1390h-116z" glyph-name="paragraph.tnum"/><glyph d="M584 -209q138 0 215.5 61.5t77.5 154.5t-61.5 148.5t-247.5 122.5t-259 125t-73 160t81 160q-190 102 -190 276q0 141 112.5 228.5t322.5 87.5t308.5 -50.5t122.5 -74.5l-65 -98q-14 12 -41 31.5t-119 52t-222 32.5t-207 -58t-77 -148t68.5 -152t231.5 -117t251 -120.5 t88 -167.5t-72 -171q100 -55 141.5 -116.5t41.5 -153.5q0 -135 -108.5 -227t-340.5 -92q-137 0 -249.5 36.5t-157.5 73.5l-45 37l61 90q16 -14 45 -35.5t129 -58.5t238 -37zM350 565q0 -55 55.5 -96t188.5 -90l135 -53q55 47 55 111t-67.5 112.5t-159.5 78.5t-139 48 q-68 -31 -68 -111z" glyph-name="section.tnum"/><glyph d="M280.5 1376q106.5 0 173 -63.5t66.5 -157.5t-66.5 -156.5t-173 -62.5t-173 62.5t-66.5 156.5t66.5 157.5t173 63.5zM280 1307q-73 0 -118 -43.5t-45 -107.5t45 -106t118 -42t118.5 42t45.5 105.5t-45.5 107.5t-118.5 44z" glyph-name="degree.tnum" horiz-adv-x="563"/><glyph d="M346 1255q123 0 194.5 -76.5t71.5 -189t-71.5 -193.5t-194.5 -81t-194.5 81t-71.5 193.5t71.5 189t194.5 76.5zM346 1161q-76 0 -118 -49t-42 -124t42 -127t117 -52t117 52t42 127t-41 124t-117 49zM127 18l-76 68l940 1131l80 -66zM773 526q124 0 194.5 -77.5 t70.5 -190.5t-70.5 -193.5t-193.5 -80.5t-193.5 80.5t-70.5 193.5t69.5 190.5t193.5 77.5zM773 432q-75 0 -116 -50t-41 -124t41 -127t116 -53t117 53t42 127t-42 124t-117 50z" glyph-name="percent.tnum"/><glyph d="M383 948v23l35 405h117v-22l-80 -406h-72zM616 948v23l35 405h115v-22l-78 -406h-72z" glyph-name="quotedbl.tnum"/><glyph d="M219 948v23l35 405h115v-22l-78 -406h-72z" glyph-name="quotesingle.tnum" horiz-adv-x="563"/><glyph d="M614 1032v-338h340v-98h-340v-330h-100v330h-342v98h342v338h100z" glyph-name="plus.tnum"/><glyph d="M164 561v98h784v-98h-784z" glyph-name="minus.tnum"/><glyph d="M473 318q0 38 26.5 64t63.5 26t63.5 -26t26.5 -64t-26.5 -63.5t-63.5 -25.5t-63.5 25.5t-26.5 63.5zM473 906q0 38 26.5 63.5t63.5 25.5t63.5 -25.5t26.5 -63.5t-26.5 -63.5t-63.5 -25.5t-63.5 25.5t-26.5 63.5zM172 557v98h782v-98h-782z" glyph-name="divide.tnum"/><glyph d="M207 745v97h717v-97h-717zM207 354v97h717v-97h-717z" glyph-name="equal.tnum"/><glyph d="M233 223l-69 70l328 328l-328 329l69 70l328 -330l330 330l70 -70l-330 -329l330 -328l-70 -70l-330 328z" glyph-name="multiply.tnum"/><glyph d="M758 90l-494 475v47l494 475l69 -71l-444 -428l444 -426z" glyph-name="less.tnum"/><glyph d="M862 565l-493 -475l-70 72l444 426l-444 428l70 71l493 -475v-47z" glyph-name="greater.tnum"/><glyph d="M616 338h-98v362h-385v99h385v370h98v-370h375v-99h-375v-362zM991 188v-98h-858v98h858z" glyph-name="plusminus.tnum"/><glyph glyph-name="space.aalt"/><glyph glyph-name="glyph479" horiz-adv-x="436"/><glyph d="M191 1004q-34 0 -56 22.5t-22 55t22.5 56t56.5 23.5t56 -23.5t22 -56t-22.5 -55t-56.5 -22.5zM133 0v709h115v-709h-115z" glyph-name="i.aalt" horiz-adv-x="380"/><glyph d="M392 1247q151 0 239 -103.5t88 -248.5t-88 -247.5t-239 -102.5t-238.5 102.5t-87.5 247.5t87.5 248.5t238.5 103.5zM391.5 1165q-108.5 0 -171 -78.5t-62.5 -191.5t62.5 -190.5t171 -77.5t170 77.5t61.5 190.5t-61.5 191.5t-170 78.5z" glyph-name="zero.frac" horiz-adv-x="780"/><glyph d="M41 1151v78h240v-668h-88v590h-152z" glyph-name="one.frac" horiz-adv-x="391"/><glyph d="M57 561v33l322 289q82 76 82 147q0 135 -164 135q-49 0 -95 -17.5t-68.5 -33.5t-24.5 -20l-46 65q32 32 103.5 60t136.5 28q127 0 187.5 -56.5t60.5 -156.5t-102 -192l-230 -203h373v-78h-535z" glyph-name="two.frac" horiz-adv-x="647"/><glyph d="M387 958q199 -21 199 -200q0 -90 -71 -151.5t-200 -61.5q-68 0 -147.5 29.5t-114.5 64.5l51 63q84 -76 192 -76t155 38t47 98q0 125 -156 129h-78v29l160 231h-344v78h475v-27z" glyph-name="three.frac" horiz-adv-x="645"/><glyph d="M41 748v53l383 428h63v-406h111v-75h-111v-187h-84v187h-362zM403 823v174q0 70 3 109h-5l-178 -207l-71 -78v-4l102 6h149z" glyph-name="four.frac" horiz-adv-x="645"/><glyph d="M312 889q-90 0 -183 -31l-29 19l13 352h428v-78h-357l-6 -209q61 14 169 14t174.5 -52t66.5 -146t-71 -153.5t-200 -59.5q-70 0 -145.5 28.5t-116.5 65.5l49 59q78 -74 207 -73q92 0 140.5 35.5t48.5 95.5t-49 96.5t-139 36.5z" glyph-name="five.frac" horiz-adv-x="641"/><glyph d="M344 1032q129 0 206 -64t77 -176t-78 -180.5t-205 -68.5t-204 68.5t-77 190.5t103 240l156 187h102l-129 -150q-24 -31 -55 -55v-6q43 14 104 14zM344 956q-90 0 -142 -42t-52 -120t52 -125.5t142 -47.5t142.5 47t52.5 125t-52.5 120.5t-142.5 42.5z" glyph-name="six.frac" horiz-adv-x="673"/><glyph d="M545 1229v-27l-273 -641h-96l254 590h-385v78h500z" glyph-name="seven.frac" horiz-adv-x="573"/><glyph d="M66 750q0 121 124 163q-102 49 -102 154q0 78 71.5 129t186.5 51t186.5 -51t71.5 -129q0 -102 -104 -154q129 -45 129 -163q0 -84 -76 -144.5t-206 -60.5t-205.5 60.5t-75.5 144.5zM346 877q-92 0 -143 -33t-51 -89t52 -95t141 -39t141.5 38.5t52.5 94.5t-50.5 89.5 t-142.5 33.5zM346 940q82 0 128 34t46 84t-48 81.5t-126 31.5t-125 -31.5t-47 -81.5t45 -84t127 -34z" glyph-name="eight.frac" horiz-adv-x="690"/><glyph d="M334 758q-129 0 -206 63t-77 177t77 181.5t206 67.5t204.5 -67.5t75.5 -187.5t-104 -244l-154 -187h-102l127 150q21 28 57 55v6q-57 -14 -104 -14zM333 834q89 0 141 43t52 121t-52 124.5t-141 46.5t-141.5 -46t-52.5 -125t52.5 -121.5t141.5 -42.5z" glyph-name="nine.frac" horiz-adv-x="677"/><glyph d="M100 858v324h119v-23l-55 -301h-64z" glyph-name="glyph491" horiz-adv-x="331"/><glyph d="M115 1286v23l98 301h143v-23l-170 -301h-71z" glyph-name="glyph492" horiz-adv-x="505"/><glyph d="M121 1286v23l98 301h131v-23l-157 -301h-72zM444 1286v23l97 301h133v-23l-158 -301h-72z" glyph-name="glyph493" horiz-adv-x="849"/><glyph d="M129 1587h143l99 -301v-22h-72l-170 301v22z" glyph-name="glyph494" horiz-adv-x="520"/><glyph d="M55 1286v23l226 301h129l225 -301v-23h-74l-215 227l-217 -227h-74z" glyph-name="glyph495" horiz-adv-x="673"/><glyph d="M635 1610v-23l-225 -301h-129l-226 301v23h74l217 -228l215 228h74z" glyph-name="glyph496" horiz-adv-x="698"/><glyph d="M520 1632h94q0 -119 -74.5 -195.5t-187 -76.5t-186.5 76.5t-74 195.5h92q0 -80 47 -130t121 -51t121 49t47 132z" glyph-name="glyph497" horiz-adv-x="716"/><glyph d="M569 1264q-59 0 -144 51t-123 51t-54.5 -19.5t-28.5 -56.5l-8 -26l-82 8l10 45q29 139 154 139q57 0 142 -50t122 -50q68 0 86 76l6 24l82 -8l-8 -43q-27 -141 -154 -141z" glyph-name="glyph498" horiz-adv-x="880"/><glyph d="M182 1300v78h533v-78h-533z" glyph-name="glyph499" horiz-adv-x="882"/><glyph d="M145 1421.5q0 32.5 24 56t56.5 23.5t56 -23.5t23.5 -56t-23.5 -56.5t-56 -24t-56.5 24t-24 56.5zM510 1421.5q0 32.5 23.5 56t56.5 23.5t56.5 -23.5t23.5 -56t-23.5 -56.5t-56.5 -24t-56.5 24t-23.5 56.5z" glyph-name="glyph500" horiz-adv-x="825"/><glyph d="M209 1384q0 43 28.5 72t70.5 29t70 -29t28 -72t-28 -70.5t-70 -27.5t-70.5 27.5t-28.5 70.5z" glyph-name="glyph501" horiz-adv-x="618"/><glyph d="M273 1288q-79 0 -132 52.5t-53 128t54 128t132 52.5t130.5 -51.5t52.5 -129t-52.5 -129t-131.5 -51.5zM377 1468.5q0 47.5 -27.5 76t-75.5 28.5t-77 -28.5t-29 -76t28.5 -76t76.5 -28.5t76 28.5t28 76z" glyph-name="glyph502" horiz-adv-x="550"/><glyph d="M564 -29q-237 0 -374 179.5t-137 463.5t137.5 462.5t373.5 178.5t372.5 -179t136.5 -463t-136 -463t-373 -179zM564 84q187 0 288.5 148t101.5 382t-101 382.5t-289 148.5t-290 -148.5t-102 -382.5t102.5 -382t289.5 -148z" glyph-name="zero.tnum"/><glyph d="M170 1120v109h510v-1120h350v-109h-895v109h426v1011h-391z" glyph-name="one.tnum"/><glyph d="M135 0v25l559 608q74 80 104.5 133t30.5 119q0 115 -82.5 187.5t-194.5 72.5t-217.5 -49t-144.5 -105l-67 90l59 59q58 58 169.5 86.5t185.5 28.5q195 0 303 -99t108 -259q0 -86 -31.5 -153.5t-111.5 -155.5l-440 -486h634v-102h-864z" glyph-name="two.tnum"/><glyph d="M584 610h-197v45l373 465h-598v109h803v-25l-410 -506h55q170 0 275.5 -94t105.5 -260t-118.5 -269.5t-329.5 -103.5t-312.5 83t-109.5 91q39 61 61 93q100 -100 205 -128t164 -28q145 0 232 74.5t87 193.5t-78.5 189.5t-207.5 70.5z" glyph-name="three.tnum"/><glyph d="M51 299v104l711 826h92v-819h201v-111h-201v-299h-119v299h-684zM195 410h540v624l-518 -602l-22 -18v-4z" glyph-name="four.tnum"/><glyph d="M930 1120h-596l-15 -418q115 29 242 29q205 0 321.5 -101.5t116.5 -278.5t-115.5 -277.5t-322.5 -100.5q-115 0 -223.5 43t-157.5 86l-51 43l61 93q100 -100 205 -128t164 -28q145 0 232.5 75t87.5 203t-88.5 198.5t-239.5 70.5q-88 0 -166 -13.5t-111 -25.5l-34 -15 l-33 25l20 629h703v-109z" glyph-name="five.tnum"/><glyph d="M139 362q0 169 111 340l340 527h139l-311 -484l-39 -53v-14q94 63 213 63q197 0 315.5 -105.5t118.5 -275.5t-126 -279.5t-318 -109.5t-317.5 111t-125.5 280zM583 635q-138 0 -228.5 -73t-90.5 -199t91 -203.5t227 -77.5t228.5 78t92.5 198t-91 198.5t-229 78.5z" glyph-name="six.tnum"/><glyph d="M143 1118v111h875v-29l-572 -1200h-137l539 1118h-705z" glyph-name="seven.tnum"/><glyph d="M563 -27q-203 0 -328.5 103.5t-125.5 255.5q0 115 62 196.5t179 120.5q-94 37 -143 112t-49 169q0 141 111.5 233t293.5 92t294 -92t112 -233q0 -94 -49.5 -169t-143.5 -112q115 -39 178.5 -121t63.5 -196q0 -152 -126 -255.5t-329 -103.5zM563.5 84q145.5 0 239.5 72.5 t94 184.5t-95.5 183.5t-239.5 71.5t-238.5 -71.5t-94.5 -183.5t94.5 -184.5t240 -72.5zM850 921q0 97 -80 160.5t-207 63.5t-207 -63.5t-80 -162t79 -162t208 -63.5t208 65t79 162z" glyph-name="eight.tnum"/><glyph d="M987 866q0 -170 -113 -340l-339 -526h-140l312 483l38 54v12q-98 -61 -213 -62q-197 0 -315.5 105.5t-118.5 275.5t126 279.5t319 109.5t318.5 -110.5t125.5 -280.5zM537 594q133 0 229 73.5t96 198.5t-92 203t-228 78t-228.5 -78t-92.5 -199t91.5 -198.5t224.5 -77.5z " glyph-name="nine.tnum"/><glyph d="M63 1290v78h240v-590h146v-78h-386v78h154v512h-154z" glyph-name="uni00B9.ss04" horiz-adv-x="489"/><glyph d="M63 1151v78h240v-590h146v-78h-386v78h154v512h-154z" glyph-name="one.frac.ss04" horiz-adv-x="489"/><glyph d="M63 334v78h240v-590h143v-78h-383v78h152v512h-152z" glyph-name="uni2081.ss04" horiz-adv-x="487"/><glyph d="M392 686q151 0 239 -103.5t88 -248.5t-88 -247.5t-239 -102.5t-238.5 102t-87.5 248t87.5 249t238.5 103zM391.5 604q-108.5 0 -171 -79t-62.5 -191t62.5 -190t171 -78t170 77.5t61.5 190.5t-61.5 191.5t-170 78.5z" glyph-name="zero.dnom" horiz-adv-x="780"/><glyph d="M41 590v78h242v-668h-88v590h-154z" glyph-name="one.dnom" horiz-adv-x="393"/><glyph d="M63 590v78h240v-590h146v-78h-386v78h154v512h-154z" glyph-name="one.dnom.ss04" horiz-adv-x="489"/><glyph d="M57 0v33l322 289q82 76 82 147q0 135 -164 135q-49 0 -95 -17.5t-68.5 -33.5t-24.5 -21l-46 66q32 32 103.5 60t136.5 28q127 0 187.5 -57.5t60.5 -156.5t-102 -191l-230 -203h373v-78h-535z" glyph-name="two.dnom" horiz-adv-x="647"/><glyph d="M498 201q0 125 -156 129h-78v28l160 232h-346v78h475v-27l-166 -244q96 -8 147.5 -59t51.5 -141t-71 -151.5t-200 -61.5q-70 0 -148.5 29.5t-113.5 64.5l49 63q86 -76 211 -75q88 0 136.5 37.5t48.5 97.5z" glyph-name="three.dnom" horiz-adv-x="643"/><glyph d="M41 186v54l383 428l2 -2l2 2h59v-406h111v-76h-111v-186h-81v186h-365zM406 262v277h-5l-176 -205l-71 -78l108 6h144z" glyph-name="four.dnom" horiz-adv-x="645"/><glyph d="M292 63q208 1 208 133q0 60 -49 96t-139 36t-183 -31l-29 18l13 353h428v-78h-357l-6 -209q61 14 169 14t174.5 -52t66.5 -146t-71 -153.5t-200 -59.5q-70 0 -145.5 28.5t-116.5 65.5l49 59q78 -74 188 -74z" glyph-name="five.dnom" horiz-adv-x="641"/><glyph d="M344 473q129 0 206 -63.5t77 -177.5t-77 -181t-206 -67t-205 67.5t-76 188.5t103 243l156 187h102l-129 -150q-24 -31 -55 -55v-6q43 14 104 14zM345 397q-89 0 -142 -43t-53 -122t52 -125t142 -46t142.5 46.5t52.5 124.5t-52.5 121.5t-141.5 43.5z" glyph-name="six.dnom" horiz-adv-x="673"/><glyph d="M545 668v-27l-273 -641h-96l254 590h-385v78h500z" glyph-name="seven.dnom" horiz-adv-x="573"/><glyph d="M66 188q0 121 124 164q-102 49 -102 154q0 78 71.5 129t186.5 51t186.5 -51t71.5 -129q0 -102 -104 -154q129 -45 129 -164q0 -84 -76 -144t-206 -60t-205.5 60t-75.5 144zM346 315q-92 0 -143 -32.5t-51 -88.5t52 -95.5t141 -39.5t141.5 39.5t52.5 95.5t-50.5 88.5 t-142.5 32.5zM346 379q82 0 128 33.5t46 83.5t-48 82t-126 32t-125 -31.5t-47 -81.5t45 -84t127 -34z" glyph-name="eight.dnom" horiz-adv-x="690"/><glyph d="M332 197q-127 0 -205 63.5t-78 175.5t78 181t206 69t203.5 -67.5t75.5 -188.5t-102 -244l-156 -186h-102l129 150q24 31 55 55v4q-49 -12 -104 -12zM331 272q89 0 142 43t53 122t-52 125t-142 46t-142.5 -46t-52.5 -125t52.5 -122t141.5 -43z" glyph-name="nine.dnom" horiz-adv-x="675"/><glyph d="M454.5 725q163.5 0 266 -104.5t102.5 -267.5t-101 -266t-267 -103t-267.5 103t-101.5 266t102.5 267.5t266 104.5zM456 631q-116 0 -191 -78t-75 -199t75 -198.5t191 -77.5t189.5 77.5t73.5 198.5t-73.5 199t-189.5 78z" glyph-name="zero.oldstyle" horiz-adv-x="909"/><glyph d="M53 612v97h320v-709h-117v612h-203z" glyph-name="one.oldstyle" horiz-adv-x="526"/><glyph d="M88 0v49l356 270q59 47 83 83t24 87q0 137 -182 138q-59 0 -121 -18.5t-92 -37.5l-33 -18l-37 82q42 35 132.5 62.5t178.5 27.5q139 0 210 -60.5t71 -162.5q0 -137 -139 -236l-256 -178l133 10h307v-98h-635z" glyph-name="two.oldstyle" horiz-adv-x="800"/><glyph d="M80 612v97h608v-41l-272 -428q158 -4 247 -87t89 -232t-102.5 -241t-268.5 -92q-214 0 -328 105l49 80q31 -31 107 -59.5t145 -28.5q131 0 205 65.5t74 171.5t-68.5 170t-187.5 64h-109v39l260 417h-448z" glyph-name="three.oldstyle" horiz-adv-x="815"/><glyph d="M662 709v-594h212v-97h-212v-413h-115v413h-502l4 72l-4 4l514 615h103zM547 115v360q0 39 2 66h-8l-279 -336q-33 -46 -86 -90v-11l123 11h248z" glyph-name="four.oldstyle" horiz-adv-x="935"/><glyph d="M351 164q-136 0 -206 -33l-24 23l16 555h537v-97h-443l-10 -368q66 14 150 14q182 0 281.5 -88t99.5 -239.5t-103.5 -247t-292.5 -95.5q-86 0 -158.5 26t-103.5 50l-28 27l47 80q31 -31 100.5 -57.5t132.5 -26.5q135 0 211 67.5t76 175.5t-73 171t-209 63z" glyph-name="five.oldstyle" horiz-adv-x="808"/><glyph d="M479 723q170 0 277.5 -104.5t107.5 -268.5t-107.5 -266t-277.5 -102t-275.5 102t-105.5 256t99 326l282 483h121l-213 -369l-59 -80v-4q73 27 151 27zM479 625q-117 0 -190.5 -77t-73.5 -196t73.5 -195.5t190.5 -76.5t193 76.5t76 195.5t-76 196t-193 77z" glyph-name="six.oldstyle" horiz-adv-x="921"/><glyph d="M723 709v-33l-459 -1059h-121l441 995h-539v97h678z" glyph-name="seven.oldstyle" horiz-adv-x="739"/><glyph d="M152 889q0 131 91 216t238.5 85t239.5 -85t92 -216q0 -188 -166 -264q98 -37 154.5 -114t56.5 -185q0 -158 -104.5 -250t-271.5 -92t-271.5 92t-104.5 250q0 109 55.5 185.5t153.5 113.5q-163 76 -163 264zM221 325.5q0 -108.5 70.5 -175t189.5 -66.5t189.5 65.5 t70.5 176t-70.5 177t-190.5 65.5t-189.5 -67.5t-69.5 -175zM482 670q95 0 155.5 61.5t60.5 153.5t-60 149.5t-156 57.5t-156 -57.5t-60 -148.5t60.5 -153.5t155.5 -62.5z" glyph-name="eight.oldstyle" horiz-adv-x="964"/><glyph d="M461 -14q-170 0 -277.5 104t-107.5 268t107.5 266.5t277.5 102.5t275.5 -102.5t105.5 -256.5t-99 -325l-276 -471h-121l207 356q23 44 59 80v4q-73 -26 -151 -26zM460 84q118 0 191.5 76t73.5 196t-73.5 196.5t-191.5 76.5t-192.5 -77t-74.5 -195.5t74.5 -195.5 t192.5 -77z" glyph-name="nine.oldstyle" horiz-adv-x="911"/><glyph d="M211 207h104q119 0 193 55.5t74 151.5t-66.5 154.5t-175.5 58.5q-57 0 -112.5 -21.5t-84.5 -44.5l-26 -20l-45 82q38 38 122.5 70t161.5 32q164 0 254 -80t90 -213q0 -180 -176 -262q104 -27 164 -95.5t60 -172.5q0 -139 -106.5 -226.5t-285.5 -87.5q-88 0 -164.5 26 t-109.5 52l-31 27l49 80q41 -34 114 -61t140 -27q123 0 197 61t74 159.5t-76 154t-197 55.5h-141v92z" glyph-name="three.oldstyle.ss03" horiz-adv-x="829"/><glyph d="M1241 614h-176v-34q0 -234 -114.5 -419.5t-448.5 -185.5q-176 0 -295 106.5t-119 272.5t99.5 264.5t245.5 98.5t231.5 -79t85.5 -198v-16l-545 -156q31 -90 114.5 -144t198.5 -54q444 0 445 514v125h278v-95zM190 365v-13l445 125q-12 61 -65.5 107.5t-145.5 46.5 t-163 -70.5t-71 -195.5z" glyph-name="ampersand.aalt" horiz-adv-x="1292"/><glyph d="M47 311v99h313v366h101v-366h311v-99h-311l-15 -823h-71l-15 823h-313z" glyph-name="dagger.aalt" horiz-adv-x="821"/><glyph d="M98 389v98h314v287h98v-287h313v-98h-313v-299h313v-96h-313l-12 -506h-74l-12 506h-314v96h314v299h-314z" glyph-name="daggerdbl.aalt" horiz-adv-x="921"/><glyph d="M1169 0h-127l-108 141q-137 -168 -402 -168q-197 0 -313.5 105.5t-116.5 271.5t104.5 268.5t274.5 116.5l-297 391v101h744v-101h-598l594 -786q29 92 32 223v156h113v-156q-4 -186 -70 -321l170 -226v-16zM539 74q227 0 329 153l-315 416h-23q-135 0 -220 -79t-85 -205 t88.5 -205.5t225.5 -79.5z" glyph-name="glyph541" horiz-adv-x="1216"/><glyph d="M342 1169h109v-59l-27 -215l197 92l57 19l31 -105l-56 -16l-211 -43l148 -156l35 -49l-88 -62l-35 48l-107 190l-104 -190l-37 -48l-84 62l33 49l145 156l-211 43l-55 18l31 103l55 -19l201 -94l-27 217v59z" glyph-name="asterisk.aalt" horiz-adv-x="792"/><glyph d="M501 762q189 0 304 -118t115 -291t-115 -290.5t-304 -117.5t-304 117.5t-115 290.5t115 291t304 118zM500 713q-168 0 -268.5 -104.5t-100.5 -256t100.5 -255t268.5 -103.5t269 104t101 256t-101 255.5t-269 103.5zM507 178q73 0 130 41l41 -51q-53 -59 -166 -59 t-181.5 70.5t-68.5 173t68.5 172t170.5 69.5t161 -41l16 -14l-41 -52q-35 39 -118 39t-133 -49t-50 -127t49 -125t122 -47z" glyph-name="copyright.aalt" horiz-adv-x="999"/><glyph d="M501 762q189 0 304 -118t115 -291t-115 -290.5t-304 -117.5t-304 117.5t-115 290.5t115 291t304 118zM500 713q-168 0 -268.5 -104.5t-100.5 -256t100.5 -255t268.5 -103.5t269 104t101 256t-101 255.5t-269 103.5zM330 115v473h190q96 0 154.5 -50t58.5 -134 t-58.5 -129.5t-156.5 -45.5h-115v-114h-73zM655 406q0 117 -145 116h-107v-225h107q145 0 145 109z" glyph-name="glyph544" horiz-adv-x="999"/><glyph d="M501 762q189 0 304 -118t115 -291t-115 -290.5t-304 -117.5t-304 117.5t-115 290.5t115 291t304 118zM500 713q-168 0 -268.5 -104.5t-100.5 -256t100.5 -255t268.5 -103.5t269 104t101 256t-101 255.5t-269 103.5zM313 588h201q86 0 137 -46t51 -130q0 -115 -98 -152v-2 l96 -127v-16h-73l-101 129h-137v-129h-76v473zM502 522h-113v-213h111q125 0 125 103q0 110 -123 110z" glyph-name="registered.oldstyle" horiz-adv-x="999"/><glyph d="M98 404q0 169 101.5 263.5t258.5 94.5t261 -100.5t104 -263.5t-104.5 -263t-258.5 -100t-258 100t-104 269zM147 402q0 -146 89.5 -232t223.5 -86t224 87t90 227t-90 227.5t-225 87.5t-223.5 -82.5t-88.5 -228.5zM299 580h168q72 0 118 -36t46 -93q0 -86 -78 -121 l70 -101v-16h-62l-69 100h-130v-100h-63v367zM465 522h-103v-151h101q104 0 104 78q0 33 -28.5 53t-73.5 20z" glyph-name="registered.ss05" horiz-adv-x="923"/><glyph d="M795 354h-86v551h43l245 -254l109 109q108 108 141 145h43v-551h-86v396l-192 -195h-29l-188 193v-394zM608 905v-76h-215v-475h-84v475h-215v76h514z" glyph-name="trademark.aalt" horiz-adv-x="1445"/><glyph d="M786 354h-84v551h43l248 -254l250 254h41v-551h-86v396l-192 -195h-27l-193 197v-398zM342 414q143 0 143 73q0 35 -37.5 56.5t-129.5 52.5t-141.5 66.5t-49.5 103.5t57.5 108.5t139.5 40.5q150 0 213 -41l20 -14l-43 -63q-55 45 -178 45t-123 -76q0 -35 35.5 -55.5 t109.5 -44.5t112 -40t70.5 -50t32.5 -92t-56 -100t-175 -42t-199 51l-22 17l45 61q68 -57 176 -57z" glyph-name="uni2120.aalt" horiz-adv-x="1429"/><glyph d="M80 516q0 80 63 125t185 45t178 -70v41q0 92 -44 138.5t-142 46.5t-160 -31l-23 -10l-28 69q94 48 224 48q259 1 259 -265v-299h-62l-10 76h-8q-55 -90 -217 -90q-96 0 -155.5 48t-59.5 128zM166 519q0 -50 40 -80.5t118 -30.5t129 31.5t51 75.5t-48 77t-127 33t-121 -28 t-42 -78z" glyph-name="ordfeminine.aalt" horiz-adv-x="710"/><glyph d="M82 630q0 130 77 209t206 79t205.5 -79t76.5 -209t-76.5 -209t-205.5 -79t-206 79t-77 209zM561 630q0 95 -52 152.5t-143 57.5t-143.5 -57.5t-52.5 -152.5t52 -152.5t144 -57.5t143.5 57.5t51.5 152.5z" glyph-name="ordmasculine.aalt" horiz-adv-x="739"/><glyph d="M215 766v25l252 344h78l252 -344v-25h-80l-211 270l-209 -270h-82z" glyph-name="asciicircum.aalt" horiz-adv-x="1011"/><glyph d="M311 887q-70 0 -139 -43l-39 71q55 63 189 64q53 0 148.5 -26.5t169.5 -26.5t134 41l39 -72q-55 -63 -188 -64q-53 0 -148.5 28t-165.5 28z" glyph-name="asciitilde.aalt" horiz-adv-x="946"/><glyph d="M813 709l-41 -181h199l-17 -79h-198l-43 -197h190l-16 -78h-193l-37 -174h-86l37 174h-248l-38 -174h-86l38 174h-198l16 78h199l45 197h-195l19 79h192l41 181h86l-41 -181h248l41 181h86zM422 449l-45 -197h250l43 197h-248z" glyph-name="numbersign.oldstyle" horiz-adv-x="1042"/><glyph d="M225 0v16l561 684h82v-16l-563 -684h-80zM1061 188q0 -86 -55.5 -145t-155.5 -59t-156.5 60t-56.5 145t56.5 145.5t155.5 60.5t155.5 -60.5t56.5 -146.5zM707 188.5q0 -59.5 37.5 -102.5t104.5 -43t105.5 43t38.5 102.5t-39.5 103.5t-105.5 44t-103.5 -44t-37.5 -103.5z M489 518q0 -86 -55 -145.5t-155.5 -59.5t-156.5 60.5t-56 145.5t56 145.5t156 60.5t155.5 -60.5t55.5 -146.5zM137 518.5q0 -59.5 38 -102.5t103.5 -43t104.5 43t39 102.5t-39 103.5t-104.5 44t-103.5 -44t-38 -103.5z" glyph-name="percent.oldstyle" horiz-adv-x="1124"/><glyph d="M225 0v16l561 684h82v-16l-563 -684h-80zM1061 188q0 -86 -55.5 -145t-155.5 -59t-156.5 60t-56.5 145t56.5 145.5t155.5 60.5t155.5 -60.5t56.5 -146.5zM707 188.5q0 -59.5 37.5 -102.5t104.5 -43t105.5 43t38.5 102.5t-39.5 103.5t-105.5 44t-103.5 -44t-37.5 -103.5z M489 518q0 -86 -55 -145.5t-155.5 -59.5t-156.5 60.5t-56 145.5t56 145.5t156 60.5t155.5 -60.5t55.5 -146.5zM137 518.5q0 -59.5 38 -102.5t103.5 -43t104.5 43t39 102.5t-39 103.5t-104.5 44t-103.5 -44t-38 -103.5zM1550 189q0 -85 -56 -145t-156.5 -60t-157 60 t-56.5 145t56.5 145.5t157 60.5t156.5 -60.5t56 -145.5zM1192 188.5q0 -59.5 40 -102.5t105.5 -43t103.5 43t38 102.5t-38 103.5t-103.5 44t-105.5 -44t-40 -103.5z" glyph-name="perthousand.aalt" horiz-adv-x="1615"/><glyph d="M455 668v-271h256v-98h-256v-258h-101v258h-272v98h272v271h101z" glyph-name="plus.oldstyle" horiz-adv-x="792"/><glyph d="M86 299v98h629v-98h-629z" glyph-name="minus.oldstyle" horiz-adv-x="796"/><glyph d="M434 709v-179h211v-86h-211v-198h-88v198h-223v86h223v179h88zM123 57v86h522v-86h-522z" glyph-name="plusminus.oldstyle" horiz-adv-x="770"/><glyph d="M166 608l203 -200l211 208l67 -69l-209 -207l193 -190l-70 -70l-192 190l-187 -184l-67 70l184 184l-201 201z" glyph-name="multiply.oldstyle" horiz-adv-x="743"/><glyph d="M334 95q0 32 22.5 54.5t54.5 22.5t54 -22.5t22 -54.5t-22.5 -54.5t-54.5 -22.5t-54 22.5t-22 54.5zM334 600q0 33 22.5 55.5t54.5 22.5t54 -22.5t22 -55.5t-22.5 -54.5t-54.5 -21.5t-54 21.5t-22 54.5zM106 305v76h611v-76h-611z" glyph-name="divide.oldstyle" horiz-adv-x="821"/><glyph d="M117 483v92h704v-92h-704zM117 129v92h704v-92h-704z" glyph-name="equal.oldstyle" horiz-adv-x="937"/><glyph d="M416 0l-342 332v47l342 332l69 -72l-295 -285l295 -282z" glyph-name="less.oldstyle" horiz-adv-x="571"/><glyph d="M498 332l-342 -332l-72 72l295 282l-295 285l72 72l342 -332v-47z" glyph-name="greater.oldstyle" horiz-adv-x="571"/><glyph d="M129 545v22l35 406h115v-23l-80 -405h-70zM362 545v22l33 406h115v-23l-76 -405h-72z" glyph-name="quotedbl.oldstyle" horiz-adv-x="624"/><glyph d="M129 545v22l35 406h115v-23l-80 -405h-70z" glyph-name="quotesingle.oldstyle" horiz-adv-x="391"/><glyph d="M335.5 985q106.5 0 173 -63.5t66.5 -157.5t-66.5 -156.5t-173 -62.5t-172 62.5t-65.5 156.5t65.5 157.5t172 63.5zM337 915q-73 0 -118 -44t-45 -107.5t45 -105.5t118 -42t118 42t45 107t-45 107.5t-118 42.5z" glyph-name="degree.oldstyle" horiz-adv-x="675"/><glyph d="M721 -512v414h-160q-227 0 -354 103t-127 301t125 300.5t352 102.5h281v-1221h-117z" glyph-name="paragraph.oldstyle" horiz-adv-x="980"/><glyph d="M348 727q112 0 184 -15.5t99 -31.5l26 -14l-39 -86q-72 49 -246 49t-173 -109q0 -53 44 -85t92 -50t86 -32.5t54.5 -21.5t50.5 -23.5t69.5 -54.5t35.5 -93q0 -90 -80 -140q117 -57 117 -148t-69 -144.5t-214 -53.5q-86 0 -160.5 17.5t-107.5 34.5l-33 16l37 84 q96 -53 263 -53t167 98q0 51 -58 79.5t-73 32.5l-115 33q-94 31 -147.5 71t-53.5 112q0 100 93 149q-115 68 -115 168t77 155.5t189 55.5zM516 147q0 43 -40 70t-148 72l-43 16q-66 -23 -66 -94q0 -69 105 -107q42 -16 80 -28.5t55 -18.5q57 23 57 90z" glyph-name="section.oldstyle" horiz-adv-x="749"/><glyph d="M569 182q0 77 -120.5 108.5t-192.5 53t-122 67t-50 121.5t63.5 130.5t186.5 62.5v195h94v-195q74 -4 135.5 -19.5t85.5 -29.5l25 -14l-39 -91q0 2 -25.5 15.5t-86 28t-132.5 14.5q-190 0 -190 -107q0 -73 121.5 -101t192.5 -50.5t122 -69.5t51 -125t-64.5 -131 t-195.5 -61v-185h-94v185q-76 4 -139.5 21.5t-90.5 31.5l-26 16l39 88q119 -63 262 -63q190 0 190 104z" glyph-name="dollar.oldstyle" horiz-adv-x="757"/><glyph d="M748 10h-666v88q47 0 86 46t39 100q0 10 -4 35h-99v79h76q-23 59 -22 117q0 106 77.5 178t219.5 72q82 0 154.5 -26.5t103.5 -53.5l32 -27l-47 -73q-98 88 -227 88q-88 0 -140 -47.5t-52 -105.5t18 -122h283v-79h-261q2 -10 3 -31q0 -92 -66 -148l492 9v-99z" glyph-name="sterling.oldstyle" horiz-adv-x="841"/><glyph d="M508 -16q-138 0 -230 64.5t-126 176.5h-86v82h69q-2 14 -2 45t2 47h-69v82h86q35 113 127 178.5t217 65.5q66 0 126 -15.5t87 -29.5l28 -16l-37 -78q-76 53 -172 53q-188 0 -254 -158h318v-82h-340q-2 -16 -2 -46.5t2 -45.5h340v-82h-320q31 -76 95.5 -115.5t152.5 -39.5 t158 36l22 15l35 -76q-89 -61 -227 -61z" glyph-name="Euro.oldstyle" horiz-adv-x="821"/><glyph d="M766 385v-82h-268v-98h268v-82h-268v-123h-115v123h-256v82h256v98h-256v82h203l-254 324h131l194 -250l33 -66h10l37 66l193 250h131l-254 -324h215z" glyph-name="yen.oldstyle" horiz-adv-x="890"/><glyph d="M383 483v-59h207v-80h-207v-172q0 -240 -213 -240q-75 0 -137 31l35 76q43 -18 84 -19q117 0 116 150v174h-96v80h96v55q0 242 211 242q75 0 119 -25l18 -8l-34 -74q-43 16 -84 17q-115 -1 -115 -148z" glyph-name="florin.aalt" horiz-adv-x="677"/><glyph d="M403 -174v164q-139 20 -226 118.5t-87 244t87 244.5t226 122v172h93v-166q59 -2 112.5 -17.5t75.5 -29.5l23 -14l-35 -89q-74 51 -190 51t-195.5 -75.5t-79.5 -198.5t80 -196.5t194 -73.5q51 0 99.5 12t70.5 25l21 14l33 -88q-74 -55 -209 -61v-158h-93z" glyph-name="cent.oldstyle" horiz-adv-x="798"/><glyph d="M389 356q0 166 100.5 267.5t251.5 101.5q88 0 156 -33t93.5 -63.5t41.5 -63.5l21 144h71v-537q0 -72 35 -114t90 -42q100 0 166 112t66 284q0 262 -183.5 447t-487.5 185t-491.5 -192.5t-187.5 -489.5t188.5 -487t495.5 -190q88 0 167 18t114 35l34 18l25 -41 q-129 -78 -340 -77q-324 0 -527.5 201t-203.5 521t202.5 526t526.5 206t518.5 -198t194.5 -482q0 -195 -77 -317t-208 -122q-92 0 -143 56.5t-51 128.5h-9q-47 -118 -140 -146t-157 -28q-150 0 -251 103t-101 269zM496 354q0 -121 74.5 -198.5t188.5 -77.5t191.5 74.5 t77.5 201.5t-78 202t-192 75t-188 -78t-74 -199z" glyph-name="at.oldstyle" horiz-adv-x="1611"/><glyph d="M117 305v98h579v-98h-579z" glyph-name="hyphen.aalt" horiz-adv-x="788"/><glyph d="M117 299v96h704v-96h-704z" glyph-name="endash.aalt" horiz-adv-x="911"/><glyph d="M117 299v96h1261v-96h-1261z" glyph-name="emdash.aalt" horiz-adv-x="1468"/><glyph d="M156 -170l-113 64l506 966l115 -61z" glyph-name="slash.oldstyle" horiz-adv-x="712"/><glyph d="M145 78q0 37 25 61.5t61.5 24.5t61 -24.5t24.5 -61.5t-24.5 -61.5t-61 -24.5t-61.5 24.5t-25 61.5zM145 1053q0 37 25 62.5t61.5 25.5t61 -25.5t24.5 -62.5t-24.5 -62.5t-61 -25.5t-61.5 25.5t-25 62.5z" glyph-name="colon.case" horiz-adv-x="462"/><glyph d="M172 78q0 35 25.5 59.5t62.5 24.5t62.5 -25.5t25.5 -66.5t-29 -99l-90 -157h-84l78 139l27 33v6q-35 4 -56.5 27.5t-21.5 58.5zM176 1053q0 37 25.5 62.5t61.5 25.5t61.5 -25.5t25.5 -62.5t-25.5 -62.5t-61.5 -25.5t-61.5 25.5t-25.5 62.5z" glyph-name="semicolon.case" horiz-adv-x="501"/><glyph d="M639 1526l-453 -1800h-118l452 1800h119z" glyph-name="slash.case" horiz-adv-x="706"/><glyph d="M295 1464v-1689h-109v1689h109z" glyph-name="bar.case" horiz-adv-x="483"/><glyph d="M88 614.5q0 153.5 41 291.5t94 227.5t127 168t119 112.5t92 63l57 -82q-412 -279 -412 -782t412 -781l-57 -82q-45 29 -91 63.5t-120 112.5t-128 168t-94 228.5t-40 292z" glyph-name="parenleft.aalt" horiz-adv-x="671"/><glyph d="M584 614.5q0 -153.5 -40 -292t-94.5 -228.5t-128 -168t-119.5 -112.5t-91 -63.5l-58 82q412 280 412 782t-412 781l58 82q47 -29 92 -63t118.5 -112.5t127 -168t94.5 -227.5t41 -291.5z" glyph-name="parenright.aalt" horiz-adv-x="671"/><glyph d="M938 -414q-389 0 -620.5 250t-231.5 619q0 242 101.5 439.5t299 316t457.5 118.5q195 0 356.5 -66.5t265 -176t160 -245.5t56.5 -280q0 -223 -91.5 -362.5t-260.5 -139.5q-66 0 -116 21.5t-86 66t-36 84.5h-8q-12 -33 -77.5 -97t-220.5 -64t-258.5 103t-103.5 269 t102.5 267.5t260.5 101.5q211 0 291 -158l20 142h80v-478q0 -76 40 -117.5t116 -41.5q119 0 182 108.5t63 282.5q0 285 -201.5 485.5t-535.5 200.5t-546 -221t-212 -556t210 -556t544 -221q115 0 212 20t136 41l41 22l41 -86q-56 -35 -177.5 -63.5t-252.5 -28.5zM1171 441 q0 126 -76.5 199t-190.5 73t-188.5 -75t-74.5 -195.5t74.5 -198.5t188.5 -78t190.5 74.5t76.5 200.5z" glyph-name="at.case" horiz-adv-x="1884"/><glyph d="M186 -238v1704h428v-98h-315v-1507h315v-99h-428z" glyph-name="bracketleft.aalt" horiz-adv-x="688"/><glyph d="M520 -274l-452 1800h118l453 -1800h-119z" glyph-name="backslash.aalt" horiz-adv-x="706"/><glyph d="M74 -238v99h313v1507h-313v98h426v-1704h-426z" glyph-name="bracketright.aalt" horiz-adv-x="688"/><glyph d="M70 662h24q55 0 90 44t35 123v486q0 195 203 213l16 -98q-55 -8 -76.5 -35t-21.5 -95v-481q0 -166 -109 -201v-16q109 -35 109 -199v-481q0 -66 21.5 -93.5t76.5 -35.5l-16 -98q-203 18 -203 213v487q0 78 -34.5 122t-90.5 44h-24v101z" glyph-name="braceleft.aalt" horiz-adv-x="548"/><glyph d="M481 561h-26q-53 0 -89 -44t-36 -122v-487q0 -197 -203 -213l-16 98q55 8 76.5 36t21.5 93v481q0 166 110 199v16q-111 33 -110 201v481q0 68 -21.5 94.5t-76.5 35.5l16 98q203 -16 203 -213v-486q0 -80 35.5 -123.5t89.5 -43.5h26v-101z" glyph-name="braceright.aalt" horiz-adv-x="548"/><glyph d="M436 948v-16l-215 -314v-10l215 -317v-17h-102l-217 318v39l217 317h102z" glyph-name="guilsinglleft.aalt" horiz-adv-x="595"/><glyph d="M158 274v17l215 317v10l-215 314v16h102l217 -317v-39l-217 -318h-102z" glyph-name="guilsinglright.aalt" horiz-adv-x="595"/><glyph d="M436 948v-16l-215 -314v-10l215 -317v-17h-102l-217 318v39l217 317h102zM768 948v-16l-215 -314v-10l215 -317v-17h-100l-217 318v39l217 317h100z" glyph-name="guillemotleft.aalt" horiz-adv-x="927"/><glyph d="M158 274v17l215 317v10l-215 314v16h102l217 -317v-39l-217 -318h-102zM492 274v17l213 317v10l-213 314v16h100l217 -317v-39l-217 -318h-100z" glyph-name="guillemotright.aalt" horiz-adv-x="927"/><glyph d="M166 613q0 56 41 97.5t97 41.5t96 -41t40 -97t-40 -96.5t-96 -40.5t-97 40t-41 96z" glyph-name="bullet.aalt" horiz-adv-x="608"/><glyph d="M539 -217q164 0 244.5 65.5t80.5 161.5t-69.5 154t-251.5 126t-253 125.5t-71 158.5t82 159q-190 102 -190 275q0 150 113.5 241.5t332.5 91.5q131 0 236.5 -31.5t144.5 -64.5l41 -31l-66 -96q-14 12 -40.5 31.5t-118.5 52.5t-222 33t-210 -61.5t-80 -154.5t70 -156.5 t232 -118.5t251.5 -121t89.5 -166.5t-72 -171.5q182 -109 182 -277q0 -141 -111.5 -237.5t-340.5 -96.5q-177 0 -286.5 49.5t-154.5 88.5l-18 16l66 90q83 -83 201 -109t188 -26zM766 453q0 130 -281 204q-37 10 -86 29q-66 -29 -65 -111q0 -55 55 -97t172 -84t152 -58 q53 45 53 117z" glyph-name="section.case" horiz-adv-x="1083"/><glyph d="M297 -225h-111v1689h111v-1689z" glyph-name="brokenbar.aalt" horiz-adv-x="485"/></font>
</defs>
</svg>
