<?xml version="1.0" standalone="no"?>
<!DOCTYPE svg PUBLIC "-//W3C//DTD SVG 1.1//EN" "http://www.w3.org/Graphics/SVG/1.1/DTD/svg11.dtd">
<svg xmlns="http://www.w3.org/2000/svg"><metadata>This SVG WebFont was generated by YouWorkForThem.
Copyright (c) 2013 by Miguel &amp; Daniel Hernndez. All rights reserved.</metadata><defs><font horiz-adv-x="1126" id="ywftsvg"><font-face ascent="1536" bbox="-309 -512 2157 1890" cap-height="1229" descent="-512" font-family="" font-stretch="normal" font-weight="100" panose-1="0 0 0 0 0 0 0 0 0 0" underline-position="0" underline-thickness="0" unicode-range="U+000D-FB04" units-per-em="2048" x-height="709"/><missing-glyph horiz-adv-x="1024"/><glyph glyph-name=".notdef" horiz-adv-x="1024"/><glyph glyph-name="glyph1" horiz-adv-x="0"/><glyph glyph-name="glyph2" horiz-adv-x="681"/><glyph glyph-name="glyph3" horiz-adv-x="0"/><glyph glyph-name="glyph3" horiz-adv-x="0"/><glyph glyph-name="space" horiz-adv-x="483" unicode=" "/><glyph d="M264 1229v-58l-16 -890h-39l-16 890v58h71zM176 38.5q0 22.5 16.5 39t39 16.5t39 -16.5t16.5 -39t-16.5 -38.5t-39 -16t-39 16t-16.5 38.5z" glyph-name="exclam" horiz-adv-x="460" unicode="!"/><glyph d="M133 948v15l31 413h65v-14l-71 -414h-25zM311 948v15l31 413h66v-14l-72 -414h-25z" glyph-name="quotedbl" horiz-adv-x="514" unicode="&quot;"/><glyph d="M1028 1194l-82 -358h254l-8 -41h-256l-92 -404h237l-8 -41h-237l-80 -350h-47l79 350h-401l-80 -350h-47l80 350h-258l8 41h258l92 404h-239l8 41h242l81 358h48l-82 -358h401l82 358h47zM487 795l-92 -404h402l92 404h-402z" glyph-name="numbersign" horiz-adv-x="1282" unicode="#"/><glyph d="M520 14q205 0 307.5 75t102.5 208q0 157 -130 218t-231 89q-100 28 -122.5 35.5t-83 28t-123.5 59.5t-96 87t-33 128q0 143 117.5 227t303.5 86v205h41v-207q117 -4 209 -30.5t127 -51.5l35 -24l-24 -37q-14 12 -41 29.5t-126.5 46t-237.5 28.5t-249.5 -71.5 t-111.5 -198.5q0 -94 71 -155.5t276 -123.5q205 -61 276 -93.5t107 -66.5t62.5 -88.5t26.5 -119.5q0 -137 -99.5 -224t-300.5 -98v-206h-41v204h-12q-121 0 -225.5 33t-147.5 66l-45 32l29 35q16 -14 46 -34.5t130.5 -55.5t212.5 -35z" glyph-name="dollar" horiz-adv-x="1069" unicode="$"/><glyph d="M340 1255q119 0 185.5 -87t66.5 -213t-67.5 -214t-184.5 -88t-184.5 88t-67.5 214t66.5 213t185.5 87zM340 1214q-98 0 -153.5 -74.5t-55.5 -184.5t56.5 -185.5t152.5 -75.5t152.5 76t56.5 186t-55.5 184t-153.5 74zM1147 1212l33 -24l-961 -1155l-33 24zM1028 586 q119 0 185.5 -87t66.5 -213t-67.5 -214t-184.5 -88t-184.5 88t-67.5 214t66.5 213t185.5 87zM1028 545q-98 0 -153.5 -74.5t-55.5 -184.5t56.5 -185.5t152.5 -75.5t152.5 75.5t56.5 185.5t-55.5 184.5t-153.5 74.5z" glyph-name="percent" horiz-adv-x="1366" unicode="%"/><glyph d="M129 307q0 90 48 164t106.5 114t152.5 89q-158 158 -157 317q0 123 77.5 193.5t202.5 70.5t196.5 -72.5t71.5 -187.5t-95.5 -191.5t-225.5 -141.5l455 -445q84 143 83 379v39h43v-39q0 -250 -98 -408l180 -174v-14h-41l-159 156q-133 -182 -406 -183q-193 0 -313.5 92 t-120.5 242zM563 12q256 0 377 170l-471 461q-227 -120 -262 -198t-35 -138q0 -129 111.5 -212t279.5 -83zM322 1009q0 -84 31.5 -149t52 -88.5t69.5 -77.5q235 118 269 184t34 140t-54 136.5t-164 62.5t-174 -62t-64 -146z" glyph-name="ampersand" horiz-adv-x="1204" unicode="&amp;"/><glyph d="M133 948v15l31 413h65v-14l-71 -414h-25z" glyph-name="quotesingle" horiz-adv-x="335" unicode="'"/><glyph d="M133 528q0 -516 406 -825q8 -6 10 -8l-21 -31q-121 94 -178 158q-260 287 -260 706q0 532 422 850q12 8 16 13l21 -31q-133 -104 -209 -203q-207 -266 -207 -629z" glyph-name="parenleft" horiz-adv-x="587" unicode="("/><glyph d="M455 528q0 514 -406 824q-8 6 -10 8l20 31q117 -90 166 -144q272 -287 273 -719q0 -532 -424 -852l-15 -12l-20 31q135 104 211 203q205 266 205 630z" glyph-name="parenright" horiz-adv-x="587" unicode=")"/><glyph d="M410 1493h77v-59l-26 -158h-25l-26 158v59zM707 1217l-158 -25l-8 25l141 73l57 19l23 -74zM346 1192l-158 25l-57 18l25 74l57 -19l141 -73zM264 989l111 117l20 -14l-65 -146l-37 -49l-62 43zM522 1106l111 -117l33 -49l-62 -43l-37 49l-65 146z" glyph-name="asterisk" horiz-adv-x="892" unicode="*"/><glyph d="M518 991v-352h354v-41h-354v-346h-43v346h-356v41h356v352h43z" glyph-name="plus" horiz-adv-x="991" unicode="+"/><glyph d="M45 36.5q0 22.5 15.5 38t39.5 15.5t40 -17t16 -41t-13 -48l-106 -193l-35 19l82 147l18 23v4h-4q-23 0 -38 15t-15 37.5z" glyph-name="comma" horiz-adv-x="198" unicode=","/><glyph d="M131 592v41h574v-41h-574z" glyph-name="hyphen" horiz-adv-x="835" unicode="-"/><glyph d="M45 38.5q0 22.5 16.5 39t39 16.5t39 -16.5t16.5 -39t-16.5 -38.5t-39 -16t-39 16t-16.5 38.5z" glyph-name="period" horiz-adv-x="200" unicode="."/><glyph d="M580 1440l-453 -1800h-47l452 1800h48z" glyph-name="slash" horiz-adv-x="659" unicode="/"/><glyph d="M632.5 -29q-231.5 0 -374.5 181.5t-143 459.5t143 460.5t374.5 182.5t375 -182.5t143.5 -460.5t-143.5 -459.5t-375 -181.5zM633 12q223 0 349 173t126 427t-126 428t-349 174t-349 -174t-126 -428t126 -427t349 -173z" glyph-name="zero" horiz-adv-x="1265" unicode="0"/><glyph d="M49 1188v41h348v-1229h-43v1188h-305z" glyph-name="one" horiz-adv-x="610" unicode="1"/><glyph d="M498 1255q176 0 279.5 -95t103.5 -251q0 -88 -34 -150.5t-126 -156.5l-535 -563h723v-39h-805v14l598 625q76 80 106 136t30 134q0 135 -93.5 220t-244.5 85q-104 0 -197.5 -42t-134.5 -82l-39 -41l-31 30q176 176 400 176z" glyph-name="two" horiz-adv-x="1013" unicode="2"/><glyph d="M559 637h-197v35l472 518h-709v39h784v-15l-497 -542h145q152 0 256.5 -92t104.5 -252t-113 -257.5t-293 -97.5t-279.5 71t-117.5 89l-21 19l27 32q110 -110 219 -141t174 -31q154 0 257 89t103 229t-88 223.5t-227 83.5z" glyph-name="three" horiz-adv-x="1026" unicode="3"/><glyph d="M61 324v32l732 873h41v-864h137v-41h-137v-324h-43v324h-730zM119 365h672v792l-662 -782l-10 -8v-2z" glyph-name="four" horiz-adv-x="1060" unicode="4"/><glyph d="M866 1190h-610l-25 -522q137 41 307 41t273.5 -97.5t103.5 -273.5t-108.5 -269.5t-292.5 -93.5t-283.5 71t-119.5 89l-19 19l27 32q110 -110 218.5 -141t174.5 -31q160 0 260 87t100 241t-93 241t-245 87t-286 -39l-41 -13l-19 13l27 598h651v-39z" glyph-name="five" horiz-adv-x="1015" unicode="5"/><glyph d="M123 350q0 127 37 192.5t71 116.5l381 570h52l-394 -586v-6q102 82 269 82t279 -105.5t112 -268.5t-112.5 -266.5t-291 -103.5t-291 103.5t-112.5 271.5zM528 680q-150 0 -256 -89t-106 -237t103.5 -244t257 -96t257 95.5t103.5 237.5t-104.5 237.5t-254.5 95.5z" glyph-name="six" horiz-adv-x="1003" unicode="6"/><glyph d="M61 1188v41h811v-15l-587 -1214h-52l570 1188h-742z" glyph-name="seven" horiz-adv-x="899" unicode="7"/><glyph d="M544.5 -27q-190.5 0 -304 100.5t-113.5 236.5t71.5 221t196.5 118q-104 35 -162.5 114t-58.5 179q0 137 99.5 225t271.5 88t271 -88t99 -225q0 -100 -58 -179t-165 -114q125 -33 198 -119t73 -221t-114 -235.5t-304.5 -100.5zM545 629q-168 0 -270.5 -85t-102.5 -218 t101.5 -222.5t271.5 -89.5t271.5 89.5t101.5 222.5t-102.5 218t-270.5 85zM219 943q0 -118 86 -195.5t238 -77.5t239.5 77.5t87.5 195.5t-88 194.5t-237.5 76.5t-237.5 -76.5t-88 -194.5z" glyph-name="eight" horiz-adv-x="1089" unicode="8"/><glyph d="M879 881q0 -127 -37 -192.5t-72 -117.5l-381 -569h-51l360 539q29 47 33 47v4q-104 -80 -270 -80t-277.5 105.5t-111.5 268.5t112.5 266t290.5 103t291 -103t113 -271zM474 551q150 0 256 89.5t106 237.5t-103.5 243.5t-257 95.5t-257 -95.5t-103.5 -237.5t104.5 -237.5 t254.5 -95.5z" glyph-name="nine" horiz-adv-x="1001" unicode="9"/><glyph d="M133 669.5q0 22.5 16.5 39t39 16.5t39 -16.5t16.5 -39t-16.5 -39t-39 -16.5t-39 16.5t-16.5 39zM133 38.5q0 22.5 16.5 39t39 16.5t39 -16.5t16.5 -39t-16.5 -38.5t-39 -16t-39 16t-16.5 38.5z" glyph-name="colon" horiz-adv-x="376" unicode=":"/><glyph d="M178 36.5q0 22.5 15 38t39 15.5t40.5 -16.5t16.5 -43t-13 -46.5l-98 -174h-43l82 147l19 23v4h-5q-23 0 -38 15t-15 37.5zM180 669.5q0 22.5 16.5 39t39 16.5t39 -16.5t16.5 -39t-16.5 -39t-39 -16.5t-39 16.5t-16.5 39z" glyph-name="semicolon" horiz-adv-x="446" unicode=";"/><glyph d="M588 90l-494 475v47l494 475l28 -30l-485 -469l485 -467z" glyph-name="less" horiz-adv-x="745" unicode="&lt;"/><glyph d="M141 770v41h668v-41h-668zM141 379v41h668v-41h-668z" glyph-name="equal" horiz-adv-x="950" unicode="="/><glyph d="M651 565l-493 -475l-29 31l485 467l-485 469l29 30l493 -475v-47z" glyph-name="greater" horiz-adv-x="745" unicode=">"/><glyph d="M369 1255q127 0 202.5 -71.5t75.5 -197.5t-74.5 -208t-150.5 -163t-80 -240l-2 -92h-39v100q0 156 75 241t150.5 164t75.5 209q0 94 -63.5 155.5t-156.5 61.5t-157.5 -17t-89.5 -36l-26 -18l-19 37q34 27 115.5 51t163.5 24zM268 38.5q0 22.5 16.5 39t39 16.5t39 -16.5 t16.5 -39t-16.5 -38.5t-39 -16t-39 16t-16.5 38.5z" glyph-name="question" horiz-adv-x="749" unicode="?"/><glyph d="M940 -500q-373 0 -609.5 250t-236.5 622t240.5 621.5t610.5 249.5t604.5 -234.5t234.5 -549.5q0 -209 -83 -347.5t-247 -138.5q-100 0 -161.5 58.5t-61.5 150.5h-4q-6 -23 -37 -62.5t-63.5 -66t-92 -48t-131.5 -21.5q-152 0 -256 103t-104 267t104.5 267.5t251.5 103.5 t222.5 -64t97.5 -114l8 -21h2l10 183h31v-519q0 -80 50 -128t134 -48q141 0 213 128t72 317q0 297 -222.5 520t-570.5 223t-577.5 -239.5t-229.5 -591.5t225.5 -591t575.5 -239q123 0 227.5 22.5t147.5 47.5l43 22l18 -39q-54 -34 -179.5 -64t-256.5 -30zM1231 354.5 q0 151.5 -96.5 241.5t-231.5 90t-226 -93t-91 -238.5t91 -238.5t226 -93t231.5 90t96.5 241.5z" glyph-name="at" horiz-adv-x="1900" unicode="@"/><glyph d="M27 0l579 1229h19l579 -1229h-49l-137 289h-807l-137 -289h-47zM997 330l-379 813h-8l-381 -813h768z" glyph-name="A" horiz-adv-x="1230" unicode="A"/><glyph d="M1178 324q0 -168 -122 -246t-323 -78h-530v1229h493q201 0 317.5 -80t116.5 -250q0 -209 -208 -278v-7q117 -29 186.5 -102t69.5 -188zM741 594h-495v-553h489q178 0 289 67.5t111 211.5t-110 209t-284 65zM1087 899q0 154 -107.5 221.5t-281.5 67.5h-452v-553h452 q389 0 389 264z" glyph-name="B" horiz-adv-x="1296" unicode="B"/><glyph d="M724 -29q-259 0 -439.5 183.5t-180.5 457.5t179.5 458.5t451.5 184.5q123 0 227.5 -40.5t147.5 -81.5l43 -41l-25 -33l-52 52q-52 52 -159.5 77.5t-181.5 25.5q-256 0 -422 -177t-166 -425t166 -424t422 -176q117 0 215.5 41t139.5 82l38 39l25 -33q-170 -170 -429 -170z " glyph-name="C" horiz-adv-x="1226" unicode="C"/><glyph d="M1233 614.5q0 -286.5 -185.5 -450.5t-474.5 -164h-370v1229h370q289 0 474.5 -164t185.5 -450.5zM575 1188h-329v-1147h329q266 0 440.5 155.5t174.5 418t-175.5 418t-439.5 155.5z" glyph-name="D" horiz-adv-x="1343" unicode="D"/><glyph d="M954 629v-41h-708v-547h809v-41h-852v1229h852v-41h-809v-559h708z" glyph-name="E" horiz-adv-x="1140" unicode="E"/><glyph d="M203 0v1229h852v-41h-809v-559h729v-41h-729v-588h-43z" glyph-name="F" horiz-adv-x="1128" unicode="F"/><glyph d="M1245 561v27h-553v41h596v-47q0 -285 -149 -448t-417 -163t-442 181.5t-174 459.5t174.5 460.5t456.5 182.5q135 0 247 -42t157 -83l45 -40l-25 -33l-14 14q-14 14 -107 78.5t-303 64.5q-272 0 -429.5 -175t-157.5 -427t157.5 -426t429.5 -174q231 0 369.5 145.5 t138.5 403.5z" glyph-name="G" horiz-adv-x="1374" unicode="G"/><glyph d="M1155 1229v-1229h-43v588h-866v-588h-43v1229h43v-600h866v600h43z" glyph-name="H" horiz-adv-x="1357" unicode="H"/><glyph d="M246 1229v-1229h-43v1229h43z" glyph-name="I" horiz-adv-x="448" unicode="I"/><glyph d="M322 14q330 0 329 361v854h43v-858q0 -397 -370 -398q-74 0 -140.5 19.5t-97.5 40.5l-29 18l25 41q10 -8 28.5 -21.5t81 -35t130.5 -21.5z" glyph-name="J" horiz-adv-x="882" unicode="J"/><glyph d="M246 1229v-780l813 780h43v-15l-508 -487l508 -713v-14h-41l-498 696l-317 -305v-391h-43v1229h43z" glyph-name="K" horiz-adv-x="1157" unicode="K"/><glyph d="M1024 0h-821v1229h43v-1188h778v-41z" glyph-name="L" horiz-adv-x="1046" unicode="L"/><glyph d="M1303 0v1130l-521 -604h-18l-518 604v-1130h-43v1229h18l553 -651l553 651h19v-1229h-43z" glyph-name="M" horiz-adv-x="1548" unicode="M"/><glyph d="M1221 1229v-1229h-19l-956 1130v-1130h-43v1229h18l957 -1129v1129h43z" glyph-name="N" horiz-adv-x="1423" unicode="N"/><glyph d="M727.5 -29q-276.5 0 -449 181.5t-172.5 459.5t171.5 460.5t450 182.5t449.5 -182.5t171 -460.5t-172 -459.5t-448.5 -181.5zM727 12q266 0 422 174t156 426t-155 427t-423 175t-422.5 -175t-154.5 -427t155.5 -426t421.5 -174z" glyph-name="O" horiz-adv-x="1454" unicode="O"/><glyph d="M655 1229q231 0 354.5 -100.5t123.5 -300.5t-124 -302t-354 -102h-409v-424h-43v1229h452zM1090 828q0 183 -115 271.5t-318 88.5h-411v-723h411q203 0 318 90t115 273z" glyph-name="P" horiz-adv-x="1212" unicode="P"/><glyph d="M727 -29q-276 0 -448.5 181.5t-172.5 459.5t171.5 460.5t450 182.5t449.5 -182t171 -463q0 -184 -80 -331.5t-224 -229.5l95 -147v-15h-33l-94 146q-133 -62 -285 -62zM791 391h36l195 -305q135 76 209 216t74 308q0 254 -155 429t-423 175t-422.5 -175t-154.5 -427 t155.5 -426t421.5 -174q141 0 262 56l-198 309v14z" glyph-name="Q" horiz-adv-x="1454" unicode="Q"/><glyph d="M203 0v1229h452q231 0 354.5 -100.5t123.5 -280.5t-92.5 -276.5t-252.5 -120.5v-9l357 -428v-14h-41l-371 444h-487v-444h-43zM1090 835q0 176 -115 264.5t-318 88.5h-411v-703h442q178 0 290 87t112 263z" glyph-name="R" horiz-adv-x="1255" unicode="R"/><glyph d="M520 14q205 0 307.5 75t102.5 208q0 157 -130 218t-231 89q-100 28 -122.5 35.5t-83 28t-123.5 59.5t-96 87t-33 128q0 145 119.5 229t308.5 84q129 0 230 -27.5t138 -53.5l37 -27l-24 -37q-14 12 -41 29.5t-126.5 46t-237.5 28.5t-249.5 -71.5t-111.5 -198.5 q0 -94 71 -155.5t276 -123.5q205 -61 276 -93.5t107 -66.5t62.5 -88.5t26.5 -119.5q0 -147 -111.5 -235.5t-341.5 -88.5q-121 0 -225.5 33t-147.5 66l-45 32l29 35q16 -14 46 -34.5t130.5 -55.5t212.5 -35z" glyph-name="S" horiz-adv-x="1071" unicode="S"/><glyph d="M1001 1229v-41h-460v-1188h-43v1188h-461v41h964z" glyph-name="T" horiz-adv-x="1038" unicode="T"/><glyph d="M669.5 -27q-231.5 0 -358.5 142.5t-127 388.5v725h43v-725q0 -227 114 -358.5t329 -131.5t328.5 131t113.5 359v725h43v-725q0 -246 -127 -388.5t-358.5 -142.5z" glyph-name="U" horiz-adv-x="1339" unicode="U"/><glyph d="M76 1229l534 -1143h13l534 1143h47l-579 -1229h-19l-579 1229h49z" glyph-name="V" horiz-adv-x="1230" unicode="V"/><glyph d="M487 86l318 1143h31l307 -1104l8 -39h6l10 39l371 1104h51l-424 -1229h-26l-310 1104l-8 39h-6l-6 -39l-311 -1104h-27l-424 1229h51l371 -1104l10 -39h8z" glyph-name="W" horiz-adv-x="1636" unicode="W"/><glyph d="M997 1229l-440 -598l465 -631h-51l-391 532l-48 76l-47 -76l-391 -532h-49l461 631l-438 598h51l377 -514l36 -62l37 62l377 514h51z" glyph-name="X" horiz-adv-x="1067" unicode="X"/><glyph d="M561 0h-43v475l-489 754h51l424 -664l33 -55h8l456 719h50l-490 -754v-475z" glyph-name="Y" horiz-adv-x="1079" unicode="Y"/><glyph d="M63 0v14l885 1174h-878v41h954v-15l-887 -1173h858v-41h-932z" glyph-name="Z" horiz-adv-x="1075" unicode="Z"/><glyph d="M184 -324v1704h373v-41h-330v-1622h330v-41h-373z" glyph-name="bracketleft" horiz-adv-x="612" unicode="["/><glyph d="M532 -360l-452 1800h47l453 -1800h-48z" glyph-name="backslash" horiz-adv-x="659" unicode="\"/><glyph d="M55 -324v41h330v1622h-330v41h373v-1704h-373z" glyph-name="bracketright" horiz-adv-x="612" unicode="]"/><glyph d="M143 997v15l256 356h47l256 -356v-15h-24l-256 308l-254 -308h-25z" glyph-name="asciicircum" horiz-adv-x="845" unicode="^"/><glyph d="M111 -82v41h753v-41h-753z" glyph-name="underscore" horiz-adv-x="987" unicode="_"/><glyph d="M160 1182h65l115 -310v-14h-25l-155 309v15z" glyph-name="grave" horiz-adv-x="520" unicode="`"/><glyph d="M70 206q0 93 75.5 152.5t221.5 59.5q207 0 311 -105h10v86q0 287 -287 287q-66 0 -125 -15.5t-83 -29.5l-27 -14l-19 35q89 63 259 63t246.5 -90t76.5 -240v-395h-31l-10 115h-4q-54 -82 -154 -106.5t-163 -24.5q-145 0 -221 64.5t-76 157.5zM111 206q0 -81 66.5 -132 t196.5 -51t221 59t91 129t-94 120t-221 50t-193.5 -47t-66.5 -128z" glyph-name="a" horiz-adv-x="862" unicode="a"/><glyph d="M145 0v1368h41v-842h2q6 23 37 63t64 66.5t92 48t131 21.5q152 0 256 -103.5t104 -267.5t-104 -267t-251 -103t-224.5 65.5t-95.5 112.5l-9 20h-2l-10 -182h-31zM184 354.5q0 -151.5 96.5 -241.5t231.5 -90t226 93t91 238.5t-91 238.5t-226 93t-231.5 -90t-96.5 -241.5z " glyph-name="b" horiz-adv-x="960" unicode="b"/><glyph d="M452 -16q-152 0 -258 100t-106 267t106.5 270.5t264.5 103.5q66 0 123 -16.5t82 -32.5l26 -14l-16 -35q-84 59 -216 59t-229.5 -93t-97.5 -242.5t96.5 -238.5t231.5 -89q57 0 111.5 14t78.5 29l25 16l16 -35q-86 -63 -238 -63z" glyph-name="c" horiz-adv-x="753" unicode="c"/><glyph d="M774 526v842h41v-1368h-31l-10 182h-2q-6 -25 -36.5 -63.5t-63.5 -65t-92.5 -48t-130.5 -21.5q-152 0 -256.5 103t-104.5 267t104.5 267.5t251.5 103.5t224 -65t96 -113l8 -21h2zM776 354.5q0 151.5 -96 241.5t-231.5 90t-226.5 -93t-91 -238.5t91 -238.5t226.5 -93 t231.5 90t96 241.5z" glyph-name="d" horiz-adv-x="960" unicode="d"/><glyph d="M90 354q0 170 98 270.5t254 100.5t246 -92t90 -250v-12h-645v-21q0 -150 99.5 -238.5t238.5 -88.5q70 0 130.5 17t86.5 36l27 18l18 -35q-98 -75 -261 -75t-272.5 100t-109.5 270zM447 686q-128 0 -210.5 -72.5t-99.5 -203.5h598q-4 117 -82 196.5t-206 79.5z" glyph-name="e" horiz-adv-x="854" unicode="e"/><glyph d="M580 670h-328v-670h-41v670h-184v39h184v342q0 313 266 313q78 0 127 -35l-18 -35q-41 31 -109 31q-115 0 -170 -65.5t-55 -208.5v-342h328v-39z" glyph-name="f" horiz-adv-x="595" unicode="f"/><glyph d="M440 -485q-170 0 -270 74.5t-100 191.5q0 174 215 225v6q-106 16 -151.5 56.5t-45.5 107.5q0 102 123 150q-41 62 -41 156t74.5 166.5t199.5 72.5l353 -12v-39h-195v-4q4 -2 26 -11t56.5 -56t34.5 -143q0 -95 -75 -168t-202 -73t-204 78q-109 -31 -109 -117 q0 -141 311 -141q172 0 271.5 -69.5t99.5 -185.5t-100.5 -190.5t-270.5 -74.5zM440.5 -6q-151.5 0 -240.5 -60.5t-89 -155.5t89 -158.5t240.5 -63.5t240.5 63.5t89 159.5t-89 155.5t-240.5 59.5zM444.5 680q-106.5 0 -170 -61.5t-63.5 -151.5t63.5 -150.5t170 -60.5 t170 60.5t63.5 150.5t-63.5 151.5t-170 61.5z" glyph-name="g" horiz-adv-x="835" unicode="g"/><glyph d="M145 0v1368h41v-805h2q6 19 34 51.5t81.5 71.5t187.5 39q133 0 216.5 -92t83.5 -242v-391h-41v387q0 133 -71 216t-207 83t-209 -80t-77 -166v-440h-41z" glyph-name="h" horiz-adv-x="923" unicode="h"/><glyph d="M174 1040q-43 0 -43 41q0 18 12.5 30.5t31 12.5t30.5 -12t12 -31q0 -41 -43 -41zM154 0v709h41v-709h-41z" glyph-name="i" horiz-adv-x="348" unicode="i"/><glyph d="M28 -373q116 0 117 162v920h41v-920q0 -106 -38.5 -153.5t-109.5 -47.5t-132 35l18 35q46 -31 104 -31zM166 1040q-43 0 -43 41q0 18 12 30.5t30.5 12.5t31 -12t12.5 -31q0 -41 -43 -41z" glyph-name="j" horiz-adv-x="331" unicode="j"/><glyph d="M186 356v-356h-41v1368h41v-999h2l406 340h59l-413 -347l481 -362h-59l-474 356h-2z" glyph-name="k" horiz-adv-x="737" unicode="k"/><glyph d="M154 0v1368h41v-1368h-41z" glyph-name="l" horiz-adv-x="348" unicode="l"/><glyph d="M145 0v709h31l10 -146h2q6 19 67.5 90.5t220.5 71.5q118 0 193.5 -52t104.5 -141h10q6 25 29 63t52.5 63.5t87 46t128.5 20.5q147 0 230.5 -92t83.5 -242v-391h-41v387q0 133 -71 216t-207 83t-208.5 -89t-76.5 -185v-412h-41v428q0 115 -71 186.5t-207 71.5t-209 -80 t-77 -166v-440h-41z" glyph-name="m" horiz-adv-x="1527" unicode="m"/><glyph d="M145 0v709h31l10 -146h2q6 19 34 51.5t81.5 71.5t187.5 39q133 0 216.5 -92t83.5 -242v-391h-41v387q0 133 -71 216t-207 83t-209 -80t-77 -166v-440h-41z" glyph-name="n" horiz-adv-x="923" unicode="n"/><glyph d="M829 351q0 -167 -106.5 -267t-264 -100t-264 100t-106.5 267t106.5 270.5t264 103.5t264 -103.5t106.5 -270.5zM459 23q135 0 231 89t96 238.5t-97 242.5t-230 93t-230.5 -93t-97.5 -242.5t96.5 -238.5t231.5 -89z" glyph-name="o" horiz-adv-x="917" unicode="o"/><glyph d="M186 182v-575h-41v1102h31l10 -183h2q6 23 37 63t64 66.5t92 48t131 21.5q152 0 256 -103.5t104 -267.5t-104 -267t-251 -103t-224.5 65.5t-95.5 112.5l-9 20h-2zM184 354.5q0 -151.5 96.5 -241.5t231.5 -90t226 93t91 238.5t-91 238.5t-226 93t-231.5 -90t-96.5 -241.5z " glyph-name="p" horiz-adv-x="960" unicode="p"/><glyph d="M815 709v-1102h-41v575h-2q-6 -25 -36.5 -63.5t-63.5 -65t-92.5 -48t-130.5 -21.5q-152 0 -256.5 103t-104.5 267t104.5 267.5t251.5 103.5t224 -65t96 -113l8 -21h2l10 183h31zM776 354.5q0 151.5 -96 241.5t-231.5 90t-226.5 -93t-91 -238.5t91 -238.5t226.5 -93 t231.5 90t96 241.5z" glyph-name="q" horiz-adv-x="960" unicode="q"/><glyph d="M186 0h-41v709h31l10 -146h2q2 6 11 35.5t57.5 78t149.5 48.5q52 0 106 -27l-16 -36q-43 25 -95 24q-104 0 -157.5 -77t-57.5 -185v-424z" glyph-name="r" horiz-adv-x="526" unicode="r"/><glyph d="M359 23q149 0 215.5 43t66.5 108t-57.5 102t-138 53.5t-161.5 35t-138.5 60.5t-57.5 122t75 129t217 49t241 -41l28 -14l-18 -37q-90 53 -252 53q-248 0 -248 -147q0 -106 138.5 -131t219 -42.5t138 -63.5t57.5 -129t-73.5 -136t-231.5 -53q-88 0 -161 16t-103 33l-29 16 l20 35q104 -61 253 -61z" glyph-name="s" horiz-adv-x="759" unicode="s"/><glyph d="M446 23q56 0 109 30l18 -35q-55 -35 -127 -34q-266 0 -266 313v373h-153v39h153v215h41v-215h328v-39h-328v-373q0 -143 55.5 -208.5t169.5 -65.5z" glyph-name="t" horiz-adv-x="593" unicode="t"/><glyph d="M727 274v435h41v-709h-31l-10 145h-2q-6 -19 -33.5 -51.5t-81 -71t-187.5 -38.5t-212 92t-78 241v392h41v-387q0 -135 66.5 -217t202.5 -82t210 82.5t74 168.5z" glyph-name="u" horiz-adv-x="913" unicode="u"/><glyph d="M410 49q0 14 12 39l305 621h47l-354 -709h-27l-354 709h49l305 -621q12 -25 13 -39h4z" glyph-name="v" horiz-adv-x="813" unicode="v"/><glyph d="M338 49h4q0 8 10 39l205 621h47l203 -621q10 -31 10 -39h4q0 2 13 39l227 621h45l-264 -709h-47l-207 633q-6 18 -6 26h-4q0 -8 -7 -26l-209 -633h-47l-264 709h47l228 -621q12 -37 12 -39z" glyph-name="w" horiz-adv-x="1157" unicode="w"/><glyph d="M41 0l303 375l-270 334h51l244 -308h4l245 308h50l-271 -332l303 -377h-53l-274 350h-4l-277 -350h-51z" glyph-name="x" horiz-adv-x="741" unicode="x"/><glyph d="M416 49q0 14 12 39l305 621h43l-538 -1102h-45l198 407l-346 695h49l305 -621q12 -25 13 -39h4z" glyph-name="y" horiz-adv-x="817" unicode="y"/><glyph d="M68 670v39h600v-33l-547 -637h547v-39h-600v33l544 637h-544z" glyph-name="z" horiz-adv-x="737" unicode="z"/><glyph d="M61 551h17q53 0 92 49t39 129v551q0 145 125 162l6 -39q-49 -6 -68.5 -37t-19.5 -100v-531q0 -172 -100 -205v-14q100 -33 100 -203v-530q0 -70 19.5 -100.5t68.5 -36.5l-6 -39q-125 16 -125 162v550q0 80 -39 129.5t-92 49.5h-17v53z" glyph-name="braceleft" horiz-adv-x="448" unicode="{"/><glyph d="M227 1378v-1689h-43v1689h43z" glyph-name="bar" horiz-adv-x="411" unicode="|"/><glyph d="M387 498h-16q-53 0 -92 -49.5t-39 -129.5v-550q0 -145 -125 -162l-6 39q49 6 68.5 36.5t19.5 100.5v530q0 170 100 203v14q-100 33 -100 205v531q0 70 -19.5 100.5t-68.5 36.5l6 39q125 -16 125 -162v-551q0 -80 38.5 -129t92.5 -49h16v-53z" glyph-name="braceright" horiz-adv-x="448" unicode="}"/><glyph d="M284 610q-81 0 -124 -39l-21 27q45 53 170 53q49 0 147.5 -28.5t171.5 -28.5t132 39l20 -27q-45 -53 -170 -53q-49 0 -147 28.5t-179 28.5z" glyph-name="asciitilde" horiz-adv-x="919" unicode="~"/><glyph glyph-name="uni00A0" horiz-adv-x="483" unicode=" "/><glyph d="M262 0h-72v57l17 891h39l16 -891v-57zM174 1189.5q0 22.5 16.5 39t39 16.5t39 -16.5t16.5 -39t-16.5 -38.5t-39 -16t-39 16t-16.5 38.5z" glyph-name="exclamdown" horiz-adv-x="456" unicode="¡"/><glyph d="M451 -164v150q-143 12 -236.5 110.5t-93.5 254t93 257t237 115.5v154h41v-152q66 0 123 -16.5t81 -32.5l27 -14l-16 -35q-84 59 -216 59t-229.5 -93t-97.5 -242.5t96 -238.5t232 -89q57 0 111 14t79 29l25 16l16 -35q-86 -63 -231 -63v-148h-41z" glyph-name="cent" horiz-adv-x="854" unicode="¢"/><glyph d="M899 55v-41h-760v41q14 5 79 55t65 193q0 51 -27 125h-143v41h127q0 2 -12.5 29.5t-13.5 33t-11 31t-13.5 34.5t-11.5 32.5t-10 37t-8 35t-7 38t-3.5 37t-2.5 40.5q0 166 114 292t333 126q100 0 181 -28.5t110 -57.5l30 -29l-24 -28q-10 12 -30.5 28.5t-97.5 45 t-169 28.5q-199 0 -300 -113.5t-101 -263.5q0 -72 13 -121t17 -64.5t15.5 -44t15.5 -39.5t17.5 -42t15.5 -37h561v-41h-547q27 -70 27 -125q0 -170 -113 -248h684z" glyph-name="sterling" horiz-adv-x="1032" unicode="£"/><glyph d="M995 610q0 -152 -100 -268l119 -127l-33 -33l-119 127q-115 -104 -272.5 -104t-270.5 100l-112 -123l-33 33l115 123q-104 115 -104.5 270.5t106.5 272.5l-117 125l33 32l115 -127q117 100 268 100.5t270 -104.5l121 131l33 -32l-121 -132q102 -112 102 -264zM229 608.5 q0 -149.5 105.5 -256t255 -106.5t255 106.5t105.5 256t-105.5 256t-255 106.5t-255 -106.5t-105.5 -256z" glyph-name="currency" horiz-adv-x="1183" unicode="¤"/><glyph d="M993 506v-41h-385v-180h385v-41h-385v-244h-43v244h-393v41h393v180h-393v41h373l-469 723h51l424 -664l33 -55h8l457 719h49l-471 -723h366z" glyph-name="yen" horiz-adv-x="1171" unicode="¥"/><glyph d="M229 -311h-45v1689h45v-1689z" glyph-name="brokenbar" horiz-adv-x="413" unicode="¦"/><glyph d="M537 -371q197 0 294 80t97 198t-77 188.5t-275 144.5t-256 122t-58 119q0 102 88 154q-240 109 -239 307q0 139 112.5 226t325.5 87q125 0 228.5 -31.5t144.5 -62.5l39 -31l-27 -36q-14 14 -42 33.5t-127 53t-216 33.5q-193 0 -293 -75.5t-100 -190.5t81 -190.5 t255 -134.5t249.5 -120t75.5 -145t-76 -147q129 -63 180.5 -132t51.5 -173q0 -135 -106.5 -226.5t-329.5 -91.5q-133 0 -245 38t-157 75l-43 37l27 35q16 -16 46 -40t138.5 -64t233.5 -40zM307 474q0 -48 54.5 -90t188.5 -93t150 -60q72 51 72 138q0 61 -68.5 112.5 t-226.5 104.5q-29 8 -82 28q-88 -33 -88 -140z" glyph-name="section" horiz-adv-x="1067" unicode="§"/><glyph d="M170 989.5q0 22.5 16.5 38.5t39 16t39 -16t16.5 -38.5t-16.5 -39t-39 -16.5t-39 16.5t-16.5 39zM524 989.5q0 22.5 16.5 38.5t39 16t39 -16t16.5 -38.5t-16.5 -39t-39 -16.5t-39 16.5t-16.5 39z" glyph-name="dieresis" horiz-adv-x="825" unicode="¨"/><glyph d="M746 1229q288 0 461 -177.5t173 -439.5t-173 -439t-461 -177t-460.5 177t-172.5 439t172.5 439.5t460.5 177.5zM746 1188q-267 0 -427.5 -165t-160.5 -410.5t160.5 -410.5t427.5 -165t428 165t161 410.5t-161 410.5t-428 165zM455 614q0 -125 81.5 -210t219.5 -85 q57 0 107 16.5t71 33.5l22 16l25 -31q-28 -28 -92 -51.5t-133 -23.5q-158 0 -252 96t-94 238t94 239.5t252 97.5q72 0 128 -19.5t77 -37.5l20 -21l-27 -30q-59 68 -197 68t-220 -85.5t-82 -210.5z" glyph-name="copyright" horiz-adv-x="1492" unicode="©"/><glyph d="M98 760q0 98 79 154.5t224 56.5q205 0 273 -101v60q0 143 -57.5 215t-186.5 72t-225 -37l-31 -15l-16 39q120 53 272 53t220.5 -82.5t68.5 -244.5v-369h-29l-8 105h-8q-66 -121 -293 -121q-129 0 -206 58.5t-77 156.5zM143 759q0 -81 67.5 -128t189.5 -47t197 54t75 128 t-68.5 120t-193.5 46t-196 -46t-71 -127z" glyph-name="ordfeminine" horiz-adv-x="858" unicode="ª"/><glyph d="M365 688v-14l-218 -318v-6l218 -321v-15h-43l-218 320v35l218 319h43zM657 688v-14l-217 -318v-6l217 -321v-15h-43l-217 320v35l217 319h43z" glyph-name="guillemotleft" horiz-adv-x="765" unicode="«"/><glyph d="M74 670v41h837v-711h-41v670h-796z" glyph-name="logicalnot" horiz-adv-x="1101" unicode="¬"/><glyph d="M1069 779q0 -200 -132 -336t-350 -136t-349.5 136.5t-131.5 336.5t131.5 335.5t349.5 135.5t350 -136t132 -336zM1024 779q0 183 -120 307t-318 124t-316 -123t-118 -307t118.5 -308t316.5 -124t317.5 124t119.5 307zM410 993h182q84 0 135 -39t51 -108q0 -100 -94 -135 l96 -117v-14h-41l-98 120q-18 -4 -55 -4h-131v-116h-45v413zM592 952h-137v-215h131q147 -1 147 107t-141 108z" glyph-name="registered" horiz-adv-x="1175" unicode="®"/><glyph d="M274 918v38h512v-38h-512z" glyph-name="macron" horiz-adv-x="1048" unicode="¯"/><glyph d="M339.5 1376q106.5 0 172.5 -63.5t66 -157.5t-66 -156.5t-172.5 -62.5t-172 62.5t-65.5 156.5t65.5 157.5t172 63.5zM340 1335q-88 0 -142.5 -52t-54.5 -128t54.5 -127t142.5 -51t142.5 51t54.5 127t-54.5 128t-142.5 52z" glyph-name="degree" horiz-adv-x="679" unicode="°"/><glyph d="M616 315h-41v394h-413v41h413v397h41v-397h404v-41h-404v-394zM1020 154v-41h-858v41h858z" glyph-name="plusminus" horiz-adv-x="1181" unicode="±"/><glyph d="M308 1386q245 0 245 -212q0 -102 -115 -193l-299 -240h455v-41h-535v29l355 285q98 80 98 172q0 160 -201 160q-55 0 -107 -17.5t-77 -36.5l-25 -18l-22 31q102 81 228 81z" glyph-name="uni00B2" horiz-adv-x="657" unicode="²"/><glyph d="M88 1327v41h465v-20l-193 -258q104 -4 165 -55.5t61 -141.5t-67.5 -149.5t-192.5 -59.5q-70 0 -134.5 23.5t-93.5 46.5l-30 24l28 29q90 -82 212 -82t179.5 47t57.5 121t-51.5 115t-141.5 41h-59v20l194 258h-399z" glyph-name="uni00B3" horiz-adv-x="651" unicode="³"/><glyph d="M135 858v14l115 310h65v-15l-155 -309h-25z" glyph-name="acute" horiz-adv-x="505" unicode="´"/><glyph d="M217 -393h-41v1102h41v-387q0 -135 66.5 -217t202.5 -82t210 82.5t74 168.5v435h41v-709h-31l-10 145h-2q-6 -19 -66 -90t-234 -71q-175 0 -251 145v-522z" glyph-name="uni00B5" horiz-adv-x="1001" unicode="µ"/><glyph d="M760 -393v620h-213q-229 0 -353 102.5t-124 302.5t122.5 300t354.5 100h256v-1425h-43z" glyph-name="paragraph" horiz-adv-x="1011" unicode="¶"/><glyph d="M45 739.5q0 22.5 16.5 39t39 16.5t39 -16.5t16.5 -39t-16.5 -39t-39 -16.5t-39 16.5t-16.5 39z" glyph-name="periodcentered" horiz-adv-x="204" unicode="·"/><glyph d="M358 -188q0 -59 -41 -96.5t-112 -37.5t-109 35l-12 11l16 34q42 -41 100 -41q116 0 115 95q0 41 -29.5 64.5t-76.5 23.5l-35 -6l-18 26l47 82h47l-37 -63q145 0 145 -127z" glyph-name="cedilla" horiz-adv-x="442" unicode="¸"/><glyph d="M45 1327v41h205v-668h-43v627h-162z" glyph-name="uni00B9" horiz-adv-x="370" unicode="¹"/><glyph d="M452 1255q155 0 253 -96t98 -255t-98.5 -254t-252.5 -95t-253 96.5t-99 254.5t98.5 253.5t253.5 95.5zM452 1214q-136 0 -221.5 -83t-85.5 -225t85.5 -226t221.5 -84t221 84t85 225t-85 225t-221 84z" glyph-name="ordmasculine" horiz-adv-x="903" unicode="º"/><glyph d="M109 14v15l217 321v6l-217 318v14h43l217 -319v-35l-217 -320h-43zM401 14v15l217 321v6l-217 318v14h43l218 -319v-35l-218 -320h-43z" glyph-name="guillemotright" horiz-adv-x="765" unicode="»"/><glyph d="M668 207v24l381 437h30v-420h115v-41h-115v-207h-41v207h-370zM154 31l-33 24l960 1155l33 -24zM1038 248v344h-4l-303 -344v-6l133 6h174zM86 1188v41h205v-668h-43v627h-162z" glyph-name="onequarter" horiz-adv-x="1277" unicode="¼"/><glyph d="M1300 485q0 160 -200 160q-125 0 -209 -72l-23 31l27 21q27 20 84 40.5t121 20.5q123 0 182 -55t59 -157t-114 -193l-299 -240h454v-41h-534v29l354 284q98 80 98 172zM145 31l-32 24l960 1155l33 -24zM90 1188v41h205v-668h-43v627h-162z" glyph-name="onehalf" horiz-adv-x="1462" unicode="½"/><glyph d="M903 207v24l381 437h31v-420h115v-41h-115v-207h-41v207h-371zM119 1188v41h465v-21l-193 -258q104 -4 164.5 -55t60.5 -141t-67.5 -149.5t-192.5 -59.5q-70 0 -134 23.5t-95 45.5l-29 25l29 29q89 -82 211 -82t179.5 47t57.5 120.5t-51 114.5t-141 41h-59v21l194 258 h-399zM393 31l-33 24l961 1155l33 -24zM1274 248v344h-4l-303 -344v-6l133 6h174z" glyph-name="threequarters" horiz-adv-x="1515" unicode="¾"/><glyph d="M381 -16q-127 0 -203 71.5t-76 196.5t75 208t151 164t80 240l2 92h39v-100q0 -154 -75 -240t-151 -165.5t-76 -208.5q0 -94 63.5 -155.5t157.5 -61.5t158 18t88 35l27 18l18 -37q-34 -27 -115 -51t-163 -24zM481 1200.5q0 -22.5 -16 -39t-39 -16.5t-39 16.5t-16 39 t16 38.5t39 16t39 -16t16 -38.5z" glyph-name="questiondown" horiz-adv-x="749" unicode="¿"/><glyph d="M446 1630h66l115 -309v-14h-25l-156 309v14zM27 0l579 1229h19l579 -1229h-49l-137 289h-807l-137 -289h-47zM997 330l-379 813h-8l-381 -813h768z" glyph-name="Agrave" horiz-adv-x="1230" unicode="À"/><glyph d="M604 1307v14l115 309h65v-14l-155 -309h-25zM27 0l579 1229h19l579 -1229h-49l-137 289h-807l-137 -289h-47zM997 330l-379 813h-8l-381 -813h768z" glyph-name="Aacute" horiz-adv-x="1230" unicode="Á"/><glyph d="M336 1307v14l250 309h59l250 -309v-14h-25l-254 260l-256 -260h-24zM27 0l579 1229h19l579 -1229h-49l-137 289h-807l-137 -289h-47zM997 330l-379 813h-8l-381 -813h768z" glyph-name="Acircumflex" horiz-adv-x="1230" unicode="Â"/><glyph d="M27 0l579 1229h19l579 -1229h-49l-137 289h-807l-137 -289h-47zM997 330l-379 813h-8l-381 -813h768zM750 1354q-55 0 -143.5 56t-130.5 56t-61.5 -22.5t-31.5 -63.5l-6 -22l-31 4l6 31q23 113 127 112q53 0 140.5 -56t131.5 -56t63.5 22.5t31.5 63.5l6 22l31 -4l-6 -31 q-23 -112 -127 -112z" glyph-name="Atilde" horiz-adv-x="1230" unicode="Ã"/><glyph d="M383 1443.5q0 22.5 16.5 39t39 16.5t39 -16.5t16.5 -39t-16.5 -38.5t-39 -16t-39 16t-16.5 38.5zM737 1443.5q0 22.5 16.5 39t39 16.5t39 -16.5t16.5 -39t-16.5 -38.5t-39 -16t-39 16t-16.5 38.5zM27 0l579 1229h19l579 -1229h-49l-137 289h-807l-137 -289h-47zM997 330 l-379 813h-8l-381 -813h768z" glyph-name="Adieresis" horiz-adv-x="1230" unicode="Ä"/><glyph d="M614.5 1249q-69.5 0 -116.5 47t-47 117t47 117t116.5 47t116.5 -47t47 -117t-47 -117t-116.5 -47zM739 1413q0 57 -33.5 91t-91 34t-91.5 -34t-34 -91t34 -91t91.5 -34t91 34t33.5 91zM27 0l579 1229h19l579 -1229h-49l-137 289h-807l-137 -289h-47zM997 330l-379 813h-8 l-381 -813h768z" glyph-name="Aring" horiz-adv-x="1230" unicode="Å"/><glyph d="M1749 1229v-41h-809v-559h709v-41h-709v-547h809v-41h-852v289h-647l-213 -289h-47l907 1229h852zM897 330v813h-12l-604 -813h616z" glyph-name="AE" horiz-adv-x="1835" unicode="Æ"/><glyph d="M874 -188q0 -59 -40.5 -96.5t-112.5 -37.5t-109 35l-12 11l16 34q42 -41 100 -41q116 0 115 95q0 41 -29.5 64.5t-76.5 23.5l-35 -6l-18 26l28 53q-258 12 -427 192.5t-169 450.5t179.5 454.5t451.5 184.5q123 0 227.5 -40.5t147.5 -81.5l43 -41l-25 -33l-52 52 q-52 52 -159.5 77.5t-181.5 25.5q-256 0 -422 -177t-166 -425t166 -424t422 -176q117 0 215.5 41t139.5 82l38 39l25 -33q-6 -6 -34.5 -35.5t-124.5 -80t-246 -54.5l-19 -32q145 0 145 -127z" glyph-name="Ccedilla" horiz-adv-x="1226" unicode="Ç"/><glyph d="M467 1628h65l115 -309v-14h-24l-156 309v14zM954 629v-41h-708v-547h809v-41h-852v1229h852v-41h-809v-559h708z" glyph-name="Egrave" horiz-adv-x="1140" unicode="È"/><glyph d="M590 1307v14l115 309h65v-14l-156 -309h-24zM954 629v-41h-708v-547h809v-41h-852v1229h852v-41h-809v-559h708z" glyph-name="Eacute" horiz-adv-x="1140" unicode="É"/><glyph d="M954 629v-41h-708v-547h809v-41h-852v1229h852v-41h-809v-559h708zM371 1307v14l250 309h59l250 -309v-14h-25l-254 260l-256 -260h-24z" glyph-name="Ecircumflex" horiz-adv-x="1140" unicode="Ê"/><glyph d="M414 1443.5q0 22.5 16 39t39 16.5t39 -16.5t16 -39t-16 -38.5t-39 -16t-39 16t-16 38.5zM768 1443.5q0 22.5 16.5 39t39 16.5t39 -16.5t16.5 -39t-16.5 -38.5t-39 -16t-39 16t-16.5 38.5zM954 629v-41h-708v-547h809v-41h-852v1229h852v-41h-809v-559h708z" glyph-name="Edieresis" horiz-adv-x="1140" unicode="Ë"/><glyph d="M53 1628h66l114 -309v-14h-24l-156 309v14zM246 1229v-1229h-43v1229h43z" glyph-name="Igrave" horiz-adv-x="448" unicode="Ì"/><glyph d="M211 1307v14l115 309h65v-14l-155 -309h-25zM246 1229v-1229h-43v1229h43z" glyph-name="Iacute" horiz-adv-x="448" unicode="Í"/><glyph d="M-55 1307v14l250 309h59l250 -309v-14h-25l-254 260l-256 -260h-24zM246 1235v-1229h-43v1229h43z" glyph-name="Icircumflex" horiz-adv-x="448" unicode="Î"/><glyph d="M-8 1443.5q0 22.5 16.5 39t39 16.5t38.5 -16.5t16 -39t-16 -38.5t-38.5 -16t-39 16t-16.5 38.5zM346 1443.5q0 22.5 16.5 39t39 16.5t39 -16.5t16.5 -39t-16.5 -38.5t-39 -16t-39 16t-16.5 38.5zM246 1229v-1229h-43v1229h43z" glyph-name="Idieresis" horiz-adv-x="448" unicode="Ï"/><glyph d="M55 592v41h164v596h371q289 0 474 -164t185 -450.5t-185 -450.5t-474 -164h-371v592h-164zM592 1188h-330v-555h322v-41h-322v-551h330q266 0 440 155.5t174 418t-175 418t-439 155.5z" glyph-name="Eth" horiz-adv-x="1359" unicode="Ð"/><glyph d="M1221 1229v-1229h-19l-956 1130v-1130h-43v1229h18l957 -1129v1129h43zM848 1384q-55 0 -143.5 56.5t-130.5 56.5t-61 -22.5t-32 -63.5l-6 -22l-31 4l7 30q23 113 127 113q53 0 140 -56.5t131 -56.5t63.5 22.5t31.5 63.5l6 23l31 -4l-6 -31q-23 -113 -127 -113z" glyph-name="Ntilde" horiz-adv-x="1423" unicode="Ñ"/><glyph d="M555 1630h66l114 -309v-14h-24l-156 309v14zM727.5 -29q-276.5 0 -449 181.5t-172.5 459.5t171.5 460.5t450 182.5t449.5 -182.5t171 -460.5t-172 -459.5t-448.5 -181.5zM727 12q266 0 422 174t156 426t-155 427t-423 175t-422.5 -175t-154.5 -427t155.5 -426t421.5 -174 z" glyph-name="Ograve" horiz-adv-x="1454" unicode="Ò"/><glyph d="M717 1307v14l114 309h66v-14l-156 -309h-24zM727.5 -29q-276.5 0 -449 181.5t-172.5 459.5t171.5 460.5t450 182.5t449.5 -182.5t171 -460.5t-172 -459.5t-448.5 -181.5zM727 12q266 0 422 174t156 426t-155 427t-423 175t-422.5 -175t-154.5 -427t155.5 -426t421.5 -174 z" glyph-name="Oacute" horiz-adv-x="1454" unicode="Ó"/><glyph d="M449 1307v14l249 309h60l250 -309v-14h-25l-254 260l-256 -260h-24zM727.5 -29q-276.5 0 -449 181.5t-172.5 459.5t171.5 460.5t450 182.5t449.5 -182.5t171 -460.5t-172 -459.5t-448.5 -181.5zM727 12q266 0 422 174t156 426t-155 427t-423 175t-422.5 -175t-154.5 -427 t155.5 -426t421.5 -174z" glyph-name="Ocircumflex" horiz-adv-x="1454" unicode="Ô"/><glyph d="M727.5 -29q-276.5 0 -449 181.5t-172.5 459.5t171.5 460.5t450 182.5t449.5 -182.5t171 -460.5t-172 -459.5t-448.5 -181.5zM727 12q266 0 422 174t156 426t-155 427t-423 175t-422.5 -175t-154.5 -427t155.5 -426t421.5 -174zM862 1382q-55 0 -143 56.5t-130 56.5 t-61.5 -22.5t-31.5 -63.5l-7 -23l-30 5l6 30q23 113 127 113q53 0 140 -56.5t131 -56.5t63.5 22.5t31.5 63.5l7 23l30 -4l-6 -31q-23 -113 -127 -113z" glyph-name="Otilde" horiz-adv-x="1454" unicode="Õ"/><glyph d="M498 1441.5q0 22.5 16 39t38.5 16.5t39 -16.5t16.5 -39t-16.5 -39t-39 -16.5t-38.5 16.5t-16 39zM852 1441.5q0 22.5 16.5 39t39 16.5t39 -16.5t16.5 -39t-16.5 -39t-39 -16.5t-39 16.5t-16.5 39zM727.5 -29q-276.5 0 -449 181.5t-172.5 459.5t171.5 460.5t450 182.5 t449.5 -182.5t171 -460.5t-172 -459.5t-448.5 -181.5zM727 12q266 0 422 174t156 426t-155 427t-423 175t-422.5 -175t-154.5 -427t155.5 -426t421.5 -174z" glyph-name="Odieresis" horiz-adv-x="1454" unicode="Ö"/><glyph d="M182 244l-28 28l348 349l-348 350l28 28l348 -350l351 350l28 -28l-350 -350l350 -349l-28 -28l-351 348z" glyph-name="multiply" horiz-adv-x="1062" unicode="×"/><glyph d="M728 -29q-275 0 -447 179l-129 -127l-33 32l131 129q-144 172 -144 440t171.5 449.5t443.5 181.5t446 -174l117 115l33 -33l-119 -116q150 -173 150 -443t-172.5 -451.5t-447.5 -181.5zM730 12q263 0 419 174t156 420t-138 412l-856 -840q156 -166 419 -166zM150 622 q0 -242 131 -409l856 840q-158 161 -418 161t-414.5 -175t-154.5 -417z" glyph-name="Oslash" horiz-adv-x="1452" unicode="Ø"/><glyph d="M514 1630h66l114 -309v-14h-24l-156 309v14zM669.5 -27q-231.5 0 -358.5 142.5t-127 388.5v725h43v-725q0 -227 114 -358.5t329 -131.5t328.5 131t113.5 359v725h43v-725q0 -246 -127 -388.5t-358.5 -142.5z" glyph-name="Ugrave" horiz-adv-x="1339" unicode="Ù"/><glyph d="M662 1307v14l114 309h66v-14l-156 -309h-24zM669.5 -27q-231.5 0 -358.5 142.5t-127 388.5v725h43v-725q0 -227 114 -358.5t329 -131.5t328.5 131t113.5 359v725h43v-725q0 -246 -127 -388.5t-358.5 -142.5z" glyph-name="Uacute" horiz-adv-x="1339" unicode="Ú"/><glyph d="M393 1307v14l250 309h59l250 -309v-14h-24l-254 260l-256 -260h-25zM669.5 -27q-231.5 0 -358.5 142.5t-127 388.5v725h43v-725q0 -227 114 -358.5t329 -131.5t328.5 131t113.5 359v725h43v-725q0 -246 -127 -388.5t-358.5 -142.5z" glyph-name="Ucircumflex" horiz-adv-x="1339" unicode="Û"/><glyph d="M442 1445.5q0 22.5 16.5 39t39 16.5t39 -16.5t16.5 -39t-16.5 -38.5t-39 -16t-39 16t-16.5 38.5zM797 1445.5q0 22.5 16 39t38.5 16.5t39 -16.5t16.5 -39t-16.5 -38.5t-39 -16t-38.5 16t-16 38.5zM669.5 -27q-231.5 0 -358.5 142.5t-127 388.5v725h43v-725 q0 -227 114 -358.5t329 -131.5t328.5 131t113.5 359v725h43v-725q0 -246 -127 -388.5t-358.5 -142.5z" glyph-name="Udieresis" horiz-adv-x="1339" unicode="Ü"/><glyph d="M524 1307v14l115 309h66v-14l-156 -309h-25zM561 0h-43v475l-489 754h51l424 -664l33 -55h8l456 719h50l-490 -754v-475z" glyph-name="Yacute" horiz-adv-x="1079" unicode="Ý"/><glyph d="M246 1229v-213h409q231 0 354.5 -100.5t123.5 -300.5t-124 -302t-354 -102h-409v-211h-43v1229h43zM1090 615q0 183 -115 271.5t-318 88.5h-411v-723h411q203 0 318 90t115 273z" glyph-name="Thorn" horiz-adv-x="1206" unicode="Þ"/><glyph d="M186 672v-672h-41v979q0 313 267 313q69 0 127 -35l-19 -34q-51 31 -108 30q-115 0 -170.5 -65.5t-55.5 -208.5v-268h602v-15l-323 -336h27q143 0 236 -72.5t93 -206.5t-84.5 -215t-216.5 -81t-213 33l-28 10l14 35q101 -39 217 -39t192 72.5t76 184.5t-78.5 176.5 t-205.5 64.5h-84v38l299 312h-523z" glyph-name="germandbls" horiz-adv-x="897" unicode="ß"/><glyph d="M70 206q0 93 75.5 152.5t221.5 59.5q207 0 311 -105h10v86q0 287 -287 287q-66 0 -125 -15.5t-83 -29.5l-27 -14l-19 35q89 63 259 63t246.5 -90t76.5 -240v-395h-31l-10 115h-4q-54 -82 -154 -106.5t-163 -24.5q-145 0 -221 64.5t-76 157.5zM111 206q0 -81 66.5 -132 t196.5 -51t221 59t91 129t-94 120t-221 50t-193.5 -47t-66.5 -128zM229 1182h66l115 -310v-14h-25l-156 309v15z" glyph-name="agrave" horiz-adv-x="862" unicode="à"/><glyph d="M70 206q0 93 75.5 152.5t221.5 59.5q207 0 311 -105h10v86q0 287 -287 287q-66 0 -125 -15.5t-83 -29.5l-27 -14l-19 35q89 63 259 63t246.5 -90t76.5 -240v-395h-31l-10 115h-4q-54 -82 -154 -106.5t-163 -24.5q-145 0 -221 64.5t-76 157.5zM111 206q0 -81 66.5 -132 t196.5 -51t221 59t91 129t-94 120t-221 50t-193.5 -47t-66.5 -128zM399 858v14l115 310h66v-15l-156 -309h-25z" glyph-name="aacute" horiz-adv-x="862" unicode="á"/><glyph d="M70 206q0 93 75.5 152.5t221.5 59.5q207 0 311 -105h10v86q0 287 -287 287q-66 0 -125 -15.5t-83 -29.5l-27 -14l-19 35q89 63 259 63t246.5 -90t76.5 -240v-395h-31l-10 115h-4q-54 -82 -154 -106.5t-163 -24.5q-145 0 -221 64.5t-76 157.5zM111 206q0 -81 66.5 -132 t196.5 -51t221 59t91 129t-94 120t-221 50t-193.5 -47t-66.5 -128zM141 858v14l250 310h60l249 -310v-14h-24l-254 260l-256 -260h-25z" glyph-name="acircumflex" horiz-adv-x="862" unicode="â"/><glyph d="M70 206q0 93 75.5 152.5t221.5 59.5q207 0 311 -105h10v86q0 287 -287 287q-66 0 -125 -15.5t-83 -29.5l-27 -14l-19 35q89 63 259 63t246.5 -90t76.5 -240v-395h-31l-10 115h-4q-54 -82 -154 -106.5t-163 -24.5q-145 0 -221 64.5t-76 157.5zM111 206q0 -81 66.5 -132 t196.5 -51t221 59t91 129t-94 120t-221 50t-193.5 -47t-66.5 -128zM557 932q-55 0 -143 56t-130 56t-61.5 -22.5t-32.5 -63.5l-6 -22l-30 4l6 31q23 113 127 112q53 0 140 -56t131 -56t63.5 22.5t31.5 63.5l6 22l31 -4l-6 -31q-23 -112 -127 -112z" glyph-name="atilde" horiz-adv-x="862" unicode="ã"/><glyph d="M70 206q0 93 75.5 152.5t221.5 59.5q207 0 311 -105h10v86q0 287 -287 287q-66 0 -125 -15.5t-83 -29.5l-27 -14l-19 35q89 63 259 63t246.5 -90t76.5 -240v-395h-31l-10 115h-4q-54 -82 -154 -106.5t-163 -24.5q-145 0 -221 64.5t-76 157.5zM111 206q0 -81 66.5 -132 t196.5 -51t221 59t91 129t-94 120t-221 50t-193.5 -47t-66.5 -128zM184 989.5q0 22.5 16.5 38.5t39 16t39 -16t16.5 -38.5t-16.5 -39t-39 -16.5t-39 16.5t-16.5 39zM539 989.5q0 22.5 16 38.5t38.5 16t39 -16t16.5 -38.5t-16.5 -39t-39 -16.5t-38.5 16.5t-16 39z" glyph-name="adieresis" horiz-adv-x="862" unicode="ä"/><glyph d="M70 206q0 93 75.5 152.5t221.5 59.5q207 0 311 -105h10v86q0 287 -287 287q-66 0 -125 -15.5t-83 -29.5l-27 -14l-19 35q89 63 259 63t246.5 -90t76.5 -240v-395h-31l-10 115h-4q-54 -82 -154 -106.5t-163 -24.5q-145 0 -221 64.5t-76 157.5zM111 206q0 -81 66.5 -132 t196.5 -51t221 59t91 129t-94 120t-221 50t-193.5 -47t-66.5 -128zM411.5 903q-71.5 0 -117.5 46t-46 118t46 118t117.5 46t117.5 -46t46 -118t-46 -118t-117.5 -46zM537 1067q0 57 -34 91t-91.5 34t-91 -34t-33.5 -91t33.5 -91t91 -34t91.5 34t34 91z" glyph-name="aring" horiz-adv-x="862" unicode="å"/><glyph d="M366 -16q-144 0 -220 64.5t-76 157.5t75.5 152.5t221.5 59.5q207 0 311 -105h10v86q0 287 -287 287q-66 0 -125 -15.5t-83 -29.5l-27 -14l-19 35q90 63 263 63q258 0 307 -223q39 106 124 164.5t197 58.5q164 0 254 -92t90 -250v-12h-645v-21q0 -150 99.5 -238.5 t238.5 -88.5q70 0 130.5 17t86.5 36l27 18l18 -35q-98 -76 -262 -75q-117 0 -210 54t-138 152q-31 -90 -124 -148t-237 -58zM111 206q0 -81 66.5 -132t196.5 -51t221 59t91 129t-94 120t-221 50t-193.5 -47t-66.5 -128zM1051 686q-128 0 -210.5 -72.5t-99.5 -203.5h598 q-4 117 -82 196.5t-206 79.5z" glyph-name="ae" horiz-adv-x="1458" unicode="æ"/><glyph d="M459 -16h-4l-27 -45q145 0 145 -127q0 -59 -40.5 -96.5t-112.5 -37.5t-109 35l-12 11l16 34q41 -41 99 -41q116 0 116 95q0 41 -29.5 64.5t-76.5 23.5l-35 -6l-18 26l37 68q-139 14 -229.5 112t-90.5 258t106.5 263.5t264.5 103.5q66 0 123 -16.5t82 -32.5l26 -14 l-16 -35q-84 59 -216 59t-229.5 -93t-97.5 -242.5t96.5 -238.5t231.5 -89q57 0 111.5 14t78.5 29l25 16l16 -35q-86 -63 -231 -63z" glyph-name="ccedilla" horiz-adv-x="753" unicode="ç"/><glyph d="M90 354q0 170 98 270.5t254 100.5t246 -92t90 -250v-12h-645v-21q0 -150 99.5 -238.5t238.5 -88.5q70 0 130.5 17t86.5 36l27 18l18 -35q-98 -75 -261 -75t-272.5 100t-109.5 270zM447 686q-128 0 -210.5 -72.5t-99.5 -203.5h598q-4 117 -82 196.5t-206 79.5zM268 1182 h66l115 -310v-14h-25l-156 309v15z" glyph-name="egrave" horiz-adv-x="854" unicode="è"/><glyph d="M90 354q0 170 98 270.5t254 100.5t246 -92t90 -250v-12h-645v-21q0 -150 99.5 -238.5t238.5 -88.5q70 0 130.5 17t86.5 36l27 18l18 -35q-98 -75 -261 -75t-272.5 100t-109.5 270zM447 686q-128 0 -210.5 -72.5t-99.5 -203.5h598q-4 117 -82 196.5t-206 79.5zM434 858v14 l115 310h65v-15l-155 -309h-25z" glyph-name="eacute" horiz-adv-x="854" unicode="é"/><glyph d="M90 354q0 170 98 270.5t254 100.5t246 -92t90 -250v-12h-645v-21q0 -150 99.5 -238.5t238.5 -88.5q70 0 130.5 17t86.5 36l27 18l18 -35q-98 -75 -261 -75t-272.5 100t-109.5 270zM447 686q-128 0 -210.5 -72.5t-99.5 -203.5h598q-4 117 -82 196.5t-206 79.5zM166 858v14 l250 310h59l250 -310v-14h-25l-254 260l-256 -260h-24z" glyph-name="ecircumflex" horiz-adv-x="854" unicode="ê"/><glyph d="M90 354q0 170 98 270.5t254 100.5t246 -92t90 -250v-12h-645v-21q0 -150 99.5 -238.5t238.5 -88.5q70 0 130.5 17t86.5 36l27 18l18 -35q-98 -75 -261 -75t-272.5 100t-109.5 270zM447 686q-128 0 -210.5 -72.5t-99.5 -203.5h598q-4 117 -82 196.5t-206 79.5zM213 989.5 q0 22.5 16.5 38.5t39 16t39 -16t16.5 -38.5t-16.5 -39t-39 -16.5t-39 16.5t-16.5 39zM567 989.5q0 22.5 16.5 38.5t39 16t39 -16t16.5 -38.5t-16.5 -39t-39 -16.5t-39 16.5t-16.5 39z" glyph-name="edieresis" horiz-adv-x="854" unicode="ë"/><glyph d="M154 0v709h41v-709h-41zM2 1182h66l114 -310v-14h-24l-156 309v15z" glyph-name="igrave" horiz-adv-x="348" unicode="ì"/><glyph d="M154 0v709h41v-709h-41zM162 858v14l114 310h66v-15l-156 -309h-24z" glyph-name="iacute" horiz-adv-x="348" unicode="í"/><glyph d="M154 0v709h41v-709h-41zM-104 858v14l249 310h60l250 -310v-14h-25l-254 260l-256 -260h-24z" glyph-name="icircumflex" horiz-adv-x="348" unicode="î"/><glyph d="M154 0v709h41v-709h-41zM-55 989.5q0 22.5 16 38.5t39 16t39 -16t16 -38.5t-16 -39t-39 -16.5t-39 16.5t-16 39zM299 989.5q0 22.5 16.5 38.5t39 16t39 -16t16.5 -38.5t-16.5 -39t-39 -16.5t-39 16.5t-16.5 39z" glyph-name="idieresis" horiz-adv-x="348" unicode="ï"/><glyph d="M354 1229h41l127 -187l223 129l21 -34l-221 -127l241 -351q35 -51 72 -116.5t37 -192.5q0 -168 -112.5 -271.5t-291 -103.5t-291 103.5t-112.5 266.5t111.5 268.5t278.5 105.5t270 -82v6q-14 20 -33 47l-207 297l-264 -151l-21 34l262 152l-131 192v15zM491.5 14 q153.5 0 257 96t103.5 244t-106 237t-256 89t-254.5 -95.5t-104.5 -237.5t103.5 -237.5t257 -95.5z" glyph-name="eth" horiz-adv-x="983" unicode="ð"/><glyph d="M145 0v709h31l10 -146h2q6 19 34 51.5t81.5 71.5t187.5 39q133 0 216.5 -92t83.5 -242v-391h-41v387q0 133 -71 216t-207 83t-209 -80t-77 -166v-440h-41zM610 932q-55 0 -143 56t-130 56t-61.5 -22.5t-31.5 -63.5l-6 -22l-31 4l6 31q23 113 127 112q53 0 140 -56 t131 -56t63.5 22.5t32.5 63.5l6 22l30 -4l-6 -31q-23 -112 -127 -112z" glyph-name="ntilde" horiz-adv-x="923" unicode="ñ"/><glyph d="M829 351q0 -167 -106.5 -267t-264 -100t-264 100t-106.5 267t106.5 270.5t264 103.5t264 -103.5t106.5 -270.5zM459 23q135 0 231 89t96 238.5t-97 242.5t-230 93t-230.5 -93t-97.5 -242.5t96.5 -238.5t231.5 -89zM293 1182h65l115 -310v-14h-24l-156 309v15z" glyph-name="ograve" horiz-adv-x="917" unicode="ò"/><glyph d="M829 351q0 -167 -106.5 -267t-264 -100t-264 100t-106.5 267t106.5 270.5t264 103.5t264 -103.5t106.5 -270.5zM459 23q135 0 231 89t96 238.5t-97 242.5t-230 93t-230.5 -93t-97.5 -242.5t96.5 -238.5t231.5 -89zM453 858v14l114 310h66v-15l-156 -309h-24z" glyph-name="oacute" horiz-adv-x="917" unicode="ó"/><glyph d="M829 351q0 -167 -106.5 -267t-264 -100t-264 100t-106.5 267t106.5 270.5t264 103.5t264 -103.5t106.5 -270.5zM459 23q135 0 231 89t96 238.5t-97 242.5t-230 93t-230.5 -93t-97.5 -242.5t96.5 -238.5t231.5 -89zM182 858v14l250 310h60l249 -310v-14h-24l-254 260 l-256 -260h-25z" glyph-name="ocircumflex" horiz-adv-x="917" unicode="ô"/><glyph d="M829 351q0 -167 -106.5 -267t-264 -100t-264 100t-106.5 267t106.5 270.5t264 103.5t264 -103.5t106.5 -270.5zM459 23q135 0 231 89t96 238.5t-97 242.5t-230 93t-230.5 -93t-97.5 -242.5t96.5 -238.5t231.5 -89zM592 932q-55 0 -143.5 56t-130.5 56t-61 -22.5 t-32 -63.5l-6 -22l-31 4l7 31q23 113 127 112q53 0 140 -56t131 -56t63.5 22.5t31.5 63.5l6 22l31 -4l-6 -31q-23 -112 -127 -112z" glyph-name="otilde" horiz-adv-x="917" unicode="õ"/><glyph d="M829 351q0 -167 -106.5 -267t-264 -100t-264 100t-106.5 267t106.5 270.5t264 103.5t264 -103.5t106.5 -270.5zM459 23q135 0 231 89t96 238.5t-97 242.5t-230 93t-230.5 -93t-97.5 -242.5t96.5 -238.5t231.5 -89zM225 989.5q0 22.5 16.5 38.5t39 16t39 -16t16.5 -38.5 t-16.5 -39t-39 -16.5t-39 16.5t-16.5 39zM580 989.5q0 22.5 16 38.5t38.5 16t39 -16t16.5 -38.5t-16.5 -39t-39 -16.5t-38.5 16.5t-16 39z" glyph-name="odieresis" horiz-adv-x="917" unicode="ö"/><glyph d="M479 358.5q0 22.5 16.5 39t39 16.5t39 -16.5t16.5 -39t-16.5 -39t-39 -16.5t-39 16.5t-16.5 39zM479 870.5q0 22.5 16.5 39t39 16.5t39 -16.5t16.5 -39t-16.5 -39t-39 -16.5t-39 16.5t-16.5 39zM158 586v41h753v-41h-753z" glyph-name="divide" horiz-adv-x="1069" unicode="÷"/><glyph d="M831 344q0 -160 -106.5 -260t-262.5 -100t-257 92l-86 -86l-29 28l84 86q-84 96 -84 255t107 262.5t257 103.5t253 -86l84 84l28 -29l-84 -84q96 -106 96 -266zM461 23q135 0 231 89t96 231t-83 237l-469 -474q90 -83 225 -83zM133 362q0 -138 74 -225l467 469 q-92 80 -219 80t-224.5 -93t-97.5 -231z" glyph-name="oslash" horiz-adv-x="917" unicode="ø"/><glyph d="M727 274v435h41v-709h-31l-10 145h-2q-6 -19 -33.5 -51.5t-81 -71t-187.5 -38.5t-212 92t-78 241v392h41v-387q0 -135 66.5 -217t202.5 -82t210 82.5t74 168.5zM285 1182h65l115 -310v-14h-25l-155 309v15z" glyph-name="ugrave" horiz-adv-x="913" unicode="ù"/><glyph d="M727 274v435h41v-709h-31l-10 145h-2q-6 -19 -33.5 -51.5t-81 -71t-187.5 -38.5t-212 92t-78 241v392h41v-387q0 -135 66.5 -217t202.5 -82t210 82.5t74 168.5zM426 858v14l115 310h65v-15l-155 -309h-25z" glyph-name="uacute" horiz-adv-x="913" unicode="ú"/><glyph d="M727 274v435h41v-709h-31l-10 145h-2q-6 -19 -33.5 -51.5t-81 -71t-187.5 -38.5t-212 92t-78 241v392h41v-387q0 -135 66.5 -217t202.5 -82t210 82.5t74 168.5zM170 858v14l250 310h59l250 -310v-14h-24l-254 260l-256 -260h-25z" glyph-name="ucircumflex" horiz-adv-x="913" unicode="û"/><glyph d="M727 274v435h41v-709h-31l-10 145h-2q-6 -19 -33.5 -51.5t-81 -71t-187.5 -38.5t-212 92t-78 241v392h41v-387q0 -135 66.5 -217t202.5 -82t210 82.5t74 168.5zM215 989.5q0 22.5 16.5 38.5t39 16t39 -16t16.5 -38.5t-16.5 -39t-39 -16.5t-39 16.5t-16.5 39zM569 989.5 q0 22.5 16.5 38.5t39 16t39 -16t16.5 -38.5t-16.5 -39t-39 -16.5t-39 16.5t-16.5 39z" glyph-name="udieresis" horiz-adv-x="913" unicode="ü"/><glyph d="M416 49q0 14 12 39l305 621h43l-538 -1102h-45l198 407l-346 695h49l305 -621q12 -25 13 -39h4zM412 858v14l114 310h66v-15l-156 -309h-24z" glyph-name="yacute" horiz-adv-x="817" unicode="ý"/><glyph d="M186 182v-575h-41v1622h41v-703h2q6 23 37 63t64 66.5t92 48t131 21.5q152 0 256 -103.5t104 -267.5t-104 -267t-251 -103t-224.5 65.5t-95.5 112.5l-9 20h-2zM184 354.5q0 -151.5 96.5 -241.5t231.5 -90t226 93t91 238.5t-91 238.5t-226 93t-231.5 -90t-96.5 -241.5z " glyph-name="thorn" horiz-adv-x="960" unicode="þ"/><glyph d="M416 49q0 14 12 39l305 621h43l-538 -1102h-45l198 407l-346 695h49l305 -621q12 -25 13 -39h4zM184 989.5q0 22.5 16.5 38.5t39 16t39 -16t16.5 -38.5t-16.5 -39t-39 -16.5t-39 16.5t-16.5 39zM539 989.5q0 22.5 16 38.5t38.5 16t39 -16t16.5 -38.5t-16.5 -39t-39 -16.5 t-38.5 16.5t-16 39z" glyph-name="ydieresis" horiz-adv-x="817" unicode="ÿ"/><glyph d="M27 0l579 1229h19l579 -1229h-49l-137 289h-807l-137 -289h-47zM997 330l-379 813h-8l-381 -813h768zM358 1329v39h512v-39h-512z" glyph-name="Amacron" horiz-adv-x="1230" unicode="Ā"/><glyph d="M70 206q0 93 75.5 152.5t221.5 59.5q207 0 311 -105h10v86q0 287 -287 287q-66 0 -125 -15.5t-83 -29.5l-27 -14l-19 35q89 63 259 63t246.5 -90t76.5 -240v-395h-31l-10 115h-4q-54 -82 -154 -106.5t-163 -24.5q-145 0 -221 64.5t-76 157.5zM111 206q0 -81 66.5 -132 t196.5 -51t221 59t91 129t-94 120t-221 50t-193.5 -47t-66.5 -128zM168 918v38h512v-38h-512z" glyph-name="amacron" horiz-adv-x="862" unicode="ā"/><glyph d="M862 1661h43q0 -160 -78.5 -247t-212 -87t-212 87t-78.5 247h43q0 -141 65.5 -217t182 -78t182 76t65.5 219zM27 0l579 1229h19l579 -1229h-49l-137 289h-807l-137 -289h-47zM997 330l-379 813h-8l-381 -813h768z" glyph-name="Abreve" horiz-adv-x="1230" unicode="Ă"/><glyph d="M70 206q0 93 75.5 152.5t221.5 59.5q207 0 311 -105h10v86q0 287 -287 287q-66 0 -125 -15.5t-83 -29.5l-27 -14l-19 35q89 63 259 63t246.5 -90t76.5 -240v-395h-31l-10 115h-4q-54 -82 -154 -106.5t-163 -24.5q-145 0 -221 64.5t-76 157.5zM111 206q0 -81 66.5 -132 t196.5 -51t221 59t91 129t-94 120t-221 50t-193.5 -47t-66.5 -128zM674 1200h43q0 -160 -79 -247t-212 -87t-212 87t-79 247h43q0 -141 65.5 -217t182.5 -78t182.5 76t65.5 219z" glyph-name="abreve" horiz-adv-x="862" unicode="ă"/><glyph d="M1040 -152q0 -82 86 -81q50 0 70 20l10 6l21 -31q-39 -34 -99 -34t-94.5 31.5t-34.5 88.5q0 113 148 170l-129 271h-807l-137 -289h-47l579 1229h19l579 -1229h-12q-16 -6 -42 -16.5t-68 -49t-42 -86.5zM997 330l-379 813h-8l-381 -813h768z" glyph-name="Aogonek" horiz-adv-x="1230" unicode="Ą"/><glyph d="M537 -146q0 62 51 106t108 63l-8 92h-4q-54 -82 -154 -106.5t-163 -24.5q-145 0 -221 64.5t-76 157.5t75.5 152.5t221.5 59.5q207 0 311 -105h10v86q0 287 -287 287q-66 0 -125 -15.5t-83 -29.5l-27 -14l-19 35q89 63 259 63t246.5 -90t76.5 -240v-395h-2 q-58 -17 -103.5 -61.5t-45.5 -90.5q0 -82 86 -81q49 0 69 20l10 6l21 -31q-39 -34 -99 -34t-94 32t-34 94zM111 206q0 -81 66.5 -132t196.5 -51t221 59t91 129t-94 120t-221 50t-193.5 -47t-66.5 -128z" glyph-name="aogonek" horiz-adv-x="864" unicode="ą"/><glyph d="M724 -29q-259 0 -439.5 183.5t-180.5 457.5t179.5 458.5t451.5 184.5q123 0 227.5 -40.5t147.5 -81.5l43 -41l-25 -33l-52 52q-52 52 -159.5 77.5t-181.5 25.5q-256 0 -422 -177t-166 -425t166 -424t422 -176q117 0 215.5 41t139.5 82l38 39l25 -33q-170 -170 -429 -170z M723 1378v15l115 309h65v-14l-155 -310h-25z" glyph-name="Cacute" horiz-adv-x="1226" unicode="Ć"/><glyph d="M452 -16q-152 0 -258 100t-106 267t106.5 270.5t264.5 103.5q66 0 123 -16.5t82 -32.5l26 -14l-16 -35q-84 59 -216 59t-229.5 -93t-97.5 -242.5t96.5 -238.5t231.5 -89q57 0 111.5 14t78.5 29l25 16l16 -35q-86 -63 -238 -63zM453 858v14l114 310h66v-15l-156 -309h-24z " glyph-name="cacute" horiz-adv-x="753" unicode="ć"/><glyph d="M455 1307v14l250 309h59l250 -309v-14h-25l-254 260l-256 -260h-24zM724 -29q-259 0 -439.5 183.5t-180.5 457.5t179.5 458.5t451.5 184.5q123 0 227.5 -40.5t147.5 -81.5l43 -41l-25 -33l-52 52q-52 52 -159.5 77.5t-181.5 25.5q-256 0 -422 -177t-166 -425t166 -424 t422 -176q117 0 215.5 41t139.5 82l38 39l25 -33q-170 -170 -429 -170z" glyph-name="Ccircumflex" horiz-adv-x="1226" unicode="Ĉ"/><glyph d="M452 -16q-152 0 -258 100t-106 267t106.5 270.5t264.5 103.5q66 0 123 -16.5t82 -32.5l26 -14l-16 -35q-84 59 -216 59t-229.5 -93t-97.5 -242.5t96.5 -238.5t231.5 -89q57 0 111.5 14t78.5 29l25 16l16 -35q-86 -63 -238 -63zM174 858v14l250 310h59l250 -310v-14h-24 l-254 260l-256 -260h-25z" glyph-name="ccircumflex" horiz-adv-x="753" unicode="ĉ"/><glyph d="M724 -29q-259 0 -439.5 183.5t-180.5 457.5t179.5 458.5t451.5 184.5q123 0 227.5 -40.5t147.5 -81.5l43 -41l-25 -33l-52 52q-52 52 -159.5 77.5t-181.5 25.5q-256 0 -422 -177t-166 -425t166 -424t422 -176q117 0 215.5 41t139.5 82l38 39l25 -33q-170 -170 -429 -170z M664 1574q0 32 20 52.5t52 20.5t52.5 -20.5t20.5 -52.5t-20.5 -52.5t-52.5 -20.5t-52 20.5t-20 52.5z" glyph-name="Cdotaccent" horiz-adv-x="1226" unicode="Ċ"/><glyph d="M387 1082q0 32 20.5 52.5t52.5 20.5t52 -20.5t20 -52.5t-20 -52t-52 -20t-52.5 20t-20.5 52zM452 -16q-152 0 -258 100t-106 267t106.5 270.5t264.5 103.5q66 0 123 -16.5t82 -32.5l26 -14l-16 -35q-84 59 -216 59t-229.5 -93t-97.5 -242.5t96.5 -238.5t231.5 -89 q57 0 111.5 14t78.5 29l25 16l16 -35q-86 -63 -238 -63z" glyph-name="cdotaccent" horiz-adv-x="753" unicode="ċ"/><glyph d="M1016 1661v-14l-250 -310h-59l-250 310v14h24l256 -260l254 260h25zM724 -29q-259 0 -439.5 183.5t-180.5 457.5t179.5 458.5t451.5 184.5q123 0 227.5 -40.5t147.5 -81.5l43 -41l-25 -33l-52 52q-52 52 -159.5 77.5t-181.5 25.5q-256 0 -422 -177t-166 -425t166 -424 t422 -176q117 0 215.5 41t139.5 82l38 39l25 -33q-170 -170 -429 -170z" glyph-name="Ccaron" horiz-adv-x="1226" unicode="Č"/><glyph d="M733 1182v-15l-250 -309h-59l-250 309v15h25l256 -260l254 260h24zM452 -16q-152 0 -258 100t-106 267t106.5 270.5t264.5 103.5q66 0 123 -16.5t82 -32.5l26 -14l-16 -35q-84 59 -216 59t-229.5 -93t-97.5 -242.5t96.5 -238.5t231.5 -89q57 0 111.5 14t78.5 29l25 16 l16 -35q-86 -63 -238 -63z" glyph-name="ccaron" horiz-adv-x="753" unicode="č"/><glyph d="M926 1661v-14l-250 -310h-60l-249 310v14h24l256 -260l254 260h25zM1233 614.5q0 -286.5 -185.5 -450.5t-474.5 -164h-370v1229h370q289 0 474.5 -164t185.5 -450.5zM575 1188h-329v-1147h329q266 0 440.5 155.5t174.5 418t-175.5 418t-439.5 155.5z" glyph-name="Dcaron" horiz-adv-x="1343" unicode="Ď"/><glyph d="M774 526v842h41v-1368h-31l-10 182h-2q-6 -25 -36.5 -63.5t-63.5 -65t-92.5 -48t-130.5 -21.5q-152 0 -256.5 103t-104.5 267t104.5 267.5t251.5 103.5t224 -65t96 -113l8 -21h2zM776 354.5q0 151.5 -96 241.5t-231.5 90t-226.5 -93t-91 -238.5t91 -238.5t226.5 -93 t231.5 90t96 241.5zM938 1318.5q0 22.5 15 38t39 15.5t40.5 -16.5t16.5 -43t-13 -46.5l-53 -97h-45l39 70l18 23v4h-4q-23 0 -38 15t-15 37.5z" glyph-name="dcaron" horiz-adv-x="960" unicode="ď"/><glyph d="M55 592v41h164v596h371q289 0 474 -164t185 -450.5t-185 -450.5t-474 -164h-371v592h-164zM592 1188h-330v-555h322v-41h-322v-551h330q266 0 440 155.5t174 418t-175 418t-439 155.5z" glyph-name="Dcroat" horiz-adv-x="1359" unicode="Đ"/><glyph d="M436 977v41h338v350h41v-350h103v-41h-103v-977h-31l-10 182h-2q-6 -25 -36.5 -63.5t-63.5 -65t-92.5 -48t-130.5 -21.5q-152 0 -256.5 103t-104.5 267t104.5 267.5t251.5 103.5t224 -65t96 -113l8 -21h2v451h-338zM776 354.5q0 151.5 -96 241.5t-231.5 90t-226.5 -93 t-91 -238.5t91 -238.5t226.5 -93t231.5 90t96 241.5z" glyph-name="dcroat" horiz-adv-x="960" unicode="đ"/><glyph d="M954 629v-41h-708v-547h809v-41h-852v1229h852v-41h-809v-559h708zM367 1417v39h512v-39h-512z" glyph-name="Emacron" horiz-adv-x="1140" unicode="Ē"/><glyph d="M90 354q0 170 98 270.5t254 100.5t246 -92t90 -250v-12h-645v-21q0 -150 99.5 -238.5t238.5 -88.5q70 0 130.5 17t86.5 36l27 18l18 -35q-98 -75 -261 -75t-272.5 100t-109.5 270zM447 686q-128 0 -210.5 -72.5t-99.5 -203.5h598q-4 117 -82 196.5t-206 79.5zM180 918v38 h512v-38h-512z" glyph-name="emacron" horiz-adv-x="854" unicode="ē"/><glyph d="M891 1661h43q0 -160 -79 -247t-212 -87t-212 87t-79 247h43q0 -141 65.5 -217t182.5 -78t182.5 76t65.5 219zM954 629v-41h-708v-547h809v-41h-852v1229h852v-41h-809v-559h708z" glyph-name="Ebreve" horiz-adv-x="1140" unicode="Ĕ"/><glyph d="M90 354q0 170 98 270.5t254 100.5t246 -92t90 -250v-12h-645v-21q0 -150 99.5 -238.5t238.5 -88.5q70 0 130.5 17t86.5 36l27 18l18 -35q-98 -75 -261 -75t-272.5 100t-109.5 270zM447 686q-128 0 -210.5 -72.5t-99.5 -203.5h598q-4 117 -82 196.5t-206 79.5zM682 1200 h43q0 -160 -79 -247t-212 -87t-212 87t-79 247h43q0 -141 65.5 -217t182.5 -78t182.5 76t65.5 219z" glyph-name="ebreve" horiz-adv-x="854" unicode="ĕ"/><glyph d="M954 629v-41h-708v-547h809v-41h-852v1229h852v-41h-809v-559h708zM563 1543q0 32 20.5 52.5t52.5 20.5t52.5 -20.5t20.5 -52.5t-20.5 -52.5t-52.5 -20.5t-52.5 20.5t-20.5 52.5z" glyph-name="Edotaccent" horiz-adv-x="1140" unicode="Ė"/><glyph d="M90 354q0 170 98 270.5t254 100.5t246 -92t90 -250v-12h-645v-21q0 -150 99.5 -238.5t238.5 -88.5q70 0 130.5 17t86.5 36l27 18l18 -35q-98 -75 -261 -75t-272.5 100t-109.5 270zM447 686q-128 0 -210.5 -72.5t-99.5 -203.5h598q-4 117 -82 196.5t-206 79.5zM362 1082 q0 32 20.5 52.5t52.5 20.5t52.5 -20.5t20.5 -52.5t-20.5 -52t-52.5 -20t-52.5 20t-20.5 52z" glyph-name="edotaccent" horiz-adv-x="854" unicode="ė"/><glyph d="M811 -152q0 94 109 152h-717v1229h852v-41h-809v-559h708v-41h-708v-547h809v-41h-51q-16 -6 -42 -16.5t-68 -49t-42 -86.5q0 -82 86 -81q37 0 80 26l20 -31q-39 -34 -99 -34t-94 31.5t-34 88.5z" glyph-name="Eogonek" horiz-adv-x="1140" unicode="Ę"/><glyph d="M604 -209q44 0 80 27l21 -31q-39 -35 -99 -35t-94.5 32t-34.5 92t55 112q-41 -4 -61 -4q-162 0 -271.5 100t-109.5 270t98 270.5t254 100.5t246 -92t90 -250v-12h-645v-21q0 -150 99.5 -238.5t238.5 -88.5q70 0 130.5 17t86.5 36l27 18l18 -35q-39 -29 -102 -51 q-113 -47 -113 -135q0 -82 86 -82zM447 686q-128 0 -210.5 -72.5t-99.5 -203.5h598q-4 117 -82 196.5t-206 79.5z" glyph-name="eogonek" horiz-adv-x="854" unicode="ę"/><glyph d="M954 629v-41h-708v-547h809v-41h-852v1229h852v-41h-809v-559h708zM913 1661v-14l-249 -310h-60l-250 310v14h25l256 -260l254 260h24z" glyph-name="Ecaron" horiz-adv-x="1140" unicode="Ě"/><glyph d="M90 354q0 170 98 270.5t254 100.5t246 -92t90 -250v-12h-645v-21q0 -150 99.5 -238.5t238.5 -88.5q70 0 130.5 17t86.5 36l27 18l18 -35q-98 -75 -261 -75t-272.5 100t-109.5 270zM447 686q-128 0 -210.5 -72.5t-99.5 -203.5h598q-4 117 -82 196.5t-206 79.5zM717 1182 v-15l-250 -309h-59l-250 309v15h24l256 -260l254 260h25z" glyph-name="ecaron" horiz-adv-x="854" unicode="ě"/><glyph d="M1245 561v27h-553v41h596v-47q0 -285 -149 -448t-417 -163t-442 181.5t-174 459.5t174.5 460.5t456.5 182.5q135 0 247 -42t157 -83l45 -40l-25 -33l-14 14q-14 14 -107 78.5t-303 64.5q-272 0 -429.5 -175t-157.5 -427t157.5 -426t429.5 -174q231 0 369.5 145.5 t138.5 403.5zM459 1305v14l250 309h59l250 -309v-14h-25l-254 260l-256 -260h-24z" glyph-name="Gcircumflex" horiz-adv-x="1374" unicode="Ĝ"/><glyph d="M440 -485q-170 0 -270 74.5t-100 191.5q0 174 215 225v6q-106 16 -151.5 56.5t-45.5 107.5q0 102 123 150q-41 62 -41 156t74.5 166.5t199.5 72.5l353 -12v-39h-195v-4q4 -2 26 -11t56.5 -56t34.5 -143q0 -95 -75 -168t-202 -73t-204 78q-109 -31 -109 -117 q0 -141 311 -141q172 0 271.5 -69.5t99.5 -185.5t-100.5 -190.5t-270.5 -74.5zM440.5 -6q-151.5 0 -240.5 -60.5t-89 -155.5t89 -158.5t240.5 -63.5t240.5 63.5t89 159.5t-89 155.5t-240.5 59.5zM444.5 680q-106.5 0 -170 -61.5t-63.5 -151.5t63.5 -150.5t170 -60.5 t170 60.5t63.5 150.5t-63.5 151.5t-170 61.5zM168 858v14l250 310h59l250 -310v-14h-25l-253 260l-256 -260h-25z" glyph-name="gcircumflex" horiz-adv-x="835" unicode="ĝ"/><glyph d="M985 1661h43q0 -160 -79 -247t-212 -87t-212 87t-79 247h43q0 -141 66 -217t182.5 -78t182 76t65.5 219zM1245 561v27h-553v41h596v-47q0 -285 -149 -448t-417 -163t-442 181.5t-174 459.5t174.5 460.5t456.5 182.5q135 0 247 -42t157 -83l45 -40l-25 -33l-14 14 q-14 14 -107 78.5t-303 64.5q-272 0 -429.5 -175t-157.5 -427t157.5 -426t429.5 -174q231 0 369.5 145.5t138.5 403.5z" glyph-name="Gbreve" horiz-adv-x="1374" unicode="Ğ"/><glyph d="M440 -485q-170 0 -270 74.5t-100 191.5q0 174 215 225v6q-106 16 -151.5 56.5t-45.5 107.5q0 102 123 150q-41 62 -41 156t74.5 166.5t199.5 72.5l353 -12v-39h-195v-4q4 -2 26 -11t56.5 -56t34.5 -143q0 -95 -75 -168t-202 -73t-204 78q-109 -31 -109 -117 q0 -141 311 -141q172 0 271.5 -69.5t99.5 -185.5t-100.5 -190.5t-270.5 -74.5zM440.5 -6q-151.5 0 -240.5 -60.5t-89 -155.5t89 -158.5t240.5 -63.5t240.5 63.5t89 159.5t-89 155.5t-240.5 59.5zM444.5 680q-106.5 0 -170 -61.5t-63.5 -151.5t63.5 -150.5t170 -60.5 t170 60.5t63.5 150.5t-63.5 151.5t-170 61.5zM692 1200h43q0 -160 -78.5 -247t-212 -87t-212 87t-78.5 247h43q0 -141 65.5 -217t182 -78t182 76t65.5 219z" glyph-name="gbreve" horiz-adv-x="835" unicode="ğ"/><glyph d="M1245 561v27h-553v41h596v-47q0 -285 -149 -448t-417 -163t-442 181.5t-174 459.5t174.5 460.5t456.5 182.5q135 0 247 -42t157 -83l45 -40l-25 -33l-14 14q-14 14 -107 78.5t-303 64.5q-272 0 -429.5 -175t-157.5 -427t157.5 -426t429.5 -174q231 0 369.5 145.5 t138.5 403.5zM659 1543q0 32 20.5 52.5t52.5 20.5t52.5 -20.5t20.5 -52.5t-20.5 -52.5t-52.5 -20.5t-52.5 20.5t-20.5 52.5z" glyph-name="Gdotaccent" horiz-adv-x="1374" unicode="Ġ"/><glyph d="M440 -485q-170 0 -270 74.5t-100 191.5q0 174 215 225v6q-106 16 -151.5 56.5t-45.5 107.5q0 102 123 150q-41 62 -41 156t74.5 166.5t199.5 72.5l353 -12v-39h-195v-4q4 -2 26 -11t56.5 -56t34.5 -143q0 -95 -75 -168t-202 -73t-204 78q-109 -31 -109 -117 q0 -141 311 -141q172 0 271.5 -69.5t99.5 -185.5t-100.5 -190.5t-270.5 -74.5zM440.5 -6q-151.5 0 -240.5 -60.5t-89 -155.5t89 -158.5t240.5 -63.5t240.5 63.5t89 159.5t-89 155.5t-240.5 59.5zM444.5 680q-106.5 0 -170 -61.5t-63.5 -151.5t63.5 -150.5t170 -60.5 t170 60.5t63.5 150.5t-63.5 151.5t-170 61.5zM375 1082q0 32 20.5 52.5t52.5 20.5t52 -20.5t20 -52.5t-20.5 -52t-52.5 -20t-52 20t-20 52z" glyph-name="gdotaccent" horiz-adv-x="835" unicode="ġ"/><glyph d="M672 -127q0 23 15 38t39 15t40 -16t16 -43t-12 -47l-53 -96h-45l39 69l18 23v4h-4q-23 0 -38 15t-15 38zM1245 561v27h-553v41h596v-47q0 -285 -149 -448t-417 -163t-442 181.5t-174 459.5t174.5 460.5t456.5 182.5q135 0 247 -42t157 -83l45 -40l-25 -33l-14 14 q-14 14 -107 78.5t-303 64.5q-272 0 -429.5 -175t-157.5 -427t157.5 -426t429.5 -174q231 0 369.5 145.5t138.5 403.5z" glyph-name="Gcommaaccent" horiz-adv-x="1374" unicode="Ģ"/><glyph d="M440 -485q-170 0 -270 74.5t-100 191.5q0 174 215 225v6q-106 16 -151.5 56.5t-45.5 107.5q0 102 123 150q-41 62 -41 156t74.5 166.5t199.5 72.5l353 -12v-39h-195v-4q4 -2 26 -11t56.5 -56t34.5 -143q0 -95 -75 -168t-202 -73t-204 78q-109 -31 -109 -117 q0 -141 311 -141q172 0 271.5 -69.5t99.5 -185.5t-100.5 -190.5t-270.5 -74.5zM440.5 -6q-151.5 0 -240.5 -60.5t-89 -155.5t89 -158.5t240.5 -63.5t240.5 63.5t89 159.5t-89 155.5t-240.5 59.5zM444.5 680q-106.5 0 -170 -61.5t-63.5 -151.5t63.5 -150.5t170 -60.5 t170 60.5t63.5 150.5t-63.5 151.5t-170 61.5zM502 915.5q0 -22.5 -15 -38t-39 -15.5t-40.5 16.5t-16.5 43t12 47.5l54 96h45l-39 -70l-19 -22v-4h5q23 0 38 -15.5t15 -38z" glyph-name="gcommaaccent" horiz-adv-x="835" unicode="ģ"/><glyph d="M397 1307v14l250 309h60l249 -309v-14h-24l-254 260l-256 -260h-25zM1155 1229v-1229h-43v588h-866v-588h-43v1229h43v-600h866v600h43z" glyph-name="Hcircumflex" horiz-adv-x="1357" unicode="Ĥ"/><glyph d="M145 0v1368h41v-805h2q6 19 34 51.5t81.5 71.5t187.5 39q133 0 216.5 -92t83.5 -242v-391h-41v387q0 133 -71 216t-207 83t-209 -80t-77 -166v-440h-41zM199 1468v15l250 309h59l250 -309v-15h-25l-254 261l-256 -261h-24z" glyph-name="hcircumflex" horiz-adv-x="923" unicode="ĥ"/><glyph d="M1165 1229v-219h76v-41h-76v-969h-43v588h-866v-588h-43v969h-88v41h88v219h43v-219h866v219h43zM256 629h866v340h-866v-340z" glyph-name="Hbar" horiz-adv-x="1376" unicode="Ħ"/><glyph d="M33 977v41h112v350h41v-350h328v-41h-328v-414h2q6 19 34 51.5t81.5 71.5t187.5 39q133 0 216.5 -92t83.5 -242v-391h-41v387q0 133 -71 216t-207 83t-209 -80t-77 -166v-440h-41v977h-112z" glyph-name="hbar" horiz-adv-x="923" unicode="ħ"/><glyph d="M246 1229v-1229h-43v1229h43zM358 1384q-55 0 -143 56.5t-130 56.5t-61.5 -22.5t-31.5 -63.5l-6 -22l-31 4l6 30q23 113 127 113q53 0 140 -56.5t131 -56.5t63.5 22.5t32.5 63.5l6 23l31 -4l-7 -31q-23 -113 -127 -113z" glyph-name="Itilde" horiz-adv-x="448" unicode="Ĩ"/><glyph d="M154 0v709h41v-709h-41zM309 932q-55 0 -143 56t-130 56t-61.5 -22.5t-31.5 -63.5l-6 -22l-31 4l6 31q23 113 127 112q53 0 140 -56t131 -56t63.5 22.5t32.5 63.5l6 22l30 -4l-6 -31q-23 -112 -127 -112z" glyph-name="itilde" horiz-adv-x="348" unicode="ĩ"/><glyph d="M246 1229v-1229h-43v1229h43zM-35 1409v39h512v-39h-512z" glyph-name="Imacron" horiz-adv-x="448" unicode="Ī"/><glyph d="M154 0v709h41v-709h-41zM-82 918v38h512v-38h-512z" glyph-name="imacron" horiz-adv-x="348" unicode="ī"/><glyph d="M471 1661h43q0 -160 -79 -247t-212 -87t-212 87t-79 247h43q0 -141 65.5 -217t182.5 -78t182.5 76t65.5 219zM246 1229v-1229h-43v1229h43z" glyph-name="Ibreve" horiz-adv-x="448" unicode="Ĭ"/><glyph d="M154 0v709h41v-709h-41zM420 1200h43q0 -160 -79 -247t-212 -87t-212 87t-79 247h43q0 -141 65.5 -217t182.5 -78t182.5 76t65.5 219z" glyph-name="ibreve" horiz-adv-x="348" unicode="ĭ"/><glyph d="M51 -152q0 111 152 172v1209h43v-1229h-4q-58 -17 -104 -61.5t-46 -90.5q0 -82 86 -81q45 0 80 26l21 -31q-39 -34 -99 -34t-94.5 31.5t-34.5 88.5z" glyph-name="Iogonek" horiz-adv-x="448" unicode="Į"/><glyph d="M6 -152q0 111 152 172v689h41v-709q-16 -6 -42 -16.5t-68 -49t-42 -86.5q0 -82 86 -81q45 0 80 26l20 -31q-39 -34 -99 -34t-94 31.5t-34 88.5zM178 1040q-43 0 -43 41q0 18 12.5 30.5t31 12.5t30.5 -12t12 -31q0 -41 -43 -41z" glyph-name="iogonek" horiz-adv-x="352" unicode="į"/><glyph d="M246 1229v-1229h-43v1229h43zM154 1541q0 32 20 52.5t52 20.5t52.5 -20.5t20.5 -52.5t-20.5 -52.5t-52.5 -20.5t-52 20.5t-20 52.5z" glyph-name="Idotaccent" horiz-adv-x="448" unicode="İ"/><glyph d="M154 0v709h41v-709h-41z" glyph-name="dotlessi" horiz-adv-x="348" unicode="ı"/><glyph d="M246 1229v-1229h-43v1229h43zM961 14q330 0 329 361v854h43v-858q0 -397 -370 -398q-74 0 -140.5 19.5t-97.5 40.5l-29 18l25 41q10 -8 28.5 -21.5t81 -35t130.5 -21.5z" glyph-name="IJ" horiz-adv-x="1521" unicode="Ĳ"/><glyph d="M174 1040q-43 0 -43 41q0 18 12.5 30.5t31 12.5t30.5 -12t12 -31q0 -41 -43 -41zM154 0v709h41v-709h-41zM460 -373q118 0 118 162v920h40v-920q0 -106 -38.5 -153.5t-109.5 -47.5t-132 35l18 35q46 -31 104 -31zM598 1040q-43 0 -43 41q0 18 12.5 30.5t30.5 12.5 t30.5 -12t12.5 -31q0 -41 -43 -41z" glyph-name="ij" horiz-adv-x="763" unicode="ĳ"/><glyph d="M395 1305v14l250 309h60l249 -309v-14h-24l-254 260l-256 -260h-25zM322 14q330 0 329 361v854h43v-858q0 -397 -370 -398q-74 0 -140.5 19.5t-97.5 40.5l-29 18l25 41q10 -8 28.5 -21.5t81 -35t130.5 -21.5z" glyph-name="Jcircumflex" horiz-adv-x="882" unicode="Ĵ"/><glyph d="M28 -373q116 0 117 162v920h41v-920q0 -106 -38.5 -153.5t-109.5 -47.5t-132 35l18 35q46 -31 104 -31zM-113 858v14l250 310h60l249 -310v-14h-24l-254 260l-256 -260h-25z" glyph-name="jcircumflex" horiz-adv-x="331" unicode="ĵ"/><glyph d="M246 1229v-780l813 780h43v-15l-508 -487l508 -713v-14h-41l-498 696l-317 -305v-391h-43v1229h43zM569 -127q0 23 15.5 38t39.5 15t40 -16t16 -43t-12 -47l-54 -96h-45l39 69l19 23v4h-4q-23 0 -38.5 15t-15.5 38z" glyph-name="Kcommaaccent" horiz-adv-x="1157" unicode="Ķ"/><glyph d="M186 356v-356h-41v1368h41v-999h2l406 340h59l-413 -347l481 -362h-59l-474 356h-2zM344 -127q0 23 15 38t39 15t40.5 -16t16.5 -43t-13 -47l-53 -96h-45l39 69l18 23v4h-4q-23 0 -38 15t-15 38z" glyph-name="kcommaaccent" horiz-adv-x="735" unicode="ķ"/><glyph d="M186 356v-356h-41v709h41v-340h2l406 340h59l-413 -347l481 -362h-59l-474 356h-2z" glyph-name="kgreenlandic" horiz-adv-x="737" unicode="ĸ"/><glyph d="M213 1307v14l115 309h65v-14l-155 -309h-25zM1024 0h-821v1229h43v-1188h778v-41z" glyph-name="Lacute" horiz-adv-x="1048" unicode="Ĺ"/><glyph d="M154 0v1368h41v-1368h-41zM164 1468v15l115 309h65v-14l-156 -310h-24z" glyph-name="lacute" horiz-adv-x="348" unicode="ĺ"/><glyph d="M1024 0h-821v1229h43v-1188h778v-41zM547 -127q0 23 15.5 38t39.5 15t39.5 -16t15.5 -43t-12 -47l-53 -96h-45l39 69l18 23v4h-4q-23 0 -38 15t-15 38z" glyph-name="Lcommaaccent" horiz-adv-x="1048" unicode="Ļ"/><glyph d="M154 0v1368h41v-1368h-41zM127 -127q0 23 15.5 38t39.5 15t40 -16t16 -43t-13 -47l-53 -96h-45l39 69l18 23v4h-4q-23 0 -38 15t-15 38z" glyph-name="lcommaaccent" horiz-adv-x="348" unicode="ļ"/><glyph d="M1024 0h-821v1229h43v-1188h778v-41zM727 1175.5q0 22.5 15.5 38t39.5 15.5t40 -16.5t16 -43t-13 -47.5l-53 -96h-45l39 70l18 22v4h-4q-23 0 -38 15.5t-15 38z" glyph-name="Lcaron" horiz-adv-x="1046" unicode="Ľ"/><glyph d="M154 0v1368h41v-1368h-41zM317 1318.5q0 22.5 15.5 38t39.5 15.5t40 -16.5t16 -43t-12 -46.5l-54 -97h-45l39 70l19 23v4h-4q-23 0 -38.5 15t-15.5 37.5z" glyph-name="lcaron" horiz-adv-x="348" unicode="ľ"/><glyph d="M1024 0h-821v1229h43v-1188h778v-41zM721 742q0 32 20.5 52.5t52.5 20.5t52 -20.5t20 -52.5t-20 -52t-52 -20t-52.5 20t-20.5 52z" glyph-name="Ldot" horiz-adv-x="1048" unicode="Ŀ"/><glyph d="M154 0v1368h41v-1368h-41zM358 632q0 32 20.5 52.5t52.5 20.5t52.5 -20.5t20.5 -52.5t-20.5 -52.5t-52.5 -20.5t-52.5 20.5t-20.5 52.5z" glyph-name="ldot" horiz-adv-x="518" unicode="ŀ"/><glyph d="M219 1229h43v-582l309 178l21 -34l-330 -191v-559h778v-41h-821v575l-149 -86l-21 35l170 99v606z" glyph-name="Lslash" horiz-adv-x="1062" unicode="Ł"/><glyph d="M248 1368h41v-700l205 118l20 -34l-225 -131v-621h-41v598l-193 -111l-20 35l213 123v723z" glyph-name="lslash" horiz-adv-x="522" unicode="ł"/><glyph d="M698 1307v14l115 309h66v-14l-156 -309h-25zM1221 1229v-1229h-19l-956 1130v-1130h-43v1229h18l957 -1129v1129h43z" glyph-name="Nacute" horiz-adv-x="1423" unicode="Ń"/><glyph d="M145 0v709h31l10 -146h2q6 19 34 51.5t81.5 71.5t187.5 39q133 0 216.5 -92t83.5 -242v-391h-41v387q0 133 -71 216t-207 83t-209 -80t-77 -166v-440h-41zM463 858v14l115 310h65v-15l-156 -309h-24z" glyph-name="nacute" horiz-adv-x="923" unicode="ń"/><glyph d="M1221 1229v-1229h-19l-956 1130v-1130h-43v1229h18l957 -1129v1129h43zM657 -127q0 23 15.5 38t39.5 15t40 -16t16 -43t-12 -47l-54 -96h-45l39 69l19 23v4h-4q-23 0 -38.5 15t-15.5 38z" glyph-name="Ncommaaccent" horiz-adv-x="1423" unicode="Ņ"/><glyph d="M145 0v709h31l10 -146h2q6 19 34 51.5t81.5 71.5t187.5 39q133 0 216.5 -92t83.5 -242v-391h-41v387q0 133 -71 216t-207 83t-209 -80t-77 -166v-440h-41zM428 -127q0 23 15 38t39 15t40.5 -16t16.5 -43t-13 -47l-53 -96h-45l39 69l18 23v4h-4q-23 0 -38 15t-15 38z" glyph-name="ncommaaccent" horiz-adv-x="923" unicode="ņ"/><glyph d="M993 1630v-14l-250 -309h-59l-250 309v14h25l256 -260l254 260h24zM1221 1229v-1229h-19l-956 1130v-1130h-43v1229h18l957 -1129v1129h43z" glyph-name="Ncaron" horiz-adv-x="1423" unicode="Ň"/><glyph d="M145 0v709h31l10 -146h2q6 19 34 51.5t81.5 71.5t187.5 39q133 0 216.5 -92t83.5 -242v-391h-41v387q0 133 -71 216t-207 83t-209 -80t-77 -166v-440h-41zM754 1182v-15l-250 -309h-60l-249 309v15h24l256 -260l254 260h25z" glyph-name="ncaron" horiz-adv-x="923" unicode="ň"/><glyph d="M145 0v709h31l10 -146h2q6 19 34 51.5t81.5 71.5t187.5 39q133 0 216.5 -92t83.5 -242v-391h-41v387q0 133 -71 216t-207 83t-209 -80t-77 -166v-440h-41zM106 1155.5q0 22.5 15.5 37.5t39.5 15t40 -16t16 -43t-12 -47l-53 -96h-46l39 69l19 23v4h-4q-23 0 -38.5 15.5 t-15.5 38z" glyph-name="napostrophe" horiz-adv-x="923" unicode="ŉ"/><glyph d="M1221 1229v-1440q0 -106 -40 -153.5t-111 -47.5t-132 35l18 35q46 -31 104 -31q118 0 118 162v240l-932 1101v-1130h-43v1229h18l957 -1129v1129h43z" glyph-name="Eng" horiz-adv-x="1423" unicode="Ŋ"/><glyph d="M145 0v709h31l10 -146h2q6 19 34 51.5t81.5 71.5t187.5 39q133 0 216.5 -92t83.5 -242v-602q0 -106 -39 -153.5t-110 -47.5t-132 35l18 35q46 -31 104 -31q118 0 118 162v598q0 133 -71 216t-207 83t-209 -80t-77 -166v-440h-41z" glyph-name="eng" horiz-adv-x="923" unicode="ŋ"/><glyph d="M727.5 -29q-276.5 0 -449 181.5t-172.5 459.5t171.5 460.5t450 182.5t449.5 -182.5t171 -460.5t-172 -459.5t-448.5 -181.5zM727 12q266 0 422 174t156 426t-155 427t-423 175t-422.5 -175t-154.5 -427t155.5 -426t421.5 -174zM469 1358v39h512v-39h-512z" glyph-name="Omacron" horiz-adv-x="1454" unicode="Ō"/><glyph d="M829 351q0 -167 -106.5 -267t-264 -100t-264 100t-106.5 267t106.5 270.5t264 103.5t264 -103.5t106.5 -270.5zM459 23q135 0 231 89t96 238.5t-97 242.5t-230 93t-230.5 -93t-97.5 -242.5t96.5 -238.5t231.5 -89zM201 918v38h512v-38h-512z" glyph-name="omacron" horiz-adv-x="917" unicode="ō"/><glyph d="M973 1663h43q0 -160 -79 -247t-212 -87t-212 87t-79 247h43q0 -141 65.5 -217t182.5 -78t182.5 76t65.5 219zM727.5 -29q-276.5 0 -449 181.5t-172.5 459.5t171.5 460.5t450 182.5t449.5 -182.5t171 -460.5t-172 -459.5t-448.5 -181.5zM727 12q266 0 422 174t156 426 t-155 427t-423 175t-422.5 -175t-154.5 -427t155.5 -426t421.5 -174z" glyph-name="Obreve" horiz-adv-x="1454" unicode="Ŏ"/><glyph d="M829 351q0 -167 -106.5 -267t-264 -100t-264 100t-106.5 267t106.5 270.5t264 103.5t264 -103.5t106.5 -270.5zM459 23q135 0 231 89t96 238.5t-97 242.5t-230 93t-230.5 -93t-97.5 -242.5t96.5 -238.5t231.5 -89zM709 1200h43q0 -160 -79 -247t-212 -87t-212 87t-79 247 h43q0 -141 65.5 -217t182.5 -78t182.5 76t65.5 219z" glyph-name="obreve" horiz-adv-x="917" unicode="ŏ"/><glyph d="M727.5 -29q-276.5 0 -449 181.5t-172.5 459.5t171.5 460.5t450 182.5t449.5 -182.5t171 -460.5t-172 -459.5t-448.5 -181.5zM727 12q266 0 422 174t156 426t-155 427t-423 175t-422.5 -175t-154.5 -427t155.5 -426t421.5 -174zM532 1305v14l115 309h66v-14l-156 -309h-25 zM838 1305v14l114 309h66v-14l-156 -309h-24z" glyph-name="Ohungarumlaut" horiz-adv-x="1454" unicode="Ő"/><glyph d="M829 351q0 -167 -106.5 -267t-264 -100t-264 100t-106.5 267t106.5 270.5t264 103.5t264 -103.5t106.5 -270.5zM459 23q135 0 231 89t96 238.5t-97 242.5t-230 93t-230.5 -93t-97.5 -242.5t96.5 -238.5t231.5 -89zM264 858v14l115 310h65v-15l-155 -309h-25zM569 858v14 l115 310h66v-15l-156 -309h-25z" glyph-name="ohungarumlaut" horiz-adv-x="917" unicode="ő"/><glyph d="M2056 629v-41h-708v-547h809v-41h-852v360q-66 -178 -217.5 -283.5t-360.5 -105.5q-276 0 -448.5 181.5t-172.5 459.5t171.5 460.5t449.5 182.5q209 0 360.5 -106.5t217.5 -286.5v367h852v-41h-809v-559h708zM726 12q265 0 422 171t157 429t-157 430t-423 172 t-420.5 -175t-154.5 -427t155.5 -426t420.5 -174z" glyph-name="OE" horiz-adv-x="2244" unicode="Œ"/><glyph d="M442 -16q-140 0 -247 100t-107 267t106.5 270.5t264.5 103.5q121 0 215 -64.5t133 -175.5q33 113 121 176.5t205 63.5q164 0 254 -92t90 -250v-12h-646v-21q0 -150 99.5 -238.5t238.5 -88.5q70 0 130.5 17t86.5 36l27 18l19 -35q-98 -75 -244 -75t-243 63.5t-136 173.5 q-39 -111 -133 -174t-234 -63zM459 23q135 0 231 89t96 238.5t-97 242.5t-230 93t-230.5 -93t-97.5 -242.5t96.5 -238.5t231.5 -89zM1146 686q-128 0 -211 -72.5t-99 -203.5h598q-4 117 -82 196.5t-206 79.5z" glyph-name="oe" horiz-adv-x="1552" unicode="œ"/><glyph d="M588 1307v14l114 309h66v-14l-156 -309h-24zM203 0v1229h452q231 0 354.5 -100.5t123.5 -280.5t-92.5 -276.5t-252.5 -120.5v-9l357 -428v-14h-41l-371 444h-487v-444h-43zM1090 835q0 176 -115 264.5t-318 88.5h-411v-703h442q178 0 290 87t112 263z" glyph-name="Racute" horiz-adv-x="1255" unicode="Ŕ"/><glyph d="M188 0h-41v709h31l10 -146h2q2 6 11 35.5t57.5 78t149.5 48.5q52 0 106 -27l-16 -36q-43 25 -95 24q-104 0 -157 -77t-58 -185v-424zM307 858v14l115 310h65v-15l-155 -309h-25z" glyph-name="racute" horiz-adv-x="528" unicode="ŕ"/><glyph d="M203 0v1229h452q231 0 354.5 -100.5t123.5 -280.5t-92.5 -276.5t-252.5 -120.5v-9l357 -428v-14h-41l-371 444h-487v-444h-43zM1090 835q0 176 -115 264.5t-318 88.5h-411v-703h442q178 0 290 87t112 263zM582 -127q0 23 15 38t39 15t40 -16t16 -43t-12 -47l-53 -96h-45 l39 69l18 23v4h-4q-23 0 -38 15t-15 38z" glyph-name="Rcommaaccent" horiz-adv-x="1255" unicode="Ŗ"/><glyph d="M188 0h-41v709h31l10 -146h2q2 6 11 35.5t57.5 78t149.5 48.5q52 0 106 -27l-16 -36q-43 25 -95 24q-104 0 -157 -77t-58 -185v-424zM119 -127q0 23 15.5 38t39.5 15t39.5 -16t15.5 -43t-12 -47l-53 -96h-45l39 69l18 23v4h-4q-23 0 -38 15t-15 38z" glyph-name="rcommaaccent" horiz-adv-x="528" unicode="ŗ"/><glyph d="M895 1651v-15l-250 -309h-59l-250 309v15h24l256 -260l254 260h25zM203 0v1229h452q231 0 354.5 -100.5t123.5 -280.5t-92.5 -276.5t-252.5 -120.5v-9l357 -428v-14h-41l-371 444h-487v-444h-43zM1090 835q0 176 -115 264.5t-318 88.5h-411v-703h442q178 0 290 87 t112 263z" glyph-name="Rcaron" horiz-adv-x="1255" unicode="Ř"/><glyph d="M188 0h-41v709h31l10 -146h2q2 6 11 35.5t57.5 78t149.5 48.5q52 0 106 -27l-16 -36q-43 25 -95 24q-104 0 -157 -77t-58 -185v-424zM623 1182v-15l-250 -309h-60l-250 309v15h25l256 -260l254 260h25z" glyph-name="rcaron" horiz-adv-x="528" unicode="ř"/><glyph d="M528 1307v14l115 309h66v-14l-156 -309h-25zM520 14q205 0 307.5 75t102.5 208q0 157 -130 218t-231 89q-100 28 -122.5 35.5t-83 28t-123.5 59.5t-96 87t-33 128q0 145 119.5 229t308.5 84q129 0 230 -27.5t138 -53.5l37 -27l-24 -37q-14 12 -41 29.5t-126.5 46 t-237.5 28.5t-249.5 -71.5t-111.5 -198.5q0 -94 71 -155.5t276 -123.5q205 -61 276 -93.5t107 -66.5t62.5 -88.5t26.5 -119.5q0 -147 -111.5 -235.5t-341.5 -88.5q-121 0 -225.5 33t-147.5 66l-45 32l29 35q16 -14 46 -34.5t130.5 -55.5t212.5 -35z" glyph-name="Sacute" horiz-adv-x="1071" unicode="Ś"/><glyph d="M359 23q149 0 215.5 43t66.5 108t-57.5 102t-138 53.5t-161.5 35t-138.5 60.5t-57.5 122t75 129t217 49t241 -41l28 -14l-18 -37q-90 53 -252 53q-248 0 -248 -147q0 -106 138.5 -131t219 -42.5t138 -63.5t57.5 -129t-73.5 -136t-231.5 -53q-88 0 -161 16t-103 33l-29 16 l20 35q104 -61 253 -61zM340 858v14l115 310h65v-15l-155 -309h-25z" glyph-name="sacute" horiz-adv-x="759" unicode="ś"/><glyph d="M256 1327v14l250 310h59l250 -310v-14h-24l-254 260l-256 -260h-25zM520 14q205 0 307.5 75t102.5 208q0 157 -130 218t-231 89q-100 28 -122.5 35.5t-83 28t-123.5 59.5t-96 87t-33 128q0 145 119.5 229t308.5 84q129 0 230 -27.5t138 -53.5l37 -27l-24 -37 q-14 12 -41 29.5t-126.5 46t-237.5 28.5t-249.5 -71.5t-111.5 -198.5q0 -94 71 -155.5t276 -123.5q205 -61 276 -93.5t107 -66.5t62.5 -88.5t26.5 -119.5q0 -147 -111.5 -235.5t-341.5 -88.5q-121 0 -225.5 33t-147.5 66l-45 32l29 35q16 -14 46 -34.5t130.5 -55.5 t212.5 -35z" glyph-name="Scircumflex" horiz-adv-x="1071" unicode="Ŝ"/><glyph d="M359 23q149 0 215.5 43t66.5 108t-57.5 102t-138 53.5t-161.5 35t-138.5 60.5t-57.5 122t75 129t217 49t241 -41l28 -14l-18 -37q-90 53 -252 53q-248 0 -248 -147q0 -106 138.5 -131t219 -42.5t138 -63.5t57.5 -129t-73.5 -136t-231.5 -53q-88 0 -161 16t-103 33l-29 16 l20 35q104 -61 253 -61zM102 858v14l250 310h60l250 -310v-14h-25l-254 260l-256 -260h-25z" glyph-name="scircumflex" horiz-adv-x="759" unicode="ŝ"/><glyph d="M520 14q205 0 307.5 75t102.5 208q0 157 -130 218t-231 89q-100 28 -122.5 35.5t-83 28t-123.5 59.5t-96 87t-33 128q0 145 119.5 229t308.5 84q129 0 230 -27.5t138 -53.5l37 -27l-24 -37q-14 12 -41 29.5t-126.5 46t-237.5 28.5t-249.5 -71.5t-111.5 -198.5 q0 -94 71 -155.5t276 -123.5q205 -61 276 -93.5t107 -66.5t62.5 -88.5t26.5 -119.5q0 -141 -103.5 -227t-314.5 -95l-20 -36q145 0 145 -127q0 -59 -41 -96.5t-113 -37.5t-108 35l-12 11l16 34q41 -41 99 -41q116 0 116 95q0 41 -29.5 64.5t-77.5 23.5l-34 -6l-19 26l31 53 q-117 2 -218.5 35t-144.5 66l-43 30l29 35q16 -14 46 -34.5t130.5 -55.5t212.5 -35z" glyph-name="Scedilla" horiz-adv-x="1071" unicode="Ş"/><glyph d="M359 23q149 0 215.5 43t66.5 108t-57.5 102t-138 53.5t-161.5 35t-138.5 60.5t-57.5 122t75 129t217 49t241 -41l28 -14l-18 -37q-90 53 -252 53q-248 0 -248 -147q0 -106 138.5 -131t219 -42.5t138 -63.5t57.5 -127t-68.5 -134t-214.5 -57l-26 -45q145 0 145 -127 q0 -59 -41 -96.5t-113 -37.5t-108 35l-12 11l16 34q42 -41 100 -41q116 0 115 95q0 41 -29.5 64.5t-76.5 23.5l-35 -6l-19 26l37 64q-80 2 -147.5 18t-93.5 31l-27 16l20 35q104 -61 253 -61z" glyph-name="scedilla" horiz-adv-x="759" unicode="ş"/><glyph d="M520 14q205 0 307.5 75t102.5 208q0 157 -130 218t-231 89q-100 28 -122.5 35.5t-83 28t-123.5 59.5t-96 87t-33 128q0 145 119.5 229t308.5 84q129 0 230 -27.5t138 -53.5l37 -27l-24 -37q-14 12 -41 29.5t-126.5 46t-237.5 28.5t-249.5 -71.5t-111.5 -198.5 q0 -94 71 -155.5t276 -123.5q205 -61 276 -93.5t107 -66.5t62.5 -88.5t26.5 -119.5q0 -147 -111.5 -235.5t-341.5 -88.5q-121 0 -225.5 33t-147.5 66l-45 32l29 35q16 -14 46 -34.5t130.5 -55.5t212.5 -35zM811 1630v-14l-250 -309h-59l-250 309v14h24l256 -260l254 260h25z " glyph-name="Scaron" horiz-adv-x="1071" unicode="Š"/><glyph d="M359 23q149 0 215.5 43t66.5 108t-57.5 102t-138 53.5t-161.5 35t-138.5 60.5t-57.5 122t75 129t217 49t241 -41l28 -14l-18 -37q-90 53 -252 53q-248 0 -248 -147q0 -106 138.5 -131t219 -42.5t138 -63.5t57.5 -129t-73.5 -136t-231.5 -53q-88 0 -161 16t-103 33l-29 16 l20 35q104 -61 253 -61zM662 1182v-15l-250 -309h-60l-250 309v15h25l256 -260l254 260h25z" glyph-name="scaron" horiz-adv-x="759" unicode="š"/><glyph d="M1001 1229v-41h-460v-1188h-43v1188h-461v41h964zM463 -127q0 23 15.5 38t39.5 15t39.5 -16t15.5 -43t-12 -47l-53 -96h-45l39 69l18 23v4h-4q-23 0 -38 15t-15 38z" glyph-name="Tcommaaccent" horiz-adv-x="1040" unicode="Ţ"/><glyph d="M446 23q56 0 109 30l18 -35q-55 -35 -127 -34q-266 0 -266 313v373h-153v39h153v215h41v-215h328v-39h-328v-373q0 -143 55.5 -208.5t169.5 -65.5zM342 -127q0 23 15 38t39 15t40.5 -16t16.5 -43t-13 -47l-53 -96h-45l39 69l18 23v4h-4q-23 0 -38 15t-15 38z" glyph-name="tcommaaccent" horiz-adv-x="593" unicode="ţ"/><glyph d="M799 1651v-15l-250 -309h-60l-249 309v15h24l256 -260l254 260h25zM1001 1229v-41h-460v-1188h-43v1188h-461v41h964z" glyph-name="Tcaron" horiz-adv-x="1040" unicode="Ť"/><glyph d="M446 23q56 0 109 30l18 -35q-55 -35 -127 -34q-266 0 -266 313v373h-153v39h153v215h41v-215h328v-39h-328v-373q0 -143 55.5 -208.5t169.5 -65.5zM506 1155.5q0 22.5 15 37.5t39 15t40 -16t16 -43t-12 -47l-53 -96h-45l39 69l18 23v4h-4q-23 0 -38 15.5t-15 38z" glyph-name="tcaron" horiz-adv-x="593" unicode="ť"/><glyph d="M1010 1229v-41h-461v-539h258v-41h-258v-608h-43v608h-244v41h244v539h-461v41h965z" glyph-name="Tbar" horiz-adv-x="1056" unicode="Ŧ"/><glyph d="M457 23q56 0 108 30l19 -35q-55 -35 -127 -34q-266 0 -267 313v53h-141v41h141v279h-153v39h153v215h41v-215h328v-39h-328v-279h240v-41h-240v-53q0 -143 55.5 -208.5t170.5 -65.5z" glyph-name="tbar" horiz-adv-x="604" unicode="ŧ"/><glyph d="M669.5 -27q-231.5 0 -358.5 142.5t-127 388.5v725h43v-725q0 -227 114 -358.5t329 -131.5t328.5 131t113.5 359v725h43v-725q0 -246 -127 -388.5t-358.5 -142.5zM807 1446q-55 0 -143 56.5t-130 56.5t-61.5 -23t-32.5 -63l-6 -23l-31 4l7 31q23 113 127 112q53 0 140 -56 t131 -56t63.5 22.5t31.5 63.5l6 22l31 -4l-6 -30q-23 -113 -127 -113z" glyph-name="Utilde" horiz-adv-x="1339" unicode="Ũ"/><glyph d="M727 274v435h41v-709h-31l-10 145h-2q-6 -19 -33.5 -51.5t-81 -71t-187.5 -38.5t-212 92t-78 241v392h41v-387q0 -135 66.5 -217t202.5 -82t210 82.5t74 168.5zM596 932q-55 0 -143 56t-130 56t-61.5 -22.5t-32.5 -63.5l-6 -22l-30 4l6 31q23 113 127 112q53 0 140 -56 t131 -56t63.5 22.5t31.5 63.5l6 22l31 -4l-6 -31q-23 -112 -127 -112z" glyph-name="utilde" horiz-adv-x="913" unicode="ũ"/><glyph d="M669.5 -27q-231.5 0 -358.5 142.5t-127 388.5v725h43v-725q0 -227 114 -358.5t329 -131.5t328.5 131t113.5 359v725h43v-725q0 -246 -127 -388.5t-358.5 -142.5zM414 1391v39h512v-39h-512z" glyph-name="Umacron" horiz-adv-x="1339" unicode="Ū"/><glyph d="M727 274v435h41v-709h-31l-10 145h-2q-6 -19 -33.5 -51.5t-81 -71t-187.5 -38.5t-212 92t-78 241v392h41v-387q0 -135 66.5 -217t202.5 -82t210 82.5t74 168.5zM201 918v38h512v-38h-512z" glyph-name="umacron" horiz-adv-x="913" unicode="ū"/><glyph d="M918 1663h43q0 -160 -79 -247t-212 -87t-212 87t-79 247h43q0 -141 65.5 -217t182 -78t182.5 76t66 219zM669.5 -27q-231.5 0 -358.5 142.5t-127 388.5v725h43v-725q0 -227 114 -358.5t329 -131.5t328.5 131t113.5 359v725h43v-725q0 -246 -127 -388.5t-358.5 -142.5z " glyph-name="Ubreve" horiz-adv-x="1339" unicode="Ŭ"/><glyph d="M727 274v435h41v-709h-31l-10 145h-2q-6 -19 -33.5 -51.5t-81 -71t-187.5 -38.5t-212 92t-78 241v392h41v-387q0 -135 66.5 -217t202.5 -82t210 82.5t74 168.5zM707 1200h43q0 -160 -79 -247t-212 -87t-212 87t-79 247h43q0 -141 65.5 -217t182 -78t182.5 76t66 219z" glyph-name="ubreve" horiz-adv-x="913" unicode="ŭ"/><glyph d="M669.5 1329q-71.5 0 -117.5 46t-46 118t46 118t117.5 46t118 -46t46.5 -118t-46.5 -118t-118 -46zM795 1493q0 57 -34 91t-91.5 34t-91 -34t-33.5 -91t33.5 -91t91 -34t91.5 34t34 91zM669.5 -27q-231.5 0 -358.5 142.5t-127 388.5v725h43v-725q0 -227 114 -358.5 t329 -131.5t328.5 131t113.5 359v725h43v-725q0 -246 -127 -388.5t-358.5 -142.5z" glyph-name="Uring" horiz-adv-x="1339" unicode="Ů"/><glyph d="M727 274v435h41v-709h-31l-10 145h-2q-6 -19 -33.5 -51.5t-81 -71t-187.5 -38.5t-212 92t-78 241v392h41v-387q0 -135 66.5 -217t202.5 -82t210 82.5t74 168.5zM456.5 903q-71.5 0 -117.5 46t-46 118t46 118t117.5 46t118 -46t46.5 -118t-46.5 -118t-118 -46zM582 1067 q0 57 -34 91t-91.5 34t-91 -34t-33.5 -91t33.5 -91t91 -34t91.5 34t34 91z" glyph-name="uring" horiz-adv-x="913" unicode="ů"/><glyph d="M483 1307v14l115 309h66v-14l-156 -309h-25zM788 1307v14l115 309h66v-14l-156 -309h-25zM669.5 -27q-231.5 0 -358.5 142.5t-127 388.5v725h43v-725q0 -227 114 -358.5t329 -131.5t328.5 131t113.5 359v725h43v-725q0 -246 -127 -388.5t-358.5 -142.5z" glyph-name="Uhungarumlaut" horiz-adv-x="1339" unicode="Ű"/><glyph d="M727 274v435h41v-709h-31l-10 145h-2q-6 -19 -33.5 -51.5t-81 -71t-187.5 -38.5t-212 92t-78 241v392h41v-387q0 -135 66.5 -217t202.5 -82t210 82.5t74 168.5zM272 858v14l115 310h66v-15l-156 -309h-25zM578 858v14l114 310h66v-15l-156 -309h-24z" glyph-name="uhungarumlaut" horiz-adv-x="913" unicode="ű"/><glyph d="M662 -254q43 0 79 27l21 -31q-39 -35 -99 -35t-94 32t-34 89q0 88 98 147q-215 10 -332 150.5t-117 378.5v725h43v-725q0 -227 114 -358.5t329 -131.5t328.5 131t113.5 359v725h43v-725q0 -233 -115.5 -373.5t-326.5 -155.5q-137 -53 -137 -141t86 -88z" glyph-name="Uogonek" horiz-adv-x="1339" unicode="Ų"/><glyph d="M575 -146q0 62 51.5 106t108.5 63l-8 122h-2q-6 -19 -33.5 -51.5t-81 -71t-187.5 -38.5t-212 92t-78 241v392h41v-387q0 -135 66.5 -217t202.5 -82t210 82.5t74 168.5v435h41v-709q-16 -6 -42 -16.5t-68 -49t-42 -86.5q0 -82 86 -81q45 0 80 26l21 -31q-39 -34 -99 -34 t-94.5 32t-34.5 94z" glyph-name="uogonek" horiz-adv-x="913" unicode="ų"/><glyph d="M543 1327v14l250 310h59l250 -310v-14h-25l-254 260l-256 -260h-24zM487 86l318 1143h31l307 -1104l8 -39h6l10 39l371 1104h51l-424 -1229h-26l-310 1104l-8 39h-6l-6 -39l-311 -1104h-27l-424 1229h51l371 -1104l10 -39h8z" glyph-name="Wcircumflex" horiz-adv-x="1636" unicode="Ŵ"/><glyph d="M338 49h4q0 8 10 39l205 621h47l203 -621q10 -31 10 -39h4q0 2 13 39l227 621h45l-264 -709h-47l-207 633q-6 18 -6 26h-4q0 -8 -7 -26l-209 -633h-47l-264 709h47l228 -621q12 -37 12 -39zM301 858v14l250 310h59l250 -310v-14h-24l-254 260l-256 -260h-25z" glyph-name="wcircumflex" horiz-adv-x="1157" unicode="ŵ"/><glyph d="M262 1307v14l250 309h59l250 -309v-14h-24l-254 260l-256 -260h-25zM561 0h-43v475l-489 754h51l424 -664l33 -55h8l456 719h50l-490 -754v-475z" glyph-name="Ycircumflex" horiz-adv-x="1079" unicode="Ŷ"/><glyph d="M416 49q0 14 12 39l305 621h43l-538 -1102h-45l198 407l-346 695h49l305 -621q12 -25 13 -39h4zM135 858v14l250 310h59l250 -310v-14h-24l-254 260l-256 -260h-25z" glyph-name="ycircumflex" horiz-adv-x="817" unicode="ŷ"/><glyph d="M309 1443.5q0 22.5 16.5 39t39 16.5t39 -16.5t16.5 -39t-16.5 -38.5t-39 -16t-39 16t-16.5 38.5zM664 1443.5q0 22.5 16 39t38.5 16.5t39 -16.5t16.5 -39t-16.5 -38.5t-39 -16t-38.5 16t-16 38.5zM561 0h-43v475l-489 754h51l424 -664l33 -55h8l456 719h50l-490 -754 v-475z" glyph-name="Ydieresis" horiz-adv-x="1079" unicode="Ÿ"/><glyph d="M502 1307v14l114 309h66v-14l-156 -309h-24zM63 0v14l885 1174h-878v41h954v-15l-887 -1173h858v-41h-932z" glyph-name="Zacute" horiz-adv-x="1075" unicode="Ź"/><glyph d="M70 670v39h600v-33l-547 -637h547v-39h-600v33l544 637h-544zM348 858v14l115 310h65v-15l-155 -309h-25z" glyph-name="zacute" horiz-adv-x="739" unicode="ź"/><glyph d="M63 0v14l885 1174h-878v41h954v-15l-887 -1173h858v-41h-932zM463 1541q0 32 20.5 52.5t52.5 20.5t52 -20.5t20 -52.5t-20 -52.5t-52 -20.5t-52.5 20.5t-20.5 52.5z" glyph-name="Zdotaccent" horiz-adv-x="1075" unicode="Ż"/><glyph d="M70 670v39h600v-33l-547 -637h547v-39h-600v33l544 637h-544zM307 1082q0 32 20.5 52.5t52.5 20.5t52.5 -20.5t20.5 -52.5t-20.5 -52t-52.5 -20t-52.5 20t-20.5 52z" glyph-name="zdotaccent" horiz-adv-x="739" unicode="ż"/><glyph d="M795 1628v-14l-250 -309h-60l-249 309v14h24l256 -260l254 260h25zM63 0v14l885 1174h-878v41h954v-15l-887 -1173h858v-41h-932z" glyph-name="Zcaron" horiz-adv-x="1075" unicode="Ž"/><glyph d="M70 670v39h600v-33l-547 -637h547v-39h-600v33l544 637h-544zM666 1182v-15l-250 -309h-60l-250 309v15h25l256 -260l254 260h25z" glyph-name="zcaron" horiz-adv-x="739" unicode="ž"/><glyph d="M246 -211v881h-185v39h185v342q0 313 266 313q71 0 127 -35l-18 -35q-51 31 -109 31q-115 0 -170 -65.5t-55 -208.5v-342h327v-39h-327v-881q0 -106 -39 -153.5t-110 -47.5t-132 35l19 35q47 -31 104 -31q117 0 117 162z" glyph-name="florin" horiz-adv-x="667" unicode="ƒ"/><glyph d="M453 1374q0 68 46 114t117.5 46t117.5 -46t46 -115t-41 -115t-104 -52l569 -1206h-49l-137 289h-807l-137 -289h-47l569 1206q-63 8 -103 54t-40 114zM997 330l-379 813h-8l-381 -813h768zM741 1370q0 57 -33.5 91t-91 34t-91 -34t-33.5 -91t33.5 -91t91 -34t91 34 t33.5 91zM606 1567v14l115 309h65v-14l-155 -309h-25z" glyph-name="Aringacute" horiz-adv-x="1230" unicode="Ǻ"/><glyph d="M405.5 903q-69.5 0 -116.5 46t-47 118t47 118t116.5 46t116.5 -46t47 -118t-47 -118t-116.5 -46zM530 1067q0 57 -33.5 91t-91 34t-91 -34t-33.5 -91t33.5 -91t91 -34t91 34t33.5 91zM389 1325v14l115 310h65v-15l-155 -309h-25zM70 206q0 93 75.5 152.5t221.5 59.5 q207 0 311 -105h10v86q0 287 -287 287q-66 0 -125 -15.5t-83 -29.5l-27 -14l-19 35q89 63 259 63t246.5 -90t76.5 -240v-395h-31l-10 115h-4q-54 -82 -154 -106.5t-163 -24.5q-145 0 -221 64.5t-76 157.5zM111 206q0 -81 66.5 -132t196.5 -51t221 59t91 129t-94 120t-221 50 t-193.5 -47t-66.5 -128z" glyph-name="aringacute" horiz-adv-x="862" unicode="ǻ"/><glyph d="M1749 1229v-41h-809v-559h709v-41h-709v-547h809v-41h-852v289h-647l-213 -289h-47l907 1229h852zM897 330v813h-12l-604 -813h616zM1212 1307v14l115 309h66v-14l-156 -309h-25z" glyph-name="AEacute" horiz-adv-x="1835" unicode="Ǽ"/><glyph d="M366 -16q-144 0 -220 64.5t-76 157.5t75.5 152.5t221.5 59.5q207 0 311 -105h10v86q0 287 -287 287q-66 0 -125 -15.5t-83 -29.5l-27 -14l-19 35q90 63 263 63q258 0 307 -223q39 106 124 164.5t197 58.5q164 0 254 -92t90 -250v-12h-645v-21q0 -150 99.5 -238.5 t238.5 -88.5q70 0 130.5 17t86.5 36l27 18l18 -35q-98 -76 -262 -75q-117 0 -210 54t-138 152q-31 -90 -124 -148t-237 -58zM111 206q0 -81 66.5 -132t196.5 -51t221 59t91 129t-94 120t-221 50t-193.5 -47t-66.5 -128zM1051 686q-128 0 -210.5 -72.5t-99.5 -203.5h598 q-4 117 -82 196.5t-206 79.5zM719 858v14l115 310h65v-15l-156 -309h-24z" glyph-name="aeacute" horiz-adv-x="1458" unicode="ǽ"/><glyph d="M728 -29q-275 0 -447 179l-129 -127l-33 32l131 129q-144 172 -144 440t171.5 449.5t443.5 181.5t446 -174l117 115l33 -33l-119 -116q150 -173 150 -443t-172.5 -451.5t-447.5 -181.5zM730 12q263 0 419 174t156 420t-138 412l-856 -840q156 -166 419 -166zM150 622 q0 -242 131 -409l856 840q-158 161 -418 161t-414.5 -175t-154.5 -417zM713 1307v14l114 309h66v-14l-156 -309h-24z" glyph-name="Oslashacute" horiz-adv-x="1452" unicode="Ǿ"/><glyph d="M831 344q0 -160 -106.5 -260t-262.5 -100t-257 92l-86 -86l-29 28l84 86q-84 96 -84 255t107 262.5t257 103.5t253 -86l84 84l28 -29l-84 -84q96 -106 96 -266zM461 23q135 0 231 89t96 231t-83 237l-469 -474q90 -83 225 -83zM133 362q0 -138 74 -225l467 469 q-92 80 -219 80t-224.5 -93t-97.5 -231zM449 858v14l114 310h66v-15l-156 -309h-24z" glyph-name="oslashacute" horiz-adv-x="917" unicode="ǿ"/><glyph d="M520 14q205 0 307.5 75t102.5 208q0 157 -130 218t-231 89q-100 28 -122.5 35.5t-83 28t-123.5 59.5t-96 87t-33 128q0 145 119.5 229t308.5 84q129 0 230 -27.5t138 -53.5l37 -27l-24 -37q-14 12 -41 29.5t-126.5 46t-237.5 28.5t-249.5 -71.5t-111.5 -198.5 q0 -94 71 -155.5t276 -123.5q205 -61 276 -93.5t107 -66.5t62.5 -88.5t26.5 -119.5q0 -147 -111.5 -235.5t-341.5 -88.5q-121 0 -225.5 33t-147.5 66l-45 32l29 35q16 -14 46 -34.5t130.5 -55.5t212.5 -35zM465 -127q0 23 15.5 38t39.5 15t39.5 -16t15.5 -43t-12 -47 l-53 -96h-45l39 69l18 23v4h-4q-23 0 -38 15t-15 38z" glyph-name="Scommaaccent" horiz-adv-x="1071" unicode="Ș"/><glyph d="M359 23q149 0 215.5 43t66.5 108t-57.5 102t-138 53.5t-161.5 35t-138.5 60.5t-57.5 122t75 129t217 49t241 -41l28 -14l-18 -37q-90 53 -252 53q-248 0 -248 -147q0 -106 138.5 -131t219 -42.5t138 -63.5t57.5 -129t-73.5 -136t-231.5 -53q-88 0 -161 16t-103 33l-29 16 l20 35q104 -61 253 -61zM342 -127q0 23 15 38t39 15t40.5 -16t16.5 -43t-13 -47l-53 -96h-45l39 69l18 23v4h-4q-23 0 -38 15t-15 38z" glyph-name="scommaaccent" horiz-adv-x="759" unicode="ș"/><glyph d="M1001 1229v-41h-460v-1188h-43v1188h-461v41h964zM465 -127q0 23 15.5 38t39.5 15t39.5 -16t15.5 -43t-12 -47l-53 -96h-45l39 69l18 23v4h-4q-23 0 -38 15t-15 38z" glyph-name="uni021A" horiz-adv-x="1040" unicode="Ț"/><glyph d="M446 23q56 0 109 30l18 -35q-55 -35 -127 -34q-266 0 -266 313v373h-153v39h153v215h41v-215h328v-39h-328v-373q0 -143 55.5 -208.5t169.5 -65.5zM342 -127q0 23 15 38t39 15t40.5 -16t16.5 -43t-13 -47l-53 -96h-45l39 69l18 23v4h-4q-23 0 -38 15t-15 38z" glyph-name="uni021B" horiz-adv-x="593" unicode="ț"/><glyph d="M28 -373q116 0 117 162v920h41v-920q0 -106 -38.5 -153.5t-109.5 -47.5t-132 35l18 35q46 -31 104 -31z" glyph-name="uni0237" horiz-adv-x="331" unicode="ȷ"/><glyph d="M380 725q163 0 272.5 -100.5t109.5 -270.5t-98 -270t-254 -100t-246 92t-90 250v12h645v20q0 150 -99.5 239t-238.5 89q-70 0 -130.5 -17.5t-86.5 -35.5l-27 -19l-18 35q98 76 261 76zM404 23q127 0 209.5 72.5t101.5 203.5h-598q4 -117 82 -196.5t205 -79.5z" glyph-name="uni0259" horiz-adv-x="849" unicode="ə"/><glyph d="M63 858v14l250 310h60l250 -310v-14h-25l-254 260l-256 -260h-25z" glyph-name="circumflex" horiz-adv-x="673" unicode="ˆ"/><glyph d="M623 1182v-15l-250 -309h-60l-250 309v15h25l256 -260l254 260h25z" glyph-name="caron" horiz-adv-x="698" unicode="ˇ"/><glyph d="M602 1200h43q0 -160 -79 -247t-212 -87t-212 87t-79 247h43q0 -141 66 -217t182.5 -78t182 76t65.5 219z" glyph-name="breve" horiz-adv-x="751" unicode="˘"/><glyph d="M274 1082q0 32 20.5 52.5t52.5 20.5t52.5 -20.5t20.5 -52.5t-20.5 -52t-52.5 -20t-52.5 20t-20.5 52z" glyph-name="dotaccent" horiz-adv-x="704" unicode="˙"/><glyph d="M368.5 903q-69.5 0 -116.5 46t-47 118t47 118t116.5 46t116.5 -46t47 -118t-47 -118t-116.5 -46zM494 1067q0 57 -34 91t-91.5 34t-91 -34t-33.5 -91t33.5 -91t91 -34t91.5 34t34 91z" glyph-name="ring" horiz-adv-x="606" unicode="˚"/><glyph d="M86 -151q0 58 45 103.5t90 61.5l47 17l11 -31q-16 -6 -42 -16.5t-68 -49t-42 -86.5q0 -82 86 -81q37 0 80 26l20 -31q-39 -34 -99 -34t-94 31.5t-34 89.5z" glyph-name="ogonek" horiz-adv-x="411" unicode="˛"/><glyph d="M561 932q-55 0 -143 56t-130 56t-61.5 -22.5t-31.5 -63.5l-7 -22l-30 4l6 31q23 113 127 112q53 0 140 -56t131 -56t63.5 22.5t31.5 63.5l7 22l30 -4l-6 -31q-23 -112 -127 -112z" glyph-name="tilde" horiz-adv-x="880" unicode="˜"/><glyph d="M135 858v14l115 310h65v-15l-155 -309h-25zM440 858v14l115 310h66v-15l-156 -309h-25z" glyph-name="hungarumlaut" horiz-adv-x="849" unicode="˝"/><glyph d="M35 709h852v-41h-150v-668h-41v668h-471v-668h-41v668h-149v41z" glyph-name="pi" horiz-adv-x="921" unicode="π"/><glyph d="M649 1630h66l114 -309v-14h-24l-156 309v14zM487 86l318 1143h31l307 -1104l8 -39h6l10 39l371 1104h51l-424 -1229h-26l-310 1104l-8 39h-6l-6 -39l-311 -1104h-27l-424 1229h51l371 -1104l10 -39h8z" glyph-name="Wgrave" horiz-adv-x="1636" unicode="Ẁ"/><glyph d="M338 49h4q0 8 10 39l205 621h47l203 -621q10 -31 10 -39h4q0 2 13 39l227 621h45l-264 -709h-47l-207 633q-6 18 -6 26h-4q0 -8 -7 -26l-209 -633h-47l-264 709h47l228 -621q12 -37 12 -39zM408 1182h65l115 -310v-14h-25l-155 309v15z" glyph-name="wgrave" horiz-adv-x="1157" unicode="ẁ"/><glyph d="M811 1307v14l115 309h65v-14l-155 -309h-25zM487 86l318 1143h31l307 -1104l8 -39h6l10 39l371 1104h51l-424 -1229h-26l-310 1104l-8 39h-6l-6 -39l-311 -1104h-27l-424 1229h51l371 -1104l10 -39h8z" glyph-name="Wacute" horiz-adv-x="1636" unicode="Ẃ"/><glyph d="M338 49h4q0 8 10 39l205 621h47l203 -621q10 -31 10 -39h4q0 2 13 39l227 621h45l-264 -709h-47l-207 633q-6 18 -6 26h-4q0 -8 -7 -26l-209 -633h-47l-264 709h47l228 -621q12 -37 12 -39zM573 858v14l115 310h66v-15l-156 -309h-25z" glyph-name="wacute" horiz-adv-x="1157" unicode="ẃ"/><glyph d="M588 1464.5q0 22.5 16.5 39t39 16.5t38.5 -16.5t16 -39t-16 -39t-38.5 -16.5t-39 16.5t-16.5 39zM942 1464.5q0 22.5 16.5 39t39 16.5t39 -16.5t16.5 -39t-16.5 -39t-39 -16.5t-39 16.5t-16.5 39zM487 86l318 1143h31l307 -1104l8 -39h6l10 39l371 1104h51l-424 -1229 h-26l-310 1104l-8 39h-6l-6 -39l-311 -1104h-27l-424 1229h51l371 -1104l10 -39h8z" glyph-name="Wdieresis" horiz-adv-x="1636" unicode="Ẅ"/><glyph d="M338 49h4q0 8 10 39l205 621h47l203 -621q10 -31 10 -39h4q0 2 13 39l227 621h45l-264 -709h-47l-207 633q-6 18 -6 26h-4q0 -8 -7 -26l-209 -633h-47l-264 709h47l228 -621q12 -37 12 -39zM348 989.5q0 22.5 16.5 38.5t39 16t39 -16t16.5 -38.5t-16.5 -39t-39 -16.5 t-39 16.5t-16.5 39zM702 989.5q0 22.5 16.5 38.5t39 16t39 -16t16.5 -38.5t-16.5 -39t-39 -16.5t-39 16.5t-16.5 39z" glyph-name="wdieresis" horiz-adv-x="1157" unicode="ẅ"/><glyph d="M375 1632h65l115 -309v-14h-25l-155 309v14zM561 0h-43v475l-489 754h51l424 -664l33 -55h8l456 719h50l-490 -754v-475z" glyph-name="Ygrave" horiz-adv-x="1079" unicode="Ỳ"/><glyph d="M416 49q0 14 12 39l305 621h43l-538 -1102h-45l198 407l-346 695h49l305 -621q12 -25 13 -39h4zM252 1182h65l115 -310v-14h-24l-156 309v15z" glyph-name="ygrave" horiz-adv-x="817" unicode="ỳ"/><glyph glyph-name="uni2002" horiz-adv-x="1024" unicode=" "/><glyph glyph-name="uni2003" horiz-adv-x="2048" unicode=" "/><glyph glyph-name="uni2004" horiz-adv-x="681" unicode=" "/><glyph glyph-name="uni2005" horiz-adv-x="512" unicode=" "/><glyph glyph-name="uni2007" horiz-adv-x="1228" unicode=" "/><glyph glyph-name="uni2009" horiz-adv-x="272" unicode=" "/><glyph glyph-name="uni200A" horiz-adv-x="153" unicode=" "/><glyph d="M131 569v41h672v-41h-672z" glyph-name="endash" horiz-adv-x="933" unicode="–"/><glyph d="M131 569v41h1255v-41h-1255z" glyph-name="emdash" horiz-adv-x="1517" unicode="—"/><glyph d="M217 1183.5q0 -22.5 -15.5 -38t-39.5 -15.5t-40 16.5t-16 41.5t13 49l106 193l35 -19l-82 -147l-18 -23v-4h4q23 0 38 -15.5t15 -38z" glyph-name="quoteleft" horiz-adv-x="356" unicode="‘"/><glyph d="M154 1282.5q0 22.5 15 37.5t39 15t40 -16t16 -41t-12 -49l-107 -193l-34 19l82 147l18 23v4h-4q-23 0 -38 15.5t-15 38z" glyph-name="quoteright" horiz-adv-x="360" unicode="’"/><glyph d="M45 36.5q0 22.5 15.5 38t39.5 15.5t40 -17t16 -41t-13 -48l-106 -193l-35 19l82 147l18 23v4h-4q-23 0 -38 15t-15 37.5z" glyph-name="quotesinglbase" horiz-adv-x="198" unicode="‚"/><glyph d="M217 1183.5q0 -22.5 -15.5 -38t-39.5 -15.5t-40 16.5t-16 41.5t13 49l106 193l35 -19l-82 -147l-18 -23v-4h4q23 0 38 -15.5t15 -38zM477 1183.5q0 -22.5 -15.5 -38t-39.5 -15.5t-39.5 16.5t-15.5 41.5t12 49l106 193l35 -19l-82 -147l-18 -23v-4h4q23 0 38 -15.5t15 -38 z" glyph-name="quotedblleft" horiz-adv-x="616" unicode="“"/><glyph d="M154 1282.5q0 22.5 15 37.5t39 15t40 -16t16 -41t-12 -49l-107 -193l-34 19l82 147l18 23v4h-4q-23 0 -38 15.5t-15 38zM434 1282.5q0 22.5 15 37.5t39 15t40.5 -16t16.5 -41t-13 -49l-106 -193l-35 19l82 147l19 23v4h-5q-23 0 -38 15.5t-15 38z" glyph-name="quotedblright" horiz-adv-x="641" unicode="”"/><glyph d="M45 36.5q0 22.5 15.5 38t39.5 15.5t40 -17t16 -41t-13 -48l-106 -193l-35 19l82 147l18 23v4h-4q-23 0 -38 15t-15 37.5zM510 36.5q0 22.5 15 38t39 15.5t40.5 -17t16.5 -41t-13 -48l-106 -193l-35 19l82 147l18 23v4h-4q-23 0 -38 15t-15 37.5z" glyph-name="quotedblbase" horiz-adv-x="663" unicode="„"/><glyph d="M76 637v41h313v551h43v-551h316v-41h-316l-10 -1030h-23l-10 1030h-313z" glyph-name="dagger" horiz-adv-x="823" unicode="†"/><glyph d="M106 782v41h314v406h43v-406h315v-41h-315v-553h315v-41h-315l-10 -581h-23l-10 581h-314v41h314v553h-314z" glyph-name="daggerdbl" horiz-adv-x="884" unicode="‡"/><glyph d="M184 353q0 44 31 76t75 32t75.5 -32t31.5 -76t-31.5 -74.5t-75.5 -30.5t-75 30.5t-31 74.5z" glyph-name="bullet" horiz-adv-x="581" unicode="•"/><glyph d="M47 38.5q0 24.5 16.5 41t41 16.5t41 -16.5t16.5 -41t-16.5 -40.5t-41 -16t-41 16t-16.5 40.5zM256 38.5q0 24.5 16.5 41t41 16.5t41 -16.5t16.5 -41t-16.5 -40.5t-41 -16t-41 16t-16.5 40.5zM465 38.5q0 24.5 16.5 41t41 16.5t41 -16.5t16.5 -41t-16.5 -40.5t-41 -16 t-41 16t-16.5 40.5z" glyph-name="ellipsis" horiz-adv-x="624" unicode="…"/><glyph d="M340 1255q119 0 185.5 -87t66.5 -213t-67.5 -214t-184.5 -88t-184.5 88t-67.5 214t66.5 213t185.5 87zM340 694q96 0 152.5 76t56.5 186t-55.5 184t-153.5 74t-153.5 -74.5t-55.5 -184.5t56.5 -185.5t152.5 -75.5zM1147 1212l33 -24l-961 -1155l-33 24zM1028 586 q119 0 185.5 -87t66.5 -213t-67.5 -214t-184.5 -88t-184.5 88t-67.5 214t66.5 213t185.5 87zM1028 545q-98 0 -153.5 -74.5t-55.5 -184.5t56.5 -185.5t152.5 -75.5t152.5 75.5t56.5 185.5t-55.5 184.5t-153.5 74.5zM1685.5 545q-98.5 0 -153.5 -74.5t-55 -184.5t56 -185.5 t152.5 -75.5t152.5 75.5t56 185.5t-55 184.5t-153.5 74.5zM1685.5 586q118.5 0 185 -87t66.5 -213t-67.5 -214t-184 -88t-184 88t-67.5 214t66.5 213t185 87z" glyph-name="perthousand" horiz-adv-x="2011" unicode="‰"/><glyph d="M365 688v-14l-218 -318v-6l218 -321v-15h-43l-218 320v35l218 319h43z" glyph-name="guilsinglleft" horiz-adv-x="473" unicode="‹"/><glyph d="M109 14v15l217 321v6l-217 318v14h43l217 -319v-35l-217 -320h-43z" glyph-name="guilsinglright" horiz-adv-x="473" unicode="›"/><glyph d="M-276 33l-33 24l960 1155l33 -24z" glyph-name="fraction" horiz-adv-x="368" unicode="⁄"/><glyph d="M400 1386q151 0 239 -103t88 -249t-88 -248t-239 -102t-238.5 102.5t-87.5 247.5t87.5 248.5t238.5 103.5zM399 1346q-133 0 -208.5 -91.5t-75.5 -220.5t75.5 -219t208.5 -90t210 90t77 219t-77 220.5t-210 91.5z" glyph-name="uni2070" horiz-adv-x="800" unicode="⁰"/><glyph d="M47 907v25l381 436h31v-420h114v-41h-114v-207h-41v207h-371zM418 948v344h-4l-303 -344v-6l133 6h174z" glyph-name="uni2074" horiz-adv-x="624" unicode="⁴"/><glyph d="M535 1368v-41h-377l-8 -264q74 25 186 25t178 -54.5t66 -146.5t-68 -147.5t-193 -55.5q-70 0 -134 23.5t-95 46.5l-29 24l29 29q90 -82 212 -82t179.5 44t57.5 117t-55.5 117t-135.5 44q-142 0 -196 -27l-19 -8l-22 18l10 338h414z" glyph-name="uni2075" horiz-adv-x="643" unicode="⁵"/><glyph d="M366 1174q112 0 187.5 -63.5t75.5 -176.5t-76 -181.5t-203 -68.5t-202.5 68.5t-75.5 193.5t114 244l166 178h58l-156 -166q-27 -31 -66 -57v-8q66 37 178 37zM350.5 1133q-110.5 0 -174 -52.5t-63.5 -146.5t64.5 -151.5t173 -57.5t173 57.5t64.5 151.5t-63.5 146.5 t-174 52.5z" glyph-name="uni2076" horiz-adv-x="686" unicode="⁶"/><glyph d="M537 1368v-18l-285 -650h-45l274 627h-430v41h486z" glyph-name="uni2077" horiz-adv-x="573" unicode="⁷"/><glyph d="M74 885q0 127 141 168q-119 47 -119 159q0 76 72 125t184.5 49t184 -49t71.5 -125q0 -113 -119 -159q141 -41 142 -168q0 -82 -75 -141.5t-204 -59.5t-203.5 59.5t-74.5 141.5zM352.5 1030q-114.5 0 -176 -39t-61.5 -105t63.5 -113.5t174 -47.5t174 47t63.5 114 t-61.5 105.5t-176 38.5zM352.5 1071q100.5 0 157.5 40t57 99t-60.5 97.5t-154.5 38.5t-154.5 -38t-60.5 -98t57.5 -99.5t158 -39.5z" glyph-name="uni2078" horiz-adv-x="704" unicode="⁸"/><glyph d="M324 897q-112 0 -187.5 63.5t-75.5 176.5t76 181t203 68t202.5 -69t75.5 -193t-112 -243l-168 -181h-57l157 168q22 25 66 58v8q-68 -37 -180 -37zM340 938q111 0 174.5 52t63.5 146t-64.5 152t-173.5 58t-173.5 -57.5t-64.5 -151.5t63.5 -146.5t174.5 -52.5z" glyph-name="uni2079" horiz-adv-x="690" unicode="⁹"/><glyph d="M400 430q151 0 239 -103.5t88 -248.5t-88 -247.5t-239 -102.5t-238.5 102t-87.5 248t87.5 249t238.5 103zM399 389q-133 0 -208.5 -91t-75.5 -220t75.5 -219t208.5 -90t210 90t77 219t-77 220t-210 91z" glyph-name="uni2080" horiz-adv-x="798" unicode="₀"/><glyph d="M43 371v41h205v-668h-43v627h-162z" glyph-name="uni2081" horiz-adv-x="368" unicode="₁"/><glyph d="M308 430q245 0 245 -212q0 -102 -115 -193l-299 -240h455v-41h-535v29l355 284q98 80 98 172q0 160 -201 160q-55 0 -107 -18.5t-77 -34.5l-25 -19l-22 31q102 82 228 82z" glyph-name="uni2082" horiz-adv-x="655" unicode="₂"/><glyph d="M86 371v41h465v-21l-193 -258q104 -4 165 -55t61 -141.5t-67.5 -149.5t-192.5 -59q-70 0 -134.5 23.5t-95.5 47.5l-28 23l28 28q90 -82 212 -82t179.5 47.5t57.5 121t-51.5 114.5t-141.5 41h-59v21l194 258h-399z" glyph-name="uni2083" horiz-adv-x="649" unicode="₃"/><glyph d="M49 -49v24l381 437h31v-420h114v-41h-114v-207h-41v207h-371zM420 -8v344h-4l-303 -344v-6l133 6h174z" glyph-name="uni2084" horiz-adv-x="626" unicode="₄"/><glyph d="M304 90q-122 0 -173 -35l-22 19l10 338h413v-41h-376l-9 -265q74 25 187 25t178.5 -54.5t65.5 -146.5t-68 -147t-193 -55q-70 0 -134 23.5t-93 47.5l-31 23l29 28q90 -82 212 -82t179.5 45t57.5 117t-55.5 116t-177.5 44z" glyph-name="uni2085" horiz-adv-x="641" unicode="₅"/><glyph d="M366 217q114 0 188.5 -63.5t74.5 -175.5t-76 -181t-203 -69t-202.5 68.5t-75.5 193.5t114 243l166 179h58l-156 -166q-18 -21 -66 -58v-8q64 37 178 37zM350.5 176q-110.5 0 -174 -52t-63.5 -146t64.5 -151.5t173 -57.5t173 57.5t64.5 151.5t-63.5 146t-174 52z" glyph-name="uni2086" horiz-adv-x="686" unicode="₆"/><glyph d="M537 412v-19l-285 -649h-45l274 627h-430v41h486z" glyph-name="uni2087" horiz-adv-x="573" unicode="₇"/><glyph d="M74 -72q0 127 141 168q-119 47 -119 160q0 76 72 125t184.5 49t184 -49t71.5 -125q0 -113 -119 -160q141 -41 142 -168q0 -82 -75 -141t-204 -59t-203.5 59t-74.5 141zM352.5 74q-114.5 0 -176 -39t-61.5 -106t63.5 -113.5t174 -46.5t174 47.5t63.5 113.5t-61.5 105 t-176 39zM352.5 115q100.5 0 157.5 40t57 99t-60.5 97t-154.5 38t-154.5 -38t-60.5 -97t57.5 -99t158 -40z" glyph-name="uni2088" horiz-adv-x="704" unicode="₈"/><glyph d="M316 -59q-110 0 -184.5 63.5t-74.5 175.5t76 181t203 69t202.5 -68.5t75.5 -193.5t-112 -244l-168 -180h-58l158 168q32 37 58 51l8 6v8q-74 -36 -184 -36zM335.5 -18q110.5 0 174 52t63.5 146t-64.5 151.5t-173 57.5t-173 -57.5t-64.5 -151.5t63.5 -146t174 -52z" glyph-name="uni2089" horiz-adv-x="686" unicode="₉"/><glyph d="M94 610q0 258 159 438.5t404 202.5l31 174h47l-30 -172l20 2q82 0 160 -20l33 190h47l-37 -202q63 -23 117.5 -55.5t76.5 -53.5l21 -22l-25 -33q-70 76 -196 123l-205 -1170h8q117 0 215 41t137 82l41 39l25 -33q-170 -170 -418 -170l-16 2l-31 -182h-47l31 184 q-84 6 -175 39l-38 -223h-48l41 242q-160 76 -254 230.5t-94 346.5zM137 610q0 -170 84 -313t230 -219l198 1130q-227 -27 -369.5 -198t-142.5 -400zM725 1214l-27 -2l-202 -1155q88 -37 174 -43l207 1180q-76 20 -152 20z" glyph-name="colonmonetary" horiz-adv-x="1245" unicode="₡"/><glyph d="M1266 1229v-305h84v-41h-84v-523h84v-41h-84v-319h-19l-270 319h-686v-319h-43v319h-133v41h133v523h-133v41h133v305h18l258 -305h699v305h43zM1223 360v523h-664l442 -523h222zM291 883v-523h651l-442 523h-209zM1223 319h-187l187 -219v219zM291 924h174l-174 206 v-206z" glyph-name="uni20A6" horiz-adv-x="1503" unicode="₦"/><glyph d="M213 0v1229h453q231 0 354 -100.5t123 -280.5t-92.5 -276.5t-251.5 -120.5v-9l356 -428v-14h-41l-371 444h-487v-444h-43zM1100 835q0 176 -115 264.5t-317 88.5h-412v-703h442q178 0 290 87t112 263zM1542 23q148 0 215.5 43t67.5 108t-57.5 102t-138.5 53.5t-219 48 t-138 161.5q0 88 74.5 137t216.5 49q78 0 145.5 -14.5t95.5 -26.5l29 -14l-18 -37q-90 53 -252 53q-248 0 -248 -147q0 -106 138 -131t219 -42.5t138.5 -63.5t57.5 -129t-74 -136t-231 -53q-88 0 -161 16t-104 33l-28 16l20 35q104 -61 252 -61z" glyph-name="uni20A8" horiz-adv-x="1959" unicode="₨"/><glyph d="M1788 360v-41h-371l-110 -319h-27l-90 319h-461l-90 -319h-27l-110 319h-375v41h360l-180 523h-180v41h166l-105 305h52l102 -305h518l86 305h31l84 -305h514l104 305h52l-107 -305h164v-41h-178l-178 -523h356zM356 883l174 -523h172l146 523h-492zM1073 883l146 -523 h167l177 523h-490zM887 883l-148 -523h439l-146 523h-145zM637 125l53 194h-145l65 -194l11 -39h8zM1298 86l76 233h-145l55 -194l8 -39h6zM950 1104l-51 -180h121l-49 180l-8 39h-7z" glyph-name="uni20A9" horiz-adv-x="1914" unicode="₩"/><glyph d="M870 709v-709h-188q-121 0 -173 57.5t-89 198.5l-41 160h41l41 -156q31 -117 75 -169t150 -52h143v670h41zM190 0v709h240q123 0 187.5 -67t64.5 -189v-160h-41v156q0 221 -215 221h-195v-670h-41z" glyph-name="afii57636" horiz-adv-x="1060" unicode="₪"/><glyph d="M870 492v-41h-551q37 -186 159 -301t319 -115q94 0 172 32.5t108 65.5l31 33l29 -29q-10 -15 -88 -79t-252 -64q-217 0 -350.5 126t-172.5 331h-176v41h170q-8 50 -8 120t8 121h-170v41h176q37 207 170.5 335t352.5 128q211 0 342 -141l-31 -31q-12 14 -33.5 35.5 t-102.5 58.5t-175 37q-199 0 -321 -116.5t-157 -305.5h551v-41h-557q-8 -51 -8 -121t8 -120h557z" glyph-name="Euro" horiz-adv-x="1249" unicode="€"/><glyph d="M244 1055q0 133 77.5 223t204.5 90t205 -90t78 -224t-54.5 -223.5t-162.5 -177.5l-307 -247v-121q0 -125 62.5 -192.5t176.5 -67.5q49 0 95.5 18t68.5 37l23 18l20 -30q-22 -28 -86.5 -56t-120.5 -28q-133 0 -206.5 78.5t-73.5 222.5v90l-144 -99l-18 23l162 129v627z M285 1055v-594l309 248q174 141 174 346q0 117 -66.5 195.5t-175 78.5t-175 -78.5t-66.5 -195.5z" glyph-name="afii61289" horiz-adv-x="843" unicode="ℓ"/><glyph d="M1069 779q0 -200 -132 -336t-350 -136t-349.5 136.5t-131.5 336.5t131.5 335.5t349.5 135.5t350 -136t132 -336zM1024 779q0 183 -120 307t-318 124t-316 -123t-118 -307t118.5 -308t316.5 -124t317.5 124t119.5 307zM428 979h182q82 0 134.5 -41t52.5 -115t-54.5 -113.5 t-138.5 -39.5h-131v-105h-45v414zM610 938h-137v-227h131q66 0 107 29.5t41 83.5t-39.5 84t-102.5 30z" glyph-name="uni2117" horiz-adv-x="1175" unicode="℗"/><glyph d="M1382 1229v-654h-45v578l-254 -235h-26l-250 233v-576h-45v654h26l283 -268q128 122 287 268h24zM364 1233q85 0 138 -14.5t71 -28.5l21 -14l-27 -35q-49 51 -184 51q-80 0 -133 -32t-53 -86t44.5 -83t114.5 -53t123 -42.5t95 -60.5t42 -110t-59 -114t-184 -46 q-63 0 -117.5 17.5t-77.5 35.5l-22 17l26 35q66 -63 191 -64q197 0 196 127q0 91 -187 147q-104 31 -167 72.5t-63 117.5q0 75 63.5 119t148.5 44z" glyph-name="uni2120" horiz-adv-x="1548" unicode="℠"/><glyph d="M778 575h-45v654h27l282 -268l287 268h25v-654h-45v578l-254 -238h-27l-250 236v-576zM584 1229v-41h-230v-613h-45v613h-227v41h502z" glyph-name="trademark" horiz-adv-x="1521" unicode="™"/><glyph d="M117 0v41h391q-172 61 -278.5 223t-106.5 350q0 264 172 452.5t472 188.5t472 -188t172 -453q0 -188 -106.5 -350t-278.5 -223h393v-41h-577v41q221 0 374.5 174.5t153.5 410.5t-159.5 412t-442.5 176t-443.5 -176t-160.5 -410t154.5 -410.5t375.5 -176.5v-41h-577z" glyph-name="uni2126" horiz-adv-x="1533" unicode="Ω"/><glyph d="M1393 592h-1217v-152q51 -188 203.5 -307t372.5 -119q98 0 182 17.5t119 34.5l34 18l21 -39q-117 -72 -356 -72q-279 0 -460 181.5t-181 457.5t180 459.5t460.5 183.5t461 -183t180.5 -462v-18zM751.5 1214q-219.5 0 -372 -120.5t-203.5 -311.5v-149h1151v149 q-51 190 -203.5 311t-372 121z" glyph-name="estimated" horiz-adv-x="1470" unicode="℮"/><glyph d="M883 625v41h465v-21l-193 -258q104 -4 164.5 -55t60.5 -141.5t-67.5 -149.5t-192.5 -59q-70 0 -134 23.5t-93 47.5l-31 23l29 28q89 -82 211 -82t179.5 47.5t57.5 121t-51 114.5t-141 41h-60v21l195 258h-399zM145 31l-32 24l960 1155l33 -24zM90 1188v41h205v-668h-43 v627h-162z" glyph-name="onethird" horiz-adv-x="1474" unicode="⅓"/><glyph d="M1147 627v41h465v-21l-193 -258q104 -4 165 -55t61 -141.5t-68 -149.5t-193 -59q-70 0 -134 23.5t-95 45.5l-29 25l29 28q89 -82 211 -82t180 47.5t58 121t-51.5 114.5t-141.5 41h-59v21l194 258h-399zM351 1247q245 1 245 -211q0 -102 -115 -194l-299 -240h455v-41h-535 v29l355 284q98 80 98 173q0 160 -201 159q-55 0 -107 -17.5t-77 -35.5l-25 -18l-22 30q102 82 228 82zM422 29l-33 24l961 1155l32 -24z" glyph-name="twothirds" horiz-adv-x="1738" unicode="⅔"/><glyph d="M842 184q0 127 141 168q-119 47 -119 160q0 76 72 125t184.5 49t184 -49t71.5 -125q0 -113 -119 -160q141 -41 142 -168q0 -82 -75 -141t-204 -59t-203.5 59t-74.5 141zM1120.5 330q-114.5 0 -176 -39t-61.5 -106t63.5 -113.5t174 -46.5t174 47.5t63.5 113.5t-61.5 105 t-176 39zM1120.5 371q100.5 0 157.5 40t57 99t-60.5 97t-154.5 38t-154.5 -38t-60.5 -97t57.5 -99t158 -40zM145 31l-32 24l960 1155l33 -24zM90 1188v41h205v-668h-43v627h-162z" glyph-name="oneeighth" horiz-adv-x="1482" unicode="⅛"/><glyph d="M954 184q0 127 142 168q-119 47 -119 160q0 76 71.5 125t184.5 49t184.5 -49t71.5 -125q0 -113 -119 -160q141 -41 141 -168q0 -82 -74.5 -141t-203.5 -59t-204 59t-75 141zM1233 330q-115 0 -176.5 -39t-61.5 -106t63.5 -113.5t174 -46.5t174 47.5t63.5 113.5t-61 105 t-176 39zM1233 371q100 0 157.5 40t57.5 99t-60.5 97t-154.5 38t-154.5 -38t-60.5 -97t57.5 -99t157.5 -40zM119 1188v41h465v-21l-193 -258q104 -4 164.5 -55t60.5 -141t-67.5 -149.5t-192.5 -59.5q-70 0 -134 23.5t-95 45.5l-29 25l29 29q89 -82 211 -82t179.5 47 t57.5 120.5t-51 114.5t-141 41h-59v21l194 258h-399zM393 31l-33 24l961 1155l33 -24z" glyph-name="threeeighths" horiz-adv-x="1605" unicode="⅜"/><glyph d="M938 184q0 127 141 168q-119 47 -118 160q0 76 71.5 125t184 49t184.5 -49t72 -125q0 -113 -119 -160q141 -41 141 -168q0 -82 -74.5 -141t-204 -59t-204 59t-74.5 141zM1216.5 330q-114.5 0 -176 -39t-61.5 -106t63.5 -113.5t174 -46.5t174 47.5t63.5 113.5t-61.5 105 t-176 39zM1216.5 371q100.5 0 158 40t57.5 99t-60.5 97t-155 38t-155 -38t-60.5 -97t57.5 -99t158 -40zM340 907q-112 0 -182 -35l-23 19l10 338h414v-41h-377l-8 -264q74 24 186 24t178 -54t66 -146t-67.5 -147.5t-192.5 -55.5q-70 0 -134.5 23.5t-94.5 45.5l-29 25l29 29 q89 -82 211 -82t179.5 44t57.5 116t-55.5 116.5t-167.5 44.5zM377 31l-33 24l961 1155l32 -24z" glyph-name="fiveeighths" horiz-adv-x="1589" unicode="⅝"/><glyph d="M899 184q0 127 141 168q-119 47 -118 160q0 76 71.5 125t184 49t184.5 -49t72 -125q0 -113 -119 -160q141 -41 141 -168q0 -82 -74.5 -141t-203.5 -59t-204 59t-75 141zM1177.5 330q-114.5 0 -176 -39t-61.5 -106t63.5 -113.5t174 -46.5t174 47.5t63.5 113.5t-61.5 105 t-176 39zM1177.5 371q100.5 0 158 40t57.5 99t-60.5 97t-155 38t-154.5 -38t-60 -97t57 -99t157.5 -40zM338 31l-33 24l961 1155l32 -24zM557 1229v-19l-285 -649h-45l275 627h-430v41h485z" glyph-name="seveneighths" horiz-adv-x="1552" unicode="⅞"/><glyph d="M391 1229h39l383 -574q59 -88 84 -153.5t25 -155.5q0 -166 -119 -270.5t-299 -104.5t-299 104.5t-119 265.5t115 267.5t287 106.5t286 -82v8q-25 24 -41 51l-342 518v19zM503.5 10q155.5 0 265.5 96t110 244t-110.5 237t-266.5 89t-264.5 -95.5t-108.5 -237.5 t109.5 -237.5t265 -95.5z" glyph-name="partialdiff" horiz-adv-x="1011" unicode="∂"/><glyph d="M57 0v18l572 1211h18l572 -1211v-18h-1162zM633 1143l-518 -1102h1042l-516 1102h-8z" glyph-name="uni2206" horiz-adv-x="1275" unicode="∆"/><glyph d="M1165 1229v-1229h-43v1188h-866v-1188h-43v1229h952z" glyph-name="product" horiz-adv-x="1378" unicode="∏"/><glyph d="M92 1229h758v-41h-705l471 -565v-15l-471 -567h705v-41h-758v41l469 563v21l-469 563v41z" glyph-name="summation" horiz-adv-x="956" unicode="∑"/><glyph d="M123 592v41h754v-41h-754z" glyph-name="minus" horiz-adv-x="1017" unicode="−"/><glyph d="M49 739.5q0 22.5 16.5 39t39 16.5t39 -16.5t16.5 -39t-16.5 -39t-39 -16.5t-39 16.5t-16.5 39z" glyph-name="uni2219" horiz-adv-x="208" unicode="∙"/><glyph d="M457 -344q0 14 12 39l760 1534h47l-809 -1622h-27l-407 817h49l358 -729q12 -25 13 -39h4z" glyph-name="radical" horiz-adv-x="1280" unicode="√"/><glyph d="M456 248q-144 0 -237.5 97t-93.5 239t93.5 242t237.5 100t227 -78t151 -217q68 137 151 216t223 79t238 -93.5t98 -240.5t-91 -245.5t-237 -98.5t-230.5 77.5t-151.5 213.5q-68 -137 -151 -214t-227 -77zM1203 885q-126 0 -203.5 -80t-143.5 -219q68 -139 145.5 -218 t208.5 -79t212 86t81 216t-87 212t-213 82zM460 289q130 0 207.5 80t143.5 217q-68 141 -144.5 220t-206.5 79t-212 -87t-82 -213t82 -211t212 -85z" glyph-name="infinity" horiz-adv-x="1669" unicode="∞"/><glyph d="M276 -33v1161q0 106 39 153.5t113 47.5t129 -35l-18 -34q-47 30 -105 30q-118 -1 -117 -162v-1161q0 -106 -38.5 -153t-116.5 -47t-125 34l18 35q47 -31 105 -31q116 0 116 162z" glyph-name="integral" horiz-adv-x="591" unicode="∫"/><glyph d="M565 397q-55 0 -143 56.5t-130 56.5t-61.5 -22.5t-31.5 -63.5l-6 -23l-31 5l6 30q23 113 127 113q53 0 140 -56.5t131 -56.5t63.5 22.5t32.5 63.5l6 23l30 -4l-6 -31q-23 -113 -127 -113zM565 774q-55 0 -143 56.5t-130 56.5t-61.5 -22.5t-31.5 -63.5l-6 -23l-31 4l6 31 q23 113 127 113q53 0 140 -56.5t131 -56.5t63.5 22.5t32.5 63.5l6 23l30 -4l-6 -31q-23 -113 -127 -113z" glyph-name="approxequal" horiz-adv-x="858" unicode="≈"/><glyph d="M141 809v41h404l94 246l45 -17l-88 -229h213v-41h-227l-174 -453h401v-41h-416l-92 -239l-45 16l84 223h-199v41h215l172 453h-387z" glyph-name="notequal" horiz-adv-x="952" unicode="≠"/><glyph d="M612 477l-28 -28l-383 342v18l383 358l28 -28l-360 -338zM715 274v-41h-563v41h563z" glyph-name="lessequal" horiz-adv-x="854" unicode="≤"/><glyph d="M270 449l-28 28l360 324l-360 338l28 28l383 -358v-18zM139 233v41h563v-41h-563z" glyph-name="greaterequal" horiz-adv-x="854" unicode="≥"/><glyph d="M442 1229l336 -615l-336 -614h-18l-336 614l336 615h18zM141 612l285 -526h14l283 526l-283 531h-14z" glyph-name="lozenge" horiz-adv-x="866" unicode="◊"/><glyph d="M170 -127q0 23 15 38t39 15t40.5 -16t16.5 -43t-13 -47l-53 -96h-45l39 69l18 23v4h-4q-23 0 -38 15t-15 38z" glyph-name="uniF6C3" horiz-adv-x="438" unicode=""/><glyph d="M578 670h-328v-670h-41v670h-184v39h184v342q0 313 266 313q78 0 127 -35l-18 -35q-41 31 -109 31q-115 0 -170 -65.5t-55 -208.5v-342h328v-39zM1270 670h-328v-670h-41v670h-184v39h184v342q0 313 266 313q78 0 127 -35l-18 -35q-41 31 -109 31q-115 0 -170 -65.5 t-55 -208.5v-342h328v-39z" glyph-name="uniFB00" horiz-adv-x="1286" unicode="ﬀ"/><glyph d="M580 670h-328v-670h-41v670h-184v39h184v342q0 313 266 313q78 0 127 -35l-18 -35q-41 31 -109 31q-115 0 -170 -65.5t-55 -208.5v-342h328v-39zM834 1040q-43 0 -43 41q0 18 12 30.5t30.5 12.5t31 -12t12.5 -31q0 -41 -43 -41zM813 0v709h41v-709h-41z" glyph-name="uniFB01" horiz-adv-x="1007" unicode="ﬁ"/><glyph d="M580 670h-328v-670h-41v670h-184v39h184v342q0 313 266 313q78 0 127 -35l-18 -35q-41 31 -109 31q-115 0 -170 -65.5t-55 -208.5v-342h328v-39zM791 0v1368h40v-1368h-40z" glyph-name="uniFB02" horiz-adv-x="985" unicode="ﬂ"/><glyph d="M580 670h-328v-670h-41v670h-184v39h184v342q0 313 266 313q78 0 127 -35l-18 -35q-41 31 -109 31q-115 0 -170 -65.5t-55 -208.5v-342h328v-39zM1270 670h-328v-670h-41v670h-184v39h184v342q0 313 266 313q78 0 127 -35l-18 -35q-41 31 -109 31q-115 0 -170 -65.5 t-55 -208.5v-342h328v-39zM1534 1040q-43 0 -43 41q0 18 12.5 30.5t30.5 12.5t30.5 -12t12.5 -31q0 -41 -43 -41zM1513 0v709h41v-709h-41z" glyph-name="uniFB03" horiz-adv-x="1708" unicode="ﬃ"/><glyph d="M580 670h-328v-670h-41v670h-184v39h184v342q0 313 266 313q78 0 127 -35l-18 -35q-41 31 -109 31q-115 0 -170 -65.5t-55 -208.5v-342h328v-39zM1270 670h-328v-670h-41v670h-184v39h184v342q0 313 266 313q78 0 127 -35l-18 -35q-41 31 -109 31q-115 0 -170 -65.5 t-55 -208.5v-342h328v-39zM1483 0v1368h41v-1368h-41z" glyph-name="uniFB04" horiz-adv-x="1677" unicode="ﬄ"/><glyph d="M362 641h177q139 0 227 70.5t88 198.5t-103.5 217.5t-256.5 89.5q-92 0 -180.5 -43.5t-129.5 -86.5l-43 -43l-26 33q17 22 116.5 100t269.5 78q171 0 283.5 -97t112.5 -257q0 -102 -57.5 -172t-153.5 -100q113 -27 182.5 -103.5t69.5 -197.5q0 -160 -112.5 -257.5 t-293.5 -97.5t-279.5 71t-117.5 89l-20 19l26 32q109 -109 218.5 -140.5t175.5 -31.5q154 0 257 89t103 223t-88 208t-227 74h-218v35z" glyph-name="three.ss03" horiz-adv-x="1058"/><glyph d="M746 1229q288 0 461 -177.5t173 -439.5t-173 -439t-461 -177t-460.5 177t-172.5 439t172.5 439.5t460.5 177.5zM746 1188q-267 0 -427.5 -165t-160.5 -410.5t160.5 -410.5t427.5 -165t428 165t161 410.5t-161 410.5t-428 165zM537 309v611h260q121 0 186.5 -56.5 t65.5 -168.5t-65.5 -171t-186.5 -59h-217v-156h-43zM1004 698q0 90 -55.5 135.5t-151.5 45.5h-217v-373h217q207 -1 207 192z" glyph-name="glyph431" horiz-adv-x="1492"/><glyph d="M746 1229q288 0 461 -177.5t173 -439.5t-173 -439t-461 -177t-460.5 177t-172.5 439t172.5 439.5t460.5 177.5zM746 1188q-267 0 -427.5 -165t-160.5 -410.5t160.5 -410.5t427.5 -165t428 165t161 410.5t-161 410.5t-428 165zM512 309v611h260q252 0 252 -211 q0 -174 -174 -207v-4l123 -176v-13h-43l-129 187h-246v-187h-43zM772 537q207 0 207 171t-207 171h-217v-342h217z" glyph-name="glyph432" horiz-adv-x="1492"/><glyph d="M1141 899q0 -209 -209 -278v-7q117 -29 186.5 -102t69.5 -188q0 -168 -122 -246t-323 -78h-153l-37 -209h-47l37 209h-330v1229h494l51 -2l35 198h47l-35 -202q336 -39 336 -324zM709 1188h-453v-553h397l97 551q-14 2 -41 2zM1145 321q0 144 -113.5 208.5t-294.5 64.5 h-43l-98 -553h149q178 0 289 68t111 212zM256 594v-553h293l98 553h-391zM1098 899q0 250 -301 283l-97 -547h9q389 0 389 264z" glyph-name="glyph433" horiz-adv-x="1294"/><glyph d="M696 1229q229 0 352 -99.5t126 -293.5h147v-41h-150q-10 -184 -133 -277.5t-342 -93.5h-409v-424h-43v795h-158v41h158v393h452zM287 1188v-352h843q-2 178 -116.5 265t-315.5 87h-411zM698 465q190 0 304 82t126 248h-841v-330h411z" glyph-name="glyph434" horiz-adv-x="1392"/><glyph d="M203 0v1229h452q231 0 354.5 -100.5t123.5 -280.5t-92.5 -276.5t-252.5 -120.5v-9l357 -428v-14h-41l-371 444h-487v-444h-43zM1090 835q0 176 -115 264.5t-318 88.5h-411v-703h442q178 0 290 87t112 263zM1315 182v-575h-41v1102h31l10 -183h2q6 25 36.5 64t63.5 65.5 t92.5 48t130.5 21.5q152 0 256.5 -103.5t104.5 -267.5t-104.5 -267t-251.5 -103t-224.5 65.5t-95.5 112.5l-8 20h-2zM1313 354.5q0 -151.5 96 -241.5t231.5 -90t226.5 93t91 238.5t-91 238.5t-226.5 93t-231.5 -90t-96 -241.5z" glyph-name="glyph435" horiz-adv-x="2088"/><glyph d="M1231 645q-125 0 -209 -72l-23 31l27 21q27 20 84 40.5t121 20.5q123 0 182.5 -55t59.5 -157t-115 -193l-299 -240h454v-41h-534v29l354 284q98 80 99 172q0 160 -201 160zM258 31l-33 24l961 1155l33 -24zM115 1188v41h204v-627h158v-41h-362v41h161v586h-161z" glyph-name="onehalf.aalt" horiz-adv-x="1591"/><glyph d="M1020 625v41h465v-21l-193 -258q104 -4 165 -55t61 -141.5t-68 -149.5t-193 -59q-70 0 -134 23.5t-95 47.5l-29 23l29 28q90 -82 212 -82t179.5 47.5t57.5 121t-51.5 114.5t-141.5 41h-59v21l194 258h-399zM258 31l-33 24l961 1155l33 -24zM115 1188v41h204v-627h158v-41 h-362v41h161v586h-161z" glyph-name="onethird.aalt" horiz-adv-x="1611"/><glyph d="M815 207v24l381 437h31v-420h114v-41h-114v-207h-41v207h-371zM258 31l-33 24l961 1155l33 -24zM1186 248v344h-4l-303 -344v-6l133 6h174zM115 1188v41h204v-627h158v-41h-362v41h161v586h-161z" glyph-name="onequarter.aalt" horiz-adv-x="1421"/><glyph d="M1115 346q-108 0 -187 -35l-23 19l10 338h414v-41h-377l-8 -265q74 25 186 25t178 -54.5t66 -146.5t-67.5 -147t-192.5 -55q-70 0 -134.5 23.5t-94.5 45.5l-29 25l29 28q89 -82 211 -82t179.5 45t57.5 117t-55 116t-163 44zM145 31l-32 24l960 1155l33 -24zM90 1229h205 v-668h-43v627h-162v41z" glyph-name="one_fraction_five.frac" horiz-adv-x="1468"/><glyph d="M1307 346q-110 0 -185 -35l-22 19l10 338h414v-41h-377l-8 -265q75 25 187 25t177.5 -54.5t65.5 -146.5t-67.5 -147t-192.5 -55q-70 0 -134.5 23.5t-93.5 45.5l-30 25l28 28q90 -82 212 -82t179.5 45t57.5 117t-55.5 116t-165.5 44zM311 31l-32 24l960 1155l33 -24z M111 1188v41h204v-627h158v-41h-362v41h161v586h-161z" glyph-name="one_fraction_five.frac.ss04" horiz-adv-x="1662"/><glyph d="M1385 346q-110 0 -185 -35l-22 19l10 338h414v-41h-377l-8 -265q75 25 187 25t177.5 -54.5t65.5 -146.5t-68 -147t-193 -55q-70 0 -134 23.5t-93 45.5l-31 25l29 28q89 -82 211 -82t180 45t58 117t-55.5 116t-165.5 44zM351 1247q245 1 245 -211q0 -102 -115 -194 l-299 -240h455v-41h-535v29l355 284q98 80 98 173q0 160 -201 159q-55 0 -107 -17.5t-77 -35.5l-25 -18l-22 30q102 82 228 82zM422 29l-33 24l961 1155l32 -24z" glyph-name="two_fraction_five.frac" horiz-adv-x="1740"/><glyph d="M1205 346q-108 0 -187 -35l-23 19l11 338h413v-41h-377l-8 -265q74 25 186 25t178 -54.5t66 -146.5t-67.5 -147t-192.5 -55q-70 0 -134 23.5t-95 45.5l-29 25l29 28q89 -82 211 -82t179.5 45t57.5 117t-55 116t-163 44zM119 1188v41h465v-21l-193 -258q104 -4 164.5 -55 t60.5 -141t-67.5 -149.5t-192.5 -59.5q-70 0 -134 23.5t-95 45.5l-29 25l29 29q89 -82 211 -82t179.5 47t57.5 120.5t-51 114.5t-141 41h-59v21l194 258h-399zM393 31l-33 24l961 1155l33 -24z" glyph-name="three_fraction_five.frac" horiz-adv-x="1566"/><glyph d="M72 768v25l381 436h30v-420h115v-41h-115v-207h-41v207h-370zM1563 668v-41h-377l-8 -265q74 25 186 25t178 -54.5t66 -146.5t-67.5 -147t-192.5 -55q-70 0 -134.5 23.5t-95.5 45.5l-28 25l28 28q90 -82 212 -82t179.5 45t57.5 117t-55.5 116t-135.5 44q-148 0 -196 -27 l-19 -8l-22 19l10 338h414zM383 29l-33 24l961 1155l32 -24zM442 809v344h-4l-303 -344v-6l133 6h174z" glyph-name="four_fraction_five.frac" horiz-adv-x="1705"/><glyph d="M1136 473q112 0 187.5 -63.5t75.5 -175.5t-76 -181t-203 -69t-202.5 68.5t-75.5 193.5t114 243l166 179h58l-156 -166q-18 -21 -66 -58v-8q66 37 178 37zM1120.5 432q-110.5 0 -174 -52t-63.5 -146t64.5 -151.5t173 -57.5t173 57.5t64.5 151.5t-63.5 146t-174 52zM147 31 l-32 24l960 1155l33 -24zM92 1188v41h205v-668h-43v627h-162z" glyph-name="one_fraction_six.frac" horiz-adv-x="1472"/><glyph d="M1284 473q112 0 187 -63.5t75 -175.5t-75.5 -181t-202.5 -69t-203 68.5t-76 193.5t115 243l166 179h57l-156 -166q-31 -35 -57 -51l-8 -7v-8q66 37 178 37zM1267.5 432q-110.5 0 -174 -52t-63.5 -146t64.5 -151.5t173 -57.5t173 57.5t64.5 151.5t-63.5 146t-174 52z M313 31l-32 24l960 1155l33 -24zM113 1188v41h204v-627h158v-41h-362v41h161v586h-161z" glyph-name="one_fraction_six.frac.ss04" horiz-adv-x="1619"/><glyph d="M1314 473q114 0 188.5 -63.5t74.5 -175.5t-76 -181t-203 -69t-202.5 68.5t-75.5 193.5t115 243l165 179h58l-156 -166q-28 -32 -65 -58v-8q63 37 177 37zM1298.5 432q-110.5 0 -174 -52t-63.5 -146t64.5 -151.5t173 -57.5t173 57.5t64.5 151.5t-63.5 146t-174 52z M344 907q-112 0 -182 -35l-23 19l11 338h413v-41h-377l-8 -264q74 24 186 24t178 -54t66 -146t-67.5 -147.5t-192.5 -55.5q-70 0 -134 23.5t-95 45.5l-29 25l29 29q89 -82 211 -82t179.5 44t57.5 116t-55.5 116.5t-167.5 44.5zM326 31l-33 24l960 1155l33 -24z" glyph-name="five_fraction_six.frac" horiz-adv-x="1650"/><glyph d="M1028 184q0 127 141 168q-119 47 -118 160q0 76 71.5 125t184 49t184.5 -49t72 -125q0 -113 -119 -160q141 -41 141 -168q0 -82 -74.5 -141t-203.5 -59t-204 59t-75 141zM1306.5 330q-114.5 0 -176 -39t-61.5 -106t63.5 -113.5t174 -46.5t174 47.5t63.5 113.5t-61.5 105 t-176 39zM1306.5 371q100.5 0 158 40t57.5 99t-60.5 97t-155 38t-154.5 -38t-60 -97t57 -99t157.5 -40zM356 31l-32 24l960 1155l33 -24zM311 1229v-627h158v-41h-363v41h162v586h-162v41h205z" glyph-name="oneeighth.aalt" horiz-adv-x="1671"/><glyph d="M395 641h176q139 0 227.5 70.5t88.5 198.5t-103.5 217.5t-257.5 89.5q-92 0 -180 -43.5t-129 -86.5l-43 -43l-27 33q15 20 116 99t271 79t283 -97t113 -257q0 -102 -57.5 -172t-153.5 -100q113 -27 182.5 -103.5t69.5 -197.5q0 -160 -113 -257.5t-293 -97.5t-279.5 71 t-117.5 89l-21 19l27 32q109 -109 218.5 -140.5t174.5 -31.5q154 0 257.5 89t103.5 223t-88 208t-228 74h-217v35z" glyph-name="three.tnum.ss03"/><glyph d="M225 38.5q0 22.5 16.5 39t39 16.5t39 -16.5t16.5 -39t-16.5 -38.5t-39 -16t-39 16t-16.5 38.5z" glyph-name="period.aalt" horiz-adv-x="563"/><glyph d="M246 36.5q0 22.5 15 38t39 15.5t40 -17t16 -41t-12 -48l-106 -193l-35 19l82 147l18 23v4h-4q-23 0 -38 15t-15 37.5z" glyph-name="comma.aalt" horiz-adv-x="563"/><glyph d="M225 49.5q0 22.5 16.5 38.5t39 16t39 -16t16.5 -38.5t-16.5 -39t-39 -16.5t-39 16.5t-16.5 39zM225 1079.5q0 22.5 16.5 39t39 16.5t39 -16.5t16.5 -39t-16.5 -39t-39 -16.5t-39 16.5t-16.5 39z" glyph-name="colon.tnum" horiz-adv-x="563"/><glyph d="M240 47.5q0 22.5 15 37.5t39 15t40 -16t16 -43t-12 -47l-96 -174h-45l82 147l18 23v4h-4q-23 0 -38 15.5t-15 38zM244 1079.5q0 22.5 16 39t39 16.5t39 -16.5t16 -39t-16 -39t-39 -16.5t-39 16.5t-16 39z" glyph-name="semicolon.tnum" horiz-adv-x="563"/><glyph d="M205 38.5q0 22.5 16.5 39t39 16.5t38.5 -16.5t16 -39t-16 -38.5t-38.5 -16t-39 16t-16.5 38.5zM600 38.5q0 22.5 16.5 39t39 16.5t39 -16.5t16.5 -39t-16.5 -38.5t-39 -16t-39 16t-16.5 38.5z" glyph-name="glyph453" horiz-adv-x="921"/><glyph d="M223 739.5q0 22.5 16.5 39t39 16.5t39 -16.5t16.5 -39t-16.5 -39t-39 -16.5t-39 16.5t-16.5 39z" glyph-name="periodcentered.aalt" horiz-adv-x="563"/><glyph d="M813 1440l-453 -1800h-47l453 1800h47z" glyph-name="slash.tnum"/><glyph d="M584 1378v-1689h-43v1689h43z" glyph-name="bar.tnum"/><glyph d="M180 -82v41h754v-41h-754z" glyph-name="underscore.aalt"/><glyph d="M553 14q197 0 293 75t96 209t-99 197.5t-286 122.5q-186 58 -256 99q-137 82 -137 225t111.5 227t289.5 86v205h41v-207q111 -4 198 -30.5t120 -51.5l32 -24l-24 -37q-11 11 -92.5 57.5t-252.5 46.5q-170 0 -275 -71.5t-105 -198.5q0 -72 26.5 -105.5t41 -50t52.5 -36 t54 -29.5t66.5 -27.5t65.5 -21.5t92 -28q153 -48 266.5 -118t113.5 -219t-94 -236t-285 -98v-206h-41v204h-12q-115 0 -214 33t-142 66l-41 32l28 35q14 -14 42 -34.5t124 -55.5t203 -35z" glyph-name="dollar.tnum"/><glyph d="M946 55v-41h-760v41q14 5 79 55t65 193q0 51 -27 125h-143v41h127q0 2 -12.5 29.5t-13.5 33t-11 31t-13.5 34.5t-11.5 32.5t-10 37t-8 35t-7 38t-3 37t-2 40.5q0 166 113.5 292t332.5 126q100 0 181 -28.5t112 -57.5l29 -29l-25 -28q-10 12 -30.5 28.5t-97.5 45 t-169 28.5q-199 0 -300 -113.5t-101 -263.5q0 -72 13 -121t17 -64.5t15.5 -44t15.5 -39.5t17.5 -42t15.5 -37h561v-41h-547q27 -70 27 -125q0 -170 -113 -248h684z" glyph-name="sterling.tnum"/><glyph d="M776 492v-41h-502q33 -186 141.5 -301t286.5 -115q88 0 161 32.5t102 65.5l28 33l29 -29q-9 -13 -83 -78t-254 -65t-299.5 126t-156.5 331h-143v41h137q-6 57 -6 120t6 121h-137v41h143q35 207 155 335t318 128q201 0 322 -141l-31 -31q-10 14 -30.5 35.5t-96 58.5 t-164.5 37q-180 0 -288.5 -115.5t-139.5 -306.5h502v-41h-508q-6 -57 -6 -121t6 -120h508z" glyph-name="Euro.tnum"/><glyph d="M879 506v-41h-283v-180h283v-41h-283v-244h-43v244h-311v41h311v180h-311v41h295l-392 723h52l358 -664l20 -51l19 51l340 664h49l-373 -723h269z" glyph-name="yen.tnum"/><glyph d="M602 102v148q-152 6 -251 105.5t-99 261t99.5 264t250.5 110.5v152h41v-152q53 -2 107.5 -19.5t80.5 -33.5l27 -16l-18 -37q-94 67 -222 67t-225.5 -93t-97.5 -242.5t96 -238.5t232 -89q55 0 109 16.5t81 32.5l27 16l18 -35q-94 -63 -215 -69v-148h-41z" glyph-name="cent.tnum"/><glyph d="M907 1194l-82 -358h203l-8 -41h-205l-92 -404h186l-8 -41h-186l-80 -350h-47l80 350h-308l-79 -350h-48l80 350h-217l8 41h218l92 404h-199l8 41h201l82 358h47l-82 -358h307l82 358h47zM461 795l-92 -404h307l92 404h-307z" glyph-name="numbersign.tnum"/><glyph d="M817 -393v620h-213q-229 0 -353 102.5t-124 302.5t123 300t354 100h256v-1425h-43z" glyph-name="paragraph.tnum"/><glyph d="M565 -371q197 0 294 80t97 198t-76 188.5t-274 144.5t-256.5 122t-58.5 119q0 102 88 154q-240 109 -240 307q0 139 113 226t326 87q125 0 228 -31.5t144 -62.5l39 -31l-26 -36q-14 14 -42 33.5t-127.5 53t-215.5 33.5q-193 0 -293.5 -75.5t-100.5 -190.5t81 -190.5 t255 -134.5t250 -120t76 -145t-76 -147q129 -63 180 -132t51 -173q0 -135 -106.5 -226.5t-329.5 -91.5q-133 0 -244.5 38t-156.5 75l-43 37l26 35q16 -16 46 -40t138.5 -64t233.5 -40zM336 474q0 -48 54 -90t188 -93t151 -60q72 51 72 138q0 61 -68.5 112.5t-226.5 104.5 q-29 8 -82 28q-88 -33 -88 -140z" glyph-name="section.tnum"/><glyph d="M280.5 1376q106.5 0 172 -63.5t65.5 -157.5t-65.5 -156.5t-172 -62.5t-172 62.5t-65.5 156.5t65.5 157.5t172 63.5zM281 1335q-88 0 -142.5 -52t-54.5 -128t54.5 -127t142.5 -51t142 51t54 127t-54 128t-142 52z" glyph-name="degree.tnum" horiz-adv-x="563"/><glyph d="M346 1255q117 0 184.5 -75.5t67.5 -185.5t-67.5 -189.5t-184.5 -79.5t-184.5 79.5t-67.5 189.5t67.5 185.5t184.5 75.5zM346 1214q-98 0 -153.5 -63.5t-55.5 -156.5t56.5 -160.5t152.5 -67.5t152.5 67.5t56.5 160.5t-55.5 156.5t-153.5 63.5zM104 33l-32 24l960 1155 l33 -24zM770 514q117 0 184.5 -76t67.5 -186t-67.5 -189t-184.5 -79t-184.5 79.5t-67.5 189.5t67.5 185.5t184.5 75.5zM770 473q-98 0 -153.5 -63.5t-55.5 -156.5t56.5 -160.5t152.5 -67.5t152.5 67.5t56.5 160.5t-55.5 156.5t-153.5 63.5z" glyph-name="percent.tnum"/><glyph d="M438 948v15l31 413h66v-14l-72 -414h-25zM616 948v15l31 413h66v-14l-72 -414h-25z" glyph-name="quotedbl.tnum"/><glyph d="M246 948v15l30 413h66v-14l-72 -414h-24z" glyph-name="quotesingle.tnum" horiz-adv-x="563"/><glyph d="M586 1032v-352h354v-41h-354v-346h-43v346h-357v41h357v352h43z" glyph-name="plus.tnum"/><glyph d="M176 592v41h754v-41h-754z" glyph-name="minus.tnum"/><glyph d="M508 358.5q0 22.5 16.5 39t39 16.5t38.5 -16.5t16 -39t-16 -39t-38.5 -16.5t-39 16.5t-16.5 39zM508 870.5q0 22.5 16.5 39t39 16.5t38.5 -16.5t16 -39t-16 -39t-38.5 -16.5t-39 16.5t-16.5 39zM186 586v41h754v-41h-754z" glyph-name="divide.tnum"/><glyph d="M229 770v41h668v-41h-668zM229 379v41h668v-41h-668z" glyph-name="equal.tnum"/><glyph d="M213 244l-29 28l348 349l-348 350l29 28l348 -350l350 350l29 -28l-350 -350l350 -349l-29 -28l-350 348z" glyph-name="multiply.tnum"/><glyph d="M778 90l-493 475v47l493 475l29 -30l-485 -469l485 -467z" glyph-name="less.tnum"/><glyph d="M842 565l-494 -475l-29 31l486 467l-486 469l29 30l494 -475v-47z" glyph-name="greater.tnum"/><glyph d="M588 315h-41v394h-414v41h414v397h41v-397h403v-41h-403v-394zM991 154v-41h-858v41h858z" glyph-name="plusminus.tnum"/><glyph glyph-name="space.aalt"/><glyph glyph-name="glyph479" horiz-adv-x="483"/><glyph d="M174 1040q-43 0 -43 41q0 18 12.5 30.5t31 12.5t30.5 -12t12 -31q0 -41 -43 -41zM154 0v709h41v-709h-41z" glyph-name="i.aalt" horiz-adv-x="348"/><glyph d="M400 1247q151 0 239 -103.5t88 -248.5t-88 -247.5t-239 -102.5t-238.5 102.5t-87.5 247.5t87.5 248.5t238.5 103.5zM399 1206q-133 0 -208.5 -91t-75.5 -220t75.5 -219t208.5 -90t210 90t77 219t-77 220t-210 91z" glyph-name="zero.frac" horiz-adv-x="800"/><glyph d="M45 1188v41h205v-668h-43v627h-162z" glyph-name="one.frac" horiz-adv-x="370"/><glyph d="M308 1247q245 1 245 -211q0 -102 -115 -194l-299 -240h455v-41h-535v29l355 284q98 80 98 173q0 160 -201 159q-55 0 -107 -17.5t-77 -35.5l-25 -18l-22 30q102 82 228 82z" glyph-name="two.frac" horiz-adv-x="657"/><glyph d="M88 1188v41h465v-21l-193 -258q104 -4 165 -55t61 -141t-67.5 -149.5t-192.5 -59.5q-70 0 -134.5 23.5t-93.5 45.5l-30 25l28 29q90 -82 212 -82t179.5 47t57.5 120.5t-51.5 114.5t-141.5 41h-59v21l194 258h-399z" glyph-name="three.frac" horiz-adv-x="651"/><glyph d="M47 768v25l381 436h31v-420h114v-41h-114v-207h-41v207h-371zM418 809v344h-4l-303 -344v-6l133 6h174z" glyph-name="four.frac" horiz-adv-x="624"/><glyph d="M535 1229v-41h-377l-8 -264q74 24 186 24t178 -54t66 -146t-68 -147.5t-193 -55.5q-70 0 -134 23.5t-95 45.5l-29 25l29 29q90 -82 212 -82t179.5 44t57.5 116t-55.5 116.5t-135.5 44.5q-144 0 -196 -26l-19 -9l-22 19l10 338h414z" glyph-name="five.frac" horiz-adv-x="643"/><glyph d="M366 1034q112 0 187.5 -64t75.5 -176t-76 -180.5t-203 -68.5t-202.5 68.5t-75.5 193.5t114 244l166 178h58l-156 -166q-27 -31 -66 -57v-9q66 37 178 37zM350.5 993q-110.5 0 -174 -52t-63.5 -146t64.5 -151.5t173 -57.5t173 57t64.5 151t-63.5 146.5t-174 52.5z" glyph-name="six.frac" horiz-adv-x="686"/><glyph d="M537 1229v-19l-285 -649h-45l274 627h-430v41h486z" glyph-name="seven.frac" horiz-adv-x="573"/><glyph d="M74 745q0 127 141 168q-119 47 -119 160q0 76 72 125t184.5 49t184 -49t71.5 -125q0 -113 -119 -160q141 -41 142 -168q0 -82 -75 -141t-204 -59t-203.5 59t-74.5 141zM352.5 891q-114.5 0 -176 -39t-61.5 -106t63.5 -113.5t174 -46.5t174 47t63.5 113t-61.5 105.5 t-176 39.5zM352.5 932q100.5 0 157.5 40t57 99t-60.5 97t-154.5 38t-154.5 -38t-60.5 -97t57.5 -99t158 -40z" glyph-name="eight.frac" horiz-adv-x="704"/><glyph d="M320 758q-112 0 -187.5 64t-75.5 176t76 180.5t203 68.5t202.5 -68.5t75.5 -193.5t-112 -244l-168 -180h-58l158 168q32 37 58 51l8 6v9q-68 -37 -180 -37zM335.5 799q110.5 0 174 52t63.5 146t-64.5 151.5t-173 57.5t-173 -57t-64.5 -151t63.5 -146.5t174 -52.5z" glyph-name="nine.frac" horiz-adv-x="686"/><glyph d="M115 858v324h65v-15l-41 -309h-24z" glyph-name="glyph491" horiz-adv-x="311"/><glyph d="M135 1286v14l115 310h65v-15l-155 -309h-25z" glyph-name="glyph492" horiz-adv-x="505"/><glyph d="M135 1286v14l115 310h65v-15l-155 -309h-25zM440 1286v14l115 310h66v-15l-156 -309h-25z" glyph-name="glyph493" horiz-adv-x="849"/><glyph d="M160 1579h65l115 -309v-15h-25l-155 310v14z" glyph-name="glyph494" horiz-adv-x="520"/><glyph d="M63 1286v14l250 310h60l250 -310v-14h-25l-254 260l-256 -260h-25z" glyph-name="glyph495" horiz-adv-x="673"/><glyph d="M623 1610v-15l-250 -309h-60l-250 309v15h25l256 -260l254 260h25z" glyph-name="glyph496" horiz-adv-x="698"/><glyph d="M602 1638h43q0 -160 -79 -246.5t-212 -86.5t-212 87t-79 246h43q0 -141 66 -216.5t182.5 -78t182 75.5t65.5 219z" glyph-name="glyph497" horiz-adv-x="751"/><glyph d="M561 1253q-55 0 -143 56.5t-130 56.5t-61.5 -22.5t-31.5 -63.5l-7 -23l-30 5l6 30q23 113 127 113q53 0 140 -56.5t131 -56.5t63.5 22.5t31.5 63.5l7 23l30 -4l-6 -31q-23 -113 -127 -113z" glyph-name="glyph498" horiz-adv-x="880"/><glyph d="M209 1307v39h512v-39h-512z" glyph-name="glyph499" horiz-adv-x="929"/><glyph d="M170 1421.5q0 22.5 16.5 39t39 16.5t39 -16.5t16.5 -39t-16.5 -39t-39 -16.5t-39 16.5t-16.5 39zM524 1421.5q0 22.5 16.5 39t39 16.5t39 -16.5t16.5 -39t-16.5 -39t-39 -16.5t-39 16.5t-16.5 39z" glyph-name="glyph500" horiz-adv-x="825"/><glyph d="M274 1359q0 32 20.5 52.5t52.5 20.5t52.5 -20.5t20.5 -52.5t-20.5 -52.5t-52.5 -20.5t-52.5 20.5t-20.5 52.5z" glyph-name="glyph501" horiz-adv-x="704"/><glyph d="M288.5 1288q-71.5 0 -117.5 46t-46 118t46 118t117.5 46t118 -46t46.5 -118t-46.5 -118t-118 -46zM414 1452q0 57 -34 91t-91.5 34t-91 -34t-33.5 -91t33.5 -91t91 -34t91.5 34t34 91z" glyph-name="glyph502" horiz-adv-x="606"/><glyph d="M563.5 -29q-231.5 0 -375 181.5t-143.5 459.5t143.5 460.5t375 182.5t374.5 -182.5t143 -460.5t-143 -459.5t-374.5 -181.5zM563 12q223 0 349 173t126 427t-126 428t-349 174t-349 -174t-126 -428t126 -427t349 -173z" glyph-name="zero.tnum"/><glyph d="M182 1188v41h451v-1188h389v-41h-881v41h449v1147h-408z" glyph-name="one.tnum"/><glyph d="M545 1255q176 0 279.5 -95t103.5 -251q0 -88 -34 -150.5t-126 -156.5l-535 -563h752v-39h-833v14l598 625q76 80 105.5 136t29.5 134q0 135 -93.5 220t-244.5 85q-104 0 -197.5 -42t-132.5 -82l-41 -41l-31 30q176 176 400 176z" glyph-name="two.tnum"/><glyph d="M612 637h-204v35l471 518h-709v39h784v-15l-497 -542h153q152 0 256.5 -92t104.5 -252t-113 -257.5t-293 -97.5t-279.5 71t-117.5 89l-21 19l27 32q109 -109 218.5 -140.5t174.5 -31.5q154 0 257.5 89t103.5 229t-88.5 223.5t-227.5 83.5z" glyph-name="three.tnum"/><glyph d="M51 324v32l731 873h41v-864h238v-41h-238v-324h-43v324h-729zM109 365h671v792l-661 -782l-10 -8v-2z" glyph-name="four.tnum"/><glyph d="M915 1190h-630l-21 -522q137 41 313 41t289 -97.5t113 -274.5t-108.5 -270.5t-293.5 -93.5t-283.5 71t-117.5 89l-20 19l26 32q109 -109 218.5 -140.5t174.5 -31.5q160 0 260.5 87t100.5 243t-102.5 242t-260.5 86t-292 -39l-41 -13l-19 13l23 598h671v-39z" glyph-name="five.tnum"/><glyph d="M585.5 -27q-182.5 0 -303 103.5t-120.5 269.5q0 127 37 192.5t71 116.5l383 574h52l-396 -590v-16q119 92 291 92t291 -106.5t119 -267.5t-121 -264.5t-303.5 -103.5zM592 676q-152 0 -266.5 -86t-120.5 -230v-14q0 -143 112.5 -238.5t268 -95.5t268.5 95.5t113 235.5 t-111.5 236.5t-263.5 96.5z" glyph-name="six.tnum"/><glyph d="M152 1188v41h852v-15l-588 -1214h-51l569 1188h-782z" glyph-name="seven.tnum"/><glyph d="M563.5 -27q-192.5 0 -315.5 100.5t-123 250.5q0 121 78 206.5t209 118.5q-111 35 -175.5 114t-64.5 179q0 135 108.5 224t282.5 89t282.5 -89t108.5 -224q0 -100 -64.5 -179t-174.5 -114q129 -33 207.5 -119t78.5 -206q0 -150 -122.5 -250.5t-315 -100.5zM563 14 q172 0 282.5 90.5t110.5 222.5t-112.5 217t-282.5 85t-280.5 -86t-110.5 -217t110.5 -221.5t282.5 -90.5zM909 943q0 116 -97 193.5t-248.5 77.5t-249 -77.5t-97.5 -193.5t95.5 -194.5t249.5 -78.5t250.5 78.5t96.5 194.5z" glyph-name="eight.tnum"/><glyph d="M963 883q0 -127 -37 -192.5t-72 -117.5l-383 -573h-51l395 590v16q-119 -92 -291 -92t-290.5 106.5t-118.5 267.5t120.5 264t303 103t303.5 -103t121 -269zM538 553q157 0 269.5 90.5t112.5 236.5t-113 241.5t-268.5 95.5t-268 -95.5t-112.5 -235.5t111.5 -236.5 t268.5 -96.5z" glyph-name="nine.tnum"/><glyph d="M68 1327v41h204v-627h158v-41h-362v41h161v586h-161z" glyph-name="uni00B9.ss04" horiz-adv-x="477"/><glyph d="M68 1188v41h204v-627h158v-41h-362v41h161v586h-161z" glyph-name="one.frac.ss04" horiz-adv-x="477"/><glyph d="M68 371v41h204v-627h158v-41h-362v41h161v586h-161z" glyph-name="uni2081.ss04" horiz-adv-x="475"/><glyph d="M400 686q151 0 239 -103.5t88 -248.5t-88 -247.5t-239 -102.5t-238.5 102t-87.5 248t87.5 249t238.5 103zM399 645q-133 0 -208.5 -91t-75.5 -220t75.5 -219t208.5 -90t210 90t77 219t-77 220t-210 91z" glyph-name="zero.dnom" horiz-adv-x="800"/><glyph d="M47 627v41h205v-668h-43v627h-162z" glyph-name="one.dnom" horiz-adv-x="372"/><glyph d="M68 627v41h204v-627h158v-41h-362v41h161v586h-161z" glyph-name="one.dnom.ss04" horiz-adv-x="475"/><glyph d="M308 686q245 0 245 -212q0 -102 -115 -193l-299 -240h455v-41h-535v29l355 284q98 80 98 172q0 160 -201 160q-55 0 -107 -17.5t-77 -35.5l-25 -19l-22 31q102 82 228 82z" glyph-name="two.dnom" horiz-adv-x="655"/><glyph d="M543 192.5q0 73.5 -51.5 114.5t-141.5 41h-59v21l194 258h-399v41h465v-21l-193 -258q104 -4 165 -55t61 -141.5t-67.5 -149.5t-192.5 -59q-70 0 -134.5 23.5t-95.5 45.5l-28 25l28 28q90 -82 212 -82t179.5 47.5t57.5 121z" glyph-name="three.dnom" horiz-adv-x="649"/><glyph d="M49 207v24l381 437h31v-420h114v-41h-114v-207h-41v207h-371zM420 248v344h-4l-303 -344v-6l133 6h174z" glyph-name="four.dnom" horiz-adv-x="626"/><glyph d="M535 668v-41h-377l-8 -265q74 25 186 25t178 -54.5t66 -146.5t-68 -147t-193 -55q-70 0 -134 23.5t-95 45.5l-29 25l29 28q90 -82 212 -82t179.5 45t57.5 117t-55.5 116t-135.5 44q-148 0 -196 -27l-19 -8l-22 19l10 338h414z" glyph-name="five.dnom" horiz-adv-x="643"/><glyph d="M366 473q114 0 188.5 -63.5t74.5 -175.5t-76 -181t-203 -69t-202.5 68.5t-75.5 193.5t114 243l166 179h58l-156 -166q-18 -21 -66 -58v-8q64 37 178 37zM350.5 432q-110.5 0 -174 -52t-63.5 -146t64.5 -151.5t173 -57.5t173 57.5t64.5 151.5t-63.5 146t-174 52z" glyph-name="six.dnom" horiz-adv-x="686"/><glyph d="M537 668v-19l-285 -649h-45l274 627h-430v41h486z" glyph-name="seven.dnom" horiz-adv-x="575"/><glyph d="M74 184q0 127 141 168q-119 47 -119 160q0 76 72 125t184.5 49t184 -49t71.5 -125q0 -113 -119 -160q141 -41 142 -168q0 -82 -75 -141t-204 -59t-203.5 59t-74.5 141zM352.5 330q-114.5 0 -176 -39t-61.5 -106t63.5 -113.5t174 -46.5t174 47.5t63.5 113.5t-61.5 105 t-176 39zM352.5 371q100.5 0 157.5 40t57 99t-60.5 97t-154.5 38t-154.5 -38t-60.5 -97t57.5 -99t158 -40z" glyph-name="eight.dnom" horiz-adv-x="704"/><glyph d="M320 197q-112 0 -187.5 63.5t-75.5 175.5t76 181t203 69t202.5 -68.5t75.5 -193.5t-112 -244l-168 -180h-58l158 168q32 37 58 51l8 6v8q-68 -36 -180 -36zM335.5 238q110.5 0 174 52t63.5 146t-64.5 151.5t-173 57.5t-173 -57.5t-64.5 -151.5t63.5 -146t174 -52z" glyph-name="nine.dnom" horiz-adv-x="686"/><glyph d="M469 725q162 0 265.5 -104.5t103.5 -267.5t-103.5 -266t-265.5 -103t-265.5 103t-103.5 266t103.5 267.5t265.5 104.5zM469 686q-141 0 -233.5 -94t-92.5 -237.5t92.5 -237.5t233.5 -94t233.5 94t92.5 237.5t-92.5 237.5t-233.5 94z" glyph-name="zero.oldstyle" horiz-adv-x="937"/><glyph d="M61 668v41h267v-709h-43v668h-224z" glyph-name="one.oldstyle" horiz-adv-x="499"/><glyph d="M406 725q260 1 260 -227q0 -112 -150 -219l-352 -246l182 8h369v-41h-617v35l391 274q74 51 103 96.5t29 102.5q0 178 -222 178q-68 0 -137 -19.5t-104 -39.5l-35 -21l-17 33q38 32 128 59t172 27z" glyph-name="two.oldstyle" horiz-adv-x="800"/><glyph d="M90 668v41h580v-21l-297 -467h28q160 0 250 -84t90 -227t-98 -232.5t-272 -89.5q-92 0 -168 26t-105 52l-30 27l28 31q36 -36 115.5 -66.5t159.5 -30.5q150 0 237.5 77t87.5 204t-77.5 199.5t-217.5 72.5h-90v21l295 467h-516z" glyph-name="three.oldstyle" horiz-adv-x="817"/><glyph d="M53 27v24l539 658h35v-641h245v-41h-245v-422h-41v422h-533zM586 68v565h-4l-383 -469l-86 -96v-7l133 7h340z" glyph-name="four.oldstyle" horiz-adv-x="942"/><glyph d="M374 193q-156 0 -222 -33l-23 18l16 531h523v-41h-484l-16 -459q84 25 234 25t246.5 -85.5t96.5 -231.5t-101 -237.5t-282 -91.5q-82 0 -152.5 27t-98.5 53l-31 27l26 29q37 -37 111 -67t145 -30q158 0 248 81t90 209t-85 202t-241 74z" glyph-name="five.oldstyle" horiz-adv-x="815"/><glyph d="M494 723q150 0 253 -104.5t103 -267.5t-103.5 -266t-265.5 -103t-265 103t-102 259t93 313l287 492h49l-252 -432l-45 -64v-8q98 78 248 78zM481.5 684q-141.5 0 -233.5 -94t-92 -237.5t92 -238t233.5 -94.5t233.5 94.5t92 238t-92 237.5t-233.5 94z" glyph-name="six.oldstyle" horiz-adv-x="921"/><glyph d="M707 709v-19l-480 -1085h-45l469 1063h-604v41h660z" glyph-name="seven.oldstyle" horiz-adv-x="733"/><glyph d="M627 627q237 -65 237 -329q0 -136 -103.5 -225t-265 -89t-265 89t-103.5 225t63.5 217t171.5 112q-86 35 -136 108t-50 183t88 191t231.5 81t231.5 -81t88 -191t-50 -183t-138 -108zM168 313q0 -133 90 -210.5t237.5 -77.5t237.5 77.5t90 211.5t-89.5 212t-239.5 76 t-238 -79t-88 -210zM496 645q125 0 201.5 74t76.5 182t-76.5 178t-201.5 70t-202 -69.5t-77 -178.5t77 -182.5t202 -73.5z" glyph-name="eight.oldstyle" horiz-adv-x="991"/><glyph d="M456 -14q-148 0 -252 105t-104 267t103.5 265.5t265.5 103.5t265.5 -103.5t102.5 -260.5t-94 -312l-262 -446h-49l227 387l46 63v8q-101 -77 -249 -77zM469 25q141 0 233.5 94t92.5 237.5t-92.5 237.5t-233.5 94t-233.5 -94t-92.5 -237.5t92.5 -237.5t233.5 -94z" glyph-name="nine.oldstyle" horiz-adv-x="919"/><glyph d="M233 174h115q139 0 227.5 69.5t88.5 184.5t-83 186.5t-216 71.5q-66 0 -126.5 -23.5t-86.5 -48.5l-29 -22l-29 31q36 36 116.5 69t154.5 33q160 0 251 -80.5t91 -196.5q0 -213 -205 -286q113 -23 179.5 -91.5t66.5 -192.5t-103.5 -207t-273.5 -83q-84 0 -158 26t-107 52 l-32 27l28 31q36 -36 114.5 -66.5t154.5 -30.5q145 0 239.5 75t94.5 189.5t-90.5 181t-225.5 66.5h-156v35z" glyph-name="three.oldstyle.ss03" horiz-adv-x="849"/><glyph d="M1229 670h-168v-43q0 -653 -545 -654q-182 0 -298 105.5t-116 273.5t97.5 265.5t239.5 97.5t221 -77t79 -194v-12l-583 -168q31 -113 129 -182.5t231 -69.5q502 0 502 615v82h211v-39zM145 352q0 -31 2 -47l549 158q-2 74 -70.5 143.5t-187.5 69.5t-206 -86t-87 -238z " glyph-name="ampersand.aalt" horiz-adv-x="1284"/><glyph d="M53 340v41h314v395h43v-395h315v-41h-315l-11 -852h-22l-10 852h-314z" glyph-name="dagger.aalt" horiz-adv-x="778"/><glyph d="M113 416v41h313v317h43v-317h315v-41h-315v-350h315v-41h-315l-10 -537h-23l-10 537h-313v41h313v350h-313z" glyph-name="daggerdbl.aalt" horiz-adv-x="897"/><glyph d="M1118 0h-39l-137 182q-127 -209 -424 -209q-178 0 -290.5 103.5t-112.5 275.5t115.5 271.5t285.5 99.5h21l-353 471v33h713v-39h-655l692 -928q45 111 45 264v181h43v-181q0 -172 -59 -301l155 -209v-14zM518 12q289 0 397 205l-352 471h-49q-158 0 -257 -92t-99 -242 t103 -246t257 -96z" glyph-name="glyph541" horiz-adv-x="1177"/><glyph d="M373 1169h78v-59l-25 -240l219 97l57 18l23 -74l-55 -18l-234 -49l160 -178l33 -50l-62 -43l-37 50l-118 206l-119 -206l-37 -50l-61 43l32 50l158 176l-233 51l-56 18l23 74l57 -18l221 -99l-24 242v59z" glyph-name="asterisk.aalt" horiz-adv-x="823"/><glyph d="M515 762q189 0 304 -118t115 -291t-114 -290.5t-304 -117.5t-305 117.5t-115 290.5t115 291t304 118zM514 713q-168 0 -268.5 -104.5t-100.5 -256t100.5 -255t268.5 -103.5t269.5 104t101.5 256t-101.5 255.5t-269.5 103.5zM526.5 109q-112.5 0 -181.5 70.5t-69 173 t69 172t171 69.5t160 -41l16 -14l-26 -31q-34 45 -132 45t-155 -56.5t-57 -146.5t57 -145t147 -55q37 0 73 12t52 24l17 13l24 -31q-53 -59 -165.5 -59z" glyph-name="copyright.aalt" horiz-adv-x="1030"/><glyph d="M515 762q189 0 304 -118t115 -291t-114 -290.5t-304 -117.5t-305 117.5t-115 290.5t115 291t304 118zM514 713q-168 0 -268.5 -104.5t-100.5 -256t100.5 -255t268.5 -103.5t269.5 104t101.5 256t-101.5 255.5t-269.5 103.5zM354 115v473h168q102 0 161.5 -46t59.5 -136 q0 -170 -221 -170h-125v-121h-43zM698 406q0 141 -176 141h-125v-271h125q176 1 176 130z" glyph-name="glyph544" horiz-adv-x="1030"/><glyph d="M515 762q189 0 304 -118t115 -291t-114 -290.5t-304 -117.5t-305 117.5t-115 290.5t115 291t304 118zM514 713q-168 0 -268.5 -104.5t-100.5 -256t100.5 -255t268.5 -103.5t269.5 104t101.5 256t-101.5 255.5t-269.5 103.5zM338 588h182q84 0 135.5 -46t51.5 -130 q0 -119 -103 -156l105 -127v-14h-41l-107 129q-14 -2 -47 -2h-131v-127h-45v473zM520 547h-137v-264h131q147 0 148 129q0 66 -38 100.5t-104 34.5z" glyph-name="registered.oldstyle" horiz-adv-x="1030"/><glyph d="M113 404q0 169 101 263.5t258 94.5t261.5 -100.5t104.5 -263.5t-104.5 -263t-259.5 -100t-258 100t-103 269zM162 402q0 -146 89 -232t223 -86t224 87t90 227t-90 227.5t-225 87.5t-223 -82.5t-88 -228.5zM315 580h162q74 0 120 -35t46 -92q0 -94 -86 -121l72 -105v-14 h-41l-76 109q-12 -2 -41 -3h-111v-106h-45v367zM477 539h-117v-179h111q127 0 127 93q0 39 -34 62.5t-87 23.5z" glyph-name="registered.ss05" horiz-adv-x="948"/><glyph d="M764 354h-45v551h26l252 -268l256 268h25v-551h-45v471l-223 -231h-27l-219 229v-469zM614 905v-41h-229v-510h-45v510h-227v41h501z" glyph-name="trademark.aalt" horiz-adv-x="1443"/><glyph d="M762 354h-45v551h26l252 -268l256 268h25v-551h-45v471l-223 -231h-27l-219 229v-469zM348 383q176 0 176 96q0 48 -57.5 76t-115.5 48q-88 30 -151 65.5t-63 103.5t55.5 105.5t133.5 37.5t131 -14t71 -29l21 -14l-27 -35q-49 51 -184 51q-66 0 -111 -25.5t-45 -65.5 t27 -63.5t54 -34.5t93 -33t102 -36t74.5 -51t38.5 -92t-55 -93t-141 -38t-138.5 17.5t-72.5 33.5l-23 19l27 34q61 -63 180 -63z" glyph-name="uni2120.aalt" horiz-adv-x="1437"/><glyph d="M92 520q0 82 63.5 127t176.5 45q156 0 213 -88v47q0 113 -51.5 169.5t-159.5 56.5t-182 -37l-25 -15l-16 39q100 53 202 54q154 0 215.5 -68t61.5 -199v-297h-29l-8 84h-8q-61 -100 -234 -100q-98 0 -158.5 50t-60.5 132zM137 518q0 -64 47.5 -102.5t143.5 -38.5 t155.5 41t59.5 98t-56.5 97t-151.5 40t-146.5 -35.5t-51.5 -99.5z" glyph-name="ordfeminine.aalt" horiz-adv-x="724"/><glyph d="M94 631q0 129 74 208t205 79t204.5 -79t73.5 -208t-74.5 -209t-203.5 -80t-204 80t-75 209zM606 630q0 112 -62.5 179.5t-171 67.5t-171 -67.5t-62.5 -179.5t62.5 -179.5t171 -67.5t171 67.5t62.5 179.5z" glyph-name="ordmasculine.aalt" horiz-adv-x="759"/><glyph d="M246 764v14l256 357h47l256 -357v-14h-25l-256 307l-254 -307h-24z" glyph-name="asciicircum.aalt" horiz-adv-x="1050"/><glyph d="M293 913q-78 0 -127 -39l-21 27q45 53 170 53q49 0 147.5 -28.5t177.5 -28.5t126 39l20 -27q-45 -53 -170 -53q-49 0 -147 28.5t-176 28.5z" glyph-name="asciitilde.aalt" horiz-adv-x="931"/><glyph d="M825 709l-45 -201h191l-8 -41h-191l-51 -236h180l-8 -41h-182l-41 -190h-47l41 190h-312l-41 -190h-47l41 190h-215l8 41h217l52 236h-207l8 41h207l45 201h47l-45 -201h311l45 201h47zM414 467l-52 -236h312l51 236h-311z" glyph-name="numbersign.oldstyle" horiz-adv-x="1056"/><glyph d="M246 0v14l561 686h41v-14l-561 -686h-41zM1061 188q0 -86 -55.5 -145t-155.5 -59t-155.5 59t-55.5 145t56.5 146.5t154.5 60.5t154.5 -60.5t56.5 -146.5zM676 189q0 -69 47 -120t127 -51t127 52t47 120t-47 119t-127 51t-127 -51t-47 -120zM502 518q0 -86 -55.5 -145.5 t-156 -59.5t-155.5 59.5t-55 145.5t56.5 146.5t154.5 60.5t154.5 -60.5t56.5 -146.5zM117 519q0 -69 47 -120t127 -51t127 52t47 120t-47 119t-127 51t-127 -51t-47 -120z" glyph-name="percent.oldstyle" horiz-adv-x="1134"/><glyph d="M246 0v14l561 686h41v-14l-561 -686h-41zM1061 188q0 -86 -55.5 -145t-155.5 -59t-155.5 59t-55.5 145t56.5 146.5t154.5 60.5t154.5 -60.5t56.5 -146.5zM676 189q0 -69 47 -120t127 -51t127 52t47 120t-47 119t-127 51t-127 -51t-47 -120zM502 518q0 -86 -55.5 -145.5 t-156 -59.5t-155.5 59.5t-55 145.5t56.5 146.5t154.5 60.5t154.5 -60.5t56.5 -146.5zM117 519q0 -69 47 -120t127 -51t127 52t47 120t-47 119t-127 51t-127 -51t-47 -120zM1552 188q0 -86 -55 -145t-155.5 -59t-156 59t-55.5 145t56.5 146.5t155 60.5t154.5 -60.5t56 -146.5 zM1167 189q0 -69 47.5 -120t127 -51t127 52t47.5 120t-47.5 119t-127 51t-127 -51t-47.5 -120z" glyph-name="perthousand.aalt" horiz-adv-x="1630"/><glyph d="M438 668v-297h277v-41h-277v-289h-43v289h-299v41h299v297h43z" glyph-name="plus.oldstyle" horiz-adv-x="808"/><glyph d="M104 330v41h619v-41h-619z" glyph-name="minus.oldstyle" horiz-adv-x="804"/><glyph d="M434 709v-199h232v-41h-232v-223h-43v223h-246v41h246v199h43zM145 82v41h521v-41h-521z" glyph-name="plusminus.oldstyle" horiz-adv-x="811"/><glyph d="M145 584l224 -222l235 232l29 -29l-236 -231l213 -209l-28 -29l-213 209l-201 -199l-29 29l201 199l-223 221z" glyph-name="multiply.oldstyle" horiz-adv-x="747"/><glyph d="M365 92.5q0 22.5 16 38.5t38.5 16t39 -16t16.5 -38.5t-16.5 -39t-39 -16.5t-38.5 16.5t-16 39zM365 604.5q0 22.5 16 38.5t38.5 16t39 -16t16.5 -38.5t-16.5 -39t-39 -16.5t-38.5 16.5t-16 39zM133 319v41h576v-41h-576z" glyph-name="divide.oldstyle" horiz-adv-x="841"/><glyph d="M131 506v41h668v-41h-668zM131 156v41h668v-41h-668z" glyph-name="equal.oldstyle" horiz-adv-x="929"/><glyph d="M432 0l-342 332v47l342 332l29 -31l-334 -326l334 -323z" glyph-name="less.oldstyle" horiz-adv-x="559"/><glyph d="M469 332l-342 -332l-29 31l334 323l-334 326l29 31l342 -332v-47z" glyph-name="greater.oldstyle" horiz-adv-x="559"/><glyph d="M150 545v14l30 414h66v-15l-72 -413h-24zM328 545v14l30 414h66v-15l-72 -413h-24z" glyph-name="quotedbl.oldstyle" horiz-adv-x="559"/><glyph d="M150 545v14l30 414h66v-15l-72 -413h-24z" glyph-name="quotesingle.oldstyle" horiz-adv-x="380"/><glyph d="M356.5 985q106.5 0 172 -63.5t65.5 -157.5t-65.5 -156.5t-172 -62.5t-172 62.5t-65.5 156.5t65.5 157.5t172 63.5zM356 944q-88 0 -142 -52t-54 -128t54 -127t142 -51t142.5 51t54.5 127t-54.5 128t-142.5 52z" glyph-name="degree.oldstyle" horiz-adv-x="712"/><glyph d="M788 -512v416h-213q-229 0 -353 102t-124 302t123 300.5t354 100.5h256v-1221h-43z" glyph-name="paragraph.oldstyle" horiz-adv-x="989"/><glyph d="M352 733q108 0 178 -22.5t95 -42.5l24 -23l-26 -35q-24 32 -97 57t-165 25t-157 -43t-65 -114t44 -111t93 -62t114.5 -47t132.5 -67.5t67 -123.5t-76 -122q127 -56 127 -144t-64.5 -137t-172.5 -49t-177 22.5t-100 45.5l-29 22l27 35q30 -30 105 -57t147 -27 q217 0 217 137q0 48 -25.5 69.5t-47 38t-234.5 85.5q-57 19 -109.5 58.5t-52.5 103.5q0 96 86 141q-117 72 -117 174t75 157.5t183 55.5zM543 133q0 73 -77 104t-128.5 50.5t-83.5 36.5q-84 -31 -84 -117q0 -47 43 -78.5t125 -60.5l131 -48q74 29 74 113z" glyph-name="section.oldstyle" horiz-adv-x="735"/><glyph d="M588 152q0 99 -121 139.5t-191.5 65t-121 67t-50.5 118.5t69 131.5t183 59.5v187h41v-187q84 -2 149.5 -24.5t88.5 -42.5l24 -21l-26 -35q-82 82 -256 82q-98 0 -162.5 -43t-64.5 -113t75.5 -112.5t165.5 -63t167 -74t77 -134.5q0 -166 -238 -179v-174h-41v174 q-76 2 -141 24.5t-94 43.5l-29 22l27 35q30 -30 105 -57t147 -27q217 1 217 138z" glyph-name="dollar.oldstyle" horiz-adv-x="747"/><glyph d="M748 55v-41h-658v41q13 0 76 31t63 133q0 23 -2 35h-108v41h98q-8 23 -27.5 76t-19.5 106q0 104 78 176t205 72q78 0 147.5 -28.5t99.5 -57.5l33 -29l-24 -28q-37 37 -114 69.5t-142 32.5q-106 0 -172 -60.5t-66 -146.5q0 -53 22.5 -114.5t24.5 -67.5h311v-41h-303 q4 -25 4 -35q0 -111 -92 -164h566z" glyph-name="sterling.oldstyle" horiz-adv-x="849"/><glyph d="M507 -16q-136 0 -230.5 73.5t-120.5 200.5h-60v41h54q-6 47 2 107h-56v40h62q27 127 121 203t219 76q66 0 123 -16.5t84 -32.5l24 -14l-16 -35q-85 59 -201 59t-199.5 -64.5t-111.5 -175.5h401v-40h-409q-7 -67 0 -107h409v-41h-401q27 -111 109.5 -173t187.5 -62 q57 0 111.5 14t78.5 29l25 16l16 -35q-86 -63 -222 -63z" glyph-name="Euro.oldstyle" horiz-adv-x="833"/><glyph d="M743 342v-41h-294v-133h294v-41h-294v-127h-43v127h-279v41h279v133h-279v41h260l-293 367h51l242 -303l33 -52h12l37 52l240 303h51l-293 -367h276z" glyph-name="yen.oldstyle" horiz-adv-x="868"/><glyph d="M326 500v-76h235v-39h-235v-229q0 -221 -185 -222q-48 0 -106 25l18 35q43 -20 88 -21q143 0 144 183v229h-90v39h90v76q0 221 184 221q59 0 92 -19l14 -6l-18 -34q-43 20 -88 20q-143 0 -143 -182z" glyph-name="florin.aalt" horiz-adv-x="647"/><glyph d="M440 -164v150q-143 12 -236 110.5t-93 254t93 257t236 115.5v154h41v-152q66 0 123.5 -16.5t83.5 -32.5l25 -14l-17 -35q-84 59 -216 59t-229 -93t-97 -242.5t96 -238.5t231 -89q57 0 111.5 14t79.5 29l24 16l17 -35q-86 -63 -232 -63v-148h-41z" glyph-name="cent.oldstyle" horiz-adv-x="821"/><glyph d="M403 354q0 164 104.5 267.5t251.5 103.5t224 -65t96 -113l8 -21h3l10 183h30v-519q0 -80 37 -128t97 -48q102 0 160.5 122t58.5 272t-38 258t-115 196t-210 138.5t-309 50.5q-315 0 -491.5 -194.5t-176.5 -518.5q0 -276 179.5 -466.5t478.5 -190.5q115 0 200.5 17 t116.5 36l29 16l27 -37q-33 -27 -141.5 -50t-231.5 -23q-313 0 -508 201.5t-195 496.5q0 344 191 549t539 205t524 -184.5t176 -479.5q0 -190 -69.5 -322.5t-194.5 -132.5q-78 0 -125 56.5t-47 152.5h-5q-6 -25 -36.5 -63.5t-63.5 -65t-92 -48t-131 -21.5q-152 0 -256.5 103 t-104.5 267zM446 354.5q0 -145.5 91.5 -238.5t226.5 -93t231.5 90t96.5 241.5t-96.5 241.5t-231.5 90t-226.5 -93t-91.5 -238.5z" glyph-name="at.oldstyle" horiz-adv-x="1642"/><glyph d="M131 336v41h574v-41h-574z" glyph-name="hyphen.aalt" horiz-adv-x="800"/><glyph d="M131 324v41h672v-41h-672z" glyph-name="endash.aalt" horiz-adv-x="899"/><glyph d="M131 324v41h1255v-41h-1255z" glyph-name="emdash.aalt" horiz-adv-x="1482"/><glyph d="M125 -147l-68 49l490 936l74 -47z" glyph-name="slash.oldstyle" horiz-adv-x="679"/><glyph d="M158 49.5q0 22.5 16 38.5t39 16t39 -16t16 -38.5t-16 -39t-39 -16.5t-39 16.5t-16 39zM158 1079.5q0 22.5 16 39t39 16.5t39 -16.5t16 -39t-16 -39t-39 -16.5t-39 16.5t-16 39z" glyph-name="colon.case" horiz-adv-x="425"/><glyph d="M199 47.5q0 22.5 15 37.5t39 15t40 -16t16 -43t-12 -47l-96 -174h-45l82 147l18 23v4h-4q-23 0 -38 15.5t-15 38zM203 1079.5q0 22.5 16.5 39t39 16.5t38.5 -16.5t16 -39t-16 -39t-38.5 -16.5t-39 16.5t-16.5 39z" glyph-name="semicolon.case" horiz-adv-x="481"/><glyph d="M580 1526l-453 -1800h-47l452 1800h48z" glyph-name="slash.case" horiz-adv-x="659"/><glyph d="M246 1464v-1689h-43v1689h43z" glyph-name="bar.case" horiz-adv-x="448"/><glyph d="M143 614q0 -516 406 -825q8 -6 10 -8l-20 -31q-121 94 -179 158q-260 287 -260 706q0 532 422 850q12 8 17 13l20 -31q-133 -104 -209 -203q-207 -266 -207 -629z" glyph-name="parenleft.aalt" horiz-adv-x="618"/><glyph d="M518 614q0 -532 -424 -852q-10 -8 -14 -12l-21 31q135 104 211 203q205 266 205 630q0 514 -405 824q-9 6 -11 8l21 31q117 -90 166 -144q272 -287 272 -719z" glyph-name="parenright.aalt" horiz-adv-x="618"/><glyph d="M940 -414q-373 0 -609.5 250t-236.5 622t240.5 621.5t610.5 249.5t604.5 -234.5t234.5 -549.5q0 -209 -83 -347.5t-247 -138.5q-100 0 -161.5 58.5t-61.5 150.5h-4q-6 -23 -37 -62.5t-63.5 -66t-92 -48t-131.5 -21.5q-152 0 -256 103t-104 267t104.5 267.5t251.5 103.5 t222.5 -64t97.5 -114l8 -21h2l10 183h31v-519q0 -80 50 -128t134 -48q141 0 213 128t72 317q0 297 -222.5 520t-570.5 223t-577.5 -239.5t-229.5 -591.5t225.5 -591t575.5 -239q123 0 227.5 22.5t147.5 47.5l43 22l18 -38q-57 -35 -181 -65t-255 -30zM1231 440.5 q0 151.5 -96.5 241.5t-231.5 90t-226 -93t-91 -238.5t91 -238.5t226 -93t231.5 90t96.5 241.5z" glyph-name="at.case" horiz-adv-x="1900"/><glyph d="M203 -238v1704h372v-41h-329v-1622h329v-41h-372z" glyph-name="bracketleft.aalt" horiz-adv-x="651"/><glyph d="M532 -274l-452 1800h47l453 -1800h-48z" glyph-name="backslash.aalt" horiz-adv-x="659"/><glyph d="M76 -238v41h330v1622h-330v41h373v-1704h-373z" glyph-name="bracketright.aalt" horiz-adv-x="651"/><glyph d="M80 637h16q53 0 92 49t39 129v551q0 145 125 162l6 -39q-49 -6 -68.5 -37t-19.5 -100v-531q0 -172 -100 -205v-14q100 -33 100 -203v-530q0 -70 19.5 -100.5t68.5 -36.5l-6 -39q-125 16 -125 162v551q0 80 -38.5 129t-92.5 49h-16v53z" glyph-name="braceleft.aalt" horiz-adv-x="483"/><glyph d="M403 584h-16q-53 0 -92 -49.5t-39 -128.5v-551q0 -145 -125 -162l-6 39q49 6 68.5 36.5t19.5 100.5v530q0 170 100 203v14q-100 33 -100 205v531q0 70 -19.5 100.5t-68.5 36.5l6 39q125 -16 125 -162v-551q0 -80 39 -129t92 -49h16v-53z" glyph-name="braceright.aalt" horiz-adv-x="483"/><glyph d="M387 948v-14l-217 -318v-6l217 -321v-15h-43l-217 320v35l217 319h43z" glyph-name="guilsinglleft.aalt" horiz-adv-x="565"/><glyph d="M178 274v15l217 321v6l-217 318v14h43l217 -319v-35l-217 -320h-43z" glyph-name="guilsinglright.aalt" horiz-adv-x="565"/><glyph d="M387 948v-14l-217 -318v-6l217 -321v-15h-43l-217 320v35l217 319h43zM680 948v-14l-217 -318v-6l217 -321v-15h-43l-217 320v35l217 319h43z" glyph-name="guillemotleft.aalt" horiz-adv-x="858"/><glyph d="M178 274v15l217 321v6l-217 318v14h43l217 -319v-35l-217 -320h-43zM471 274v15l217 321v6l-217 318v14h43l217 -319v-35l-217 -320h-43z" glyph-name="guillemotright.aalt" horiz-adv-x="858"/><glyph d="M184 613q0 44 31 76t75 32t75.5 -32t31.5 -76t-31.5 -74.5t-75.5 -30.5t-75 30.5t-31 74.5z" glyph-name="bullet.aalt" horiz-adv-x="581"/><glyph d="M537 -285q197 0 294 80t97 198t-77 188.5t-275 144.5t-256 122t-58 119q0 102 88 154q-240 109 -239 307q0 139 112.5 226t325.5 87q125 0 228.5 -31.5t144.5 -62.5l39 -30l-27 -37q-14 14 -42 33.5t-127 53t-216 33.5q-193 0 -293 -75.5t-100 -190.5t81 -190.5 t255 -134.5t249.5 -120t75.5 -145t-76 -147q129 -63 180.5 -132t51.5 -173q0 -135 -106.5 -226.5t-303.5 -91.5t-308 51t-146 82l-17 17l27 35q16 -16 46 -40t138.5 -64t233.5 -40zM307 560q0 -48 54.5 -90t188.5 -93t150 -60q72 51 72 138q0 61 -68.5 112.5t-226.5 104.5 q-29 8 -82 28q-88 -33 -88 -140z" glyph-name="section.case" horiz-adv-x="1067"/><glyph d="M248 -225h-45v1689h45v-1689z" glyph-name="brokenbar.aalt" horiz-adv-x="450"/></font>
</defs>
</svg>
