<svg width="1246" height="178" viewBox="0 0 1246 178" version="1.1" xmlns="http://www.w3.org/2000/svg" xmlns:xlink="http://www.w3.org/1999/xlink">
<title>Logo Lockup A</title>
<desc>Created using Figma</desc>
<g id="Canvas" transform="matrix(2 0 0 2 8916 -9822)">
<g id="Logo Lockup A">
<g id="Logo">
<g id="Group">
<g id="Vector">
<use xlink:href="#path0_fill" transform="translate(-4458 4912.12)" fill="#FC3B4E"/>
</g>
<g id="Vector">
<use xlink:href="#path1_fill" transform="translate(-4458 4912.12)" fill="#FC8C29"/>
</g>
<g id="Vector">
<use xlink:href="#path2_fill" transform="translate(-4458 4912.12)" fill="#1AB26B"/>
</g>
<g id="Vector">
<use xlink:href="#path3_fill" transform="translate(-4458 4912.12)" fill="#FFB100"/>
</g>
<g id="Vector">
<use xlink:href="#path4_fill" transform="translate(-4458 4912.12)" fill="#18A193"/>
</g>
<g id="Vector">
<use xlink:href="#path5_fill" transform="translate(-4458 4912.12)" fill="#3C6FFB"/>
</g>
</g>
</g>
<g id="MURDERLOFT">
<use xlink:href="#path6_fill" transform="translate(-4367.25 4911)" fill="#FFFFFF"/>
<use xlink:href="#path7_fill" transform="translate(-4367.25 4911)" fill="#FFFFFF"/>
<use xlink:href="#path8_fill" transform="translate(-4367.25 4911)" fill="#FFFFFF"/>
<use xlink:href="#path9_fill" transform="translate(-4367.25 4911)" fill="#FFFFFF"/>
<use xlink:href="#path10_fill" transform="translate(-4367.25 4911)" fill="#FFFFFF"/>
<use xlink:href="#path11_fill" transform="translate(-4367.25 4911)" fill="#FFFFFF"/>
<use xlink:href="#path12_fill" transform="translate(-4367.25 4911)" fill="#FFFFFF"/>
<use xlink:href="#path13_fill" transform="translate(-4367.25 4911)" fill="#FFFFFF"/>
<use xlink:href="#path14_fill" transform="translate(-4367.25 4911)" fill="#FFFFFF"/>
<use xlink:href="#path15_fill" transform="translate(-4367.25 4911)" fill="#FFFFFF"/>
</g>
<g id="DESIGN + ART + MUSIC">
<use xlink:href="#path16_fill" transform="translate(-4343.53 4986.74)" fill="#FFFFFF"/>
<use xlink:href="#path17_fill" transform="translate(-4343.53 4986.74)" fill="#FFFFFF"/>
<use xlink:href="#path18_fill" transform="translate(-4343.53 4986.74)" fill="#FFFFFF"/>
<use xlink:href="#path19_fill" transform="translate(-4343.53 4986.74)" fill="#FFFFFF"/>
<use xlink:href="#path20_fill" transform="translate(-4343.53 4986.74)" fill="#FFFFFF"/>
<use xlink:href="#path21_fill" transform="translate(-4343.53 4986.74)" fill="#FFFFFF"/>
<use xlink:href="#path22_fill" transform="translate(-4343.53 4986.74)" fill="#FFFFFF"/>
<use xlink:href="#path23_fill" transform="translate(-4343.53 4986.74)" fill="#FFFFFF"/>
<use xlink:href="#path24_fill" transform="translate(-4343.53 4986.74)" fill="#FFFFFF"/>
<use xlink:href="#path25_fill" transform="translate(-4343.53 4986.74)" fill="#FFFFFF"/>
<use xlink:href="#path26_fill" transform="translate(-4343.53 4986.74)" fill="#FFFFFF"/>
<use xlink:href="#path27_fill" transform="translate(-4343.53 4986.74)" fill="#FFFFFF"/>
<use xlink:href="#path28_fill" transform="translate(-4343.53 4986.74)" fill="#FFFFFF"/>
<use xlink:href="#path29_fill" transform="translate(-4343.53 4986.74)" fill="#FFFFFF"/>
<use xlink:href="#path30_fill" transform="translate(-4343.53 4986.74)" fill="#FFFFFF"/>
<use xlink:href="#path31_fill" transform="translate(-4343.53 4986.74)" fill="#FFFFFF"/>
</g>
</g>
</g>
<defs>
<path id="path0_fill" d="M 17.9973 4.53608L 13.3258 0L 6.59594 0L 0 0L 4.67156 4.53608L 48.6466 47.2357L 53.3031 51.7572L 53.3031 45.3526L 53.3031 38.8179L 17.9973 4.53608Z"/>
<path id="path1_fill" d="M 31.3232 4.53608L 26.6516 0L 19.9217 0L 13.3258 0L 17.9973 4.53608L 53.3031 38.8179L 53.3031 25.8785L 31.3232 4.53608Z"/>
<path id="path2_fill" d="M 66.6288 51.7572L 66.6288 45.3526L 66.6288 38.8178L 53.3031 25.8785L 53.3031 38.8179L 61.9723 47.2357L 66.6288 51.7572Z"/>
<path id="path3_fill" d="M 48.6466 0L 33.2476 0L 26.6516 0L 31.3232 4.53608L 53.3031 25.8785L 53.3031 4.53608L 53.3031 0L 48.6466 0Z"/>
<path id="path4_fill" d="M 61.9723 0L 53.3031 0L 53.3031 4.53608L 53.3031 25.8785L 66.6288 38.8178L 66.6288 4.53608L 66.6288 0L 61.9723 0Z"/>
<path id="path5_fill" d="M 79.9547 51.7572L 79.9547 45.3526L 79.9547 4.53608L 79.9547 0L 75.2982 0L 66.6288 0L 66.6288 4.53608L 66.6288 38.8178L 75.2982 47.2357L 79.9547 51.7572Z"/>
<path id="path6_fill" d="M 41.3766 25.7061L 41.3766 52.8786L 53.7124 52.8786L 53.7124 1.12141L 50.4571 1.12141L 26.7277 23.2907L 3.34097 1.12141L 0 1.12141L 0 52.8786L 12.3359 52.8786L 12.3359 25.6198L 25.8711 38.9042L 28.0127 38.9042L 41.3766 25.7061Z"/>
<path id="path7_fill" d="M 87.875 54C 102.61 54 111.433 43.9074 111.433 30.5367L 111.433 1.12141L 99.0116 1.12141L 99.0116 30.5367C 99.0116 36.5751 95.5849 41.9233 87.875 41.9233C 80.3364 41.9233 76.6528 36.4888 76.6528 30.5367L 76.6528 1.12141L 64.2313 1.12141L 64.2313 30.5367C 64.2313 43.9074 73.3975 54 87.875 54Z"/>
<path id="path8_fill" d="M 121.973 1.12141L 121.973 52.8786L 134.395 52.8786L 134.395 37.7827L 146.302 37.7827L 156.411 52.8786L 170.546 52.8786L 170.546 52.016L 158.981 35.7125L 158.981 34.5911C 164.292 31.5719 167.548 26.3962 167.548 19.1502C 167.548 7.84984 159.238 1.12141 146.217 1.12141L 121.973 1.12141ZM 154.698 19.6677C 154.698 24.8435 151.528 27.4313 145.788 27.4313L 134.395 27.4313L 134.395 11.9042L 145.703 11.9042C 151.442 11.9042 154.698 14.6645 154.698 19.6677Z"/>
<path id="path9_fill" d="M 226.178 27C 226.178 12.1629 216.07 1.12141 198.937 1.12141L 177.606 1.12141L 177.606 52.8786L 198.937 52.8786C 216.07 52.8786 226.178 41.8371 226.178 27ZM 190.027 11.9042L 197.994 11.9042C 206.904 11.9042 213.329 16.9936 213.329 27C 213.329 37.0064 206.904 42.0958 197.994 42.0958L 190.027 42.0958L 190.027 11.9042Z"/>
<path id="path10_fill" d="M 269.531 31.9169L 269.531 22.0831L 246.915 22.0831L 246.915 11.9042L 275.356 11.9042L 275.356 1.12141L 234.493 1.12141L 234.493 52.8786L 275.356 52.8786L 275.356 42.0958L 246.915 42.0958L 246.915 31.9169L 269.531 31.9169Z"/>
<path id="path11_fill" d="M 283.935 1.12141L 283.935 52.8786L 296.357 52.8786L 296.357 37.7827L 308.264 37.7827L 318.373 52.8786L 332.508 52.8786L 332.508 52.016L 320.943 35.7125L 320.943 34.5911C 326.254 31.5719 329.509 26.3962 329.509 19.1502C 329.509 7.84984 321.2 1.12141 308.179 1.12141L 283.935 1.12141ZM 316.66 19.6677C 316.66 24.8435 313.49 27.4313 307.75 27.4313L 296.357 27.4313L 296.357 11.9042L 307.665 11.9042C 313.404 11.9042 316.66 14.6645 316.66 19.6677Z"/>
<path id="path12_fill" d="M 339.568 52.8786L 378.117 52.8786L 378.117 42.0958L 351.989 42.0958L 351.989 1.12141L 339.568 1.12141L 339.568 52.8786Z"/>
<path id="path13_fill" d="M 407.985 54C 425.203 54 435.569 41.8371 435.569 27C 435.569 12.1629 425.203 0 407.985 0C 390.937 0 380.572 12.1629 380.572 27C 380.572 41.8371 390.937 54 407.985 54ZM 407.985 41.9233C 399.846 41.9233 393.421 35.9712 393.421 27C 393.421 18.0288 399.846 12.0767 407.985 12.0767C 416.294 12.0767 422.719 18.0288 422.719 27C 422.719 35.9712 416.294 41.9233 407.985 41.9233Z"/>
<path id="path14_fill" d="M 443.806 1.12141L 443.806 52.8786L 456.227 52.8786L 456.227 31.9169L 480.299 31.9169L 480.299 22.0831L 456.227 22.0831L 456.227 11.9042L 484.668 11.9042L 484.668 1.12141L 443.806 1.12141Z"/>
<path id="path15_fill" d="M 487.534 1.12141L 487.534 11.9042L 503.725 11.9042L 503.725 52.8786L 516.146 52.8786L 516.146 11.9042L 532.251 11.9042L 532.251 1.12141L 487.534 1.12141Z"/>
<path id="path16_fill" d="M 11.34 6.26C 11.34 2.82 8.98 0.26 4.98 0.26L 0 0.26L 0 12.26L 4.98 12.26C 8.98 12.26 11.34 9.7 11.34 6.26ZM 2.9 2.76L 4.76 2.76C 6.84 2.76 8.34 3.94 8.34 6.26C 8.34 8.58 6.84 9.76 4.76 9.76L 2.9 9.76L 2.9 2.76Z"/>
<path id="path17_fill" d="M 29.4613 7.4L 29.4613 5.12L 24.1812 5.12L 24.1812 2.76L 30.8213 2.76L 30.8213 0.26L 21.2812 0.26L 21.2812 12.26L 30.8213 12.26L 30.8213 9.76L 24.1812 9.76L 24.1812 7.4L 29.4613 7.4Z"/>
<path id="path18_fill" d="M 41.5842 8.7L 40.0042 10.92C 40.0042 10.92 41.7442 12.52 45.1642 12.52C 48.4642 12.52 49.9842 10.72 49.9842 8.54C 49.9842 6.54 48.4442 5.5 45.6242 4.76C 44.1042 4.36 43.5442 4.12 43.5442 3.52C 43.5442 3.02 43.8842 2.64 45.0242 2.64C 46.8442 2.64 48.1442 3.64 48.1442 3.64L 49.7042 1.28C 49.7042 1.28 48.3842 0 45.0242 0C 41.7642 0 40.2042 1.54 40.2042 3.72C 40.2042 5.7 41.7042 6.68 44.3442 7.42C 46.1642 7.92 46.5842 8.24 46.5842 8.86C 46.5842 9.4 46.1842 9.86 45.0842 9.86C 43.3242 9.86 41.5842 8.7 41.5842 8.7Z"/>
<path id="path19_fill" d="M 62.7594 12.26L 62.7594 0.26L 59.8594 0.26L 59.8594 12.26L 62.7594 12.26Z"/>
<path id="path20_fill" d="M 78.8063 5.12L 78.8063 7.4L 81.7262 7.4L 81.7262 7.52C 81.6862 8.7 80.7863 9.74 79.0663 9.74C 77.1263 9.74 75.6862 8.34 75.6862 6.26C 75.6862 4.18 77.1263 2.78 79.0663 2.78C 80.7663 2.78 81.9062 3.7 81.9062 3.7L 83.6263 1.5C 83.6263 1.5 82.2862 0 79.1062 0C 75.1062 0 72.6862 2.82 72.6862 6.26C 72.6862 9.7 75.1062 12.52 79.1062 12.52C 82.9462 12.52 84.8463 9.96 84.8463 6.46L 84.8463 5.12L 78.8063 5.12Z"/>
<path id="path21_fill" d="M 105.929 12.26L 105.929 0.28L 103.049 0.28L 103.049 6.62L 95.2889 0.26L 94.6289 0.26L 94.6289 12.26L 97.5089 12.26L 97.5089 5.64L 105.269 12.26L 105.929 12.26Z"/>
<path id="path22_fill" d="M 143.564 5.16L 143.564 2.18L 141.204 2.18L 141.204 5.16L 138.164 5.16L 138.164 7.48L 141.204 7.48L 141.204 10.3L 143.564 10.3L 143.564 7.48L 146.544 7.48L 146.544 5.16L 143.564 5.16Z"/>
<path id="path23_fill" d="M 182.875 0.26L 176.595 12.26L 179.855 12.26L 180.495 10.84L 185.715 10.84L 186.375 12.26L 189.655 12.26L 183.355 0.26L 182.875 0.26ZM 183.175 5.34L 184.655 8.48L 184.835 8.8L 181.355 8.8L 181.535 8.48L 183.015 5.34L 183.175 5.34Z"/>
<path id="path24_fill" d="M 198.656 0.26L 198.656 12.26L 201.556 12.26L 201.556 8.76L 204.336 8.76L 206.696 12.26L 209.996 12.26L 209.996 12.06L 207.296 8.28L 207.296 8.02C 208.536 7.32 209.296 6.12 209.296 4.44C 209.296 1.82 207.356 0.26 204.316 0.26L 198.656 0.26ZM 206.296 4.56C 206.296 5.76 205.556 6.36 204.216 6.36L 201.556 6.36L 201.556 2.76L 204.196 2.76C 205.536 2.76 206.296 3.4 206.296 4.56Z"/>
<path id="path25_fill" d="M 218.389 0.26L 218.389 2.76L 222.169 2.76L 222.169 12.26L 225.069 12.26L 225.069 2.76L 228.829 2.76L 228.829 0.26L 218.389 0.26Z"/>
<path id="path26_fill" d="M 264.869 5.16L 264.869 2.18L 262.509 2.18L 262.509 5.16L 259.469 5.16L 259.469 7.48L 262.509 7.48L 262.509 10.3L 264.869 10.3L 264.869 7.48L 267.849 7.48L 267.849 5.16L 264.869 5.16Z"/>
<path id="path27_fill" d="M 309.746 5.96L 309.746 12.26L 312.626 12.26L 312.626 0.26L 311.866 0.26L 306.326 5.4L 300.866 0.26L 300.086 0.26L 300.086 12.26L 302.966 12.26L 302.966 5.94L 306.126 9.02L 306.626 9.02L 309.746 5.96Z"/>
<path id="path28_fill" d="M 328.602 12.52C 332.042 12.52 334.102 10.18 334.102 7.08L 334.102 0.26L 331.202 0.26L 331.202 7.08C 331.202 8.48 330.402 9.72 328.602 9.72C 326.842 9.72 325.982 8.46 325.982 7.08L 325.982 0.26L 323.082 0.26L 323.082 7.08C 323.082 10.18 325.222 12.52 328.602 12.52Z"/>
<path id="path29_fill" d="M 345.322 8.7L 343.742 10.92C 343.742 10.92 345.482 12.52 348.902 12.52C 352.202 12.52 353.723 10.72 353.723 8.54C 353.723 6.54 352.182 5.5 349.362 4.76C 347.842 4.36 347.283 4.12 347.283 3.52C 347.283 3.02 347.622 2.64 348.762 2.64C 350.582 2.64 351.883 3.64 351.883 3.64L 353.443 1.28C 353.443 1.28 352.122 0 348.762 0C 345.502 0 343.943 1.54 343.943 3.72C 343.943 5.7 345.442 6.68 348.082 7.42C 349.902 7.92 350.322 8.24 350.322 8.86C 350.322 9.4 349.922 9.86 348.822 9.86C 347.062 9.86 345.322 8.7 345.322 8.7Z"/>
<path id="path30_fill" d="M 366.498 12.26L 366.498 0.26L 363.598 0.26L 363.598 12.26L 366.498 12.26Z"/>
<path id="path31_fill" d="M 387.145 11.06L 385.485 8.84C 385.485 8.84 384.605 9.74 382.905 9.74C 380.865 9.74 379.425 8.34 379.425 6.26C 379.425 4.18 380.865 2.78 382.905 2.78C 384.245 2.78 385.485 3.68 385.485 3.68L 387.145 1.46C 387.145 1.46 385.825 0 382.865 0C 378.845 0 376.425 2.82 376.425 6.26C 376.425 9.7 378.845 12.52 382.865 12.52C 385.805 12.52 387.145 11.06 387.145 11.06Z"/>
</defs>
</svg>
