<svg width="1246" height="108" viewBox="0 0 1246 108" version="1.1" xmlns="http://www.w3.org/2000/svg" xmlns:xlink="http://www.w3.org/1999/xlink">
<title>Logo Lockup B</title>
<desc>Created using Figma</desc>
<g id="Canvas" transform="matrix(2 0 0 2 8916 -9822)">
<g id="Logo Lockup B">
<g id="Logo">
<g id="Group">
<g id="Vector">
<use xlink:href="#path0_fill" transform="translate(-4458 4912.12)" fill="#FC3B4E"/>
</g>
<g id="Vector">
<use xlink:href="#path1_fill" transform="translate(-4458 4912.12)" fill="#FC8C29"/>
</g>
<g id="Vector">
<use xlink:href="#path2_fill" transform="translate(-4458 4912.12)" fill="#1AB26B"/>
</g>
<g id="Vector">
<use xlink:href="#path3_fill" transform="translate(-4458 4912.12)" fill="#FFB100"/>
</g>
<g id="Vector">
<use xlink:href="#path4_fill" transform="translate(-4458 4912.12)" fill="#18A193"/>
</g>
<g id="Vector">
<use xlink:href="#path5_fill" transform="translate(-4458 4912.12)" fill="#3C6FFB"/>
</g>
</g>
</g>
<g id="MURDERLOFT">
<use xlink:href="#path6_fill" transform="translate(-4367.25 4911)" fill="#FFFFFF"/>
<use xlink:href="#path7_fill" transform="translate(-4367.25 4911)" fill="#FFFFFF"/>
<use xlink:href="#path8_fill" transform="translate(-4367.25 4911)" fill="#FFFFFF"/>
<use xlink:href="#path9_fill" transform="translate(-4367.25 4911)" fill="#FFFFFF"/>
<use xlink:href="#path10_fill" transform="translate(-4367.25 4911)" fill="#FFFFFF"/>
<use xlink:href="#path11_fill" transform="translate(-4367.25 4911)" fill="#FFFFFF"/>
<use xlink:href="#path12_fill" transform="translate(-4367.25 4911)" fill="#FFFFFF"/>
<use xlink:href="#path13_fill" transform="translate(-4367.25 4911)" fill="#FFFFFF"/>
<use xlink:href="#path14_fill" transform="translate(-4367.25 4911)" fill="#FFFFFF"/>
<use xlink:href="#path15_fill" transform="translate(-4367.25 4911)" fill="#FFFFFF"/>
</g>
</g>
</g>
<defs>
<path id="path0_fill" d="M 17.9973 4.53608L 13.3258 0L 6.59594 0L 0 0L 4.67156 4.53608L 48.6466 47.2357L 53.3031 51.7572L 53.3031 45.3526L 53.3031 38.8179L 17.9973 4.53608Z"/>
<path id="path1_fill" d="M 31.3232 4.53608L 26.6516 0L 19.9217 0L 13.3258 0L 17.9973 4.53608L 53.3031 38.8179L 53.3031 25.8785L 31.3232 4.53608Z"/>
<path id="path2_fill" d="M 66.6288 51.7572L 66.6288 45.3526L 66.6288 38.8178L 53.3031 25.8785L 53.3031 38.8179L 61.9723 47.2357L 66.6288 51.7572Z"/>
<path id="path3_fill" d="M 48.6466 0L 33.2476 0L 26.6516 0L 31.3232 4.53608L 53.3031 25.8785L 53.3031 4.53608L 53.3031 0L 48.6466 0Z"/>
<path id="path4_fill" d="M 61.9723 0L 53.3031 0L 53.3031 4.53608L 53.3031 25.8785L 66.6288 38.8178L 66.6288 4.53608L 66.6288 0L 61.9723 0Z"/>
<path id="path5_fill" d="M 79.9547 51.7572L 79.9547 45.3526L 79.9547 4.53608L 79.9547 0L 75.2982 0L 66.6288 0L 66.6288 4.53608L 66.6288 38.8178L 75.2982 47.2357L 79.9547 51.7572Z"/>
<path id="path6_fill" d="M 41.3766 25.7061L 41.3766 52.8786L 53.7124 52.8786L 53.7124 1.12141L 50.4571 1.12141L 26.7277 23.2907L 3.34097 1.12141L 0 1.12141L 0 52.8786L 12.3359 52.8786L 12.3359 25.6198L 25.8711 38.9042L 28.0127 38.9042L 41.3766 25.7061Z"/>
<path id="path7_fill" d="M 87.875 54C 102.61 54 111.433 43.9074 111.433 30.5367L 111.433 1.12141L 99.0116 1.12141L 99.0116 30.5367C 99.0116 36.5751 95.5849 41.9233 87.875 41.9233C 80.3364 41.9233 76.6528 36.4888 76.6528 30.5367L 76.6528 1.12141L 64.2313 1.12141L 64.2313 30.5367C 64.2313 43.9074 73.3975 54 87.875 54Z"/>
<path id="path8_fill" d="M 121.973 1.12141L 121.973 52.8786L 134.395 52.8786L 134.395 37.7827L 146.302 37.7827L 156.411 52.8786L 170.546 52.8786L 170.546 52.016L 158.981 35.7125L 158.981 34.5911C 164.292 31.5719 167.548 26.3962 167.548 19.1502C 167.548 7.84984 159.238 1.12141 146.217 1.12141L 121.973 1.12141ZM 154.698 19.6677C 154.698 24.8435 151.528 27.4313 145.788 27.4313L 134.395 27.4313L 134.395 11.9042L 145.703 11.9042C 151.442 11.9042 154.698 14.6645 154.698 19.6677Z"/>
<path id="path9_fill" d="M 226.178 27C 226.178 12.1629 216.07 1.12141 198.937 1.12141L 177.606 1.12141L 177.606 52.8786L 198.937 52.8786C 216.07 52.8786 226.178 41.8371 226.178 27ZM 190.027 11.9042L 197.994 11.9042C 206.904 11.9042 213.329 16.9936 213.329 27C 213.329 37.0064 206.904 42.0958 197.994 42.0958L 190.027 42.0958L 190.027 11.9042Z"/>
<path id="path10_fill" d="M 269.531 31.9169L 269.531 22.0831L 246.915 22.0831L 246.915 11.9042L 275.356 11.9042L 275.356 1.12141L 234.493 1.12141L 234.493 52.8786L 275.356 52.8786L 275.356 42.0958L 246.915 42.0958L 246.915 31.9169L 269.531 31.9169Z"/>
<path id="path11_fill" d="M 283.935 1.12141L 283.935 52.8786L 296.357 52.8786L 296.357 37.7827L 308.264 37.7827L 318.373 52.8786L 332.508 52.8786L 332.508 52.016L 320.943 35.7125L 320.943 34.5911C 326.254 31.5719 329.509 26.3962 329.509 19.1502C 329.509 7.84984 321.2 1.12141 308.179 1.12141L 283.935 1.12141ZM 316.66 19.6677C 316.66 24.8435 313.49 27.4313 307.75 27.4313L 296.357 27.4313L 296.357 11.9042L 307.665 11.9042C 313.404 11.9042 316.66 14.6645 316.66 19.6677Z"/>
<path id="path12_fill" d="M 339.568 52.8786L 378.117 52.8786L 378.117 42.0958L 351.989 42.0958L 351.989 1.12141L 339.568 1.12141L 339.568 52.8786Z"/>
<path id="path13_fill" d="M 407.985 54C 425.203 54 435.569 41.8371 435.569 27C 435.569 12.1629 425.203 0 407.985 0C 390.937 0 380.572 12.1629 380.572 27C 380.572 41.8371 390.937 54 407.985 54ZM 407.985 41.9233C 399.846 41.9233 393.421 35.9712 393.421 27C 393.421 18.0288 399.846 12.0767 407.985 12.0767C 416.294 12.0767 422.719 18.0288 422.719 27C 422.719 35.9712 416.294 41.9233 407.985 41.9233Z"/>
<path id="path14_fill" d="M 443.806 1.12141L 443.806 52.8786L 456.227 52.8786L 456.227 31.9169L 480.299 31.9169L 480.299 22.0831L 456.227 22.0831L 456.227 11.9042L 484.668 11.9042L 484.668 1.12141L 443.806 1.12141Z"/>
<path id="path15_fill" d="M 487.534 1.12141L 487.534 11.9042L 503.725 11.9042L 503.725 52.8786L 516.146 52.8786L 516.146 11.9042L 532.251 11.9042L 532.251 1.12141L 487.534 1.12141Z"/>
</defs>
</svg>
