<?xml version="1.0" standalone="no"?>
<!DOCTYPE svg PUBLIC "-//W3C//DTD SVG 1.1//EN" "http://www.w3.org/Graphics/SVG/1.1/DTD/svg11.dtd">
<svg xmlns="http://www.w3.org/2000/svg"><metadata>This SVG WebFont was generated by YouWorkForThem.
Copyright (c) 2013 by Miguel &amp; Daniel Hernndez. All rights reserved.</metadata><defs><font horiz-adv-x="1126" id="ywftsvg"><font-face ascent="1536" bbox="-338 -512 2105 1890" cap-height="1229" descent="-512" font-family="" font-stretch="normal" font-weight="500" panose-1="0 0 0 0 0 0 0 0 0 0" underline-position="0" underline-thickness="0" unicode-range="U+000D-FB04" units-per-em="2048" x-height="709"/><missing-glyph horiz-adv-x="1024"/><glyph glyph-name=".notdef" horiz-adv-x="1024"/><glyph glyph-name="glyph1" horiz-adv-x="0"/><glyph glyph-name="glyph2" horiz-adv-x="681"/><glyph glyph-name="glyph3" horiz-adv-x="0"/><glyph glyph-name="glyph3" horiz-adv-x="0"/><glyph glyph-name="space" horiz-adv-x="401" unicode=" "/><glyph d="M346 1229v-76l-41 -795h-117l-45 795v76h203zM135 98q0 47 33 80t80 33t80.5 -33t33.5 -80t-33.5 -80.5t-80.5 -33.5t-80 33.5t-33 80.5z" glyph-name="exclam" horiz-adv-x="495" unicode="!"/><glyph d="M98 948v31l37 397h154v-30l-84 -398h-107zM371 948v31l39 397h149v-30l-82 -398h-106z" glyph-name="quotedbl" horiz-adv-x="634" unicode="&quot;"/><glyph d="M1079 1194l-73 -326h251l-24 -104h-250l-76 -336h242l-23 -106h-243l-72 -322h-113l72 322h-338l-72 -322h-112l71 322h-249l22 106h252l76 336h-242l21 104h243l74 326h113l-74 -326h338l74 326h112zM532 764l-75 -336h338l75 336h-338z" glyph-name="numbersign" horiz-adv-x="1327" unicode="#"/><glyph d="M574 129q128 0 200 51.5t72 137.5t-67.5 134t-276.5 108t-308.5 139t-99.5 223t106.5 231.5t297.5 99.5v168h129v-168q115 -8 207 -36.5t129 -53.5l34 -26l-92 -140q-14 10 -40.5 27.5t-117.5 45.5t-205 28t-192 -47t-78 -124t69 -120t281 -101t308 -146.5t96 -232.5 t-100.5 -240.5t-298.5 -111.5v-168h-129v166q-123 8 -225.5 45t-141.5 70l-41 33l92 127q14 -12 44 -32.5t125 -53.5t223 -33z" glyph-name="dollar" horiz-adv-x="1105" unicode="$"/><glyph d="M351 1255q128 0 203 -89t75 -217t-75 -219t-203 -91t-202.5 90t-74.5 219t74.5 218t202.5 89zM351 1133q-67 0 -101.5 -50.5t-34.5 -134.5t35 -134t100 -50t101 51t36 134t-34.5 133.5t-101.5 50.5zM1114 1241l105 -84l-961 -1155l-102 84zM1025 600q128 0 203 -89 t75 -218t-76 -219t-203 -90t-203 90t-76 218t76 218t204 90zM1024 477q-66 0 -101.5 -51t-35.5 -133t37.5 -133t101.5 -51t98.5 50t34.5 134t-34.5 134t-100.5 50z" glyph-name="percent" horiz-adv-x="1376" unicode="%"/><glyph d="M111 330q0 123 72.5 199.5t201.5 140.5l-16 16q-131 126 -131 266t92 221.5t246 81.5t246.5 -82.5t92.5 -204.5t-74.5 -198t-207.5 -141l313 -301q66 123 66 274v43h164v-41q0 -213 -115 -385l211 -203v-16h-195l-112 109q-156 -135 -381.5 -135.5t-349 97t-123.5 259.5z M604 121q148 0 252 92l-360 348q-98 -51 -149.5 -101t-51.5 -133t80.5 -144.5t228.5 -61.5zM399 948q0 -102 123 -217q113 51 172.5 99t59.5 120t-44 118t-130 46t-133.5 -45t-47.5 -121z" glyph-name="ampersand" horiz-adv-x="1282" unicode="&amp;"/><glyph d="M98 948v31l37 397h154v-30l-84 -398h-107z" glyph-name="quotesingle" horiz-adv-x="362" unicode="'"/><glyph d="M238 528q0 -131 33.5 -248.5t78.5 -194.5t121.5 -158.5t175.5 -143.5l-84 -119q-114 63 -209.5 161.5t-152 189.5t-97.5 227.5t-41 286t41 285.5t97.5 227.5t152.5 189.5t209 160l84 -119q-99 -62 -175.5 -143.5t-121.5 -158.5t-78.5 -194t-33.5 -248z" glyph-name="parenleft" horiz-adv-x="669" unicode="("/><glyph d="M608 528.5q0 -149.5 -41 -286t-97 -227.5t-151.5 -189.5t-209.5 -161.5l-86 119q43 27 85 58.5t105 99t108.5 144.5t79 194.5t33.5 248.5t-33.5 248t-79 194t-108.5 144.5t-105 99t-85 58.5l86 119q108 -59 206.5 -158.5t154.5 -191t97 -227.5t41 -285.5z" glyph-name="parenright" horiz-adv-x="669" unicode=")"/><glyph d="M358 1493h129v-59l-28 -158h-74l-27 158v59zM688 1194l-160 -23l-20 68l143 78l54 18l38 -125zM313 1171l-159 23l-56 16l39 125l56 -18l143 -78zM215 1006l117 112l57 -41l-70 -149l-34 -47l-103 75zM512 1116l117 -110l35 -50l-107 -75l-33 47l-71 149z" glyph-name="asterisk" horiz-adv-x="841" unicode="*"/><glyph d="M569 1012v-330h330v-137h-330v-320h-143v320h-334v137h334v330h143z" glyph-name="plus" horiz-adv-x="991" unicode="+"/><glyph d="M51 95q0 44 31 75t77 31t77.5 -31.5t31.5 -89.5t-39 -129l-82 -146h-114l73 132l33 40v9q-39 6 -63.5 35.5t-24.5 73.5z" glyph-name="comma" horiz-adv-x="319" unicode=","/><glyph d="M104 530v140h588v-140h-588z" glyph-name="hyphen" horiz-adv-x="796" unicode="-"/><glyph d="M51 92q0 47 32 79t77 32t76.5 -32t31.5 -79t-31.5 -77.5t-76.5 -30.5t-77 30.5t-32 77.5z" glyph-name="period" horiz-adv-x="319" unicode="."/><glyph d="M680 1440l-453 -1800h-168l453 1800h168z" glyph-name="slash" horiz-adv-x="739" unicode="/"/><glyph d="M638 -29q-253 0 -399.5 183.5t-146.5 458.5t146.5 458.5t399.5 183.5t398.5 -182.5t145.5 -458.5t-145.5 -459.5t-398.5 -183.5zM637 133q176 0 274.5 135t98.5 345t-98.5 346.5t-274.5 136.5t-274.5 -136.5t-98.5 -346.5t98.5 -345t274.5 -135z" glyph-name="zero" horiz-adv-x="1273" unicode="0"/><glyph d="M43 1075v154h438v-1229h-168v1075h-270z" glyph-name="one" horiz-adv-x="667" unicode="1"/><glyph d="M70 1085q170 170 417 170q211 0 326 -104t115 -264t-137 -312l-379 -421h546v-154h-870v37l533 592q72 80 99.5 129t27.5 106q0 98 -73 164t-175 66t-201 -46t-135 -98z" glyph-name="two" horiz-adv-x="1046" unicode="2"/><glyph d="M528 594h-172v49l314 432h-545v154h817v-37l-338 -465q170 -8 267.5 -107.5t97.5 -265.5t-123 -274.5t-338 -108.5t-321 77.5t-113 86.5l-8 6q16 23 84 131q84 -84 190 -112.5t164 -28.5q133 0 212 63.5t79 167.5t-72 168t-195 64z" glyph-name="three" horiz-adv-x="1058" unicode="3"/><glyph d="M51 285v123l723 821h127v-791h146v-153h-148v-285h-168v285h-680zM276 438h455v523l-420 -484l-35 -22v-17z" glyph-name="four" horiz-adv-x="1124" unicode="4"/><glyph d="M903 1075h-555l-10 -338q82 14 160 15q233 0 351 -102.5t118 -282.5t-120 -288t-341 -108q-119 0 -229.5 43t-161.5 86l-52 43l89 131q51 -51 157.5 -97t218.5 -46t188.5 65.5t76.5 173.5t-82.5 170t-234.5 62t-213.5 -20.5t-65.5 -24.5l-29 23l20 649h715v-154z" glyph-name="five" horiz-adv-x="1046" unicode="5"/><glyph d="M555 764q199 0 320.5 -108.5t121.5 -285.5t-127.5 -288t-325.5 -111t-324 112t-125 293t114 361l307 492h207l-279 -436q-27 -43 -47 -54l-8 -6v-12q76 43 166 43zM552 612q-124 0 -203 -64t-79 -174t79 -178.5t201 -68.5t196.5 69.5t74.5 176t-72.5 173t-196.5 66.5z " glyph-name="six" horiz-adv-x="1052" unicode="6"/><glyph d="M76 1075v154h856v-41l-561 -1188h-205l520 1075h-610z" glyph-name="seven" horiz-adv-x="946" unicode="7"/><glyph d="M554 -29q-210 0 -333 105.5t-123 261.5q0 213 203 311q-156 92 -156 269q0 145 112 241t298 96t297 -96t111 -241q0 -176 -156 -269q203 -100 203 -311q0 -156 -123 -261.5t-333 -105.5zM555 127q125 0 203 63.5t78 159.5t-79 162t-202 66t-203 -66t-80 -162t79 -159.5 t204 -63.5zM554 709q108 0 172.5 57t64.5 141t-64.5 138.5t-172.5 54.5t-172.5 -54.5t-64.5 -139.5t64.5 -141t172.5 -56z" glyph-name="eight" horiz-adv-x="1107" unicode="8"/><glyph d="M961 850q0 -182 -113 -361l-307 -489h-209l276 434q20 32 56 60v8q-72 -41 -164 -41q-199 0 -321 109.5t-122 286.5t126 287.5t326 110.5t326 -111.5t126 -293.5zM503 616q122 0 201.5 63t79.5 171t-79.5 178t-199.5 70t-194.5 -68t-74.5 -174t72.5 -173t194.5 -67z" glyph-name="nine" horiz-adv-x="1054" unicode="9"/><glyph d="M96 607q0 46 33 78t78 32t76.5 -32t31.5 -78t-31.5 -77.5t-77.5 -31.5t-78 31.5t-32 77.5zM96 93q0 46 32 78t78 32t77.5 -32t31.5 -79t-30.5 -77.5t-77.5 -30.5t-79 31.5t-32 77.5z" glyph-name="colon" horiz-adv-x="415" unicode=":"/><glyph d="M119 94q0 43 31.5 75t78.5 32t79 -31.5t32 -89.5t-41 -129l-82 -146h-113l74 132l31 40v9q-41 6 -65.5 35.5t-24.5 72.5zM121 607q0 46 31.5 78t77.5 32t78 -32t32 -78t-32 -77.5t-78 -31.5t-77.5 31.5t-31.5 77.5z" glyph-name="semicolon" horiz-adv-x="450" unicode=";"/><glyph d="M567 90l-493 475v47l493 475l99 -102l-414 -397l414 -395z" glyph-name="less" horiz-adv-x="774" unicode="&lt;"/><glyph d="M164 725v139h754v-139h-754zM164 336v137h754v-137h-754z" glyph-name="equal" horiz-adv-x="1081" unicode="="/><glyph d="M700 565l-493 -475l-98 103l413 395l-413 397l98 102l493 -475v-47z" glyph-name="greater" horiz-adv-x="774" unicode=">"/><glyph d="M285 352v80q0 84 37.5 157t84 116t84 105t37.5 135t-52 121t-124 48t-124 -14.5t-74 -30.5l-23 -14l-59 131q109 70 281 70t258.5 -81t86.5 -214t-68.5 -207t-139 -144.5t-87.5 -191.5l-4 -66h-114zM238 92q0 47 31.5 79t77.5 32t78 -32t32 -78t-32 -77.5t-79 -31.5 t-77.5 30.5t-30.5 77.5z" glyph-name="question" horiz-adv-x="786" unicode="?"/><glyph d="M934 -500q-268 0 -467 122t-294 315.5t-95 401.5t57.5 365.5t165 278.5t272 190.5t367.5 69.5t366.5 -67.5t317.5 -235.5t154 -453q0 -236 -96.5 -375t-270.5 -139q-117 0 -173 50.5t-67 87.5l-6 14h-12q-12 -27 -33.5 -52.5t-88 -57t-157.5 -31.5q-156 0 -257 102 t-101 270t101.5 268.5t256.5 100.5q190 0 267 -129l26 113h113v-447q0 -150 139 -149q102 0 160.5 96t58.5 258q0 272 -187 457.5t-511 185.5t-523.5 -208t-199.5 -530t196.5 -530.5t520.5 -208.5q109 0 201 19.5t131 40.5l39 18l55 -119q-14 -10 -44 -25.5t-140.5 -41 t-241.5 -25.5zM1128 358q0 108 -62 169t-160 61t-162 -64t-64 -168t63.5 -169.5t160.5 -65.5t160.5 64.5t63.5 172.5z" glyph-name="at" horiz-adv-x="1871" unicode="@"/><glyph d="M-2 0l610 1229h35l612 -1229h-192l-100 201h-674l-101 -201h-190zM877 371l-242 526h-21l-239 -526l-13 -21h527z" glyph-name="A" horiz-adv-x="1251" unicode="A"/><glyph d="M1204 344q0 -168 -124 -256t-335 -88h-575v1229h553q209 0 324.5 -85t115.5 -247q0 -195 -182 -260v-14q102 -31 162.5 -103t60.5 -176zM338 547v-393h414q121 0 198.5 52t77.5 144t-72.5 142.5t-187.5 54.5h-430zM987 885q0 190 -268 190h-381v-381h381 q125 0 196.5 51.5t71.5 139.5z" glyph-name="B" horiz-adv-x="1300" unicode="B"/><glyph d="M84 613q0 273 179 457.5t464 184.5q205 0 301 -61t111 -78l16 -16l-96 -131q-79 79 -177 103t-153 24q-207 0 -340 -139.5t-133 -343.5t133 -343t340 -139q92 0 174 32t119 62l37 33l96 -131l-13 -13q-14 -14 -106.5 -78.5t-308.5 -64.5q-285 0 -464 184.5t-179 457.5z " glyph-name="C" horiz-adv-x="1206" unicode="C"/><glyph d="M1264 614.5q0 -278.5 -179.5 -446.5t-474.5 -168h-440v1229h440q295 0 474.5 -168t179.5 -446.5zM598 1075h-260v-921h260q217 0 355.5 122.5t138.5 337.5t-138.5 338t-355.5 123z" glyph-name="D" horiz-adv-x="1351" unicode="D"/><glyph d="M985 682v-150h-647v-378h745v-154h-913v1229h913v-154h-745v-393h647z" glyph-name="E" horiz-adv-x="1161" unicode="E"/><glyph d="M170 0v1229h913v-154h-745v-393h653v-150h-653v-532h-168z" glyph-name="F" horiz-adv-x="1140" unicode="F"/><glyph d="M690 532v150h608v-94q0 -283 -153 -450t-433 -167t-454 183.5t-174 458.5t177 458.5t466 183.5q180 0 290.5 -52t149.5 -91l17 -16l-101 -129q-14 14 -41.5 35.5t-121 57.5t-193.5 36q-211 0 -341 -138.5t-130 -345t126 -344t320 -137.5t306 106.5t116 278.5v16h-434z " glyph-name="G" horiz-adv-x="1378" unicode="G"/><glyph d="M1214 1229v-1229h-170v528h-706v-528h-168v1229h168v-549h706v549h170z" glyph-name="H" horiz-adv-x="1382" unicode="H"/><glyph d="M338 1229v-1229h-168v1229h168z" glyph-name="I" horiz-adv-x="507" unicode="I"/><glyph d="M346 135q266 0 266 299v795h170v-830q0 -203 -107.5 -315.5t-314.5 -112.5q-90 0 -182.5 30.5t-132.5 70.5l80 133q96 -70 221 -70z" glyph-name="J" horiz-adv-x="940" unicode="J"/><glyph d="M338 1229v-656l657 656h205v-25l-489 -491l489 -688v-25h-199l-413 590l-250 -252v-338h-168v1229h168z" glyph-name="K" horiz-adv-x="1230" unicode="K"/><glyph d="M1040 0h-870v1229h168v-1075h702v-154z" glyph-name="L" horiz-adv-x="1064" unicode="L"/><glyph d="M1214 0v862l-415 -444h-45l-416 442v-860h-168v1229h47l559 -590l561 590h45v-1229h-168z" glyph-name="M" horiz-adv-x="1550" unicode="M"/><glyph d="M1257 1229v-1229h-47l-872 883v-883h-168v1229h47l870 -873v873h170z" glyph-name="N" horiz-adv-x="1425" unicode="N"/><glyph d="M722 -29q-288 0 -463 183.5t-175 458.5t175 458.5t463 183.5t464 -182.5t176 -458.5t-176 -459.5t-464 -183.5zM723 133q209 0 338 137.5t129 343.5t-129 344t-338 138t-338 -139.5t-129 -344t129 -342t338 -137.5z" glyph-name="O" horiz-adv-x="1445" unicode="O"/><glyph d="M170 0v1229h516q233 0 363.5 -107.5t130.5 -309.5t-136.5 -313.5t-367.5 -111.5h-338v-387h-168zM1006 811q0 131 -87.5 197.5t-238.5 66.5h-342v-536h342q326 0 326 272z" glyph-name="P" horiz-adv-x="1236" unicode="P"/><glyph d="M721 -29q-287 0 -462 183.5t-175 458.5t175 458.5t463 183.5t464 -183t176 -460q0 -166 -67.5 -304t-192.5 -224l115 -168v-27h-185l-80 119q-114 -37 -231 -37zM676 451h178l154 -228q182 139 182 389q0 207 -129 345.5t-338 138.5t-338 -139.5t-129 -344t129 -342 t336 -137.5q68 0 137 17l-182 276v25z" glyph-name="Q" horiz-adv-x="1445" unicode="Q"/><glyph d="M684 1229q233 0 364.5 -107.5t131.5 -306.5q0 -143 -74 -240.5t-203 -142.5v-8l318 -391v-33h-187l-321 399h-375v-399h-168v1229h514zM1004 812q0 130 -86.5 196.5t-237.5 66.5h-342v-524h358q141 0 224.5 65.5t83.5 195.5z" glyph-name="R" horiz-adv-x="1292" unicode="R"/><glyph d="M570 129q128 0 200 51.5t72 137.5t-67.5 134t-276.5 108t-308.5 139t-99.5 228t122 238.5t339 89.5q137 0 247.5 -29.5t151.5 -58.5l43 -30l-92 -140q-14 10 -40.5 27.5t-117.5 45.5t-205 28t-192 -47t-78 -124t69 -120t281 -101t308 -146t96 -240t-119 -250.5 t-348 -98.5t-332.5 59.5t-120.5 75.5l-16 15l92 127q14 -12 44 -32.5t125 -53.5t223 -33z" glyph-name="S" horiz-adv-x="1099" unicode="S"/><glyph d="M31 1075v154h1018v-154h-426v-1075h-168v1075h-424z" glyph-name="T" horiz-adv-x="1077" unicode="T"/><glyph d="M677 -29q-245 0 -385 150.5t-140 394.5v713h167v-713q0 -172 92.5 -277.5t264.5 -105.5t263 105.5t91 277.5v713h170v-713q0 -244 -139 -394.5t-384 -150.5z" glyph-name="U" horiz-adv-x="1349" unicode="U"/><glyph d="M616 322h19l123 278l305 629h188l-608 -1229h-37l-608 1229h188l312 -629z" glyph-name="V" horiz-adv-x="1251" unicode="V"/><glyph d="M514 309l272 920h101l239 -813l29 -107h12l31 113l277 807h178l-445 -1229h-114l-240 807l-16 51h-11l-258 -858h-108l-445 1229h177l280 -807l29 -113h12z" glyph-name="W" horiz-adv-x="1673" unicode="W"/><glyph d="M575 537l-51 -95l-293 -442h-200l418 631l-404 598h203l284 -424l43 -88l46 88q6 8 142 212t140 212h203l-408 -598l424 -631h-204l-295 442z" glyph-name="X" horiz-adv-x="1148" unicode="X"/><glyph d="M647 0h-170v469l-471 760h197l321 -520l35 -76h12l37 76l318 520h194l-473 -758v-471z" glyph-name="Y" unicode="Y"/><glyph d="M61 0v43l721 1032h-696v154h969v-43l-707 -1032h694v-154h-981z" glyph-name="Z" horiz-adv-x="1112" unicode="Z"/><glyph d="M152 -324v1704h464v-139h-305v-1425h305v-140h-464z" glyph-name="bracketleft" horiz-adv-x="663" unicode="["/><glyph d="M512 -360l-453 1800h168l453 -1800h-168z" glyph-name="backslash" horiz-adv-x="739" unicode="\"/><glyph d="M47 -324v140h305v1425h-305v139h465v-1704h-465z" glyph-name="bracketright" horiz-adv-x="663" unicode="]"/><glyph d="M115 1001v31l245 336h101l248 -336v-31h-121l-178 242l-174 -242h-121z" glyph-name="asciicircum" horiz-adv-x="823" unicode="^"/><glyph d="M90 -180v139h825v-139h-825z" glyph-name="underscore" horiz-adv-x="1013" unicode="_"/><glyph d="M109 1182h198l86 -293v-31h-106l-178 293v31z" glyph-name="grave" horiz-adv-x="520" unicode="`"/><glyph d="M57 210q0 97 81.5 157.5t229.5 60.5t222 -55h12v35q0 180 -223 180q-55 0 -106.5 -13.5t-75.5 -27.5l-23 -15l-55 125q97 68 285 68t274 -89t86 -245v-391h-119l-16 82h-11q-70 -98 -262 -98q-143 0 -221 64.5t-78 161.5zM221 216q0 -52 44 -84t128 -32t144.5 40t60.5 83 t-57.5 74t-143.5 31t-131 -30t-45 -82z" glyph-name="a" horiz-adv-x="868" unicode="a"/><glyph d="M117 0v1368h168v-750h6q33 67 113.5 87t134.5 20q150 0 250 -103.5t100 -269.5t-101.5 -267t-250.5 -101t-204 50.5t-71 76.5h-6l-23 -111h-116zM274 354.5q0 -104.5 63 -168t161 -63.5t159.5 65.5t61.5 166.5t-61.5 166t-158.5 65t-161 -63.5t-64 -168z" glyph-name="b" horiz-adv-x="958" unicode="b"/><glyph d="M452 -16q-163 0 -273.5 103t-110.5 266t110.5 267.5t282.5 104.5q68 0 126 -15.5t83 -29.5l24 -16l-49 -125q-66 47 -169 47t-171.5 -64.5t-68.5 -169t68.5 -167t165.5 -62.5t157 37l18 10l45 -125q-75 -61 -238 -61z" glyph-name="c" horiz-adv-x="743" unicode="c"/><glyph d="M674 627v741h168v-1368h-115l-25 104h-8q-6 -13 -62.5 -66.5t-208.5 -53.5q-153 0 -254 101t-101 267t100 269.5t252 103.5q84 0 145.5 -24.5t81.5 -49.5l21 -24h6zM684 354.5q0 104.5 -64.5 168t-161 63.5t-158.5 -64t-62 -166t62 -167.5t158.5 -65.5t161 63.5t64.5 168 z" glyph-name="d" horiz-adv-x="958" unicode="d"/><glyph d="M471 -18q-182 0 -292.5 103t-110.5 266t104 268.5t268 105.5t259.5 -99.5t95.5 -256.5l-2 -50h-562q10 -100 76.5 -152t146.5 -52q146 0 205 45l23 14l57 -111q-10 -8 -29.5 -22t-89 -36.5t-149.5 -22.5zM440 594q-78 0 -132 -43t-72 -123h395q-10 74 -61.5 120 t-129.5 46z" glyph-name="e" horiz-adv-x="851" unicode="e"/><glyph d="M614 578h-249v-578h-166v578h-164v131h164v301q0 178 79.5 266t227.5 88q86 0 160 -37l-43 -143q-49 25 -95 24q-164 0 -163 -198v-301h249v-131z" glyph-name="f" horiz-adv-x="653" unicode="f"/><glyph d="M431 -485q-185 0 -285.5 71.5t-100.5 198.5t131 188v11q-121 51 -121 155t115 164q-49 61 -49 165t84 179.5t213 75.5l375 -16v-119h-123v-10q45 -28 45 -132t-82 -177.5t-215 -73.5q-88 0 -158 34q-57 -27 -57 -71t49 -66t180 -22q389 0 389 -271q0 -125 -102.5 -204.5 t-287.5 -79.5zM433 -63q-110 0 -169 -42t-59 -105.5t58.5 -105.5t169 -42t167.5 41t57 105t-57 106.5t-167 42.5zM418 596q-74 0 -116 -40t-42 -100t42 -99.5t116 -39.5t115.5 39.5t41.5 99.5t-41.5 100t-115.5 40z" glyph-name="g" horiz-adv-x="831" unicode="g"/><glyph d="M117 0v1368h168v-725h6q86 82 230 82t227 -86t83 -231v-408h-165v385q0 90 -49.5 145.5t-138.5 55.5t-138 -50.5t-55 -115.5v-420h-168z" glyph-name="h" horiz-adv-x="940" unicode="h"/><glyph d="M203 979q-43 0 -73 29.5t-30 72.5t30 74t73 31t73.5 -31t30.5 -74t-30.5 -72.5t-73.5 -29.5zM119 0v709h168v-709h-168z" glyph-name="i" horiz-adv-x="405" unicode="i"/><glyph d="M33 -270q82 0 82 102v877h170v-883q0 -238 -213 -238q-74 0 -121 27l-17 8l29 125q33 -18 70 -18zM200 979q-44 0 -75 29.5t-31 72.5t31 74t74 31t72.5 -31t29.5 -74t-28.5 -72.5t-72.5 -29.5z" glyph-name="j" horiz-adv-x="399" unicode="j"/><glyph d="M283 313v-313h-168v1368h168v-975h6l280 316h197l-315 -347l360 -362h-223l-299 313h-6z" glyph-name="k" horiz-adv-x="821" unicode="k"/><glyph d="M119 0v1368h168v-1368h-168z" glyph-name="l" horiz-adv-x="405" unicode="l"/><glyph d="M117 0v709h110l21 -101h8q88 117 268 117t262 -127h9q82 127 270 127q147 0 231 -86t84 -231v-408h-168v385q0 90 -47 145.5t-137 55.5t-143.5 -51.5t-53.5 -114.5v-420h-165v406q0 80 -49.5 130t-138.5 50t-141 -51.5t-52 -114.5v-420h-168z" glyph-name="m" horiz-adv-x="1486" unicode="m"/><glyph d="M285 408v-408h-168v709h110l21 -101h8q80 117 244 117t247.5 -86t83.5 -231v-408h-165v385q0 88 -49.5 144.5t-140.5 56.5t-141 -55t-50 -123z" glyph-name="n" horiz-adv-x="935" unicode="n"/><glyph d="M848 350q0 -166 -112.5 -266t-278.5 -100t-277.5 100t-111.5 267t111.5 270.5t277.5 103.5t278.5 -104.5t112.5 -270.5zM456.5 119q96.5 0 162 63.5t65.5 170t-65.5 172t-162 65.5t-161 -65.5t-64.5 -172t64.5 -170t161 -63.5z" glyph-name="o" horiz-adv-x="913" unicode="o"/><glyph d="M285 82v-475h-168v1102h112l23 -101h12q8 12 24.5 31.5t86 52.5t157.5 33q154 0 255.5 -101.5t101.5 -267.5t-100.5 -269t-249.5 -103q-86 0 -147.5 24.5t-80.5 48.5l-20 25h-6zM274 354.5q0 -104.5 63 -168t161 -63.5t159.5 64.5t61.5 165.5t-61.5 167t-158.5 66 t-161 -63.5t-64 -168z" glyph-name="p" horiz-adv-x="958" unicode="p"/><glyph d="M842 709v-1102h-168v483h-6q-5 -11 -55.5 -58.5t-197.5 -47.5t-247 103t-100 269t101 267.5t257 101.5q92 0 158.5 -33t87.5 -65l22 -31h8l25 113h115zM684 354.5q0 104.5 -64.5 168t-161 63.5t-158.5 -65t-62 -167t62 -166.5t158.5 -64.5t161 63.5t64.5 168z" glyph-name="q" horiz-adv-x="958" unicode="q"/><glyph d="M285 410v-410h-168v709h110l21 -101h8q68 102 207 103q89 0 141 -37l-59 -131q-33 23 -97 23t-113.5 -43.5t-49.5 -112.5z" glyph-name="r" horiz-adv-x="608" unicode="r"/><glyph d="M539 199q0 72 -159 100.5t-231.5 78.5t-72.5 140t75.5 148.5t229.5 58.5q90 0 167 -14.5t107 -28.5l33 -14l-57 -131q-82 59 -236 59t-153 -80q0 -70 160.5 -96.5t233.5 -78.5t73 -144t-81 -152.5t-245 -60.5q-98 0 -178 20.5t-111 40.5l-31 21l60 116q111 -70 263 -70 t153 87z" glyph-name="s" horiz-adv-x="774" unicode="s"/><glyph d="M479 125q46 0 96 29l56 -115q-63 -55 -188 -55t-199 78.5t-74 226.5v284h-137v136h137v213h166v-213h264v-136h-264v-278q0 -170 143 -170z" glyph-name="t" horiz-adv-x="655" unicode="t"/><glyph d="M817 709v-709h-110l-29 98h-8q-28 -54 -103 -84t-151 -30q-147 0 -229.5 86t-82.5 231v408h168v-385q0 -90 46.5 -145.5t135.5 -55.5t142 53t53 121v412h168z" glyph-name="u" horiz-adv-x="931" unicode="u"/><glyph d="M825 709l-346 -709h-117l-346 709h185l192 -435q20 -43 23 -75h10q2 27 25 75l190 435h184z" glyph-name="v" horiz-adv-x="841" unicode="v"/><glyph d="M315 0l-290 709h178l159 -457q10 -27 13 -53h14q2 23 12 53l142 457h127l141 -457q6 -20 10 -53h15q2 20 14 53l160 457h170l-289 -709h-127l-141 432q-12 35 -15 68h-10q-4 -35 -14 -68l-144 -432h-125z" glyph-name="w" horiz-adv-x="1206" unicode="w"/><glyph d="M25 0l284 365l-268 344h188l177 -240h6l178 240h188l-270 -344l285 -365h-189l-192 262h-6l-193 -262h-188z" glyph-name="x" horiz-adv-x="819" unicode="x"/><glyph d="M817 709l-516 -1102h-176l217 440l-319 662h182l205 -457q10 -27 12 -53h10q2 27 12 53l201 457h172z" glyph-name="y" horiz-adv-x="837" unicode="y"/><glyph d="M715 0h-649v76l413 495h-411v138h647v-70l-414 -502h414v-137z" glyph-name="z" horiz-adv-x="780" unicode="z"/><glyph d="M35 594h33q55 0 87.5 40t32.5 118v440q0 231 258 250l25 -142q-59 -8 -82.5 -32.5t-23.5 -89.5v-445q0 -164 -115 -201v-16q115 -35 115 -194v-449q0 -63 23.5 -88t82.5 -33l-25 -141q-258 14 -258 248v442q0 76 -32.5 117t-87.5 41h-33v135z" glyph-name="braceleft" horiz-adv-x="546" unicode="{"/><glyph d="M305 1378v-1689h-153v1689h153z" glyph-name="bar" horiz-adv-x="456" unicode="|"/><glyph d="M510 459h-33q-55 0 -88 -41t-33 -117v-442q0 -233 -260 -248l-22 141q59 8 81.5 33t22.5 88v449q0 160 119 194v16q-119 37 -119 201v445q0 66 -22.5 90t-81.5 32l22 142q260 -18 260 -250v-440q0 -78 33 -118t88 -40h33v-135z" glyph-name="braceright" horiz-adv-x="546" unicode="}"/><glyph d="M302 563q-71 0 -140 -43l-51 105q63 70 200 69q53 0 148.5 -25.5t172.5 -25.5t118 33l16 10l53 -104q-63 -70 -203 -70q-53 0 -148 25.5t-166 25.5z" glyph-name="asciitilde" horiz-adv-x="929" unicode="~"/><glyph glyph-name="uni00A0" horiz-adv-x="401" unicode=" "/><glyph d="M346 0h-203v76l43 794h117l43 -794v-76zM133 1130.5q0 47.5 33 81t81 33.5t81.5 -33.5t33.5 -79.5t-33.5 -80t-81.5 -34t-81 32.5t-33 80z" glyph-name="exclamdown" horiz-adv-x="493" unicode="¡"/><glyph d="M412 -193v183q-143 23 -231.5 122t-88.5 240.5t87 241.5t231 125v186h118v-182q114 -8 189 -47l24 -14l-59 -132q-78 56 -179 56t-171 -64t-70 -168t69.5 -167.5t167.5 -63.5t160 37l23 14l59 -127q-80 -51 -211 -61v-179h-118z" glyph-name="cent" horiz-adv-x="837" unicode="¢"/><glyph d="M940 156v-150h-807v150q4 2 27 11.5t60.5 60t37.5 120.5t-33 154h-133v127h86q-35 98 -35 194q0 168 124 295t351 127q226 0 349 -133l-95 -123q-28 35 -100 64.5t-145 29.5q-145 0 -221 -81.5t-76 -177.5t35 -195h462v-127h-413q25 -70 24 -127q0 -129 -86 -219h588z " glyph-name="sterling" horiz-adv-x="1056" unicode="£"/><glyph d="M172 607q0 132 76 241l-117 119l111 108l110 -127q106 74 236 74t239 -76l113 129l111 -108l-121 -123q74 -106 74 -234t-72 -235l119 -121l-111 -109l-111 125q-109 -76 -241 -76t-238 74l-108 -123l-111 109l117 117q-76 104 -76 236zM330 608.5q0 -106.5 75.5 -183.5 t182 -77t182.5 77t76 185t-76 183t-182.5 75t-182 -76.5t-75.5 -183z" glyph-name="currency" horiz-adv-x="1181" unicode="¤"/><glyph d="M1057 596v-129h-352v-162h352v-127h-352v-178h-170v178h-355v127h355v162h-355v129h275l-392 633h197l322 -520l34 -76h13l37 76l317 520h195l-396 -633h275z" glyph-name="yen" horiz-adv-x="1241" unicode="¥"/><glyph d="M307 -311h-155v1689h155v-1689z" glyph-name="brokenbar" horiz-adv-x="456" unicode="¦"/><glyph d="M562 -256q118 0 186.5 55t68.5 137t-64.5 133.5t-233.5 112.5t-251 124.5t-82 177.5t80 173q-156 96 -155.5 252t115 251t335.5 95q133 0 240.5 -31.5t148.5 -64.5l41 -31l-94 -139q-14 12 -40 30.5t-113.5 50.5t-199.5 32t-176.5 -51t-64.5 -129t61.5 -132.5 t217.5 -106.5t254 -121.5t98 -184.5t-72 -191q150 -100 150 -250t-116 -249t-349 -99q-141 0 -259 40t-165 79l-47 39l94 129q16 -14 47 -35.5t129 -58.5t216 -37zM762 365q0 60 -67 104.5t-151 72.5t-136 48q-54 -23 -54 -86t55 -104.5t149 -74.5t161 -63q43 43 43 103z " glyph-name="section" horiz-adv-x="1095" unicode="§"/><glyph d="M129 989q0 39 28.5 67.5t67.5 28.5t68 -28.5t29 -67.5t-29 -67.5t-68 -28.5t-67.5 28.5t-28.5 67.5zM502 989q0 39 28.5 67.5t67.5 28.5t67.5 -28.5t28.5 -67.5t-28.5 -67.5t-67.5 -28.5t-67.5 28.5t-28.5 67.5z" glyph-name="dieresis" horiz-adv-x="825" unicode="¨"/><glyph d="M736 1241q294 0 469 -179.5t175 -447.5t-175 -448t-469 -180t-470 180t-176 447t176 447.5t470 180.5zM735 1145q-246 0 -393 -152.5t-147 -378.5t147 -378t393 -152t394.5 152.5t148.5 377.5t-148.5 378t-394.5 153zM739 397q90 0 166 47l60 -79q-29 -29 -90.5 -52.5 t-129.5 -23.5q-154 0 -244.5 93t-90.5 233t91 233.5t244 93.5q68 0 122.5 -18.5t74.5 -38.5l23 -19l-60 -80q-55 47 -155.5 47.5t-160 -60.5t-59.5 -157t59.5 -157.5t149.5 -61.5z" glyph-name="copyright" horiz-adv-x="1472" unicode="©"/><glyph d="M70 755q0 95 79 152.5t225 57.5t206 -56v31q0 100 -50.5 149.5t-143.5 49.5t-200 -37l-22 -8l-43 110q135 53 270 53q328 0 328 -323v-373h-103l-22 68h-10q-63 -84 -244 -84q-119 0 -194.5 57.5t-75.5 152.5zM207 761q0 -54 46 -86t129 -32t138 34t60 81v6 q0 51 -53.5 82t-139.5 31t-133 -31t-47 -85z" glyph-name="ordfeminine" horiz-adv-x="827" unicode="ª"/><glyph d="M434 688v-16l-213 -314v-10l213 -317v-17h-143l-217 318v39l217 317h143zM795 688v-16l-213 -314v-10l213 -317v-17h-142l-217 318v39l217 317h142z" glyph-name="guillemotleft" horiz-adv-x="868" unicode="«"/><glyph d="M66 571v140h903v-711h-142v571h-761z" glyph-name="logicalnot" horiz-adv-x="1132" unicode="¬"/><glyph d="M1069 778q0 -203 -134 -341t-355.5 -138t-352.5 138t-131 341t131 341t352.5 138t355.5 -138t134 -341zM963 778q0 164 -106.5 271.5t-276.5 107.5t-274.5 -104.5t-104.5 -271.5t105.5 -274.5t274.5 -107.5t275.5 107.5t106.5 271.5zM399 993h193q82 0 134 -40.5 t52 -120.5t-80 -121l84 -111v-20h-86l-82 108h-131v-108h-84v413zM592 915h-109v-151h105q102 0 102 75.5t-98 75.5z" glyph-name="registered" horiz-adv-x="1163" unicode="®"/><glyph d="M170 907v107h547v-107h-547z" glyph-name="macron" horiz-adv-x="886" unicode="¯"/><glyph d="M311.5 1376q106.5 0 173 -63.5t66.5 -157.5t-66.5 -156.5t-173 -62.5t-173 62.5t-66.5 156.5t66.5 157.5t173 63.5zM312 1286q-62 0 -101 -38t-39 -92t39 -91t101 -37t100.5 37t38.5 91t-38.5 92t-100.5 38z" glyph-name="degree" horiz-adv-x="622" unicode="°"/><glyph d="M635 354h-141v342h-363v138h363v352h141v-352h354v-138h-354v-342zM989 213v-139h-858v139h858z" glyph-name="plusminus" horiz-adv-x="1120" unicode="±"/><glyph d="M53 700v37l301 289q70 66 70 131q0 117 -137 117q-75 0 -95 -14l-79 -56l-62 90q34 34 107 63t139 29q129 0 191.5 -59t62.5 -155t-94 -191l-187 -178h318v-103h-535z" glyph-name="uni00B2" horiz-adv-x="638" unicode="²"/><glyph d="M74 1266v102h483v-31l-149 -233q180 -25 180 -199q0 -94 -72 -157.5t-207 -63.5q-70 0 -147.5 28.5t-114.5 65.5l64 88q82 -72 196 -71q78 0 119 31.5t41 80.5t-34 79t-97 32h-90v33l139 215h-311z" glyph-name="uni00B3" horiz-adv-x="641" unicode="³"/><glyph d="M100 858v31l88 293h197v-31l-178 -293h-107z" glyph-name="acute" horiz-adv-x="505" unicode="´"/><glyph d="M317 -393h-165v1102h167v-385q0 -90 46.5 -145.5t135.5 -55.5t142 53t53 121v412h168v-709h-110l-29 98h-8q-28 -54 -103 -84t-152 -30t-145 26v-403z" glyph-name="uni00B5" horiz-adv-x="1028" unicode="µ"/><glyph d="M668 -334v555h-121q-225 0 -355.5 106.5t-130.5 303.5t126 299t352 102h297v-1366h-168z" glyph-name="paragraph" horiz-adv-x="1024" unicode="¶"/><glyph d="M51 735q0 47 33 81t80 34t79.5 -34t32.5 -81t-32.5 -79.5t-80.5 -32.5t-80 32.5t-32 79.5z" glyph-name="periodcentered" horiz-adv-x="329" unicode="·"/><glyph d="M215 -123q-31 0 -49 -12l-33 41l49 98h90l-30 -65q61 0 99 -33.5t38 -97.5t-44.5 -105t-108.5 -41t-103 15.5t-53 31.5l-17 15l37 65q45 -43 123 -43t78 66q0 31 -22.5 48t-53.5 17z" glyph-name="cedilla" horiz-adv-x="442" unicode="¸"/><glyph d="M37 1266v102h264v-668h-117v566h-147z" glyph-name="uni00B9" horiz-adv-x="407" unicode="¹"/><glyph d="M427 1255q157 0 256 -97t99 -257t-99 -256t-255 -96t-256 96t-100 256t99 257t256 97zM428 1135q-98 0 -158.5 -63.5t-60.5 -167.5t60.5 -168t158.5 -64t157.5 63.5t59.5 167.5t-59.5 168t-157.5 64z" glyph-name="ordmasculine" horiz-adv-x="854" unicode="º"/><glyph d="M76 14v17l211 317v10l-211 314v16h143l217 -317v-39l-217 -318h-143zM436 14v17l211 317v10l-211 314v16h142l217 -317v-39l-217 -318h-142z" glyph-name="guillemotright" horiz-adv-x="868" unicode="»"/><glyph d="M655 172v74l383 422h88v-398h107v-98h-107v-172h-114v172h-357zM190 8l-86 70l961 1155l88 -70zM80 1126v103h264v-668h-119v565h-145zM1012 270v232h-2l-148 -172q-13 -15 -35 -38.5t-24 -27.5l90 6h119z" glyph-name="onequarter" horiz-adv-x="1304" unicode="¼"/><glyph d="M190 8l-86 70l961 1155l88 -70zM1239 457q0 53 -35 84.5t-91 31.5t-108.5 -21.5t-78.5 -47.5l-62 90l29 22q27 23 88 46.5t129 23.5q131 0 192.5 -59.5t61.5 -156.5t-96 -189l-187 -179h320v-102h-535v37l299 289q74 78 74 131zM80 1126v103h264v-668h-119v565h-145z" glyph-name="onehalf" horiz-adv-x="1470" unicode="½"/><glyph d="M854 170v74l383 422h88v-398h107v-98h-107v-170h-113v170h-358zM106 1126v103h484v-31l-150 -233q178 -25 178 -199q0 -94 -71.5 -157.5t-204.5 -63.5q-70 0 -148.5 28.5t-115.5 65.5l65 88q83 -72 179 -72q176 0 176 115q0 109 -142 109h-80v32l142 215h-312zM399 8 l-88 70l961 1155l88 -70zM1212 268v232h-2l-149 -174q-12 -14 -34.5 -37t-25.5 -27l91 6h120z" glyph-name="threequarters" horiz-adv-x="1505" unicode="¾"/><glyph d="M500 887v-82q0 -128 -61.5 -199t-122 -140t-60.5 -157t52 -136t124 -48q126 0 199 45l22 14l60 -133q-109 -67 -280 -67t-259 79.5t-88 213.5t68.5 208t141 146.5t83.5 189.5l4 66h117zM549 1145q0 -45 -33 -77t-80 -32t-77.5 31t-30.5 78t31.5 78.5t77.5 31.5t79 -32.5 t33 -77.5z" glyph-name="questiondown" horiz-adv-x="784" unicode="¿"/><glyph d="M-2 0l610 1229h35l612 -1229h-192l-100 201h-674l-101 -201h-190zM877 371l-242 526h-21l-239 -526l-13 -21h527zM389 1630h199l86 -293v-30h-107l-178 292v31z" glyph-name="Agrave" horiz-adv-x="1251" unicode="À"/><glyph d="M-2 0l610 1229h35l612 -1229h-192l-100 201h-674l-101 -201h-190zM877 371l-242 526h-21l-239 -526l-13 -21h527zM573 1307v30l89 293h196v-31l-178 -292h-107z" glyph-name="Aacute" horiz-adv-x="1251" unicode="Á"/><glyph d="M328 1307v30l204 293h183l205 -293v-30h-107l-188 202l-191 -202h-106zM-2 0l610 1229h35l612 -1229h-192l-100 201h-674l-101 -201h-190zM877 371l-242 526h-21l-239 -526l-13 -21h527z" glyph-name="Acircumflex" horiz-adv-x="1251" unicode="Â"/><glyph d="M-2 0l610 1229h35l612 -1229h-192l-100 201h-674l-101 -201h-190zM877 371l-242 526h-21l-239 -526l-13 -21h527zM766 1321q-61 0 -145 46t-117 46t-49.5 -17.5t-26.5 -52.5l-8 -26l-119 12l10 53q33 160 174 160q61 0 143.5 -46t116.5 -46q63 0 78 68l6 26l119 -10 l-8 -53q-31 -160 -174 -160z" glyph-name="Atilde" horiz-adv-x="1251" unicode="Ã"/><glyph d="M340 1477q0 39 28.5 67.5t67.5 28.5t67.5 -28.5t28.5 -67.5t-28.5 -68t-67.5 -29t-67.5 29t-28.5 68zM713 1477q0 39 28.5 67.5t67.5 28.5t67.5 -28.5t28.5 -67.5t-28.5 -68t-67.5 -29t-67.5 29t-28.5 68zM-2 0l610 1229h35l612 -1229h-192l-100 201h-674l-101 -201h-190 zM877 371l-242 526h-21l-239 -526l-13 -21h527z" glyph-name="Adieresis" horiz-adv-x="1251" unicode="Ä"/><glyph d="M424 1365q0 77 57.5 132t142.5 55t141 -55t56 -131t-41 -127t-108 -68l583 -1171h-192l-100 201h-674l-101 -201h-190l582 1171q-70 14 -113 65.5t-43 128.5zM877 371l-242 526h-21l-239 -526l-13 -21h527zM713 1360q0 41 -23.5 65.5t-64.5 24.5t-67 -24.5t-26 -64.5 t26 -64.5t67 -24.5t64.5 23.5t23.5 64.5z" glyph-name="Aring" horiz-adv-x="1253" unicode="Å"/><glyph d="M1790 1229v-154h-743v-395h645v-150h-645v-376h743v-154h-913v201h-560l-137 -201h-209l883 1229h936zM877 350v617h-19l-438 -617h457z" glyph-name="AE" horiz-adv-x="1867" unicode="Æ"/><glyph d="M714 -123q-30 0 -48 -12l-33 41l33 67q-260 20 -421 201.5t-161 446.5t179 449.5t464 184.5q205 0 301 -61t111 -78l16 -16l-96 -131q-79 79 -177 103t-153 24q-207 0 -340 -139.5t-133 -343.5t133 -343t340 -139q92 0 174 32t119 62l37 33l96 -131l-47 -47 q-46 -46 -161.5 -76.5t-190.5 -32.5l-15 -32q61 0 99.5 -33.5t38.5 -97.5t-44.5 -105t-108.5 -41q-113 0 -157 47l-16 15l37 65q45 -43 123 -43t78 66q0 31 -23.5 48t-53.5 17z" glyph-name="Ccedilla" horiz-adv-x="1206" unicode="Ç"/><glyph d="M985 682v-150h-647v-378h745v-154h-913v1229h913v-154h-745v-393h647zM428 1628h199l86 -293v-30h-107l-178 292v31z" glyph-name="Egrave" horiz-adv-x="1161" unicode="È"/><glyph d="M569 1307v30l88 293h197v-31l-178 -292h-107zM985 682v-150h-647v-378h745v-154h-913v1229h913v-154h-745v-393h647z" glyph-name="Eacute" horiz-adv-x="1161" unicode="É"/><glyph d="M340 1307v30l205 293h182l205 -293v-30h-107l-188 202l-191 -202h-106zM985 682v-150h-647v-378h745v-154h-913v1229h913v-154h-745v-393h647z" glyph-name="Ecircumflex" horiz-adv-x="1161" unicode="Ê"/><glyph d="M352 1444q0 39 29 67.5t67.5 28.5t67.5 -28.5t29 -67.5t-29 -67.5t-67.5 -28.5t-67.5 28.5t-29 67.5zM725 1444q0 39 28.5 67.5t67.5 28.5t68 -28.5t29 -67.5t-29 -67.5t-68 -28.5t-67.5 28.5t-28.5 67.5zM985 682v-150h-647v-378h745v-154h-913v1229h913v-154h-745v-393 h647z" glyph-name="Edieresis" horiz-adv-x="1161" unicode="Ë"/><glyph d="M338 1229v-1229h-168v1229h168zM18 1628h199l86 -293v-30h-106l-179 292v31z" glyph-name="Igrave" horiz-adv-x="507" unicode="Ì"/><glyph d="M338 1229v-1229h-168v1229h168zM201 1307v30l88 293h196v-31l-178 -292h-106z" glyph-name="Iacute" horiz-adv-x="507" unicode="Í"/><glyph d="M-41 1307v30l205 293h182l205 -293v-30h-107l-188 202l-190 -202h-107zM338 1229v-1229h-168v1229h168z" glyph-name="Icircumflex" horiz-adv-x="507" unicode="Î"/><glyph d="M-29 1444q0 39 29 67.5t67.5 28.5t67.5 -28.5t29 -67.5t-29 -67.5t-67.5 -28.5t-67.5 28.5t-29 67.5zM344 1444q0 39 28.5 67.5t67.5 28.5t68 -28.5t29 -67.5t-29 -67.5t-68 -28.5t-67.5 28.5t-28.5 67.5zM338 1229v-1229h-168v1229h168z" glyph-name="Idieresis" horiz-adv-x="507" unicode="Ï"/><glyph d="M33 553v121h153v555h441q295 0 474 -168t179 -446.5t-179 -446.5t-474 -168h-441v553h-153zM614 1075h-260v-401h250v-121h-250v-399h260q217 0 355.5 122.5t138.5 337.5t-138.5 338t-355.5 123z" glyph-name="Eth" horiz-adv-x="1368" unicode="Ð"/><glyph d="M1257 1229v-1229h-47l-872 883v-883h-168v1229h47l870 -873v873h170zM854 1352q-61 0 -145 46t-117 46t-49.5 -17.5t-26.5 -52.5l-8 -26l-119 12l10 53q33 160 174 160q61 0 143.5 -46t117.5 -46q63 0 77 67l7 27l118 -10l-8 -54q-31 -159 -174 -159z" glyph-name="Ntilde" horiz-adv-x="1425" unicode="Ñ"/><glyph d="M492 1630h198l86 -293v-30h-106l-178 292v31zM722 -29q-288 0 -463 183.5t-175 458.5t175 458.5t463 183.5t464 -182.5t176 -458.5t-176 -459.5t-464 -183.5zM723 133q209 0 338 137.5t129 343.5t-129 344t-338 138t-338 -139.5t-129 -344t129 -342t338 -137.5z" glyph-name="Ograve" horiz-adv-x="1445" unicode="Ò"/><glyph d="M664 1307v30l88 293h196v-31l-178 -292h-106zM722 -29q-288 0 -463 183.5t-175 458.5t175 458.5t463 183.5t464 -182.5t176 -458.5t-176 -459.5t-464 -183.5zM723 133q209 0 338 137.5t129 343.5t-129 344t-338 138t-338 -139.5t-129 -344t129 -342t338 -137.5z" glyph-name="Oacute" horiz-adv-x="1445" unicode="Ó"/><glyph d="M424 1307v30l205 293h182l205 -293v-30h-107l-188 202l-191 -202h-106zM722 -29q-288 0 -463 183.5t-175 458.5t175 458.5t463 183.5t464 -182.5t176 -458.5t-176 -459.5t-464 -183.5zM723 133q209 0 338 137.5t129 343.5t-129 344t-338 138t-338 -139.5t-129 -344 t129 -342t338 -137.5z" glyph-name="Ocircumflex" horiz-adv-x="1445" unicode="Ô"/><glyph d="M722 -29q-288 0 -463 183.5t-175 458.5t175 458.5t463 183.5t464 -182.5t176 -458.5t-176 -459.5t-464 -183.5zM723 133q209 0 338 137.5t129 343.5t-129 344t-338 138t-338 -139.5t-129 -344t129 -342t338 -137.5zM862 1350q-61 0 -145 46t-117 46t-49 -17.5t-27 -52.5 l-8 -26l-119 12l11 53q33 160 174 160q61 0 143 -46t117 -46q63 0 78 67l6 27l118 -10l-8 -54q-31 -159 -174 -159z" glyph-name="Otilde" horiz-adv-x="1445" unicode="Õ"/><glyph d="M438 1442q0 39 29 67.5t67.5 28.5t67.5 -28.5t29 -67.5t-29 -67.5t-67.5 -28.5t-67.5 28.5t-29 67.5zM811 1442q0 39 28.5 67.5t67.5 28.5t68 -28.5t29 -67.5t-29 -67.5t-68 -28.5t-67.5 28.5t-28.5 67.5zM722 -29q-288 0 -463 183.5t-175 458.5t175 458.5t463 183.5 t464 -182.5t176 -458.5t-176 -459.5t-464 -183.5zM723 133q209 0 338 137.5t129 343.5t-129 344t-338 138t-338 -139.5t-129 -344t129 -342t338 -137.5z" glyph-name="Odieresis" horiz-adv-x="1445" unicode="Ö"/><glyph d="M213 209l-98 96l315 316l-315 315l98 96l313 -315l316 315l98 -96l-315 -315l315 -316l-98 -96l-316 313z" glyph-name="multiply" horiz-adv-x="1054" unicode="×"/><glyph d="M721 -29q-250 0 -422 146l-127 -123l-84 86l127 125q-131 172 -131 407q0 276 175 459.5t462 183.5q250 0 422 -143l110 109l84 -86l-110 -109q135 -174 135 -431t-176 -440.5t-465 -183.5zM738 133q194 0 323 137.5t129 323.5t-88 309l-682 -667q124 -103 318 -103z M256 612q0 -166 84 -286l680 667q-126 103 -316 103t-319 -139.5t-129 -344.5z" glyph-name="Oslash" horiz-adv-x="1441" unicode="Ø"/><glyph d="M677 -29q-245 0 -385 150.5t-140 394.5v713h167v-713q0 -172 92.5 -277.5t264.5 -105.5t263 105.5t91 277.5v713h170v-713q0 -244 -139 -394.5t-384 -150.5zM455 1630h198l86 -293v-30h-106l-178 292v31z" glyph-name="Ugrave" horiz-adv-x="1349" unicode="Ù"/><glyph d="M627 1307v30l88 293h196v-31l-178 -292h-106zM677 -29q-245 0 -385 150.5t-140 394.5v713h167v-713q0 -172 92.5 -277.5t264.5 -105.5t263 105.5t91 277.5v713h170v-713q0 -244 -139 -394.5t-384 -150.5z" glyph-name="Uacute" horiz-adv-x="1349" unicode="Ú"/><glyph d="M385 1307v30l205 293h182l205 -293v-30h-107l-188 202l-190 -202h-107zM677 -29q-245 0 -385 150.5t-140 394.5v713h167v-713q0 -172 92.5 -277.5t264.5 -105.5t263 105.5t91 277.5v713h170v-713q0 -244 -139 -394.5t-384 -150.5z" glyph-name="Ucircumflex" horiz-adv-x="1349" unicode="Û"/><glyph d="M395 1446q0 39 29 67.5t67.5 28.5t67.5 -28.5t29 -67.5t-29 -67.5t-67.5 -28.5t-67.5 28.5t-29 67.5zM768 1446q0 39 28.5 67.5t67.5 28.5t68 -28.5t29 -67.5t-29 -67.5t-68 -28.5t-67.5 28.5t-28.5 67.5zM677 -29q-245 0 -385 150.5t-140 394.5v713h167v-713 q0 -172 92.5 -277.5t264.5 -105.5t263 105.5t91 277.5v713h170v-713q0 -244 -139 -394.5t-384 -150.5z" glyph-name="Udieresis" horiz-adv-x="1349" unicode="Ü"/><glyph d="M647 0h-170v469l-471 760h197l321 -520l35 -76h12l37 76l318 520h194l-473 -758v-471zM510 1307v30l88 293h197v-31l-179 -292h-106z" glyph-name="Yacute" unicode="Ý"/><glyph d="M338 1229v-197h348q231 0 362.5 -107.5t131.5 -310.5t-136.5 -313.5t-367.5 -110.5h-338v-190h-168v1229h168zM1004 612q0 131 -86.5 198t-237.5 67h-342v-533h342q324 0 324 268z" glyph-name="Thorn" horiz-adv-x="1234" unicode="Þ"/><glyph d="M539 256h-101v55l193 267h-346v-578h-168v928q0 365 336 364q82 0 129 -22l18 -6l-45 -144q-41 20 -88 21q-182 0 -182 -201v-229h602v-33l-232 -313q121 -16 193 -85t72 -202t-99.5 -213t-248.5 -80t-212 27l-22 10l37 121q63 -27 161 -27t150.5 48t52.5 126t-55 122 t-145 44z" glyph-name="germandbls" horiz-adv-x="983" unicode="ß"/><glyph d="M57 210q0 97 81.5 157.5t229.5 60.5t222 -55h12v35q0 180 -223 180q-55 0 -106.5 -13.5t-75.5 -27.5l-23 -15l-55 125q97 68 285 68t274 -89t86 -245v-391h-119l-16 82h-11q-70 -98 -262 -98q-143 0 -221 64.5t-78 161.5zM221 216q0 -52 44 -84t128 -32t144.5 40t60.5 83 t-57.5 74t-143.5 31t-131 -30t-45 -82zM188 1182h199l86 -293v-31h-106l-179 293v31z" glyph-name="agrave" horiz-adv-x="868" unicode="à"/><glyph d="M57 210q0 97 81.5 157.5t229.5 60.5t222 -55h12v35q0 180 -223 180q-55 0 -106.5 -13.5t-75.5 -27.5l-23 -15l-55 125q97 68 285 68t274 -89t86 -245v-391h-119l-16 82h-11q-70 -98 -262 -98q-143 0 -221 64.5t-78 161.5zM221 216q0 -52 44 -84t128 -32t144.5 40t60.5 83 t-57.5 74t-143.5 31t-131 -30t-45 -82zM381 858v31l88 293h197v-31l-179 -293h-106z" glyph-name="aacute" horiz-adv-x="868" unicode="á"/><glyph d="M57 210q0 97 81.5 157.5t229.5 60.5t222 -55h12v35q0 180 -223 180q-55 0 -106.5 -13.5t-75.5 -27.5l-23 -15l-55 125q97 68 285 68t274 -89t86 -245v-391h-119l-16 82h-11q-70 -98 -262 -98q-143 0 -221 64.5t-78 161.5zM221 216q0 -52 44 -84t128 -32t144.5 40t60.5 83 t-57.5 74t-143.5 31t-131 -30t-45 -82zM143 858v31l205 293h182l205 -293v-31h-106l-189 203l-190 -203h-107z" glyph-name="acircumflex" horiz-adv-x="868" unicode="â"/><glyph d="M57 210q0 97 81.5 157.5t229.5 60.5t222 -55h12v35q0 180 -223 180q-55 0 -106.5 -13.5t-75.5 -27.5l-23 -15l-55 125q97 68 285 68t274 -89t86 -245v-391h-119l-16 82h-11q-70 -98 -262 -98q-143 0 -221 64.5t-78 161.5zM221 216q0 -52 44 -84t128 -32t144.5 40t60.5 83 t-57.5 74t-143.5 31t-131 -30t-45 -82zM559 899q-61 0 -145 46t-117 46t-49.5 -17.5t-26.5 -51.5l-8 -27l-119 12l10 54q33 160 175 159q61 0 143 -46t117 -46q63 0 77 68l7 26l118 -10l-8 -53q-31 -160 -174 -160z" glyph-name="atilde" horiz-adv-x="868" unicode="ã"/><glyph d="M57 210q0 97 81.5 157.5t229.5 60.5t222 -55h12v35q0 180 -223 180q-55 0 -106.5 -13.5t-75.5 -27.5l-23 -15l-55 125q97 68 285 68t274 -89t86 -245v-391h-119l-16 82h-11q-70 -98 -262 -98q-143 0 -221 64.5t-78 161.5zM221 216q0 -52 44 -84t128 -32t144.5 40t60.5 83 t-57.5 74t-143.5 31t-131 -30t-45 -82zM143 989q0 39 29 67.5t68 28.5t67.5 -28.5t28.5 -67.5t-28.5 -67.5t-67.5 -28.5t-68 28.5t-29 67.5zM516 989q0 39 28.5 67.5t67.5 28.5t68 -28.5t29 -67.5t-29 -67.5t-68 -28.5t-67.5 28.5t-28.5 67.5z" glyph-name="adieresis" horiz-adv-x="868" unicode="ä"/><glyph d="M57 210q0 97 81.5 157.5t229.5 60.5t222 -55h12v35q0 180 -223 180q-55 0 -106.5 -13.5t-75.5 -27.5l-23 -15l-55 125q97 68 285 68t274 -89t86 -245v-391h-119l-16 82h-11q-70 -98 -262 -98q-143 0 -221 64.5t-78 161.5zM221 216q0 -52 44 -84t128 -32t144.5 40t60.5 83 t-57.5 74t-143.5 31t-131 -30t-45 -82zM419 874q-85 0 -142.5 55.5t-57.5 137.5t57.5 137.5t142.5 55.5t141 -55.5t56 -137.5t-56 -137.5t-141 -55.5zM508 1067q0 41 -23.5 65.5t-64.5 24.5t-66.5 -24.5t-25.5 -64.5t25.5 -64.5t66.5 -24.5t64.5 23.5t23.5 64.5z" glyph-name="aring" horiz-adv-x="868" unicode="å"/><glyph d="M1004 -18q-195 0 -306 122q-106 -121 -319 -120q-160 0 -241 64.5t-81 161.5t79.5 157.5t229.5 60.5t228 -61h4v32q0 190 -219 191q-55 0 -108.5 -12.5t-77.5 -24.5l-25 -14l-51 123q117 63 305 63t278 -117q104 117 276 117t265.5 -98.5t93.5 -257.5l-2 -50h-561 q10 -100 76.5 -152t167.5 -52q57 0 109.5 14t74.5 27l25 14l57 -111q-36 -29 -116.5 -53t-161.5 -24zM215 215q0 -115 178 -115q86 0 146.5 35t60.5 82t-61.5 77t-145.5 30q-178 0 -178 -109zM981 596q-82 0 -136 -44t-69 -128h400q-10 76 -61.5 124t-133.5 48z" glyph-name="ae" horiz-adv-x="1396" unicode="æ"/><glyph d="M441 -123q-32 0 -50 -12l-33 41l41 82q-147 16 -239 116t-92 256t110.5 260.5t282.5 104.5q68 0 126 -15.5t83 -29.5l24 -16l-49 -125q-66 47 -169 47t-171.5 -64.5t-68.5 -169t68.5 -167t165.5 -62.5t157 37l18 10l45 -125q-68 -53 -203 -61l-20 -45q61 0 99 -33.5 t38 -97.5t-44 -105t-108 -41t-103.5 15.5t-53.5 31.5l-16 15l36 65q45 -43 123 -43t78 66q0 31 -21.5 48t-53.5 17z" glyph-name="ccedilla" horiz-adv-x="743" unicode="ç"/><glyph d="M471 -18q-182 0 -292.5 103t-110.5 266t104 268.5t268 105.5t259.5 -99.5t95.5 -256.5l-2 -50h-562q10 -100 76.5 -152t146.5 -52q146 0 205 45l23 14l57 -111q-10 -8 -29.5 -22t-89 -36.5t-149.5 -22.5zM440 594q-78 0 -132 -43t-72 -123h395q-10 74 -61.5 120 t-129.5 46zM207 1182h199l86 -293v-31h-107l-178 293v31z" glyph-name="egrave" horiz-adv-x="851" unicode="è"/><glyph d="M393 858v31l88 293h197v-31l-178 -293h-107zM471 -18q-182 0 -292.5 103t-110.5 266t104 268.5t268 105.5t259.5 -99.5t95.5 -256.5l-2 -50h-562q10 -100 76.5 -152t146.5 -52q146 0 205 45l23 14l57 -111q-10 -8 -29.5 -22t-89 -36.5t-149.5 -22.5zM440 594 q-78 0 -132 -43t-72 -123h395q-10 74 -61.5 120t-129.5 46z" glyph-name="eacute" horiz-adv-x="851" unicode="é"/><glyph d="M147 858v31l205 293h183l204 -293v-31h-106l-189 203l-190 -203h-107zM471 -18q-182 0 -292.5 103t-110.5 266t104 268.5t268 105.5t259.5 -99.5t95.5 -256.5l-2 -50h-562q10 -100 76.5 -152t146.5 -52q146 0 205 45l23 14l57 -111q-10 -8 -29.5 -22t-89 -36.5 t-149.5 -22.5zM440 594q-78 0 -132 -43t-72 -123h395q-10 74 -61.5 120t-129.5 46z" glyph-name="ecircumflex" horiz-adv-x="851" unicode="ê"/><glyph d="M160 989q0 39 28.5 67.5t67.5 28.5t67.5 -28.5t28.5 -67.5t-28.5 -67.5t-67.5 -28.5t-67.5 28.5t-28.5 67.5zM532 989q0 39 29 67.5t68 28.5t67.5 -28.5t28.5 -67.5t-28.5 -67.5t-67.5 -28.5t-68 28.5t-29 67.5zM471 -18q-182 0 -292.5 103t-110.5 266t104 268.5 t268 105.5t259.5 -99.5t95.5 -256.5l-2 -50h-562q10 -100 76.5 -152t146.5 -52q146 0 205 45l23 14l57 -111q-10 -8 -29.5 -22t-89 -36.5t-149.5 -22.5zM440 594q-78 0 -132 -43t-72 -123h395q-10 74 -61.5 120t-129.5 46z" glyph-name="edieresis" horiz-adv-x="851" unicode="ë"/><glyph d="M119 0v709h168v-709h-168zM-35 1182h199l86 -293v-31h-107l-178 293v31z" glyph-name="igrave" horiz-adv-x="405" unicode="ì"/><glyph d="M147 858v31l89 293h196v-31l-178 -293h-107zM119 0v709h168v-709h-168z" glyph-name="iacute" horiz-adv-x="405" unicode="í"/><glyph d="M-92 858v31l205 293h182l205 -293v-31h-107l-188 203l-191 -203h-106zM119 0v709h168v-709h-168z" glyph-name="icircumflex" horiz-adv-x="405" unicode="î"/><glyph d="M-76 989q0 39 29 67.5t67.5 28.5t67.5 -28.5t29 -67.5t-29 -67.5t-67.5 -28.5t-67.5 28.5t-29 67.5zM297 989q0 39 28.5 67.5t67.5 28.5t67.5 -28.5t28.5 -67.5t-28.5 -67.5t-67.5 -28.5t-67.5 28.5t-28.5 67.5zM119 0v709h168v-709h-168z" glyph-name="idieresis" horiz-adv-x="405" unicode="ï"/><glyph d="M266 1229h158l92 -146l201 115l55 -94l-197 -113l203 -315q59 -98 85 -165t26 -161q0 -168 -113.5 -269t-296 -101t-297 101t-114.5 266t114.5 269.5t298.5 104.5q55 0 101 -12v8q-25 29 -82 119l-54 82l-219 -125l-53 96l215 123l-123 194v23zM479.5 119 q106.5 0 174 64.5t67.5 165.5t-66.5 167t-174.5 66t-175 -65t-67 -167t67.5 -166.5t174 -64.5z" glyph-name="eth" horiz-adv-x="958" unicode="ð"/><glyph d="M285 408v-408h-168v709h110l21 -101h8q80 117 244 117t247.5 -86t83.5 -231v-408h-165v385q0 88 -49.5 144.5t-140.5 56.5t-141 -55t-50 -123zM602 899q-61 0 -145 46t-117 46t-49.5 -17.5t-26.5 -51.5l-8 -27l-119 12l10 54q33 160 175 159q61 0 143 -46t117 -46 q63 0 77 68l7 26l118 -10l-8 -53q-31 -160 -174 -160z" glyph-name="ntilde" horiz-adv-x="935" unicode="ñ"/><glyph d="M848 350q0 -166 -112.5 -266t-278.5 -100t-277.5 100t-111.5 267t111.5 270.5t277.5 103.5t278.5 -104.5t112.5 -270.5zM456.5 119q96.5 0 162 63.5t65.5 170t-65.5 172t-162 65.5t-161 -65.5t-64.5 -172t64.5 -170t161 -63.5zM223 1182h199l86 -293v-31h-107l-178 293 v31z" glyph-name="ograve" horiz-adv-x="913" unicode="ò"/><glyph d="M399 858v31l88 293h197v-31l-178 -293h-107zM848 350q0 -166 -112.5 -266t-278.5 -100t-277.5 100t-111.5 267t111.5 270.5t277.5 103.5t278.5 -104.5t112.5 -270.5zM456.5 119q96.5 0 162 63.5t65.5 170t-65.5 172t-162 65.5t-161 -65.5t-64.5 -172t64.5 -170t161 -63.5 z" glyph-name="oacute" horiz-adv-x="913" unicode="ó"/><glyph d="M162 858v31l205 293h182l205 -293v-31h-107l-188 203l-191 -203h-106zM848 350q0 -166 -112.5 -266t-278.5 -100t-277.5 100t-111.5 267t111.5 270.5t277.5 103.5t278.5 -104.5t112.5 -270.5zM456.5 119q96.5 0 162 63.5t65.5 170t-65.5 172t-162 65.5t-161 -65.5 t-64.5 -172t64.5 -170t161 -63.5z" glyph-name="ocircumflex" horiz-adv-x="913" unicode="ô"/><glyph d="M848 350q0 -166 -112.5 -266t-278.5 -100t-277.5 100t-111.5 267t111.5 270.5t277.5 103.5t278.5 -104.5t112.5 -270.5zM456.5 119q96.5 0 162 63.5t65.5 170t-65.5 172t-162 65.5t-161 -65.5t-64.5 -172t64.5 -170t161 -63.5zM590 899q-61 0 -145.5 46t-117 46 t-49 -17.5t-26.5 -51.5l-8 -27l-119 12l10 54q33 160 174 159q61 0 143.5 -46t116.5 -46q63 0 78 68l6 26l119 -10l-8 -53q-31 -160 -174 -160z" glyph-name="otilde" horiz-adv-x="913" unicode="õ"/><glyph d="M178 989q0 39 29 67.5t67.5 28.5t67.5 -28.5t29 -67.5t-29 -67.5t-67.5 -28.5t-67.5 28.5t-29 67.5zM551 989q0 39 28.5 67.5t67.5 28.5t67.5 -28.5t28.5 -67.5t-28.5 -67.5t-67.5 -28.5t-67.5 28.5t-28.5 67.5zM848 350q0 -166 -112.5 -266t-278.5 -100t-277.5 100 t-111.5 267t111.5 270.5t277.5 103.5t278.5 -104.5t112.5 -270.5zM456.5 119q96.5 0 162 63.5t65.5 170t-65.5 172t-162 65.5t-161 -65.5t-64.5 -172t64.5 -170t161 -63.5z" glyph-name="odieresis" horiz-adv-x="913" unicode="ö"/><glyph d="M399 289q0 47 34 80.5t81 33.5t81 -33.5t34 -80.5t-34 -80t-81 -33t-81 33t-34 80zM399 932q0 47 34 81t81 34t81 -34t34 -81t-34 -80t-81 -33t-81 33t-34 80zM111 537v139h807v-139h-807z" glyph-name="divide" horiz-adv-x="1028" unicode="÷"/><glyph d="M850 340q0 -156 -112 -256t-266 -100t-257 71l-78 -78l-61 62l76 76q-82 95 -82 249t111 257.5t259 103.5t250 -68l86 86l62 -61l-82 -80q94 -106 94 -262zM465 119q90 0 155.5 63.5t65.5 154.5t-41 157l-328 -330q58 -45 148 -45zM233 366q0 -92 31 -143l326 326 q-57 41 -142 41t-150 -66t-65 -158z" glyph-name="oslash" horiz-adv-x="913" unicode="ø"/><glyph d="M817 709v-709h-110l-29 98h-8q-28 -54 -103 -84t-151 -30q-147 0 -229.5 86t-82.5 231v408h168v-385q0 -90 46.5 -145.5t135.5 -55.5t142 53t53 121v412h168zM229 1182h199l86 -293v-31h-106l-179 293v31z" glyph-name="ugrave" horiz-adv-x="931" unicode="ù"/><glyph d="M408 858v31l88 293h196v-31l-178 -293h-106zM817 709v-709h-110l-29 98h-8q-28 -54 -103 -84t-151 -30q-147 0 -229.5 86t-82.5 231v408h168v-385q0 -90 46.5 -145.5t135.5 -55.5t142 53t53 121v412h168z" glyph-name="uacute" horiz-adv-x="931" unicode="ú"/><glyph d="M162 858v31l205 293h182l205 -293v-31h-107l-188 203l-191 -203h-106zM817 709v-709h-110l-29 98h-8q-28 -54 -103 -84t-151 -30q-147 0 -229.5 86t-82.5 231v408h168v-385q0 -90 46.5 -145.5t135.5 -55.5t142 53t53 121v412h168z" glyph-name="ucircumflex" horiz-adv-x="931" unicode="û"/><glyph d="M182 989q0 39 29 67.5t67.5 28.5t67.5 -28.5t29 -67.5t-29 -67.5t-67.5 -28.5t-67.5 28.5t-29 67.5zM555 989q0 39 28.5 67.5t67.5 28.5t68 -28.5t29 -67.5t-29 -67.5t-68 -28.5t-67.5 28.5t-28.5 67.5zM817 709v-709h-110l-29 98h-8q-28 -54 -103 -84t-151 -30 q-147 0 -229.5 86t-82.5 231v408h168v-385q0 -90 46.5 -145.5t135.5 -55.5t142 53t53 121v412h168z" glyph-name="udieresis" horiz-adv-x="931" unicode="ü"/><glyph d="M817 709l-516 -1102h-176l217 440l-319 662h182l205 -457q10 -27 12 -53h10q2 27 12 53l201 457h172zM371 858v31l88 293h196v-31l-178 -293h-106z" glyph-name="yacute" horiz-adv-x="837" unicode="ý"/><glyph d="M283 117v-510h-168v1622h168v-633h6q5 14 56 71.5t199 57.5q147 0 246 -101.5t99 -267.5t-101.5 -269t-250.5 -103q-112 0 -164.5 40t-77.5 78l-6 15h-6zM274 354.5q0 -104.5 63 -168t161 -63.5t159.5 64.5t61.5 165.5t-61.5 167t-158.5 66t-161 -63.5t-64 -168z" glyph-name="thorn" horiz-adv-x="958" unicode="þ"/><glyph d="M817 709l-516 -1102h-176l217 440l-319 662h182l205 -457q10 -27 12 -53h10q2 27 12 53l201 457h172zM145 989q0 39 29 67.5t68 28.5t67.5 -28.5t28.5 -67.5t-28.5 -67.5t-67.5 -28.5t-68 28.5t-29 67.5zM518 989q0 39 28.5 67.5t67.5 28.5t68 -28.5t29 -67.5t-29 -67.5 t-68 -28.5t-67.5 28.5t-28.5 67.5z" glyph-name="ydieresis" horiz-adv-x="837" unicode="ÿ"/><glyph d="M-2 0l610 1229h35l612 -1229h-192l-100 201h-674l-101 -201h-190zM877 371l-242 526h-21l-239 -526l-13 -21h527zM350 1319v106h547v-106h-547z" glyph-name="Amacron" horiz-adv-x="1251" unicode="Ā"/><glyph d="M57 210q0 97 81.5 157.5t229.5 60.5t222 -55h12v35q0 180 -223 180q-55 0 -106.5 -13.5t-75.5 -27.5l-23 -15l-55 125q97 68 285 68t274 -89t86 -245v-391h-119l-16 82h-11q-70 -98 -262 -98q-143 0 -221 64.5t-78 161.5zM221 216q0 -52 44 -84t128 -32t144.5 40t60.5 83 t-57.5 74t-143.5 31t-131 -30t-45 -82zM150 907v107h546v-107h-546z" glyph-name="amacron" horiz-adv-x="868" unicode="ā"/><glyph d="M-2 0l610 1229h35l612 -1229h-192l-100 201h-674l-101 -201h-190zM877 371l-242 526h-21l-239 -526l-13 -21h527zM760 1651h131q0 -111 -75 -188t-191.5 -77t-191.5 77t-75 188h131q0 -61 38.5 -100.5t96.5 -39.5t97 40.5t39 99.5z" glyph-name="Abreve" horiz-adv-x="1251" unicode="Ă"/><glyph d="M57 210q0 97 81.5 157.5t229.5 60.5t222 -55h12v35q0 180 -223 180q-55 0 -106.5 -13.5t-75.5 -27.5l-23 -15l-55 125q97 68 285 68t274 -89t86 -245v-391h-119l-16 82h-11q-70 -98 -262 -98q-143 0 -221 64.5t-78 161.5zM221 216q0 -52 44 -84t128 -32t144.5 40t60.5 83 t-57.5 74t-143.5 31t-131 -30t-45 -82zM567 1190h131q0 -111 -74.5 -187.5t-191.5 -76.5t-191.5 76.5t-74.5 187.5h131q0 -61 38 -100t96 -39t97 40t39 99z" glyph-name="abreve" horiz-adv-x="868" unicode="ă"/><glyph d="M993 -131q0 74 78 131h-8l-100 201h-674l-101 -201h-190l610 1229h35l612 -1229h-53q-8 -4 -20.5 -9t-19.5 -10.5t-15 -11.5t-17.5 -13t-22.5 -30t-13 -45q0 -70 73 -69q42 0 70 28l51 -67q-47 -55 -129 -55t-124 38.5t-42 112.5zM877 371l-242 526h-21l-239 -526 l-13 -21h527z" glyph-name="Aogonek" horiz-adv-x="1251" unicode="Ą"/><glyph d="M553 -139q0 92 90 147l-14 74h-11q-70 -98 -262 -98q-143 0 -221 64.5t-78 161.5t81.5 157.5t229.5 60.5t222 -55h12v35q0 180 -223 180q-55 0 -106.5 -13.5t-75.5 -27.5l-23 -15l-55 125q97 68 285 68t274 -89t86 -245v-391q-44 -14 -77.5 -48t-33.5 -71q0 -70 74 -69 q38 0 70 28l51 -67q-47 -55 -129 -55t-124 38.5t-42 104.5zM221 216q0 -52 44 -84t128 -32t144.5 40t60.5 83t-57.5 74t-143.5 31t-131 -30t-45 -82z" glyph-name="aogonek" horiz-adv-x="868" unicode="ą"/><glyph d="M664 1341v31l88 293h196v-31l-178 -293h-106zM84 613q0 273 179 457.5t464 184.5q205 0 301 -61t111 -78l16 -16l-96 -131q-79 79 -177 103t-153 24q-207 0 -340 -139.5t-133 -343.5t133 -343t340 -139q92 0 174 32t119 62l37 33l96 -131l-13 -13q-14 -14 -106.5 -78.5 t-308.5 -64.5q-285 0 -464 184.5t-179 457.5z" glyph-name="Cacute" horiz-adv-x="1206" unicode="Ć"/><glyph d="M401 858v31l88 293h197v-31l-178 -293h-107zM452 -16q-163 0 -273.5 103t-110.5 266t110.5 267.5t282.5 104.5q68 0 126 -15.5t83 -29.5l24 -16l-49 -125q-66 47 -169 47t-171.5 -64.5t-68.5 -169t68.5 -167t165.5 -62.5t157 37l18 10l45 -125q-75 -61 -238 -61z" glyph-name="cacute" horiz-adv-x="743" unicode="ć"/><glyph d="M420 1307v30l205 293h182l205 -293v-30h-107l-188 202l-191 -202h-106zM84 613q0 273 179 457.5t464 184.5q205 0 301 -61t111 -78l16 -16l-96 -131q-79 79 -177 103t-153 24q-207 0 -340 -139.5t-133 -343.5t133 -343t340 -139q92 0 174 32t119 62l37 33l96 -131 l-13 -13q-14 -14 -106.5 -78.5t-308.5 -64.5q-285 0 -464 184.5t-179 457.5z" glyph-name="Ccircumflex" horiz-adv-x="1206" unicode="Ĉ"/><glyph d="M150 858v31l204 293h183l204 -293v-31h-106l-189 203l-190 -203h-106zM452 -16q-163 0 -273.5 103t-110.5 266t110.5 267.5t282.5 104.5q68 0 126 -15.5t83 -29.5l24 -16l-49 -125q-66 47 -169 47t-171.5 -64.5t-68.5 -169t68.5 -167t165.5 -62.5t157 37l18 10l45 -125 q-75 -61 -238 -61z" glyph-name="ccircumflex" horiz-adv-x="743" unicode="ĉ"/><glyph d="M84 613q0 273 179 457.5t464 184.5q205 0 301 -61t111 -78l16 -16l-96 -131q-79 79 -177 103t-153 24q-207 0 -340 -139.5t-133 -343.5t133 -343t340 -139q92 0 174 32t119 62l37 33l96 -131l-13 -13q-14 -14 -106.5 -78.5t-308.5 -64.5q-285 0 -464 184.5t-179 457.5z M602 1537q0 50 34 85t84 35t84 -35t34 -85t-34 -84t-84 -34t-84 34t-34 84z" glyph-name="Cdotaccent" horiz-adv-x="1206" unicode="Ċ"/><glyph d="M452 -16q-163 0 -273.5 103t-110.5 266t110.5 267.5t282.5 104.5q68 0 126 -15.5t83 -29.5l24 -16l-49 -125q-66 47 -169 47t-171.5 -64.5t-68.5 -169t68.5 -167t165.5 -62.5t157 37l18 10l45 -125q-75 -61 -238 -61zM344 1045q0 50 34 85t84 35t84 -34.5t34 -84.5 t-34 -84t-84 -34t-84 33.5t-34 83.5z" glyph-name="cdotaccent" horiz-adv-x="743" unicode="ċ"/><glyph d="M1012 1661v-31l-205 -293h-182l-205 293v31h106l191 -203l188 203h107zM84 613q0 273 179 457.5t464 184.5q205 0 301 -61t111 -78l16 -16l-96 -131q-79 79 -177 103t-153 24q-207 0 -340 -139.5t-133 -343.5t133 -343t340 -139q92 0 174 32t119 62l37 33l96 -131 l-13 -13q-14 -14 -106.5 -78.5t-308.5 -64.5q-285 0 -464 184.5t-179 457.5z" glyph-name="Ccaron" horiz-adv-x="1206" unicode="Č"/><glyph d="M733 1182v-31l-205 -293h-182l-205 293v31h107l190 -203l189 203h106zM452 -16q-163 0 -273.5 103t-110.5 266t110.5 267.5t282.5 104.5q68 0 126 -15.5t83 -29.5l24 -16l-49 -125q-66 47 -169 47t-171.5 -64.5t-68.5 -169t68.5 -167t165.5 -62.5t157 37l18 10l45 -125 q-75 -61 -238 -61z" glyph-name="ccaron" horiz-adv-x="743" unicode="č"/><glyph d="M930 1661v-31l-205 -293h-182l-205 293v31h106l191 -203l188 203h107zM1264 614.5q0 -278.5 -179.5 -446.5t-474.5 -168h-440v1229h440q295 0 474.5 -168t179.5 -446.5zM598 1075h-260v-921h260q217 0 355.5 122.5t138.5 337.5t-138.5 338t-355.5 123z" glyph-name="Dcaron" horiz-adv-x="1351" unicode="Ď"/><glyph d="M932 1264q0 45 32.5 76.5t86 31.5t107.5 -54t-25 -194l-56 -98h-119l50 82l32 41v6q-49 2 -78.5 33t-29.5 76zM674 627v741h168v-1368h-115l-25 104h-8q-6 -13 -62.5 -66.5t-208.5 -53.5q-153 0 -254 101t-101 267t100 269.5t252 103.5q84 0 145.5 -24.5t81.5 -49.5 l21 -24h6zM684 354.5q0 104.5 -64.5 168t-161 63.5t-158.5 -64t-62 -166t62 -167.5t158.5 -65.5t161 63.5t64.5 168z" glyph-name="dcaron" horiz-adv-x="958" unicode="ď"/><glyph d="M33 553v121h153v555h441q295 0 474 -168t179 -446.5t-179 -446.5t-474 -168h-441v553h-153zM614 1075h-260v-401h250v-121h-250v-399h260q217 0 355.5 122.5t138.5 337.5t-138.5 338t-355.5 123z" glyph-name="Dcroat" horiz-adv-x="1368" unicode="Đ"/><glyph d="M406 936v102h268v330h168v-330h112v-102h-112v-936h-115l-25 104h-8q-6 -13 -62.5 -66.5t-208.5 -53.5q-153 0 -254 101t-101 267t100 269.5t252 103.5q84 0 145.5 -24.5t81.5 -49.5l21 -24h6v309h-268zM684 354.5q0 104.5 -64.5 168t-161 63.5t-158.5 -64t-62 -166 t62 -167.5t158.5 -65.5t161 63.5t64.5 168z" glyph-name="dcroat" horiz-adv-x="958" unicode="đ"/><glyph d="M985 682v-150h-647v-378h745v-154h-913v1229h913v-154h-745v-393h647zM369 1407v106h546v-106h-546z" glyph-name="Emacron" horiz-adv-x="1161" unicode="Ē"/><glyph d="M471 -18q-182 0 -292.5 103t-110.5 266t104 268.5t268 105.5t259.5 -99.5t95.5 -256.5l-2 -50h-562q10 -100 76.5 -152t146.5 -52q146 0 205 45l23 14l57 -111q-10 -8 -29.5 -22t-89 -36.5t-149.5 -22.5zM440 594q-78 0 -132 -43t-72 -123h395q-10 74 -61.5 120 t-129.5 46zM174 907v107h547v-107h-547z" glyph-name="emacron" horiz-adv-x="851" unicode="ē"/><glyph d="M985 682v-150h-647v-378h745v-154h-913v1229h913v-154h-745v-393h647zM776 1651h131q0 -111 -74.5 -188t-191.5 -77t-191.5 77t-74.5 188h131q0 -61 38 -100.5t96 -39.5t97 40.5t39 99.5z" glyph-name="Ebreve" horiz-adv-x="1161" unicode="Ĕ"/><glyph d="M471 -18q-182 0 -292.5 103t-110.5 266t104 268.5t268 105.5t259.5 -99.5t95.5 -256.5l-2 -50h-562q10 -100 76.5 -152t146.5 -52q146 0 205 45l23 14l57 -111q-10 -8 -29.5 -22t-89 -36.5t-149.5 -22.5zM440 594q-78 0 -132 -43t-72 -123h395q-10 74 -61.5 120 t-129.5 46zM580 1190h131q0 -111 -75 -187.5t-191.5 -76.5t-191.5 76.5t-75 187.5h131q0 -61 38 -100t96 -39t97.5 40t39.5 99z" glyph-name="ebreve" horiz-adv-x="851" unicode="ĕ"/><glyph d="M985 682v-150h-647v-378h745v-154h-913v1229h913v-154h-745v-393h647zM526 1506q0 50 34 85t84 35t84 -35t34 -85t-34 -83.5t-84 -33.5t-84 33.5t-34 83.5z" glyph-name="Edotaccent" horiz-adv-x="1161" unicode="Ė"/><glyph d="M471 -18q-182 0 -292.5 103t-110.5 266t104 268.5t268 105.5t259.5 -99.5t95.5 -256.5l-2 -50h-562q10 -100 76.5 -152t146.5 -52q146 0 205 45l23 14l57 -111q-10 -8 -29.5 -22t-89 -36.5t-149.5 -22.5zM440 594q-78 0 -132 -43t-72 -123h395q-10 74 -61.5 120 t-129.5 46zM328 1045q0 50 33.5 85t83.5 35t84 -34.5t34 -84.5t-33.5 -84t-83.5 -34t-84 33.5t-34 83.5z" glyph-name="edotaccent" horiz-adv-x="851" unicode="ė"/><glyph d="M793 -131q0 74 77 131h-700v1229h913v-154h-745v-393h647v-150h-647v-378h745v-154h-82q-8 -4 -13 -6t-12 -5t-14.5 -8.5t-15.5 -11.5l-18 -13.5t-22.5 -30t-12.5 -44.5q0 -70 74 -69q41 0 69 28l51 -67q-47 -55 -129 -55t-123.5 38.5t-41.5 112.5z" glyph-name="Eogonek" horiz-adv-x="1161" unicode="Ę"/><glyph d="M610 -176q44 0 70 29l51 -68q-47 -55 -129 -55t-124 38t-42 102t43 112h-8q-182 0 -292.5 103t-110.5 266t104 268.5t268 105.5t259.5 -99.5t95.5 -256.5l-2 -50h-562q10 -100 76.5 -152t146.5 -52q146 0 205 45l23 14l57 -111q-39 -33 -90 -51q-112 -40 -112 -114 t73 -74zM440 594q-78 0 -132 -43t-72 -123h395q-10 74 -61.5 120t-129.5 46z" glyph-name="eogonek" horiz-adv-x="851" unicode="ę"/><glyph d="M930 1645v-31l-205 -293h-182l-205 293v31h106l191 -203l188 203h107zM985 682v-150h-647v-378h745v-154h-913v1229h913v-154h-745v-393h647z" glyph-name="Ecaron" horiz-adv-x="1161" unicode="Ě"/><glyph d="M737 1182v-31l-205 -293h-182l-205 293v31h107l190 -203l189 203h106zM471 -18q-182 0 -292.5 103t-110.5 266t104 268.5t268 105.5t259.5 -99.5t95.5 -256.5l-2 -50h-562q10 -100 76.5 -152t146.5 -52q146 0 205 45l23 14l57 -111q-10 -8 -29.5 -22t-89 -36.5 t-149.5 -22.5zM440 594q-78 0 -132 -43t-72 -123h395q-10 74 -61.5 120t-129.5 46z" glyph-name="ecaron" horiz-adv-x="851" unicode="ě"/><glyph d="M426 1305v30l205 293h182l205 -293v-30h-107l-188 202l-191 -202h-106zM690 532v150h608v-94q0 -283 -153 -450t-433 -167t-454 183.5t-174 458.5t177 458.5t466 183.5q180 0 290.5 -52t149.5 -91l17 -16l-101 -129q-14 14 -41.5 35.5t-121 57.5t-193.5 36 q-211 0 -341 -138.5t-130 -345t126 -344t320 -137.5t306 106.5t116 278.5v16h-434z" glyph-name="Gcircumflex" horiz-adv-x="1363" unicode="Ĝ"/><glyph d="M141 858v31l205 293h182l205 -293v-31h-106l-189 203l-190 -203h-107zM445 -485q-185 0 -285.5 71.5t-100.5 198.5t131 188v11q-120 51 -120 155t114 164q-49 61 -49 165t84 179.5t213 75.5l375 -16v-119h-123v-10q45 -28 45 -132t-82 -177.5t-215 -73.5q-88 0 -158 34 q-57 -27 -57 -71t49 -66t180 -22q389 0 390 -271q0 -125 -103 -204.5t-288 -79.5zM447 -63q-110 0 -169 -42t-59 -105.5t58.5 -105.5t169 -42t168 41t57.5 105t-57.5 106.5t-167.5 42.5zM432 596q-74 0 -116 -40t-42 -100t42 -99.5t116 -39.5t116 39.5t42 99.5t-42 100 t-116 40z" glyph-name="gcircumflex" horiz-adv-x="847" unicode="ĝ"/><glyph d="M690 532v150h608v-94q0 -283 -153 -450t-433 -167t-454 183.5t-174 458.5t177 458.5t466 183.5q180 0 290.5 -52t149.5 -91l17 -16l-101 -129q-14 14 -41.5 35.5t-121 57.5t-193.5 36q-211 0 -341 -138.5t-130 -345t126 -344t320 -137.5t306 106.5t116 278.5v16h-434z M856 1651h131q0 -111 -74.5 -188t-191.5 -77t-191.5 77t-74.5 188h131q0 -61 38 -100.5t96 -39.5t97 40.5t39 99.5z" glyph-name="Gbreve" horiz-adv-x="1363" unicode="Ğ"/><glyph d="M445 -485q-185 0 -285.5 71.5t-100.5 198.5t131 188v11q-120 51 -120 155t114 164q-49 61 -49 165t84 179.5t213 75.5l375 -16v-119h-123v-10q45 -28 45 -132t-82 -177.5t-215 -73.5q-88 0 -158 34q-57 -27 -57 -71t49 -66t180 -22q389 0 390 -271q0 -125 -103 -204.5 t-288 -79.5zM447 -63q-110 0 -169 -42t-59 -105.5t58.5 -105.5t169 -42t168 41t57.5 105t-57.5 106.5t-167.5 42.5zM432 596q-74 0 -116 -40t-42 -100t42 -99.5t116 -39.5t116 39.5t42 99.5t-42 100t-116 40zM569 1190h131q0 -111 -74.5 -187.5t-191.5 -76.5t-191.5 76.5 t-74.5 187.5h131q0 -61 38 -100t96 -39t97 40t39 99z" glyph-name="gbreve" horiz-adv-x="847" unicode="ğ"/><glyph d="M690 532v150h608v-94q0 -283 -153 -450t-433 -167t-454 183.5t-174 458.5t177 458.5t466 183.5q180 0 290.5 -52t149.5 -91l17 -16l-101 -129q-14 14 -41.5 35.5t-121 57.5t-193.5 36q-211 0 -341 -138.5t-130 -345t126 -344t320 -137.5t306 106.5t116 278.5v16h-434z M598 1506q0 50 34 85t84 35t84 -35t34 -85t-34 -83.5t-84 -33.5t-84 33.5t-34 83.5z" glyph-name="Gdotaccent" horiz-adv-x="1363" unicode="Ġ"/><glyph d="M445 -485q-185 0 -285.5 71.5t-100.5 198.5t131 188v11q-120 51 -120 155t114 164q-49 61 -49 165t84 179.5t213 75.5l375 -16v-119h-123v-10q45 -28 45 -132t-82 -177.5t-215 -73.5q-88 0 -158 34q-57 -27 -57 -71t49 -66t180 -22q389 0 390 -271q0 -125 -103 -204.5 t-288 -79.5zM447 -63q-110 0 -169 -42t-59 -105.5t58.5 -105.5t169 -42t168 41t57.5 105t-57.5 106.5t-167.5 42.5zM432 596q-74 0 -116 -40t-42 -100t42 -99.5t116 -39.5t116 39.5t42 99.5t-42 100t-116 40zM317 1045q0 50 34 85t84 35t84 -34.5t34 -84.5t-34 -84t-84 -34 t-84 33.5t-34 83.5z" glyph-name="gdotaccent" horiz-adv-x="847" unicode="ġ"/><glyph d="M600 -182q0 45 33 76.5t86 31.5t107.5 -53.5t-25.5 -194.5l-56 -98h-118l49 82l33 41v6q-49 2 -79 33t-30 76zM690 532v150h608v-94q0 -283 -153 -450t-433 -167t-454 183.5t-174 458.5t177 458.5t466 183.5q180 0 290.5 -52t149.5 -91l17 -16l-101 -129 q-14 14 -41.5 35.5t-121 57.5t-193.5 36q-211 0 -341 -138.5t-130 -345t126 -344t320 -137.5t306 106.5t116 278.5v16h-434z" glyph-name="Gcommaaccent" horiz-adv-x="1363" unicode="Ģ"/><glyph d="M553 971q0 -45 -33 -77t-86 -32t-107 54t25 194l56 98h118l-49 -82l-33 -41v-6q49 -2 79 -32.5t30 -75.5zM445 -485q-185 0 -285.5 71.5t-100.5 198.5t131 188v11q-120 51 -120 155t114 164q-49 61 -49 165t84 179.5t213 75.5l375 -16v-119h-123v-10q45 -28 45 -132 t-82 -177.5t-215 -73.5q-88 0 -158 34q-57 -27 -57 -71t49 -66t180 -22q389 0 390 -271q0 -125 -103 -204.5t-288 -79.5zM447 -63q-110 0 -169 -42t-59 -105.5t58.5 -105.5t169 -42t168 41t57.5 105t-57.5 106.5t-167.5 42.5zM432 596q-74 0 -116 -40t-42 -100t42 -99.5 t116 -39.5t116 39.5t42 99.5t-42 100t-116 40z" glyph-name="gcommaaccent" horiz-adv-x="847" unicode="ģ"/><glyph d="M387 1307v30l205 293h182l205 -293v-30h-107l-188 202l-190 -202h-107zM1214 1229v-1229h-170v528h-706v-528h-168v1229h168v-549h706v549h170z" glyph-name="Hcircumflex" horiz-adv-x="1382" unicode="Ĥ"/><glyph d="M180 1468v31l205 293h182l205 -293v-31h-106l-189 203l-190 -203h-107zM117 0v1368h168v-725h6q86 82 230 82t227 -86t83 -231v-408h-165v385q0 90 -49.5 145.5t-138.5 55.5t-138 -50.5t-55 -115.5v-420h-168z" glyph-name="hcircumflex" horiz-adv-x="940" unicode="ĥ"/><glyph d="M1223 1229v-199h63v-117h-63v-913h-170v528h-707v-528h-168v913h-72v117h72v199h168v-199h707v199h170zM346 680h707v233h-707v-233z" glyph-name="Hbar" horiz-adv-x="1396" unicode="Ħ"/><glyph d="M6 936v102h111v330h168v-330h270v-102h-270v-293h6q86 82 230 82t227 -86t83 -231v-408h-165v385q0 90 -49.5 145.5t-138.5 55.5t-138 -50.5t-55 -115.5v-420h-168v936h-111z" glyph-name="hbar" horiz-adv-x="940" unicode="ħ"/><glyph d="M338 1229v-1229h-168v1229h168zM397 1352q-61 0 -145 46t-117 46t-49 -17.5t-27 -52.5l-8 -26l-119 12l11 53q33 160 174 160q61 0 143 -46t117 -46q63 0 78 67l6 27l119 -10l-9 -54q-31 -159 -174 -159z" glyph-name="Itilde" horiz-adv-x="507" unicode="Ĩ"/><glyph d="M119 0v709h168v-709h-168zM342 899q-61 0 -145 46t-117 46t-49.5 -17.5t-26.5 -51.5l-8 -27l-119 12l10 54q33 160 174 159q61 0 143.5 -46t117.5 -46q63 0 77 68l7 26l118 -10l-8 -53q-31 -160 -174 -160z" glyph-name="itilde" horiz-adv-x="405" unicode="ĩ"/><glyph d="M338 1229v-1229h-168v1229h168zM-20 1358v106h546v-106h-546z" glyph-name="Imacron" horiz-adv-x="507" unicode="Ī"/><glyph d="M119 0v709h168v-709h-168zM-72 907v107h547v-107h-547z" glyph-name="imacron" horiz-adv-x="405" unicode="ī"/><glyph d="M338 1229v-1229h-168v1229h168zM391 1651h131q0 -111 -74.5 -188t-191.5 -77t-191.5 77t-74.5 188h131q0 -61 38 -100.5t96 -39.5t97 40.5t39 99.5z" glyph-name="Ibreve" horiz-adv-x="507" unicode="Ĭ"/><glyph d="M119 0v709h168v-709h-168zM338 1190h131q0 -111 -75 -187.5t-191.5 -76.5t-191 76.5t-74.5 187.5h131q0 -61 38 -100t96 -39t97 40t39 99z" glyph-name="ibreve" horiz-adv-x="405" unicode="ĭ"/><glyph d="M127 -131q0 74 78 131h-35v1229h168v-1229q-44 -14 -77.5 -48t-33.5 -71q0 -70 74 -69q38 0 70 28l51 -67q-47 -55 -129 -55t-124 38.5t-42 112.5z" glyph-name="Iogonek" horiz-adv-x="507" unicode="Į"/><glyph d="M78 -131q0 74 78 131h-35v709h168v-709q-44 -14 -77.5 -48t-33.5 -71q0 -70 74 -69q38 0 70 28l51 -67q-47 -55 -129 -55t-124 38.5t-42 112.5zM205 979q-43 0 -73 29.5t-30 72.5t30 74t73 31t73.5 -31t30.5 -74t-30.5 -72.5t-73.5 -29.5z" glyph-name="iogonek" horiz-adv-x="407" unicode="į"/><glyph d="M338 1229v-1229h-168v1229h168zM137 1504q0 50 34 85t84 35t84 -35t34 -85t-34 -84t-84 -34t-84 34t-34 84z" glyph-name="Idotaccent" horiz-adv-x="507" unicode="İ"/><glyph d="M119 0v709h168v-709h-168z" glyph-name="dotlessi" horiz-adv-x="407" unicode="ı"/><glyph d="M338 1229v-1229h-168v1229h168zM979 135q266 0 266 299v795h170v-830q0 -203 -107.5 -315.5t-314.5 -112.5q-90 0 -182.5 30.5t-132.5 70.5l80 133q96 -70 221 -70z" glyph-name="IJ" horiz-adv-x="1572" unicode="Ĳ"/><glyph d="M203 979q-43 0 -73 29.5t-30 72.5t30 74t73 31t73.5 -31t30.5 -74t-30.5 -72.5t-73.5 -29.5zM119 0v709h168v-709h-168zM553 -270q82 0 82 102v877h170v-883q0 -238 -213 -238q-74 0 -121 27l-16 8l28 125q33 -18 70 -18zM720 979q-44 0 -75 29.5t-31 72.5t31 74t74 31 t72.5 -31t29.5 -74t-28.5 -72.5t-72.5 -29.5z" glyph-name="ij" horiz-adv-x="917" unicode="ĳ"/><glyph d="M401 1305v30l205 293h182l205 -293v-30h-106l-189 202l-190 -202h-107zM346 135q266 0 266 299v795h170v-830q0 -203 -107.5 -315.5t-314.5 -112.5q-90 0 -182.5 30.5t-132.5 70.5l80 133q96 -70 221 -70z" glyph-name="Jcircumflex" horiz-adv-x="940" unicode="Ĵ"/><glyph d="M31 -264q84 0 84 112v861h170v-877q0 -244 -224 -244q-74 0 -137 33l-18 10l47 125q37 -20 78 -20zM-94 858v31l205 293h182l205 -293v-31h-107l-188 203l-191 -203h-106z" glyph-name="jcircumflex" horiz-adv-x="399" unicode="ĵ"/><glyph d="M537 -182q0 45 32.5 76.5t86 31.5t107.5 -54t-26 -194l-55 -98h-119l49 82l33 41v6q-49 2 -78.5 33t-29.5 76zM338 1229v-656l657 656h205v-25l-489 -491l489 -688v-25h-199l-413 590l-250 -252v-338h-168v1229h168z" glyph-name="Kcommaaccent" horiz-adv-x="1230" unicode="Ķ"/><glyph d="M307 -182q0 45 33 76.5t86 31.5t107.5 -53.5t-25.5 -194.5l-55 -98h-119l49 82l33 41v6q-49 2 -79 33t-30 76zM283 313v-313h-168v1368h168v-975h6l280 316h197l-315 -347l360 -362h-223l-299 313h-6z" glyph-name="kcommaaccent" horiz-adv-x="821" unicode="ķ"/><glyph d="M283 313v-313h-168v709h168v-316h4l284 316h193l-313 -347l360 -362h-223l-301 313h-4z" glyph-name="kgreenlandic" horiz-adv-x="823" unicode="ĸ"/><glyph d="M201 1307v30l88 293h196v-31l-178 -292h-106zM1040 0h-870v1229h168v-1075h702v-154z" glyph-name="Lacute" horiz-adv-x="1064" unicode="Ĺ"/><glyph d="M147 1468v31l89 293h196v-31l-178 -293h-107zM119 0v1368h168v-1368h-168z" glyph-name="lacute" horiz-adv-x="405" unicode="ĺ"/><glyph d="M473 -182q0 45 33 76.5t86 31.5t107.5 -53.5t-25.5 -194.5l-56 -98h-118l49 82l33 41v6q-49 2 -79 33t-30 76zM1040 0h-870v1229h168v-1075h702v-154z" glyph-name="Lcommaaccent" horiz-adv-x="1064" unicode="Ļ"/><glyph d="M88 -182q0 45 33 76.5t86 31.5t107.5 -53.5t-25.5 -194.5l-56 -98h-118l49 82l33 41v6q-49 2 -79 33t-30 76zM119 0v1368h168v-1368h-168z" glyph-name="lcommaaccent" horiz-adv-x="405" unicode="ļ"/><glyph d="M664 1120q0 45 32.5 77t86 32t107 -54.5t-25.5 -193.5l-55 -98h-119l49 82l33 41v6q-49 2 -78.5 32.5t-29.5 75.5zM1040 0h-870v1229h168v-1075h702v-154z" glyph-name="Lcaron" horiz-adv-x="1067" unicode="Ľ"/><glyph d="M375 1264q0 45 32.5 76.5t86 31.5t107.5 -54t-26 -194l-55 -98h-119l50 82l32 41v6q-49 2 -78.5 33t-29.5 76zM119 0v1368h168v-1368h-168z" glyph-name="lcaron" horiz-adv-x="405" unicode="ľ"/><glyph d="M1040 0h-870v1229h168v-1075h702v-154zM682 706q0 50 34 84.5t84 34.5t84 -34.5t34 -84.5t-34 -84t-84 -34t-84 34t-34 84z" glyph-name="Ldot" horiz-adv-x="1067" unicode="Ŀ"/><glyph d="M119 0v1368h168v-1368h-168zM401 595q0 50 34 85t84 35t84 -35t34 -85t-34 -84t-84 -34t-84 34t-34 84z" glyph-name="ldot" horiz-adv-x="636" unicode="ŀ"/><glyph d="M188 1229h168v-496l230 133l47 -82l-277 -159v-471h703v-154h-871v528l-122 -69l-48 80l170 98v592z" glyph-name="Lslash" horiz-adv-x="1083" unicode="Ł"/><glyph d="M209 1368h168v-637l153 88l43 -74l-196 -114v-631h-168v535l-137 -78l-45 73l182 105v733z" glyph-name="lslash" horiz-adv-x="542" unicode="ł"/><glyph d="M647 1307v30l88 293h197v-31l-178 -292h-107zM1257 1229v-1229h-47l-872 883v-883h-168v1229h47l870 -873v873h170z" glyph-name="Nacute" horiz-adv-x="1425" unicode="Ń"/><glyph d="M444 858v31l88 293h197v-31l-178 -293h-107zM285 408v-408h-168v709h110l21 -101h8q80 117 244 117t247.5 -86t83.5 -231v-408h-165v385q0 88 -49.5 144.5t-140.5 56.5t-141 -55t-50 -123z" glyph-name="nacute" horiz-adv-x="935" unicode="ń"/><glyph d="M621 -182q0 45 32.5 76.5t86 31.5t107.5 -54t-26 -194l-55 -98h-119l49 82l33 41v6q-49 2 -78.5 33t-29.5 76zM1257 1229v-1229h-47l-872 883v-883h-168v1229h47l870 -873v873h170z" glyph-name="Ncommaaccent" horiz-adv-x="1425" unicode="Ņ"/><glyph d="M354 -182q0 45 33 76.5t86 31.5t107.5 -53.5t-25.5 -194.5l-55 -98h-119l49 82l33 41v6q-49 2 -79 33t-30 76zM285 408v-408h-168v709h110l21 -101h8q80 117 244 117t247.5 -86t83.5 -231v-408h-165v385q0 88 -49.5 144.5t-140.5 56.5t-141 -55t-50 -123z" glyph-name="ncommaaccent" horiz-adv-x="935" unicode="ņ"/><glyph d="M1012 1630v-31l-205 -292h-182l-205 292v31h106l191 -203l188 203h107zM1257 1229v-1229h-47l-872 883v-883h-168v1229h47l870 -873v873h170z" glyph-name="Ncaron" horiz-adv-x="1425" unicode="Ň"/><glyph d="M768 1182v-31l-205 -293h-182l-205 293v31h107l190 -203l189 203h106zM285 408v-408h-168v709h110l21 -101h8q80 117 244 117t247.5 -86t83.5 -231v-408h-165v385q0 88 -49.5 144.5t-140.5 56.5t-141 -55t-50 -123z" glyph-name="ncaron" horiz-adv-x="935" unicode="ň"/><glyph d="M68 1182q0 45 32.5 76.5t86 31.5t107.5 -54t-26 -194l-55 -98h-119l49 82l33 41v6q-49 2 -78.5 33t-29.5 76zM285 408v-408h-168v709h110l21 -101h8q80 117 244 117t247.5 -86t83.5 -231v-408h-165v385q0 88 -49.5 144.5t-140.5 56.5t-141 -55t-50 -123z" glyph-name="napostrophe" horiz-adv-x="935" unicode="ŉ"/><glyph d="M1257 1229v-1397q0 -244 -223 -244q-78 0 -137 33l-18 10l45 125q37 -20 75 -20q88 0 88 108v279l-749 760v-883h-168v1229h47l870 -873v873h170z" glyph-name="Eng" horiz-adv-x="1425" unicode="Ŋ"/><glyph d="M285 408v-408h-168v709h110l21 -101h8q80 117 244 117t247.5 -86t83.5 -231v-568q0 -242 -221 -241q-84 0 -135 30l-18 11l45 127q37 -23 78 -23q86 0 86 115v526q0 88 -49.5 144.5t-140.5 56.5t-141 -55t-50 -123z" glyph-name="eng" horiz-adv-x="935" unicode="ŋ"/><glyph d="M446 1378v107h547v-107h-547zM722 -29q-288 0 -463 183.5t-175 458.5t175 458.5t463 183.5t464 -182.5t176 -458.5t-176 -459.5t-464 -183.5zM723 133q209 0 338 137.5t129 343.5t-129 344t-338 138t-338 -139.5t-129 -344t129 -342t338 -137.5z" glyph-name="Omacron" horiz-adv-x="1445" unicode="Ō"/><glyph d="M182 907v107h547v-107h-547zM848 350q0 -166 -112.5 -266t-278.5 -100t-277.5 100t-111.5 267t111.5 270.5t277.5 103.5t278.5 -104.5t112.5 -270.5zM456.5 119q96.5 0 162 63.5t65.5 170t-65.5 172t-162 65.5t-161 -65.5t-64.5 -172t64.5 -170t161 -63.5z" glyph-name="omacron" horiz-adv-x="913" unicode="ō"/><glyph d="M722 -29q-288 0 -463 183.5t-175 458.5t175 458.5t463 183.5t464 -182.5t176 -458.5t-176 -459.5t-464 -183.5zM723 133q209 0 338 137.5t129 343.5t-129 344t-338 138t-338 -139.5t-129 -344t129 -342t338 -137.5zM856 1653h131q0 -111 -74.5 -187.5t-191.5 -76.5 t-191.5 76.5t-74.5 187.5h131q0 -61 38 -100.5t96 -39.5t97 40.5t39 99.5z" glyph-name="Obreve" horiz-adv-x="1445" unicode="Ŏ"/><glyph d="M848 350q0 -166 -112.5 -266t-278.5 -100t-277.5 100t-111.5 267t111.5 270.5t277.5 103.5t278.5 -104.5t112.5 -270.5zM456.5 119q96.5 0 162 63.5t65.5 170t-65.5 172t-162 65.5t-161 -65.5t-64.5 -172t64.5 -170t161 -63.5zM592 1190h131q0 -111 -75 -187.5 t-191.5 -76.5t-191.5 76.5t-75 187.5h132q0 -61 38 -100t96 -39t97 40t39 99z" glyph-name="obreve" horiz-adv-x="913" unicode="ŏ"/><glyph d="M496 1305v30l88 293h176v-31l-158 -292h-106zM829 1305v30l89 293h178v-31l-158 -292h-109zM722 -29q-288 0 -463 183.5t-175 458.5t175 458.5t463 183.5t464 -182.5t176 -458.5t-176 -459.5t-464 -183.5zM723 133q209 0 338 137.5t129 343.5t-129 344t-338 138 t-338 -139.5t-129 -344t129 -342t338 -137.5z" glyph-name="Ohungarumlaut" horiz-adv-x="1445" unicode="Ő"/><glyph d="M238 858v31l88 293h176v-31l-158 -293h-106zM571 858v31l88 293h179v-31l-158 -293h-109zM848 350q0 -166 -112.5 -266t-278.5 -100t-277.5 100t-111.5 267t111.5 270.5t277.5 103.5t278.5 -104.5t112.5 -270.5zM456.5 119q96.5 0 162 63.5t65.5 170t-65.5 172t-162 65.5 t-161 -65.5t-64.5 -172t64.5 -170t161 -63.5z" glyph-name="ohungarumlaut" horiz-adv-x="913" unicode="ő"/><glyph d="M723 -29q-289 0 -464 183.5t-175 458.5t175 458.5t464 183.5t469 -190v164h913v-154h-745v-393h647v-150h-647v-378h745v-154h-913v162q-180 -191 -469 -191zM723 133q209 0 338 137.5t129 343.5t-129 344t-338 138t-338 -139.5t-129 -344t129 -342t338 -137.5z" glyph-name="OE" horiz-adv-x="2183" unicode="Œ"/><glyph d="M1090 -18q-211 0 -324 135q-111 -133 -293 -133t-293.5 100t-111.5 267t112 270.5t292 103.5t292 -135q109 135 284 135t270 -99.5t95 -256.5l-2 -50h-561q10 -100 76.5 -152t146.5 -52q144 0 205 45l22 14l58 -111q-10 -8 -29.5 -22t-89.5 -36.5t-149 -22.5zM456.5 119 q96.5 0 162 63.5t65.5 170t-65.5 172t-162 65.5t-161 -65.5t-64.5 -172t64.5 -170t161 -63.5zM1059 594q-78 0 -132.5 -43t-72.5 -123h395q-10 74 -61 120t-129 46z" glyph-name="oe" horiz-adv-x="1470" unicode="œ"/><glyph d="M549 1307v30l88 293h197v-31l-179 -292h-106zM684 1229q233 0 364.5 -107.5t131.5 -306.5q0 -143 -74 -240.5t-203 -142.5v-8l318 -391v-33h-187l-321 399h-375v-399h-168v1229h514zM1004 812q0 130 -86.5 196.5t-237.5 66.5h-342v-524h358q141 0 224.5 65.5t83.5 195.5z " glyph-name="Racute" horiz-adv-x="1292" unicode="Ŕ"/><glyph d="M270 858v31l88 293h197v-31l-178 -293h-107zM287 410v-410h-168v709h110l21 -101h8q68 102 207 103q89 0 141 -37l-59 -131q-33 23 -97 23t-113.5 -43.5t-49.5 -112.5z" glyph-name="racute" horiz-adv-x="610" unicode="ŕ"/><glyph d="M539 -182q0 45 32.5 76.5t86 31.5t107.5 -54t-26 -194l-55 -98h-119l49 82l33 41v6q-49 2 -78.5 33t-29.5 76zM684 1229q233 0 364.5 -107.5t131.5 -306.5q0 -143 -74 -240.5t-203 -142.5v-8l318 -391v-33h-187l-321 399h-375v-399h-168v1229h514zM1004 812 q0 130 -86.5 196.5t-237.5 66.5h-342v-524h358q141 0 224.5 65.5t83.5 195.5z" glyph-name="Rcommaaccent" horiz-adv-x="1292" unicode="Ŗ"/><glyph d="M88 -182q0 45 33 76.5t86 31.5t107.5 -53.5t-25.5 -194.5l-56 -98h-118l49 82l33 41v6q-49 2 -79 33t-30 76zM287 410v-410h-168v709h110l21 -101h8q68 102 207 103q89 0 141 -37l-59 -131q-33 23 -97 23t-113.5 -43.5t-49.5 -112.5z" glyph-name="rcommaaccent" horiz-adv-x="610" unicode="ŗ"/><glyph d="M915 1640v-30l-204 -293h-183l-204 293v30h106l191 -202l188 202h106zM684 1229q233 0 364.5 -107.5t131.5 -306.5q0 -143 -74 -240.5t-203 -142.5v-8l318 -391v-33h-187l-321 399h-375v-399h-168v1229h514zM1004 812q0 130 -86.5 196.5t-237.5 66.5h-342v-524h358 q141 0 224.5 65.5t83.5 195.5z" glyph-name="Rcaron" horiz-adv-x="1292" unicode="Ř"/><glyph d="M651 1182v-31l-205 -293h-182l-205 293v31h107l190 -203l189 203h106zM287 410v-410h-168v709h110l21 -101h8q68 102 207 103q89 0 141 -37l-59 -131q-33 23 -97 23t-113.5 -43.5t-49.5 -112.5z" glyph-name="rcaron" horiz-adv-x="610" unicode="ř"/><glyph d="M500 1307v30l88 293h196v-31l-178 -292h-106zM570 129q128 0 200 51.5t72 137.5t-67.5 134t-276.5 108t-308.5 139t-99.5 228t122 238.5t339 89.5q137 0 247.5 -29.5t151.5 -58.5l43 -30l-92 -140q-14 10 -40.5 27.5t-117.5 45.5t-205 28t-192 -47t-78 -124t69 -120 t281 -101t308 -146t96 -240t-119 -250.5t-348 -98.5t-332.5 59.5t-120.5 75.5l-16 15l92 127q14 -12 44 -32.5t125 -53.5t223 -33z" glyph-name="Sacute" horiz-adv-x="1099" unicode="Ś"/><glyph d="M326 858v31l88 293h196v-31l-178 -293h-106zM539 199q0 72 -159 100.5t-231.5 78.5t-72.5 140t75.5 148.5t229.5 58.5q90 0 167 -14.5t107 -28.5l33 -14l-57 -131q-82 59 -236 59t-153 -80q0 -70 160.5 -96.5t233.5 -78.5t73 -144t-81 -152.5t-245 -60.5q-98 0 -178 20.5 t-111 40.5l-31 21l60 116q111 -70 263 -70t153 87z" glyph-name="sacute" horiz-adv-x="774" unicode="ś"/><glyph d="M248 1317v31l205 292h182l205 -292v-31h-107l-188 203l-191 -203h-106zM570 129q128 0 200 51.5t72 137.5t-67.5 134t-276.5 108t-308.5 139t-99.5 228t122 238.5t339 89.5q137 0 247.5 -29.5t151.5 -58.5l43 -30l-92 -140q-14 10 -40.5 27.5t-117.5 45.5t-205 28 t-192 -47t-78 -124t69 -120t281 -101t308 -146t96 -240t-119 -250.5t-348 -98.5t-332.5 59.5t-120.5 75.5l-16 15l92 127q14 -12 44 -32.5t125 -53.5t223 -33z" glyph-name="Scircumflex" horiz-adv-x="1099" unicode="Ŝ"/><glyph d="M90 858v31l205 293h182l205 -293v-31h-107l-188 203l-190 -203h-107zM539 199q0 72 -159 100.5t-231.5 78.5t-72.5 140t75.5 148.5t229.5 58.5q90 0 167 -14.5t107 -28.5l33 -14l-57 -131q-82 59 -236 59t-153 -80q0 -70 160.5 -96.5t233.5 -78.5t73 -144t-81 -152.5 t-245 -60.5q-98 0 -178 20.5t-111 40.5l-31 21l60 116q111 -70 263 -70t153 87z" glyph-name="scircumflex" horiz-adv-x="774" unicode="ŝ"/><glyph d="M547 -123q-31 0 -49 -12l-33 41l33 67q-125 6 -228.5 43t-142.5 70l-41 35l92 127q14 -12 44 -32.5t125 -53.5t223 -33t200 51.5t72 137.5t-67.5 134t-276.5 108t-308.5 139t-99.5 228t122 238.5t339 89.5q137 0 247.5 -29.5t151.5 -58.5l43 -30l-92 -140 q-14 10 -40.5 27.5t-117.5 45.5t-205 28t-192 -47t-78 -124t69 -120t281 -101t308 -146t96 -236t-108.5 -245t-325.5 -106l-15 -34q61 0 99.5 -33.5t38.5 -97.5t-44.5 -105t-108.5 -41q-113 0 -157 47l-16 15l37 65q45 -43 123 -43t78 66q0 31 -22.5 48t-53.5 17z" glyph-name="Scedilla" horiz-adv-x="1099" unicode="Ş"/><glyph d="M375 -123q-35 0 -47 -12l-33 41l39 80q-82 4 -149.5 24.5t-94.5 38.5l-27 17l60 116q111 -70 263 -70t153 87q0 72 -159 100.5t-231.5 78.5t-72.5 140t75.5 148.5t229.5 58.5q90 0 167 -14.5t107 -28.5l33 -14l-57 -131q-82 59 -236 59t-153 -80q0 -70 160.5 -96.5 t233.5 -78.5t73 -141t-71 -147.5t-214 -66.5l-21 -47q61 0 99.5 -33.5t38.5 -97.5t-44.5 -105t-108.5 -41q-110 0 -159 47l-14 15l37 65q45 -43 123 -43t78 66q0 31 -21.5 48t-56.5 17z" glyph-name="scedilla" horiz-adv-x="774" unicode="ş"/><glyph d="M842 1630v-31l-205 -292h-182l-205 292v31h106l191 -203l188 203h107zM570 129q128 0 200 51.5t72 137.5t-67.5 134t-276.5 108t-308.5 139t-99.5 228t122 238.5t339 89.5q137 0 247.5 -29.5t151.5 -58.5l43 -30l-92 -140q-14 10 -40.5 27.5t-117.5 45.5t-205 28 t-192 -47t-78 -124t69 -120t281 -101t308 -146t96 -240t-119 -250.5t-348 -98.5t-332.5 59.5t-120.5 75.5l-16 15l92 127q14 -12 44 -32.5t125 -53.5t223 -33z" glyph-name="Scaron" horiz-adv-x="1099" unicode="Š"/><glyph d="M682 1182v-31l-205 -293h-182l-205 293v31h107l190 -203l188 203h107zM539 199q0 72 -159 100.5t-231.5 78.5t-72.5 140t75.5 148.5t229.5 58.5q90 0 167 -14.5t107 -28.5l33 -14l-57 -131q-82 59 -236 59t-153 -80q0 -70 160.5 -96.5t233.5 -78.5t73 -144t-81 -152.5 t-245 -60.5q-98 0 -178 20.5t-111 40.5l-31 21l60 116q111 -70 263 -70t153 87z" glyph-name="scaron" horiz-adv-x="774" unicode="š"/><glyph d="M416 -182q0 45 32.5 76.5t86 31.5t107.5 -54t-26 -194l-55 -98h-119l50 82l32 41v6q-49 2 -78.5 33t-29.5 76zM31 1075v154h1018v-154h-426v-1075h-168v1075h-424z" glyph-name="Tcommaaccent" horiz-adv-x="1079" unicode="Ţ"/><glyph d="M229 -182q0 45 33 76.5t86 31.5t107.5 -53.5t-25.5 -194.5l-55 -98h-119l49 82l33 41v6q-49 2 -79 33t-30 76zM479 125q46 0 96 29l56 -115q-63 -55 -188 -55t-199 78.5t-74 226.5v284h-137v136h137v213h166v-213h264v-136h-264v-278q0 -170 143 -170z" glyph-name="tcommaaccent" horiz-adv-x="655" unicode="ţ"/><glyph d="M836 1640v-30l-205 -293h-182l-205 293v30h106l191 -202l188 202h107zM31 1075v154h1018v-154h-426v-1075h-168v1075h-424z" glyph-name="Tcaron" horiz-adv-x="1079" unicode="Ť"/><glyph d="M510 1182q0 45 32.5 76.5t86 31.5t108 -53.5t-25.5 -194.5l-56 -98h-118l49 82l32 41v6q-49 2 -78.5 33t-29.5 76zM479 125q46 0 96 29l56 -115q-63 -55 -188 -55t-199 78.5t-74 226.5v284h-137v136h137v213h166v-213h264v-136h-264v-278q0 -170 143 -170z" glyph-name="tcaron" horiz-adv-x="655" unicode="ť"/><glyph d="M37 1075v154h1018v-154h-426v-389h207v-117h-207v-569h-168v569h-205v117h205v389h-424z" glyph-name="Tbar" horiz-adv-x="1089" unicode="Ŧ"/><glyph d="M485 125q43 0 97 29l55 -115q-63 -55 -188 -55t-199 78.5t-74 226.5v41h-133v114h133v129h-137v136h137v213h166v-213h264v-136h-264v-129h209v-114h-209v-35q0 -170 143 -170z" glyph-name="tbar" horiz-adv-x="663" unicode="ŧ"/><glyph d="M677 -29q-245 0 -385 150.5t-140 394.5v713h167v-713q0 -172 92.5 -277.5t264.5 -105.5t263 105.5t91 277.5v713h170v-713q0 -244 -139 -394.5t-384 -150.5zM817 1413q-61 0 -145 46t-117 46t-49.5 -17.5t-26.5 -51.5l-8 -27l-119 12l10 54q33 160 175 159q61 0 143 -46 t117 -46q63 0 77 68l7 26l118 -10l-8 -53q-31 -160 -174 -160z" glyph-name="Utilde" horiz-adv-x="1349" unicode="Ũ"/><glyph d="M817 709v-709h-110l-29 98h-8q-28 -54 -103 -84t-151 -30q-147 0 -229.5 86t-82.5 231v408h168v-385q0 -90 46.5 -145.5t135.5 -55.5t142 53t53 121v412h168zM616 899q-61 0 -145 46t-116.5 46t-49 -17.5t-26.5 -51.5l-9 -27l-118 12l10 54q33 160 174 159q61 0 143 -46 t117 -46q63 0 78 68l6 26l119 -10l-8 -53q-32 -160 -175 -160z" glyph-name="utilde" horiz-adv-x="931" unicode="ũ"/><glyph d="M677 -29q-245 0 -385 150.5t-140 394.5v713h167v-713q0 -172 92.5 -277.5t264.5 -105.5t263 105.5t91 277.5v713h170v-713q0 -244 -139 -394.5t-384 -150.5zM401 1380v107h547v-107h-547z" glyph-name="Umacron" horiz-adv-x="1349" unicode="Ū"/><glyph d="M817 709v-709h-110l-29 98h-8q-28 -54 -103 -84t-151 -30q-147 0 -229.5 86t-82.5 231v408h168v-385q0 -90 46.5 -145.5t135.5 -55.5t142 53t53 121v412h168zM193 907v107h546v-107h-546z" glyph-name="umacron" horiz-adv-x="931" unicode="ū"/><glyph d="M677 -29q-245 0 -385 150.5t-140 394.5v713h167v-713q0 -172 92.5 -277.5t264.5 -105.5t263 105.5t91 277.5v713h170v-713q0 -244 -139 -394.5t-384 -150.5zM811 1653h131q0 -111 -74.5 -187.5t-191.5 -76.5t-191.5 76.5t-74.5 187.5h131q0 -61 37.5 -100.5t95.5 -39.5 t97.5 40.5t39.5 99.5z" glyph-name="Ubreve" horiz-adv-x="1349" unicode="Ŭ"/><glyph d="M817 709v-709h-110l-29 98h-8q-28 -54 -103 -84t-151 -30q-147 0 -229.5 86t-82.5 231v408h168v-385q0 -90 46.5 -145.5t135.5 -55.5t142 53t53 121v412h168zM602 1190h131q0 -111 -74.5 -187.5t-191.5 -76.5t-191.5 76.5t-74.5 187.5h131q0 -61 38 -100t96 -39t97 40 t39 99z" glyph-name="ubreve" horiz-adv-x="931" unicode="ŭ"/><glyph d="M675 1300q-85 0 -142.5 55.5t-57.5 137.5t57.5 137.5t142.5 55.5t141 -55.5t56 -137.5t-56 -137.5t-141 -55.5zM764 1493q0 41 -23.5 65.5t-64.5 24.5t-66.5 -24.5t-25.5 -64.5t25.5 -64.5t66.5 -24.5t64.5 23.5t23.5 64.5zM677 -29q-245 0 -385 150.5t-140 394.5v713 h167v-713q0 -172 92.5 -277.5t264.5 -105.5t263 105.5t91 277.5v713h170v-713q0 -244 -139 -394.5t-384 -150.5z" glyph-name="Uring" horiz-adv-x="1349" unicode="Ů"/><glyph d="M462 874q-85 0 -142.5 55.5t-57.5 137.5t57.5 137.5t142.5 55.5t141 -55.5t56 -137.5t-56 -137.5t-141 -55.5zM551 1067q0 41 -23.5 65.5t-64.5 24.5t-66.5 -24.5t-25.5 -64.5t25.5 -64.5t66.5 -24.5t64.5 23.5t23.5 64.5zM817 709v-709h-110l-29 98h-8q-28 -54 -103 -84 t-151 -30q-147 0 -229.5 86t-82.5 231v408h168v-385q0 -90 46.5 -145.5t135.5 -55.5t142 53t53 121v412h168z" glyph-name="uring" horiz-adv-x="931" unicode="ů"/><glyph d="M677 -29q-245 0 -385 150.5t-140 394.5v713h167v-713q0 -172 92.5 -277.5t264.5 -105.5t263 105.5t91 277.5v713h170v-713q0 -244 -139 -394.5t-384 -150.5zM451 1307v30l88 293h176v-31l-158 -292h-106zM784 1307v30l88 293h179v-31l-158 -292h-109z" glyph-name="Uhungarumlaut" horiz-adv-x="1349" unicode="Ű"/><glyph d="M817 709v-709h-110l-29 98h-8q-28 -54 -103 -84t-151 -30q-147 0 -229.5 86t-82.5 231v408h168v-385q0 -90 46.5 -145.5t135.5 -55.5t142 53t53 121v412h168zM229 858v31l88 293h177v-31l-158 -293h-107zM563 858v31l88 293h178v-31l-157 -293h-109z" glyph-name="uhungarumlaut" horiz-adv-x="931" unicode="ű"/><glyph d="M705 -205q40 0 69 29l51 -68q-47 -55 -129 -55t-124 38.5t-42 110.5t68 127q-209 23 -327.5 169.5t-118.5 369.5v713h167v-713q0 -172 92.5 -277.5t264.5 -105.5t263 105.5t91 277.5v713h170v-713q0 -233 -129 -381.5t-356 -161.5q-84 -43 -84 -111t74 -67z" glyph-name="Uogonek" horiz-adv-x="1349" unicode="Ų"/><glyph d="M606 -139q0 96 96 151l-24 86h-8q-28 -54 -103 -84t-151 -30q-147 0 -229.5 86t-82.5 231v408h168v-385q0 -90 46.5 -145.5t135.5 -55.5t142 53t53 121v412h168v-709q-44 -15 -77 -48.5t-33 -70.5q0 -70 73 -69q42 0 70 28l51 -67q-47 -55 -129 -55t-124 38.5t-42 104.5z " glyph-name="uogonek" horiz-adv-x="931" unicode="ų"/><glyph d="M539 1317v31l204 292h183l204 -292v-31h-106l-188 203l-191 -203h-106zM514 309l272 920h101l239 -813l29 -107h12l31 113l277 807h178l-445 -1229h-114l-240 807l-16 51h-11l-258 -858h-108l-445 1229h177l280 -807l29 -113h12z" glyph-name="Wcircumflex" horiz-adv-x="1673" unicode="Ŵ"/><glyph d="M307 858v31l205 293h182l205 -293v-31h-106l-189 203l-190 -203h-107zM315 0l-290 709h178l159 -457q10 -27 13 -53h14q2 23 12 53l142 457h127l141 -457q6 -20 10 -53h15q2 20 14 53l160 457h170l-289 -709h-127l-141 432q-12 35 -15 68h-10q-4 -35 -14 -68l-144 -432 h-125z" glyph-name="wcircumflex" horiz-adv-x="1204" unicode="ŵ"/><glyph d="M270 1307v30l205 293h182l205 -293v-30h-106l-189 202l-190 -202h-107zM647 0h-170v469l-471 760h197l321 -520l35 -76h12l37 76l318 520h194l-473 -758v-471z" glyph-name="Ycircumflex" unicode="Ŷ"/><glyph d="M817 709l-516 -1102h-176l217 440l-319 662h182l205 -457q10 -27 12 -53h10q2 27 12 53l201 457h172zM133 858v31l205 293h182l205 -293v-31h-107l-188 203l-190 -203h-107z" glyph-name="ycircumflex" horiz-adv-x="837" unicode="ŷ"/><glyph d="M283 1444q0 39 28.5 67.5t67.5 28.5t67.5 -28.5t28.5 -67.5t-28.5 -67.5t-67.5 -28.5t-67.5 28.5t-28.5 67.5zM655 1444q0 39 29 67.5t68 28.5t67.5 -28.5t28.5 -67.5t-28.5 -67.5t-67.5 -28.5t-68 28.5t-29 67.5zM647 0h-170v469l-471 760h197l321 -520l35 -76h12l37 76 l318 520h194l-473 -758v-471z" glyph-name="Ydieresis" unicode="Ÿ"/><glyph d="M471 1307v30l88 293h197v-31l-178 -292h-107zM61 0v43l721 1032h-696v154h969v-43l-707 -1032h694v-154h-981z" glyph-name="Zacute" horiz-adv-x="1112" unicode="Ź"/><glyph d="M317 858v31l89 293h196v-31l-178 -293h-107zM717 0h-649v76l413 495h-411v138h647v-70l-414 -502h414v-137z" glyph-name="zacute" horiz-adv-x="782" unicode="ź"/><glyph d="M61 0v43l721 1032h-696v154h969v-43l-707 -1032h694v-154h-981zM442 1504q0 50 34 85t84 35t84 -35t34 -85t-34 -84t-84 -34t-84 34t-34 84z" glyph-name="Zdotaccent" horiz-adv-x="1112" unicode="Ż"/><glyph d="M717 0h-649v76l413 495h-411v138h647v-70l-414 -502h414v-137zM270 1045q0 50 34 85t84 35t84 -34.5t34 -84.5t-34 -84t-84 -34t-84 33.5t-34 83.5z" glyph-name="zdotaccent" horiz-adv-x="782" unicode="ż"/><glyph d="M838 1628v-31l-205 -292h-182l-205 292v31h106l191 -203l188 203h107zM61 0v43l721 1032h-696v154h969v-43l-707 -1032h694v-154h-981z" glyph-name="Zcaron" horiz-adv-x="1112" unicode="Ž"/><glyph d="M692 1182v-31l-205 -293h-182l-205 293v31h107l190 -203l189 203h106zM717 0h-649v76l413 495h-411v138h647v-70l-414 -502h414v-137z" glyph-name="zcaron" horiz-adv-x="782" unicode="ž"/><glyph d="M221 -152v730h-162v131h162v301q0 176 81 265t228 89q84 0 150 -33l10 -4l-45 -143q-49 25 -92 24q-164 0 -164 -198v-301h266v-131h-266v-746q0 -244 -221 -244q-78 0 -137 33l-19 10l45 125q39 -20 78 -20q86 -1 86 112z" glyph-name="florin" horiz-adv-x="706" unicode="ƒ"/><glyph d="M426 1348q0 76 57.5 131t142.5 55t141 -55.5t56 -130.5t-40 -126t-103 -67l575 -1155h-192l-100 201h-674l-101 -201h-190l573 1155q-66 16 -105.5 66.5t-39.5 126.5zM877 371l-242 526h-21l-239 -526l-13 -21h527zM571 1567v30l88 293h197v-30l-178 -293h-107zM715 1341 q0 41 -23.5 66t-64.5 25t-66.5 -25t-25.5 -65t25.5 -64.5t66.5 -24.5t64.5 23.5t23.5 64.5z" glyph-name="Aringacute" horiz-adv-x="1253" unicode="Ǻ"/><glyph d="M57 210q0 97 81.5 157.5t229.5 60.5t222 -55h12v35q0 180 -223 180q-55 0 -106.5 -13.5t-75.5 -27.5l-23 -15l-55 125q97 68 285 68t274 -89t86 -245v-391h-119l-16 82h-11q-70 -98 -262 -98q-143 0 -221 64.5t-78 161.5zM221 216q0 -52 44 -84t128 -32t144.5 40t60.5 83 t-57.5 74t-143.5 31t-131 -30t-45 -82zM383 1305v30l88 293h197v-31l-179 -292h-106zM431 854q-85 0 -142.5 55.5t-57.5 137t57.5 137t142.5 55.5t141.5 -55.5t56.5 -137t-56.5 -137t-141.5 -55.5zM520 1046.5q0 40.5 -23.5 65.5t-64.5 25t-66.5 -24.5t-25.5 -64.5t25.5 -65 t66.5 -25t64.5 24t23.5 64.5z" glyph-name="aringacute" horiz-adv-x="868" unicode="ǻ"/><glyph d="M1200 1307v30l88 293h197v-31l-178 -292h-107zM1790 1229v-154h-743v-395h645v-150h-645v-376h743v-154h-913v201h-560l-137 -201h-209l883 1229h936zM877 350v617h-19l-438 -617h457z" glyph-name="AEacute" horiz-adv-x="1867" unicode="Ǽ"/><glyph d="M657 858v31l88 293h197v-31l-178 -293h-107zM1004 -18q-195 0 -306 122q-106 -121 -319 -120q-160 0 -241 64.5t-81 161.5t79.5 157.5t229.5 60.5t228 -61h4v32q0 190 -219 191q-55 0 -108.5 -12.5t-77.5 -24.5l-25 -14l-51 123q117 63 305 63t278 -117q104 117 276 117 t265.5 -98.5t93.5 -257.5l-2 -50h-561q10 -100 76.5 -152t167.5 -52q57 0 109.5 14t74.5 27l25 14l57 -111q-36 -29 -116.5 -53t-161.5 -24zM215 215q0 -115 178 -115q86 0 146.5 35t60.5 82t-61.5 77t-145.5 30q-178 0 -178 -109zM981 596q-82 0 -136 -44t-69 -128h400 q-10 76 -61.5 124t-133.5 48z" glyph-name="aeacute" horiz-adv-x="1396" unicode="ǽ"/><glyph d="M721 -29q-250 0 -422 146l-127 -123l-84 86l127 125q-131 172 -131 407q0 276 175 459.5t462 183.5q250 0 422 -143l110 109l84 -86l-110 -109q135 -174 135 -431t-176 -440.5t-465 -183.5zM738 133q194 0 323 137.5t129 323.5t-88 309l-682 -667q124 -103 318 -103z M256 612q0 -166 84 -286l680 667q-126 103 -316 103t-319 -139.5t-129 -344.5zM668 1307v30l88 293h196v-31l-178 -292h-106z" glyph-name="Oslashacute" horiz-adv-x="1441" unicode="Ǿ"/><glyph d="M850 340q0 -156 -112 -256t-266 -100t-257 71l-78 -78l-61 62l76 76q-82 95 -82 249t111 257.5t259 103.5t250 -68l86 86l62 -61l-82 -80q94 -106 94 -262zM465 119q90 0 155.5 63.5t65.5 154.5t-41 157l-328 -330q58 -45 148 -45zM233 366q0 -92 31 -143l326 326 q-57 41 -142 41t-150 -66t-65 -158zM410 858v31l88 293h196v-31l-178 -293h-106z" glyph-name="oslashacute" horiz-adv-x="913" unicode="ǿ"/><glyph d="M453 -182q0 45 32.5 76.5t86 31.5t107.5 -54t-26 -194l-55 -98h-119l49 82l33 41v6q-49 2 -78.5 33t-29.5 76zM570 129q128 0 200 51.5t72 137.5t-67.5 134t-276.5 108t-308.5 139t-99.5 228t122 238.5t339 89.5q137 0 247.5 -29.5t151.5 -58.5l43 -30l-92 -140 q-14 10 -40.5 27.5t-117.5 45.5t-205 28t-192 -47t-78 -124t69 -120t281 -101t308 -146t96 -240t-119 -250.5t-348 -98.5t-332.5 59.5t-120.5 75.5l-16 15l92 127q14 -12 44 -32.5t125 -53.5t223 -33z" glyph-name="Scommaaccent" horiz-adv-x="1099" unicode="Ș"/><glyph d="M276 -182q0 45 33 76.5t86.5 31.5t107.5 -54t-26 -194l-55 -98h-119l49 82l33 41v6q-49 2 -79 33t-30 76zM539 199q0 72 -159 100.5t-231.5 78.5t-72.5 140t75.5 148.5t229.5 58.5q90 0 167 -14.5t107 -28.5l33 -14l-57 -131q-82 59 -236 59t-153 -80q0 -70 160.5 -96.5 t233.5 -78.5t73 -144t-81 -152.5t-245 -60.5q-98 0 -178 20.5t-111 40.5l-31 21l60 116q111 -70 263 -70t153 87z" glyph-name="scommaaccent" horiz-adv-x="774" unicode="ș"/><glyph d="M416 -182q0 45 32.5 76.5t86 31.5t107.5 -54t-26 -194l-55 -98h-119l50 82l32 41v6q-49 2 -78.5 33t-29.5 76zM31 1075v154h1018v-154h-426v-1075h-168v1075h-424z" glyph-name="uni021A" horiz-adv-x="1079" unicode="Ț"/><glyph d="M229 -182q0 45 33 76.5t86 31.5t107.5 -53.5t-25.5 -194.5l-55 -98h-119l49 82l33 41v6q-49 2 -79 33t-30 76zM479 125q46 0 96 29l56 -115q-63 -55 -188 -55t-199 78.5t-74 226.5v284h-137v136h137v213h166v-213h264v-136h-264v-278q0 -170 143 -170z" glyph-name="uni021B" horiz-adv-x="655" unicode="ț"/><glyph d="M31 -264q84 0 84 112v861h170v-877q0 -244 -224 -244q-74 0 -137 33l-18 10l47 125q37 -20 78 -20z" glyph-name="uni0237" horiz-adv-x="399" unicode="ȷ"/><glyph d="M395 725q178 0 285.5 -105.5t107.5 -270.5t-107 -266t-269 -101t-258.5 95t-96.5 259l4 57h562q-12 96 -81.5 148.5t-145.5 52.5q-137 0 -208 -45l-22 -14l-53 114q104 76 282 76zM407 98q87 0 144 48.5t72 142.5h-408q2 -82 53.5 -136.5t138.5 -54.5z" glyph-name="uni0259" horiz-adv-x="856" unicode="ə"/><glyph d="M51 858v31l205 293h182l205 -293v-31h-106l-189 203l-190 -203h-107z" glyph-name="circumflex" horiz-adv-x="673" unicode="ˆ"/><glyph d="M643 1182v-31l-205 -293h-182l-205 293v31h107l190 -203l189 203h106z" glyph-name="caron" horiz-adv-x="698" unicode="ˇ"/><glyph d="M487 1190h131q0 -111 -74.5 -187.5t-191 -76.5t-191.5 76.5t-75 187.5h131q0 -61 38 -100t96 -39t97 40t39 99z" glyph-name="breve" horiz-adv-x="712" unicode="˘"/><glyph d="M162 1045q0 50 34 85t84 35t83.5 -34.5t33.5 -84.5t-33.5 -84t-83.5 -34t-84 33.5t-34 83.5z" glyph-name="dotaccent" horiz-adv-x="561" unicode="˙"/><glyph d="M271 874q-85 0 -142 55.5t-57 137.5t57 137.5t142 55.5t141.5 -55.5t56.5 -137.5t-56.5 -137.5t-141.5 -55.5zM360 1067q0 41 -23.5 65.5t-64.5 24.5t-66.5 -24.5t-25.5 -64.5t25.5 -64.5t66.5 -24.5t64.5 23.5t23.5 64.5z" glyph-name="ring" horiz-adv-x="542" unicode="˚"/><glyph d="M68 -139.5q0 65.5 48 114t97 64.5l47 16l19 -55q-45 -15 -78 -48.5t-33 -70.5q0 -70 74 -69q41 0 69 28l51 -67q-47 -55 -129 -55t-123.5 38.5t-41.5 104z" glyph-name="ogonek" horiz-adv-x="411" unicode="˛"/><glyph d="M573 899q-61 0 -145 46t-116.5 46t-49 -17.5t-26.5 -51.5l-9 -27l-118 12l10 54q33 160 174 159q61 0 143 -46t117 -46q63 0 78 68l6 26l119 -10l-8 -53q-32 -160 -175 -160z" glyph-name="tilde" horiz-adv-x="880" unicode="˜"/><glyph d="M100 858v31l88 293h177v-31l-158 -293h-107zM434 858v31l88 293h178v-31l-157 -293h-109z" glyph-name="hungarumlaut" horiz-adv-x="849" unicode="˝"/><glyph d="M45 709h930v-136h-137v-573h-168v573h-324v-573h-168v573h-133v136z" glyph-name="pi" horiz-adv-x="1017" unicode="π"/><glyph d="M602 1630h199l86 -293v-30h-107l-178 292v31zM514 309l272 920h101l239 -813l29 -107h12l31 113l277 807h178l-445 -1229h-114l-240 807l-16 51h-11l-258 -858h-108l-445 1229h177l280 -807l29 -113h12z" glyph-name="Wgrave" horiz-adv-x="1673" unicode="Ẁ"/><glyph d="M315 0l-290 709h178l159 -457q10 -27 13 -53h14q2 23 12 53l142 457h127l141 -457q6 -20 10 -53h15q2 20 14 53l160 457h170l-289 -709h-127l-141 432q-12 35 -15 68h-10q-4 -35 -14 -68l-144 -432h-125zM369 1182h198l86 -293v-31h-106l-178 293v31z" glyph-name="wgrave" horiz-adv-x="1204" unicode="ẁ"/><glyph d="M782 1307v30l88 293h197v-31l-178 -292h-107zM514 309l272 920h101l239 -813l29 -107h12l31 113l277 807h178l-445 -1229h-114l-240 807l-16 51h-11l-258 -858h-108l-445 1229h177l280 -807l29 -113h12z" glyph-name="Wacute" horiz-adv-x="1673" unicode="Ẃ"/><glyph d="M555 858v31l88 293h197v-31l-178 -293h-107zM315 0l-290 709h178l159 -457q10 -27 13 -53h14q2 23 12 53l142 457h127l141 -457q6 -20 10 -53h15q2 20 14 53l160 457h170l-289 -709h-127l-141 432q-12 35 -15 68h-10q-4 -35 -14 -68l-144 -432h-125z" glyph-name="wacute" horiz-adv-x="1204" unicode="ẃ"/><glyph d="M551 1454q0 39 28.5 67.5t67.5 28.5t67.5 -28.5t28.5 -67.5t-28.5 -67.5t-67.5 -28.5t-67.5 28.5t-28.5 67.5zM924 1454q0 39 28.5 67.5t67.5 28.5t67.5 -28.5t28.5 -67.5t-28.5 -67.5t-67.5 -28.5t-67.5 28.5t-28.5 67.5zM514 309l272 920h101l239 -813l29 -107h12 l31 113l277 807h178l-445 -1229h-114l-240 807l-16 51h-11l-258 -858h-108l-445 1229h177l280 -807l29 -113h12z" glyph-name="Wdieresis" horiz-adv-x="1673" unicode="Ẅ"/><glyph d="M322 989q0 39 28.5 67.5t67.5 28.5t67.5 -28.5t28.5 -67.5t-28.5 -67.5t-67.5 -28.5t-67.5 28.5t-28.5 67.5zM694 989q0 39 29 67.5t67.5 28.5t67.5 -28.5t29 -67.5t-29 -67.5t-67.5 -28.5t-67.5 28.5t-29 67.5zM315 0l-290 709h178l159 -457q10 -27 13 -53h14 q2 23 12 53l142 457h127l141 -457q6 -20 10 -53h15q2 20 14 53l160 457h170l-289 -709h-127l-141 432q-12 35 -15 68h-10q-4 -35 -14 -68l-144 -432h-125z" glyph-name="wdieresis" horiz-adv-x="1204" unicode="ẅ"/><glyph d="M647 0h-170v469l-471 760h197l321 -520l35 -76h12l37 76l318 520h194l-473 -758v-471zM330 1632h198l86 -293v-30h-106l-178 293v30z" glyph-name="Ygrave" unicode="Ỳ"/><glyph d="M817 709l-516 -1102h-176l217 440l-319 662h182l205 -457q10 -27 12 -53h10q2 27 12 53l201 457h172zM209 1182h199l86 -293v-31h-107l-178 293v31z" glyph-name="ygrave" horiz-adv-x="837" unicode="ỳ"/><glyph glyph-name="uni2002" horiz-adv-x="1024" unicode=" "/><glyph glyph-name="uni2003" horiz-adv-x="2048" unicode=" "/><glyph glyph-name="uni2004" horiz-adv-x="681" unicode=" "/><glyph glyph-name="uni2005" horiz-adv-x="512" unicode=" "/><glyph glyph-name="uni2007" horiz-adv-x="1228" unicode=" "/><glyph glyph-name="uni2009" horiz-adv-x="272" unicode=" "/><glyph glyph-name="uni200A" horiz-adv-x="153" unicode=" "/><glyph d="M104 520v139h730v-139h-730z" glyph-name="endash" horiz-adv-x="937" unicode="–"/><glyph d="M104 520v139h1268v-139h-1268z" glyph-name="emdash" horiz-adv-x="1476" unicode="—"/><glyph d="M293 1064q0 -44 -31 -75t-77 -31t-77.5 32t-31.5 90t39 128l82 146h114l-73 -131l-33 -41v-8q39 -6 63.5 -36t24.5 -74z" glyph-name="quoteleft" horiz-adv-x="389" unicode="‘"/><glyph d="M104 1246q0 44 31 75t77 31t78 -32t32 -90t-39 -128l-82 -146h-115l74 131l33 41v9q-39 6 -64 35.5t-25 73.5z" glyph-name="quoteright" horiz-adv-x="389" unicode="’"/><glyph d="M51 95q0 44 31 75t77 31t77.5 -31.5t31.5 -89.5t-39 -129l-82 -146h-114l73 132l33 40v9q-39 6 -63.5 35.5t-24.5 73.5z" glyph-name="quotesinglbase" horiz-adv-x="319" unicode="‚"/><glyph d="M293 1064q0 -44 -31 -75t-77 -31t-77.5 32t-31.5 90t39 128l82 146h114l-73 -131l-33 -41v-8q39 -6 63.5 -36t24.5 -74zM670 1064q0 -44 -31 -75t-77 -31t-77.5 32t-31.5 90t39 128l81 146h115l-74 -131l-32 -41v-8q39 -6 63.5 -36t24.5 -74z" glyph-name="quotedblleft" horiz-adv-x="765" unicode="“"/><glyph d="M96 1246q0 44 31 75t77 31t77.5 -32t31.5 -90t-39 -128l-81 -146h-115l74 131l32 41v9q-39 6 -63.5 35.5t-24.5 73.5zM455 1246q0 44 30.5 75t76.5 31t78 -32t32 -90t-39 -128l-82 -146h-115l74 131l33 41v9q-39 6 -63.5 35.5t-24.5 73.5z" glyph-name="quotedblright" horiz-adv-x="747" unicode="”"/><glyph d="M51 95q0 44 31 75t77 31t77.5 -31.5t31.5 -89.5t-39 -129l-82 -146h-114l73 132l33 40v9q-39 6 -63.5 35.5t-24.5 73.5zM516 95q0 44 31 75t77 31t77.5 -31.5t31.5 -89.5t-39 -129l-82 -146h-114l73 132l33 40v9q-39 6 -63.5 35.5t-24.5 73.5z" glyph-name="quotedblbase" horiz-adv-x="784" unicode="„"/><glyph d="M66 588v139h313v502h141v-502h309v-139h-309l-16 -981h-111l-14 981h-313z" glyph-name="dagger" horiz-adv-x="894" unicode="†"/><glyph d="M100 733v139h314v357h141v-357h311v-139h-311v-457h311v-139h-311l-14 -530h-111l-16 530h-314v139h314v457h-314z" glyph-name="daggerdbl" horiz-adv-x="966" unicode="‡"/><glyph d="M152 354.5q0 65.5 46 112.5t111 47t112.5 -47t47.5 -112.5t-46 -111.5t-113 -46t-112.5 46t-45.5 111.5z" glyph-name="bullet" horiz-adv-x="620" unicode="•"/><glyph d="M51 97q0 48 33 82t81 34t82 -34t34 -82t-34 -81.5t-82 -33.5t-81 33.5t-33 81.5zM426 97q0 48 34 82t82 34t80.5 -34t32.5 -82t-32.5 -81.5t-80.5 -33.5t-82 33.5t-34 81.5zM803 97q0 48 32.5 82t80.5 34t82 -34t34 -82t-34 -81.5t-82 -33.5t-80.5 33.5t-32.5 81.5z" glyph-name="ellipsis" horiz-adv-x="1083" unicode="…"/><glyph d="M351 1255q128 0 203 -89t75 -217t-75 -219t-203 -91t-202.5 90t-74.5 219t74.5 218t202.5 89zM350 764q66 0 101.5 51t35.5 134t-34.5 133.5t-101.5 50.5t-101.5 -50.5t-34.5 -134.5t34.5 -134t100.5 -50zM1114 1241l105 -84l-961 -1155l-102 84zM1025 600q128 0 203 -89 t75 -218t-76 -219t-203 -90t-203 90t-76 218t76 218t204 90zM1024 477q-66 0 -101.5 -51t-35.5 -133t37.5 -133t101.5 -51t98.5 50t34.5 134t-34.5 134t-100.5 50zM1679.5 477q-65.5 0 -101.5 -51t-36 -133t37 -133t101 -51t99.5 50t35.5 134t-35 134t-100.5 50zM1680 600 q128 0 203 -89t75 -218t-76 -219t-203 -90t-202.5 90t-75.5 218t75.5 218t203.5 90z" glyph-name="perthousand" horiz-adv-x="2023" unicode="‰"/><glyph d="M434 688v-16l-213 -314v-10l213 -317v-17h-143l-217 318v39l217 317h143z" glyph-name="guilsinglleft" horiz-adv-x="509" unicode="‹"/><glyph d="M76 14v17l211 317v10l-211 314v16h143l217 -317v-39l-217 -318h-143z" glyph-name="guilsinglright" horiz-adv-x="509" unicode="›"/><glyph d="M-252 10l-86 68l961 1155l88 -68z" glyph-name="fraction" horiz-adv-x="368" unicode="⁄"/><glyph d="M384 1386q151 0 239 -103t88 -249t-88 -248t-239 -102t-239 102.5t-88 247.5t88 248.5t239 103.5zM383 1276q-92 0 -142.5 -70t-50.5 -172t50.5 -169.5t142.5 -67.5t143.5 67.5t51.5 169.5t-51.5 172t-143.5 70z" glyph-name="uni2070" horiz-adv-x="768" unicode="⁰"/><glyph d="M37 872v74l383 422l4 -4l2 4h82v-397h108v-99h-108v-172h-113v172h-358zM395 971v231h-2l-143 -168l-64 -65v-4l88 6h121z" glyph-name="uni2074" horiz-adv-x="657" unicode="⁴"/><glyph d="M545 1368v-102h-340l-6 -174q70 12 131 12q127 0 194.5 -52.5t67.5 -148.5t-71.5 -157.5t-205.5 -61.5q-70 0 -149 29t-115 65l62 84q74 -70 194 -69q164 -1 164 111t-176 112q-76 0 -150 -21l-20 -8l-33 21l14 360h439z" glyph-name="uni2075" horiz-adv-x="641" unicode="⁵"/><glyph d="M340 1174q129 0 207 -63.5t78 -177.5t-78 -181.5t-207 -67.5t-207 67.5t-78 185.5t99 243l143 190h135l-108 -141q-14 -22 -52 -55v-7q31 7 68 7zM340 1073q-74 0 -118 -37.5t-44 -103.5t44 -106t118 -40t119 40t45 107t-45 103.5t-119 36.5z" glyph-name="uni2076" horiz-adv-x="665" unicode="⁶"/><glyph d="M549 1368v-31l-262 -637h-131l239 566h-354v102h508z" glyph-name="uni2077" horiz-adv-x="573" unicode="⁷"/><glyph d="M57 893q0 115 117 160q-94 51 -94 140t72.5 141t188.5 52t187.5 -52t71.5 -141t-92 -140q117 -45 117 -160q0 -86 -76 -147.5t-207 -61.5t-208 61.5t-77 147.5zM341 1008q-77 0 -119 -30t-42 -79t43 -82t118 -33t118 33t43 82t-42 79t-119 30zM342 1083q68 0 105.5 30 t37.5 73t-39.5 71.5t-103 28.5t-103.5 -28.5t-40 -71.5t37.5 -73t105.5 -30z" glyph-name="uni2078" horiz-adv-x="681" unicode="⁸"/><glyph d="M332 897q-127 0 -205 63.5t-78 176.5t78 181t206 68t205.5 -67t77.5 -185t-96 -243l-145 -191h-135l110 142l49 55v4q-44 -4 -67 -4zM333 997q75 0 119 36t44 103.5t-44 107.5t-119 40t-119 -40t-44 -106t44 -103.5t119 -37.5z" glyph-name="uni2079" horiz-adv-x="671" unicode="⁹"/><glyph d="M384 430q151 0 239 -103.5t88 -248.5t-88 -247.5t-239 -102.5t-239 102t-88 248t88 249t239 103zM383 319q-92 0 -142.5 -69.5t-50.5 -171.5t50.5 -170t142.5 -68t143.5 68t51.5 170t-51.5 171.5t-143.5 69.5z" glyph-name="uni2080" horiz-adv-x="765" unicode="₀"/><glyph d="M35 309v103h264v-668h-117v565h-147z" glyph-name="uni2081" horiz-adv-x="405" unicode="₁"/><glyph d="M51 -256v37l301 289q72 72 72 131q0 117 -139 116q-43 0 -94.5 -21.5t-77.5 -47.5l-62 90q36 36 107 64t137 28q131 0 193.5 -59.5t62.5 -154.5t-96 -191l-187 -179h318v-102h-535z" glyph-name="uni2082" horiz-adv-x="636" unicode="₂"/><glyph d="M74 309v103h483v-31l-149 -234q178 -25 178 -198q0 -94 -72 -157.5t-205 -63.5q-70 0 -149 29t-115 65l66 88q82 -72 178 -72q176 0 176 115q0 102 -129 108h-92v33l141 215h-311z" glyph-name="uni2083" horiz-adv-x="638" unicode="₃"/><glyph d="M39 -84v74l383 422h88v-398h106v-98h-106v-172h-113v172h-358zM397 14v232h-2l-149 -172q-20 -24 -39 -43t-21 -23l90 6h121z" glyph-name="uni2084" horiz-adv-x="659" unicode="₄"/><glyph d="M545 412v-103h-340l-6 -174q70 12 131 12q127 0 194.5 -52t67.5 -148.5t-71.5 -157.5t-205.5 -61q-70 0 -149 29t-115 65l62 84q74 -70 194 -70q164 0 164 112t-176 111q-92 0 -150 -22l-20 -6l-33 20l14 361h439z" glyph-name="uni2085" horiz-adv-x="641" unicode="₅"/><glyph d="M340 217q129 0 207 -63.5t78 -177.5t-78 -181t-207 -67t-207 67.5t-78 185.5t99 242l143 191h135l-108 -142q-14 -22 -52 -55v-6q31 6 68 6zM340 117q-74 0 -118 -37t-44 -104t44 -106.5t118 -39.5t119 40t45 106t-45 103.5t-119 37.5z" glyph-name="uni2086" horiz-adv-x="665" unicode="₆"/><glyph d="M549 412v-31l-262 -637h-131l239 565h-354v103h508z" glyph-name="uni2087" horiz-adv-x="573" unicode="₇"/><glyph d="M57 -63q0 115 117 159q-94 50 -94 140t72.5 142t188.5 52t187.5 -52t71.5 -141t-92 -141q117 -45 117 -159q0 -86 -76 -147.5t-207 -61.5t-208 61.5t-77 147.5zM341 51q-77 0 -119 -29.5t-42 -78.5t43 -82t118 -33t118 33t43 82t-42 78.5t-119 29.5zM342 127 q68 0 105.5 29.5t37.5 72.5t-39.5 72t-103 29t-103.5 -29t-40 -72t37.5 -72.5t105.5 -29.5z" glyph-name="uni2088" horiz-adv-x="681" unicode="₈"/><glyph d="M328 -59q-127 0 -206 63.5t-79 175.5t79 181t207 69t205.5 -67.5t76.5 -186.5t-97 -242l-143 -190h-135l108 141q18 29 45 49l6 7v6q-34 -6 -67 -6zM327.5 41q73.5 0 119 36t45.5 103.5t-45 107.5t-119 40t-118 -40t-44 -107t44 -103.5t117.5 -36.5z" glyph-name="uni2089" horiz-adv-x="665" unicode="₉"/><glyph d="M80 612q0 240 139 414t371 217l33 182h118l-30 -170h12q59 0 121 -10l33 180h118l-37 -208q57 -20 105.5 -50t66.5 -49l21 -18l-96 -131q-49 45 -125 82l-160 -918q80 8 150.5 39t103.5 57l31 29l96 -131l-49 -49q-48 -48 -165.5 -76.5t-195.5 -30.5l-30 -180h-119 l33 189q-66 8 -133 28l-37 -217h-119l47 268q-143 84 -223 229.5t-80 323.5zM252 612q0 -231 162 -370l145 825q-139 -49 -223 -173t-84 -282zM725 1096l-43 -2l-162 -920q68 -31 131 -39l166 950q-51 10 -92 11z" glyph-name="colonmonetary" horiz-adv-x="1234" unicode="₡"/><glyph d="M1313 1229v-228h104v-116h-104v-531h104v-114h-104v-240h-47l-238 240h-635v-240h-168v240h-129v114h129v531h-129v116h129v228h47l226 -228h645v228h170zM1143 885h-529l529 -529v529zM393 354h522l-522 529v-529z" glyph-name="uni20A6" horiz-adv-x="1533" unicode="₦"/><glyph d="M1796 199q0 72 -158.5 100.5t-231.5 78.5t-73 140t76 148.5t229 58.5q90 0 167 -14.5t108 -28.5l33 -14l-58 -131q-82 59 -236 59t-153 -80q0 -70 161 -96.5t233.5 -78.5t72.5 -144t-81 -152.5t-245 -60.5q-98 0 -178 20.5t-110 40.5l-31 21l59 116q112 -70 264 -70 t152 87zM705 1229q233 0 364 -107.5t131 -306.5q0 -143 -73.5 -240.5t-202.5 -142.5v-8l317 -391v-33h-186l-322 399h-375v-399h-168v1229h515zM1024 812q0 130 -86 196.5t-238 66.5h-342v-524h359q141 0 224 65.5t83 195.5z" glyph-name="uni20A8" horiz-adv-x="2048" unicode="₨"/><glyph d="M1817 385v-115h-383l-97 -270h-114l-82 270h-361l-82 -270h-108l-98 270h-386v115h345l-175 477h-170v117h130l-91 250h177l86 -250h434l73 250h101l74 -250h428l86 250h178l-90 -250h125v-117h-168l-172 -477h340zM664 385l143 477h-358l153 -440l8 -37h54zM1317 385 l10 37l150 440h-353l140 -477h53zM956 858l-141 -473h293l-125 422l-16 51h-11z" glyph-name="uni20A9" horiz-adv-x="1925" unicode="₩"/><glyph d="M907 709v-709h-254q-117 0 -174 56.5t-80 168.5l-30 191h94l31 -142q18 -70 45.5 -101.5t93.5 -31.5h160v568h114zM164 0v709h303q229 0 229 -234v-182h-88l-10 141q-6 133 -133 133h-186v-567h-115z" glyph-name="afii57636" horiz-adv-x="1071" unicode="₪"/><glyph d="M854 530v-129h-430q86 -256 354 -256q74 0 138.5 28t91.5 56l28 27l99 -127q-10 -15 -93 -80t-282 -65t-334 114.5t-184 302.5h-160v129h137q-6 41 -6 75t4 87h-135v129h158q47 190 184 308t333 118t274.5 -57t90.5 -72l15 -16l-101 -129q-10 12 -29.5 30.5t-87 49 t-141.5 30.5q-137 0 -226 -69.5t-130 -192.5h432v-129h-459q-4 -37 -4 -81t4 -81h459z" glyph-name="Euro" horiz-adv-x="1220" unicode="€"/><glyph d="M244 1053q0 133 86 224t226 91t226 -91t86 -220t-48 -215t-156 -170l-265 -207v-154q0 -90 45 -138t128 -48t139 41l18 14l51 -112q-30 -30 -98 -57t-129 -27q-147 0 -228 78.5t-81 222.5v77l-121 -47l-47 72l168 131v535zM399 1053v-412l160 125q150 115 150 278 q0 80 -43 130.5t-113 50.5t-112 -49t-42 -123z" glyph-name="afii61289" horiz-adv-x="892" unicode="ℓ"/><glyph d="M1069 778q0 -203 -134 -341t-355.5 -138t-352.5 138t-131 341t131 341t352.5 138t355.5 -138t134 -341zM963 778q0 164 -106.5 271.5t-276.5 107.5t-274.5 -104.5t-104.5 -271.5t105.5 -274.5t274.5 -107.5t275.5 107.5t106.5 271.5zM418 979h192q82 0 133.5 -42 t51.5 -116t-53.5 -114.5t-137.5 -40.5h-102v-101h-84v414zM608 901h-106v-160h102q102 0 103 82q-1 78 -99 78z" glyph-name="uni2117" horiz-adv-x="1163" unicode="℗"/><glyph d="M860 575h-115v654h33l293 -275l293 275h33v-654h-115v437l-199 -189h-26l-197 189v-437zM381 662q123 0 123 86q0 39 -38 61t-136 53t-151.5 75t-53.5 124t66.5 130t160.5 50q163 0 234 -49l20 -16l-59 -89q-63 55 -184 55t-121 -79q0 -35 34 -57t134 -50t158.5 -73 t58.5 -129t-64.5 -137.5t-189.5 -53.5q-74 0 -136.5 19.5t-89.5 40.5l-24 20l59 80q76 -61 199 -61z" glyph-name="uni2120" horiz-adv-x="1538" unicode="℠"/><glyph d="M834 575h-115v654h33l290 -275l295 275h33v-654h-115v437l-198 -189h-27l-196 189v-437zM594 1229v-101h-203v-553h-115v553h-204v101h522z" glyph-name="trademark" horiz-adv-x="1513" unicode="™"/><glyph d="M109 0v147h282q-131 74 -204.5 207t-73.5 281q0 260 174 440t474 180t474 -180t174 -440q0 -147 -73.5 -280.5t-207.5 -207.5h283v-147h-577v152q172 12 288.5 150t116.5 328t-131 327t-348 137t-347 -137.5t-130 -326.5t115.5 -327.5t287.5 -150.5v-152h-577z" glyph-name="uni2126" horiz-adv-x="1517" unicode="Ω"/><glyph d="M319 553v-174q57 -113 170 -178.5t267 -65.5q84 0 159.5 20.5t108.5 41.5l35 18l86 -141q-14 -10 -43 -27.5t-131.5 -45.5t-218.5 -28q-303 0 -481.5 181.5t-178.5 456.5t180 459.5t470 184.5t470.5 -184t180.5 -459l-2 -59h-1072zM741.5 1094q-143.5 0 -254 -68 t-168.5 -184v-152h846v152q-57 117 -168.5 184.5t-255 67.5z" glyph-name="estimated" horiz-adv-x="1460" unicode="℮"/><glyph d="M895 563v103h483v-31l-149 -232q180 -27 180 -198q0 -94 -71.5 -158.5t-211.5 -64.5t-258 94l64 88q82 -72 178 -72t137 33t41 83t-37 78.5t-104 28.5h-80v33l137 215h-309zM188 8l-86 70l961 1155l88 -70zM78 1126v103h266v-668h-119v565h-147z" glyph-name="onethird" horiz-adv-x="1484" unicode="⅓"/><glyph d="M1137 565v103h483v-31l-150 -234q180 -25 181 -198q0 -94 -73 -157.5t-206 -63.5q-70 0 -149 29t-115 65l66 88q82 -72 178 -72q176 0 176 115q0 109 -142 108h-77v33l137 215h-309zM436 8l-86 68l961 1155l88 -68zM92 567v35l301 291q72 68 72 126q0 120 -139 120 q-52 0 -104.5 -24.5t-69.5 -41.5l-62 90q35 35 106.5 62.5t139.5 27.5q129 0 191.5 -58.5t62.5 -156.5t-96 -190l-183 -178h316v-103h-535z" glyph-name="twothirds" horiz-adv-x="1728" unicode="⅔"/><glyph d="M850 193q0 115 117 159q-93 50 -93 140t72 142t188 52t188.5 -52t72.5 -141t-95 -141q117 -45 117 -159q0 -86 -75.5 -147.5t-207.5 -61.5t-208 61.5t-76 147.5zM193 8l-89 70l961 1155l88 -70zM80 1126v103h264v-668h-117v565h-147zM1132.5 307q-75.5 0 -117.5 -29.5 t-42 -78.5t43 -82t116.5 -33t118.5 34t45 82t-44 77.5t-119.5 29.5zM1135 383q68 0 104.5 29.5t36.5 72.5t-39 72t-103 29t-102.5 -29t-38.5 -72t37 -72.5t105 -29.5z" glyph-name="oneeighth" horiz-adv-x="1484" unicode="⅛"/><glyph d="M1014 193q0 115 116 159q-94 50 -94 140t73 142t189 52t187 -52t71 -142t-94 -140q119 -45 119 -159q0 -86 -77 -147.5t-208 -61.5t-206.5 61.5t-75.5 147.5zM106 1126v103h484v-31l-150 -233q178 -25 178 -199q0 -94 -71.5 -157.5t-204.5 -63.5q-70 0 -148.5 28.5 t-115.5 65.5l65 88q83 -72 179 -72q176 0 176 115q0 102 -129 109h-93v32l142 215h-312zM387 8l-84 70l961 1155l86 -70zM1296.5 307q-75.5 0 -117.5 -29.5t-42 -78.5t43 -82t116.5 -33t118.5 34t45 82t-44 77.5t-119.5 29.5zM1298 383q68 0 105 29.5t37 72.5t-39 72 t-103 29t-103.5 -29t-39.5 -72t37.5 -72.5t105.5 -29.5z" glyph-name="threeeighths" horiz-adv-x="1654" unicode="⅜"/><glyph d="M999 193q0 115 117 159q-94 50 -94 140t71.5 142t188.5 52t188.5 -52t71.5 -141t-92 -141q117 -45 117 -159q0 -86 -76 -147.5t-207 -61.5t-208 61.5t-77 147.5zM567 1229v-103h-340l-8 -174q70 12 133 13q127 0 194.5 -52.5t67.5 -148.5t-71.5 -157.5t-206.5 -61.5 q-70 0 -147 28t-115 66l61 84q72 -68 193 -68q166 0 166 110t-179 109q-94 0 -168 -26l-32 20l12 361h440zM387 8l-84 70l961 1155l86 -70zM1283 307q-77 0 -120 -29.5t-43 -78.5t44 -82t119 -33t118 33t43 82t-42 78.5t-119 29.5zM1283 383q67 0 104.5 29.5t37.5 72.5 t-38.5 72t-102 29t-103.5 -29t-40 -72t37.5 -72.5t104.5 -29.5z" glyph-name="fiveeighths" horiz-adv-x="1640" unicode="⅝"/><glyph d="M922 193q0 115 116 159q-94 50 -94 140t73 142t189 52t187 -52t71 -141t-92 -141q117 -45 117 -159q0 -86 -76 -147.5t-207 -61.5t-207.5 61.5t-76.5 147.5zM268 8l-86 70l961 1155l88 -70zM575 1229v-31l-264 -637h-131l242 565h-356v103h509zM1205 307 q-77 0 -120 -29.5t-43 -78.5t44 -82t119 -33t118 33t43 82t-42 78.5t-119 29.5zM1205 383q67 0 105 29.5t38 72.5t-39 72t-102.5 29t-103.5 -29t-40 -72t37.5 -72.5t104.5 -29.5z" glyph-name="seveneighths" horiz-adv-x="1562" unicode="⅞"/><glyph d="M285 1229h157l351 -555q59 -98 83.5 -167t24.5 -159q0 -168 -115.5 -269.5t-299.5 -101.5t-302 101.5t-118 266.5t116.5 270.5t302.5 105.5q43 0 113 -12v6q-30 30 -57 73l-256 416v25zM486 117q106 0 176.5 66.5t70.5 166.5t-68.5 165t-176.5 65t-180 -65t-72 -165 t72 -166.5t178 -66.5z" glyph-name="partialdiff" horiz-adv-x="972" unicode="∂"/><glyph d="M51 0v35l596 1194h33l596 -1194v-35h-1225zM1032 147l-364 781h-13l-362 -781h739z" glyph-name="uni2206" horiz-adv-x="1327" unicode="∆"/><glyph d="M1231 1229v-1229h-170v1081h-705v-1081h-170v1229h1045z" glyph-name="product" horiz-adv-x="1417" unicode="∏"/><glyph d="M92 1229h758v-148h-545l350 -428v-82l-346 -424h541v-147h-758v147l381 451v27l-381 456v148z" glyph-name="summation" horiz-adv-x="946" unicode="∑"/><glyph d="M111 541v139h804v-139h-804z" glyph-name="minus" horiz-adv-x="1034" unicode="−"/><glyph d="M51 735q0 47 33 81t80 34t79.5 -34t32.5 -81t-32.5 -79.5t-80.5 -32.5t-80 32.5t-32 79.5z" glyph-name="uni2219" horiz-adv-x="329" unicode="∙"/><glyph d="M446 -106h25q0 2 21.5 57t23.5 59l600 1219h191l-830 -1622h-39l-426 817h191l198 -414q2 -4 23.5 -59t21.5 -57z" glyph-name="radical" horiz-adv-x="1296" unicode="√"/><glyph d="M463 238q-156 0 -252 101t-96 245t97 247t251 103q115 0 198.5 -66.5t161.5 -181.5q76 115 159 181.5t213 66.5t232.5 -97.5t102.5 -245.5t-96.5 -250.5t-253.5 -102.5q-117 0 -200 64.5t-161 178.5q-76 -113 -158.5 -178t-197.5 -65zM1172 799q-89 0 -151.5 -55.5 t-121.5 -155.5q66 -104 127 -160.5t152 -56.5t151 62.5t60 153.5t-64 151.5t-153 60.5zM473 371q143 0 270 213q-66 104 -126 159.5t-152 55.5t-150.5 -63.5t-58.5 -151.5t58.5 -150.5t158.5 -62.5z" glyph-name="infinity" horiz-adv-x="1642" unicode="∞"/><glyph d="M242 27v1058q0 244 221 244q83 0 137 -33l18 -10l-45 -125q-39 20 -77 21q-86 0 -86 -113v-1059q0 -244 -222 -243q-86 0 -137 32l-18 11l45 124q39 -20 78 -20q86 0 86 113z" glyph-name="integral" horiz-adv-x="651" unicode="∫"/><glyph d="M664 348q-72 0 -164 46t-129 46t-54.5 -17t-29.5 -50l-6 -29l-146 12l12 68q37 158 201 158q70 0 162 -46.5t129 -46.5q61 0 84 70l8 27l143 -13l-12 -67q-32 -158 -198 -158zM664 741q-72 0 -164 46.5t-127 46.5q-63 0 -86 -70l-6 -27l-146 13l12 67q37 158 201 158 q70 0 162 -46t129 -46q59 0 84 67l8 29l143 -12l-12 -68q-32 -158 -198 -158z" glyph-name="approxequal" horiz-adv-x="1009" unicode="≈"/><glyph d="M117 735v137h411l90 236l119 -41l-75 -195h208v-137h-260l-116 -303h376v-139h-430l-86 -230l-118 41l71 189h-190v139h243l115 303h-358z" glyph-name="notequal" horiz-adv-x="987" unicode="≠"/><glyph d="M643 518l-98 -102l-402 368v35l402 379l98 -102l-313 -295zM721 293v-139h-602v139h602z" glyph-name="lessequal" horiz-adv-x="827" unicode="≤"/><glyph d="M285 416l-101 102l316 283l-316 295l99 102l401 -379v-35zM109 154v139h602v-139h-602z" glyph-name="greaterequal" horiz-adv-x="827" unicode="≥"/><glyph d="M539 1229l352 -615l-352 -614h-113l-352 614l352 615h113zM262 612l207 -379h27l204 379l-204 383h-27z" glyph-name="lozenge" horiz-adv-x="964" unicode="◊"/><glyph d="M104 -182q0 45 33 76.5t86 31.5t107.5 -53.5t-25.5 -194.5l-55 -98h-119l49 82l33 41v6q-49 2 -79 33t-30 76z" glyph-name="uniF6C3" horiz-adv-x="438" unicode=""/><glyph d="M612 578h-250v-578h-165v578h-164v131h164v301q0 178 79.5 266t227.5 88q86 0 160 -37l-43 -143q-49 25 -95 24q-164 0 -164 -198v-301h250v-131zM1323 578h-250v-578h-166v578h-164v131h164v301q0 178 80 266t227 88q86 0 160 -37l-43 -143q-49 25 -94 24 q-164 0 -164 -198v-301h250v-131z" glyph-name="uniFB00" horiz-adv-x="1359" unicode="ﬀ"/><glyph d="M920 979q-43 0 -73 29.5t-30 72.5t30 74t73 31t73.5 -31t30.5 -74t-30.5 -72.5t-73.5 -29.5zM836 0v709h168v-709h-168zM614 578h-249v-578h-166v578h-164v131h164v301q0 178 79.5 266t227.5 88q86 0 160 -37l-43 -143q-49 25 -95 24q-164 0 -163 -198v-301h249v-131z " glyph-name="uniFB01" horiz-adv-x="1120" unicode="ﬁ"/><glyph d="M817 0v1368h168v-1368h-168zM614 578h-249v-578h-166v578h-164v131h164v301q0 178 79.5 266t227.5 88q86 0 160 -37l-43 -143q-49 25 -95 24q-164 0 -163 -198v-301h249v-131z" glyph-name="uniFB02" horiz-adv-x="1105" unicode="ﬂ"/><glyph d="M1610 979q-43 0 -73 29.5t-30 72.5t30 74t73 31t73.5 -31t30.5 -74t-30.5 -72.5t-73.5 -29.5zM1526 0v709h168v-709h-168zM614 578h-249v-578h-166v578h-164v131h164v301q0 178 79.5 266t227.5 88q86 0 160 -37l-43 -143q-49 25 -95 24q-164 0 -163 -198v-301h249v-131z M1323 578h-250v-578h-166v578h-164v131h164v301q0 178 80 266t227 88q86 0 160 -37l-43 -143q-49 25 -94 24q-164 0 -164 -198v-301h250v-131z" glyph-name="uniFB03" horiz-adv-x="1812" unicode="ﬃ"/><glyph d="M1509 0v1368h168v-1368h-168zM614 578h-249v-578h-166v578h-164v131h164v301q0 178 79.5 266t227.5 88q86 0 160 -37l-43 -143q-49 25 -95 24q-164 0 -163 -198v-301h249v-131zM1323 578h-250v-578h-166v578h-164v131h164v301q0 178 80 266t227 88q86 0 160 -37l-43 -143 q-49 25 -94 24q-164 0 -164 -198v-301h250v-131z" glyph-name="uniFB04" horiz-adv-x="1798" unicode="ﬄ"/><glyph d="M360 692h162q98 0 155.5 48t57.5 140t-70.5 155t-193.5 63q-74 0 -149.5 -36t-112.5 -71l-39 -35l-84 123q6 6 17.5 18.5t104 85t288.5 72.5q195 0 311.5 -99t116.5 -255q0 -186 -154 -274q197 -70 197 -281q0 -168 -123 -270.5t-338 -102.5q-119 0 -223.5 40t-151.5 81 l-45 39l86 129q47 -47 144.5 -89t205.5 -42t184 59.5t76 155.5t-65.5 146.5t-184.5 50.5h-172v149z" glyph-name="three.ss03" horiz-adv-x="1060"/><glyph d="M736 1241q294 0 469 -179.5t175 -447.5t-175 -448t-469 -180t-470 180t-176 447t176 447.5t470 180.5zM735 1145q-246 0 -393 -152.5t-147 -378.5t147 -378t393 -152t394.5 152.5t148.5 377.5t-148.5 378t-394.5 153zM793 920q117 0 184 -62.5t67 -167t-68.5 -165 t-189.5 -60.5h-163v-156h-119v611h289zM920 690q0 61 -39 94t-109 33h-149v-252h151q146 0 146 125z" glyph-name="glyph431" horiz-adv-x="1472"/><glyph d="M736 1241q294 0 469 -179.5t175 -447.5t-175 -448t-469 -180t-470 180t-176 447t176 447.5t470 180.5zM735 1145q-246 0 -393 -152.5t-147 -378.5t147 -378t393 -152t394.5 152.5t148.5 377.5t-148.5 378t-394.5 153zM485 309v611h289q117 0 184.5 -61.5t67.5 -162.5 q0 -139 -125 -194v-10l123 -164v-19h-125l-121 170h-174v-170h-119zM901 696q0 59 -39 90t-108 31h-150v-237h150q147 -1 147 116z" glyph-name="glyph432" horiz-adv-x="1472"/><glyph d="M1221 344q0 -170 -123 -257t-336 -87h-160l-37 -209h-116l36 209h-301v1229h514l35 196h119l-37 -200q176 -14 270.5 -97.5t94.5 -230.5q0 -186 -174 -256v-20q98 -33 156.5 -104t58.5 -173zM768 147q123 0 197.5 53.5t74.5 150.5t-70.5 149.5t-185.5 56.5h-86l-71 -410 h141zM354 1081v-401h250l70 401h-320zM999 874q0 90 -56 141.5t-152 61.5l-70 -397h14q264 -1 264 194zM354 557v-410h156l72 410h-228z" glyph-name="glyph433" horiz-adv-x="1306"/><glyph d="M221 0v758h-133v114h133v357h516q215 0 343 -92.5t147 -264.5h127v-114h-127q-18 -178 -151.5 -274.5t-348.5 -96.5h-338v-387h-168zM731 539q289 0 322 219h-664v-219h342zM389 1075v-203h662q-20 100 -104.5 151.5t-215.5 51.5h-342z" glyph-name="glyph434" horiz-adv-x="1417"/><glyph d="M1495 82v-475h-168v1102h113l22 -101h13q8 12 24.5 31.5t86 52.5t157.5 33q154 0 255 -101.5t101 -267.5t-100.5 -269t-249.5 -103q-86 0 -147.5 24.5t-81.5 48.5l-19 25h-6zM1485 354.5q0 -104.5 63.5 -168t160.5 -63.5t158.5 64.5t61.5 165.5t-61.5 167t-158.5 66 t-160.5 -63.5t-63.5 -168zM684 1229q233 0 364.5 -107.5t131.5 -306.5q0 -143 -74 -240.5t-203 -142.5v-8l318 -391v-33h-187l-321 399h-375v-399h-168v1229h514zM1004 812q0 130 -86.5 196.5t-237.5 66.5h-342v-524h358q141 0 224.5 65.5t83.5 195.5z" glyph-name="glyph435" horiz-adv-x="2166"/><glyph d="M301 8l-86 70l961 1155l88 -70zM1360 453q0 57 -35 88.5t-91 31.5t-108.5 -21.5t-78.5 -47.5l-62 90l27 22q29 23 90 46.5t129 23.5q131 0 192.5 -59.5t61.5 -156.5t-96 -189l-187 -179h320v-102h-535v37l299 289q74 70 74 127zM98 1126v103h264v-565h136v-103h-400v103 h148v462h-148z" glyph-name="onehalf.aalt" horiz-adv-x="1589"/><glyph d="M1020 563v103h483v-31l-147 -232q178 -29 178 -198q0 -94 -71.5 -158.5t-205.5 -64.5q-70 0 -148.5 28.5t-115.5 65.5l64 88q82 -72 178 -72t137 33t41 82t-33.5 77.5t-95.5 30.5h-92v33l137 215h-309zM301 8l-86 70l961 1155l88 -70zM98 1126v103h264v-565h136v-103 h-400v103h148v462h-148z" glyph-name="onethird.aalt" horiz-adv-x="1611"/><glyph d="M780 172v74l383 422h88v-398h109v-98h-109v-172h-112v172h-359zM307 8l-88 70l961 1155l88 -70zM96 1126v103h266v-565h136v-103h-402v103h150v462h-150zM1139 270v232h-2l-148 -172q-14 -16 -36.5 -39t-24.5 -27l92 6h119z" glyph-name="onequarter.aalt" horiz-adv-x="1427"/><glyph d="M1391 668v-103h-340l-7 -172q57 10 132 10q127 0 193.5 -52t66.5 -148.5t-71 -157.5t-204 -61q-70 0 -152.5 29t-111.5 65l59 84q74 -68 197 -68q162 0 162 110t-174 109q-101 0 -170 -26l-33 20l14 361h439zM190 8l-86 70l961 1155l88 -70zM80 1229h264v-668h-119v565 h-145v103z" glyph-name="one_fraction_five.frac" horiz-adv-x="1515"/><glyph d="M1544 668v-103h-340l-8 -172q56 10 158 10t168.5 -52t66.5 -148.5t-70.5 -157.5t-205.5 -61q-70 0 -151 28.5t-111 65.5l59 84q72 -68 195 -68q164 0 163 109q0 111 -176 110q-96 0 -170 -26l-32 20l14 361h440zM367 8l-86 70l960 1155l86 -70zM96 1126v103h266v-565h134 v-103h-400v103h148v462h-148z" glyph-name="one_fraction_five.frac.ss04" horiz-adv-x="1667"/><glyph d="M1661 668v-103h-340l-6 -174q70 12 131 12q127 0 194.5 -52t67.5 -148.5t-71.5 -157.5t-204.5 -61q-70 0 -147 28t-118 66l62 84q72 -68 194 -68q164 0 164 110t-176 109q-101 0 -170 -26l-33 20l15 361h438zM477 8l-86 68l961 1155l88 -68zM92 567v35l303 291 q70 70 70 127q0 119 -139 119q-55 0 -88 -16.5t-36 -18.5l-48 -31l-62 90q36 36 107 63t137 27q131 0 192.5 -58.5t61.5 -158.5t-94 -188l-185 -178h316v-103h-535z" glyph-name="two_fraction_five.frac" horiz-adv-x="1785"/><glyph d="M1511 668v-103h-340l-6 -174q70 12 131 12q127 0 196 -52t69 -148.5t-73 -157.5t-206 -61q-70 0 -148.5 28.5t-115.5 65.5l63 84q72 -68 193 -68q166 0 166 110t-176 109q-101 0 -170 -26l-33 20l12 361h438zM106 1126v103h484v-31l-150 -233q178 -25 178 -199 q0 -94 -71.5 -157.5t-204.5 -63.5q-70 0 -148.5 28.5t-115.5 65.5l65 88q83 -72 179 -72q176 0 176 115q0 109 -142 109h-80v32l142 215h-312zM381 8l-84 70l960 1155l86 -70z" glyph-name="three_fraction_five.frac" horiz-adv-x="1640"/><glyph d="M63 733v74l383 422h89v-398h108v-98h-108v-172h-113v172h-359zM1612 668v-103h-340l-8 -174q70 12 133 12q127 0 194.5 -52t67.5 -148.5t-71.5 -157.5t-207.5 -61q-70 0 -147.5 28.5t-114.5 65.5l62 84q72 -68 194 -68q164 0 164 110t-178 109q-99 0 -168 -26l-33 20 l12 361h441zM444 8l-86 68l961 1155l86 -68zM422 831v232h-2l-148 -172q-14 -16 -36.5 -39t-24.5 -27l92 6h119z" glyph-name="four_fraction_five.frac" horiz-adv-x="1738"/><glyph d="M1149 473q129 0 206 -63.5t77 -177.5t-77 -181t-206 -67t-207 67.5t-78 185.5t99 242l143 191h135l-108 -142l-52 -53v-8q31 6 68 6zM246 8l-86 70l960 1155l88 -70zM80 1126v103h264v-668h-119v565h-145zM1148 373q-75 0 -119 -36t-44 -103.5t44 -107.5t119 -40t119 40 t44 106t-44 103.5t-119 37.5z" glyph-name="one_fraction_six.frac" horiz-adv-x="1497"/><glyph d="M1290 473q129 0 207 -63.5t78 -177.5t-78 -181t-207 -67t-205.5 67.5t-76.5 183.5t96 244l143 191h135l-108 -142q-20 -29 -45 -47l-6 -6v-8q30 6 67 6zM395 8l-88 70l961 1155l88 -70zM98 1126v103h267v-565h133v-103h-400v103h148v462h-148zM1290.5 373 q-73.5 0 -118 -36t-44.5 -103.5t44.5 -107.5t118 -40t118.5 40t45 106t-45 103.5t-118.5 37.5z" glyph-name="one_fraction_six.frac.ss04" horiz-adv-x="1638"/><glyph d="M1311 473q129 0 206.5 -63.5t77.5 -177.5t-77.5 -181t-206.5 -67t-206 67.5t-77 185.5t96 242l146 191h133l-109 -142l-49 -53v-8q31 6 66 6zM571 1229v-103h-340l-8 -174q70 12 133 13q127 0 194.5 -52.5t67.5 -148.5t-71.5 -157.5t-206.5 -61.5q-70 0 -147 28t-115 66 l61 84q72 -68 193 -68q166 0 166 110t-179 109q-98 0 -167 -26l-33 20l12 361h440zM436 8l-86 70l961 1155l88 -70zM1312 373q-75 0 -119 -36t-44 -103.5t44 -107.5t119 -40t119 40t44 106t-44 103.5t-119 37.5z" glyph-name="five_fraction_six.frac" horiz-adv-x="1660"/><glyph d="M1028 193q0 115 115 159q-92 50 -92 140t71.5 142t188 52t188.5 -52t72 -141t-94 -141q119 -45 118 -159q0 -86 -76.5 -147.5t-207.5 -61.5t-207 61.5t-76 147.5zM375 8l-84 70l960 1155l86 -70zM358 1229v-565h136v-103h-400v103h146v462h-146v103h264zM1310.5 307 q-75.5 0 -118.5 -29.5t-43 -77.5t44 -82t117.5 -34t118 34t44.5 82t-43.5 77.5t-119 29.5zM1312 383q67 0 104.5 29.5t37.5 72.5t-40 72t-103.5 29t-102.5 -29t-39 -72t38 -72.5t105 -29.5z" glyph-name="oneeighth.aalt" horiz-adv-x="1662"/><glyph d="M393 692h160q98 0 155.5 48t57.5 140t-69.5 155t-192.5 63q-74 0 -149.5 -36t-114.5 -71l-39 -35l-82 123q6 6 17 18.5t101.5 85t287.5 72.5q198 0 313.5 -99t115.5 -267t-153 -260q197 -70 196 -283q0 -168 -122.5 -270.5t-322.5 -102.5t-299 63.5t-118 80.5l-16 16 l84 129q14 -14 41.5 -35.5t113.5 -58.5t194 -37t184.5 59.5t76.5 155.5t-65.5 146.5t-184.5 50.5h-170v149z" glyph-name="three.tnum.ss03"/><glyph d="M172 92q0 47 32 79t77 32t76.5 -32t31.5 -79t-30.5 -77.5t-78 -30.5t-78 30.5t-30.5 77.5z" glyph-name="period.aalt" horiz-adv-x="563"/><glyph d="M182 95q0 44 31 75t77 31t77.5 -31.5t31.5 -89.5t-39 -129l-81 -146h-115l74 132l32 40v9q-39 6 -63.5 35.5t-24.5 73.5z" glyph-name="comma.aalt" horiz-adv-x="563"/><glyph d="M172 97q0 46 30.5 78t78 32t79 -32t31.5 -77t-31.5 -77.5t-77.5 -32.5t-78 31.5t-32 77.5zM172 1033q0 46 32 79t77 33t77.5 -33t32.5 -79t-31.5 -77.5t-79 -31.5t-78 31.5t-30.5 77.5z" glyph-name="colon.tnum" horiz-adv-x="563"/><glyph d="M178 99q0 44 32 76t78 32t78.5 -32.5t32.5 -90.5t-41 -129l-82 -145h-114l74 131q12 25 32 41v8q-39 6 -64.5 35.5t-25.5 73.5zM182 1033q0 46 31 79t77 33t78.5 -34t32.5 -79t-32.5 -76.5t-78.5 -31.5t-77 31.5t-31 77.5z" glyph-name="semicolon.tnum" horiz-adv-x="563"/><glyph d="M143 92q0 47 32 79t77 32t76.5 -32t31.5 -79t-30.5 -77.5t-77.5 -30.5t-78 30.5t-31 77.5zM762 92q0 47 31.5 79t76.5 32t77 -32t32 -79t-30.5 -77.5t-78 -30.5t-78 30.5t-30.5 77.5z" glyph-name="glyph453"/><glyph d="M168 680q0 47 32 81t80 34t80.5 -34t32.5 -81t-32.5 -80t-80.5 -33t-80 33t-32 80z" glyph-name="periodcentered.aalt" horiz-adv-x="563"/><glyph d="M872 1440l-452 -1800h-168l453 1800h167z" glyph-name="slash.tnum"/><glyph d="M639 1378v-1689h-154v1689h154z" glyph-name="bar.tnum"/><glyph d="M147 -180v139h826v-139h-826z" glyph-name="underscore.aalt"/><glyph d="M559 129q266 0 266 195q0 88 -66.5 136t-248.5 101t-287.5 129t-105.5 221t104.5 237.5t292.5 104.5v168h119v-168q113 -8 205 -36.5t127 -53.5l34 -26l-90 -140q-14 12 -40.5 29.5t-114.5 46.5t-196 29t-178.5 -48t-70.5 -134q0 -57 43 -98.5t95.5 -61t158.5 -49.5 q207 -59 311.5 -141.5t104.5 -232t-97.5 -247.5t-291.5 -113v-170h-119v168q-119 6 -219 43t-141 70l-41 33l94 129q16 -14 45 -33.5t121 -53.5t186 -34z" glyph-name="dollar.tnum"/><glyph d="M975 156v-150h-807v150q4 2 26.5 12t60.5 59.5t38 120.5q0 70 -33 154h-133v127h86q-35 98 -35 194q0 168 124 295t351 127q179 0 255.5 -55t92.5 -78l-94 -123q-28 35 -100 64.5t-145 29.5q-145 0 -221 -81.5t-76 -177.5t34 -195h463v-127h-413q25 -70 24 -127 q0 -129 -86 -219h588z" glyph-name="sterling.tnum"/><glyph d="M782 530v-118h-403q35 -123 115.5 -195t201.5 -72q72 0 134.5 28t87.5 56l26 27l98 -127q-13 -19 -48.5 -47.5t-98.5 -63t-197 -34.5q-207 0 -331.5 116.5t-167.5 311.5h-119v118h102q-4 53 -4 94t2 68h-100v119h117q41 197 166.5 316.5t315.5 119.5q239 0 365 -147 l-100 -127q-10 12 -28.5 30.5t-83 49t-136.5 30.5q-123 0 -203.5 -72.5t-115.5 -199.5h405v-119h-426q-2 -27 -2 -81t4 -81h424z" glyph-name="Euro.tnum"/><glyph d="M954 604v-119h-301v-151h301v-119h-301v-215h-170v215h-313v119h313v151h-313v119h254l-318 625h201l232 -486l30 -100l33 100l217 486h201l-309 -625h243z" glyph-name="yen.tnum"/><glyph d="M555 74v180q-145 23 -233.5 122t-88.5 242.5t88.5 244t233.5 122.5v186h145v-186q98 -12 160 -49l23 -12l-60 -131q-82 59 -182 59t-169 -64.5t-69 -169t69 -167t159 -62.5t168 41l24 14l60 -129q-72 -45 -183 -61v-180h-145z" glyph-name="cent.tnum"/><glyph d="M936 1194l-74 -326h180l-22 -104h-180l-76 -336h182l-24 -106h-183l-71 -322h-113l72 322h-250l-72 -322h-112l71 322h-180l20 106h185l76 336h-185l23 104h184l74 326h112l-73 -326h250l73 326h113zM477 764l-76 -336h250l76 336h-250z" glyph-name="numbersign.tnum"/><glyph d="M717 -334v555h-119q-225 0 -355 106.5t-130 303.5t126 299t351 102h297v-1366h-170z" glyph-name="paragraph.tnum"/><glyph d="M572 -92q120 0 184.5 48t64.5 124t-51.5 120t-229.5 106t-261.5 127t-83.5 179t77 174q-154 94 -154 246t114 239t335 87q133 0 240.5 -32t148.5 -64l41 -31l-94 -139q-14 12 -39.5 30.5t-112.5 50t-199 31.5t-173.5 -46t-61.5 -122q0 -133 240 -211q190 -66 287.5 -134 t97.5 -184t-68 -188q78 -49 112 -105t34 -138q0 -139 -110.5 -231.5t-348.5 -92.5q-137 0 -251.5 37t-162.5 74l-45 37l88 131q16 -14 45 -35t123 -54.5t214 -33.5zM772 492q0 62 -66.5 106.5t-207.5 93.5q-57 16 -84 27q-52 -23 -52 -86t56 -104.5t168 -82.5t141 -53 q45 37 45 99z" glyph-name="section.tnum"/><glyph d="M280.5 1376q106.5 0 173 -63.5t66.5 -157.5t-66.5 -156.5t-173 -62.5t-173 62.5t-66.5 156.5t66.5 157.5t173 63.5zM282 1286q-62 0 -101.5 -38t-39.5 -92t39.5 -91t101.5 -37t100 37t38 91t-38 92t-100 38z" glyph-name="degree.tnum" horiz-adv-x="563"/><glyph d="M342 1255q127 0 199.5 -77.5t72.5 -190.5t-72.5 -193.5t-199.5 -80.5t-199.5 80.5t-72.5 193.5t72.5 190.5t199.5 77.5zM342.5 1135q-63.5 0 -97.5 -43t-34 -107t34 -107.5t97.5 -43.5t97 44t33.5 108t-33.5 106.5t-97 42.5zM141 12l-100 88l932 1121l102 -91zM779 528 q126 0 199 -77.5t73 -192.5t-73 -194.5t-199 -79.5t-198.5 79.5t-72.5 193.5t72.5 192.5t198.5 78.5zM779 406q-62 0 -96 -42t-34 -105.5t34 -109t96 -45.5t96 44.5t34 108.5t-34 106.5t-96 42.5z" glyph-name="percent.tnum"/><glyph d="M344 948v31l37 397h154v-30l-84 -398h-107zM616 948v31l39 397h150v-30l-82 -398h-107z" glyph-name="quotedbl.tnum"/><glyph d="M199 948v31l39 397h151v-30l-84 -398h-106z" glyph-name="quotesingle.tnum" horiz-adv-x="563"/><glyph d="M635 1032v-330h332v-137h-332v-319h-141v319h-334v137h334v330h141z" glyph-name="plus.tnum"/><glyph d="M156 541v139h805v-139h-805z" glyph-name="minus.tnum"/><glyph d="M449 291q0 47 33.5 81t80.5 34t81 -34t34 -81t-34 -80t-81 -33t-80.5 33t-33.5 80zM449 934q0 47 33.5 81t80.5 34t81 -34t34 -81t-34 -80t-81 -33t-80.5 33t-33.5 80zM160 539v139h807v-139h-807z" glyph-name="divide.tnum"/><glyph d="M186 725v139h754v-139h-754zM186 336v137h754v-137h-754z" glyph-name="equal.tnum"/><glyph d="M248 209l-98 96l315 316l-315 315l98 96l313 -315l316 315l98 -96l-316 -315l316 -316l-98 -96l-316 313z" glyph-name="multiply.tnum"/><glyph d="M743 90l-493 475v47l493 475l99 -102l-414 -397l414 -395z" glyph-name="less.tnum"/><glyph d="M877 565l-494 -475l-98 103l413 395l-413 397l98 102l494 -475v-47z" glyph-name="greater.tnum"/><glyph d="M637 354h-141v342h-363v138h363v352h141v-352h354v-138h-354v-342zM991 213v-139h-858v139h858z" glyph-name="plusminus.tnum"/><glyph glyph-name="space.aalt"/><glyph glyph-name="glyph479" horiz-adv-x="401"/><glyph d="M203 979q-43 0 -73 29.5t-30 72.5t30 74t73 31t73.5 -31t30.5 -74t-30.5 -72.5t-73.5 -29.5zM119 0v709h168v-709h-168z" glyph-name="i.aalt" horiz-adv-x="405"/><glyph d="M384 1247q151 0 239 -103.5t88 -248.5t-88 -247.5t-239 -102.5t-239 102.5t-88 247.5t88 248.5t239 103.5zM383 1137q-92 0 -142.5 -70t-50.5 -172t50.5 -170t142.5 -68t143.5 68t51.5 170t-51.5 172t-143.5 70z" glyph-name="zero.frac" horiz-adv-x="768"/><glyph d="M37 1126v103h264v-668h-117v565h-147z" glyph-name="one.frac" horiz-adv-x="407"/><glyph d="M53 561v37l301 289q70 66 70 131q0 117 -137 117q-72 0 -109 -25t-39 -26l-26 -19l-62 90q34 34 107 63t139 29q129 0 191.5 -59.5t62.5 -155.5t-94 -190l-187 -178h318v-103h-535z" glyph-name="two.frac" horiz-adv-x="638"/><glyph d="M74 1126v103h483v-31l-149 -233q178 -25 178 -199q0 -94 -72 -157.5t-205 -63.5q-70 0 -149 29t-115 65l66 88q82 -72 178 -72q176 0 176 115q0 102 -129 109h-92v32l141 215h-311z" glyph-name="three.frac" horiz-adv-x="641"/><glyph d="M37 733v74l383 422h88v-398h108v-98h-108v-172h-113v172h-358zM395 831v136q0 63 2 104h-4l-149 -176l-64 -66v-4l86 6h129z" glyph-name="four.frac" horiz-adv-x="657"/><glyph d="M545 1229v-103h-340l-6 -174q70 12 131 13q127 0 194.5 -52.5t67.5 -148.5t-71.5 -157.5t-205.5 -61.5q-70 0 -149 29t-115 65l62 84q74 -70 194 -70q164 0 164 112t-176 112q-76 0 -150 -21l-20 -8l-33 20l14 361h439z" glyph-name="five.frac" horiz-adv-x="641"/><glyph d="M340 1032q129 0 207 -63t78 -177t-78 -181.5t-207 -67.5t-207 67.5t-78 185.5t99 242l143 191h135l-108 -142q-16 -22 -52 -53v-8q31 6 68 6zM340 932q-74 0 -118 -36t-44 -103.5t44 -107.5t118 -40t119 40t45 107t-45 103.5t-119 36.5z" glyph-name="six.frac" horiz-adv-x="665"/><glyph d="M549 1229v-31l-262 -637h-131l239 565h-354v103h508z" glyph-name="seven.frac" horiz-adv-x="573"/><glyph d="M57 754q0 115 117 159q-94 51 -94 141t72.5 141.5t188.5 51.5t187.5 -52t71.5 -141t-92 -141q117 -45 117 -159q0 -86 -76 -147.5t-207 -61.5t-208 61.5t-77 147.5zM341 868q-77 0 -119 -29.5t-42 -78.5t43 -82t118 -33t118 33t43 82t-42 78.5t-119 29.5zM342 944 q68 0 105.5 30t37.5 73t-39.5 71.5t-103 28.5t-103.5 -28.5t-40 -71.5t37.5 -73t105.5 -30z" glyph-name="eight.frac" horiz-adv-x="681"/><glyph d="M332 758q-127 0 -206 64t-79 176t79 180.5t207 68.5t204.5 -67.5t76.5 -185.5t-96 -242l-145 -191h-135l110 141l49 56v4q-40 -4 -65 -4zM331 858q75 0 119 36t44 103.5t-44 107.5t-119 40t-119 -40t-44 -107t44 -103.5t119 -36.5z" glyph-name="nine.frac" horiz-adv-x="669"/><glyph d="M90 858v324h158v-31l-64 -293h-94z" glyph-name="glyph491" horiz-adv-x="346"/><glyph d="M100 1286v31l88 293h197v-31l-178 -293h-107z" glyph-name="glyph492" horiz-adv-x="505"/><glyph d="M111 1286v31l88 293h176v-31l-158 -293h-106zM444 1286v31l88 293h179v-31l-158 -293h-109z" glyph-name="glyph493" horiz-adv-x="849"/><glyph d="M109 1595h198l86 -292v-31h-106l-178 293v30z" glyph-name="glyph494" horiz-adv-x="520"/><glyph d="M51 1286v31l205 293h182l205 -293v-31h-106l-189 203l-190 -203h-107z" glyph-name="glyph495" horiz-adv-x="673"/><glyph d="M643 1610v-31l-205 -293h-182l-205 293v31h107l190 -203l189 203h106z" glyph-name="glyph496" horiz-adv-x="698"/><glyph d="M492 1628h131q0 -111 -75 -187.5t-191.5 -76.5t-191.5 77t-75 187h131q0 -61 38 -100t96 -39t97.5 40t39.5 99z" glyph-name="glyph497" horiz-adv-x="712"/><glyph d="M573 1274q-61 0 -145 46t-116.5 46t-49 -17.5t-26.5 -52.5l-9 -26l-118 12l10 53q33 160 174 160q61 0 143 -46t117 -46q63 0 78 67l6 27l119 -10l-8 -53q-32 -160 -175 -160z" glyph-name="glyph498" horiz-adv-x="880"/><glyph d="M160 1296v107h547v-107h-547z" glyph-name="glyph499" horiz-adv-x="849"/><glyph d="M129 1421q0 39 28.5 68t67.5 29t68 -29t29 -68t-29 -67.5t-68 -28.5t-67.5 28.5t-28.5 67.5zM502 1421q0 39 28.5 68t67.5 29t67.5 -29t28.5 -68t-28.5 -67.5t-67.5 -28.5t-67.5 28.5t-28.5 67.5z" glyph-name="glyph500" horiz-adv-x="825"/><glyph d="M162 1402q0 50 34 85t84 35t83.5 -35t33.5 -85t-33.5 -84t-83.5 -34t-84 34t-34 84z" glyph-name="glyph501" horiz-adv-x="561"/><glyph d="M271 1288q-85 0 -142 55.5t-57 137.5t57 137t142 55t141.5 -55t56.5 -137t-56.5 -137.5t-141.5 -55.5zM360 1481q0 41 -23.5 65.5t-64.5 24.5t-66.5 -24.5t-25.5 -64.5t25.5 -64.5t66.5 -24.5t64.5 23.5t23.5 64.5z" glyph-name="glyph502" horiz-adv-x="542"/><glyph d="M564 -29q-241 0 -374 177.5t-133 465.5t133.5 464.5t373.5 176.5t372.5 -176t132.5 -465t-132 -466t-373 -177zM564 135q163 0 247 128t84 350t-84 351.5t-247 129.5t-248 -129t-85 -351t85 -350.5t248 -128.5z" glyph-name="zero.tnum"/><glyph d="M162 1075v154h551v-1075h321v-154h-903v154h412v921h-381z" glyph-name="one.tnum"/><glyph d="M123 0v33l532 596q70 76 98.5 126t28.5 109q0 100 -75 164t-173 64t-194.5 -43.5t-140.5 -98.5l-93 135q18 18 51 47t143 76t228 47q209 0 321 -102t112 -264q0 -90 -30 -161t-104 -153l-381 -428h562v-147h-885z" glyph-name="two.tnum"/><glyph d="M563 592h-184v51l313 430h-538v156h819v-33l-350 -479q178 -4 279.5 -99.5t101.5 -262.5t-122 -275.5t-339 -108.5q-161 0 -276.5 61t-157.5 103l-9 6q25 37 86 133q16 -16 47 -39.5t123.5 -62.5t182.5 -39q137 0 212.5 64.5t75.5 167t-71.5 165t-192.5 62.5z" glyph-name="three.tnum"/><glyph d="M51 285v151l699 793h124v-789h177v-155h-177v-285h-169v285h-654zM250 440h455v516l-414 -473l-41 -34v-9z" glyph-name="four.tnum"/><glyph d="M938 1073h-569l-11 -346q111 20 199 21q219 0 337 -103.5t118 -281.5t-120 -284t-341 -106q-119 0 -229.5 42t-161.5 83l-51 43l86 133q16 -16 46.5 -39.5t123.5 -62.5t205 -39t189 64.5t77 174.5t-79 170t-233 60t-204 -18.5t-53 -19.5l-36 -13l-36 29l20 649h723v-156z " glyph-name="five.tnum"/><glyph d="M582 -29q-199 0 -329 115t-130 295t110 354l310 494h207l-279 -441l-43 -57v-14q78 45 172 45q201 0 319.5 -104.5t118.5 -282.5t-128.5 -291t-327.5 -113zM586 612q-119 0 -200 -65t-81 -175t77 -176.5t199 -66.5t199.5 67.5t77.5 173.5t-76.5 174t-195.5 68z" glyph-name="six.tnum"/><glyph d="M135 1073v156h895v-41l-561 -1188h-199l518 1073h-653z" glyph-name="seven.tnum"/><glyph d="M563 -27q-211 0 -339 104.5t-128 258.5q0 111 56.5 191.5t160.5 121.5q-168 82 -168 273q0 143 116 238t302.5 95t302 -95t115.5 -238q0 -190 -168 -273q104 -41 160.5 -123t56.5 -190q0 -154 -128 -258.5t-339 -104.5zM563 129q127 0 209 63.5t82 160.5t-83 159.5 t-209 62.5t-208 -63t-82 -159.5t82 -160t209 -63.5zM807 904q0 85 -67.5 139.5t-176 54.5t-176.5 -54.5t-68 -139.5t67 -140t177.5 -55t177 55t66.5 140z" glyph-name="eight.tnum"/><glyph d="M524 467q-201 0 -319.5 104.5t-118.5 282.5t129 290.5t329 112.5t330 -114.5t129 -294.5t-112 -354l-309 -494h-205l276 440l43 58v12q-82 -43 -172 -43zM541 616q119 0 199.5 64.5t80.5 175.5t-77.5 177.5t-199.5 66.5t-199 -68t-77 -174t77 -174t196 -68z" glyph-name="nine.tnum"/><glyph d="M59 1266v102h267v-565h135v-103h-402v103h150v463h-150z" glyph-name="uni00B9.ss04" horiz-adv-x="497"/><glyph d="M59 1126v103h267v-565h135v-103h-402v103h150v462h-150z" glyph-name="one.frac.ss04" horiz-adv-x="497"/><glyph d="M59 309v103h265v-566h135v-102h-400v102h148v463h-148z" glyph-name="uni2081.ss04" horiz-adv-x="495"/><glyph d="M384 686q151 0 239 -103.5t88 -248.5t-88 -247.5t-239 -102.5t-239 102t-88 248t88 249t239 103zM383 575q-92 0 -142.5 -69.5t-50.5 -171.5t50.5 -170t142.5 -68t143.5 68t51.5 170t-51.5 171.5t-143.5 69.5z" glyph-name="zero.dnom" horiz-adv-x="768"/><glyph d="M37 565v103h266v-668h-117v565h-149z" glyph-name="one.dnom" horiz-adv-x="407"/><glyph d="M59 565v103h267v-566h135v-102h-402v102h150v463h-150z" glyph-name="one.dnom.ss04" horiz-adv-x="497"/><glyph d="M53 0v37l301 289q70 66 70 131q0 117 -137 116q-74 0 -110 -24.5t-38 -25.5l-26 -19l-62 90q34 34 107 63t139 29q129 0 191.5 -59.5t62.5 -155.5t-94 -190l-187 -179h318v-102h-535z" glyph-name="two.dnom" horiz-adv-x="638"/><glyph d="M74 565v103h483v-31l-149 -234q178 -18 178 -198q0 -94 -72 -157.5t-205 -63.5q-70 0 -149 29t-115 65l66 88q82 -72 178 -72q176 0 176 115q0 49 -35 78.5t-102 29.5h-84v33l141 215h-311z" glyph-name="three.dnom" horiz-adv-x="638"/><glyph d="M37 172v74l383 422h88v-398h106v-98h-106v-172h-113v172h-358zM395 270v232h-2l-149 -172q-20 -24 -39 -43t-21 -23l90 6h121z" glyph-name="four.dnom" horiz-adv-x="657"/><glyph d="M545 668v-103h-340l-6 -174q70 12 131 12q127 0 194.5 -52t67.5 -148.5t-71.5 -157.5t-205.5 -61q-70 0 -149 29t-115 65l62 84q74 -70 194 -70q164 0 164 112t-176 111q-80 0 -150 -20l-20 -8l-33 20l14 361h439z" glyph-name="five.dnom" horiz-adv-x="641"/><glyph d="M340 473q129 0 207 -63.5t78 -177.5t-78 -181t-207 -67t-207 67.5t-78 185.5t99 242l143 191h135l-108 -142q-14 -22 -52 -55v-6q31 6 68 6zM340 373q-74 0 -118 -37t-44 -104t44 -106.5t118 -39.5t119 40t45 106t-45 103.5t-119 37.5z" glyph-name="six.dnom" horiz-adv-x="665"/><glyph d="M549 668v-31l-262 -637h-131l239 565h-354v103h508z" glyph-name="seven.dnom" horiz-adv-x="573"/><glyph d="M57 193q0 115 117 159q-94 50 -94 140t72.5 142t188.5 52t187.5 -52t71.5 -141t-92 -141q117 -45 117 -159q0 -86 -76 -147.5t-207 -61.5t-208 61.5t-77 147.5zM341 307q-77 0 -119 -29.5t-42 -78.5t43 -82t118 -33t118 33t43 82t-42 78.5t-119 29.5zM342 383 q68 0 105.5 29.5t37.5 72.5t-39.5 72t-103 29t-103.5 -29t-40 -72t37.5 -72.5t105.5 -29.5z" glyph-name="eight.dnom" horiz-adv-x="681"/><glyph d="M45 436q0 112 78 181t206 69t205.5 -67.5t77.5 -185.5t-98 -243l-143 -190h-135l108 141l51 56v6l-67 -6q-127 0 -205 63.5t-78 175.5zM327.5 297q73.5 0 119 36t45.5 103.5t-45 107.5t-119 40t-118 -40t-44 -107t44 -103.5t117.5 -36.5z" glyph-name="nine.dnom" horiz-adv-x="667"/><glyph d="M444.5 725q165.5 0 268 -104.5t102.5 -267.5t-102.5 -266t-268 -103t-268 103t-102.5 266t102.5 267.5t268 104.5zM445 592q-97 0 -158.5 -67t-61.5 -171t61.5 -169.5t158.5 -65.5t158 65.5t61 170t-61 171t-158 66.5z" glyph-name="zero.oldstyle" horiz-adv-x="888"/><glyph d="M49 573v136h357v-709h-170v573h-187z" glyph-name="one.oldstyle" horiz-adv-x="546"/><glyph d="M80 0v61l332 267q47 39 67.5 70.5t20.5 74.5q0 113 -154 113q-53 0 -109.5 -18.5t-84.5 -35.5l-29 -18l-51 117q42 35 134.5 64.5t186.5 29.5q145 0 219 -63.5t74 -163.5q0 -135 -129 -230l-197 -139l107 10h264v-139h-651z" glyph-name="two.oldstyle" horiz-adv-x="800"/><glyph d="M72 573v136h628v-54l-258 -405q152 -8 235 -89t83 -232t-105.5 -246t-292.5 -95q-98 0 -178 26t-110 52l-29 27l61 117q96 -84 224 -84t193 57t65 150t-62.5 148.5t-169.5 55.5h-120v53l235 383h-399z" glyph-name="three.oldstyle" horiz-adv-x="815"/><glyph d="M37 14v111l498 584h151v-559h193v-136h-193v-409h-168v409h-481zM518 150v337h-6l-213 -254q-33 -46 -70 -73l-12 -10v-11l121 11h180z" glyph-name="four.oldstyle" horiz-adv-x="931"/><glyph d="M678 709v-136h-410l-10 -307q61 8 111 8q188 0 287.5 -89t99.5 -245t-104.5 -254t-299.5 -98q-88 0 -162.5 25t-105.5 49l-31 25l64 116q86 -73 212 -73t190.5 57t64.5 151t-64 149.5t-188 55.5t-172 -24l-19 -8l-28 24l20 574h545z" glyph-name="five.oldstyle" horiz-adv-x="804"/><glyph d="M479 723q172 0 282.5 -104.5t110.5 -269.5t-109.5 -266t-284.5 -101t-283.5 101t-108.5 269q0 82 22.5 150.5t79.5 171.5l279 475h174l-197 -342l-61 -86v-8q47 10 96 10zM478 584q-99 0 -160.5 -65.5t-61.5 -166t61.5 -166t160.5 -65.5t163 65.5t64 166t-64 166 t-163 65.5z" glyph-name="six.oldstyle" horiz-adv-x="921"/><glyph d="M735 709v-41l-442 -1043h-178l420 948h-494v136h694z" glyph-name="seven.oldstyle" horiz-adv-x="743"/><glyph d="M133 879q0 135 94.5 223t246 88t245.5 -88t94 -223q0 -176 -151 -258q90 -39 141 -114t51 -173q0 -160 -106.5 -255t-274.5 -95t-275.5 95t-107.5 255q0 203 191 287q-148 82 -148 258zM472 545q-99 0 -156.5 -59.5t-57.5 -152.5t58.5 -150.5t156.5 -57.5t156.5 57.5 t58.5 150.5t-58.5 152.5t-157.5 59.5zM473 688q78 0 128 54t50 132t-50 127.5t-128 49.5t-128 -49.5t-50 -128.5t50 -132t128 -53z" glyph-name="eight.oldstyle" horiz-adv-x="944"/><glyph d="M453 -14q-172 0 -283 105t-111 269t110 265.5t285 101.5t283.5 -101.5t108.5 -269.5q0 -82 -22.5 -150.5t-80.5 -170.5l-270 -461h-174l188 328l62 86v8q-51 -10 -96 -10zM454 125q99 0 160.5 64.5t61.5 165.5t-61.5 167t-160.5 66t-162 -65.5t-63 -166t63 -166 t162 -65.5z" glyph-name="nine.oldstyle" horiz-adv-x="903"/><glyph d="M195 227h96q102 0 166.5 46.5t64.5 128.5t-54 132t-149 50q-51 0 -102 -19.5t-78 -40.5l-26 -20l-58 119q36 36 125.5 69t171.5 33q166 0 255 -79t89 -214q0 -168 -157 -256q98 -29 153.5 -97.5t55.5 -168.5q0 -139 -109 -230.5t-291 -91.5q-92 0 -171 26t-111 52l-31 27 l61 117q104 -84 226 -84t183.5 52t61.5 138t-66.5 135t-172.5 49h-133v127z" glyph-name="three.oldstyle.ss03" horiz-adv-x="817"/><glyph d="M1251 573h-182v-28q0 -215 -84 -340t-197.5 -177.5t-269.5 -52.5q-201 0 -321.5 107.5t-120.5 273.5t102.5 265.5t250.5 99.5t235.5 -81t87.5 -202v-20l-510 -146q31 -74 103.5 -117.5t182.5 -43.5t191.5 37.5t142 133.5t60.5 271v156h329v-136zM418 598 q-76 0 -134.5 -59.5t-60.5 -161.5l369 102q-12 49 -55 84t-119 35z" glyph-name="ampersand.aalt" horiz-adv-x="1300"/><glyph d="M43 291v139h313v346h142v-346h309v-139h-309l-17 -803h-110l-15 803h-313z" glyph-name="dagger.aalt" horiz-adv-x="851"/><glyph d="M86 369v139h313v266h142v-266h311v-139h-311v-258h311v-140h-311l-15 -483h-110l-17 483h-313v140h313v258h-313z" glyph-name="daggerdbl.aalt" horiz-adv-x="937"/><glyph d="M1206 0h-192l-88 115q-146 -141 -368 -141t-343 107t-121 267t94.5 262.5t257.5 126.5l-262 342v148h768v-146h-557l520 -682q20 78 25 193v139h162v-139q-4 -197 -76 -338l180 -238v-16zM555 119q180 0 276 117l-286 374h-4q-119 0 -193 -68.5t-74 -177t77 -177 t204 -68.5z" glyph-name="glyph541" horiz-adv-x="1245"/><glyph d="M322 1169h129v-59l-29 -199l182 88l55 19l37 -125l-55 -16l-195 -35l140 -144l35 -49l-105 -74l-35 48l-98 178l-96 -178l-33 -48l-104 74l32 49l142 144l-199 35l-55 18l39 123l55 -19l184 -88l-26 199v59z" glyph-name="asterisk.aalt" horiz-adv-x="768"/><glyph d="M488 762q189 0 304 -118t115 -291t-114.5 -290.5t-304.5 -117.5t-304 117.5t-114 290.5t114.5 291t303.5 118zM487 713q-168 0 -268 -104.5t-100 -256t100 -255t268 -103.5t269.5 104t101.5 256t-101.5 255.5t-269.5 103.5zM498 199q62 0 118 32l50 -63q-53 -59 -166 -59 t-181.5 70.5t-68.5 173t68.5 172t181.5 69.5q51 0 92 -14.5t57 -26.5l17 -14l-50 -68q-36 35 -108 35t-116 -44t-44 -112t44 -109.5t106 -41.5z" glyph-name="copyright.aalt" horiz-adv-x="976"/><glyph d="M488 762q189 0 304 -118t115 -291t-114.5 -290.5t-304.5 -117.5t-304 117.5t-114 290.5t114.5 291t303.5 118zM487 713q-168 0 -268 -104.5t-100 -256t100 -255t268 -103.5t269.5 104t101.5 256t-101.5 255.5t-269.5 103.5zM311 115v473h205q94 0 151.5 -50t57.5 -132 t-56.5 -129.5t-154.5 -47.5h-106v-114h-97zM623 408q0 96 -121 96h-94v-193h94q121 1 121 97z" glyph-name="glyph544" horiz-adv-x="976"/><glyph d="M488 762q189 0 304 -118t115 -291t-114.5 -290.5t-304.5 -117.5t-304 117.5t-114 290.5t114.5 291t303.5 118zM487 713q-168 0 -268 -104.5t-100 -256t100 -255t268 -103.5t269.5 104t101.5 256t-101.5 255.5t-269.5 103.5zM295 588h215q86 0 137 -48t51 -130 q0 -111 -94 -150v-4l92 -121v-20h-98l-96 127h-109v-127h-98v473zM492 504h-99v-180h99q106 0 106 86q0 94 -106 94z" glyph-name="registered.oldstyle" horiz-adv-x="976"/><glyph d="M90 404q0 169 101.5 263.5t258.5 94.5t261 -100.5t104 -263.5t-104.5 -263t-258.5 -100t-258 100t-104 269zM139 402q0 -146 89.5 -232t223.5 -86t224 87t90 227t-90 227.5t-225.5 87.5t-223.5 -82.5t-88 -228.5zM287 580h172q74 0 119 -36t45 -106t-70 -108l65 -97v-20 h-77l-66 96h-108v-96h-80v367zM457 510h-90v-131h88q88 0 88 65q0 29 -23.5 47.5t-62.5 18.5z" glyph-name="registered.ss05" horiz-adv-x="905"/><glyph d="M1298 905v-551h-114v344l-172 -172h-29l-168 170v-342h-115v551h56l241 -246l246 246h55zM604 905v-100h-205v-451h-114v451h-203v100h522z" glyph-name="trademark.aalt" horiz-adv-x="1445"/><glyph d="M1288 905v-551h-114v342l-170 -170h-29l-168 170v-342h-115v551h53l244 -246l246 246h53zM348 432q110 0 109 60q0 29 -32 48t-121 47t-137 66.5t-48 107.5t59.5 111.5t143.5 42.5q154 0 217 -41l22 -14l-51 -84q-59 45 -167 45t-107 -61q0 -29 31.5 -47.5t119.5 -44.5 t138 -63t50 -105t-56.5 -113t-148.5 -45q-155 0 -235 51l-24 19l55 75q72 -55 182 -55z" glyph-name="uni2120.aalt" horiz-adv-x="1421"/><glyph d="M72 514q0 78 62 123t178 45t165 -53v33q0 156 -174 155q-85 0 -151 -33l-11 -4l-37 92q96 45 209 46q281 0 281 -263v-301h-86l-14 72h-7q-45 -86 -204 -86q-92 0 -151.5 48t-59.5 126zM186 518q0 -41 34 -65.5t100 -24.5t110.5 25.5t44.5 62.5t-42.5 64.5t-108.5 27.5 t-102 -24.5t-36 -65.5z" glyph-name="ordfeminine.aalt" horiz-adv-x="698"/><glyph d="M74 630q0 130 77.5 209t206.5 79t207 -79t78 -208t-78 -209t-206 -80t-206.5 79t-78.5 209zM528 630q0 83 -45 134t-124 51t-124 -51t-45 -134t46.5 -134.5t124 -51.5t122.5 51.5t45 134.5z" glyph-name="ordmasculine.aalt" horiz-adv-x="724"/><glyph d="M195 768v31l247 336h99l247 -336v-31h-118l-178 242l-175 -242h-122z" glyph-name="asciicircum.aalt" horiz-adv-x="983"/><glyph d="M315 866q-72 0 -139 -43l-51 105q63 70 201 69q55 0 149.5 -25.5t169.5 -25.5t135 43l54 -104q-63 -70 -203 -70q-53 0 -148.5 25.5t-167.5 25.5z" glyph-name="asciitilde.aalt" horiz-adv-x="958"/><glyph d="M813 709l-37 -168h195l-23 -105h-194l-37 -168h190l-24 -106h-191l-35 -162h-114l35 162h-213l-35 -162h-115l35 162h-187l25 106h186l37 168h-182l23 105h184l37 168h114l-36 -168h213l36 168h113zM426 436l-37 -168h213l37 168h-213z" glyph-name="numbersign.oldstyle" horiz-adv-x="1034"/><glyph d="M211 0v20l561 680h111v-20l-566 -680h-106zM1061 188q0 -86 -55.5 -145t-155.5 -59t-156.5 60t-56.5 145t56.5 145.5t155.5 60.5t155.5 -60.5t56.5 -146.5zM727 188.5q0 -53.5 33 -90.5t90 -37t88 37t31 90.5t-31 91t-88 37.5t-90 -37.5t-33 -91zM481 518 q0 -86 -55 -145.5t-155.5 -59.5t-157 60.5t-56.5 145.5t56.5 145.5t155.5 60.5t155.5 -60.5t56.5 -146.5zM150 518q0 -53 31.5 -90t89 -37t89 37t31.5 90t-31.5 91t-89 38t-89 -38t-31.5 -91z" glyph-name="percent.oldstyle" horiz-adv-x="1116"/><glyph d="M211 0v20l561 680h111v-20l-566 -680h-106zM1061 188q0 -86 -55.5 -145t-155.5 -59t-156.5 60t-56.5 145t56.5 145.5t155.5 60.5t155.5 -60.5t56.5 -146.5zM727 188.5q0 -53.5 33 -90.5t90 -37t88 37t31 90.5t-31 91t-88 37.5t-90 -37.5t-33 -91zM481 518 q0 -86 -55 -145.5t-155.5 -59.5t-157 60.5t-56.5 145.5t56.5 145.5t155.5 60.5t155.5 -60.5t56.5 -146.5zM150 518q0 -53 31.5 -90t89 -37t89 37t31.5 90t-31.5 91t-89 38t-89 -38t-31.5 -91zM1546 189q0 -85 -56 -145t-156.5 -60t-157 60t-56.5 145t56.5 145.5t157 60.5 t156.5 -60.5t56 -145.5zM1212 188.5q0 -53.5 32 -90.5t89.5 -37t89 37t31.5 90.5t-31.5 91t-89 37.5t-89.5 -37.5t-32 -91z" glyph-name="perthousand.aalt" horiz-adv-x="1603"/><glyph d="M467 668v-250h240v-139h-240v-238h-141v238h-252v139h252v250h141z" glyph-name="plus.oldstyle" horiz-adv-x="780"/><glyph d="M80 279v139h637v-139h-637z" glyph-name="minus.oldstyle" horiz-adv-x="794"/><glyph d="M434 709v-164h199v-119h-199v-180h-121v180h-207v119h207v164h121zM106 41v119h527v-119h-527z" glyph-name="plusminus.oldstyle" horiz-adv-x="741"/><glyph d="M182 627l185 -185l192 191l96 -98l-190 -191l180 -178l-96 -98l-180 180l-174 -174l-99 98l174 172l-184 184z" glyph-name="multiply.oldstyle" horiz-adv-x="739"/><glyph d="M311 97q0 40 27 66.5t65.5 26.5t65.5 -26.5t27 -65.5t-27 -65.5t-65.5 -26.5t-65.5 25.5t-27 65.5zM311 596q0 39 27 66.5t65.5 27.5t65.5 -27.5t27 -66.5t-27 -65.5t-65.5 -26.5t-65.5 26.5t-27 65.5zM86 295v98h635v-98h-635z" glyph-name="divide.oldstyle" horiz-adv-x="808"/><glyph d="M104 467v129h734v-129h-734zM104 109v129h734v-129h-734z" glyph-name="equal.oldstyle" horiz-adv-x="942"/><glyph d="M403 0l-342 332v47l342 332l101 -103l-266 -254l266 -252z" glyph-name="less.oldstyle" horiz-adv-x="579"/><glyph d="M518 332l-342 -332l-100 102l264 252l-264 254l100 103l342 -332v-47z" glyph-name="greater.oldstyle" horiz-adv-x="579"/><glyph d="M113 545v30l39 398h151v-31l-84 -397h-106zM387 545v30l37 398h149v-31l-81 -397h-105z" glyph-name="quotedbl.oldstyle" horiz-adv-x="671"/><glyph d="M113 545v30l39 398h151v-31l-84 -397h-106z" glyph-name="quotesingle.oldstyle" horiz-adv-x="399"/><glyph d="M323.5 985q106.5 0 173 -63.5t66.5 -157.5t-66.5 -156.5t-173 -62.5t-173 62.5t-66.5 156.5t66.5 157.5t173 63.5zM323 895q-62 0 -99.5 -37t-37.5 -92t37 -92t99 -37t101.5 37t39.5 91t-39 92t-101 38z" glyph-name="degree.oldstyle" horiz-adv-x="647"/><glyph d="M672 -512v410h-119q-225 0 -355 106t-130 302t125.5 299.5t351.5 103.5h297v-1221h-170z" glyph-name="paragraph.oldstyle" horiz-adv-x="972"/><glyph d="M348 727q200 0 295 -39l27 -14l-49 -123q-74 43 -225 43t-150 -82q0 -31 27.5 -55.5t56 -36.5t131.5 -48t151 -79t50 -124q0 -81 -82 -136q109 -57 108.5 -151.5t-73 -151t-224.5 -56.5q-90 0 -169 15.5t-111 29.5l-35 15l47 121q95 -47 243 -47t148 77q0 30 -20.5 45 t-34 22t-37 15t-39.5 13.5t-95.5 27t-139.5 66.5t-60 130t94 144q-109 63 -108.5 163.5t78.5 158t196 57.5zM508 149q0 42 -33 66.5t-123 60.5l-57 21q-51 -16 -51 -76q0 -66 90 -97q38 -13 131 -44q43 27 43 69z" glyph-name="section.oldstyle" horiz-adv-x="761"/><glyph d="M537 201q0 74 -160 100.5t-232.5 76.5t-72.5 136t61.5 141.5t183.5 67.5v197h132v-197q125 -7 215 -43l24 -12l-49 -127q-90 51 -242 51t-151 -78q0 -60 116.5 -84t185 -44.5t117 -68t48.5 -125.5t-66.5 -136t-197.5 -68v-189h-132v187q-154 13 -223 51l-24 12l45 125 q129 -57 275 -57t147 84z" glyph-name="dollar.oldstyle" horiz-adv-x="765"/><glyph d="M748 6h-670v123q33 0 72.5 34t39.5 97q0 18 -2 27h-96v102h68q-10 37 -10 82q0 109 77.5 181.5t227.5 72.5q88 0 162.5 -25.5t105.5 -52.5l31 -24l-64 -105q-90 78 -207 78q-76 0 -117.5 -40t-41.5 -97q0 -25 8 -70h252v-102h-230q2 -6 2 -19q0 -80 -49 -135l441 12v-139 z" glyph-name="sterling.oldstyle" horiz-adv-x="833"/><glyph d="M508 -16q-140 0 -233 62.5t-130 170.5h-94v94h76q-2 18 -2 41l2 43h-76v94h94q37 109 129.5 172.5t221.5 63.5q68 0 129 -15.5t88 -29.5l28 -16l-49 -107q-72 47 -174 47q-135 0 -196 -115h262v-94h-289q-2 -16 -2 -43l2 -41h289v-94h-262q55 -115 196 -115q89 0 154 37 l20 11l47 -105q-91 -61 -231 -61z" glyph-name="Euro.oldstyle" horiz-adv-x="813"/><glyph d="M782 399v-94h-247v-82h247v-94h-247v-129h-168v129h-240v94h240v82h-240v94h174l-238 310h189l158 -213l34 -74h13l32 74l160 213h189l-238 -310h182z" glyph-name="yen.oldstyle" horiz-adv-x="907"/><glyph d="M424 471v-47h186v-105h-186v-135q0 -121 -57.5 -188.5t-176.5 -67.5q-80 0 -141 29l-18 10l45 105q47 -16 84 -17q96 0 96 125v139h-100v105h100v43q0 254 231 254q85 0 140 -29l20 -8l-45 -104q-47 14 -84 14q-94 0 -94 -123z" glyph-name="florin.aalt" horiz-adv-x="700"/><glyph d="M375 -182v176q-135 29 -216 125t-81 233t81 235.5t216 127.5v184h133v-176q57 -4 106.5 -18.5t69.5 -28.5l21 -12l-50 -125q-66 47 -169 47t-171.5 -64.5t-68.5 -169t68.5 -167t167.5 -62.5t153 37l20 10l45 -125q-66 -51 -192 -59v-168h-133z" glyph-name="cent.oldstyle" horiz-adv-x="782"/><glyph d="M377 356q0 168 99 268.5t249 100.5q193 0 266 -135l27 119h102v-549q0 -70 32 -105t85 -35q100 0 166.5 105.5t66.5 282.5q0 260 -185 447t-486 187t-489.5 -192t-188.5 -486t189.5 -485.5t502.5 -191.5q82 0 159 17t111 36l35 18l25 -43q-135 -78 -330 -77 q-334 0 -537.5 202t-203.5 520t203.5 525t525.5 207t519.5 -201t197.5 -483q0 -201 -78 -318t-215 -117q-102 0 -155.5 55.5t-53.5 112.5h-12q-13 -36 -75 -96.5t-206 -60.5q-145 0 -245.5 102t-100.5 270zM530 355q0 -103 63 -169.5t161 -66.5t162.5 64.5t64.5 172.5 t-63.5 171t-161.5 63t-162 -66t-64 -169z" glyph-name="at.oldstyle" horiz-adv-x="1587"/><glyph d="M88 285v139h588v-139h-588z" glyph-name="hyphen.aalt" horiz-adv-x="763"/><glyph d="M86 281v139h729v-139h-729z" glyph-name="endash.aalt" horiz-adv-x="901"/><glyph d="M88 281v137h1268v-137h-1268z" glyph-name="emdash.aalt" horiz-adv-x="1443"/><glyph d="M176 -186l-141 77l516 986l143 -76z" glyph-name="slash.oldstyle" horiz-adv-x="737"/><glyph d="M135 97q0 46 31 78t78 32t78.5 -32t31.5 -77t-31.5 -77.5t-77.5 -32.5t-78 31.5t-32 77.5zM135 1033q0 46 32 79t77 33t77.5 -33t32.5 -79t-31.5 -77.5t-78.5 -31.5t-78 31.5t-31 77.5z" glyph-name="colon.case" horiz-adv-x="489"/><glyph d="M156 99q0 44 31.5 76t77.5 32t79 -32.5t33 -90.5t-41 -129l-82 -145h-115l74 131q12 25 29 36l4 5v8q-39 6 -64.5 35.5t-25.5 73.5zM160 1033q0 46 30.5 79t75.5 33t79 -34t34 -79t-33 -76.5t-79 -31.5t-76.5 31.5t-30.5 77.5z" glyph-name="semicolon.case" horiz-adv-x="518"/><glyph d="M680 1526l-453 -1800h-168l453 1800h168z" glyph-name="slash.case" horiz-adv-x="739"/><glyph d="M332 1464v-1689h-154v1689h154z" glyph-name="bar.case" horiz-adv-x="507"/><glyph d="M252 614q0 -131 33.5 -248.5t79 -194.5t124 -160t173.5 -142l-84 -119q-117 64 -211.5 162t-150.5 189.5t-97 227.5t-41 285.5t41 285.5t97 227.5t152.5 190t209.5 159.5l84 -119q-99 -62 -175.5 -143.5t-122 -158.5t-79 -194t-33.5 -248z" glyph-name="parenleft.aalt" horiz-adv-x="708"/><glyph d="M631 614.5q0 -149.5 -41 -285.5t-97.5 -227.5t-150.5 -189t-211 -162.5l-86 119q43 27 85 58.5t105.5 99t108.5 144.5t79 194.5t34 248.5t-34 248t-79 194t-108.5 144.5t-105.5 99t-85 58.5l86 119q110 -61 207.5 -159.5t154 -190t97.5 -227.5t41 -285.5z" glyph-name="parenright.aalt" horiz-adv-x="708"/><glyph d="M934 -414q-268 0 -467 122t-294 315.5t-95 401.5t57.5 365.5t165 278.5t272 190.5t367.5 69.5t366.5 -67.5t317.5 -235.5t154 -453q0 -236 -96.5 -375t-270.5 -139q-117 0 -173 50.5t-67 87.5l-6 14h-12q-12 -27 -33.5 -52.5t-88 -57t-157.5 -31.5q-156 0 -257 102 t-101 270t101.5 268.5t256.5 100.5q190 0 267 -129l26 113h113v-447q0 -150 139 -149q102 0 160.5 96t58.5 258q0 272 -187 457.5t-511 185.5t-523.5 -208t-199.5 -530t196.5 -530.5t520.5 -208.5q109 0 201 19.5t131 40.5l39 18l55 -119q-47 -34 -171 -63t-255 -29z M1128 444q0 108 -62 169t-160 61t-162 -64t-64 -168t63.5 -169.5t160.5 -65.5t160.5 64.5t63.5 172.5z" glyph-name="at.case" horiz-adv-x="1871"/><glyph d="M178 -238v1704h465v-139h-305v-1425h305v-140h-465z" glyph-name="bracketleft.aalt" horiz-adv-x="712"/><glyph d="M512 -274l-453 1800h168l453 -1800h-168z" glyph-name="backslash.aalt" horiz-adv-x="739"/><glyph d="M70 -238v140h305v1425h-305v139h465v-1704h-465z" glyph-name="bracketright.aalt" horiz-adv-x="712"/><glyph d="M61 680h33q55 0 88 40t33 118v440q0 231 258 250l25 -142q-59 -8 -83 -32.5t-24 -89.5v-445q0 -164 -115 -201v-16q115 -35 115 -194v-449q0 -63 23.5 -88t83.5 -33l-25 -141q-258 14 -258 248v442q0 76 -32.5 117t-88.5 41h-33v135z" glyph-name="braceleft.aalt" horiz-adv-x="595"/><glyph d="M537 545h-33q-55 0 -88 -41t-33 -117v-442q0 -233 -260 -248l-23 141q59 8 82 33t23 88v449q0 160 119 194v16q-119 37 -119 201v445q0 66 -22.5 90t-82.5 32l23 142q260 -18 260 -250v-440q0 -78 33 -118t88 -40h33v-135z" glyph-name="braceright.aalt" horiz-adv-x="595"/><glyph d="M473 948v-16l-213 -314v-10l213 -317v-17h-143l-217 318v39l217 317h143z" glyph-name="guilsinglleft.aalt" horiz-adv-x="616"/><glyph d="M145 274v17l211 317v10l-211 314v16h144l217 -317v-39l-217 -318h-144z" glyph-name="guilsinglright.aalt" horiz-adv-x="616"/><glyph d="M473 948v-16l-213 -314v-10l213 -317v-17h-143l-217 318v39l217 317h143zM834 948v-16l-213 -314v-10l213 -317v-17h-142l-217 318v39l217 317h142z" glyph-name="guillemotleft.aalt" horiz-adv-x="976"/><glyph d="M145 274v17l211 317v10l-211 314v16h144l217 -317v-39l-217 -318h-144zM506 274v17l211 317v10l-211 314v16h141l217 -317v-39l-217 -318h-141z" glyph-name="guillemotright.aalt" horiz-adv-x="976"/><glyph d="M154 614.5q0 65.5 46 112.5t111 47t112.5 -47t47.5 -112.5t-46 -111.5t-113 -46t-112.5 46t-45.5 111.5z" glyph-name="bullet.aalt" horiz-adv-x="628"/><glyph d="M562 -170q118 0 186.5 55t68.5 137t-64.5 133.5t-233.5 112.5t-251 124.5t-82 177.5t80 173q-156 96 -155.5 252t115 251t335.5 95q133 0 240.5 -31.5t148.5 -64.5l41 -31l-94 -139q-14 12 -40 30.5t-113.5 50.5t-199.5 32t-176.5 -51t-64.5 -129t61.5 -132.5 t217.5 -106.5t254 -121.5t98 -184.5t-72 -191q150 -100 150 -250t-116 -249t-349 -99q-141 0 -259 40t-165 79l-47 39l94 129q16 -14 47 -35.5t129 -58.5t216 -37zM762 452q0 60 -67 104t-151 72t-136 48q-54 -23 -54 -86t55 -104.5t149 -74.5t161 -63q43 44 43 104z" glyph-name="section.case" horiz-adv-x="1095"/><glyph d="M334 -225h-156v1689h156v-1689z" glyph-name="brokenbar.aalt" horiz-adv-x="509"/></font>
</defs>
</svg>
